<?xml version="1.0" encoding="UTF-8"?>
<svg xmlns="http://www.w3.org/2000/svg" xmlns:xlink="http://www.w3.org/1999/xlink" width="504px" height="504px" viewBox="0 0 504 504" version="1.1">
  <metadata xmlns:gridsvg="http://www.stat.auckland.ac.nz/~paul/R/gridSVG/">
    <gridsvg:generator name="gridSVG" version="1.6-0" time="2019-01-18 19:06:58"/>
    <gridsvg:argument name="name" value="./latest_informaggio_csv/anziani/risultati/svg/anagrafica-comunicazione.svg"/>
    <gridsvg:argument name="exportCoords" value="none"/>
    <gridsvg:argument name="exportMappings" value="none"/>
    <gridsvg:argument name="exportJS" value="none"/>
    <gridsvg:argument name="res" value="72"/>
    <gridsvg:argument name="prefix" value=""/>
    <gridsvg:argument name="addClasses" value="TRUE"/>
    <gridsvg:argument name="indent" value="TRUE"/>
    <gridsvg:argument name="htmlWrapper" value="FALSE"/>
    <gridsvg:argument name="usePaths" value="vpPaths"/>
    <gridsvg:argument name="uniqueNames" value="TRUE"/>
    <gridsvg:separator name="id.sep" value="."/>
    <gridsvg:separator name="gPath.sep" value="::"/>
    <gridsvg:separator name="vpPath.sep" value="::"/>
  </metadata>
  <g transform="translate(0, 504) scale(1, -1)">
    <g id="gridSVG" fill="none" stroke="rgb(0,0,0)" stroke-dasharray="none" stroke-width="0.75" font-size="12" font-family="Helvetica, Arial, FreeSans, Liberation Sans, Nimbus Sans L, sans-serif" opacity="1" stroke-linecap="round" stroke-linejoin="round" stroke-miterlimit="10" stroke-opacity="1" fill-opacity="0" font-weight="normal" font-style="normal">
      <g id="layout.1" class="viewport">
        <g id="layout.2" class="forcedgrob gtable gTree grob gDesc">
          <defs>
            <clipPath id="layout::background.1-11-12-1.1.clipPath">
              <rect x="0" y="40.92" width="504" height="422.16" fill="none" stroke="none"/>
            </clipPath>
          </defs>
          <g id="layout::background.1-11-12-1.1" clip-path="url(#layout::background.1-11-12-1.1.clipPath)" class="viewport">
            <g id="background.1-11-12-1.1" class="forcedgrob gTableChild rect grob gDesc">
              <rect id="background.1-11-12-1.1.1" x="0" y="40.92" width="504" height="422.16" transform="" stroke-width="1.07" stroke="rgb(255,255,255)" fill="rgb(255,255,255)" stroke-dasharray="none" stroke-opacity="1" fill-opacity="1"/>
            </g>
          </g>
          <defs>
            <clipPath id="layout::panel.7-5-7-5.1.clipPath">
              <rect x="8.22" y="49.14" width="391" height="391" fill="none" stroke="none"/>
            </clipPath>
          </defs>
          <g id="layout::panel.7-5-7-5.1" clip-path="url(#layout::panel.7-5-7-5.1.clipPath)" class="viewport">
            <g id="panel.7-5-7-5.1" class="forcedgrob gTableChild gTree grob gDesc">
              <g id="grill.gTree.1248.1" class="gTree grob gDesc">
                <g id="panel.background..rect.1244.1" class="rect grob gDesc">
                  <rect id="panel.background..rect.1244.1.1" x="8.22" y="49.14" width="391" height="391" transform="" stroke-width="1.07" stroke="none" fill="rgb(255,255,255)" stroke-dasharray="none" stroke-opacity="0" fill-opacity="1"/>
                </g>
              </g>
              <g id="bar.gTree.1237.1" class="gTree grob gDesc">
                <g id="geom_polygon.polygon.1227.1" class="polygon grob gDesc">
                  <polygon id="geom_polygon.polygon.1227.1.1" points="203.72,244.64 204.4,239.29 205.07,233.94 205.75,228.59 206.42,223.24 207.1,217.89 207.78,212.54 208.45,207.19 209.13,201.84 209.8,196.49 210.48,191.14 211.16,185.79 211.83,180.44 212.51,175.09 213.18,169.73 213.86,164.38 214.54,159.03 215.21,153.68 215.89,148.33 216.56,142.98 217.24,137.63 217.92,132.28 218.59,126.93 219.27,121.58 219.94,116.23 220.62,110.88 221.3,105.53 221.97,100.18 222.65,94.83 223.32,89.48 228.57,90.23 233.79,91.16 238.97,92.27 244.11,93.55 249.21,95 254.25,96.63 259.24,98.43 264.16,100.39 269.01,102.52 273.79,104.82 278.49,107.27 283.1,109.88 287.62,112.65 292.04,115.57 296.36,118.63 300.58,121.84 304.69,125.2 308.67,128.69 312.54,132.31 316.29,136.06 319.9,139.94 323.38,143.93 326.72,148.04 329.93,152.27 332.98,156.6 335.89,161.03 338.65,165.55 341.25,170.17 343.7,174.87 345.98,179.65 348.1,184.51 350.05,189.44 351.84,194.43 353.46,199.47 354.9,204.57 356.17,209.72 357.27,214.9 358.19,220.12 358.93,225.37 359.49,230.64 359.88,235.92 360.08,241.22 360.11,246.52 359.96,251.82 359.62,257.11 359.11,262.38 358.42,267.64 357.55,272.86 356.51,278.06 355.29,283.22 353.9,288.33 352.33,293.39 350.59,298.4 348.69,303.35 346.62,308.22 344.38,313.03 341.98,317.75 339.43,322.4 336.71,326.95 333.85,331.41 330.83,335.77 327.67,340.02 324.37,344.17 320.93,348.2 317.35,352.11 313.65,355.9 309.82,359.56 305.86,363.09 301.79,366.48 297.61,369.73 293.31,372.84 288.92,375.8 284.43,378.61 279.84,381.27 275.17,383.77 270.41,386.11 265.58,388.29 260.68,390.3 255.71,392.15 250.68,393.83 245.6,395.33 240.47,396.66 235.3,397.82 230.09,398.8 224.86,399.61 219.59,400.24 214.31,400.69 209.02,400.95 203.72,401.04 203.72,395.65 203.72,390.26 203.72,384.86 203.72,379.47 203.72,374.08 203.72,368.69 203.72,363.29 203.72,357.9 203.72,352.51 203.72,347.11 203.72,341.72 203.72,336.33 203.72,330.93 203.72,325.54 203.72,320.15 203.72,314.75 203.72,309.36 203.72,303.97 203.72,298.57 203.72,293.18 203.72,287.79 203.72,282.4 203.72,277 203.72,271.61 203.72,266.22 203.72,260.82 203.72,255.43 203.72,250.04 203.72,244.64 203.72,244.64" stroke="none" fill="rgb(231,107,243)" stroke-width="1.07" stroke-dasharray="none" stroke-opacity="0" fill-opacity="1"/>
                </g>
                <g id="geom_polygon.polygon.1229.1" class="polygon grob gDesc">
                  <polygon id="geom_polygon.polygon.1229.1.1" points="203.72,244.64 198.42,243.63 193.13,242.62 187.83,241.61 182.53,240.6 177.23,239.59 171.94,238.58 166.64,237.57 161.34,236.56 156.04,235.55 150.74,234.54 145.45,233.53 140.15,232.52 134.85,231.51 129.55,230.5 124.26,229.48 118.96,228.47 113.66,227.46 108.36,226.45 103.07,225.44 97.77,224.43 92.47,223.42 87.17,222.41 81.88,221.4 76.58,220.39 71.28,219.38 65.98,218.37 60.69,217.36 55.39,216.35 50.09,215.34 51.18,210.09 52.46,204.88 53.91,199.72 55.54,194.62 57.34,189.57 59.31,184.58 61.45,179.67 63.76,174.84 66.24,170.08 68.87,165.41 71.67,160.84 74.62,156.36 77.72,151.99 80.97,147.73 84.36,143.58 87.89,139.55 91.56,135.64 95.36,131.86 99.29,128.22 103.34,124.71 107.51,121.34 111.79,118.11 116.18,115.04 120.67,112.11 125.26,109.34 129.94,106.74 134.71,104.29 139.56,102.01 144.49,99.89 149.48,97.95 154.54,96.18 159.66,94.58 164.83,93.16 170.04,91.91 175.29,90.85 180.58,89.96 185.89,89.26 191.23,88.74 196.58,88.41 201.93,88.25 207.29,88.28 212.65,88.5 217.99,88.89 223.32,89.48 222.65,94.83 221.97,100.18 221.3,105.53 220.62,110.88 219.94,116.23 219.27,121.58 218.59,126.93 217.92,132.28 217.24,137.63 216.56,142.98 215.89,148.33 215.21,153.68 214.54,159.03 213.86,164.38 213.18,169.73 212.51,175.09 211.83,180.44 211.16,185.79 210.48,191.14 209.8,196.49 209.13,201.84 208.45,207.19 207.78,212.54 207.1,217.89 206.42,223.24 205.75,228.59 205.07,233.94 204.4,239.29 203.72,244.64 203.72,244.64" stroke="none" fill="rgb(0,176,246)" stroke-width="1.07" stroke-dasharray="none" stroke-opacity="0" fill-opacity="1"/>
                </g>
                <g id="geom_polygon.polygon.1231.1" class="polygon grob gDesc">
                  <polygon id="geom_polygon.polygon.1231.1.1" points="203.72,244.64 200.55,249.01 197.38,253.37 194.21,257.73 191.04,262.1 187.87,266.46 184.7,270.82 181.53,275.19 178.36,279.55 175.19,283.91 172.02,288.27 168.85,292.64 165.68,297 162.51,301.36 159.34,305.73 156.17,310.09 153,314.45 149.83,318.82 146.66,323.18 143.49,327.54 140.32,331.91 137.15,336.27 133.98,340.63 130.81,345 127.64,349.36 124.47,353.72 121.3,358.08 118.13,362.45 114.96,366.81 111.79,371.17 107.51,367.95 103.34,364.58 99.29,361.07 95.36,357.42 91.56,353.65 87.89,349.74 84.36,345.71 80.97,341.56 77.72,337.29 74.62,332.92 71.67,328.45 68.87,323.87 66.24,319.21 63.76,314.45 61.45,309.61 59.31,304.7 57.34,299.72 55.54,294.67 53.91,289.56 52.46,284.4 51.18,279.2 50.09,273.95 49.18,268.67 48.44,263.36 47.89,258.03 47.53,252.68 47.34,247.32 47.34,241.96 47.53,236.61 47.89,231.26 48.44,225.93 49.18,220.62 50.09,215.34 55.39,216.35 60.69,217.36 65.98,218.37 71.28,219.38 76.58,220.39 81.88,221.4 87.17,222.41 92.47,223.42 97.77,224.43 103.07,225.44 108.36,226.45 113.66,227.46 118.96,228.47 124.26,229.48 129.55,230.5 134.85,231.51 140.15,232.52 145.45,233.53 150.74,234.54 156.04,235.55 161.34,236.56 166.64,237.57 171.94,238.58 177.23,239.59 182.53,240.6 187.83,241.61 193.13,242.62 198.42,243.63 203.72,244.64 203.72,244.64" stroke="none" fill="rgb(0,191,125)" stroke-width="1.07" stroke-dasharray="none" stroke-opacity="0" fill-opacity="1"/>
                </g>
                <g id="geom_polygon.polygon.1233.1" class="polygon grob gDesc">
                  <polygon id="geom_polygon.polygon.1233.1.1" points="203.72,244.64 203.04,249.99 202.37,255.34 201.69,260.69 201.02,266.05 200.34,271.4 199.67,276.75 198.99,282.1 198.31,287.45 197.64,292.8 196.96,298.15 196.29,303.5 195.61,308.85 194.93,314.2 194.26,319.55 193.58,324.9 192.91,330.25 192.23,335.6 191.55,340.95 190.88,346.3 190.2,351.66 189.53,357.01 188.85,362.36 188.17,367.71 187.5,373.06 186.82,378.41 186.15,383.76 185.47,389.11 184.79,394.46 184.12,399.81 178.56,399.01 173.04,398 167.55,396.8 162.11,395.41 156.73,393.82 151.4,392.03 146.15,390.06 140.96,387.9 135.86,385.56 130.85,383.03 125.93,380.32 121.11,377.44 116.39,374.39 111.79,371.17 114.96,366.81 118.13,362.45 121.3,358.08 124.47,353.72 127.64,349.36 130.81,345 133.98,340.63 137.15,336.27 140.32,331.91 143.49,327.54 146.66,323.18 149.83,318.82 153,314.45 156.17,310.09 159.34,305.73 162.51,301.36 165.68,297 168.85,292.64 172.02,288.27 175.19,283.91 178.36,279.55 181.53,275.19 184.7,270.82 187.87,266.46 191.04,262.1 194.21,257.73 197.38,253.37 200.55,249.01 203.72,244.64 203.72,244.64" stroke="none" fill="rgb(163,165,0)" stroke-width="1.07" stroke-dasharray="none" stroke-opacity="0" fill-opacity="1"/>
                </g>
                <g id="geom_polygon.polygon.1235.1" class="polygon grob gDesc">
                  <polygon id="geom_polygon.polygon.1235.1.1" points="203.72,244.64 203.72,250.04 203.72,255.43 203.72,260.82 203.72,266.22 203.72,271.61 203.72,277 203.72,282.4 203.72,287.79 203.72,293.18 203.72,298.57 203.72,303.97 203.72,309.36 203.72,314.75 203.72,320.15 203.72,325.54 203.72,330.93 203.72,336.33 203.72,341.72 203.72,347.11 203.72,352.51 203.72,357.9 203.72,363.29 203.72,368.69 203.72,374.08 203.72,379.47 203.72,384.86 203.72,390.26 203.72,395.65 203.72,401.04 197.17,400.91 190.63,400.5 184.12,399.81 184.79,394.46 185.47,389.11 186.15,383.76 186.82,378.41 187.5,373.06 188.17,367.71 188.85,362.36 189.53,357.01 190.2,351.66 190.88,346.3 191.55,340.95 192.23,335.6 192.91,330.25 193.58,324.9 194.26,319.55 194.93,314.2 195.61,308.85 196.29,303.5 196.96,298.15 197.64,292.8 198.31,287.45 198.99,282.1 199.67,276.75 200.34,271.4 201.02,266.05 201.69,260.69 202.37,255.34 203.04,249.99 203.72,244.64 203.72,244.64" stroke="none" fill="rgb(248,118,109)" stroke-width="1.07" stroke-dasharray="none" stroke-opacity="0" fill-opacity="1"/>
                </g>
              </g>
              <g id="GRID.text.1238.1" class="text grob gDesc">
                <g id="GRID.text.1238.1.1" transform="translate(281.77, 249.55)" stroke-width="0.1">
                  <g id="GRID.text.1238.1.1.scale" transform="scale(1, -1)">
                    <text x="0" y="0" id="GRID.text.1238.1.1.text" text-anchor="middle" stroke="rgb(0,0,0)" font-size="11.04" font-family="Helvetica, Arial, FreeSans, Liberation Sans, Nimbus Sans L, sans-serif" fill="rgb(0,0,0)" stroke-opacity="1" fill-opacity="1" font-weight="normal" font-style="normal">
                      <tspan id="GRID.text.1238.1.1.tspan.1" dy="3.95" x="0">24</tspan>
                    </text>
                  </g>
                </g>
                <g id="GRID.text.1238.1.2" transform="translate(157.76, 181.38)" stroke-width="0.1">
                  <g id="GRID.text.1238.1.2.scale" transform="scale(1, -1)">
                    <text x="0" y="0" id="GRID.text.1238.1.2.text" text-anchor="middle" stroke="rgb(0,0,0)" font-size="11.04" font-family="Helvetica, Arial, FreeSans, Liberation Sans, Nimbus Sans L, sans-serif" fill="rgb(0,0,0)" stroke-opacity="1" fill-opacity="1" font-weight="normal" font-style="normal">
                      <tspan id="GRID.text.1238.1.2.tspan.1" dy="3.95" x="0">12</tspan>
                    </text>
                  </g>
                </g>
                <g id="GRID.text.1238.1.3" transform="translate(131.01, 273.43)" stroke-width="0.1">
                  <g id="GRID.text.1238.1.3.scale" transform="scale(1, -1)">
                    <text x="0" y="0" id="GRID.text.1238.1.3.text" text-anchor="middle" stroke="rgb(0,0,0)" font-size="11.04" font-family="Helvetica, Arial, FreeSans, Liberation Sans, Nimbus Sans L, sans-serif" fill="rgb(0,0,0)" stroke-opacity="1" fill-opacity="1" font-weight="normal" font-style="normal">
                      <tspan id="GRID.text.1238.1.3.tspan.1" dy="3.95" x="0">9</tspan>
                    </text>
                  </g>
                </g>
                <g id="GRID.text.1238.1.4" transform="translate(174.93, 317.35)" stroke-width="0.1">
                  <g id="GRID.text.1238.1.4.scale" transform="scale(1, -1)">
                    <text x="0" y="0" id="GRID.text.1238.1.4.text" text-anchor="middle" stroke="rgb(0,0,0)" font-size="11.04" font-family="Helvetica, Arial, FreeSans, Liberation Sans, Nimbus Sans L, sans-serif" fill="rgb(0,0,0)" stroke-opacity="1" fill-opacity="1" font-weight="normal" font-style="normal">
                      <tspan id="GRID.text.1238.1.4.tspan.1" dy="3.95" x="0">4</tspan>
                    </text>
                  </g>
                </g>
                <g id="GRID.text.1238.1.5" transform="translate(198.81, 322.69)" stroke-width="0.1">
                  <g id="GRID.text.1238.1.5.scale" transform="scale(1, -1)">
                    <text x="0" y="0" id="GRID.text.1238.1.5.text" text-anchor="middle" stroke="rgb(0,0,0)" font-size="11.04" font-family="Helvetica, Arial, FreeSans, Liberation Sans, Nimbus Sans L, sans-serif" fill="rgb(0,0,0)" stroke-opacity="1" fill-opacity="1" font-weight="normal" font-style="normal">
                      <tspan id="GRID.text.1238.1.5.tspan.1" dy="3.95" x="0">1</tspan>
                    </text>
                  </g>
                </g>
              </g>
              <g id="GRID.gTree.1239.1" class="gTree grob gDesc"/>
            </g>
          </g>
          <g id="layout::spacer.8-6-8-6.1" class="viewport"/>
          <g id="layout::spacer.8-4-8-4.1" class="viewport"/>
          <g id="layout::spacer.6-6-6-6.1" class="viewport"/>
          <g id="layout::spacer.6-4-6-4.1" class="viewport"/>
          <g id="layout::axis-t.6-5-6-5.1" class="viewport"/>
          <g id="layout::axis-l.7-4-7-4.1" class="viewport">
            <g id="layout::axis-l.7-4-7-4::GRID.VP.287.1" class="viewport">
              <g id="axis-l.7-4-7-4.1" class="forcedgrob gTableChild absoluteGrob gTree grob gDesc">
                <g id="layout::axis-l.7-4-7-4::GRID.VP.287::axis.1" class="viewport">
                  <g id="axis.1" class="forcedgrob gtable gTree grob gDesc">
                    <g id="layout::axis-l.7-4-7-4::GRID.VP.287::axis::axis.1-1-1-1.1" class="viewport"/>
                    <g id="layout::axis-l.7-4-7-4::GRID.VP.287::axis::axis.1-2-1-2.1" class="viewport"/>
                  </g>
                </g>
              </g>
            </g>
          </g>
          <g id="layout::axis-r.7-6-7-6.1" class="viewport"/>
          <g id="layout::axis-b.8-5-8-5.1" class="viewport">
            <g id="layout::axis-b.8-5-8-5::GRID.VP.286.1" class="viewport">
              <g id="axis-b.8-5-8-5.1" class="forcedgrob gTableChild absoluteGrob gTree grob gDesc">
                <g id="layout::axis-b.8-5-8-5::GRID.VP.286::axis.1" class="viewport">
                  <g id="axis.2" class="forcedgrob gtable gTree grob gDesc">
                    <g id="layout::axis-b.8-5-8-5::GRID.VP.286::axis::axis.1-1-1-1.1" class="viewport"/>
                    <g id="layout::axis-b.8-5-8-5::GRID.VP.286::axis::axis.2-1-2-1.1" class="viewport"/>
                  </g>
                </g>
              </g>
            </g>
          </g>
          <g id="layout::xlab-t.5-5-5-5.1" class="viewport"/>
          <g id="layout::xlab-b.9-5-9-5.1" class="viewport"/>
          <g id="layout::ylab-l.7-3-7-3.1" class="viewport"/>
          <g id="layout::ylab-r.7-7-7-7.1" class="viewport"/>
          <g id="layout::guide-box.7-9-7-9.1" class="viewport">
            <g id="layout::guide-box.7-9-7-9::GRID.VP.304.1" class="viewport">
              <g id="layout::guide-box.7-9-7-9::GRID.VP.304::guide-box.7-9-7-9.1" class="viewport">
                <g id="guide-box.7-9-7-9.1" class="forcedgrob gTableChild gtable gTree grob gDesc">
                  <g id="layout::guide-box.7-9-7-9::GRID.VP.304::guide-box.7-9-7-9::legend.box.background.2-4-4-2.1" class="viewport"/>
                  <g id="layout::guide-box.7-9-7-9::GRID.VP.304::guide-box.7-9-7-9::guides.3-3-3-3.1" class="viewport">
                    <g id="layout::guide-box.7-9-7-9::GRID.VP.304::guide-box.7-9-7-9::guides.3-3-3-3::GRID.VP.303.1" class="viewport">
                      <g id="layout::guide-box.7-9-7-9::GRID.VP.304::guide-box.7-9-7-9::guides.3-3-3-3::GRID.VP.303::guides.3-3-3-3.1" class="viewport">
                        <g id="guides.3-3-3-3.1" class="forcedgrob gTableChild gtable gTree grob gDesc">
                          <g id="layout::guide-box.7-9-7-9::GRID.VP.304::guide-box.7-9-7-9::guides.3-3-3-3::GRID.VP.303::guides.3-3-3-3::background.1-6-9-1.1" class="viewport">
                            <g id="background.1-6-9-1.1" class="forcedgrob gTableChild rect grob gDesc">
                              <rect id="background.1-6-9-1.1.1" x="410.18" y="193.22" width="88.34" height="102.84" transform="" stroke-width="1.07" stroke="none" fill="rgb(255,255,255)" stroke-dasharray="none" stroke-opacity="0" fill-opacity="1"/>
                            </g>
                          </g>
                          <g id="layout::guide-box.7-9-7-9::GRID.VP.304::guide-box.7-9-7-9::guides.3-3-3-3::GRID.VP.303::guides.3-3-3-3::title.2-5-2-2.1" class="viewport"/>
                          <g id="layout::guide-box.7-9-7-9::GRID.VP.304::guide-box.7-9-7-9::guides.3-3-3-3::GRID.VP.303::guides.3-3-3-3::key-3-1-bg.4-2-4-2.1" class="viewport"/>
                          <g id="layout::guide-box.7-9-7-9::GRID.VP.304::guide-box.7-9-7-9::guides.3-3-3-3::GRID.VP.303::guides.3-3-3-3::key-3-1-1.4-2-4-2.1" class="viewport">
                            <g id="key-3-1-1.4-2-4-2.1" class="forcedgrob gTableChild rect grob gDesc">
                              <rect id="key-3-1-1.4-2-4-2.1.1" x="416.37" y="268.53" width="15.86" height="15.86" transform="" stroke="none" fill="rgb(248,118,109)" stroke-dasharray="none" stroke-width="1.07" stroke-linejoin="miter" stroke-opacity="0" fill-opacity="1"/>
                            </g>
                          </g>
                          <g id="layout::guide-box.7-9-7-9::GRID.VP.304::guide-box.7-9-7-9::guides.3-3-3-3::GRID.VP.303::guides.3-3-3-3::key-4-1-bg.5-2-5-2.1" class="viewport"/>
                          <g id="layout::guide-box.7-9-7-9::GRID.VP.304::guide-box.7-9-7-9::guides.3-3-3-3::GRID.VP.303::guides.3-3-3-3::key-4-1-1.5-2-5-2.1" class="viewport">
                            <g id="key-4-1-1.5-2-5-2.1" class="forcedgrob gTableChild rect grob gDesc">
                              <rect id="key-4-1-1.5-2-5-2.1.1" x="416.37" y="251.25" width="15.86" height="15.86" transform="" stroke="none" fill="rgb(163,165,0)" stroke-dasharray="none" stroke-width="1.07" stroke-linejoin="miter" stroke-opacity="0" fill-opacity="1"/>
                            </g>
                          </g>
                          <g id="layout::guide-box.7-9-7-9::GRID.VP.304::guide-box.7-9-7-9::guides.3-3-3-3::GRID.VP.303::guides.3-3-3-3::key-5-1-bg.6-2-6-2.1" class="viewport"/>
                          <g id="layout::guide-box.7-9-7-9::GRID.VP.304::guide-box.7-9-7-9::guides.3-3-3-3::GRID.VP.303::guides.3-3-3-3::key-5-1-1.6-2-6-2.1" class="viewport">
                            <g id="key-5-1-1.6-2-6-2.1" class="forcedgrob gTableChild rect grob gDesc">
                              <rect id="key-5-1-1.6-2-6-2.1.1" x="416.37" y="233.97" width="15.86" height="15.86" transform="" stroke="none" fill="rgb(0,191,125)" stroke-dasharray="none" stroke-width="1.07" stroke-linejoin="miter" stroke-opacity="0" fill-opacity="1"/>
                            </g>
                          </g>
                          <g id="layout::guide-box.7-9-7-9::GRID.VP.304::guide-box.7-9-7-9::guides.3-3-3-3::GRID.VP.303::guides.3-3-3-3::key-6-1-bg.7-2-7-2.1" class="viewport"/>
                          <g id="layout::guide-box.7-9-7-9::GRID.VP.304::guide-box.7-9-7-9::guides.3-3-3-3::GRID.VP.303::guides.3-3-3-3::key-6-1-1.7-2-7-2.1" class="viewport">
                            <g id="key-6-1-1.7-2-7-2.1" class="forcedgrob gTableChild rect grob gDesc">
                              <rect id="key-6-1-1.7-2-7-2.1.1" x="416.37" y="216.69" width="15.86" height="15.86" transform="" stroke="none" fill="rgb(0,176,246)" stroke-dasharray="none" stroke-width="1.07" stroke-linejoin="miter" stroke-opacity="0" fill-opacity="1"/>
                            </g>
                          </g>
                          <g id="layout::guide-box.7-9-7-9::GRID.VP.304::guide-box.7-9-7-9::guides.3-3-3-3::GRID.VP.303::guides.3-3-3-3::key-7-1-bg.8-2-8-2.1" class="viewport"/>
                          <g id="layout::guide-box.7-9-7-9::GRID.VP.304::guide-box.7-9-7-9::guides.3-3-3-3::GRID.VP.303::guides.3-3-3-3::key-7-1-1.8-2-8-2.1" class="viewport">
                            <g id="key-7-1-1.8-2-8-2.1" class="forcedgrob gTableChild rect grob gDesc">
                              <rect id="key-7-1-1.8-2-8-2.1.1" x="416.37" y="199.41" width="15.86" height="15.86" transform="" stroke="none" fill="rgb(231,107,243)" stroke-dasharray="none" stroke-width="1.07" stroke-linejoin="miter" stroke-opacity="0" fill-opacity="1"/>
                            </g>
                          </g>
                          <g id="layout::guide-box.7-9-7-9::GRID.VP.304::guide-box.7-9-7-9::guides.3-3-3-3::GRID.VP.303::guides.3-3-3-3::label-3-3.4-4-4-4.1" class="viewport">
                            <g id="layout::guide-box.7-9-7-9::GRID.VP.304::guide-box.7-9-7-9::guides.3-3-3-3::GRID.VP.303::guides.3-3-3-3::label-3-3.4-4-4-4::GRID.VP.298.1" class="viewport">
                              <g id="label-3-3.4-4-4-4.1" class="forcedgrob gTableChild gTree grob gDesc">
                                <g id="layout::guide-box.7-9-7-9::GRID.VP.304::guide-box.7-9-7-9::guides.3-3-3-3::GRID.VP.303::guides.3-3-3-3::label-3-3.4-4-4-4::GRID.VP.298::GRID.VP.288.1" font-size="8.8" stroke="rgb(0,0,0)" font-family="Helvetica, Arial, FreeSans, Liberation Sans, Nimbus Sans L, sans-serif" stroke-opacity="1" font-weight="normal" font-style="normal" class="viewport">
                                  <g id="layout::guide-box.7-9-7-9::GRID.VP.304::guide-box.7-9-7-9::guides.3-3-3-3::GRID.VP.303::guides.3-3-3-3::label-3-3.4-4-4-4::GRID.VP.298::GRID.VP.288::GRID.VP.289.1" class="viewport">
                                    <g id="guide.label.titleGrob.1262.1" class="titleGrob gTree grob gDesc">
                                      <g id="GRID.text.1260.1" class="text grob gDesc">
                                        <g id="GRID.text.1260.1.1" transform="translate(438.42, 276.46)" stroke-width="0.1">
                                          <g id="GRID.text.1260.1.1.scale" transform="scale(1, -1)">
                                            <text x="0" y="0" id="GRID.text.1260.1.1.text" text-anchor="start" font-size="8.8" stroke="rgb(0,0,0)" font-family="Helvetica, Arial, FreeSans, Liberation Sans, Nimbus Sans L, sans-serif" fill="rgb(0,0,0)" stroke-opacity="1" fill-opacity="1" font-weight="normal" font-style="normal">
                                              <tspan id="GRID.text.1260.1.1.tspan.1" dy="3.23" x="0">nessuno (1)</tspan>
                                            </text>
                                          </g>
                                        </g>
                                      </g>
                                    </g>
                                  </g>
                                </g>
                              </g>
                            </g>
                          </g>
                          <g id="layout::guide-box.7-9-7-9::GRID.VP.304::guide-box.7-9-7-9::guides.3-3-3-3::GRID.VP.303::guides.3-3-3-3::label-4-3.5-4-5-4.1" class="viewport">
                            <g id="layout::guide-box.7-9-7-9::GRID.VP.304::guide-box.7-9-7-9::guides.3-3-3-3::GRID.VP.303::guides.3-3-3-3::label-4-3.5-4-5-4::GRID.VP.299.1" class="viewport">
                              <g id="label-4-3.5-4-5-4.1" class="forcedgrob gTableChild gTree grob gDesc">
                                <g id="layout::guide-box.7-9-7-9::GRID.VP.304::guide-box.7-9-7-9::guides.3-3-3-3::GRID.VP.303::guides.3-3-3-3::label-4-3.5-4-5-4::GRID.VP.299::GRID.VP.290.1" font-size="8.8" stroke="rgb(0,0,0)" font-family="Helvetica, Arial, FreeSans, Liberation Sans, Nimbus Sans L, sans-serif" stroke-opacity="1" font-weight="normal" font-style="normal" class="viewport">
                                  <g id="layout::guide-box.7-9-7-9::GRID.VP.304::guide-box.7-9-7-9::guides.3-3-3-3::GRID.VP.303::guides.3-3-3-3::label-4-3.5-4-5-4::GRID.VP.299::GRID.VP.290::GRID.VP.291.1" class="viewport">
                                    <g id="guide.label.titleGrob.1265.1" class="titleGrob gTree grob gDesc">
                                      <g id="GRID.text.1263.1" class="text grob gDesc">
                                        <g id="GRID.text.1263.1.1" transform="translate(438.42, 259.18)" stroke-width="0.1">
                                          <g id="GRID.text.1263.1.1.scale" transform="scale(1, -1)">
                                            <text x="0" y="0" id="GRID.text.1263.1.1.text" text-anchor="start" font-size="8.8" stroke="rgb(0,0,0)" font-family="Helvetica, Arial, FreeSans, Liberation Sans, Nimbus Sans L, sans-serif" fill="rgb(0,0,0)" stroke-opacity="1" fill-opacity="1" font-weight="normal" font-style="normal">
                                              <tspan id="GRID.text.1263.1.1.tspan.1" dy="3.23" x="0">tutto (4)</tspan>
                                            </text>
                                          </g>
                                        </g>
                                      </g>
                                    </g>
                                  </g>
                                </g>
                              </g>
                            </g>
                          </g>
                          <g id="layout::guide-box.7-9-7-9::GRID.VP.304::guide-box.7-9-7-9::guides.3-3-3-3::GRID.VP.303::guides.3-3-3-3::label-5-3.6-4-6-4.1" class="viewport">
                            <g id="layout::guide-box.7-9-7-9::GRID.VP.304::guide-box.7-9-7-9::guides.3-3-3-3::GRID.VP.303::guides.3-3-3-3::label-5-3.6-4-6-4::GRID.VP.300.1" class="viewport">
                              <g id="label-5-3.6-4-6-4.1" class="forcedgrob gTableChild gTree grob gDesc">
                                <g id="layout::guide-box.7-9-7-9::GRID.VP.304::guide-box.7-9-7-9::guides.3-3-3-3::GRID.VP.303::guides.3-3-3-3::label-5-3.6-4-6-4::GRID.VP.300::GRID.VP.292.1" font-size="8.8" stroke="rgb(0,0,0)" font-family="Helvetica, Arial, FreeSans, Liberation Sans, Nimbus Sans L, sans-serif" stroke-opacity="1" font-weight="normal" font-style="normal" class="viewport">
                                  <g id="layout::guide-box.7-9-7-9::GRID.VP.304::guide-box.7-9-7-9::guides.3-3-3-3::GRID.VP.303::guides.3-3-3-3::label-5-3.6-4-6-4::GRID.VP.300::GRID.VP.292::GRID.VP.293.1" class="viewport">
                                    <g id="guide.label.titleGrob.1268.1" class="titleGrob gTree grob gDesc">
                                      <g id="GRID.text.1266.1" class="text grob gDesc">
                                        <g id="GRID.text.1266.1.1" transform="translate(438.42, 241.9)" stroke-width="0.1">
                                          <g id="GRID.text.1266.1.1.scale" transform="scale(1, -1)">
                                            <text x="0" y="0" id="GRID.text.1266.1.1.text" text-anchor="start" font-size="8.8" stroke="rgb(0,0,0)" font-family="Helvetica, Arial, FreeSans, Liberation Sans, Nimbus Sans L, sans-serif" fill="rgb(0,0,0)" stroke-opacity="1" fill-opacity="1" font-weight="normal" font-style="normal">
                                              <tspan id="GRID.text.1266.1.1.tspan.1" dy="3.23" x="0">base (9)</tspan>
                                            </text>
                                          </g>
                                        </g>
                                      </g>
                                    </g>
                                  </g>
                                </g>
                              </g>
                            </g>
                          </g>
                          <g id="layout::guide-box.7-9-7-9::GRID.VP.304::guide-box.7-9-7-9::guides.3-3-3-3::GRID.VP.303::guides.3-3-3-3::label-6-3.7-4-7-4.1" class="viewport">
                            <g id="layout::guide-box.7-9-7-9::GRID.VP.304::guide-box.7-9-7-9::guides.3-3-3-3::GRID.VP.303::guides.3-3-3-3::label-6-3.7-4-7-4::GRID.VP.301.1" class="viewport">
                              <g id="label-6-3.7-4-7-4.1" class="forcedgrob gTableChild gTree grob gDesc">
                                <g id="layout::guide-box.7-9-7-9::GRID.VP.304::guide-box.7-9-7-9::guides.3-3-3-3::GRID.VP.303::guides.3-3-3-3::label-6-3.7-4-7-4::GRID.VP.301::GRID.VP.294.1" font-size="8.8" stroke="rgb(0,0,0)" font-family="Helvetica, Arial, FreeSans, Liberation Sans, Nimbus Sans L, sans-serif" stroke-opacity="1" font-weight="normal" font-style="normal" class="viewport">
                                  <g id="layout::guide-box.7-9-7-9::GRID.VP.304::guide-box.7-9-7-9::guides.3-3-3-3::GRID.VP.303::guides.3-3-3-3::label-6-3.7-4-7-4::GRID.VP.301::GRID.VP.294::GRID.VP.295.1" class="viewport">
                                    <g id="guide.label.titleGrob.1271.1" class="titleGrob gTree grob gDesc">
                                      <g id="GRID.text.1269.1" class="text grob gDesc">
                                        <g id="GRID.text.1269.1.1" transform="translate(438.42, 224.62)" stroke-width="0.1">
                                          <g id="GRID.text.1269.1.1.scale" transform="scale(1, -1)">
                                            <text x="0" y="0" id="GRID.text.1269.1.1.text" text-anchor="start" font-size="8.8" stroke="rgb(0,0,0)" font-family="Helvetica, Arial, FreeSans, Liberation Sans, Nimbus Sans L, sans-serif" fill="rgb(0,0,0)" stroke-opacity="1" fill-opacity="1" font-weight="normal" font-style="normal">
                                              <tspan id="GRID.text.1269.1.1.tspan.1" dy="3.23" x="0">medio (12)</tspan>
                                            </text>
                                          </g>
                                        </g>
                                      </g>
                                    </g>
                                  </g>
                                </g>
                              </g>
                            </g>
                          </g>
                          <g id="layout::guide-box.7-9-7-9::GRID.VP.304::guide-box.7-9-7-9::guides.3-3-3-3::GRID.VP.303::guides.3-3-3-3::label-7-3.8-4-8-4.1" class="viewport">
                            <g id="layout::guide-box.7-9-7-9::GRID.VP.304::guide-box.7-9-7-9::guides.3-3-3-3::GRID.VP.303::guides.3-3-3-3::label-7-3.8-4-8-4::GRID.VP.302.1" class="viewport">
                              <g id="label-7-3.8-4-8-4.1" class="forcedgrob gTableChild gTree grob gDesc">
                                <g id="layout::guide-box.7-9-7-9::GRID.VP.304::guide-box.7-9-7-9::guides.3-3-3-3::GRID.VP.303::guides.3-3-3-3::label-7-3.8-4-8-4::GRID.VP.302::GRID.VP.296.1" font-size="8.8" stroke="rgb(0,0,0)" font-family="Helvetica, Arial, FreeSans, Liberation Sans, Nimbus Sans L, sans-serif" stroke-opacity="1" font-weight="normal" font-style="normal" class="viewport">
                                  <g id="layout::guide-box.7-9-7-9::GRID.VP.304::guide-box.7-9-7-9::guides.3-3-3-3::GRID.VP.303::guides.3-3-3-3::label-7-3.8-4-8-4::GRID.VP.302::GRID.VP.296::GRID.VP.297.1" class="viewport">
                                    <g id="guide.label.titleGrob.1274.1" class="titleGrob gTree grob gDesc">
                                      <g id="GRID.text.1272.1" class="text grob gDesc">
                                        <g id="GRID.text.1272.1.1" transform="translate(438.42, 207.34)" stroke-width="0.1">
                                          <g id="GRID.text.1272.1.1.scale" transform="scale(1, -1)">
                                            <text x="0" y="0" id="GRID.text.1272.1.1.text" text-anchor="start" font-size="8.8" stroke="rgb(0,0,0)" font-family="Helvetica, Arial, FreeSans, Liberation Sans, Nimbus Sans L, sans-serif" fill="rgb(0,0,0)" stroke-opacity="1" fill-opacity="1" font-weight="normal" font-style="normal">
                                              <tspan id="GRID.text.1272.1.1.tspan.1" dy="3.23" x="0">avanzato (24)</tspan>
                                            </text>
                                          </g>
                                        </g>
                                      </g>
                                    </g>
                                  </g>
                                </g>
                              </g>
                            </g>
                          </g>
                        </g>
                      </g>
                    </g>
                  </g>
                </g>
              </g>
            </g>
          </g>
          <g id="layout::subtitle.4-5-4-5.1" class="viewport"/>
          <g id="layout::title.3-5-3-5.1" class="viewport">
            <g id="layout::title.3-5-3-5::GRID.VP.305.1" font-size="13.2" stroke="rgb(102,102,102)" font-family="Helvetica, Arial, FreeSans, Liberation Sans, Nimbus Sans L, sans-serif" stroke-opacity="1" font-weight="normal" font-style="normal" class="viewport">
              <g id="layout::title.3-5-3-5::GRID.VP.305::GRID.VP.306.1" class="viewport">
                <g id="title.3-5-3-5.1" class="forcedgrob gTableChild titleGrob gTree grob gDesc">
                  <g id="GRID.text.1292.1" class="text grob gDesc">
                    <g id="GRID.text.1292.1.1" transform="translate(203.72, 457.6)" stroke-width="0.1">
                      <g id="GRID.text.1292.1.1.scale" transform="scale(1, -1)">
                        <text x="0" y="0" id="GRID.text.1292.1.1.text" text-anchor="middle" font-size="13.2" stroke="rgb(102,102,102)" font-family="Helvetica, Arial, FreeSans, Liberation Sans, Nimbus Sans L, sans-serif" fill="rgb(102,102,102)" stroke-opacity="1" fill-opacity="1" font-weight="normal" font-style="normal">
                          <tspan id="GRID.text.1292.1.1.tspan.1" dy="9.33" x="0">anagrafica comunicazione</tspan>
                        </text>
                      </g>
                    </g>
                  </g>
                </g>
              </g>
            </g>
          </g>
          <g id="layout::caption.10-5-10-5.1" class="viewport"/>
          <g id="layout::tag.2-2-2-2.1" class="viewport"/>
        </g>
      </g>
    </g>
  </g>
</svg>