<?xml version="1.0" encoding="UTF-8"?>
<svg xmlns="http://www.w3.org/2000/svg" xmlns:xlink="http://www.w3.org/1999/xlink" width="504px" height="504px" viewBox="0 0 504 504" version="1.1">
  <metadata xmlns:gridsvg="http://www.stat.auckland.ac.nz/~paul/R/gridSVG/">
    <gridsvg:generator name="gridSVG" version="1.6-0" time="2019-01-08 22:40:41"/>
    <gridsvg:argument name="name" value="./latest_informaggio_csv/anziani/risultati/svg/anagrafica-totali-espertouniversita.svg"/>
    <gridsvg:argument name="exportCoords" value="none"/>
    <gridsvg:argument name="exportMappings" value="none"/>
    <gridsvg:argument name="exportJS" value="none"/>
    <gridsvg:argument name="res" value="72"/>
    <gridsvg:argument name="prefix" value=""/>
    <gridsvg:argument name="addClasses" value="TRUE"/>
    <gridsvg:argument name="indent" value="TRUE"/>
    <gridsvg:argument name="htmlWrapper" value="FALSE"/>
    <gridsvg:argument name="usePaths" value="vpPaths"/>
    <gridsvg:argument name="uniqueNames" value="TRUE"/>
    <gridsvg:separator name="id.sep" value="."/>
    <gridsvg:separator name="gPath.sep" value="::"/>
    <gridsvg:separator name="vpPath.sep" value="::"/>
  </metadata>
  <g transform="translate(0, 504) scale(1, -1)">
    <g id="gridSVG" fill="none" stroke="rgb(0,0,0)" stroke-dasharray="none" stroke-width="0.75" font-size="12" font-family="Helvetica, Arial, FreeSans, Liberation Sans, Nimbus Sans L, sans-serif" opacity="1" stroke-linecap="round" stroke-linejoin="round" stroke-miterlimit="10" stroke-opacity="1" fill-opacity="0" font-weight="normal" font-style="normal">
      <g id="layout.1" class="viewport">
        <g id="layout.2" class="forcedgrob gtable gTree grob gDesc">
          <defs>
            <clipPath id="layout::background.1-11-12-1.1.clipPath">
              <rect x="0" y="16.86" width="504" height="470.28" fill="none" stroke="none"/>
            </clipPath>
          </defs>
          <g id="layout::background.1-11-12-1.1" clip-path="url(#layout::background.1-11-12-1.1.clipPath)" class="viewport">
            <g id="background.1-11-12-1.1" class="forcedgrob gTableChild rect grob gDesc">
              <rect id="background.1-11-12-1.1.1" x="0" y="16.86" width="504" height="470.28" transform="" stroke-width="1.07" stroke="rgb(255,255,255)" fill="rgb(255,255,255)" stroke-dasharray="none" stroke-opacity="1" fill-opacity="1"/>
            </g>
          </g>
          <defs>
            <clipPath id="layout::panel.7-5-7-5.1.clipPath">
              <rect x="8.22" y="25.08" width="439.13" height="439.13" fill="none" stroke="none"/>
            </clipPath>
          </defs>
          <g id="layout::panel.7-5-7-5.1" clip-path="url(#layout::panel.7-5-7-5.1.clipPath)" class="viewport">
            <g id="panel.7-5-7-5.1" class="forcedgrob gTableChild gTree grob gDesc">
              <g id="grill.gTree.2000.1" class="gTree grob gDesc">
                <g id="panel.background..rect.1996.1" class="rect grob gDesc">
                  <rect id="panel.background..rect.1996.1.1" x="8.22" y="25.08" width="439.13" height="439.13" transform="" stroke-width="1.07" stroke="none" fill="rgb(255,255,255)" stroke-dasharray="none" stroke-opacity="0" fill-opacity="1"/>
                </g>
              </g>
              <g id="bar.gTree.1989.1" class="gTree grob gDesc">
                <g id="geom_polygon.polygon.1985.1" class="polygon grob gDesc">
                  <polygon id="geom_polygon.polygon.1985.1.1" points="227.78,244.64 225.46,239.05 223.15,233.45 220.83,227.86 218.51,222.26 216.19,216.66 213.87,211.07 211.56,205.47 209.24,199.88 206.92,194.28 204.6,188.68 202.29,183.09 199.97,177.49 197.65,171.9 195.33,166.3 193.01,160.71 190.7,155.11 188.38,149.51 186.06,143.92 183.74,138.32 181.42,132.73 179.11,127.13 176.79,121.53 174.47,115.94 172.15,110.34 169.84,104.75 167.52,99.15 165.2,93.56 162.88,87.96 160.56,82.36 166.12,80.17 171.74,78.17 177.43,76.36 183.18,74.75 188.97,73.33 194.82,72.11 200.7,71.09 206.61,70.27 212.55,69.65 218.5,69.24 224.47,69.02 230.44,69.01 236.4,69.2 242.36,69.6 248.3,70.19 254.21,70.99 260.1,71.99 265.94,73.19 271.75,74.58 277.5,76.18 283.2,77.96 288.83,79.94 294.39,82.11 299.87,84.47 305.27,87.01 310.58,89.73 315.8,92.64 320.91,95.71 325.92,98.96 330.81,102.38 335.59,105.97 340.24,109.71 344.76,113.61 349.14,117.66 353.38,121.85 357.48,126.19 361.43,130.67 365.23,135.28 368.87,140.01 372.34,144.86 375.65,149.83 378.78,154.91 381.74,160.09 384.53,165.37 387.13,170.74 389.55,176.2 391.78,181.74 393.82,187.35 395.68,193.02 397.33,198.75 398.79,204.54 400.06,210.38 401.12,216.25 401.99,222.15 402.65,228.09 403.11,234.04 403.37,240 403.43,245.97 403.28,251.94 402.93,257.9 402.38,263.84 401.63,269.76 400.67,275.65 399.52,281.51 398.17,287.32 396.62,293.09 394.88,298.8 392.94,304.44 390.81,310.02 388.5,315.52 386,320.94 383.31,326.27 380.45,331.51 377.41,336.65 374.2,341.68 370.82,346.6 367.27,351.4 363.56,356.07 359.7,360.62 355.68,365.04 351.52,369.31 347.21,373.45 342.76,377.43 338.19,381.26 333.48,384.93 328.65,388.44 323.71,391.79 318.65,394.96 313.49,397.96 308.23,400.79 302.88,403.43 297.44,405.89 291.93,408.16 286.33,410.25 280.67,412.14 274.95,413.84 269.17,415.35 263.35,416.65 257.48,417.76 251.59,418.67 245.66,419.38 239.71,419.89 233.75,420.19 227.78,420.29 227.78,414.24 227.78,408.18 227.78,402.12 227.78,396.07 227.78,390.01 227.78,383.95 227.78,377.9 227.78,371.84 227.78,365.78 227.78,359.72 227.78,353.67 227.78,347.61 227.78,341.55 227.78,335.5 227.78,329.44 227.78,323.38 227.78,317.33 227.78,311.27 227.78,305.21 227.78,299.16 227.78,293.1 227.78,287.04 227.78,280.98 227.78,274.93 227.78,268.87 227.78,262.81 227.78,256.76 227.78,250.7 227.78,244.64 227.78,244.64" stroke="none" fill="rgb(0,191,196)" stroke-width="1.07" stroke-dasharray="none" stroke-opacity="0" fill-opacity="1"/>
                </g>
                <g id="geom_polygon.polygon.1987.1" class="polygon grob gDesc">
                  <polygon id="geom_polygon.polygon.1987.1.1" points="227.78,244.64 227.78,250.7 227.78,256.76 227.78,262.81 227.78,268.87 227.78,274.93 227.78,280.98 227.78,287.04 227.78,293.1 227.78,299.16 227.78,305.21 227.78,311.27 227.78,317.33 227.78,323.38 227.78,329.44 227.78,335.5 227.78,341.55 227.78,347.61 227.78,353.67 227.78,359.72 227.78,365.78 227.78,371.84 227.78,377.9 227.78,383.95 227.78,390.01 227.78,396.07 227.78,402.12 227.78,408.18 227.78,414.24 227.78,420.29 221.82,420.19 215.87,419.89 209.93,419.38 204.01,418.68 198.12,417.77 192.26,416.66 186.45,415.36 180.68,413.86 174.96,412.16 169.31,410.28 163.72,408.2 158.21,405.93 152.78,403.47 147.43,400.84 142.18,398.02 137.02,395.03 131.97,391.86 127.03,388.53 122.21,385.03 117.51,381.36 112.93,377.54 108.49,373.57 104.18,369.45 100.02,365.18 96,360.78 92.14,356.24 88.43,351.57 84.88,346.78 81.5,341.87 78.28,336.86 75.24,331.73 72.37,326.5 69.69,321.18 67.18,315.78 64.86,310.29 62.72,304.72 60.78,299.08 59.03,293.39 57.47,287.63 56.11,281.83 54.95,275.98 53.99,270.1 53.22,264.19 52.66,258.25 52.3,252.3 52.14,246.35 52.18,240.39 52.43,234.43 52.88,228.49 53.53,222.56 54.38,216.66 55.42,210.79 56.67,204.96 58.12,199.18 59.76,193.45 61.59,187.78 63.62,182.17 65.83,176.64 68.23,171.18 70.82,165.81 73.58,160.53 76.52,155.35 79.64,150.27 82.93,145.29 86.38,140.44 90,135.7 93.78,131.09 97.71,126.6 101.79,122.26 106.01,118.05 110.38,114 114.88,110.09 119.51,106.33 124.26,102.74 129.14,99.31 134.12,96.05 139.22,92.95 144.42,90.04 149.71,87.3 155.1,84.74 160.56,82.36 162.88,87.96 165.2,93.56 167.52,99.15 169.84,104.75 172.15,110.34 174.47,115.94 176.79,121.53 179.11,127.13 181.42,132.73 183.74,138.32 186.06,143.92 188.38,149.51 190.7,155.11 193.01,160.71 195.33,166.3 197.65,171.9 199.97,177.49 202.29,183.09 204.6,188.68 206.92,194.28 209.24,199.88 211.56,205.47 213.87,211.07 216.19,216.66 218.51,222.26 220.83,227.86 223.15,233.45 225.46,239.05 227.78,244.64 227.78,244.64" stroke="none" fill="rgb(248,118,109)" stroke-width="1.07" stroke-dasharray="none" stroke-opacity="0" fill-opacity="1"/>
                </g>
              </g>
              <g id="GRID.text.1990.1" class="text grob gDesc">
                <g id="GRID.text.1990.1.1" transform="translate(313.92, 227.51)" stroke-width="0.1">
                  <g id="GRID.text.1990.1.1.scale" transform="scale(1, -1)">
                    <text x="0" y="0" id="GRID.text.1990.1.1.text" text-anchor="middle" stroke="rgb(0,0,0)" font-size="11.04" font-family="Helvetica, Arial, FreeSans, Liberation Sans, Nimbus Sans L, sans-serif" fill="rgb(0,0,0)" stroke-opacity="1" fill-opacity="1" font-weight="normal" font-style="normal">
                      <tspan id="GRID.text.1990.1.1.tspan.1" dy="3.95" x="0">27</tspan>
                    </text>
                  </g>
                </g>
                <g id="GRID.text.1990.1.2" transform="translate(141.64, 261.78)" stroke-width="0.1">
                  <g id="GRID.text.1990.1.2.scale" transform="scale(1, -1)">
                    <text x="0" y="0" id="GRID.text.1990.1.2.text" text-anchor="middle" stroke="rgb(0,0,0)" font-size="11.04" font-family="Helvetica, Arial, FreeSans, Liberation Sans, Nimbus Sans L, sans-serif" fill="rgb(0,0,0)" stroke-opacity="1" fill-opacity="1" font-weight="normal" font-style="normal">
                      <tspan id="GRID.text.1990.1.2.tspan.1" dy="3.95" x="0">21</tspan>
                    </text>
                  </g>
                </g>
              </g>
              <g id="GRID.gTree.1991.1" class="gTree grob gDesc"/>
            </g>
          </g>
          <g id="layout::spacer.8-6-8-6.1" class="viewport"/>
          <g id="layout::spacer.8-4-8-4.1" class="viewport"/>
          <g id="layout::spacer.6-6-6-6.1" class="viewport"/>
          <g id="layout::spacer.6-4-6-4.1" class="viewport"/>
          <g id="layout::axis-t.6-5-6-5.1" class="viewport"/>
          <g id="layout::axis-l.7-4-7-4.1" class="viewport">
            <g id="layout::axis-l.7-4-7-4::GRID.VP.461.1" class="viewport">
              <g id="axis-l.7-4-7-4.1" class="forcedgrob gTableChild absoluteGrob gTree grob gDesc">
                <g id="layout::axis-l.7-4-7-4::GRID.VP.461::axis.1" class="viewport">
                  <g id="axis.1" class="forcedgrob gtable gTree grob gDesc">
                    <g id="layout::axis-l.7-4-7-4::GRID.VP.461::axis::axis.1-1-1-1.1" class="viewport"/>
                    <g id="layout::axis-l.7-4-7-4::GRID.VP.461::axis::axis.1-2-1-2.1" class="viewport"/>
                  </g>
                </g>
              </g>
            </g>
          </g>
          <g id="layout::axis-r.7-6-7-6.1" class="viewport"/>
          <g id="layout::axis-b.8-5-8-5.1" class="viewport">
            <g id="layout::axis-b.8-5-8-5::GRID.VP.460.1" class="viewport">
              <g id="axis-b.8-5-8-5.1" class="forcedgrob gTableChild absoluteGrob gTree grob gDesc">
                <g id="layout::axis-b.8-5-8-5::GRID.VP.460::axis.1" class="viewport">
                  <g id="axis.2" class="forcedgrob gtable gTree grob gDesc">
                    <g id="layout::axis-b.8-5-8-5::GRID.VP.460::axis::axis.1-1-1-1.1" class="viewport"/>
                    <g id="layout::axis-b.8-5-8-5::GRID.VP.460::axis::axis.2-1-2-1.1" class="viewport"/>
                  </g>
                </g>
              </g>
            </g>
          </g>
          <g id="layout::xlab-t.5-5-5-5.1" class="viewport"/>
          <g id="layout::xlab-b.9-5-9-5.1" class="viewport"/>
          <g id="layout::ylab-l.7-3-7-3.1" class="viewport"/>
          <g id="layout::ylab-r.7-7-7-7.1" class="viewport"/>
          <g id="layout::guide-box.7-9-7-9.1" class="viewport">
            <g id="layout::guide-box.7-9-7-9::GRID.VP.469.1" class="viewport">
              <g id="layout::guide-box.7-9-7-9::GRID.VP.469::guide-box.7-9-7-9.1" class="viewport">
                <g id="guide-box.7-9-7-9.1" class="forcedgrob gTableChild gtable gTree grob gDesc">
                  <g id="layout::guide-box.7-9-7-9::GRID.VP.469::guide-box.7-9-7-9::legend.box.background.2-4-4-2.1" class="viewport"/>
                  <g id="layout::guide-box.7-9-7-9::GRID.VP.469::guide-box.7-9-7-9::guides.3-3-3-3.1" class="viewport">
                    <g id="layout::guide-box.7-9-7-9::GRID.VP.469::guide-box.7-9-7-9::guides.3-3-3-3::GRID.VP.468.1" class="viewport">
                      <g id="layout::guide-box.7-9-7-9::GRID.VP.469::guide-box.7-9-7-9::guides.3-3-3-3::GRID.VP.468::guides.3-3-3-3.1" class="viewport">
                        <g id="guides.3-3-3-3.1" class="forcedgrob gTableChild gtable gTree grob gDesc">
                          <g id="layout::guide-box.7-9-7-9::GRID.VP.469::guide-box.7-9-7-9::guides.3-3-3-3::GRID.VP.468::guides.3-3-3-3::background.1-6-6-1.1" class="viewport">
                            <g id="background.1-6-6-1.1" class="forcedgrob gTableChild rect grob gDesc">
                              <rect id="background.1-6-6-1.1.1" x="458.3" y="219.14" width="40.22" height="51" transform="" stroke-width="1.07" stroke="none" fill="rgb(255,255,255)" stroke-dasharray="none" stroke-opacity="0" fill-opacity="1"/>
                            </g>
                          </g>
                          <g id="layout::guide-box.7-9-7-9::GRID.VP.469::guide-box.7-9-7-9::guides.3-3-3-3::GRID.VP.468::guides.3-3-3-3::title.2-5-2-2.1" class="viewport"/>
                          <g id="layout::guide-box.7-9-7-9::GRID.VP.469::guide-box.7-9-7-9::guides.3-3-3-3::GRID.VP.468::guides.3-3-3-3::key-3-1-bg.4-2-4-2.1" class="viewport"/>
                          <g id="layout::guide-box.7-9-7-9::GRID.VP.469::guide-box.7-9-7-9::guides.3-3-3-3::GRID.VP.468::guides.3-3-3-3::key-3-1-1.4-2-4-2.1" class="viewport">
                            <g id="key-3-1-1.4-2-4-2.1" class="forcedgrob gTableChild rect grob gDesc">
                              <rect id="key-3-1-1.4-2-4-2.1.1" x="464.49" y="242.61" width="15.86" height="15.86" transform="" stroke="none" fill="rgb(248,118,109)" stroke-dasharray="none" stroke-width="1.07" stroke-linejoin="miter" stroke-opacity="0" fill-opacity="1"/>
                            </g>
                          </g>
                          <g id="layout::guide-box.7-9-7-9::GRID.VP.469::guide-box.7-9-7-9::guides.3-3-3-3::GRID.VP.468::guides.3-3-3-3::key-4-1-bg.5-2-5-2.1" class="viewport"/>
                          <g id="layout::guide-box.7-9-7-9::GRID.VP.469::guide-box.7-9-7-9::guides.3-3-3-3::GRID.VP.468::guides.3-3-3-3::key-4-1-1.5-2-5-2.1" class="viewport">
                            <g id="key-4-1-1.5-2-5-2.1" class="forcedgrob gTableChild rect grob gDesc">
                              <rect id="key-4-1-1.5-2-5-2.1.1" x="464.49" y="225.33" width="15.86" height="15.86" transform="" stroke="none" fill="rgb(0,191,196)" stroke-dasharray="none" stroke-width="1.07" stroke-linejoin="miter" stroke-opacity="0" fill-opacity="1"/>
                            </g>
                          </g>
                          <g id="layout::guide-box.7-9-7-9::GRID.VP.469::guide-box.7-9-7-9::guides.3-3-3-3::GRID.VP.468::guides.3-3-3-3::label-3-3.4-4-4-4.1" class="viewport">
                            <g id="layout::guide-box.7-9-7-9::GRID.VP.469::guide-box.7-9-7-9::guides.3-3-3-3::GRID.VP.468::guides.3-3-3-3::label-3-3.4-4-4-4::GRID.VP.466.1" class="viewport">
                              <g id="label-3-3.4-4-4-4.1" class="forcedgrob gTableChild gTree grob gDesc">
                                <g id="layout::guide-box.7-9-7-9::GRID.VP.469::guide-box.7-9-7-9::guides.3-3-3-3::GRID.VP.468::guides.3-3-3-3::label-3-3.4-4-4-4::GRID.VP.466::GRID.VP.462.1" font-size="8.8" stroke="rgb(0,0,0)" font-family="Helvetica, Arial, FreeSans, Liberation Sans, Nimbus Sans L, sans-serif" stroke-opacity="1" font-weight="normal" font-style="normal" class="viewport">
                                  <g id="layout::guide-box.7-9-7-9::GRID.VP.469::guide-box.7-9-7-9::guides.3-3-3-3::GRID.VP.468::guides.3-3-3-3::label-3-3.4-4-4-4::GRID.VP.466::GRID.VP.462::GRID.VP.463.1" class="viewport">
                                    <g id="guide.label.titleGrob.2014.1" class="titleGrob gTree grob gDesc">
                                      <g id="GRID.text.2012.1" class="text grob gDesc">
                                        <g id="GRID.text.2012.1.1" transform="translate(486.54, 250.54)" stroke-width="0.1">
                                          <g id="GRID.text.2012.1.1.scale" transform="scale(1, -1)">
                                            <text x="0" y="0" id="GRID.text.2012.1.1.text" text-anchor="start" font-size="8.8" stroke="rgb(0,0,0)" font-family="Helvetica, Arial, FreeSans, Liberation Sans, Nimbus Sans L, sans-serif" fill="rgb(0,0,0)" stroke-opacity="1" fill-opacity="1" font-weight="normal" font-style="normal">
                                              <tspan id="GRID.text.2012.1.1.tspan.1" dy="3.23" x="0">N</tspan>
                                            </text>
                                          </g>
                                        </g>
                                      </g>
                                    </g>
                                  </g>
                                </g>
                              </g>
                            </g>
                          </g>
                          <g id="layout::guide-box.7-9-7-9::GRID.VP.469::guide-box.7-9-7-9::guides.3-3-3-3::GRID.VP.468::guides.3-3-3-3::label-4-3.5-4-5-4.1" class="viewport">
                            <g id="layout::guide-box.7-9-7-9::GRID.VP.469::guide-box.7-9-7-9::guides.3-3-3-3::GRID.VP.468::guides.3-3-3-3::label-4-3.5-4-5-4::GRID.VP.467.1" class="viewport">
                              <g id="label-4-3.5-4-5-4.1" class="forcedgrob gTableChild gTree grob gDesc">
                                <g id="layout::guide-box.7-9-7-9::GRID.VP.469::guide-box.7-9-7-9::guides.3-3-3-3::GRID.VP.468::guides.3-3-3-3::label-4-3.5-4-5-4::GRID.VP.467::GRID.VP.464.1" font-size="8.8" stroke="rgb(0,0,0)" font-family="Helvetica, Arial, FreeSans, Liberation Sans, Nimbus Sans L, sans-serif" stroke-opacity="1" font-weight="normal" font-style="normal" class="viewport">
                                  <g id="layout::guide-box.7-9-7-9::GRID.VP.469::guide-box.7-9-7-9::guides.3-3-3-3::GRID.VP.468::guides.3-3-3-3::label-4-3.5-4-5-4::GRID.VP.467::GRID.VP.464::GRID.VP.465.1" class="viewport">
                                    <g id="guide.label.titleGrob.2017.1" class="titleGrob gTree grob gDesc">
                                      <g id="GRID.text.2015.1" class="text grob gDesc">
                                        <g id="GRID.text.2015.1.1" transform="translate(486.54, 233.26)" stroke-width="0.1">
                                          <g id="GRID.text.2015.1.1.scale" transform="scale(1, -1)">
                                            <text x="0" y="0" id="GRID.text.2015.1.1.text" text-anchor="start" font-size="8.8" stroke="rgb(0,0,0)" font-family="Helvetica, Arial, FreeSans, Liberation Sans, Nimbus Sans L, sans-serif" fill="rgb(0,0,0)" stroke-opacity="1" fill-opacity="1" font-weight="normal" font-style="normal">
                                              <tspan id="GRID.text.2015.1.1.tspan.1" dy="3.23" x="0">S</tspan>
                                            </text>
                                          </g>
                                        </g>
                                      </g>
                                    </g>
                                  </g>
                                </g>
                              </g>
                            </g>
                          </g>
                        </g>
                      </g>
                    </g>
                  </g>
                </g>
              </g>
            </g>
          </g>
          <g id="layout::subtitle.4-5-4-5.1" class="viewport"/>
          <g id="layout::title.3-5-3-5.1" class="viewport">
            <g id="layout::title.3-5-3-5::GRID.VP.470.1" font-size="13.2" stroke="rgb(102,102,102)" font-family="Helvetica, Arial, FreeSans, Liberation Sans, Nimbus Sans L, sans-serif" stroke-opacity="1" font-weight="normal" font-style="normal" class="viewport">
              <g id="layout::title.3-5-3-5::GRID.VP.470::GRID.VP.471.1" class="viewport">
                <g id="title.3-5-3-5.1" class="forcedgrob gTableChild titleGrob gTree grob gDesc">
                  <g id="GRID.text.2026.1" class="text grob gDesc">
                    <g id="GRID.text.2026.1.1" transform="translate(227.78, 481.66)" stroke-width="0.1">
                      <g id="GRID.text.2026.1.1.scale" transform="scale(1, -1)">
                        <text x="0" y="0" id="GRID.text.2026.1.1.text" text-anchor="middle" font-size="13.2" stroke="rgb(102,102,102)" font-family="Helvetica, Arial, FreeSans, Liberation Sans, Nimbus Sans L, sans-serif" fill="rgb(102,102,102)" stroke-opacity="1" fill-opacity="1" font-weight="normal" font-style="normal">
                          <tspan id="GRID.text.2026.1.1.tspan.1" dy="9.33" x="0">anagrafica totali-espertouniversita</tspan>
                        </text>
                      </g>
                    </g>
                  </g>
                </g>
              </g>
            </g>
          </g>
          <g id="layout::caption.10-5-10-5.1" class="viewport"/>
          <g id="layout::tag.2-2-2-2.1" class="viewport"/>
        </g>
      </g>
    </g>
  </g>
</svg>