<?xml version="1.0" encoding="UTF-8"?>
<svg xmlns="http://www.w3.org/2000/svg" xmlns:xlink="http://www.w3.org/1999/xlink" width="504px" height="504px" viewBox="0 0 504 504" version="1.1">
  <metadata xmlns:gridsvg="http://www.stat.auckland.ac.nz/~paul/R/gridSVG/">
    <gridsvg:generator name="gridSVG" version="1.6-0" time="2019-01-18 23:17:23"/>
    <gridsvg:argument name="name" value="./latest_informaggio_csv/anziani/risultati/svg/anagrafica-attivita.svg"/>
    <gridsvg:argument name="exportCoords" value="none"/>
    <gridsvg:argument name="exportMappings" value="none"/>
    <gridsvg:argument name="exportJS" value="none"/>
    <gridsvg:argument name="res" value="72"/>
    <gridsvg:argument name="prefix" value=""/>
    <gridsvg:argument name="addClasses" value="TRUE"/>
    <gridsvg:argument name="indent" value="TRUE"/>
    <gridsvg:argument name="htmlWrapper" value="FALSE"/>
    <gridsvg:argument name="usePaths" value="vpPaths"/>
    <gridsvg:argument name="uniqueNames" value="TRUE"/>
    <gridsvg:separator name="id.sep" value="."/>
    <gridsvg:separator name="gPath.sep" value="::"/>
    <gridsvg:separator name="vpPath.sep" value="::"/>
  </metadata>
  <g transform="translate(0, 504) scale(1, -1)">
    <g id="gridSVG" fill="none" stroke="rgb(0,0,0)" stroke-dasharray="none" stroke-width="0.75" font-size="12" font-family="Helvetica, Arial, FreeSans, Liberation Sans, Nimbus Sans L, sans-serif" opacity="1" stroke-linecap="round" stroke-linejoin="round" stroke-miterlimit="10" stroke-opacity="1" fill-opacity="0" font-weight="normal" font-style="normal">
      <g id="layout.1" class="viewport">
        <g id="layout.2" class="forcedgrob gtable gTree grob gDesc">
          <defs>
            <clipPath id="layout::background.1-11-12-1.1.clipPath">
              <rect x="0" y="35.62" width="504" height="432.76" fill="none" stroke="none"/>
            </clipPath>
          </defs>
          <g id="layout::background.1-11-12-1.1" clip-path="url(#layout::background.1-11-12-1.1.clipPath)" class="viewport">
            <g id="background.1-11-12-1.1" class="forcedgrob gTableChild rect grob gDesc">
              <rect id="background.1-11-12-1.1.1" x="0" y="35.62" width="504" height="432.76" transform="" stroke-width="1.07" stroke="rgb(255,255,255)" fill="rgb(255,255,255)" stroke-dasharray="none" stroke-opacity="1" fill-opacity="1"/>
            </g>
          </g>
          <defs>
            <clipPath id="layout::panel.7-5-7-5.1.clipPath">
              <rect x="8.22" y="43.84" width="401.61" height="401.61" fill="none" stroke="none"/>
            </clipPath>
          </defs>
          <g id="layout::panel.7-5-7-5.1" clip-path="url(#layout::panel.7-5-7-5.1.clipPath)" class="viewport">
            <g id="panel.7-5-7-5.1" class="forcedgrob gTableChild gTree grob gDesc">
              <g id="grill.gTree.966.1" class="gTree grob gDesc">
                <g id="panel.background..rect.962.1" class="rect grob gDesc">
                  <rect id="panel.background..rect.962.1.1" x="8.22" y="43.84" width="401.61" height="401.61" transform="" stroke-width="1.07" stroke="none" fill="rgb(255,255,255)" stroke-dasharray="none" stroke-opacity="0" fill-opacity="1"/>
                </g>
              </g>
              <g id="bar.gTree.955.1" class="gTree grob gDesc">
                <g id="geom_polygon.polygon.947.1" class="polygon grob gDesc">
                  <polygon id="geom_polygon.polygon.947.1.1" points="209.02,244.64 206.35,249.5 203.68,254.35 201.02,259.21 198.35,264.06 195.68,268.91 193.01,273.77 190.34,278.62 187.67,283.48 185,288.33 182.34,293.19 179.67,298.04 177,302.89 174.33,307.75 171.66,312.6 168.99,317.46 166.32,322.31 163.66,327.16 160.99,332.02 158.32,336.87 155.65,341.73 152.98,346.58 150.31,351.44 147.64,356.29 144.97,361.14 142.31,366 139.64,370.85 136.97,375.71 134.3,380.56 131.63,385.41 126.89,382.7 122.24,379.83 117.7,376.8 113.26,373.62 108.93,370.29 104.72,366.82 100.62,363.2 96.65,359.45 92.82,355.56 89.11,351.54 85.55,347.41 82.13,343.15 78.85,338.78 75.73,334.3 72.75,329.71 69.94,325.03 67.29,320.26 64.8,315.4 62.48,310.45 60.33,305.43 58.34,300.34 56.54,295.19 54.91,289.97 53.46,284.71 52.18,279.4 51.09,274.04 50.18,268.66 49.46,263.24 48.92,257.81 48.57,252.36 48.4,246.9 48.41,241.44 48.61,235.98 49,230.53 49.57,225.1 50.33,219.69 51.27,214.31 52.39,208.96 53.7,203.66 55.18,198.4 56.84,193.2 58.68,188.05 60.69,182.98 62.87,177.97 65.22,173.04 67.74,168.19 70.42,163.43 73.26,158.77 76.26,154.2 79.41,149.74 82.71,145.39 86.16,141.15 89.75,137.04 93.47,133.04 97.34,129.18 101.33,125.45 105.44,121.86 109.67,118.41 114.02,115.1 118.48,111.95 123.05,108.94 127.71,106.1 132.47,103.42 137.31,100.9 142.24,98.54 147.25,96.35 152.32,94.34 157.46,92.5 162.67,90.83 167.92,89.35 173.23,88.04 178.57,86.91 183.95,85.97 189.36,85.21 194.79,84.63 200.24,84.24 205.7,84.04 211.16,84.02 216.62,84.18 222.07,84.53 227.51,85.07 232.92,85.79 238.31,86.69 243.66,87.78 248.97,89.05 254.24,90.5 259.45,92.12 264.61,93.93 269.7,95.9 274.72,98.05 279.67,100.37 284.53,102.85 289.31,105.5 293.99,108.31 298.58,111.28 303.06,114.4 307.43,117.67 311.69,121.09 315.83,124.66 319.85,128.36 323.74,132.19 327.5,136.16 331.12,140.25 334.6,144.46 337.93,148.78 341.11,153.22 344.14,157.77 347.02,162.41 349.74,167.15 352.29,171.98 354.68,176.89 356.9,181.88 358.94,186.94 360.82,192.08 362.52,197.27 364.04,202.51 365.38,207.81 366.55,213.14 367.52,218.52 368.32,223.92 368.93,229.35 369.36,234.79 369.6,240.25 369.66,245.71 369.53,251.17 369.22,256.63 368.72,262.06 368.03,267.48 367.16,272.88 366.11,278.24 364.88,283.56 363.47,288.83 361.87,294.06 360.11,299.23 358.16,304.33 356.05,309.37 353.76,314.33 351.31,319.21 348.69,324 345.91,328.7 342.98,333.31 339.89,337.81 336.64,342.21 333.25,346.49 329.72,350.65 326.04,354.7 322.23,358.61 318.29,362.39 314.23,366.04 310.04,369.55 305.74,372.91 301.32,376.12 296.8,379.19 292.17,382.09 287.45,384.84 282.64,387.42 277.74,389.84 272.77,392.1 267.72,394.18 262.6,396.09 257.42,397.82 252.18,399.38 246.9,400.76 241.57,401.95 236.2,402.97 230.8,403.8 225.38,404.45 219.94,404.91 214.48,405.19 209.02,405.29 209.02,399.75 209.02,394.21 209.02,388.67 209.02,383.13 209.02,377.59 209.02,372.05 209.02,366.51 209.02,360.97 209.02,355.43 209.02,349.89 209.02,344.35 209.02,338.81 209.02,333.27 209.02,327.73 209.02,322.19 209.02,316.66 209.02,311.12 209.02,305.58 209.02,300.04 209.02,294.5 209.02,288.96 209.02,283.42 209.02,277.88 209.02,272.34 209.02,266.8 209.02,261.26 209.02,255.72 209.02,250.18 209.02,244.64 209.02,244.64" stroke="none" fill="rgb(199,124,255)" stroke-width="1.07" stroke-dasharray="none" stroke-opacity="0" fill-opacity="1"/>
                </g>
                <g id="geom_polygon.polygon.949.1" class="polygon grob gDesc">
                  <polygon id="geom_polygon.polygon.949.1.1" points="209.02,244.64 207.64,250.01 206.27,255.37 204.89,260.74 203.51,266.1 202.13,271.47 200.76,276.84 199.38,282.2 198,287.57 196.62,292.93 195.25,298.3 193.87,303.66 192.49,309.03 191.11,314.39 189.74,319.76 188.36,325.12 186.98,330.49 185.6,335.85 184.23,341.22 182.85,346.58 181.47,351.95 180.09,357.32 178.71,362.68 177.34,368.05 175.96,373.41 174.58,378.78 173.2,384.14 171.83,389.51 170.45,394.87 169.07,400.24 163.51,398.7 158.01,396.97 152.58,395.04 147.21,392.92 141.93,390.6 136.73,388.1 131.63,385.41 134.3,380.56 136.97,375.71 139.64,370.85 142.31,366 144.97,361.14 147.64,356.29 150.31,351.44 152.98,346.58 155.65,341.73 158.32,336.87 160.99,332.02 163.66,327.16 166.32,322.31 168.99,317.46 171.66,312.6 174.33,307.75 177,302.89 179.67,298.04 182.34,293.19 185,288.33 187.67,283.48 190.34,278.62 193.01,273.77 195.68,268.91 198.35,264.06 201.02,259.21 203.68,254.35 206.35,249.5 209.02,244.64 209.02,244.64" stroke="none" fill="rgb(0,191,196)" stroke-width="1.07" stroke-dasharray="none" stroke-opacity="0" fill-opacity="1"/>
                </g>
                <g id="geom_polygon.polygon.951.1" class="polygon grob gDesc">
                  <polygon id="geom_polygon.polygon.951.1.1" points="209.02,244.64 208.33,250.14 207.63,255.63 206.94,261.13 206.24,266.63 205.55,272.12 204.86,277.62 204.16,283.11 203.47,288.61 202.77,294.1 202.08,299.6 201.38,305.1 200.69,310.59 200,316.09 199.3,321.58 198.61,327.08 197.91,332.57 197.22,338.07 196.52,343.57 195.83,349.06 195.14,354.56 194.44,360.05 193.75,365.55 193.05,371.04 192.36,376.54 191.67,382.04 190.97,387.53 190.28,393.03 189.58,398.52 188.89,404.02 182.23,403.04 175.62,401.77 169.07,400.24 170.45,394.87 171.83,389.51 173.2,384.14 174.58,378.78 175.96,373.41 177.34,368.05 178.71,362.68 180.09,357.32 181.47,351.95 182.85,346.58 184.23,341.22 185.6,335.85 186.98,330.49 188.36,325.12 189.74,319.76 191.11,314.39 192.49,309.03 193.87,303.66 195.25,298.3 196.62,292.93 198,287.57 199.38,282.2 200.76,276.84 202.13,271.47 203.51,266.1 204.89,260.74 206.27,255.37 207.64,250.01 209.02,244.64 209.02,244.64" stroke="none" fill="rgb(124,174,0)" stroke-width="1.07" stroke-dasharray="none" stroke-opacity="0" fill-opacity="1"/>
                </g>
                <g id="geom_polygon.polygon.953.1" class="polygon grob gDesc">
                  <polygon id="geom_polygon.polygon.953.1.1" points="209.02,244.64 209.02,250.18 209.02,255.72 209.02,261.26 209.02,266.8 209.02,272.34 209.02,277.88 209.02,283.42 209.02,288.96 209.02,294.5 209.02,300.04 209.02,305.58 209.02,311.12 209.02,316.66 209.02,322.19 209.02,327.73 209.02,333.27 209.02,338.81 209.02,344.35 209.02,349.89 209.02,355.43 209.02,360.97 209.02,366.51 209.02,372.05 209.02,377.59 209.02,383.13 209.02,388.67 209.02,394.21 209.02,399.75 209.02,405.29 202.29,405.14 195.58,404.72 188.89,404.02 189.58,398.52 190.28,393.03 190.97,387.53 191.67,382.04 192.36,376.54 193.05,371.04 193.75,365.55 194.44,360.05 195.14,354.56 195.83,349.06 196.52,343.57 197.22,338.07 197.91,332.57 198.61,327.08 199.3,321.58 200,316.09 200.69,310.59 201.38,305.1 202.08,299.6 202.77,294.1 203.47,288.61 204.16,283.11 204.86,277.62 205.55,272.12 206.24,266.63 206.94,261.13 207.63,255.63 208.33,250.14 209.02,244.64 209.02,244.64" stroke="none" fill="rgb(248,118,109)" stroke-width="1.07" stroke-dasharray="none" stroke-opacity="0" fill-opacity="1"/>
                </g>
              </g>
              <g id="GRID.text.956.1" class="text grob gDesc">
                <g id="GRID.text.956.1.1" transform="translate(229, 166.85)" stroke-width="0.1">
                  <g id="GRID.text.956.1.1.scale" transform="scale(1, -1)">
                    <text x="0" y="0" id="GRID.text.956.1.1.text" text-anchor="middle" stroke="rgb(0,0,0)" font-size="11.04" font-family="Helvetica, Arial, FreeSans, Liberation Sans, Nimbus Sans L, sans-serif" fill="rgb(0,0,0)" stroke-opacity="1" fill-opacity="1" font-weight="normal" font-style="normal">
                      <tspan id="GRID.text.956.1.1.tspan.1" dy="3.95" x="0">46</tspan>
                    </text>
                  </g>
                </g>
                <g id="GRID.text.956.1.2" transform="translate(179.45, 319.32)" stroke-width="0.1">
                  <g id="GRID.text.956.1.2.scale" transform="scale(1, -1)">
                    <text x="0" y="0" id="GRID.text.956.1.2.text" text-anchor="middle" stroke="rgb(0,0,0)" font-size="11.04" font-family="Helvetica, Arial, FreeSans, Liberation Sans, Nimbus Sans L, sans-serif" fill="rgb(0,0,0)" stroke-opacity="1" fill-opacity="1" font-weight="normal" font-style="normal">
                      <tspan id="GRID.text.956.1.2.tspan.1" dy="3.95" x="0">2</tspan>
                    </text>
                  </g>
                </g>
                <g id="GRID.text.956.1.3" transform="translate(193.97, 323.54)" stroke-width="0.1">
                  <g id="GRID.text.956.1.3.scale" transform="scale(1, -1)">
                    <text x="0" y="0" id="GRID.text.956.1.3.text" text-anchor="middle" stroke="rgb(0,0,0)" font-size="11.04" font-family="Helvetica, Arial, FreeSans, Liberation Sans, Nimbus Sans L, sans-serif" fill="rgb(0,0,0)" stroke-opacity="1" fill-opacity="1" font-weight="normal" font-style="normal">
                      <tspan id="GRID.text.956.1.3.tspan.1" dy="3.95" x="0">1</tspan>
                    </text>
                  </g>
                </g>
                <g id="GRID.text.956.1.4" transform="translate(203.98, 324.81)" stroke-width="0.1">
                  <g id="GRID.text.956.1.4.scale" transform="scale(1, -1)">
                    <text x="0" y="0" id="GRID.text.956.1.4.text" text-anchor="middle" stroke="rgb(0,0,0)" font-size="11.04" font-family="Helvetica, Arial, FreeSans, Liberation Sans, Nimbus Sans L, sans-serif" fill="rgb(0,0,0)" stroke-opacity="1" fill-opacity="1" font-weight="normal" font-style="normal">
                      <tspan id="GRID.text.956.1.4.tspan.1" dy="3.95" x="0">1</tspan>
                    </text>
                  </g>
                </g>
              </g>
              <g id="GRID.gTree.957.1" class="gTree grob gDesc"/>
            </g>
          </g>
          <g id="layout::spacer.8-6-8-6.1" class="viewport"/>
          <g id="layout::spacer.8-4-8-4.1" class="viewport"/>
          <g id="layout::spacer.6-6-6-6.1" class="viewport"/>
          <g id="layout::spacer.6-4-6-4.1" class="viewport"/>
          <g id="layout::axis-t.6-5-6-5.1" class="viewport"/>
          <g id="layout::axis-l.7-4-7-4.1" class="viewport">
            <g id="layout::axis-l.7-4-7-4::GRID.VP.227.1" class="viewport">
              <g id="axis-l.7-4-7-4.1" class="forcedgrob gTableChild absoluteGrob gTree grob gDesc">
                <g id="layout::axis-l.7-4-7-4::GRID.VP.227::axis.1" class="viewport">
                  <g id="axis.1" class="forcedgrob gtable gTree grob gDesc">
                    <g id="layout::axis-l.7-4-7-4::GRID.VP.227::axis::axis.1-1-1-1.1" class="viewport"/>
                    <g id="layout::axis-l.7-4-7-4::GRID.VP.227::axis::axis.1-2-1-2.1" class="viewport"/>
                  </g>
                </g>
              </g>
            </g>
          </g>
          <g id="layout::axis-r.7-6-7-6.1" class="viewport"/>
          <g id="layout::axis-b.8-5-8-5.1" class="viewport">
            <g id="layout::axis-b.8-5-8-5::GRID.VP.226.1" class="viewport">
              <g id="axis-b.8-5-8-5.1" class="forcedgrob gTableChild absoluteGrob gTree grob gDesc">
                <g id="layout::axis-b.8-5-8-5::GRID.VP.226::axis.1" class="viewport">
                  <g id="axis.2" class="forcedgrob gtable gTree grob gDesc">
                    <g id="layout::axis-b.8-5-8-5::GRID.VP.226::axis::axis.1-1-1-1.1" class="viewport"/>
                    <g id="layout::axis-b.8-5-8-5::GRID.VP.226::axis::axis.2-1-2-1.1" class="viewport"/>
                  </g>
                </g>
              </g>
            </g>
          </g>
          <g id="layout::xlab-t.5-5-5-5.1" class="viewport"/>
          <g id="layout::xlab-b.9-5-9-5.1" class="viewport"/>
          <g id="layout::ylab-l.7-3-7-3.1" class="viewport"/>
          <g id="layout::ylab-r.7-7-7-7.1" class="viewport"/>
          <g id="layout::guide-box.7-9-7-9.1" class="viewport">
            <g id="layout::guide-box.7-9-7-9::GRID.VP.241.1" class="viewport">
              <g id="layout::guide-box.7-9-7-9::GRID.VP.241::guide-box.7-9-7-9.1" class="viewport">
                <g id="guide-box.7-9-7-9.1" class="forcedgrob gTableChild gtable gTree grob gDesc">
                  <g id="layout::guide-box.7-9-7-9::GRID.VP.241::guide-box.7-9-7-9::legend.box.background.2-4-4-2.1" class="viewport"/>
                  <g id="layout::guide-box.7-9-7-9::GRID.VP.241::guide-box.7-9-7-9::guides.3-3-3-3.1" class="viewport">
                    <g id="layout::guide-box.7-9-7-9::GRID.VP.241::guide-box.7-9-7-9::guides.3-3-3-3::GRID.VP.240.1" class="viewport">
                      <g id="layout::guide-box.7-9-7-9::GRID.VP.241::guide-box.7-9-7-9::guides.3-3-3-3::GRID.VP.240::guides.3-3-3-3.1" class="viewport">
                        <g id="guides.3-3-3-3.1" class="forcedgrob gTableChild gtable gTree grob gDesc">
                          <g id="layout::guide-box.7-9-7-9::GRID.VP.241::guide-box.7-9-7-9::guides.3-3-3-3::GRID.VP.240::guides.3-3-3-3::background.1-6-8-1.1" class="viewport">
                            <g id="background.1-6-8-1.1" class="forcedgrob gTableChild rect grob gDesc">
                              <rect id="background.1-6-8-1.1.1" x="420.78" y="201.86" width="77.74" height="85.56" transform="" stroke-width="1.07" stroke="none" fill="rgb(255,255,255)" stroke-dasharray="none" stroke-opacity="0" fill-opacity="1"/>
                            </g>
                          </g>
                          <g id="layout::guide-box.7-9-7-9::GRID.VP.241::guide-box.7-9-7-9::guides.3-3-3-3::GRID.VP.240::guides.3-3-3-3::title.2-5-2-2.1" class="viewport"/>
                          <g id="layout::guide-box.7-9-7-9::GRID.VP.241::guide-box.7-9-7-9::guides.3-3-3-3::GRID.VP.240::guides.3-3-3-3::key-3-1-bg.4-2-4-2.1" class="viewport"/>
                          <g id="layout::guide-box.7-9-7-9::GRID.VP.241::guide-box.7-9-7-9::guides.3-3-3-3::GRID.VP.240::guides.3-3-3-3::key-3-1-1.4-2-4-2.1" class="viewport">
                            <g id="key-3-1-1.4-2-4-2.1" class="forcedgrob gTableChild rect grob gDesc">
                              <rect id="key-3-1-1.4-2-4-2.1.1" x="426.97" y="259.89" width="15.86" height="15.86" transform="" stroke="none" fill="rgb(248,118,109)" stroke-dasharray="none" stroke-width="1.07" stroke-linejoin="miter" stroke-opacity="0" fill-opacity="1"/>
                            </g>
                          </g>
                          <g id="layout::guide-box.7-9-7-9::GRID.VP.241::guide-box.7-9-7-9::guides.3-3-3-3::GRID.VP.240::guides.3-3-3-3::key-4-1-bg.5-2-5-2.1" class="viewport"/>
                          <g id="layout::guide-box.7-9-7-9::GRID.VP.241::guide-box.7-9-7-9::guides.3-3-3-3::GRID.VP.240::guides.3-3-3-3::key-4-1-1.5-2-5-2.1" class="viewport">
                            <g id="key-4-1-1.5-2-5-2.1" class="forcedgrob gTableChild rect grob gDesc">
                              <rect id="key-4-1-1.5-2-5-2.1.1" x="426.97" y="242.61" width="15.86" height="15.86" transform="" stroke="none" fill="rgb(124,174,0)" stroke-dasharray="none" stroke-width="1.07" stroke-linejoin="miter" stroke-opacity="0" fill-opacity="1"/>
                            </g>
                          </g>
                          <g id="layout::guide-box.7-9-7-9::GRID.VP.241::guide-box.7-9-7-9::guides.3-3-3-3::GRID.VP.240::guides.3-3-3-3::key-5-1-bg.6-2-6-2.1" class="viewport"/>
                          <g id="layout::guide-box.7-9-7-9::GRID.VP.241::guide-box.7-9-7-9::guides.3-3-3-3::GRID.VP.240::guides.3-3-3-3::key-5-1-1.6-2-6-2.1" class="viewport">
                            <g id="key-5-1-1.6-2-6-2.1" class="forcedgrob gTableChild rect grob gDesc">
                              <rect id="key-5-1-1.6-2-6-2.1.1" x="426.97" y="225.33" width="15.86" height="15.86" transform="" stroke="none" fill="rgb(0,191,196)" stroke-dasharray="none" stroke-width="1.07" stroke-linejoin="miter" stroke-opacity="0" fill-opacity="1"/>
                            </g>
                          </g>
                          <g id="layout::guide-box.7-9-7-9::GRID.VP.241::guide-box.7-9-7-9::guides.3-3-3-3::GRID.VP.240::guides.3-3-3-3::key-6-1-bg.7-2-7-2.1" class="viewport"/>
                          <g id="layout::guide-box.7-9-7-9::GRID.VP.241::guide-box.7-9-7-9::guides.3-3-3-3::GRID.VP.240::guides.3-3-3-3::key-6-1-1.7-2-7-2.1" class="viewport">
                            <g id="key-6-1-1.7-2-7-2.1" class="forcedgrob gTableChild rect grob gDesc">
                              <rect id="key-6-1-1.7-2-7-2.1.1" x="426.97" y="208.05" width="15.86" height="15.86" transform="" stroke="none" fill="rgb(199,124,255)" stroke-dasharray="none" stroke-width="1.07" stroke-linejoin="miter" stroke-opacity="0" fill-opacity="1"/>
                            </g>
                          </g>
                          <g id="layout::guide-box.7-9-7-9::GRID.VP.241::guide-box.7-9-7-9::guides.3-3-3-3::GRID.VP.240::guides.3-3-3-3::label-3-3.4-4-4-4.1" class="viewport">
                            <g id="layout::guide-box.7-9-7-9::GRID.VP.241::guide-box.7-9-7-9::guides.3-3-3-3::GRID.VP.240::guides.3-3-3-3::label-3-3.4-4-4-4::GRID.VP.236.1" class="viewport">
                              <g id="label-3-3.4-4-4-4.1" class="forcedgrob gTableChild gTree grob gDesc">
                                <g id="layout::guide-box.7-9-7-9::GRID.VP.241::guide-box.7-9-7-9::guides.3-3-3-3::GRID.VP.240::guides.3-3-3-3::label-3-3.4-4-4-4::GRID.VP.236::GRID.VP.228.1" font-size="8.8" stroke="rgb(0,0,0)" font-family="Helvetica, Arial, FreeSans, Liberation Sans, Nimbus Sans L, sans-serif" stroke-opacity="1" font-weight="normal" font-style="normal" class="viewport">
                                  <g id="layout::guide-box.7-9-7-9::GRID.VP.241::guide-box.7-9-7-9::guides.3-3-3-3::GRID.VP.240::guides.3-3-3-3::label-3-3.4-4-4-4::GRID.VP.236::GRID.VP.228::GRID.VP.229.1" class="viewport">
                                    <g id="guide.label.titleGrob.980.1" class="titleGrob gTree grob gDesc">
                                      <g id="GRID.text.978.1" class="text grob gDesc">
                                        <g id="GRID.text.978.1.1" transform="translate(449.02, 267.82)" stroke-width="0.1">
                                          <g id="GRID.text.978.1.1.scale" transform="scale(1, -1)">
                                            <text x="0" y="0" id="GRID.text.978.1.1.text" text-anchor="start" font-size="8.8" stroke="rgb(0,0,0)" font-family="Helvetica, Arial, FreeSans, Liberation Sans, Nimbus Sans L, sans-serif" fill="rgb(0,0,0)" stroke-opacity="1" fill-opacity="1" font-weight="normal" font-style="normal">
                                              <tspan id="GRID.text.978.1.1.tspan.1" dy="3.23" x="0">Altro (1)</tspan>
                                            </text>
                                          </g>
                                        </g>
                                      </g>
                                    </g>
                                  </g>
                                </g>
                              </g>
                            </g>
                          </g>
                          <g id="layout::guide-box.7-9-7-9::GRID.VP.241::guide-box.7-9-7-9::guides.3-3-3-3::GRID.VP.240::guides.3-3-3-3::label-4-3.5-4-5-4.1" class="viewport">
                            <g id="layout::guide-box.7-9-7-9::GRID.VP.241::guide-box.7-9-7-9::guides.3-3-3-3::GRID.VP.240::guides.3-3-3-3::label-4-3.5-4-5-4::GRID.VP.237.1" class="viewport">
                              <g id="label-4-3.5-4-5-4.1" class="forcedgrob gTableChild gTree grob gDesc">
                                <g id="layout::guide-box.7-9-7-9::GRID.VP.241::guide-box.7-9-7-9::guides.3-3-3-3::GRID.VP.240::guides.3-3-3-3::label-4-3.5-4-5-4::GRID.VP.237::GRID.VP.230.1" font-size="8.8" stroke="rgb(0,0,0)" font-family="Helvetica, Arial, FreeSans, Liberation Sans, Nimbus Sans L, sans-serif" stroke-opacity="1" font-weight="normal" font-style="normal" class="viewport">
                                  <g id="layout::guide-box.7-9-7-9::GRID.VP.241::guide-box.7-9-7-9::guides.3-3-3-3::GRID.VP.240::guides.3-3-3-3::label-4-3.5-4-5-4::GRID.VP.237::GRID.VP.230::GRID.VP.231.1" class="viewport">
                                    <g id="guide.label.titleGrob.983.1" class="titleGrob gTree grob gDesc">
                                      <g id="GRID.text.981.1" class="text grob gDesc">
                                        <g id="GRID.text.981.1.1" transform="translate(449.02, 250.54)" stroke-width="0.1">
                                          <g id="GRID.text.981.1.1.scale" transform="scale(1, -1)">
                                            <text x="0" y="0" id="GRID.text.981.1.1.text" text-anchor="start" font-size="8.8" stroke="rgb(0,0,0)" font-family="Helvetica, Arial, FreeSans, Liberation Sans, Nimbus Sans L, sans-serif" fill="rgb(0,0,0)" stroke-opacity="1" fill-opacity="1" font-weight="normal" font-style="normal">
                                              <tspan id="GRID.text.981.1.1.tspan.1" dy="3.23" x="0">Svago (1)</tspan>
                                            </text>
                                          </g>
                                        </g>
                                      </g>
                                    </g>
                                  </g>
                                </g>
                              </g>
                            </g>
                          </g>
                          <g id="layout::guide-box.7-9-7-9::GRID.VP.241::guide-box.7-9-7-9::guides.3-3-3-3::GRID.VP.240::guides.3-3-3-3::label-5-3.6-4-6-4.1" class="viewport">
                            <g id="layout::guide-box.7-9-7-9::GRID.VP.241::guide-box.7-9-7-9::guides.3-3-3-3::GRID.VP.240::guides.3-3-3-3::label-5-3.6-4-6-4::GRID.VP.238.1" class="viewport">
                              <g id="label-5-3.6-4-6-4.1" class="forcedgrob gTableChild gTree grob gDesc">
                                <g id="layout::guide-box.7-9-7-9::GRID.VP.241::guide-box.7-9-7-9::guides.3-3-3-3::GRID.VP.240::guides.3-3-3-3::label-5-3.6-4-6-4::GRID.VP.238::GRID.VP.232.1" font-size="8.8" stroke="rgb(0,0,0)" font-family="Helvetica, Arial, FreeSans, Liberation Sans, Nimbus Sans L, sans-serif" stroke-opacity="1" font-weight="normal" font-style="normal" class="viewport">
                                  <g id="layout::guide-box.7-9-7-9::GRID.VP.241::guide-box.7-9-7-9::guides.3-3-3-3::GRID.VP.240::guides.3-3-3-3::label-5-3.6-4-6-4::GRID.VP.238::GRID.VP.232::GRID.VP.233.1" class="viewport">
                                    <g id="guide.label.titleGrob.986.1" class="titleGrob gTree grob gDesc">
                                      <g id="GRID.text.984.1" class="text grob gDesc">
                                        <g id="GRID.text.984.1.1" transform="translate(449.02, 233.26)" stroke-width="0.1">
                                          <g id="GRID.text.984.1.1.scale" transform="scale(1, -1)">
                                            <text x="0" y="0" id="GRID.text.984.1.1.text" text-anchor="start" font-size="8.8" stroke="rgb(0,0,0)" font-family="Helvetica, Arial, FreeSans, Liberation Sans, Nimbus Sans L, sans-serif" fill="rgb(0,0,0)" stroke-opacity="1" fill-opacity="1" font-weight="normal" font-style="normal">
                                              <tspan id="GRID.text.984.1.1.tspan.1" dy="3.23" x="0">Lavoro (2)</tspan>
                                            </text>
                                          </g>
                                        </g>
                                      </g>
                                    </g>
                                  </g>
                                </g>
                              </g>
                            </g>
                          </g>
                          <g id="layout::guide-box.7-9-7-9::GRID.VP.241::guide-box.7-9-7-9::guides.3-3-3-3::GRID.VP.240::guides.3-3-3-3::label-6-3.7-4-7-4.1" class="viewport">
                            <g id="layout::guide-box.7-9-7-9::GRID.VP.241::guide-box.7-9-7-9::guides.3-3-3-3::GRID.VP.240::guides.3-3-3-3::label-6-3.7-4-7-4::GRID.VP.239.1" class="viewport">
                              <g id="label-6-3.7-4-7-4.1" class="forcedgrob gTableChild gTree grob gDesc">
                                <g id="layout::guide-box.7-9-7-9::GRID.VP.241::guide-box.7-9-7-9::guides.3-3-3-3::GRID.VP.240::guides.3-3-3-3::label-6-3.7-4-7-4::GRID.VP.239::GRID.VP.234.1" font-size="8.8" stroke="rgb(0,0,0)" font-family="Helvetica, Arial, FreeSans, Liberation Sans, Nimbus Sans L, sans-serif" stroke-opacity="1" font-weight="normal" font-style="normal" class="viewport">
                                  <g id="layout::guide-box.7-9-7-9::GRID.VP.241::guide-box.7-9-7-9::guides.3-3-3-3::GRID.VP.240::guides.3-3-3-3::label-6-3.7-4-7-4::GRID.VP.239::GRID.VP.234::GRID.VP.235.1" class="viewport">
                                    <g id="guide.label.titleGrob.989.1" class="titleGrob gTree grob gDesc">
                                      <g id="GRID.text.987.1" class="text grob gDesc">
                                        <g id="GRID.text.987.1.1" transform="translate(449.02, 215.98)" stroke-width="0.1">
                                          <g id="GRID.text.987.1.1.scale" transform="scale(1, -1)">
                                            <text x="0" y="0" id="GRID.text.987.1.1.text" text-anchor="start" font-size="8.8" stroke="rgb(0,0,0)" font-family="Helvetica, Arial, FreeSans, Liberation Sans, Nimbus Sans L, sans-serif" fill="rgb(0,0,0)" stroke-opacity="1" fill-opacity="1" font-weight="normal" font-style="normal">
                                              <tspan id="GRID.text.987.1.1.tspan.1" dy="3.23" x="0">Studio (46)</tspan>
                                            </text>
                                          </g>
                                        </g>
                                      </g>
                                    </g>
                                  </g>
                                </g>
                              </g>
                            </g>
                          </g>
                        </g>
                      </g>
                    </g>
                  </g>
                </g>
              </g>
            </g>
          </g>
          <g id="layout::subtitle.4-5-4-5.1" class="viewport"/>
          <g id="layout::title.3-5-3-5.1" class="viewport">
            <g id="layout::title.3-5-3-5::GRID.VP.242.1" font-size="13.2" stroke="rgb(102,102,102)" font-family="Helvetica, Arial, FreeSans, Liberation Sans, Nimbus Sans L, sans-serif" stroke-opacity="1" font-weight="normal" font-style="normal" class="viewport">
              <g id="layout::title.3-5-3-5::GRID.VP.242::GRID.VP.243.1" class="viewport">
                <g id="title.3-5-3-5.1" class="forcedgrob gTableChild titleGrob gTree grob gDesc">
                  <g id="GRID.text.1004.1" class="text grob gDesc">
                    <g id="GRID.text.1004.1.1" transform="translate(209.02, 462.9)" stroke-width="0.1">
                      <g id="GRID.text.1004.1.1.scale" transform="scale(1, -1)">
                        <text x="0" y="0" id="GRID.text.1004.1.1.text" text-anchor="middle" font-size="13.2" stroke="rgb(102,102,102)" font-family="Helvetica, Arial, FreeSans, Liberation Sans, Nimbus Sans L, sans-serif" fill="rgb(102,102,102)" stroke-opacity="1" fill-opacity="1" font-weight="normal" font-style="normal">
                          <tspan id="GRID.text.1004.1.1.tspan.1" dy="9.33" x="0">anagrafica attivita</tspan>
                        </text>
                      </g>
                    </g>
                  </g>
                </g>
              </g>
            </g>
          </g>
          <g id="layout::caption.10-5-10-5.1" class="viewport"/>
          <g id="layout::tag.2-2-2-2.1" class="viewport"/>
        </g>
      </g>
    </g>
  </g>
</svg>