<?xml version="1.0" encoding="UTF-8"?>
<svg xmlns="http://www.w3.org/2000/svg" xmlns:xlink="http://www.w3.org/1999/xlink" width="504px" height="504px" viewBox="0 0 504 504" version="1.1">
  <metadata xmlns:gridsvg="http://www.stat.auckland.ac.nz/~paul/R/gridSVG/">
    <gridsvg:generator name="gridSVG" version="1.6-0" time="2019-01-15 00:32:47"/>
    <gridsvg:argument name="name" value="./latest_informaggio_csv/anziani/risultati/svg/anagrafica-cdl.svg"/>
    <gridsvg:argument name="exportCoords" value="none"/>
    <gridsvg:argument name="exportMappings" value="none"/>
    <gridsvg:argument name="exportJS" value="none"/>
    <gridsvg:argument name="res" value="72"/>
    <gridsvg:argument name="prefix" value=""/>
    <gridsvg:argument name="addClasses" value="TRUE"/>
    <gridsvg:argument name="indent" value="TRUE"/>
    <gridsvg:argument name="htmlWrapper" value="FALSE"/>
    <gridsvg:argument name="usePaths" value="vpPaths"/>
    <gridsvg:argument name="uniqueNames" value="TRUE"/>
    <gridsvg:separator name="id.sep" value="."/>
    <gridsvg:separator name="gPath.sep" value="::"/>
    <gridsvg:separator name="vpPath.sep" value="::"/>
  </metadata>
  <g transform="translate(0, 504) scale(1, -1)">
    <g id="gridSVG" fill="none" stroke="rgb(0,0,0)" stroke-dasharray="none" stroke-width="0.75" font-size="12" font-family="Helvetica, Arial, FreeSans, Liberation Sans, Nimbus Sans L, sans-serif" opacity="1" stroke-linecap="round" stroke-linejoin="round" stroke-miterlimit="10" stroke-opacity="1" fill-opacity="0" font-weight="normal" font-style="normal">
      <g id="layout.1" class="viewport">
        <g id="layout.2" class="forcedgrob gtable gTree grob gDesc">
          <defs>
            <clipPath id="layout::background.1-11-12-1.1.clipPath">
              <rect x="0" y="29.11" width="504" height="445.77" fill="none" stroke="none"/>
            </clipPath>
          </defs>
          <g id="layout::background.1-11-12-1.1" clip-path="url(#layout::background.1-11-12-1.1.clipPath)" class="viewport">
            <g id="background.1-11-12-1.1" class="forcedgrob gTableChild rect grob gDesc">
              <rect id="background.1-11-12-1.1.1" x="0" y="29.11" width="504" height="445.77" transform="" stroke-width="1.07" stroke="rgb(255,255,255)" fill="rgb(255,255,255)" stroke-dasharray="none" stroke-opacity="1" fill-opacity="1"/>
            </g>
          </g>
          <defs>
            <clipPath id="layout::panel.7-5-7-5.1.clipPath">
              <rect x="8.22" y="37.33" width="414.62" height="414.62" fill="none" stroke="none"/>
            </clipPath>
          </defs>
          <g id="layout::panel.7-5-7-5.1" clip-path="url(#layout::panel.7-5-7-5.1.clipPath)" class="viewport">
            <g id="panel.7-5-7-5.1" class="forcedgrob gTableChild gTree grob gDesc">
              <g id="grill.gTree.1043.1" class="gTree grob gDesc">
                <g id="panel.background..rect.1039.1" class="rect grob gDesc">
                  <rect id="panel.background..rect.1039.1.1" x="8.22" y="37.33" width="414.62" height="414.62" transform="" stroke-width="1.07" stroke="none" fill="rgb(255,255,255)" stroke-dasharray="none" stroke-opacity="0" fill-opacity="1"/>
                </g>
              </g>
              <g id="bar.gTree.1032.1" class="gTree grob gDesc">
                <g id="geom_polygon.polygon.1028.1" class="polygon grob gDesc">
                  <polygon id="geom_polygon.polygon.1028.1.1" points="215.53,244.64 212.77,239.63 210.02,234.62 207.26,229.61 204.51,224.6 201.75,219.59 199,214.57 196.24,209.56 193.49,204.55 190.73,199.54 187.98,194.53 185.22,189.52 182.47,184.51 179.71,179.49 176.96,174.48 174.2,169.47 171.45,164.46 168.69,159.45 165.94,154.44 163.18,149.42 160.43,144.41 157.67,139.4 154.92,134.39 152.16,129.38 149.41,124.37 146.65,119.36 143.9,114.34 141.14,109.33 138.39,104.32 135.63,99.31 140.63,96.67 145.71,94.21 150.87,91.92 156.11,89.81 161.42,87.87 166.79,86.12 172.21,84.55 177.69,83.17 183.21,81.98 188.77,80.97 194.36,80.15 199.97,79.53 205.6,79.09 211.24,78.85 216.89,78.8 222.54,78.94 228.18,79.28 233.8,79.81 239.4,80.52 244.98,81.43 250.52,82.53 256.02,83.81 261.47,85.29 266.87,86.94 272.21,88.78 277.49,90.8 282.69,93 287.81,95.38 292.85,97.92 297.81,100.64 302.66,103.53 307.42,106.58 312.06,109.79 316.6,113.15 321.02,116.67 325.32,120.34 329.48,124.15 333.52,128.1 337.42,132.18 341.18,136.4 344.79,140.74 348.26,145.2 351.57,149.78 354.72,154.47 357.71,159.26 360.53,164.15 363.19,169.13 365.67,174.2 367.99,179.36 370.12,184.59 372.08,189.89 373.85,195.25 375.44,200.67 376.85,206.14 378.06,211.66 379.09,217.21 379.93,222.79 380.58,228.41 381.04,234.04 381.3,239.68 381.37,245.32 381.26,250.97 380.94,256.61 380.44,262.24 379.75,267.84 378.86,273.42 377.79,278.97 376.52,284.47 375.07,289.93 373.44,295.34 371.62,300.68 369.62,305.97 367.44,311.18 365.09,316.31 362.56,321.36 359.87,326.33 357,331.19 353.97,335.96 350.78,340.62 347.43,345.17 343.94,349.61 340.29,353.92 336.49,358.1 332.56,362.16 328.49,366.07 324.29,369.85 319.96,373.48 315.52,376.96 310.95,380.29 306.28,383.46 301.5,386.47 296.62,389.31 291.65,391.99 286.58,394.5 281.44,396.83 276.22,398.99 270.93,400.96 265.57,402.76 260.16,404.37 254.69,405.8 249.18,407.04 243.63,408.09 238.05,408.95 232.44,409.63 226.82,410.11 221.18,410.39 215.53,410.49 215.53,404.77 215.53,399.05 215.53,393.33 215.53,387.62 215.53,381.9 215.53,376.18 215.53,370.46 215.53,364.74 215.53,359.02 215.53,353.3 215.53,347.58 215.53,341.86 215.53,336.15 215.53,330.43 215.53,324.71 215.53,318.99 215.53,313.27 215.53,307.55 215.53,301.83 215.53,296.11 215.53,290.39 215.53,284.68 215.53,278.96 215.53,273.24 215.53,267.52 215.53,261.8 215.53,256.08 215.53,250.36 215.53,244.64 215.53,244.64" stroke="none" fill="rgb(0,191,196)" stroke-width="1.07" stroke-dasharray="none" stroke-opacity="0" fill-opacity="1"/>
                </g>
                <g id="geom_polygon.polygon.1030.1" class="polygon grob gDesc">
                  <polygon id="geom_polygon.polygon.1030.1.1" points="215.53,244.64 215.53,250.36 215.53,256.08 215.53,261.8 215.53,267.52 215.53,273.24 215.53,278.96 215.53,284.68 215.53,290.39 215.53,296.11 215.53,301.83 215.53,307.55 215.53,313.27 215.53,318.99 215.53,324.71 215.53,330.43 215.53,336.15 215.53,341.86 215.53,347.58 215.53,353.3 215.53,359.02 215.53,364.74 215.53,370.46 215.53,376.18 215.53,381.9 215.53,387.62 215.53,393.33 215.53,399.05 215.53,404.77 215.53,410.49 209.92,410.4 204.32,410.11 198.72,409.64 193.15,408.97 187.61,408.12 182.09,407.09 176.62,405.86 171.19,404.45 165.81,402.86 160.48,401.09 155.22,399.14 150.03,397.01 144.91,394.71 139.88,392.23 134.93,389.59 130.07,386.78 125.31,383.81 120.66,380.68 116.11,377.39 111.68,373.95 107.36,370.36 103.17,366.63 99.11,362.76 95.18,358.76 91.39,354.62 87.74,350.36 84.24,345.98 80.89,341.48 77.69,336.87 74.65,332.15 71.77,327.34 69.05,322.43 66.5,317.43 64.13,312.34 61.92,307.18 59.9,301.95 58.05,296.65 56.38,291.3 54.89,285.89 53.59,280.43 52.47,274.93 51.54,269.4 50.8,263.84 50.24,258.25 49.87,252.66 49.7,247.05 49.71,241.44 49.92,235.83 50.31,230.23 50.89,224.65 51.66,219.09 52.62,213.57 53.76,208.07 55.09,202.62 56.61,197.22 58.3,191.87 60.18,186.58 62.23,181.36 64.46,176.21 66.86,171.14 69.43,166.15 72.17,161.26 75.07,156.46 78.13,151.75 81.36,147.16 84.73,142.68 88.25,138.31 91.92,134.07 95.73,129.95 99.68,125.96 103.76,122.11 107.97,118.4 112.3,114.84 116.75,111.42 121.32,108.15 125.99,105.04 130.76,102.1 135.63,99.31 138.39,104.32 141.14,109.33 143.9,114.34 146.65,119.36 149.41,124.37 152.16,129.38 154.92,134.39 157.67,139.4 160.43,144.41 163.18,149.42 165.94,154.44 168.69,159.45 171.45,164.46 174.2,169.47 176.96,174.48 179.71,179.49 182.47,184.51 185.22,189.52 187.98,194.53 190.73,199.54 193.49,204.55 196.24,209.56 199,214.57 201.75,219.59 204.51,224.6 207.26,229.61 210.02,234.62 212.77,239.63 215.53,244.64 215.53,244.64" stroke="none" fill="rgb(248,118,109)" stroke-width="1.07" stroke-dasharray="none" stroke-opacity="0" fill-opacity="1"/>
                </g>
              </g>
              <g id="GRID.text.1033.1" class="text grob gDesc">
                <g id="GRID.text.1033.1.1" transform="translate(295.85, 224.02)" stroke-width="0.1">
                  <g id="GRID.text.1033.1.1.scale" transform="scale(1, -1)">
                    <text x="0" y="0" id="GRID.text.1033.1.1.text" text-anchor="middle" stroke="rgb(0,0,0)" font-size="11.04" font-family="Helvetica, Arial, FreeSans, Liberation Sans, Nimbus Sans L, sans-serif" fill="rgb(0,0,0)" stroke-opacity="1" fill-opacity="1" font-weight="normal" font-style="normal">
                      <tspan id="GRID.text.1033.1.1.tspan.1" dy="3.95" x="0">29</tspan>
                    </text>
                  </g>
                </g>
                <g id="GRID.text.1033.1.2" transform="translate(135.21, 265.27)" stroke-width="0.1">
                  <g id="GRID.text.1033.1.2.scale" transform="scale(1, -1)">
                    <text x="0" y="0" id="GRID.text.1033.1.2.text" text-anchor="middle" stroke="rgb(0,0,0)" font-size="11.04" font-family="Helvetica, Arial, FreeSans, Liberation Sans, Nimbus Sans L, sans-serif" fill="rgb(0,0,0)" stroke-opacity="1" fill-opacity="1" font-weight="normal" font-style="normal">
                      <tspan id="GRID.text.1033.1.2.tspan.1" dy="3.95" x="0">21</tspan>
                    </text>
                  </g>
                </g>
              </g>
              <g id="GRID.gTree.1034.1" class="gTree grob gDesc"/>
            </g>
          </g>
          <g id="layout::spacer.8-6-8-6.1" class="viewport"/>
          <g id="layout::spacer.8-4-8-4.1" class="viewport"/>
          <g id="layout::spacer.6-6-6-6.1" class="viewport"/>
          <g id="layout::spacer.6-4-6-4.1" class="viewport"/>
          <g id="layout::axis-t.6-5-6-5.1" class="viewport"/>
          <g id="layout::axis-l.7-4-7-4.1" class="viewport">
            <g id="layout::axis-l.7-4-7-4::GRID.VP.245.1" class="viewport">
              <g id="axis-l.7-4-7-4.1" class="forcedgrob gTableChild absoluteGrob gTree grob gDesc">
                <g id="layout::axis-l.7-4-7-4::GRID.VP.245::axis.1" class="viewport">
                  <g id="axis.1" class="forcedgrob gtable gTree grob gDesc">
                    <g id="layout::axis-l.7-4-7-4::GRID.VP.245::axis::axis.1-1-1-1.1" class="viewport"/>
                    <g id="layout::axis-l.7-4-7-4::GRID.VP.245::axis::axis.1-2-1-2.1" class="viewport"/>
                  </g>
                </g>
              </g>
            </g>
          </g>
          <g id="layout::axis-r.7-6-7-6.1" class="viewport"/>
          <g id="layout::axis-b.8-5-8-5.1" class="viewport">
            <g id="layout::axis-b.8-5-8-5::GRID.VP.244.1" class="viewport">
              <g id="axis-b.8-5-8-5.1" class="forcedgrob gTableChild absoluteGrob gTree grob gDesc">
                <g id="layout::axis-b.8-5-8-5::GRID.VP.244::axis.1" class="viewport">
                  <g id="axis.2" class="forcedgrob gtable gTree grob gDesc">
                    <g id="layout::axis-b.8-5-8-5::GRID.VP.244::axis::axis.1-1-1-1.1" class="viewport"/>
                    <g id="layout::axis-b.8-5-8-5::GRID.VP.244::axis::axis.2-1-2-1.1" class="viewport"/>
                  </g>
                </g>
              </g>
            </g>
          </g>
          <g id="layout::xlab-t.5-5-5-5.1" class="viewport"/>
          <g id="layout::xlab-b.9-5-9-5.1" class="viewport"/>
          <g id="layout::ylab-l.7-3-7-3.1" class="viewport"/>
          <g id="layout::ylab-r.7-7-7-7.1" class="viewport"/>
          <g id="layout::guide-box.7-9-7-9.1" class="viewport">
            <g id="layout::guide-box.7-9-7-9::GRID.VP.253.1" class="viewport">
              <g id="layout::guide-box.7-9-7-9::GRID.VP.253::guide-box.7-9-7-9.1" class="viewport">
                <g id="guide-box.7-9-7-9.1" class="forcedgrob gTableChild gtable gTree grob gDesc">
                  <g id="layout::guide-box.7-9-7-9::GRID.VP.253::guide-box.7-9-7-9::legend.box.background.2-4-4-2.1" class="viewport"/>
                  <g id="layout::guide-box.7-9-7-9::GRID.VP.253::guide-box.7-9-7-9::guides.3-3-3-3.1" class="viewport">
                    <g id="layout::guide-box.7-9-7-9::GRID.VP.253::guide-box.7-9-7-9::guides.3-3-3-3::GRID.VP.252.1" class="viewport">
                      <g id="layout::guide-box.7-9-7-9::GRID.VP.253::guide-box.7-9-7-9::guides.3-3-3-3::GRID.VP.252::guides.3-3-3-3.1" class="viewport">
                        <g id="guides.3-3-3-3.1" class="forcedgrob gTableChild gtable gTree grob gDesc">
                          <g id="layout::guide-box.7-9-7-9::GRID.VP.253::guide-box.7-9-7-9::guides.3-3-3-3::GRID.VP.252::guides.3-3-3-3::background.1-6-6-1.1" class="viewport">
                            <g id="background.1-6-6-1.1" class="forcedgrob gTableChild rect grob gDesc">
                              <rect id="background.1-6-6-1.1.1" x="433.8" y="219.14" width="64.72" height="51" transform="" stroke-width="1.07" stroke="none" fill="rgb(255,255,255)" stroke-dasharray="none" stroke-opacity="0" fill-opacity="1"/>
                            </g>
                          </g>
                          <g id="layout::guide-box.7-9-7-9::GRID.VP.253::guide-box.7-9-7-9::guides.3-3-3-3::GRID.VP.252::guides.3-3-3-3::title.2-5-2-2.1" class="viewport"/>
                          <g id="layout::guide-box.7-9-7-9::GRID.VP.253::guide-box.7-9-7-9::guides.3-3-3-3::GRID.VP.252::guides.3-3-3-3::key-3-1-bg.4-2-4-2.1" class="viewport"/>
                          <g id="layout::guide-box.7-9-7-9::GRID.VP.253::guide-box.7-9-7-9::guides.3-3-3-3::GRID.VP.252::guides.3-3-3-3::key-3-1-1.4-2-4-2.1" class="viewport">
                            <g id="key-3-1-1.4-2-4-2.1" class="forcedgrob gTableChild rect grob gDesc">
                              <rect id="key-3-1-1.4-2-4-2.1.1" x="439.99" y="242.61" width="15.86" height="15.86" transform="" stroke="none" fill="rgb(248,118,109)" stroke-dasharray="none" stroke-width="1.07" stroke-linejoin="miter" stroke-opacity="0" fill-opacity="1"/>
                            </g>
                          </g>
                          <g id="layout::guide-box.7-9-7-9::GRID.VP.253::guide-box.7-9-7-9::guides.3-3-3-3::GRID.VP.252::guides.3-3-3-3::key-4-1-bg.5-2-5-2.1" class="viewport"/>
                          <g id="layout::guide-box.7-9-7-9::GRID.VP.253::guide-box.7-9-7-9::guides.3-3-3-3::GRID.VP.252::guides.3-3-3-3::key-4-1-1.5-2-5-2.1" class="viewport">
                            <g id="key-4-1-1.5-2-5-2.1" class="forcedgrob gTableChild rect grob gDesc">
                              <rect id="key-4-1-1.5-2-5-2.1.1" x="439.99" y="225.33" width="15.86" height="15.86" transform="" stroke="none" fill="rgb(0,191,196)" stroke-dasharray="none" stroke-width="1.07" stroke-linejoin="miter" stroke-opacity="0" fill-opacity="1"/>
                            </g>
                          </g>
                          <g id="layout::guide-box.7-9-7-9::GRID.VP.253::guide-box.7-9-7-9::guides.3-3-3-3::GRID.VP.252::guides.3-3-3-3::label-3-3.4-4-4-4.1" class="viewport">
                            <g id="layout::guide-box.7-9-7-9::GRID.VP.253::guide-box.7-9-7-9::guides.3-3-3-3::GRID.VP.252::guides.3-3-3-3::label-3-3.4-4-4-4::GRID.VP.250.1" class="viewport">
                              <g id="label-3-3.4-4-4-4.1" class="forcedgrob gTableChild gTree grob gDesc">
                                <g id="layout::guide-box.7-9-7-9::GRID.VP.253::guide-box.7-9-7-9::guides.3-3-3-3::GRID.VP.252::guides.3-3-3-3::label-3-3.4-4-4-4::GRID.VP.250::GRID.VP.246.1" font-size="8.8" stroke="rgb(0,0,0)" font-family="Helvetica, Arial, FreeSans, Liberation Sans, Nimbus Sans L, sans-serif" stroke-opacity="1" font-weight="normal" font-style="normal" class="viewport">
                                  <g id="layout::guide-box.7-9-7-9::GRID.VP.253::guide-box.7-9-7-9::guides.3-3-3-3::GRID.VP.252::guides.3-3-3-3::label-3-3.4-4-4-4::GRID.VP.250::GRID.VP.246::GRID.VP.247.1" class="viewport">
                                    <g id="guide.label.titleGrob.1057.1" class="titleGrob gTree grob gDesc">
                                      <g id="GRID.text.1055.1" class="text grob gDesc">
                                        <g id="GRID.text.1055.1.1" transform="translate(462.04, 250.54)" stroke-width="0.1">
                                          <g id="GRID.text.1055.1.1.scale" transform="scale(1, -1)">
                                            <text x="0" y="0" id="GRID.text.1055.1.1.text" text-anchor="start" font-size="8.8" stroke="rgb(0,0,0)" font-family="Helvetica, Arial, FreeSans, Liberation Sans, Nimbus Sans L, sans-serif" fill="rgb(0,0,0)" stroke-opacity="1" fill-opacity="1" font-weight="normal" font-style="normal">
                                              <tspan id="GRID.text.1055.1.1.tspan.1" dy="3.23" x="0">LT (21)</tspan>
                                            </text>
                                          </g>
                                        </g>
                                      </g>
                                    </g>
                                  </g>
                                </g>
                              </g>
                            </g>
                          </g>
                          <g id="layout::guide-box.7-9-7-9::GRID.VP.253::guide-box.7-9-7-9::guides.3-3-3-3::GRID.VP.252::guides.3-3-3-3::label-4-3.5-4-5-4.1" class="viewport">
                            <g id="layout::guide-box.7-9-7-9::GRID.VP.253::guide-box.7-9-7-9::guides.3-3-3-3::GRID.VP.252::guides.3-3-3-3::label-4-3.5-4-5-4::GRID.VP.251.1" class="viewport">
                              <g id="label-4-3.5-4-5-4.1" class="forcedgrob gTableChild gTree grob gDesc">
                                <g id="layout::guide-box.7-9-7-9::GRID.VP.253::guide-box.7-9-7-9::guides.3-3-3-3::GRID.VP.252::guides.3-3-3-3::label-4-3.5-4-5-4::GRID.VP.251::GRID.VP.248.1" font-size="8.8" stroke="rgb(0,0,0)" font-family="Helvetica, Arial, FreeSans, Liberation Sans, Nimbus Sans L, sans-serif" stroke-opacity="1" font-weight="normal" font-style="normal" class="viewport">
                                  <g id="layout::guide-box.7-9-7-9::GRID.VP.253::guide-box.7-9-7-9::guides.3-3-3-3::GRID.VP.252::guides.3-3-3-3::label-4-3.5-4-5-4::GRID.VP.251::GRID.VP.248::GRID.VP.249.1" class="viewport">
                                    <g id="guide.label.titleGrob.1060.1" class="titleGrob gTree grob gDesc">
                                      <g id="GRID.text.1058.1" class="text grob gDesc">
                                        <g id="GRID.text.1058.1.1" transform="translate(462.04, 233.26)" stroke-width="0.1">
                                          <g id="GRID.text.1058.1.1.scale" transform="scale(1, -1)">
                                            <text x="0" y="0" id="GRID.text.1058.1.1.text" text-anchor="start" font-size="8.8" stroke="rgb(0,0,0)" font-family="Helvetica, Arial, FreeSans, Liberation Sans, Nimbus Sans L, sans-serif" fill="rgb(0,0,0)" stroke-opacity="1" fill-opacity="1" font-weight="normal" font-style="normal">
                                              <tspan id="GRID.text.1058.1.1.tspan.1" dy="3.23" x="0">LM (29)</tspan>
                                            </text>
                                          </g>
                                        </g>
                                      </g>
                                    </g>
                                  </g>
                                </g>
                              </g>
                            </g>
                          </g>
                        </g>
                      </g>
                    </g>
                  </g>
                </g>
              </g>
            </g>
          </g>
          <g id="layout::subtitle.4-5-4-5.1" class="viewport"/>
          <g id="layout::title.3-5-3-5.1" class="viewport">
            <g id="layout::title.3-5-3-5::GRID.VP.254.1" font-size="13.2" stroke="rgb(102,102,102)" font-family="Helvetica, Arial, FreeSans, Liberation Sans, Nimbus Sans L, sans-serif" stroke-opacity="1" font-weight="normal" font-style="normal" class="viewport">
              <g id="layout::title.3-5-3-5::GRID.VP.254::GRID.VP.255.1" class="viewport">
                <g id="title.3-5-3-5.1" class="forcedgrob gTableChild titleGrob gTree grob gDesc">
                  <g id="GRID.text.1069.1" class="text grob gDesc">
                    <g id="GRID.text.1069.1.1" transform="translate(215.53, 469.41)" stroke-width="0.1">
                      <g id="GRID.text.1069.1.1.scale" transform="scale(1, -1)">
                        <text x="0" y="0" id="GRID.text.1069.1.1.text" text-anchor="middle" font-size="13.2" stroke="rgb(102,102,102)" font-family="Helvetica, Arial, FreeSans, Liberation Sans, Nimbus Sans L, sans-serif" fill="rgb(102,102,102)" stroke-opacity="1" fill-opacity="1" font-weight="normal" font-style="normal">
                          <tspan id="GRID.text.1069.1.1.tspan.1" dy="9.33" x="0">anagrafica cdl</tspan>
                        </text>
                      </g>
                    </g>
                  </g>
                </g>
              </g>
            </g>
          </g>
          <g id="layout::caption.10-5-10-5.1" class="viewport"/>
          <g id="layout::tag.2-2-2-2.1" class="viewport"/>
        </g>
      </g>
    </g>
  </g>
</svg>