<?xml version="1.0" encoding="UTF-8"?>
<svg xmlns="http://www.w3.org/2000/svg" xmlns:xlink="http://www.w3.org/1999/xlink" width="504px" height="504px" viewBox="0 0 504 504" version="1.1">
  <metadata xmlns:gridsvg="http://www.stat.auckland.ac.nz/~paul/R/gridSVG/">
    <gridsvg:generator name="gridSVG" version="1.6-0" time="2019-01-18 19:06:46"/>
    <gridsvg:argument name="name" value="./latest_informaggio_csv/anziani/risultati/svg/anagrafica-altrodispositivo.svg"/>
    <gridsvg:argument name="exportCoords" value="none"/>
    <gridsvg:argument name="exportMappings" value="none"/>
    <gridsvg:argument name="exportJS" value="none"/>
    <gridsvg:argument name="res" value="72"/>
    <gridsvg:argument name="prefix" value=""/>
    <gridsvg:argument name="addClasses" value="TRUE"/>
    <gridsvg:argument name="indent" value="TRUE"/>
    <gridsvg:argument name="htmlWrapper" value="FALSE"/>
    <gridsvg:argument name="usePaths" value="vpPaths"/>
    <gridsvg:argument name="uniqueNames" value="TRUE"/>
    <gridsvg:separator name="id.sep" value="."/>
    <gridsvg:separator name="gPath.sep" value="::"/>
    <gridsvg:separator name="vpPath.sep" value="::"/>
  </metadata>
  <g transform="translate(0, 504) scale(1, -1)">
    <g id="gridSVG" fill="none" stroke="rgb(0,0,0)" stroke-dasharray="none" stroke-width="0.75" font-size="12" font-family="Helvetica, Arial, FreeSans, Liberation Sans, Nimbus Sans L, sans-serif" opacity="1" stroke-linecap="round" stroke-linejoin="round" stroke-miterlimit="10" stroke-opacity="1" fill-opacity="0" font-weight="normal" font-style="normal">
      <g id="layout.1" class="viewport">
        <g id="layout.2" class="forcedgrob gtable gTree grob gDesc">
          <defs>
            <clipPath id="layout::background.1-11-12-1.1.clipPath">
              <rect x="0" y="29.11" width="504" height="445.77" fill="none" stroke="none"/>
            </clipPath>
          </defs>
          <g id="layout::background.1-11-12-1.1" clip-path="url(#layout::background.1-11-12-1.1.clipPath)" class="viewport">
            <g id="background.1-11-12-1.1" class="forcedgrob gTableChild rect grob gDesc">
              <rect id="background.1-11-12-1.1.1" x="0" y="29.11" width="504" height="445.77" transform="" stroke-width="1.07" stroke="rgb(255,255,255)" fill="rgb(255,255,255)" stroke-dasharray="none" stroke-opacity="1" fill-opacity="1"/>
            </g>
          </g>
          <defs>
            <clipPath id="layout::panel.7-5-7-5.1.clipPath">
              <rect x="8.22" y="37.33" width="414.62" height="414.62" fill="none" stroke="none"/>
            </clipPath>
          </defs>
          <g id="layout::panel.7-5-7-5.1" clip-path="url(#layout::panel.7-5-7-5.1.clipPath)" class="viewport">
            <g id="panel.7-5-7-5.1" class="forcedgrob gTableChild gTree grob gDesc">
              <g id="grill.gTree.107.1" class="gTree grob gDesc">
                <g id="panel.background..rect.103.1" class="rect grob gDesc">
                  <rect id="panel.background..rect.103.1.1" x="8.22" y="37.33" width="414.62" height="414.62" transform="" stroke-width="1.07" stroke="none" fill="rgb(255,255,255)" stroke-dasharray="none" stroke-opacity="0" fill-opacity="1"/>
                </g>
              </g>
              <g id="bar.gTree.96.1" class="gTree grob gDesc">
                <g id="geom_polygon.polygon.94.1" class="polygon grob gDesc">
                  <polygon id="geom_polygon.polygon.94.1.1" points="215.53,244.64 215.53,250.36 215.53,256.08 215.53,261.8 215.53,267.52 215.53,273.24 215.53,278.96 215.53,284.68 215.53,290.39 215.53,296.11 215.53,301.83 215.53,307.55 215.53,313.27 215.53,318.99 215.53,324.71 215.53,330.43 215.53,336.15 215.53,341.86 215.53,347.58 215.53,353.3 215.53,359.02 215.53,364.74 215.53,370.46 215.53,376.18 215.53,381.9 215.53,387.62 215.53,393.33 215.53,399.05 215.53,404.77 215.53,410.49 209.9,410.4 204.27,410.11 198.66,409.63 193.07,408.96 187.5,408.11 181.97,407.06 176.47,405.83 171.02,404.41 165.62,402.8 160.28,401.02 155,399.05 149.79,396.91 144.66,394.59 139.61,392.09 134.65,389.43 129.78,386.6 125,383.61 120.34,380.45 115.78,377.14 111.34,373.68 107.02,370.07 102.82,366.31 98.76,362.41 94.82,358.38 91.03,354.21 87.38,349.92 83.88,345.51 80.53,340.98 77.34,336.34 74.3,331.6 71.43,326.75 68.73,321.81 66.19,316.78 63.83,311.67 61.64,306.48 59.63,301.22 57.8,295.89 56.15,290.51 54.68,285.07 53.4,279.58 52.31,274.06 51.41,268.5 50.69,262.91 50.17,257.3 49.83,251.68 49.69,246.05 49.73,240.42 49.97,234.79 50.4,229.18 51.02,223.58 51.83,218 52.83,212.46 54.02,206.95 55.39,201.49 56.95,196.08 58.69,190.72 60.61,185.43 62.71,180.2 64.99,175.05 67.44,169.98 70.06,164.99 72.85,160.1 75.8,155.3 78.92,150.61 82.19,146.02 85.61,141.55 89.19,137.2 92.91,132.97 96.77,128.87 100.77,124.91 104.9,121.08 109.16,117.4 113.55,113.86 118.05,110.47 122.66,107.24 127.38,104.16 132.2,101.25 137.12,98.5 142.12,95.92 147.22,93.52 152.39,91.29 157.63,89.23 162.94,87.35 168.31,85.66 173.74,84.15 179.21,82.82 184.73,81.68 190.28,80.73 195.86,79.97 201.46,79.39 207.08,79.01 212.71,78.82 218.34,78.82 223.97,79.01 229.59,79.39 235.2,79.97 240.78,80.73 246.33,81.68 251.84,82.82 257.32,84.15 262.74,85.66 268.12,87.35 273.43,89.23 278.67,91.29 283.84,93.52 288.93,95.92 293.94,98.5 298.86,101.25 303.68,104.16 308.4,107.24 313.01,110.47 317.51,113.86 321.89,117.4 326.15,121.08 330.29,124.91 334.28,128.87 338.15,132.97 341.87,137.2 345.44,141.55 348.87,146.02 352.14,150.61 355.26,155.3 358.21,160.1 361,164.99 363.62,169.98 366.07,175.05 368.34,180.2 370.44,185.43 372.37,190.72 374.11,196.08 375.66,201.49 377.04,206.95 378.22,212.46 379.22,218 380.03,223.58 380.65,229.18 381.08,234.79 381.32,240.42 381.37,246.05 381.23,251.68 380.89,257.3 380.37,262.91 379.65,268.5 378.75,274.06 377.65,279.58 376.37,285.07 374.91,290.51 373.26,295.89 371.43,301.22 369.42,306.48 367.23,311.67 364.86,316.78 362.33,321.81 359.62,326.75 356.75,331.6 353.72,336.34 350.53,340.98 347.18,345.51 343.67,349.92 340.03,354.21 336.23,358.38 332.3,362.41 328.24,366.31 324.04,370.07 319.72,373.68 315.28,377.14 310.72,380.45 306.05,383.61 301.28,386.6 296.41,389.43 291.45,392.09 286.4,394.59 281.27,396.91 276.06,399.05 270.78,401.02 265.44,402.8 260.04,404.41 254.59,405.83 249.09,407.06 243.56,408.11 237.99,408.96 232.4,409.63 226.79,410.11 221.16,410.4 215.53,410.49 215.53,404.77 215.53,399.05 215.53,393.33 215.53,387.62 215.53,381.9 215.53,376.18 215.53,370.46 215.53,364.74 215.53,359.02 215.53,353.3 215.53,347.58 215.53,341.86 215.53,336.15 215.53,330.43 215.53,324.71 215.53,318.99 215.53,313.27 215.53,307.55 215.53,301.83 215.53,296.11 215.53,290.39 215.53,284.68 215.53,278.96 215.53,273.24 215.53,267.52 215.53,261.8 215.53,256.08 215.53,250.36 215.53,244.64 215.53,244.64" stroke="none" fill="rgb(248,118,109)" stroke-width="1.07" stroke-dasharray="none" stroke-opacity="0" fill-opacity="1"/>
                </g>
              </g>
              <g id="GRID.text.97.1" class="text grob gDesc">
                <g id="GRID.text.97.1.1" transform="translate(215.53, 161.72)" stroke-width="0.1">
                  <g id="GRID.text.97.1.1.scale" transform="scale(1, -1)">
                    <text x="0" y="0" id="GRID.text.97.1.1.text" text-anchor="middle" stroke="rgb(0,0,0)" font-size="11.04" font-family="Helvetica, Arial, FreeSans, Liberation Sans, Nimbus Sans L, sans-serif" fill="rgb(0,0,0)" stroke-opacity="1" fill-opacity="1" font-weight="normal" font-style="normal">
                      <tspan id="GRID.text.97.1.1.tspan.1" dy="3.95" x="0">50</tspan>
                    </text>
                  </g>
                </g>
              </g>
              <g id="GRID.gTree.98.1" class="gTree grob gDesc"/>
            </g>
          </g>
          <g id="layout::spacer.8-6-8-6.1" class="viewport"/>
          <g id="layout::spacer.8-4-8-4.1" class="viewport"/>
          <g id="layout::spacer.6-6-6-6.1" class="viewport"/>
          <g id="layout::spacer.6-4-6-4.1" class="viewport"/>
          <g id="layout::axis-t.6-5-6-5.1" class="viewport"/>
          <g id="layout::axis-l.7-4-7-4.1" class="viewport">
            <g id="layout::axis-l.7-4-7-4::GRID.VP.23.1" class="viewport">
              <g id="axis-l.7-4-7-4.1" class="forcedgrob gTableChild absoluteGrob gTree grob gDesc">
                <g id="layout::axis-l.7-4-7-4::GRID.VP.23::axis.1" class="viewport">
                  <g id="axis.1" class="forcedgrob gtable gTree grob gDesc">
                    <g id="layout::axis-l.7-4-7-4::GRID.VP.23::axis::axis.1-1-1-1.1" class="viewport"/>
                    <g id="layout::axis-l.7-4-7-4::GRID.VP.23::axis::axis.1-2-1-2.1" class="viewport"/>
                  </g>
                </g>
              </g>
            </g>
          </g>
          <g id="layout::axis-r.7-6-7-6.1" class="viewport"/>
          <g id="layout::axis-b.8-5-8-5.1" class="viewport">
            <g id="layout::axis-b.8-5-8-5::GRID.VP.22.1" class="viewport">
              <g id="axis-b.8-5-8-5.1" class="forcedgrob gTableChild absoluteGrob gTree grob gDesc">
                <g id="layout::axis-b.8-5-8-5::GRID.VP.22::axis.1" class="viewport">
                  <g id="axis.2" class="forcedgrob gtable gTree grob gDesc">
                    <g id="layout::axis-b.8-5-8-5::GRID.VP.22::axis::axis.1-1-1-1.1" class="viewport"/>
                    <g id="layout::axis-b.8-5-8-5::GRID.VP.22::axis::axis.2-1-2-1.1" class="viewport"/>
                  </g>
                </g>
              </g>
            </g>
          </g>
          <g id="layout::xlab-t.5-5-5-5.1" class="viewport"/>
          <g id="layout::xlab-b.9-5-9-5.1" class="viewport"/>
          <g id="layout::ylab-l.7-3-7-3.1" class="viewport"/>
          <g id="layout::ylab-r.7-7-7-7.1" class="viewport"/>
          <g id="layout::guide-box.7-9-7-9.1" class="viewport">
            <g id="layout::guide-box.7-9-7-9::GRID.VP.28.1" class="viewport">
              <g id="layout::guide-box.7-9-7-9::GRID.VP.28::guide-box.7-9-7-9.1" class="viewport">
                <g id="guide-box.7-9-7-9.1" class="forcedgrob gTableChild gtable gTree grob gDesc">
                  <g id="layout::guide-box.7-9-7-9::GRID.VP.28::guide-box.7-9-7-9::legend.box.background.2-4-4-2.1" class="viewport"/>
                  <g id="layout::guide-box.7-9-7-9::GRID.VP.28::guide-box.7-9-7-9::guides.3-3-3-3.1" class="viewport">
                    <g id="layout::guide-box.7-9-7-9::GRID.VP.28::guide-box.7-9-7-9::guides.3-3-3-3::GRID.VP.27.1" class="viewport">
                      <g id="layout::guide-box.7-9-7-9::GRID.VP.28::guide-box.7-9-7-9::guides.3-3-3-3::GRID.VP.27::guides.3-3-3-3.1" class="viewport">
                        <g id="guides.3-3-3-3.1" class="forcedgrob gTableChild gtable gTree grob gDesc">
                          <g id="layout::guide-box.7-9-7-9::GRID.VP.28::guide-box.7-9-7-9::guides.3-3-3-3::GRID.VP.27::guides.3-3-3-3::background.1-6-5-1.1" class="viewport">
                            <g id="background.1-6-5-1.1" class="forcedgrob gTableChild rect grob gDesc">
                              <rect id="background.1-6-5-1.1.1" x="433.8" y="227.78" width="64.72" height="33.72" transform="" stroke-width="1.07" stroke="none" fill="rgb(255,255,255)" stroke-dasharray="none" stroke-opacity="0" fill-opacity="1"/>
                            </g>
                          </g>
                          <g id="layout::guide-box.7-9-7-9::GRID.VP.28::guide-box.7-9-7-9::guides.3-3-3-3::GRID.VP.27::guides.3-3-3-3::title.2-5-2-2.1" class="viewport"/>
                          <g id="layout::guide-box.7-9-7-9::GRID.VP.28::guide-box.7-9-7-9::guides.3-3-3-3::GRID.VP.27::guides.3-3-3-3::key-3-1-bg.4-2-4-2.1" class="viewport"/>
                          <g id="layout::guide-box.7-9-7-9::GRID.VP.28::guide-box.7-9-7-9::guides.3-3-3-3::GRID.VP.27::guides.3-3-3-3::key-3-1-1.4-2-4-2.1" class="viewport">
                            <g id="key-3-1-1.4-2-4-2.1" class="forcedgrob gTableChild rect grob gDesc">
                              <rect id="key-3-1-1.4-2-4-2.1.1" x="439.99" y="233.97" width="15.86" height="15.86" transform="" stroke="none" fill="rgb(248,118,109)" stroke-dasharray="none" stroke-width="1.07" stroke-linejoin="miter" stroke-opacity="0" fill-opacity="1"/>
                            </g>
                          </g>
                          <g id="layout::guide-box.7-9-7-9::GRID.VP.28::guide-box.7-9-7-9::guides.3-3-3-3::GRID.VP.27::guides.3-3-3-3::label-3-3.4-4-4-4.1" class="viewport">
                            <g id="layout::guide-box.7-9-7-9::GRID.VP.28::guide-box.7-9-7-9::guides.3-3-3-3::GRID.VP.27::guides.3-3-3-3::label-3-3.4-4-4-4::GRID.VP.26.1" class="viewport">
                              <g id="label-3-3.4-4-4-4.1" class="forcedgrob gTableChild gTree grob gDesc">
                                <g id="layout::guide-box.7-9-7-9::GRID.VP.28::guide-box.7-9-7-9::guides.3-3-3-3::GRID.VP.27::guides.3-3-3-3::label-3-3.4-4-4-4::GRID.VP.26::GRID.VP.24.1" font-size="8.8" stroke="rgb(0,0,0)" font-family="Helvetica, Arial, FreeSans, Liberation Sans, Nimbus Sans L, sans-serif" stroke-opacity="1" font-weight="normal" font-style="normal" class="viewport">
                                  <g id="layout::guide-box.7-9-7-9::GRID.VP.28::guide-box.7-9-7-9::guides.3-3-3-3::GRID.VP.27::guides.3-3-3-3::label-3-3.4-4-4-4::GRID.VP.26::GRID.VP.24::GRID.VP.25.1" class="viewport">
                                    <g id="guide.label.titleGrob.121.1" class="titleGrob gTree grob gDesc">
                                      <g id="GRID.text.119.1" class="text grob gDesc">
                                        <g id="GRID.text.119.1.1" transform="translate(462.04, 241.9)" stroke-width="0.1">
                                          <g id="GRID.text.119.1.1.scale" transform="scale(1, -1)">
                                            <text x="0" y="0" id="GRID.text.119.1.1.text" text-anchor="start" font-size="8.8" stroke="rgb(0,0,0)" font-family="Helvetica, Arial, FreeSans, Liberation Sans, Nimbus Sans L, sans-serif" fill="rgb(0,0,0)" stroke-opacity="1" fill-opacity="1" font-weight="normal" font-style="normal">
                                              <tspan id="GRID.text.119.1.1.tspan.1" dy="3.23" x="0">NA (50)</tspan>
                                            </text>
                                          </g>
                                        </g>
                                      </g>
                                    </g>
                                  </g>
                                </g>
                              </g>
                            </g>
                          </g>
                        </g>
                      </g>
                    </g>
                  </g>
                </g>
              </g>
            </g>
          </g>
          <g id="layout::subtitle.4-5-4-5.1" class="viewport"/>
          <g id="layout::title.3-5-3-5.1" class="viewport">
            <g id="layout::title.3-5-3-5::GRID.VP.29.1" font-size="13.2" stroke="rgb(102,102,102)" font-family="Helvetica, Arial, FreeSans, Liberation Sans, Nimbus Sans L, sans-serif" stroke-opacity="1" font-weight="normal" font-style="normal" class="viewport">
              <g id="layout::title.3-5-3-5::GRID.VP.29::GRID.VP.30.1" class="viewport">
                <g id="title.3-5-3-5.1" class="forcedgrob gTableChild titleGrob gTree grob gDesc">
                  <g id="GRID.text.127.1" class="text grob gDesc">
                    <g id="GRID.text.127.1.1" transform="translate(215.53, 469.41)" stroke-width="0.1">
                      <g id="GRID.text.127.1.1.scale" transform="scale(1, -1)">
                        <text x="0" y="0" id="GRID.text.127.1.1.text" text-anchor="middle" font-size="13.2" stroke="rgb(102,102,102)" font-family="Helvetica, Arial, FreeSans, Liberation Sans, Nimbus Sans L, sans-serif" fill="rgb(102,102,102)" stroke-opacity="1" fill-opacity="1" font-weight="normal" font-style="normal">
                          <tspan id="GRID.text.127.1.1.tspan.1" dy="9.33" x="0">anagrafica altrodispositivo</tspan>
                        </text>
                      </g>
                    </g>
                  </g>
                </g>
              </g>
            </g>
          </g>
          <g id="layout::caption.10-5-10-5.1" class="viewport"/>
          <g id="layout::tag.2-2-2-2.1" class="viewport"/>
        </g>
      </g>
    </g>
  </g>
</svg>