<?xml version="1.0" encoding="UTF-8"?>
<svg xmlns="http://www.w3.org/2000/svg" xmlns:xlink="http://www.w3.org/1999/xlink" width="504px" height="504px" viewBox="0 0 504 504" version="1.1">
  <metadata xmlns:gridsvg="http://www.stat.auckland.ac.nz/~paul/R/gridSVG/">
    <gridsvg:generator name="gridSVG" version="1.6-0" time="2019-01-18 19:07:08"/>
    <gridsvg:argument name="name" value="./latest_informaggio_csv/anziani/risultati/svg/anagrafica-os.svg"/>
    <gridsvg:argument name="exportCoords" value="none"/>
    <gridsvg:argument name="exportMappings" value="none"/>
    <gridsvg:argument name="exportJS" value="none"/>
    <gridsvg:argument name="res" value="72"/>
    <gridsvg:argument name="prefix" value=""/>
    <gridsvg:argument name="addClasses" value="TRUE"/>
    <gridsvg:argument name="indent" value="TRUE"/>
    <gridsvg:argument name="htmlWrapper" value="FALSE"/>
    <gridsvg:argument name="usePaths" value="vpPaths"/>
    <gridsvg:argument name="uniqueNames" value="TRUE"/>
    <gridsvg:separator name="id.sep" value="."/>
    <gridsvg:separator name="gPath.sep" value="::"/>
    <gridsvg:separator name="vpPath.sep" value="::"/>
  </metadata>
  <g transform="translate(0, 504) scale(1, -1)">
    <g id="gridSVG" fill="none" stroke="rgb(0,0,0)" stroke-dasharray="none" stroke-width="0.75" font-size="12" font-family="Helvetica, Arial, FreeSans, Liberation Sans, Nimbus Sans L, sans-serif" opacity="1" stroke-linecap="round" stroke-linejoin="round" stroke-miterlimit="10" stroke-opacity="1" fill-opacity="0" font-weight="normal" font-style="normal">
      <g id="layout.1" class="viewport">
        <g id="layout.2" class="forcedgrob gtable gTree grob gDesc">
          <defs>
            <clipPath id="layout::background.1-11-12-1.1.clipPath">
              <rect x="0" y="41.05" width="504" height="421.9" fill="none" stroke="none"/>
            </clipPath>
          </defs>
          <g id="layout::background.1-11-12-1.1" clip-path="url(#layout::background.1-11-12-1.1.clipPath)" class="viewport">
            <g id="background.1-11-12-1.1" class="forcedgrob gTableChild rect grob gDesc">
              <rect id="background.1-11-12-1.1.1" x="0" y="41.05" width="504" height="421.9" transform="" stroke-width="1.07" stroke="rgb(255,255,255)" fill="rgb(255,255,255)" stroke-dasharray="none" stroke-opacity="1" fill-opacity="1"/>
            </g>
          </g>
          <defs>
            <clipPath id="layout::panel.7-5-7-5.1.clipPath">
              <rect x="8.22" y="49.27" width="390.75" height="390.75" fill="none" stroke="none"/>
            </clipPath>
          </defs>
          <g id="layout::panel.7-5-7-5.1" clip-path="url(#layout::panel.7-5-7-5.1.clipPath)" class="viewport">
            <g id="panel.7-5-7-5.1" class="forcedgrob gTableChild gTree grob gDesc">
              <g id="grill.gTree.2333.1" class="gTree grob gDesc">
                <g id="panel.background..rect.2329.1" class="rect grob gDesc">
                  <rect id="panel.background..rect.2329.1.1" x="8.22" y="49.27" width="390.75" height="390.75" transform="" stroke-width="1.07" stroke="none" fill="rgb(255,255,255)" stroke-dasharray="none" stroke-opacity="0" fill-opacity="1"/>
                </g>
              </g>
              <g id="bar.gTree.2322.1" class="gTree grob gDesc">
                <g id="geom_polygon.polygon.2316.1" class="polygon grob gDesc">
                  <polygon id="geom_polygon.polygon.2316.1.1" points="203.59,244.64 199.91,248.57 196.22,252.5 192.53,256.43 188.84,260.36 185.15,264.29 181.46,268.22 177.77,272.15 174.08,276.07 170.39,280 166.7,283.93 163.01,287.86 159.32,291.79 155.63,295.72 151.94,299.65 148.25,303.58 144.56,307.51 140.87,311.43 137.18,315.36 133.49,319.29 129.81,323.22 126.12,327.15 122.43,331.08 118.74,335.01 115.05,338.94 111.36,342.87 107.67,346.79 103.98,350.72 100.29,354.65 96.6,358.58 92.8,354.89 89.12,351.07 85.58,347.12 82.17,343.06 78.9,338.89 75.78,334.6 72.8,330.22 69.97,325.73 67.3,321.15 64.78,316.49 62.43,311.74 60.23,306.91 58.2,302.01 56.34,297.05 54.65,292.02 53.13,286.95 51.78,281.82 50.61,276.65 49.61,271.44 48.79,266.2 48.15,260.94 47.68,255.66 47.4,250.37 47.29,245.06 47.37,239.76 47.63,234.47 48.06,229.18 48.67,223.92 49.47,218.68 50.44,213.46 51.58,208.29 52.9,203.15 54.4,198.07 56.06,193.03 57.9,188.06 59.9,183.15 62.07,178.31 64.4,173.55 66.89,168.87 69.54,164.28 72.34,159.78 75.29,155.37 78.4,151.07 81.64,146.88 85.03,142.8 88.55,138.84 92.2,135 95.99,131.28 99.89,127.7 103.92,124.25 108.06,120.94 112.31,117.77 116.66,114.75 121.12,111.87 125.67,109.15 130.31,106.59 135.04,104.18 139.84,101.94 144.71,99.86 149.66,97.94 154.67,96.2 159.73,94.62 164.84,93.22 170,92 175.2,90.94 180.42,90.07 185.68,89.37 190.96,88.85 196.25,88.52 201.55,88.36 206.85,88.38 212.15,88.58 217.43,88.96 222.71,89.52 227.96,90.25 233.18,91.17 238.37,92.26 243.51,93.53 248.62,94.97 253.67,96.58 258.66,98.36 263.59,100.32 268.45,102.43 273.24,104.71 277.94,107.16 282.56,109.76 287.09,112.51 291.52,115.42 295.86,118.48 300.08,121.68 304.2,125.02 308.2,128.5 312.07,132.12 315.83,135.86 319.45,139.73 322.94,143.72 326.3,147.83 329.51,152.04 332.58,156.37 335.5,160.79 338.27,165.31 340.88,169.93 343.33,174.63 345.63,179.4 347.76,184.26 349.73,189.18 351.52,194.17 353.15,199.22 354.6,204.32 355.88,209.46 356.99,214.65 357.92,219.87 358.67,225.11 359.24,230.38 359.64,235.67 359.85,240.97 359.89,246.27 359.74,251.57 359.42,256.86 358.91,262.14 358.23,267.4 357.37,272.63 356.33,277.83 355.12,282.99 353.73,288.1 352.17,293.17 350.44,298.18 348.54,303.13 346.47,308.01 344.24,312.82 341.85,317.55 339.3,322.2 336.59,326.76 333.73,331.22 330.71,335.59 327.56,339.84 324.26,343.99 320.82,348.03 317.24,351.95 313.54,355.74 309.71,359.4 305.76,362.94 301.68,366.33 297.5,369.59 293.21,372.7 288.81,375.67 284.32,378.48 279.74,381.14 275.06,383.65 270.31,385.99 265.48,388.17 260.57,390.19 255.6,392.04 250.57,393.72 245.49,395.22 240.36,396.56 235.19,397.72 229.98,398.7 224.74,399.51 219.47,400.13 214.19,400.58 208.9,400.85 203.59,400.94 203.59,395.55 203.59,390.16 203.59,384.77 203.59,379.38 203.59,374 203.59,368.61 203.59,363.22 203.59,357.83 203.59,352.44 203.59,347.05 203.59,341.66 203.59,336.27 203.59,330.88 203.59,325.49 203.59,320.1 203.59,314.71 203.59,309.32 203.59,303.93 203.59,298.54 203.59,293.15 203.59,287.76 203.59,282.37 203.59,276.98 203.59,271.59 203.59,266.2 203.59,260.81 203.59,255.42 203.59,250.03 203.59,244.64 203.59,244.64" stroke="none" fill="rgb(97,156,255)" stroke-width="1.07" stroke-dasharray="none" stroke-opacity="0" fill-opacity="1"/>
                </g>
                <g id="geom_polygon.polygon.2318.1" class="polygon grob gDesc">
                  <polygon id="geom_polygon.polygon.2318.1.1" points="203.59,244.64 202.25,249.86 200.91,255.08 199.57,260.3 198.23,265.52 196.89,270.74 195.55,275.97 194.21,281.19 192.87,286.41 191.53,291.63 190.19,296.85 188.85,302.07 187.51,307.29 186.17,312.51 184.83,317.73 183.49,322.95 182.15,328.17 180.81,333.39 179.47,338.61 178.13,343.83 176.79,349.05 175.45,354.27 174.11,359.49 172.77,364.71 171.43,369.93 170.09,375.15 168.75,380.37 167.41,385.59 166.06,390.81 164.72,396.03 159.32,394.54 153.96,392.85 148.67,390.98 143.46,388.91 138.32,386.66 133.26,384.22 128.3,381.61 123.43,378.82 118.66,375.85 114.01,372.72 109.47,369.42 105.05,365.96 100.76,362.35 96.6,358.58 100.29,354.65 103.98,350.72 107.67,346.79 111.36,342.87 115.05,338.94 118.74,335.01 122.43,331.08 126.12,327.15 129.81,323.22 133.49,319.29 137.18,315.36 140.87,311.43 144.56,307.51 148.25,303.58 151.94,299.65 155.63,295.72 159.32,291.79 163.01,287.86 166.7,283.93 170.39,280 174.08,276.07 177.77,272.15 181.46,268.22 185.15,264.29 188.84,260.36 192.53,256.43 196.22,252.5 199.91,248.57 203.59,244.64 203.59,244.64" stroke="none" fill="rgb(0,186,56)" stroke-width="1.07" stroke-dasharray="none" stroke-opacity="0" fill-opacity="1"/>
                </g>
                <g id="geom_polygon.polygon.2320.1" class="polygon grob gDesc">
                  <polygon id="geom_polygon.polygon.2320.1.1" points="203.59,244.64 203.59,250.03 203.59,255.42 203.59,260.81 203.59,266.2 203.59,271.59 203.59,276.98 203.59,282.37 203.59,287.76 203.59,293.15 203.59,298.54 203.59,303.93 203.59,309.32 203.59,314.71 203.59,320.1 203.59,325.49 203.59,330.88 203.59,336.27 203.59,341.66 203.59,347.05 203.59,352.44 203.59,357.83 203.59,363.22 203.59,368.61 203.59,374 203.59,379.38 203.59,384.77 203.59,390.16 203.59,395.55 203.59,400.94 197.98,400.84 192.38,400.54 186.79,400.04 181.22,399.33 175.69,398.43 170.18,397.33 164.72,396.03 166.06,390.81 167.41,385.59 168.75,380.37 170.09,375.15 171.43,369.93 172.77,364.71 174.11,359.49 175.45,354.27 176.79,349.05 178.13,343.83 179.47,338.61 180.81,333.39 182.15,328.17 183.49,322.95 184.83,317.73 186.17,312.51 187.51,307.29 188.85,302.07 190.19,296.85 191.53,291.63 192.87,286.41 194.21,281.19 195.55,275.97 196.89,270.74 198.23,265.52 199.57,260.3 200.91,255.08 202.25,249.86 203.59,244.64 203.59,244.64" stroke="none" fill="rgb(248,118,109)" stroke-width="1.07" stroke-dasharray="none" stroke-opacity="0" fill-opacity="1"/>
                </g>
              </g>
              <g id="GRID.text.2323.1" class="text grob gDesc">
                <g id="GRID.text.2323.1.1" transform="translate(232.36, 171.98)" stroke-width="0.1">
                  <g id="GRID.text.2323.1.1.scale" transform="scale(1, -1)">
                    <text x="0" y="0" id="GRID.text.2323.1.1.text" text-anchor="middle" stroke="rgb(0,0,0)" font-size="11.04" font-family="Helvetica, Arial, FreeSans, Liberation Sans, Nimbus Sans L, sans-serif" fill="rgb(0,0,0)" stroke-opacity="1" fill-opacity="1" font-weight="normal" font-style="normal">
                      <tspan id="GRID.text.2323.1.1.tspan.1" dy="3.95" x="0">44</tspan>
                    </text>
                  </g>
                </g>
                <g id="GRID.text.2323.1.2" transform="translate(165.95, 313.13)" stroke-width="0.1">
                  <g id="GRID.text.2323.1.2.scale" transform="scale(1, -1)">
                    <text x="0" y="0" id="GRID.text.2323.1.2.text" text-anchor="middle" stroke="rgb(0,0,0)" font-size="11.04" font-family="Helvetica, Arial, FreeSans, Liberation Sans, Nimbus Sans L, sans-serif" fill="rgb(0,0,0)" stroke-opacity="1" fill-opacity="1" font-weight="normal" font-style="normal">
                      <tspan id="GRID.text.2323.1.2.tspan.1" dy="3.95" x="0">4</tspan>
                    </text>
                  </g>
                </g>
                <g id="GRID.text.2323.1.3" transform="translate(193.8, 322.18)" stroke-width="0.1">
                  <g id="GRID.text.2323.1.3.scale" transform="scale(1, -1)">
                    <text x="0" y="0" id="GRID.text.2323.1.3.text" text-anchor="middle" stroke="rgb(0,0,0)" font-size="11.04" font-family="Helvetica, Arial, FreeSans, Liberation Sans, Nimbus Sans L, sans-serif" fill="rgb(0,0,0)" stroke-opacity="1" fill-opacity="1" font-weight="normal" font-style="normal">
                      <tspan id="GRID.text.2323.1.3.tspan.1" dy="3.95" x="0">2</tspan>
                    </text>
                  </g>
                </g>
              </g>
              <g id="GRID.gTree.2324.1" class="gTree grob gDesc"/>
            </g>
          </g>
          <g id="layout::spacer.8-6-8-6.1" class="viewport"/>
          <g id="layout::spacer.8-4-8-4.1" class="viewport"/>
          <g id="layout::spacer.6-6-6-6.1" class="viewport"/>
          <g id="layout::spacer.6-4-6-4.1" class="viewport"/>
          <g id="layout::axis-t.6-5-6-5.1" class="viewport"/>
          <g id="layout::axis-l.7-4-7-4.1" class="viewport">
            <g id="layout::axis-l.7-4-7-4::GRID.VP.539.1" class="viewport">
              <g id="axis-l.7-4-7-4.1" class="forcedgrob gTableChild absoluteGrob gTree grob gDesc">
                <g id="layout::axis-l.7-4-7-4::GRID.VP.539::axis.1" class="viewport">
                  <g id="axis.1" class="forcedgrob gtable gTree grob gDesc">
                    <g id="layout::axis-l.7-4-7-4::GRID.VP.539::axis::axis.1-1-1-1.1" class="viewport"/>
                    <g id="layout::axis-l.7-4-7-4::GRID.VP.539::axis::axis.1-2-1-2.1" class="viewport"/>
                  </g>
                </g>
              </g>
            </g>
          </g>
          <g id="layout::axis-r.7-6-7-6.1" class="viewport"/>
          <g id="layout::axis-b.8-5-8-5.1" class="viewport">
            <g id="layout::axis-b.8-5-8-5::GRID.VP.538.1" class="viewport">
              <g id="axis-b.8-5-8-5.1" class="forcedgrob gTableChild absoluteGrob gTree grob gDesc">
                <g id="layout::axis-b.8-5-8-5::GRID.VP.538::axis.1" class="viewport">
                  <g id="axis.2" class="forcedgrob gtable gTree grob gDesc">
                    <g id="layout::axis-b.8-5-8-5::GRID.VP.538::axis::axis.1-1-1-1.1" class="viewport"/>
                    <g id="layout::axis-b.8-5-8-5::GRID.VP.538::axis::axis.2-1-2-1.1" class="viewport"/>
                  </g>
                </g>
              </g>
            </g>
          </g>
          <g id="layout::xlab-t.5-5-5-5.1" class="viewport"/>
          <g id="layout::xlab-b.9-5-9-5.1" class="viewport"/>
          <g id="layout::ylab-l.7-3-7-3.1" class="viewport"/>
          <g id="layout::ylab-r.7-7-7-7.1" class="viewport"/>
          <g id="layout::guide-box.7-9-7-9.1" class="viewport">
            <g id="layout::guide-box.7-9-7-9::GRID.VP.550.1" class="viewport">
              <g id="layout::guide-box.7-9-7-9::GRID.VP.550::guide-box.7-9-7-9.1" class="viewport">
                <g id="guide-box.7-9-7-9.1" class="forcedgrob gTableChild gtable gTree grob gDesc">
                  <g id="layout::guide-box.7-9-7-9::GRID.VP.550::guide-box.7-9-7-9::legend.box.background.2-4-4-2.1" class="viewport"/>
                  <g id="layout::guide-box.7-9-7-9::GRID.VP.550::guide-box.7-9-7-9::guides.3-3-3-3.1" class="viewport">
                    <g id="layout::guide-box.7-9-7-9::GRID.VP.550::guide-box.7-9-7-9::guides.3-3-3-3::GRID.VP.549.1" class="viewport">
                      <g id="layout::guide-box.7-9-7-9::GRID.VP.550::guide-box.7-9-7-9::guides.3-3-3-3::GRID.VP.549::guides.3-3-3-3.1" class="viewport">
                        <g id="guides.3-3-3-3.1" class="forcedgrob gTableChild gtable gTree grob gDesc">
                          <g id="layout::guide-box.7-9-7-9::GRID.VP.550::guide-box.7-9-7-9::guides.3-3-3-3::GRID.VP.549::guides.3-3-3-3::background.1-6-7-1.1" class="viewport">
                            <g id="background.1-6-7-1.1" class="forcedgrob gTableChild rect grob gDesc">
                              <rect id="background.1-6-7-1.1.1" x="409.93" y="210.5" width="88.59" height="68.28" transform="" stroke-width="1.07" stroke="none" fill="rgb(255,255,255)" stroke-dasharray="none" stroke-opacity="0" fill-opacity="1"/>
                            </g>
                          </g>
                          <g id="layout::guide-box.7-9-7-9::GRID.VP.550::guide-box.7-9-7-9::guides.3-3-3-3::GRID.VP.549::guides.3-3-3-3::title.2-5-2-2.1" class="viewport"/>
                          <g id="layout::guide-box.7-9-7-9::GRID.VP.550::guide-box.7-9-7-9::guides.3-3-3-3::GRID.VP.549::guides.3-3-3-3::key-3-1-bg.4-2-4-2.1" class="viewport"/>
                          <g id="layout::guide-box.7-9-7-9::GRID.VP.550::guide-box.7-9-7-9::guides.3-3-3-3::GRID.VP.549::guides.3-3-3-3::key-3-1-1.4-2-4-2.1" class="viewport">
                            <g id="key-3-1-1.4-2-4-2.1" class="forcedgrob gTableChild rect grob gDesc">
                              <rect id="key-3-1-1.4-2-4-2.1.1" x="416.12" y="251.25" width="15.86" height="15.86" transform="" stroke="none" fill="rgb(248,118,109)" stroke-dasharray="none" stroke-width="1.07" stroke-linejoin="miter" stroke-opacity="0" fill-opacity="1"/>
                            </g>
                          </g>
                          <g id="layout::guide-box.7-9-7-9::GRID.VP.550::guide-box.7-9-7-9::guides.3-3-3-3::GRID.VP.549::guides.3-3-3-3::key-4-1-bg.5-2-5-2.1" class="viewport"/>
                          <g id="layout::guide-box.7-9-7-9::GRID.VP.550::guide-box.7-9-7-9::guides.3-3-3-3::GRID.VP.549::guides.3-3-3-3::key-4-1-1.5-2-5-2.1" class="viewport">
                            <g id="key-4-1-1.5-2-5-2.1" class="forcedgrob gTableChild rect grob gDesc">
                              <rect id="key-4-1-1.5-2-5-2.1.1" x="416.12" y="233.97" width="15.86" height="15.86" transform="" stroke="none" fill="rgb(0,186,56)" stroke-dasharray="none" stroke-width="1.07" stroke-linejoin="miter" stroke-opacity="0" fill-opacity="1"/>
                            </g>
                          </g>
                          <g id="layout::guide-box.7-9-7-9::GRID.VP.550::guide-box.7-9-7-9::guides.3-3-3-3::GRID.VP.549::guides.3-3-3-3::key-5-1-bg.6-2-6-2.1" class="viewport"/>
                          <g id="layout::guide-box.7-9-7-9::GRID.VP.550::guide-box.7-9-7-9::guides.3-3-3-3::GRID.VP.549::guides.3-3-3-3::key-5-1-1.6-2-6-2.1" class="viewport">
                            <g id="key-5-1-1.6-2-6-2.1" class="forcedgrob gTableChild rect grob gDesc">
                              <rect id="key-5-1-1.6-2-6-2.1.1" x="416.12" y="216.69" width="15.86" height="15.86" transform="" stroke="none" fill="rgb(97,156,255)" stroke-dasharray="none" stroke-width="1.07" stroke-linejoin="miter" stroke-opacity="0" fill-opacity="1"/>
                            </g>
                          </g>
                          <g id="layout::guide-box.7-9-7-9::GRID.VP.550::guide-box.7-9-7-9::guides.3-3-3-3::GRID.VP.549::guides.3-3-3-3::label-3-3.4-4-4-4.1" class="viewport">
                            <g id="layout::guide-box.7-9-7-9::GRID.VP.550::guide-box.7-9-7-9::guides.3-3-3-3::GRID.VP.549::guides.3-3-3-3::label-3-3.4-4-4-4::GRID.VP.546.1" class="viewport">
                              <g id="label-3-3.4-4-4-4.1" class="forcedgrob gTableChild gTree grob gDesc">
                                <g id="layout::guide-box.7-9-7-9::GRID.VP.550::guide-box.7-9-7-9::guides.3-3-3-3::GRID.VP.549::guides.3-3-3-3::label-3-3.4-4-4-4::GRID.VP.546::GRID.VP.540.1" font-size="8.8" stroke="rgb(0,0,0)" font-family="Helvetica, Arial, FreeSans, Liberation Sans, Nimbus Sans L, sans-serif" stroke-opacity="1" font-weight="normal" font-style="normal" class="viewport">
                                  <g id="layout::guide-box.7-9-7-9::GRID.VP.550::guide-box.7-9-7-9::guides.3-3-3-3::GRID.VP.549::guides.3-3-3-3::label-3-3.4-4-4-4::GRID.VP.546::GRID.VP.540::GRID.VP.541.1" class="viewport">
                                    <g id="guide.label.titleGrob.2347.1" class="titleGrob gTree grob gDesc">
                                      <g id="GRID.text.2345.1" class="text grob gDesc">
                                        <g id="GRID.text.2345.1.1" transform="translate(438.17, 259.18)" stroke-width="0.1">
                                          <g id="GRID.text.2345.1.1.scale" transform="scale(1, -1)">
                                            <text x="0" y="0" id="GRID.text.2345.1.1.text" text-anchor="start" font-size="8.8" stroke="rgb(0,0,0)" font-family="Helvetica, Arial, FreeSans, Liberation Sans, Nimbus Sans L, sans-serif" fill="rgb(0,0,0)" stroke-opacity="1" fill-opacity="1" font-weight="normal" font-style="normal">
                                              <tspan id="GRID.text.2345.1.1.tspan.1" dy="3.23" x="0">Linux (2)</tspan>
                                            </text>
                                          </g>
                                        </g>
                                      </g>
                                    </g>
                                  </g>
                                </g>
                              </g>
                            </g>
                          </g>
                          <g id="layout::guide-box.7-9-7-9::GRID.VP.550::guide-box.7-9-7-9::guides.3-3-3-3::GRID.VP.549::guides.3-3-3-3::label-4-3.5-4-5-4.1" class="viewport">
                            <g id="layout::guide-box.7-9-7-9::GRID.VP.550::guide-box.7-9-7-9::guides.3-3-3-3::GRID.VP.549::guides.3-3-3-3::label-4-3.5-4-5-4::GRID.VP.547.1" class="viewport">
                              <g id="label-4-3.5-4-5-4.1" class="forcedgrob gTableChild gTree grob gDesc">
                                <g id="layout::guide-box.7-9-7-9::GRID.VP.550::guide-box.7-9-7-9::guides.3-3-3-3::GRID.VP.549::guides.3-3-3-3::label-4-3.5-4-5-4::GRID.VP.547::GRID.VP.542.1" font-size="8.8" stroke="rgb(0,0,0)" font-family="Helvetica, Arial, FreeSans, Liberation Sans, Nimbus Sans L, sans-serif" stroke-opacity="1" font-weight="normal" font-style="normal" class="viewport">
                                  <g id="layout::guide-box.7-9-7-9::GRID.VP.550::guide-box.7-9-7-9::guides.3-3-3-3::GRID.VP.549::guides.3-3-3-3::label-4-3.5-4-5-4::GRID.VP.547::GRID.VP.542::GRID.VP.543.1" class="viewport">
                                    <g id="guide.label.titleGrob.2350.1" class="titleGrob gTree grob gDesc">
                                      <g id="GRID.text.2348.1" class="text grob gDesc">
                                        <g id="GRID.text.2348.1.1" transform="translate(438.17, 241.9)" stroke-width="0.1">
                                          <g id="GRID.text.2348.1.1.scale" transform="scale(1, -1)">
                                            <text x="0" y="0" id="GRID.text.2348.1.1.text" text-anchor="start" font-size="8.8" stroke="rgb(0,0,0)" font-family="Helvetica, Arial, FreeSans, Liberation Sans, Nimbus Sans L, sans-serif" fill="rgb(0,0,0)" stroke-opacity="1" fill-opacity="1" font-weight="normal" font-style="normal">
                                              <tspan id="GRID.text.2348.1.1.tspan.1" dy="3.23" x="0">MacOS (4)</tspan>
                                            </text>
                                          </g>
                                        </g>
                                      </g>
                                    </g>
                                  </g>
                                </g>
                              </g>
                            </g>
                          </g>
                          <g id="layout::guide-box.7-9-7-9::GRID.VP.550::guide-box.7-9-7-9::guides.3-3-3-3::GRID.VP.549::guides.3-3-3-3::label-5-3.6-4-6-4.1" class="viewport">
                            <g id="layout::guide-box.7-9-7-9::GRID.VP.550::guide-box.7-9-7-9::guides.3-3-3-3::GRID.VP.549::guides.3-3-3-3::label-5-3.6-4-6-4::GRID.VP.548.1" class="viewport">
                              <g id="label-5-3.6-4-6-4.1" class="forcedgrob gTableChild gTree grob gDesc">
                                <g id="layout::guide-box.7-9-7-9::GRID.VP.550::guide-box.7-9-7-9::guides.3-3-3-3::GRID.VP.549::guides.3-3-3-3::label-5-3.6-4-6-4::GRID.VP.548::GRID.VP.544.1" font-size="8.8" stroke="rgb(0,0,0)" font-family="Helvetica, Arial, FreeSans, Liberation Sans, Nimbus Sans L, sans-serif" stroke-opacity="1" font-weight="normal" font-style="normal" class="viewport">
                                  <g id="layout::guide-box.7-9-7-9::GRID.VP.550::guide-box.7-9-7-9::guides.3-3-3-3::GRID.VP.549::guides.3-3-3-3::label-5-3.6-4-6-4::GRID.VP.548::GRID.VP.544::GRID.VP.545.1" class="viewport">
                                    <g id="guide.label.titleGrob.2353.1" class="titleGrob gTree grob gDesc">
                                      <g id="GRID.text.2351.1" class="text grob gDesc">
                                        <g id="GRID.text.2351.1.1" transform="translate(438.17, 224.62)" stroke-width="0.1">
                                          <g id="GRID.text.2351.1.1.scale" transform="scale(1, -1)">
                                            <text x="0" y="0" id="GRID.text.2351.1.1.text" text-anchor="start" font-size="8.8" stroke="rgb(0,0,0)" font-family="Helvetica, Arial, FreeSans, Liberation Sans, Nimbus Sans L, sans-serif" fill="rgb(0,0,0)" stroke-opacity="1" fill-opacity="1" font-weight="normal" font-style="normal">
                                              <tspan id="GRID.text.2351.1.1.tspan.1" dy="3.23" x="0">Windows (44)</tspan>
                                            </text>
                                          </g>
                                        </g>
                                      </g>
                                    </g>
                                  </g>
                                </g>
                              </g>
                            </g>
                          </g>
                        </g>
                      </g>
                    </g>
                  </g>
                </g>
              </g>
            </g>
          </g>
          <g id="layout::subtitle.4-5-4-5.1" class="viewport"/>
          <g id="layout::title.3-5-3-5.1" class="viewport">
            <g id="layout::title.3-5-3-5::GRID.VP.551.1" font-size="13.2" stroke="rgb(102,102,102)" font-family="Helvetica, Arial, FreeSans, Liberation Sans, Nimbus Sans L, sans-serif" stroke-opacity="1" font-weight="normal" font-style="normal" class="viewport">
              <g id="layout::title.3-5-3-5::GRID.VP.551::GRID.VP.552.1" class="viewport">
                <g id="title.3-5-3-5.1" class="forcedgrob gTableChild titleGrob gTree grob gDesc">
                  <g id="GRID.text.2365.1" class="text grob gDesc">
                    <g id="GRID.text.2365.1.1" transform="translate(203.59, 457.47)" stroke-width="0.1">
                      <g id="GRID.text.2365.1.1.scale" transform="scale(1, -1)">
                        <text x="0" y="0" id="GRID.text.2365.1.1.text" text-anchor="middle" font-size="13.2" stroke="rgb(102,102,102)" font-family="Helvetica, Arial, FreeSans, Liberation Sans, Nimbus Sans L, sans-serif" fill="rgb(102,102,102)" stroke-opacity="1" fill-opacity="1" font-weight="normal" font-style="normal">
                          <tspan id="GRID.text.2365.1.1.tspan.1" dy="9.33" x="0">anagrafica os</tspan>
                        </text>
                      </g>
                    </g>
                  </g>
                </g>
              </g>
            </g>
          </g>
          <g id="layout::caption.10-5-10-5.1" class="viewport"/>
          <g id="layout::tag.2-2-2-2.1" class="viewport"/>
        </g>
      </g>
    </g>
  </g>
</svg>