<?xml version="1.0" encoding="UTF-8"?>
<svg xmlns="http://www.w3.org/2000/svg" xmlns:xlink="http://www.w3.org/1999/xlink" width="504px" height="504px" viewBox="0 0 504 504" version="1.1">
  <metadata xmlns:gridsvg="http://www.stat.auckland.ac.nz/~paul/R/gridSVG/">
    <gridsvg:generator name="gridSVG" version="1.6-0" time="2019-01-18 19:07:12"/>
    <gridsvg:argument name="name" value="./latest_informaggio_csv/anziani/risultati/svg/anagrafica-risoluzioneproblemi.svg"/>
    <gridsvg:argument name="exportCoords" value="none"/>
    <gridsvg:argument name="exportMappings" value="none"/>
    <gridsvg:argument name="exportJS" value="none"/>
    <gridsvg:argument name="res" value="72"/>
    <gridsvg:argument name="prefix" value=""/>
    <gridsvg:argument name="addClasses" value="TRUE"/>
    <gridsvg:argument name="indent" value="TRUE"/>
    <gridsvg:argument name="htmlWrapper" value="FALSE"/>
    <gridsvg:argument name="usePaths" value="vpPaths"/>
    <gridsvg:argument name="uniqueNames" value="TRUE"/>
    <gridsvg:separator name="id.sep" value="."/>
    <gridsvg:separator name="gPath.sep" value="::"/>
    <gridsvg:separator name="vpPath.sep" value="::"/>
  </metadata>
  <g transform="translate(0, 504) scale(1, -1)">
    <g id="gridSVG" fill="none" stroke="rgb(0,0,0)" stroke-dasharray="none" stroke-width="0.75" font-size="12" font-family="Helvetica, Arial, FreeSans, Liberation Sans, Nimbus Sans L, sans-serif" opacity="1" stroke-linecap="round" stroke-linejoin="round" stroke-miterlimit="10" stroke-opacity="1" fill-opacity="0" font-weight="normal" font-style="normal">
      <g id="layout.1" class="viewport">
        <g id="layout.2" class="forcedgrob gtable gTree grob gDesc">
          <defs>
            <clipPath id="layout::background.1-11-12-1.1.clipPath">
              <rect x="0" y="38.42" width="504" height="427.16" fill="none" stroke="none"/>
            </clipPath>
          </defs>
          <g id="layout::background.1-11-12-1.1" clip-path="url(#layout::background.1-11-12-1.1.clipPath)" class="viewport">
            <g id="background.1-11-12-1.1" class="forcedgrob gTableChild rect grob gDesc">
              <rect id="background.1-11-12-1.1.1" x="0" y="38.42" width="504" height="427.16" transform="" stroke-width="1.07" stroke="rgb(255,255,255)" fill="rgb(255,255,255)" stroke-dasharray="none" stroke-opacity="1" fill-opacity="1"/>
            </g>
          </g>
          <defs>
            <clipPath id="layout::panel.7-5-7-5.1.clipPath">
              <rect x="8.22" y="46.64" width="396.01" height="396.01" fill="none" stroke="none"/>
            </clipPath>
          </defs>
          <g id="layout::panel.7-5-7-5.1" clip-path="url(#layout::panel.7-5-7-5.1.clipPath)" class="viewport">
            <g id="panel.7-5-7-5.1" class="forcedgrob gTableChild gTree grob gDesc">
              <g id="grill.gTree.2657.1" class="gTree grob gDesc">
                <g id="panel.background..rect.2653.1" class="rect grob gDesc">
                  <rect id="panel.background..rect.2653.1.1" x="8.22" y="46.64" width="396.01" height="396.01" transform="" stroke-width="1.07" stroke="none" fill="rgb(255,255,255)" stroke-dasharray="none" stroke-opacity="0" fill-opacity="1"/>
                </g>
              </g>
              <g id="bar.gTree.2646.1" class="gTree grob gDesc">
                <g id="geom_polygon.polygon.2636.1" class="polygon grob gDesc">
                  <polygon id="geom_polygon.polygon.2636.1.1" points="206.22,244.64 207.58,239.35 208.94,234.06 210.3,228.77 211.66,223.48 213.01,218.19 214.37,212.9 215.73,207.61 217.09,202.32 218.45,197.03 219.81,191.74 221.16,186.45 222.52,181.16 223.88,175.87 225.24,170.58 226.6,165.28 227.96,159.99 229.32,154.7 230.67,149.41 232.03,144.12 233.39,138.83 234.75,133.54 236.11,128.25 237.47,122.96 238.82,117.67 240.18,112.38 241.54,107.09 242.9,101.8 244.26,96.51 245.62,91.22 250.81,92.64 255.95,94.25 261.03,96.03 266.06,97.98 271.01,100.09 275.88,102.38 280.68,104.83 285.39,107.44 290.01,110.21 294.53,113.14 298.95,116.22 303.26,119.44 307.46,122.82 311.55,126.33 315.51,129.98 319.34,133.76 323.05,137.67 326.62,141.7 330.05,145.85 333.33,150.12 336.47,154.5 339.46,158.98 342.3,163.56 344.98,168.23 347.49,172.99 349.85,177.83 352.04,182.76 354.06,187.75 355.9,192.81 357.58,197.93 359.08,203.1 360.4,208.32 361.55,213.58 362.52,218.88 363.3,224.21 363.91,229.56 364.33,234.93 364.57,240.31 364.62,245.7 364.49,251.08 364.18,256.46 363.69,261.82 363.02,267.17 362.16,272.48 361.12,277.77 359.91,283.01 358.51,288.22 356.94,293.37 355.2,298.47 353.29,303.5 351.2,308.46 348.95,313.36 346.53,318.17 343.95,322.9 341.21,327.53 338.31,332.07 335.26,336.51 332.06,340.85 328.72,345.07 325.24,349.18 321.61,353.16 317.86,357.02 313.97,360.75 309.96,364.35 305.83,367.81 301.59,371.12 297.23,374.29 292.77,377.31 288.21,380.18 283.56,382.88 278.81,385.43 273.99,387.82 269.08,390.04 264.1,392.09 259.05,393.98 253.95,395.69 248.78,397.22 243.57,398.58 238.32,399.76 233.02,400.76 227.7,401.58 222.35,402.22 216.99,402.68 211.61,402.95 206.22,403.05 206.22,397.58 206.22,392.12 206.22,386.66 206.22,381.2 206.22,375.74 206.22,370.27 206.22,364.81 206.22,359.35 206.22,353.89 206.22,348.42 206.22,342.96 206.22,337.5 206.22,332.04 206.22,326.58 206.22,321.11 206.22,315.65 206.22,310.19 206.22,304.73 206.22,299.26 206.22,293.8 206.22,288.34 206.22,282.88 206.22,277.42 206.22,271.95 206.22,266.49 206.22,261.03 206.22,255.57 206.22,250.11 206.22,244.64 206.22,244.64" stroke="none" fill="rgb(231,107,243)" stroke-width="1.07" stroke-dasharray="none" stroke-opacity="0" fill-opacity="1"/>
                </g>
                <g id="geom_polygon.polygon.2638.1" class="polygon grob gDesc">
                  <polygon id="geom_polygon.polygon.2638.1.1" points="206.22,244.64 201.03,246.33 195.83,248.02 190.64,249.71 185.44,251.39 180.25,253.08 175.05,254.77 169.86,256.46 164.66,258.15 159.47,259.83 154.27,261.52 149.08,263.21 143.88,264.9 138.69,266.59 133.5,268.27 128.3,269.96 123.11,271.65 117.91,273.34 112.72,275.03 107.52,276.71 102.33,278.4 97.13,280.09 91.94,281.78 86.74,283.46 81.55,285.15 76.35,286.84 71.16,288.53 65.96,290.22 60.77,291.9 55.57,293.59 54,288.46 52.6,283.27 51.38,278.04 50.34,272.77 49.47,267.47 48.79,262.14 48.29,256.8 47.97,251.43 47.83,246.06 47.87,240.69 48.09,235.33 48.5,229.97 49.09,224.63 49.86,219.32 50.81,214.03 51.93,208.78 53.24,203.57 54.72,198.41 56.37,193.3 58.2,188.25 60.2,183.26 62.36,178.34 64.69,173.51 67.19,168.75 69.84,164.08 72.65,159.5 75.61,155.02 78.73,150.64 81.99,146.38 85.39,142.22 88.93,138.18 92.61,134.27 96.41,130.48 100.35,126.82 104.4,123.3 108.58,119.92 112.86,116.68 117.25,113.59 121.75,110.65 126.34,107.86 131.02,105.23 135.79,102.76 140.64,100.45 145.57,98.31 150.56,96.34 155.62,94.54 160.74,92.91 165.91,91.46 171.13,90.18 176.39,89.08 181.68,88.15 187,87.41 192.34,86.85 197.7,86.47 203.06,86.27 208.43,86.26 213.8,86.42 219.16,86.77 224.51,87.3 229.83,88.01 235.13,88.9 240.39,89.97 245.62,91.22 244.26,96.51 242.9,101.8 241.54,107.09 240.18,112.38 238.82,117.67 237.47,122.96 236.11,128.25 234.75,133.54 233.39,138.83 232.03,144.12 230.67,149.41 229.32,154.7 227.96,159.99 226.6,165.28 225.24,170.58 223.88,175.87 222.52,181.16 221.16,186.45 219.81,191.74 218.45,197.03 217.09,202.32 215.73,207.61 214.37,212.9 213.01,218.19 211.66,223.48 210.3,228.77 208.94,234.06 207.58,239.35 206.22,244.64 206.22,244.64" stroke="none" fill="rgb(0,176,246)" stroke-width="1.07" stroke-dasharray="none" stroke-opacity="0" fill-opacity="1"/>
                </g>
                <g id="geom_polygon.polygon.2640.1" class="polygon grob gDesc">
                  <polygon id="geom_polygon.polygon.2640.1.1" points="206.22,244.64 202.48,248.62 198.74,252.61 195.01,256.59 191.27,260.57 187.53,264.55 183.79,268.53 180.05,272.52 176.31,276.5 172.57,280.48 168.83,284.46 165.09,288.44 161.35,292.42 157.61,296.41 153.88,300.39 150.14,304.37 146.4,308.35 142.66,312.33 138.92,316.31 135.18,320.3 131.44,324.28 127.7,328.26 123.96,332.24 120.22,336.22 116.48,340.21 112.74,344.19 109.01,348.17 105.27,352.15 101.53,356.13 97.79,360.11 93.71,356.15 89.78,352.04 86,347.79 82.38,343.41 78.91,338.9 75.61,334.27 72.48,329.52 69.52,324.66 66.73,319.71 64.13,314.65 61.71,309.5 59.47,304.27 57.43,298.97 55.57,293.59 60.77,291.9 65.96,290.22 71.16,288.53 76.35,286.84 81.55,285.15 86.74,283.46 91.94,281.78 97.13,280.09 102.33,278.4 107.52,276.71 112.72,275.03 117.91,273.34 123.11,271.65 128.3,269.96 133.5,268.27 138.69,266.59 143.88,264.9 149.08,263.21 154.27,261.52 159.47,259.83 164.66,258.15 169.86,256.46 175.05,254.77 180.25,253.08 185.44,251.39 190.64,249.71 195.83,248.02 201.03,246.33 206.22,244.64 206.22,244.64" stroke="none" fill="rgb(0,191,125)" stroke-width="1.07" stroke-dasharray="none" stroke-opacity="0" fill-opacity="1"/>
                </g>
                <g id="geom_polygon.polygon.2642.1" class="polygon grob gDesc">
                  <polygon id="geom_polygon.polygon.2642.1.1" points="206.22,244.64 204.86,249.93 203.51,255.22 202.15,260.51 200.79,265.81 199.43,271.1 198.07,276.39 196.71,281.68 195.36,286.97 194,292.26 192.64,297.55 191.28,302.84 189.92,308.13 188.56,313.42 187.21,318.71 185.85,324 184.49,329.29 183.13,334.58 181.77,339.87 180.41,345.16 179.06,350.45 177.7,355.74 176.34,361.04 174.98,366.33 173.62,371.62 172.26,376.91 170.9,382.2 169.55,387.49 168.19,392.78 166.83,398.07 161.35,396.56 155.92,394.85 150.56,392.95 145.28,390.85 140.07,388.57 134.94,386.1 129.91,383.45 124.98,380.62 120.15,377.62 115.43,374.44 110.83,371.1 106.35,367.6 102,363.93 97.79,360.11 101.53,356.13 105.27,352.15 109.01,348.17 112.74,344.19 116.48,340.21 120.22,336.22 123.96,332.24 127.7,328.26 131.44,324.28 135.18,320.3 138.92,316.31 142.66,312.33 146.4,308.35 150.14,304.37 153.88,300.39 157.61,296.41 161.35,292.42 165.09,288.44 168.83,284.46 172.57,280.48 176.31,276.5 180.05,272.52 183.79,268.53 187.53,264.55 191.27,260.57 195.01,256.59 198.74,252.61 202.48,248.62 206.22,244.64 206.22,244.64" stroke="none" fill="rgb(163,165,0)" stroke-width="1.07" stroke-dasharray="none" stroke-opacity="0" fill-opacity="1"/>
                </g>
                <g id="geom_polygon.polygon.2644.1" class="polygon grob gDesc">
                  <polygon id="geom_polygon.polygon.2644.1.1" points="206.22,244.64 206.22,250.11 206.22,255.57 206.22,261.03 206.22,266.49 206.22,271.95 206.22,277.42 206.22,282.88 206.22,288.34 206.22,293.8 206.22,299.26 206.22,304.73 206.22,310.19 206.22,315.65 206.22,321.11 206.22,326.58 206.22,332.04 206.22,337.5 206.22,342.96 206.22,348.42 206.22,353.89 206.22,359.35 206.22,364.81 206.22,370.27 206.22,375.74 206.22,381.2 206.22,386.66 206.22,392.12 206.22,397.58 206.22,403.05 200.54,402.94 194.86,402.64 189.19,402.13 183.55,401.42 177.94,400.5 172.36,399.38 166.83,398.07 168.19,392.78 169.55,387.49 170.9,382.2 172.26,376.91 173.62,371.62 174.98,366.33 176.34,361.04 177.7,355.74 179.06,350.45 180.41,345.16 181.77,339.87 183.13,334.58 184.49,329.29 185.85,324 187.21,318.71 188.56,313.42 189.92,308.13 191.28,302.84 192.64,297.55 194,292.26 195.36,286.97 196.71,281.68 198.07,276.39 199.43,271.1 200.79,265.81 202.15,260.51 203.51,255.22 204.86,249.93 206.22,244.64 206.22,244.64" stroke="none" fill="rgb(248,118,109)" stroke-width="1.07" stroke-dasharray="none" stroke-opacity="0" fill-opacity="1"/>
                </g>
              </g>
              <g id="GRID.text.2647.1" class="text grob gDesc">
                <g id="GRID.text.2647.1.1" transform="translate(284.8, 254.57)" stroke-width="0.1">
                  <g id="GRID.text.2647.1.1.scale" transform="scale(1, -1)">
                    <text x="0" y="0" id="GRID.text.2647.1.1.text" text-anchor="middle" stroke="rgb(0,0,0)" font-size="11.04" font-family="Helvetica, Arial, FreeSans, Liberation Sans, Nimbus Sans L, sans-serif" fill="rgb(0,0,0)" stroke-opacity="1" fill-opacity="1" font-weight="normal" font-style="normal">
                      <tspan id="GRID.text.2647.1.1.tspan.1" dy="3.95" x="0">23</tspan>
                    </text>
                  </g>
                </g>
                <g id="GRID.text.2647.1.2" transform="translate(148.49, 190.43)" stroke-width="0.1">
                  <g id="GRID.text.2647.1.2.scale" transform="scale(1, -1)">
                    <text x="0" y="0" id="GRID.text.2647.1.2.text" text-anchor="middle" stroke="rgb(0,0,0)" font-size="11.04" font-family="Helvetica, Arial, FreeSans, Liberation Sans, Nimbus Sans L, sans-serif" fill="rgb(0,0,0)" stroke-opacity="1" fill-opacity="1" font-weight="normal" font-style="normal">
                      <tspan id="GRID.text.2647.1.2.tspan.1" dy="3.95" x="0">17</tspan>
                    </text>
                  </g>
                </g>
                <g id="GRID.text.2647.1.3" transform="translate(139.35, 287.08)" stroke-width="0.1">
                  <g id="GRID.text.2647.1.3.scale" transform="scale(1, -1)">
                    <text x="0" y="0" id="GRID.text.2647.1.3.text" text-anchor="middle" stroke="rgb(0,0,0)" font-size="11.04" font-family="Helvetica, Arial, FreeSans, Liberation Sans, Nimbus Sans L, sans-serif" fill="rgb(0,0,0)" stroke-opacity="1" fill-opacity="1" font-weight="normal" font-style="normal">
                      <tspan id="GRID.text.2647.1.3.tspan.1" dy="3.95" x="0">4</tspan>
                    </text>
                  </g>
                </g>
                <g id="GRID.text.2647.1.4" transform="translate(168.07, 314.05)" stroke-width="0.1">
                  <g id="GRID.text.2647.1.4.scale" transform="scale(1, -1)">
                    <text x="0" y="0" id="GRID.text.2647.1.4.text" text-anchor="middle" stroke="rgb(0,0,0)" font-size="11.04" font-family="Helvetica, Arial, FreeSans, Liberation Sans, Nimbus Sans L, sans-serif" fill="rgb(0,0,0)" stroke-opacity="1" fill-opacity="1" font-weight="normal" font-style="normal">
                      <tspan id="GRID.text.2647.1.4.tspan.1" dy="3.95" x="0">4</tspan>
                    </text>
                  </g>
                </g>
                <g id="GRID.text.2647.1.5" transform="translate(196.3, 323.22)" stroke-width="0.1">
                  <g id="GRID.text.2647.1.5.scale" transform="scale(1, -1)">
                    <text x="0" y="0" id="GRID.text.2647.1.5.text" text-anchor="middle" stroke="rgb(0,0,0)" font-size="11.04" font-family="Helvetica, Arial, FreeSans, Liberation Sans, Nimbus Sans L, sans-serif" fill="rgb(0,0,0)" stroke-opacity="1" fill-opacity="1" font-weight="normal" font-style="normal">
                      <tspan id="GRID.text.2647.1.5.tspan.1" dy="3.95" x="0">2</tspan>
                    </text>
                  </g>
                </g>
              </g>
              <g id="GRID.gTree.2648.1" class="gTree grob gDesc"/>
            </g>
          </g>
          <g id="layout::spacer.8-6-8-6.1" class="viewport"/>
          <g id="layout::spacer.8-4-8-4.1" class="viewport"/>
          <g id="layout::spacer.6-6-6-6.1" class="viewport"/>
          <g id="layout::spacer.6-4-6-4.1" class="viewport"/>
          <g id="layout::axis-t.6-5-6-5.1" class="viewport"/>
          <g id="layout::axis-l.7-4-7-4.1" class="viewport">
            <g id="layout::axis-l.7-4-7-4::GRID.VP.614.1" class="viewport">
              <g id="axis-l.7-4-7-4.1" class="forcedgrob gTableChild absoluteGrob gTree grob gDesc">
                <g id="layout::axis-l.7-4-7-4::GRID.VP.614::axis.1" class="viewport">
                  <g id="axis.1" class="forcedgrob gtable gTree grob gDesc">
                    <g id="layout::axis-l.7-4-7-4::GRID.VP.614::axis::axis.1-1-1-1.1" class="viewport"/>
                    <g id="layout::axis-l.7-4-7-4::GRID.VP.614::axis::axis.1-2-1-2.1" class="viewport"/>
                  </g>
                </g>
              </g>
            </g>
          </g>
          <g id="layout::axis-r.7-6-7-6.1" class="viewport"/>
          <g id="layout::axis-b.8-5-8-5.1" class="viewport">
            <g id="layout::axis-b.8-5-8-5::GRID.VP.613.1" class="viewport">
              <g id="axis-b.8-5-8-5.1" class="forcedgrob gTableChild absoluteGrob gTree grob gDesc">
                <g id="layout::axis-b.8-5-8-5::GRID.VP.613::axis.1" class="viewport">
                  <g id="axis.2" class="forcedgrob gtable gTree grob gDesc">
                    <g id="layout::axis-b.8-5-8-5::GRID.VP.613::axis::axis.1-1-1-1.1" class="viewport"/>
                    <g id="layout::axis-b.8-5-8-5::GRID.VP.613::axis::axis.2-1-2-1.1" class="viewport"/>
                  </g>
                </g>
              </g>
            </g>
          </g>
          <g id="layout::xlab-t.5-5-5-5.1" class="viewport"/>
          <g id="layout::xlab-b.9-5-9-5.1" class="viewport"/>
          <g id="layout::ylab-l.7-3-7-3.1" class="viewport"/>
          <g id="layout::ylab-r.7-7-7-7.1" class="viewport"/>
          <g id="layout::guide-box.7-9-7-9.1" class="viewport">
            <g id="layout::guide-box.7-9-7-9::GRID.VP.631.1" class="viewport">
              <g id="layout::guide-box.7-9-7-9::GRID.VP.631::guide-box.7-9-7-9.1" class="viewport">
                <g id="guide-box.7-9-7-9.1" class="forcedgrob gTableChild gtable gTree grob gDesc">
                  <g id="layout::guide-box.7-9-7-9::GRID.VP.631::guide-box.7-9-7-9::legend.box.background.2-4-4-2.1" class="viewport"/>
                  <g id="layout::guide-box.7-9-7-9::GRID.VP.631::guide-box.7-9-7-9::guides.3-3-3-3.1" class="viewport">
                    <g id="layout::guide-box.7-9-7-9::GRID.VP.631::guide-box.7-9-7-9::guides.3-3-3-3::GRID.VP.630.1" class="viewport">
                      <g id="layout::guide-box.7-9-7-9::GRID.VP.631::guide-box.7-9-7-9::guides.3-3-3-3::GRID.VP.630::guides.3-3-3-3.1" class="viewport">
                        <g id="guides.3-3-3-3.1" class="forcedgrob gTableChild gtable gTree grob gDesc">
                          <g id="layout::guide-box.7-9-7-9::GRID.VP.631::guide-box.7-9-7-9::guides.3-3-3-3::GRID.VP.630::guides.3-3-3-3::background.1-6-9-1.1" class="viewport">
                            <g id="background.1-6-9-1.1" class="forcedgrob gTableChild rect grob gDesc">
                              <rect id="background.1-6-9-1.1.1" x="415.19" y="193.22" width="83.34" height="102.84" transform="" stroke-width="1.07" stroke="none" fill="rgb(255,255,255)" stroke-dasharray="none" stroke-opacity="0" fill-opacity="1"/>
                            </g>
                          </g>
                          <g id="layout::guide-box.7-9-7-9::GRID.VP.631::guide-box.7-9-7-9::guides.3-3-3-3::GRID.VP.630::guides.3-3-3-3::title.2-5-2-2.1" class="viewport"/>
                          <g id="layout::guide-box.7-9-7-9::GRID.VP.631::guide-box.7-9-7-9::guides.3-3-3-3::GRID.VP.630::guides.3-3-3-3::key-3-1-bg.4-2-4-2.1" class="viewport"/>
                          <g id="layout::guide-box.7-9-7-9::GRID.VP.631::guide-box.7-9-7-9::guides.3-3-3-3::GRID.VP.630::guides.3-3-3-3::key-3-1-1.4-2-4-2.1" class="viewport">
                            <g id="key-3-1-1.4-2-4-2.1" class="forcedgrob gTableChild rect grob gDesc">
                              <rect id="key-3-1-1.4-2-4-2.1.1" x="421.37" y="268.53" width="15.86" height="15.86" transform="" stroke="none" fill="rgb(248,118,109)" stroke-dasharray="none" stroke-width="1.07" stroke-linejoin="miter" stroke-opacity="0" fill-opacity="1"/>
                            </g>
                          </g>
                          <g id="layout::guide-box.7-9-7-9::GRID.VP.631::guide-box.7-9-7-9::guides.3-3-3-3::GRID.VP.630::guides.3-3-3-3::key-4-1-bg.5-2-5-2.1" class="viewport"/>
                          <g id="layout::guide-box.7-9-7-9::GRID.VP.631::guide-box.7-9-7-9::guides.3-3-3-3::GRID.VP.630::guides.3-3-3-3::key-4-1-1.5-2-5-2.1" class="viewport">
                            <g id="key-4-1-1.5-2-5-2.1" class="forcedgrob gTableChild rect grob gDesc">
                              <rect id="key-4-1-1.5-2-5-2.1.1" x="421.37" y="251.25" width="15.86" height="15.86" transform="" stroke="none" fill="rgb(163,165,0)" stroke-dasharray="none" stroke-width="1.07" stroke-linejoin="miter" stroke-opacity="0" fill-opacity="1"/>
                            </g>
                          </g>
                          <g id="layout::guide-box.7-9-7-9::GRID.VP.631::guide-box.7-9-7-9::guides.3-3-3-3::GRID.VP.630::guides.3-3-3-3::key-5-1-bg.6-2-6-2.1" class="viewport"/>
                          <g id="layout::guide-box.7-9-7-9::GRID.VP.631::guide-box.7-9-7-9::guides.3-3-3-3::GRID.VP.630::guides.3-3-3-3::key-5-1-1.6-2-6-2.1" class="viewport">
                            <g id="key-5-1-1.6-2-6-2.1" class="forcedgrob gTableChild rect grob gDesc">
                              <rect id="key-5-1-1.6-2-6-2.1.1" x="421.37" y="233.97" width="15.86" height="15.86" transform="" stroke="none" fill="rgb(0,191,125)" stroke-dasharray="none" stroke-width="1.07" stroke-linejoin="miter" stroke-opacity="0" fill-opacity="1"/>
                            </g>
                          </g>
                          <g id="layout::guide-box.7-9-7-9::GRID.VP.631::guide-box.7-9-7-9::guides.3-3-3-3::GRID.VP.630::guides.3-3-3-3::key-6-1-bg.7-2-7-2.1" class="viewport"/>
                          <g id="layout::guide-box.7-9-7-9::GRID.VP.631::guide-box.7-9-7-9::guides.3-3-3-3::GRID.VP.630::guides.3-3-3-3::key-6-1-1.7-2-7-2.1" class="viewport">
                            <g id="key-6-1-1.7-2-7-2.1" class="forcedgrob gTableChild rect grob gDesc">
                              <rect id="key-6-1-1.7-2-7-2.1.1" x="421.37" y="216.69" width="15.86" height="15.86" transform="" stroke="none" fill="rgb(0,176,246)" stroke-dasharray="none" stroke-width="1.07" stroke-linejoin="miter" stroke-opacity="0" fill-opacity="1"/>
                            </g>
                          </g>
                          <g id="layout::guide-box.7-9-7-9::GRID.VP.631::guide-box.7-9-7-9::guides.3-3-3-3::GRID.VP.630::guides.3-3-3-3::key-7-1-bg.8-2-8-2.1" class="viewport"/>
                          <g id="layout::guide-box.7-9-7-9::GRID.VP.631::guide-box.7-9-7-9::guides.3-3-3-3::GRID.VP.630::guides.3-3-3-3::key-7-1-1.8-2-8-2.1" class="viewport">
                            <g id="key-7-1-1.8-2-8-2.1" class="forcedgrob gTableChild rect grob gDesc">
                              <rect id="key-7-1-1.8-2-8-2.1.1" x="421.37" y="199.41" width="15.86" height="15.86" transform="" stroke="none" fill="rgb(231,107,243)" stroke-dasharray="none" stroke-width="1.07" stroke-linejoin="miter" stroke-opacity="0" fill-opacity="1"/>
                            </g>
                          </g>
                          <g id="layout::guide-box.7-9-7-9::GRID.VP.631::guide-box.7-9-7-9::guides.3-3-3-3::GRID.VP.630::guides.3-3-3-3::label-3-3.4-4-4-4.1" class="viewport">
                            <g id="layout::guide-box.7-9-7-9::GRID.VP.631::guide-box.7-9-7-9::guides.3-3-3-3::GRID.VP.630::guides.3-3-3-3::label-3-3.4-4-4-4::GRID.VP.625.1" class="viewport">
                              <g id="label-3-3.4-4-4-4.1" class="forcedgrob gTableChild gTree grob gDesc">
                                <g id="layout::guide-box.7-9-7-9::GRID.VP.631::guide-box.7-9-7-9::guides.3-3-3-3::GRID.VP.630::guides.3-3-3-3::label-3-3.4-4-4-4::GRID.VP.625::GRID.VP.615.1" font-size="8.8" stroke="rgb(0,0,0)" font-family="Helvetica, Arial, FreeSans, Liberation Sans, Nimbus Sans L, sans-serif" stroke-opacity="1" font-weight="normal" font-style="normal" class="viewport">
                                  <g id="layout::guide-box.7-9-7-9::GRID.VP.631::guide-box.7-9-7-9::guides.3-3-3-3::GRID.VP.630::guides.3-3-3-3::label-3-3.4-4-4-4::GRID.VP.625::GRID.VP.615::GRID.VP.616.1" class="viewport">
                                    <g id="guide.label.titleGrob.2671.1" class="titleGrob gTree grob gDesc">
                                      <g id="GRID.text.2669.1" class="text grob gDesc">
                                        <g id="GRID.text.2669.1.1" transform="translate(443.42, 276.46)" stroke-width="0.1">
                                          <g id="GRID.text.2669.1.1.scale" transform="scale(1, -1)">
                                            <text x="0" y="0" id="GRID.text.2669.1.1.text" text-anchor="start" font-size="8.8" stroke="rgb(0,0,0)" font-family="Helvetica, Arial, FreeSans, Liberation Sans, Nimbus Sans L, sans-serif" fill="rgb(0,0,0)" stroke-opacity="1" fill-opacity="1" font-weight="normal" font-style="normal">
                                              <tspan id="GRID.text.2669.1.1.tspan.1" dy="3.23" x="0">tutto (2)</tspan>
                                            </text>
                                          </g>
                                        </g>
                                      </g>
                                    </g>
                                  </g>
                                </g>
                              </g>
                            </g>
                          </g>
                          <g id="layout::guide-box.7-9-7-9::GRID.VP.631::guide-box.7-9-7-9::guides.3-3-3-3::GRID.VP.630::guides.3-3-3-3::label-4-3.5-4-5-4.1" class="viewport">
                            <g id="layout::guide-box.7-9-7-9::GRID.VP.631::guide-box.7-9-7-9::guides.3-3-3-3::GRID.VP.630::guides.3-3-3-3::label-4-3.5-4-5-4::GRID.VP.626.1" class="viewport">
                              <g id="label-4-3.5-4-5-4.1" class="forcedgrob gTableChild gTree grob gDesc">
                                <g id="layout::guide-box.7-9-7-9::GRID.VP.631::guide-box.7-9-7-9::guides.3-3-3-3::GRID.VP.630::guides.3-3-3-3::label-4-3.5-4-5-4::GRID.VP.626::GRID.VP.617.1" font-size="8.8" stroke="rgb(0,0,0)" font-family="Helvetica, Arial, FreeSans, Liberation Sans, Nimbus Sans L, sans-serif" stroke-opacity="1" font-weight="normal" font-style="normal" class="viewport">
                                  <g id="layout::guide-box.7-9-7-9::GRID.VP.631::guide-box.7-9-7-9::guides.3-3-3-3::GRID.VP.630::guides.3-3-3-3::label-4-3.5-4-5-4::GRID.VP.626::GRID.VP.617::GRID.VP.618.1" class="viewport">
                                    <g id="guide.label.titleGrob.2674.1" class="titleGrob gTree grob gDesc">
                                      <g id="GRID.text.2672.1" class="text grob gDesc">
                                        <g id="GRID.text.2672.1.1" transform="translate(443.42, 259.18)" stroke-width="0.1">
                                          <g id="GRID.text.2672.1.1.scale" transform="scale(1, -1)">
                                            <text x="0" y="0" id="GRID.text.2672.1.1.text" text-anchor="start" font-size="8.8" stroke="rgb(0,0,0)" font-family="Helvetica, Arial, FreeSans, Liberation Sans, Nimbus Sans L, sans-serif" fill="rgb(0,0,0)" stroke-opacity="1" fill-opacity="1" font-weight="normal" font-style="normal">
                                              <tspan id="GRID.text.2672.1.1.tspan.1" dy="3.23" x="0">nessuno (4)</tspan>
                                            </text>
                                          </g>
                                        </g>
                                      </g>
                                    </g>
                                  </g>
                                </g>
                              </g>
                            </g>
                          </g>
                          <g id="layout::guide-box.7-9-7-9::GRID.VP.631::guide-box.7-9-7-9::guides.3-3-3-3::GRID.VP.630::guides.3-3-3-3::label-5-3.6-4-6-4.1" class="viewport">
                            <g id="layout::guide-box.7-9-7-9::GRID.VP.631::guide-box.7-9-7-9::guides.3-3-3-3::GRID.VP.630::guides.3-3-3-3::label-5-3.6-4-6-4::GRID.VP.627.1" class="viewport">
                              <g id="label-5-3.6-4-6-4.1" class="forcedgrob gTableChild gTree grob gDesc">
                                <g id="layout::guide-box.7-9-7-9::GRID.VP.631::guide-box.7-9-7-9::guides.3-3-3-3::GRID.VP.630::guides.3-3-3-3::label-5-3.6-4-6-4::GRID.VP.627::GRID.VP.619.1" font-size="8.8" stroke="rgb(0,0,0)" font-family="Helvetica, Arial, FreeSans, Liberation Sans, Nimbus Sans L, sans-serif" stroke-opacity="1" font-weight="normal" font-style="normal" class="viewport">
                                  <g id="layout::guide-box.7-9-7-9::GRID.VP.631::guide-box.7-9-7-9::guides.3-3-3-3::GRID.VP.630::guides.3-3-3-3::label-5-3.6-4-6-4::GRID.VP.627::GRID.VP.619::GRID.VP.620.1" class="viewport">
                                    <g id="guide.label.titleGrob.2677.1" class="titleGrob gTree grob gDesc">
                                      <g id="GRID.text.2675.1" class="text grob gDesc">
                                        <g id="GRID.text.2675.1.1" transform="translate(443.42, 241.9)" stroke-width="0.1">
                                          <g id="GRID.text.2675.1.1.scale" transform="scale(1, -1)">
                                            <text x="0" y="0" id="GRID.text.2675.1.1.text" text-anchor="start" font-size="8.8" stroke="rgb(0,0,0)" font-family="Helvetica, Arial, FreeSans, Liberation Sans, Nimbus Sans L, sans-serif" fill="rgb(0,0,0)" stroke-opacity="1" fill-opacity="1" font-weight="normal" font-style="normal">
                                              <tspan id="GRID.text.2675.1.1.tspan.1" dy="3.23" x="0">avanzato (4)</tspan>
                                            </text>
                                          </g>
                                        </g>
                                      </g>
                                    </g>
                                  </g>
                                </g>
                              </g>
                            </g>
                          </g>
                          <g id="layout::guide-box.7-9-7-9::GRID.VP.631::guide-box.7-9-7-9::guides.3-3-3-3::GRID.VP.630::guides.3-3-3-3::label-6-3.7-4-7-4.1" class="viewport">
                            <g id="layout::guide-box.7-9-7-9::GRID.VP.631::guide-box.7-9-7-9::guides.3-3-3-3::GRID.VP.630::guides.3-3-3-3::label-6-3.7-4-7-4::GRID.VP.628.1" class="viewport">
                              <g id="label-6-3.7-4-7-4.1" class="forcedgrob gTableChild gTree grob gDesc">
                                <g id="layout::guide-box.7-9-7-9::GRID.VP.631::guide-box.7-9-7-9::guides.3-3-3-3::GRID.VP.630::guides.3-3-3-3::label-6-3.7-4-7-4::GRID.VP.628::GRID.VP.621.1" font-size="8.8" stroke="rgb(0,0,0)" font-family="Helvetica, Arial, FreeSans, Liberation Sans, Nimbus Sans L, sans-serif" stroke-opacity="1" font-weight="normal" font-style="normal" class="viewport">
                                  <g id="layout::guide-box.7-9-7-9::GRID.VP.631::guide-box.7-9-7-9::guides.3-3-3-3::GRID.VP.630::guides.3-3-3-3::label-6-3.7-4-7-4::GRID.VP.628::GRID.VP.621::GRID.VP.622.1" class="viewport">
                                    <g id="guide.label.titleGrob.2680.1" class="titleGrob gTree grob gDesc">
                                      <g id="GRID.text.2678.1" class="text grob gDesc">
                                        <g id="GRID.text.2678.1.1" transform="translate(443.42, 224.62)" stroke-width="0.1">
                                          <g id="GRID.text.2678.1.1.scale" transform="scale(1, -1)">
                                            <text x="0" y="0" id="GRID.text.2678.1.1.text" text-anchor="start" font-size="8.8" stroke="rgb(0,0,0)" font-family="Helvetica, Arial, FreeSans, Liberation Sans, Nimbus Sans L, sans-serif" fill="rgb(0,0,0)" stroke-opacity="1" fill-opacity="1" font-weight="normal" font-style="normal">
                                              <tspan id="GRID.text.2678.1.1.tspan.1" dy="3.23" x="0">base (17)</tspan>
                                            </text>
                                          </g>
                                        </g>
                                      </g>
                                    </g>
                                  </g>
                                </g>
                              </g>
                            </g>
                          </g>
                          <g id="layout::guide-box.7-9-7-9::GRID.VP.631::guide-box.7-9-7-9::guides.3-3-3-3::GRID.VP.630::guides.3-3-3-3::label-7-3.8-4-8-4.1" class="viewport">
                            <g id="layout::guide-box.7-9-7-9::GRID.VP.631::guide-box.7-9-7-9::guides.3-3-3-3::GRID.VP.630::guides.3-3-3-3::label-7-3.8-4-8-4::GRID.VP.629.1" class="viewport">
                              <g id="label-7-3.8-4-8-4.1" class="forcedgrob gTableChild gTree grob gDesc">
                                <g id="layout::guide-box.7-9-7-9::GRID.VP.631::guide-box.7-9-7-9::guides.3-3-3-3::GRID.VP.630::guides.3-3-3-3::label-7-3.8-4-8-4::GRID.VP.629::GRID.VP.623.1" font-size="8.8" stroke="rgb(0,0,0)" font-family="Helvetica, Arial, FreeSans, Liberation Sans, Nimbus Sans L, sans-serif" stroke-opacity="1" font-weight="normal" font-style="normal" class="viewport">
                                  <g id="layout::guide-box.7-9-7-9::GRID.VP.631::guide-box.7-9-7-9::guides.3-3-3-3::GRID.VP.630::guides.3-3-3-3::label-7-3.8-4-8-4::GRID.VP.629::GRID.VP.623::GRID.VP.624.1" class="viewport">
                                    <g id="guide.label.titleGrob.2683.1" class="titleGrob gTree grob gDesc">
                                      <g id="GRID.text.2681.1" class="text grob gDesc">
                                        <g id="GRID.text.2681.1.1" transform="translate(443.42, 207.34)" stroke-width="0.1">
                                          <g id="GRID.text.2681.1.1.scale" transform="scale(1, -1)">
                                            <text x="0" y="0" id="GRID.text.2681.1.1.text" text-anchor="start" font-size="8.8" stroke="rgb(0,0,0)" font-family="Helvetica, Arial, FreeSans, Liberation Sans, Nimbus Sans L, sans-serif" fill="rgb(0,0,0)" stroke-opacity="1" fill-opacity="1" font-weight="normal" font-style="normal">
                                              <tspan id="GRID.text.2681.1.1.tspan.1" dy="3.23" x="0">medio (23)</tspan>
                                            </text>
                                          </g>
                                        </g>
                                      </g>
                                    </g>
                                  </g>
                                </g>
                              </g>
                            </g>
                          </g>
                        </g>
                      </g>
                    </g>
                  </g>
                </g>
              </g>
            </g>
          </g>
          <g id="layout::subtitle.4-5-4-5.1" class="viewport"/>
          <g id="layout::title.3-5-3-5.1" class="viewport">
            <g id="layout::title.3-5-3-5::GRID.VP.632.1" font-size="13.2" stroke="rgb(102,102,102)" font-family="Helvetica, Arial, FreeSans, Liberation Sans, Nimbus Sans L, sans-serif" stroke-opacity="1" font-weight="normal" font-style="normal" class="viewport">
              <g id="layout::title.3-5-3-5::GRID.VP.632::GRID.VP.633.1" class="viewport">
                <g id="title.3-5-3-5.1" class="forcedgrob gTableChild titleGrob gTree grob gDesc">
                  <g id="GRID.text.2701.1" class="text grob gDesc">
                    <g id="GRID.text.2701.1.1" transform="translate(206.22, 460.1)" stroke-width="0.1">
                      <g id="GRID.text.2701.1.1.scale" transform="scale(1, -1)">
                        <text x="0" y="0" id="GRID.text.2701.1.1.text" text-anchor="middle" font-size="13.2" stroke="rgb(102,102,102)" font-family="Helvetica, Arial, FreeSans, Liberation Sans, Nimbus Sans L, sans-serif" fill="rgb(102,102,102)" stroke-opacity="1" fill-opacity="1" font-weight="normal" font-style="normal">
                          <tspan id="GRID.text.2701.1.1.tspan.1" dy="9.33" x="0">anagrafica risoluzioneproblemi</tspan>
                        </text>
                      </g>
                    </g>
                  </g>
                </g>
              </g>
            </g>
          </g>
          <g id="layout::caption.10-5-10-5.1" class="viewport"/>
          <g id="layout::tag.2-2-2-2.1" class="viewport"/>
        </g>
      </g>
    </g>
  </g>
</svg>