<?xml version="1.0" encoding="UTF-8"?>
<svg xmlns="http://www.w3.org/2000/svg" xmlns:xlink="http://www.w3.org/1999/xlink" width="504px" height="504px" viewBox="0 0 504 504" version="1.1">
  <metadata xmlns:gridsvg="http://www.stat.auckland.ac.nz/~paul/R/gridSVG/">
    <gridsvg:generator name="gridSVG" version="1.6-0" time="2019-01-18 19:06:54"/>
    <gridsvg:argument name="name" value="./latest_informaggio_csv/anziani/risultati/svg/anagrafica-ateneo.svg"/>
    <gridsvg:argument name="exportCoords" value="none"/>
    <gridsvg:argument name="exportMappings" value="none"/>
    <gridsvg:argument name="exportJS" value="none"/>
    <gridsvg:argument name="res" value="72"/>
    <gridsvg:argument name="prefix" value=""/>
    <gridsvg:argument name="addClasses" value="TRUE"/>
    <gridsvg:argument name="indent" value="TRUE"/>
    <gridsvg:argument name="htmlWrapper" value="FALSE"/>
    <gridsvg:argument name="usePaths" value="vpPaths"/>
    <gridsvg:argument name="uniqueNames" value="TRUE"/>
    <gridsvg:separator name="id.sep" value="."/>
    <gridsvg:separator name="gPath.sep" value="::"/>
    <gridsvg:separator name="vpPath.sep" value="::"/>
  </metadata>
  <g transform="translate(0, 504) scale(1, -1)">
    <g id="gridSVG" fill="none" stroke="rgb(0,0,0)" stroke-dasharray="none" stroke-width="0.75" font-size="12" font-family="Helvetica, Arial, FreeSans, Liberation Sans, Nimbus Sans L, sans-serif" opacity="1" stroke-linecap="round" stroke-linejoin="round" stroke-miterlimit="10" stroke-opacity="1" fill-opacity="0" font-weight="normal" font-style="normal">
      <g id="layout.1" class="viewport">
        <g id="layout.2" class="forcedgrob gtable gTree grob gDesc">
          <defs>
            <clipPath id="layout::background.1-11-12-1.1.clipPath">
              <rect x="0" y="34.87" width="504" height="434.26" fill="none" stroke="none"/>
            </clipPath>
          </defs>
          <g id="layout::background.1-11-12-1.1" clip-path="url(#layout::background.1-11-12-1.1.clipPath)" class="viewport">
            <g id="background.1-11-12-1.1" class="forcedgrob gTableChild rect grob gDesc">
              <rect id="background.1-11-12-1.1.1" x="0" y="34.87" width="504" height="434.26" transform="" stroke-width="1.07" stroke="rgb(255,255,255)" fill="rgb(255,255,255)" stroke-dasharray="none" stroke-opacity="1" fill-opacity="1"/>
            </g>
          </g>
          <defs>
            <clipPath id="layout::panel.7-5-7-5.1.clipPath">
              <rect x="8.22" y="43.09" width="403.11" height="403.11" fill="none" stroke="none"/>
            </clipPath>
          </defs>
          <g id="layout::panel.7-5-7-5.1" clip-path="url(#layout::panel.7-5-7-5.1.clipPath)" class="viewport">
            <g id="panel.7-5-7-5.1" class="forcedgrob gTableChild gTree grob gDesc">
              <g id="grill.gTree.912.1" class="gTree grob gDesc">
                <g id="panel.background..rect.908.1" class="rect grob gDesc">
                  <rect id="panel.background..rect.908.1.1" x="8.22" y="43.09" width="403.11" height="403.11" transform="" stroke-width="1.07" stroke="none" fill="rgb(255,255,255)" stroke-dasharray="none" stroke-opacity="0" fill-opacity="1"/>
                </g>
              </g>
              <g id="bar.gTree.901.1" class="gTree grob gDesc">
                <g id="geom_polygon.polygon.899.1" class="polygon grob gDesc">
                  <polygon id="geom_polygon.polygon.899.1.1" points="209.77,244.64 209.77,250.2 209.77,255.76 209.77,261.32 209.77,266.88 209.77,272.44 209.77,278 209.77,283.56 209.77,289.12 209.77,294.68 209.77,300.24 209.77,305.8 209.77,311.36 209.77,316.92 209.77,322.48 209.77,328.04 209.77,333.6 209.77,339.17 209.77,344.73 209.77,350.29 209.77,355.85 209.77,361.41 209.77,366.97 209.77,372.53 209.77,378.09 209.77,383.65 209.77,389.21 209.77,394.77 209.77,400.33 209.77,405.89 204.3,405.79 198.83,405.51 193.37,405.05 187.94,404.4 182.52,403.57 177.14,402.55 171.8,401.35 166.5,399.97 161.25,398.41 156.06,396.68 150.93,394.76 145.86,392.68 140.87,390.42 135.96,388 131.14,385.41 126.4,382.66 121.76,379.75 117.23,376.68 112.8,373.46 108.48,370.1 104.28,366.58 100.2,362.93 96.24,359.14 92.42,355.22 88.73,351.17 85.18,347 81.78,342.71 78.52,338.31 75.42,333.8 72.47,329.18 69.68,324.47 67.05,319.67 64.58,314.78 62.29,309.81 60.16,304.76 58.2,299.65 56.42,294.47 54.82,289.23 53.39,283.95 52.15,278.61 51.09,273.24 50.21,267.84 49.51,262.41 49,256.95 48.68,251.49 48.54,246.01 48.58,240.54 48.81,235.07 49.23,229.61 49.84,224.16 50.62,218.74 51.59,213.35 52.75,208 54.08,202.69 55.6,197.43 57.29,192.22 59.16,187.07 61.2,181.99 63.41,176.98 65.79,172.05 68.34,167.2 71.05,162.45 73.93,157.78 76.95,153.22 80.13,148.76 83.46,144.42 86.94,140.18 90.56,136.07 94.31,132.09 98.2,128.23 102.22,124.51 106.36,120.93 110.62,117.49 115,114.19 119.48,111.05 124.07,108.06 128.76,105.23 133.54,102.56 138.41,100.05 143.36,97.71 148.38,95.54 153.48,93.54 158.65,91.72 163.87,90.07 169.14,88.6 174.47,87.31 179.83,86.2 185.23,85.28 190.65,84.54 196.1,83.98 201.56,83.61 207.04,83.42 212.51,83.42 217.98,83.61 223.45,83.98 228.9,84.54 234.32,85.28 239.72,86.2 245.08,87.31 250.4,88.6 255.68,90.07 260.9,91.72 266.06,93.54 271.16,95.54 276.19,97.71 281.14,100.05 286.01,102.56 290.79,105.23 295.48,108.06 300.07,111.05 304.55,114.19 308.92,117.49 313.19,120.93 317.33,124.51 321.34,128.23 325.23,132.09 328.99,136.07 332.61,140.18 336.08,144.42 339.41,148.76 342.59,153.22 345.62,157.78 348.49,162.45 351.2,167.2 353.75,172.05 356.13,176.98 358.35,181.99 360.39,187.07 362.26,192.22 363.95,197.43 365.46,202.69 366.8,208 367.95,213.35 368.92,218.74 369.71,224.16 370.31,229.61 370.73,235.07 370.96,240.54 371.01,246.01 370.87,251.49 370.55,256.95 370.04,262.41 369.34,267.84 368.46,273.24 367.4,278.61 366.15,283.95 364.73,289.23 363.12,294.47 361.34,299.65 359.39,304.76 357.26,309.81 354.96,314.78 352.5,319.67 349.87,324.47 347.08,329.18 344.13,333.8 341.02,338.31 337.77,342.71 334.36,347 330.81,351.17 327.13,355.22 323.3,359.14 319.35,362.93 315.27,366.58 311.07,370.1 306.75,373.46 302.32,376.68 297.78,379.75 293.15,382.66 288.41,385.41 283.59,388 278.67,390.42 273.68,392.68 268.62,394.76 263.49,396.68 258.3,398.41 253.05,399.97 247.75,401.35 242.4,402.55 237.02,403.57 231.61,404.4 226.17,405.05 220.72,405.51 215.25,405.79 209.77,405.89 209.77,400.33 209.77,394.77 209.77,389.21 209.77,383.65 209.77,378.09 209.77,372.53 209.77,366.97 209.77,361.41 209.77,355.85 209.77,350.29 209.77,344.73 209.77,339.17 209.77,333.6 209.77,328.04 209.77,322.48 209.77,316.92 209.77,311.36 209.77,305.8 209.77,300.24 209.77,294.68 209.77,289.12 209.77,283.56 209.77,278 209.77,272.44 209.77,266.88 209.77,261.32 209.77,255.76 209.77,250.2 209.77,244.64 209.77,244.64" stroke="none" fill="rgb(248,118,109)" stroke-width="1.07" stroke-dasharray="none" stroke-opacity="0" fill-opacity="1"/>
                </g>
              </g>
              <g id="GRID.text.902.1" class="text grob gDesc">
                <g id="GRID.text.902.1.1" transform="translate(209.77, 164.02)" stroke-width="0.1">
                  <g id="GRID.text.902.1.1.scale" transform="scale(1, -1)">
                    <text x="0" y="0" id="GRID.text.902.1.1.text" text-anchor="middle" stroke="rgb(0,0,0)" font-size="11.04" font-family="Helvetica, Arial, FreeSans, Liberation Sans, Nimbus Sans L, sans-serif" fill="rgb(0,0,0)" stroke-opacity="1" fill-opacity="1" font-weight="normal" font-style="normal">
                      <tspan id="GRID.text.902.1.1.tspan.1" dy="3.95" x="0">4</tspan>
                    </text>
                  </g>
                </g>
              </g>
              <g id="GRID.gTree.903.1" class="gTree grob gDesc"/>
            </g>
          </g>
          <g id="layout::spacer.8-6-8-6.1" class="viewport"/>
          <g id="layout::spacer.8-4-8-4.1" class="viewport"/>
          <g id="layout::spacer.6-6-6-6.1" class="viewport"/>
          <g id="layout::spacer.6-4-6-4.1" class="viewport"/>
          <g id="layout::axis-t.6-5-6-5.1" class="viewport"/>
          <g id="layout::axis-l.7-4-7-4.1" class="viewport">
            <g id="layout::axis-l.7-4-7-4::GRID.VP.218.1" class="viewport">
              <g id="axis-l.7-4-7-4.1" class="forcedgrob gTableChild absoluteGrob gTree grob gDesc">
                <g id="layout::axis-l.7-4-7-4::GRID.VP.218::axis.1" class="viewport">
                  <g id="axis.1" class="forcedgrob gtable gTree grob gDesc">
                    <g id="layout::axis-l.7-4-7-4::GRID.VP.218::axis::axis.1-1-1-1.1" class="viewport"/>
                    <g id="layout::axis-l.7-4-7-4::GRID.VP.218::axis::axis.1-2-1-2.1" class="viewport"/>
                  </g>
                </g>
              </g>
            </g>
          </g>
          <g id="layout::axis-r.7-6-7-6.1" class="viewport"/>
          <g id="layout::axis-b.8-5-8-5.1" class="viewport">
            <g id="layout::axis-b.8-5-8-5::GRID.VP.217.1" class="viewport">
              <g id="axis-b.8-5-8-5.1" class="forcedgrob gTableChild absoluteGrob gTree grob gDesc">
                <g id="layout::axis-b.8-5-8-5::GRID.VP.217::axis.1" class="viewport">
                  <g id="axis.2" class="forcedgrob gtable gTree grob gDesc">
                    <g id="layout::axis-b.8-5-8-5::GRID.VP.217::axis::axis.1-1-1-1.1" class="viewport"/>
                    <g id="layout::axis-b.8-5-8-5::GRID.VP.217::axis::axis.2-1-2-1.1" class="viewport"/>
                  </g>
                </g>
              </g>
            </g>
          </g>
          <g id="layout::xlab-t.5-5-5-5.1" class="viewport"/>
          <g id="layout::xlab-b.9-5-9-5.1" class="viewport"/>
          <g id="layout::ylab-l.7-3-7-3.1" class="viewport"/>
          <g id="layout::ylab-r.7-7-7-7.1" class="viewport"/>
          <g id="layout::guide-box.7-9-7-9.1" class="viewport">
            <g id="layout::guide-box.7-9-7-9::GRID.VP.223.1" class="viewport">
              <g id="layout::guide-box.7-9-7-9::GRID.VP.223::guide-box.7-9-7-9.1" class="viewport">
                <g id="guide-box.7-9-7-9.1" class="forcedgrob gTableChild gtable gTree grob gDesc">
                  <g id="layout::guide-box.7-9-7-9::GRID.VP.223::guide-box.7-9-7-9::legend.box.background.2-4-4-2.1" class="viewport"/>
                  <g id="layout::guide-box.7-9-7-9::GRID.VP.223::guide-box.7-9-7-9::guides.3-3-3-3.1" class="viewport">
                    <g id="layout::guide-box.7-9-7-9::GRID.VP.223::guide-box.7-9-7-9::guides.3-3-3-3::GRID.VP.222.1" class="viewport">
                      <g id="layout::guide-box.7-9-7-9::GRID.VP.223::guide-box.7-9-7-9::guides.3-3-3-3::GRID.VP.222::guides.3-3-3-3.1" class="viewport">
                        <g id="guides.3-3-3-3.1" class="forcedgrob gTableChild gtable gTree grob gDesc">
                          <g id="layout::guide-box.7-9-7-9::GRID.VP.223::guide-box.7-9-7-9::guides.3-3-3-3::GRID.VP.222::guides.3-3-3-3::background.1-6-5-1.1" class="viewport">
                            <g id="background.1-6-5-1.1" class="forcedgrob gTableChild rect grob gDesc">
                              <rect id="background.1-6-5-1.1.1" x="422.29" y="227.78" width="76.23" height="33.72" transform="" stroke-width="1.07" stroke="none" fill="rgb(255,255,255)" stroke-dasharray="none" stroke-opacity="0" fill-opacity="1"/>
                            </g>
                          </g>
                          <g id="layout::guide-box.7-9-7-9::GRID.VP.223::guide-box.7-9-7-9::guides.3-3-3-3::GRID.VP.222::guides.3-3-3-3::title.2-5-2-2.1" class="viewport"/>
                          <g id="layout::guide-box.7-9-7-9::GRID.VP.223::guide-box.7-9-7-9::guides.3-3-3-3::GRID.VP.222::guides.3-3-3-3::key-3-1-bg.4-2-4-2.1" class="viewport"/>
                          <g id="layout::guide-box.7-9-7-9::GRID.VP.223::guide-box.7-9-7-9::guides.3-3-3-3::GRID.VP.222::guides.3-3-3-3::key-3-1-1.4-2-4-2.1" class="viewport">
                            <g id="key-3-1-1.4-2-4-2.1" class="forcedgrob gTableChild rect grob gDesc">
                              <rect id="key-3-1-1.4-2-4-2.1.1" x="428.47" y="233.97" width="15.86" height="15.86" transform="" stroke="none" fill="rgb(248,118,109)" stroke-dasharray="none" stroke-width="1.07" stroke-linejoin="miter" stroke-opacity="0" fill-opacity="1"/>
                            </g>
                          </g>
                          <g id="layout::guide-box.7-9-7-9::GRID.VP.223::guide-box.7-9-7-9::guides.3-3-3-3::GRID.VP.222::guides.3-3-3-3::label-3-3.4-4-4-4.1" class="viewport">
                            <g id="layout::guide-box.7-9-7-9::GRID.VP.223::guide-box.7-9-7-9::guides.3-3-3-3::GRID.VP.222::guides.3-3-3-3::label-3-3.4-4-4-4::GRID.VP.221.1" class="viewport">
                              <g id="label-3-3.4-4-4-4.1" class="forcedgrob gTableChild gTree grob gDesc">
                                <g id="layout::guide-box.7-9-7-9::GRID.VP.223::guide-box.7-9-7-9::guides.3-3-3-3::GRID.VP.222::guides.3-3-3-3::label-3-3.4-4-4-4::GRID.VP.221::GRID.VP.219.1" font-size="8.8" stroke="rgb(0,0,0)" font-family="Helvetica, Arial, FreeSans, Liberation Sans, Nimbus Sans L, sans-serif" stroke-opacity="1" font-weight="normal" font-style="normal" class="viewport">
                                  <g id="layout::guide-box.7-9-7-9::GRID.VP.223::guide-box.7-9-7-9::guides.3-3-3-3::GRID.VP.222::guides.3-3-3-3::label-3-3.4-4-4-4::GRID.VP.221::GRID.VP.219::GRID.VP.220.1" class="viewport">
                                    <g id="guide.label.titleGrob.926.1" class="titleGrob gTree grob gDesc">
                                      <g id="GRID.text.924.1" class="text grob gDesc">
                                        <g id="GRID.text.924.1.1" transform="translate(450.53, 241.9)" stroke-width="0.1">
                                          <g id="GRID.text.924.1.1.scale" transform="scale(1, -1)">
                                            <text x="0" y="0" id="GRID.text.924.1.1.text" text-anchor="start" font-size="8.8" stroke="rgb(0,0,0)" font-family="Helvetica, Arial, FreeSans, Liberation Sans, Nimbus Sans L, sans-serif" fill="rgb(0,0,0)" stroke-opacity="1" fill-opacity="1" font-weight="normal" font-style="normal">
                                              <tspan id="GRID.text.924.1.1.tspan.1" dy="3.23" x="0">salento (4)</tspan>
                                            </text>
                                          </g>
                                        </g>
                                      </g>
                                    </g>
                                  </g>
                                </g>
                              </g>
                            </g>
                          </g>
                        </g>
                      </g>
                    </g>
                  </g>
                </g>
              </g>
            </g>
          </g>
          <g id="layout::subtitle.4-5-4-5.1" class="viewport"/>
          <g id="layout::title.3-5-3-5.1" class="viewport">
            <g id="layout::title.3-5-3-5::GRID.VP.224.1" font-size="13.2" stroke="rgb(102,102,102)" font-family="Helvetica, Arial, FreeSans, Liberation Sans, Nimbus Sans L, sans-serif" stroke-opacity="1" font-weight="normal" font-style="normal" class="viewport">
              <g id="layout::title.3-5-3-5::GRID.VP.224::GRID.VP.225.1" class="viewport">
                <g id="title.3-5-3-5.1" class="forcedgrob gTableChild titleGrob gTree grob gDesc">
                  <g id="GRID.text.932.1" class="text grob gDesc">
                    <g id="GRID.text.932.1.1" transform="translate(209.77, 463.65)" stroke-width="0.1">
                      <g id="GRID.text.932.1.1.scale" transform="scale(1, -1)">
                        <text x="0" y="0" id="GRID.text.932.1.1.text" text-anchor="middle" font-size="13.2" stroke="rgb(102,102,102)" font-family="Helvetica, Arial, FreeSans, Liberation Sans, Nimbus Sans L, sans-serif" fill="rgb(102,102,102)" stroke-opacity="1" fill-opacity="1" font-weight="normal" font-style="normal">
                          <tspan id="GRID.text.932.1.1.tspan.1" dy="9.33" x="0">anagrafica ateneo</tspan>
                        </text>
                      </g>
                    </g>
                  </g>
                </g>
              </g>
            </g>
          </g>
          <g id="layout::caption.10-5-10-5.1" class="viewport"/>
          <g id="layout::tag.2-2-2-2.1" class="viewport"/>
        </g>
      </g>
    </g>
  </g>
</svg>