<?xml version="1.0" encoding="UTF-8"?>
<svg xmlns="http://www.w3.org/2000/svg" xmlns:xlink="http://www.w3.org/1999/xlink" width="504px" height="504px" viewBox="0 0 504 504" version="1.1">
  <metadata xmlns:gridsvg="http://www.stat.auckland.ac.nz/~paul/R/gridSVG/">
    <gridsvg:generator name="gridSVG" version="1.6-0" time="2019-01-18 19:07:01"/>
    <gridsvg:argument name="name" value="./latest_informaggio_csv/anziani/risultati/svg/anagrafica-ecdl.svg"/>
    <gridsvg:argument name="exportCoords" value="none"/>
    <gridsvg:argument name="exportMappings" value="none"/>
    <gridsvg:argument name="exportJS" value="none"/>
    <gridsvg:argument name="res" value="72"/>
    <gridsvg:argument name="prefix" value=""/>
    <gridsvg:argument name="addClasses" value="TRUE"/>
    <gridsvg:argument name="indent" value="TRUE"/>
    <gridsvg:argument name="htmlWrapper" value="FALSE"/>
    <gridsvg:argument name="usePaths" value="vpPaths"/>
    <gridsvg:argument name="uniqueNames" value="TRUE"/>
    <gridsvg:separator name="id.sep" value="."/>
    <gridsvg:separator name="gPath.sep" value="::"/>
    <gridsvg:separator name="vpPath.sep" value="::"/>
  </metadata>
  <g transform="translate(0, 504) scale(1, -1)">
    <g id="gridSVG" fill="none" stroke="rgb(0,0,0)" stroke-dasharray="none" stroke-width="0.75" font-size="12" font-family="Helvetica, Arial, FreeSans, Liberation Sans, Nimbus Sans L, sans-serif" opacity="1" stroke-linecap="round" stroke-linejoin="round" stroke-miterlimit="10" stroke-opacity="1" fill-opacity="0" font-weight="normal" font-style="normal">
      <g id="layout.1" class="viewport">
        <g id="layout.2" class="forcedgrob gtable gTree grob gDesc">
          <defs>
            <clipPath id="layout::background.1-11-12-1.1.clipPath">
              <rect x="0" y="26.11" width="504" height="451.77" fill="none" stroke="none"/>
            </clipPath>
          </defs>
          <g id="layout::background.1-11-12-1.1" clip-path="url(#layout::background.1-11-12-1.1.clipPath)" class="viewport">
            <g id="background.1-11-12-1.1" class="forcedgrob gTableChild rect grob gDesc">
              <rect id="background.1-11-12-1.1.1" x="0" y="26.11" width="504" height="451.77" transform="" stroke-width="1.07" stroke="rgb(255,255,255)" fill="rgb(255,255,255)" stroke-dasharray="none" stroke-opacity="1" fill-opacity="1"/>
            </g>
          </g>
          <defs>
            <clipPath id="layout::panel.7-5-7-5.1.clipPath">
              <rect x="8.22" y="34.33" width="420.62" height="420.62" fill="none" stroke="none"/>
            </clipPath>
          </defs>
          <g id="layout::panel.7-5-7-5.1" clip-path="url(#layout::panel.7-5-7-5.1.clipPath)" class="viewport">
            <g id="panel.7-5-7-5.1" class="forcedgrob gTableChild gTree grob gDesc">
              <g id="grill.gTree.1636.1" class="gTree grob gDesc">
                <g id="panel.background..rect.1632.1" class="rect grob gDesc">
                  <rect id="panel.background..rect.1632.1.1" x="8.22" y="34.33" width="420.62" height="420.62" transform="" stroke-width="1.07" stroke="none" fill="rgb(255,255,255)" stroke-dasharray="none" stroke-opacity="0" fill-opacity="1"/>
                </g>
              </g>
              <g id="bar.gTree.1625.1" class="gTree grob gDesc">
                <g id="geom_polygon.polygon.1621.1" class="polygon grob gDesc">
                  <polygon id="geom_polygon.polygon.1621.1.1" points="218.53,244.64 212.83,245.73 207.13,246.82 201.43,247.9 195.73,248.99 190.04,250.08 184.34,251.17 178.64,252.25 172.94,253.34 167.24,254.43 161.54,255.51 155.84,256.6 150.14,257.69 144.44,258.78 138.75,259.86 133.05,260.95 127.35,262.04 121.65,263.12 115.95,264.21 110.25,265.3 104.55,266.39 98.85,267.47 93.15,268.56 87.46,269.65 81.76,270.73 76.06,271.82 70.36,272.91 64.66,274 58.96,275.08 53.26,276.17 52.28,270.53 51.5,264.86 50.91,259.16 50.51,253.45 50.31,247.73 50.3,242 50.49,236.28 50.87,230.56 51.45,224.87 52.22,219.19 53.18,213.55 54.33,207.94 55.68,202.37 57.21,196.86 58.93,191.4 60.83,186 62.92,180.66 65.19,175.41 67.63,170.23 70.25,165.14 73.04,160.14 76,155.24 79.13,150.44 82.41,145.75 85.86,141.17 89.46,136.72 93.2,132.39 97.09,128.19 101.13,124.13 105.3,120.2 109.6,116.42 114.02,112.79 118.57,109.31 123.23,105.98 128.01,102.82 132.88,99.82 137.86,96.99 142.93,94.33 148.09,91.85 153.33,89.54 158.65,87.41 164.03,85.47 169.48,83.7 174.98,82.13 180.54,80.74 186.14,79.54 191.78,78.54 197.44,77.72 203.14,77.1 208.85,76.67 214.57,76.44 220.29,76.4 226.02,76.56 231.73,76.91 237.43,77.46 243.11,78.2 248.76,79.13 254.37,80.26 259.95,81.57 265.47,83.07 270.94,84.77 276.35,86.64 281.69,88.7 286.96,90.94 292.15,93.36 297.26,95.95 302.27,98.72 307.19,101.65 312,104.75 316.71,108.01 321.3,111.43 325.78,115.01 330.13,118.73 334.35,122.6 338.43,126.61 342.38,130.76 346.18,135.04 349.84,139.45 353.34,143.98 356.69,148.62 359.88,153.38 362.9,158.24 365.76,163.2 368.44,168.26 370.95,173.41 373.29,178.63 375.45,183.94 377.42,189.31 379.21,194.75 380.82,200.25 382.23,205.79 383.46,211.39 384.5,217.02 385.34,222.68 385.99,228.37 386.45,234.08 386.71,239.8 386.78,245.52 386.65,251.25 386.33,256.97 385.81,262.67 385.1,268.35 384.2,274 383.1,279.62 381.82,285.2 380.34,290.74 378.68,296.22 376.83,301.64 374.8,306.99 372.59,312.27 370.2,317.47 367.63,322.59 364.89,327.62 361.99,332.55 358.91,337.38 355.67,342.11 352.28,346.72 348.73,351.21 345.03,355.58 341.18,359.82 337.19,363.92 333.06,367.89 328.8,371.72 324.41,375.4 319.9,378.92 315.27,382.3 310.53,385.51 305.69,388.56 300.74,391.44 295.7,394.15 290.57,396.69 285.35,399.05 280.06,401.24 274.69,403.24 269.26,405.06 263.78,406.69 258.24,408.14 252.65,409.4 247.02,410.46 241.36,411.34 235.68,412.02 229.97,412.5 224.26,412.79 218.53,412.89 218.53,407.09 218.53,401.29 218.53,395.49 218.53,389.69 218.53,383.88 218.53,378.08 218.53,372.28 218.53,366.48 218.53,360.68 218.53,354.88 218.53,349.07 218.53,343.27 218.53,337.47 218.53,331.67 218.53,325.87 218.53,320.07 218.53,314.26 218.53,308.46 218.53,302.66 218.53,296.86 218.53,291.06 218.53,285.25 218.53,279.45 218.53,273.65 218.53,267.85 218.53,262.05 218.53,256.25 218.53,250.44 218.53,244.64 218.53,244.64" stroke="none" fill="rgb(0,191,196)" stroke-width="1.07" stroke-dasharray="none" stroke-opacity="0" fill-opacity="1"/>
                </g>
                <g id="geom_polygon.polygon.1623.1" class="polygon grob gDesc">
                  <polygon id="geom_polygon.polygon.1623.1.1" points="218.53,244.64 218.53,250.44 218.53,256.25 218.53,262.05 218.53,267.85 218.53,273.65 218.53,279.45 218.53,285.25 218.53,291.06 218.53,296.86 218.53,302.66 218.53,308.46 218.53,314.26 218.53,320.07 218.53,325.87 218.53,331.67 218.53,337.47 218.53,343.27 218.53,349.07 218.53,354.88 218.53,360.68 218.53,366.48 218.53,372.28 218.53,378.08 218.53,383.88 218.53,389.69 218.53,395.49 218.53,401.29 218.53,407.09 218.53,412.89 212.72,412.79 206.91,412.49 201.12,411.99 195.35,411.29 189.6,410.39 183.89,409.29 178.23,407.99 172.61,406.5 167.04,404.82 161.54,402.95 156.1,400.88 150.74,398.63 145.46,396.2 140.27,393.58 135.17,390.79 130.17,387.82 125.28,384.68 120.49,381.38 115.83,377.91 111.28,374.28 106.87,370.5 102.59,366.57 98.44,362.49 94.44,358.27 90.59,353.91 86.89,349.43 83.35,344.82 79.97,340.09 76.76,335.24 73.71,330.29 70.84,325.23 68.14,320.08 65.63,314.84 63.29,309.52 61.14,304.11 59.18,298.64 57.41,293.1 55.83,287.51 54.45,281.86 53.26,276.17 58.96,275.08 64.66,274 70.36,272.91 76.06,271.82 81.76,270.73 87.46,269.65 93.15,268.56 98.85,267.47 104.55,266.39 110.25,265.3 115.95,264.21 121.65,263.12 127.35,262.04 133.05,260.95 138.75,259.86 144.44,258.78 150.14,257.69 155.84,256.6 161.54,255.51 167.24,254.43 172.94,253.34 178.64,252.25 184.34,251.17 190.04,250.08 195.73,248.99 201.43,247.9 207.13,246.82 212.83,245.73 218.53,244.64 218.53,244.64" stroke="none" fill="rgb(248,118,109)" stroke-width="1.07" stroke-dasharray="none" stroke-opacity="0" fill-opacity="1"/>
                </g>
              </g>
              <g id="GRID.text.1626.1" class="text grob gDesc">
                <g id="GRID.text.1626.1.1" transform="translate(272.15, 179.82)" stroke-width="0.1">
                  <g id="GRID.text.1626.1.1.scale" transform="scale(1, -1)">
                    <text x="0" y="0" id="GRID.text.1626.1.1.text" text-anchor="middle" stroke="rgb(0,0,0)" font-size="11.04" font-family="Helvetica, Arial, FreeSans, Liberation Sans, Nimbus Sans L, sans-serif" fill="rgb(0,0,0)" stroke-opacity="1" fill-opacity="1" font-weight="normal" font-style="normal">
                      <tspan id="GRID.text.1626.1.1.tspan.1" dy="3.95" x="0">39</tspan>
                    </text>
                  </g>
                </g>
                <g id="GRID.text.1626.1.2" transform="translate(164.91, 309.46)" stroke-width="0.1">
                  <g id="GRID.text.1626.1.2.scale" transform="scale(1, -1)">
                    <text x="0" y="0" id="GRID.text.1626.1.2.text" text-anchor="middle" stroke="rgb(0,0,0)" font-size="11.04" font-family="Helvetica, Arial, FreeSans, Liberation Sans, Nimbus Sans L, sans-serif" fill="rgb(0,0,0)" stroke-opacity="1" fill-opacity="1" font-weight="normal" font-style="normal">
                      <tspan id="GRID.text.1626.1.2.tspan.1" dy="3.95" x="0">11</tspan>
                    </text>
                  </g>
                </g>
              </g>
              <g id="GRID.gTree.1627.1" class="gTree grob gDesc"/>
            </g>
          </g>
          <g id="layout::spacer.8-6-8-6.1" class="viewport"/>
          <g id="layout::spacer.8-4-8-4.1" class="viewport"/>
          <g id="layout::spacer.6-6-6-6.1" class="viewport"/>
          <g id="layout::spacer.6-4-6-4.1" class="viewport"/>
          <g id="layout::axis-t.6-5-6-5.1" class="viewport"/>
          <g id="layout::axis-l.7-4-7-4.1" class="viewport">
            <g id="layout::axis-l.7-4-7-4::GRID.VP.374.1" class="viewport">
              <g id="axis-l.7-4-7-4.1" class="forcedgrob gTableChild absoluteGrob gTree grob gDesc">
                <g id="layout::axis-l.7-4-7-4::GRID.VP.374::axis.1" class="viewport">
                  <g id="axis.1" class="forcedgrob gtable gTree grob gDesc">
                    <g id="layout::axis-l.7-4-7-4::GRID.VP.374::axis::axis.1-1-1-1.1" class="viewport"/>
                    <g id="layout::axis-l.7-4-7-4::GRID.VP.374::axis::axis.1-2-1-2.1" class="viewport"/>
                  </g>
                </g>
              </g>
            </g>
          </g>
          <g id="layout::axis-r.7-6-7-6.1" class="viewport"/>
          <g id="layout::axis-b.8-5-8-5.1" class="viewport">
            <g id="layout::axis-b.8-5-8-5::GRID.VP.373.1" class="viewport">
              <g id="axis-b.8-5-8-5.1" class="forcedgrob gTableChild absoluteGrob gTree grob gDesc">
                <g id="layout::axis-b.8-5-8-5::GRID.VP.373::axis.1" class="viewport">
                  <g id="axis.2" class="forcedgrob gtable gTree grob gDesc">
                    <g id="layout::axis-b.8-5-8-5::GRID.VP.373::axis::axis.1-1-1-1.1" class="viewport"/>
                    <g id="layout::axis-b.8-5-8-5::GRID.VP.373::axis::axis.2-1-2-1.1" class="viewport"/>
                  </g>
                </g>
              </g>
            </g>
          </g>
          <g id="layout::xlab-t.5-5-5-5.1" class="viewport"/>
          <g id="layout::xlab-b.9-5-9-5.1" class="viewport"/>
          <g id="layout::ylab-l.7-3-7-3.1" class="viewport"/>
          <g id="layout::ylab-r.7-7-7-7.1" class="viewport"/>
          <g id="layout::guide-box.7-9-7-9.1" class="viewport">
            <g id="layout::guide-box.7-9-7-9::GRID.VP.382.1" class="viewport">
              <g id="layout::guide-box.7-9-7-9::GRID.VP.382::guide-box.7-9-7-9.1" class="viewport">
                <g id="guide-box.7-9-7-9.1" class="forcedgrob gTableChild gtable gTree grob gDesc">
                  <g id="layout::guide-box.7-9-7-9::GRID.VP.382::guide-box.7-9-7-9::legend.box.background.2-4-4-2.1" class="viewport"/>
                  <g id="layout::guide-box.7-9-7-9::GRID.VP.382::guide-box.7-9-7-9::guides.3-3-3-3.1" class="viewport">
                    <g id="layout::guide-box.7-9-7-9::GRID.VP.382::guide-box.7-9-7-9::guides.3-3-3-3::GRID.VP.381.1" class="viewport">
                      <g id="layout::guide-box.7-9-7-9::GRID.VP.382::guide-box.7-9-7-9::guides.3-3-3-3::GRID.VP.381::guides.3-3-3-3.1" class="viewport">
                        <g id="guides.3-3-3-3.1" class="forcedgrob gTableChild gtable gTree grob gDesc">
                          <g id="layout::guide-box.7-9-7-9::GRID.VP.382::guide-box.7-9-7-9::guides.3-3-3-3::GRID.VP.381::guides.3-3-3-3::background.1-6-6-1.1" class="viewport">
                            <g id="background.1-6-6-1.1" class="forcedgrob gTableChild rect grob gDesc">
                              <rect id="background.1-6-6-1.1.1" x="439.8" y="219.14" width="58.72" height="51" transform="" stroke-width="1.07" stroke="none" fill="rgb(255,255,255)" stroke-dasharray="none" stroke-opacity="0" fill-opacity="1"/>
                            </g>
                          </g>
                          <g id="layout::guide-box.7-9-7-9::GRID.VP.382::guide-box.7-9-7-9::guides.3-3-3-3::GRID.VP.381::guides.3-3-3-3::title.2-5-2-2.1" class="viewport"/>
                          <g id="layout::guide-box.7-9-7-9::GRID.VP.382::guide-box.7-9-7-9::guides.3-3-3-3::GRID.VP.381::guides.3-3-3-3::key-3-1-bg.4-2-4-2.1" class="viewport"/>
                          <g id="layout::guide-box.7-9-7-9::GRID.VP.382::guide-box.7-9-7-9::guides.3-3-3-3::GRID.VP.381::guides.3-3-3-3::key-3-1-1.4-2-4-2.1" class="viewport">
                            <g id="key-3-1-1.4-2-4-2.1" class="forcedgrob gTableChild rect grob gDesc">
                              <rect id="key-3-1-1.4-2-4-2.1.1" x="445.99" y="242.61" width="15.86" height="15.86" transform="" stroke="none" fill="rgb(248,118,109)" stroke-dasharray="none" stroke-width="1.07" stroke-linejoin="miter" stroke-opacity="0" fill-opacity="1"/>
                            </g>
                          </g>
                          <g id="layout::guide-box.7-9-7-9::GRID.VP.382::guide-box.7-9-7-9::guides.3-3-3-3::GRID.VP.381::guides.3-3-3-3::key-4-1-bg.5-2-5-2.1" class="viewport"/>
                          <g id="layout::guide-box.7-9-7-9::GRID.VP.382::guide-box.7-9-7-9::guides.3-3-3-3::GRID.VP.381::guides.3-3-3-3::key-4-1-1.5-2-5-2.1" class="viewport">
                            <g id="key-4-1-1.5-2-5-2.1" class="forcedgrob gTableChild rect grob gDesc">
                              <rect id="key-4-1-1.5-2-5-2.1.1" x="445.99" y="225.33" width="15.86" height="15.86" transform="" stroke="none" fill="rgb(0,191,196)" stroke-dasharray="none" stroke-width="1.07" stroke-linejoin="miter" stroke-opacity="0" fill-opacity="1"/>
                            </g>
                          </g>
                          <g id="layout::guide-box.7-9-7-9::GRID.VP.382::guide-box.7-9-7-9::guides.3-3-3-3::GRID.VP.381::guides.3-3-3-3::label-3-3.4-4-4-4.1" class="viewport">
                            <g id="layout::guide-box.7-9-7-9::GRID.VP.382::guide-box.7-9-7-9::guides.3-3-3-3::GRID.VP.381::guides.3-3-3-3::label-3-3.4-4-4-4::GRID.VP.379.1" class="viewport">
                              <g id="label-3-3.4-4-4-4.1" class="forcedgrob gTableChild gTree grob gDesc">
                                <g id="layout::guide-box.7-9-7-9::GRID.VP.382::guide-box.7-9-7-9::guides.3-3-3-3::GRID.VP.381::guides.3-3-3-3::label-3-3.4-4-4-4::GRID.VP.379::GRID.VP.375.1" font-size="8.8" stroke="rgb(0,0,0)" font-family="Helvetica, Arial, FreeSans, Liberation Sans, Nimbus Sans L, sans-serif" stroke-opacity="1" font-weight="normal" font-style="normal" class="viewport">
                                  <g id="layout::guide-box.7-9-7-9::GRID.VP.382::guide-box.7-9-7-9::guides.3-3-3-3::GRID.VP.381::guides.3-3-3-3::label-3-3.4-4-4-4::GRID.VP.379::GRID.VP.375::GRID.VP.376.1" class="viewport">
                                    <g id="guide.label.titleGrob.1650.1" class="titleGrob gTree grob gDesc">
                                      <g id="GRID.text.1648.1" class="text grob gDesc">
                                        <g id="GRID.text.1648.1.1" transform="translate(468.04, 250.54)" stroke-width="0.1">
                                          <g id="GRID.text.1648.1.1.scale" transform="scale(1, -1)">
                                            <text x="0" y="0" id="GRID.text.1648.1.1.text" text-anchor="start" font-size="8.8" stroke="rgb(0,0,0)" font-family="Helvetica, Arial, FreeSans, Liberation Sans, Nimbus Sans L, sans-serif" fill="rgb(0,0,0)" stroke-opacity="1" fill-opacity="1" font-weight="normal" font-style="normal">
                                              <tspan id="GRID.text.1648.1.1.tspan.1" dy="3.23" x="0">S (11)</tspan>
                                            </text>
                                          </g>
                                        </g>
                                      </g>
                                    </g>
                                  </g>
                                </g>
                              </g>
                            </g>
                          </g>
                          <g id="layout::guide-box.7-9-7-9::GRID.VP.382::guide-box.7-9-7-9::guides.3-3-3-3::GRID.VP.381::guides.3-3-3-3::label-4-3.5-4-5-4.1" class="viewport">
                            <g id="layout::guide-box.7-9-7-9::GRID.VP.382::guide-box.7-9-7-9::guides.3-3-3-3::GRID.VP.381::guides.3-3-3-3::label-4-3.5-4-5-4::GRID.VP.380.1" class="viewport">
                              <g id="label-4-3.5-4-5-4.1" class="forcedgrob gTableChild gTree grob gDesc">
                                <g id="layout::guide-box.7-9-7-9::GRID.VP.382::guide-box.7-9-7-9::guides.3-3-3-3::GRID.VP.381::guides.3-3-3-3::label-4-3.5-4-5-4::GRID.VP.380::GRID.VP.377.1" font-size="8.8" stroke="rgb(0,0,0)" font-family="Helvetica, Arial, FreeSans, Liberation Sans, Nimbus Sans L, sans-serif" stroke-opacity="1" font-weight="normal" font-style="normal" class="viewport">
                                  <g id="layout::guide-box.7-9-7-9::GRID.VP.382::guide-box.7-9-7-9::guides.3-3-3-3::GRID.VP.381::guides.3-3-3-3::label-4-3.5-4-5-4::GRID.VP.380::GRID.VP.377::GRID.VP.378.1" class="viewport">
                                    <g id="guide.label.titleGrob.1653.1" class="titleGrob gTree grob gDesc">
                                      <g id="GRID.text.1651.1" class="text grob gDesc">
                                        <g id="GRID.text.1651.1.1" transform="translate(468.04, 233.26)" stroke-width="0.1">
                                          <g id="GRID.text.1651.1.1.scale" transform="scale(1, -1)">
                                            <text x="0" y="0" id="GRID.text.1651.1.1.text" text-anchor="start" font-size="8.8" stroke="rgb(0,0,0)" font-family="Helvetica, Arial, FreeSans, Liberation Sans, Nimbus Sans L, sans-serif" fill="rgb(0,0,0)" stroke-opacity="1" fill-opacity="1" font-weight="normal" font-style="normal">
                                              <tspan id="GRID.text.1651.1.1.tspan.1" dy="3.23" x="0">N (39)</tspan>
                                            </text>
                                          </g>
                                        </g>
                                      </g>
                                    </g>
                                  </g>
                                </g>
                              </g>
                            </g>
                          </g>
                        </g>
                      </g>
                    </g>
                  </g>
                </g>
              </g>
            </g>
          </g>
          <g id="layout::subtitle.4-5-4-5.1" class="viewport"/>
          <g id="layout::title.3-5-3-5.1" class="viewport">
            <g id="layout::title.3-5-3-5::GRID.VP.383.1" font-size="13.2" stroke="rgb(102,102,102)" font-family="Helvetica, Arial, FreeSans, Liberation Sans, Nimbus Sans L, sans-serif" stroke-opacity="1" font-weight="normal" font-style="normal" class="viewport">
              <g id="layout::title.3-5-3-5::GRID.VP.383::GRID.VP.384.1" class="viewport">
                <g id="title.3-5-3-5.1" class="forcedgrob gTableChild titleGrob gTree grob gDesc">
                  <g id="GRID.text.1662.1" class="text grob gDesc">
                    <g id="GRID.text.1662.1.1" transform="translate(218.53, 472.41)" stroke-width="0.1">
                      <g id="GRID.text.1662.1.1.scale" transform="scale(1, -1)">
                        <text x="0" y="0" id="GRID.text.1662.1.1.text" text-anchor="middle" font-size="13.2" stroke="rgb(102,102,102)" font-family="Helvetica, Arial, FreeSans, Liberation Sans, Nimbus Sans L, sans-serif" fill="rgb(102,102,102)" stroke-opacity="1" fill-opacity="1" font-weight="normal" font-style="normal">
                          <tspan id="GRID.text.1662.1.1.tspan.1" dy="9.33" x="0">anagrafica ecdl</tspan>
                        </text>
                      </g>
                    </g>
                  </g>
                </g>
              </g>
            </g>
          </g>
          <g id="layout::caption.10-5-10-5.1" class="viewport"/>
          <g id="layout::tag.2-2-2-2.1" class="viewport"/>
        </g>
      </g>
    </g>
  </g>
</svg>