<?xml version="1.0" encoding="UTF-8"?>
<svg xmlns="http://www.w3.org/2000/svg" xmlns:xlink="http://www.w3.org/1999/xlink" width="504px" height="504px" viewBox="0 0 504 504" version="1.1">
  <metadata xmlns:gridsvg="http://www.stat.auckland.ac.nz/~paul/R/gridSVG/">
    <gridsvg:generator name="gridSVG" version="1.6-0" time="2019-01-14 15:48:25"/>
    <gridsvg:argument name="name" value="./latest_informaggio_csv/anziani/risultati/svg/anagrafica-totali-sicurezza.svg"/>
    <gridsvg:argument name="exportCoords" value="none"/>
    <gridsvg:argument name="exportMappings" value="none"/>
    <gridsvg:argument name="exportJS" value="none"/>
    <gridsvg:argument name="res" value="72"/>
    <gridsvg:argument name="prefix" value=""/>
    <gridsvg:argument name="addClasses" value="TRUE"/>
    <gridsvg:argument name="indent" value="TRUE"/>
    <gridsvg:argument name="htmlWrapper" value="FALSE"/>
    <gridsvg:argument name="usePaths" value="vpPaths"/>
    <gridsvg:argument name="uniqueNames" value="TRUE"/>
    <gridsvg:separator name="id.sep" value="."/>
    <gridsvg:separator name="gPath.sep" value="::"/>
    <gridsvg:separator name="vpPath.sep" value="::"/>
  </metadata>
  <g transform="translate(0, 504) scale(1, -1)">
    <g id="gridSVG" fill="none" stroke="rgb(0,0,0)" stroke-dasharray="none" stroke-width="0.75" font-size="12" font-family="Helvetica, Arial, FreeSans, Liberation Sans, Nimbus Sans L, sans-serif" opacity="1" stroke-linecap="round" stroke-linejoin="round" stroke-miterlimit="10" stroke-opacity="1" fill-opacity="0" font-weight="normal" font-style="normal">
      <g id="layout.1" class="viewport">
        <g id="layout.2" class="forcedgrob gtable gTree grob gDesc">
          <defs>
            <clipPath id="layout::background.1-11-12-1.1.clipPath">
              <rect x="0" y="31.67" width="504" height="440.66" fill="none" stroke="none"/>
            </clipPath>
          </defs>
          <g id="layout::background.1-11-12-1.1" clip-path="url(#layout::background.1-11-12-1.1.clipPath)" class="viewport">
            <g id="background.1-11-12-1.1" class="forcedgrob gTableChild rect grob gDesc">
              <rect id="background.1-11-12-1.1.1" x="0" y="31.67" width="504" height="440.66" transform="" stroke-width="1.07" stroke="rgb(255,255,255)" fill="rgb(255,255,255)" stroke-dasharray="none" stroke-opacity="1" fill-opacity="1"/>
            </g>
          </g>
          <defs>
            <clipPath id="layout::panel.7-5-7-5.1.clipPath">
              <rect x="8.22" y="39.89" width="409.51" height="409.51" fill="none" stroke="none"/>
            </clipPath>
          </defs>
          <g id="layout::panel.7-5-7-5.1" clip-path="url(#layout::panel.7-5-7-5.1.clipPath)" class="viewport">
            <g id="panel.7-5-7-5.1" class="forcedgrob gTableChild gTree grob gDesc">
              <g id="grill.gTree.2905.1" class="gTree grob gDesc">
                <g id="panel.background..rect.2901.1" class="rect grob gDesc">
                  <rect id="panel.background..rect.2901.1.1" x="8.22" y="39.89" width="409.51" height="409.51" transform="" stroke-width="1.07" stroke="none" fill="rgb(255,255,255)" stroke-dasharray="none" stroke-opacity="0" fill-opacity="1"/>
                </g>
              </g>
              <g id="bar.gTree.2894.1" class="gTree grob gDesc">
                <g id="geom_polygon.polygon.2886.1" class="polygon grob gDesc">
                  <polygon id="geom_polygon.polygon.2886.1.1" points="212.97,244.64 210.81,239.42 208.65,234.21 206.49,228.99 204.33,223.77 202.17,218.55 200,213.33 197.84,208.11 195.68,202.9 193.52,197.68 191.36,192.46 189.2,187.24 187.03,182.02 184.87,176.8 182.71,171.59 180.55,166.37 178.39,161.15 176.23,155.93 174.07,150.71 171.9,145.49 169.74,140.27 167.58,135.06 165.42,129.84 163.26,124.62 161.1,119.4 158.93,114.18 156.77,108.96 154.61,103.75 152.45,98.53 150.29,93.31 155.47,91.27 160.71,89.4 166.02,87.72 171.37,86.21 176.78,84.89 182.23,83.75 187.71,82.8 193.23,82.03 198.76,81.46 204.32,81.07 209.88,80.87 215.45,80.86 221.01,81.04 226.56,81.41 232.1,81.96 237.62,82.71 243.11,83.64 248.56,84.75 253.97,86.05 259.34,87.54 264.65,89.21 269.9,91.05 275.09,93.07 280.2,95.27 285.24,97.64 290.19,100.18 295.05,102.89 299.82,105.76 304.49,108.79 309.05,111.98 313.51,115.32 317.84,118.81 322.06,122.45 326.15,126.22 330.1,130.14 333.93,134.18 337.61,138.36 341.15,142.65 344.54,147.07 347.78,151.59 350.86,156.23 353.79,160.96 356.55,165.8 359.15,170.72 361.57,175.73 363.83,180.82 365.91,185.98 367.82,191.21 369.54,196.5 371.09,201.85 372.45,207.25 373.63,212.69 374.62,218.16 375.43,223.67 376.05,229.2 376.48,234.75 376.72,240.31 376.77,245.88 376.63,251.44 376.31,257 375.79,262.54 375.09,268.07 374.2,273.56 373.13,279.02 371.87,284.44 370.42,289.82 368.8,295.14 366.99,300.41 365.01,305.61 362.85,310.74 360.52,315.79 358.01,320.77 355.34,325.65 352.51,330.44 349.51,335.13 346.36,339.72 343.05,344.2 339.59,348.56 335.99,352.8 332.24,356.92 328.36,360.91 324.34,364.76 320.2,368.47 315.93,372.05 311.54,375.47 307.04,378.74 302.43,381.86 297.71,384.82 292.9,387.62 288,390.25 283.01,392.72 277.94,395.01 272.79,397.13 267.57,399.08 262.29,400.84 256.96,402.43 251.57,403.83 246.14,405.05 240.67,406.09 235.17,406.93 229.64,407.6 224.1,408.07 218.54,408.35 212.97,408.45 212.97,402.8 212.97,397.15 212.97,391.5 212.97,385.85 212.97,380.2 212.97,374.56 212.97,368.91 212.97,363.26 212.97,357.61 212.97,351.96 212.97,346.31 212.97,340.67 212.97,335.02 212.97,329.37 212.97,323.72 212.97,318.07 212.97,312.42 212.97,306.78 212.97,301.13 212.97,295.48 212.97,289.83 212.97,284.18 212.97,278.53 212.97,272.89 212.97,267.24 212.97,261.59 212.97,255.94 212.97,250.29 212.97,244.64 212.97,244.64" stroke="none" fill="rgb(199,124,255)" stroke-width="1.07" stroke-dasharray="none" stroke-opacity="0" fill-opacity="1"/>
                </g>
                <g id="geom_polygon.polygon.2888.1" class="polygon grob gDesc">
                  <polygon id="geom_polygon.polygon.2888.1.1" points="212.97,244.64 208.08,247.47 203.19,250.29 198.3,253.12 193.41,255.94 188.51,258.76 183.62,261.59 178.73,264.41 173.84,267.24 168.95,270.06 164.06,272.89 159.16,275.71 154.27,278.53 149.38,281.36 144.49,284.18 139.6,287.01 134.71,289.83 129.81,292.65 124.92,295.48 120.03,298.3 115.14,301.13 110.25,303.95 105.36,306.78 100.47,309.6 95.57,312.42 90.68,315.25 85.79,318.07 80.9,320.9 76.01,323.72 71.12,326.54 68.41,321.67 65.87,316.71 63.51,311.66 61.31,306.53 59.29,301.34 57.45,296.08 55.79,290.75 54.32,285.38 53.02,279.96 51.91,274.49 50.99,269 50.26,263.47 49.71,257.92 49.35,252.36 49.18,246.79 49.21,241.21 49.42,235.64 49.82,230.08 50.41,224.54 51.19,219.02 52.15,213.53 53.3,208.07 54.64,202.66 56.16,197.3 57.86,191.99 59.74,186.74 61.8,181.56 64.04,176.46 66.44,171.43 69.02,166.48 71.76,161.63 74.67,156.87 77.74,152.22 80.96,147.67 84.34,143.23 87.86,138.92 91.53,134.72 95.34,130.65 99.29,126.71 103.37,122.91 107.57,119.25 111.9,115.74 116.35,112.38 120.9,109.16 125.57,106.11 130.33,103.22 135.19,100.49 140.14,97.92 145.17,95.53 150.29,93.31 152.45,98.53 154.61,103.75 156.77,108.96 158.93,114.18 161.1,119.4 163.26,124.62 165.42,129.84 167.58,135.06 169.74,140.27 171.9,145.49 174.07,150.71 176.23,155.93 178.39,161.15 180.55,166.37 182.71,171.59 184.87,176.8 187.03,182.02 189.2,187.24 191.36,192.46 193.52,197.68 195.68,202.9 197.84,208.11 200,213.33 202.17,218.55 204.33,223.77 206.49,228.99 208.65,234.21 210.81,239.42 212.97,244.64 212.97,244.64" stroke="none" fill="rgb(0,191,196)" stroke-width="1.07" stroke-dasharray="none" stroke-opacity="0" fill-opacity="1"/>
                </g>
                <g id="geom_polygon.polygon.2890.1" class="polygon grob gDesc">
                  <polygon id="geom_polygon.polygon.2890.1.1" points="212.97,244.64 210.81,249.86 208.65,255.08 206.49,260.3 204.33,265.52 202.17,270.74 200,275.95 197.84,281.17 195.68,286.39 193.52,291.61 191.36,296.83 189.2,302.05 187.03,307.26 184.87,312.48 182.71,317.7 180.55,322.92 178.39,328.14 176.23,333.36 174.07,338.57 171.9,343.79 169.74,349.01 167.58,354.23 165.42,359.45 163.26,364.67 161.1,369.89 158.93,375.1 156.77,380.32 154.61,385.54 152.45,390.76 150.29,395.98 145.11,393.73 140.02,391.3 135.01,388.7 130.1,385.93 125.28,382.99 120.57,379.89 115.96,376.63 111.47,373.21 107.11,369.64 102.86,365.92 98.75,362.05 94.78,358.05 90.94,353.91 87.25,349.65 83.71,345.25 80.32,340.74 77.09,336.12 74.02,331.38 71.12,326.54 76.01,323.72 80.9,320.9 85.79,318.07 90.68,315.25 95.57,312.42 100.47,309.6 105.36,306.78 110.25,303.95 115.14,301.13 120.03,298.3 124.92,295.48 129.81,292.65 134.71,289.83 139.6,287.01 144.49,284.18 149.38,281.36 154.27,278.53 159.16,275.71 164.06,272.89 168.95,270.06 173.84,267.24 178.73,264.41 183.62,261.59 188.51,258.76 193.41,255.94 198.3,253.12 203.19,250.29 208.08,247.47 212.97,244.64 212.97,244.64" stroke="none" fill="rgb(124,174,0)" stroke-width="1.07" stroke-dasharray="none" stroke-opacity="0" fill-opacity="1"/>
                </g>
                <g id="geom_polygon.polygon.2892.1" class="polygon grob gDesc">
                  <polygon id="geom_polygon.polygon.2892.1.1" points="212.97,244.64 212.97,250.29 212.97,255.94 212.97,261.59 212.97,267.24 212.97,272.89 212.97,278.53 212.97,284.18 212.97,289.83 212.97,295.48 212.97,301.13 212.97,306.78 212.97,312.42 212.97,318.07 212.97,323.72 212.97,329.37 212.97,335.02 212.97,340.67 212.97,346.31 212.97,351.96 212.97,357.61 212.97,363.26 212.97,368.91 212.97,374.56 212.97,380.2 212.97,385.85 212.97,391.5 212.97,397.15 212.97,402.8 212.97,408.45 207.13,408.34 201.29,408.03 195.46,407.51 189.66,406.78 183.89,405.84 178.15,404.7 172.46,403.36 166.82,401.81 161.24,400.06 155.73,398.12 150.29,395.98 152.45,390.76 154.61,385.54 156.77,380.32 158.93,375.1 161.1,369.89 163.26,364.67 165.42,359.45 167.58,354.23 169.74,349.01 171.9,343.79 174.07,338.57 176.23,333.36 178.39,328.14 180.55,322.92 182.71,317.7 184.87,312.48 187.03,307.26 189.2,302.05 191.36,296.83 193.52,291.61 195.68,286.39 197.84,281.17 200,275.95 202.17,270.74 204.33,265.52 206.49,260.3 208.65,255.08 210.81,249.86 212.97,244.64 212.97,244.64" stroke="none" fill="rgb(248,118,109)" stroke-width="1.07" stroke-dasharray="none" stroke-opacity="0" fill-opacity="1"/>
                </g>
              </g>
              <g id="GRID.text.2895.1" class="text grob gDesc">
                <g id="GRID.text.2895.1.1" transform="translate(293.3, 228.66)" stroke-width="0.1">
                  <g id="GRID.text.2895.1.1.scale" transform="scale(1, -1)">
                    <text x="0" y="0" id="GRID.text.2895.1.1.text" text-anchor="middle" stroke="rgb(0,0,0)" font-size="11.04" font-family="Helvetica, Arial, FreeSans, Liberation Sans, Nimbus Sans L, sans-serif" fill="rgb(0,0,0)" stroke-opacity="1" fill-opacity="1" font-weight="normal" font-style="normal">
                      <tspan id="GRID.text.2895.1.1.tspan.1" dy="3.95" x="0">27</tspan>
                    </text>
                  </g>
                </g>
                <g id="GRID.text.2895.1.2" transform="translate(135.42, 218.32)" stroke-width="0.1">
                  <g id="GRID.text.2895.1.2.scale" transform="scale(1, -1)">
                    <text x="0" y="0" id="GRID.text.2895.1.2.text" text-anchor="middle" stroke="rgb(0,0,0)" font-size="11.04" font-family="Helvetica, Arial, FreeSans, Liberation Sans, Nimbus Sans L, sans-serif" fill="rgb(0,0,0)" stroke-opacity="1" fill-opacity="1" font-weight="normal" font-style="normal">
                      <tspan id="GRID.text.2895.1.2.tspan.1" dy="3.95" x="0">13</tspan>
                    </text>
                  </g>
                </g>
                <g id="GRID.text.2895.1.3" transform="translate(158.97, 306.22)" stroke-width="0.1">
                  <g id="GRID.text.2895.1.3.scale" transform="scale(1, -1)">
                    <text x="0" y="0" id="GRID.text.2895.1.3.text" text-anchor="middle" stroke="rgb(0,0,0)" font-size="11.04" font-family="Helvetica, Arial, FreeSans, Liberation Sans, Nimbus Sans L, sans-serif" fill="rgb(0,0,0)" stroke-opacity="1" fill-opacity="1" font-weight="normal" font-style="normal">
                      <tspan id="GRID.text.2895.1.3.tspan.1" dy="3.95" x="0">5</tspan>
                    </text>
                  </g>
                </g>
                <g id="GRID.text.2895.1.4" transform="translate(196.99, 324.97)" stroke-width="0.1">
                  <g id="GRID.text.2895.1.4.scale" transform="scale(1, -1)">
                    <text x="0" y="0" id="GRID.text.2895.1.4.text" text-anchor="middle" stroke="rgb(0,0,0)" font-size="11.04" font-family="Helvetica, Arial, FreeSans, Liberation Sans, Nimbus Sans L, sans-serif" fill="rgb(0,0,0)" stroke-opacity="1" fill-opacity="1" font-weight="normal" font-style="normal">
                      <tspan id="GRID.text.2895.1.4.tspan.1" dy="3.95" x="0">3</tspan>
                    </text>
                  </g>
                </g>
              </g>
              <g id="GRID.gTree.2896.1" class="gTree grob gDesc"/>
            </g>
          </g>
          <g id="layout::spacer.8-6-8-6.1" class="viewport"/>
          <g id="layout::spacer.8-4-8-4.1" class="viewport"/>
          <g id="layout::spacer.6-6-6-6.1" class="viewport"/>
          <g id="layout::spacer.6-4-6-4.1" class="viewport"/>
          <g id="layout::axis-t.6-5-6-5.1" class="viewport"/>
          <g id="layout::axis-l.7-4-7-4.1" class="viewport">
            <g id="layout::axis-l.7-4-7-4::GRID.VP.674.1" class="viewport">
              <g id="axis-l.7-4-7-4.1" class="forcedgrob gTableChild absoluteGrob gTree grob gDesc">
                <g id="layout::axis-l.7-4-7-4::GRID.VP.674::axis.1" class="viewport">
                  <g id="axis.1" class="forcedgrob gtable gTree grob gDesc">
                    <g id="layout::axis-l.7-4-7-4::GRID.VP.674::axis::axis.1-1-1-1.1" class="viewport"/>
                    <g id="layout::axis-l.7-4-7-4::GRID.VP.674::axis::axis.1-2-1-2.1" class="viewport"/>
                  </g>
                </g>
              </g>
            </g>
          </g>
          <g id="layout::axis-r.7-6-7-6.1" class="viewport"/>
          <g id="layout::axis-b.8-5-8-5.1" class="viewport">
            <g id="layout::axis-b.8-5-8-5::GRID.VP.673.1" class="viewport">
              <g id="axis-b.8-5-8-5.1" class="forcedgrob gTableChild absoluteGrob gTree grob gDesc">
                <g id="layout::axis-b.8-5-8-5::GRID.VP.673::axis.1" class="viewport">
                  <g id="axis.2" class="forcedgrob gtable gTree grob gDesc">
                    <g id="layout::axis-b.8-5-8-5::GRID.VP.673::axis::axis.1-1-1-1.1" class="viewport"/>
                    <g id="layout::axis-b.8-5-8-5::GRID.VP.673::axis::axis.2-1-2-1.1" class="viewport"/>
                  </g>
                </g>
              </g>
            </g>
          </g>
          <g id="layout::xlab-t.5-5-5-5.1" class="viewport"/>
          <g id="layout::xlab-b.9-5-9-5.1" class="viewport"/>
          <g id="layout::ylab-l.7-3-7-3.1" class="viewport"/>
          <g id="layout::ylab-r.7-7-7-7.1" class="viewport"/>
          <g id="layout::guide-box.7-9-7-9.1" class="viewport">
            <g id="layout::guide-box.7-9-7-9::GRID.VP.688.1" class="viewport">
              <g id="layout::guide-box.7-9-7-9::GRID.VP.688::guide-box.7-9-7-9.1" class="viewport">
                <g id="guide-box.7-9-7-9.1" class="forcedgrob gTableChild gtable gTree grob gDesc">
                  <g id="layout::guide-box.7-9-7-9::GRID.VP.688::guide-box.7-9-7-9::legend.box.background.2-4-4-2.1" class="viewport"/>
                  <g id="layout::guide-box.7-9-7-9::GRID.VP.688::guide-box.7-9-7-9::guides.3-3-3-3.1" class="viewport">
                    <g id="layout::guide-box.7-9-7-9::GRID.VP.688::guide-box.7-9-7-9::guides.3-3-3-3::GRID.VP.687.1" class="viewport">
                      <g id="layout::guide-box.7-9-7-9::GRID.VP.688::guide-box.7-9-7-9::guides.3-3-3-3::GRID.VP.687::guides.3-3-3-3.1" class="viewport">
                        <g id="guides.3-3-3-3.1" class="forcedgrob gTableChild gtable gTree grob gDesc">
                          <g id="layout::guide-box.7-9-7-9::GRID.VP.688::guide-box.7-9-7-9::guides.3-3-3-3::GRID.VP.687::guides.3-3-3-3::background.1-6-8-1.1" class="viewport">
                            <g id="background.1-6-8-1.1" class="forcedgrob gTableChild rect grob gDesc">
                              <rect id="background.1-6-8-1.1.1" x="428.69" y="201.86" width="69.84" height="85.56" transform="" stroke-width="1.07" stroke="none" fill="rgb(255,255,255)" stroke-dasharray="none" stroke-opacity="0" fill-opacity="1"/>
                            </g>
                          </g>
                          <g id="layout::guide-box.7-9-7-9::GRID.VP.688::guide-box.7-9-7-9::guides.3-3-3-3::GRID.VP.687::guides.3-3-3-3::title.2-5-2-2.1" class="viewport"/>
                          <g id="layout::guide-box.7-9-7-9::GRID.VP.688::guide-box.7-9-7-9::guides.3-3-3-3::GRID.VP.687::guides.3-3-3-3::key-3-1-bg.4-2-4-2.1" class="viewport"/>
                          <g id="layout::guide-box.7-9-7-9::GRID.VP.688::guide-box.7-9-7-9::guides.3-3-3-3::GRID.VP.687::guides.3-3-3-3::key-3-1-1.4-2-4-2.1" class="viewport">
                            <g id="key-3-1-1.4-2-4-2.1" class="forcedgrob gTableChild rect grob gDesc">
                              <rect id="key-3-1-1.4-2-4-2.1.1" x="434.87" y="259.89" width="15.86" height="15.86" transform="" stroke="none" fill="rgb(248,118,109)" stroke-dasharray="none" stroke-width="1.07" stroke-linejoin="miter" stroke-opacity="0" fill-opacity="1"/>
                            </g>
                          </g>
                          <g id="layout::guide-box.7-9-7-9::GRID.VP.688::guide-box.7-9-7-9::guides.3-3-3-3::GRID.VP.687::guides.3-3-3-3::key-4-1-bg.5-2-5-2.1" class="viewport"/>
                          <g id="layout::guide-box.7-9-7-9::GRID.VP.688::guide-box.7-9-7-9::guides.3-3-3-3::GRID.VP.687::guides.3-3-3-3::key-4-1-1.5-2-5-2.1" class="viewport">
                            <g id="key-4-1-1.5-2-5-2.1" class="forcedgrob gTableChild rect grob gDesc">
                              <rect id="key-4-1-1.5-2-5-2.1.1" x="434.87" y="242.61" width="15.86" height="15.86" transform="" stroke="none" fill="rgb(124,174,0)" stroke-dasharray="none" stroke-width="1.07" stroke-linejoin="miter" stroke-opacity="0" fill-opacity="1"/>
                            </g>
                          </g>
                          <g id="layout::guide-box.7-9-7-9::GRID.VP.688::guide-box.7-9-7-9::guides.3-3-3-3::GRID.VP.687::guides.3-3-3-3::key-5-1-bg.6-2-6-2.1" class="viewport"/>
                          <g id="layout::guide-box.7-9-7-9::GRID.VP.688::guide-box.7-9-7-9::guides.3-3-3-3::GRID.VP.687::guides.3-3-3-3::key-5-1-1.6-2-6-2.1" class="viewport">
                            <g id="key-5-1-1.6-2-6-2.1" class="forcedgrob gTableChild rect grob gDesc">
                              <rect id="key-5-1-1.6-2-6-2.1.1" x="434.87" y="225.33" width="15.86" height="15.86" transform="" stroke="none" fill="rgb(0,191,196)" stroke-dasharray="none" stroke-width="1.07" stroke-linejoin="miter" stroke-opacity="0" fill-opacity="1"/>
                            </g>
                          </g>
                          <g id="layout::guide-box.7-9-7-9::GRID.VP.688::guide-box.7-9-7-9::guides.3-3-3-3::GRID.VP.687::guides.3-3-3-3::key-6-1-bg.7-2-7-2.1" class="viewport"/>
                          <g id="layout::guide-box.7-9-7-9::GRID.VP.688::guide-box.7-9-7-9::guides.3-3-3-3::GRID.VP.687::guides.3-3-3-3::key-6-1-1.7-2-7-2.1" class="viewport">
                            <g id="key-6-1-1.7-2-7-2.1" class="forcedgrob gTableChild rect grob gDesc">
                              <rect id="key-6-1-1.7-2-7-2.1.1" x="434.87" y="208.05" width="15.86" height="15.86" transform="" stroke="none" fill="rgb(199,124,255)" stroke-dasharray="none" stroke-width="1.07" stroke-linejoin="miter" stroke-opacity="0" fill-opacity="1"/>
                            </g>
                          </g>
                          <g id="layout::guide-box.7-9-7-9::GRID.VP.688::guide-box.7-9-7-9::guides.3-3-3-3::GRID.VP.687::guides.3-3-3-3::label-3-3.4-4-4-4.1" class="viewport">
                            <g id="layout::guide-box.7-9-7-9::GRID.VP.688::guide-box.7-9-7-9::guides.3-3-3-3::GRID.VP.687::guides.3-3-3-3::label-3-3.4-4-4-4::GRID.VP.683.1" class="viewport">
                              <g id="label-3-3.4-4-4-4.1" class="forcedgrob gTableChild gTree grob gDesc">
                                <g id="layout::guide-box.7-9-7-9::GRID.VP.688::guide-box.7-9-7-9::guides.3-3-3-3::GRID.VP.687::guides.3-3-3-3::label-3-3.4-4-4-4::GRID.VP.683::GRID.VP.675.1" font-size="8.8" stroke="rgb(0,0,0)" font-family="Helvetica, Arial, FreeSans, Liberation Sans, Nimbus Sans L, sans-serif" stroke-opacity="1" font-weight="normal" font-style="normal" class="viewport">
                                  <g id="layout::guide-box.7-9-7-9::GRID.VP.688::guide-box.7-9-7-9::guides.3-3-3-3::GRID.VP.687::guides.3-3-3-3::label-3-3.4-4-4-4::GRID.VP.683::GRID.VP.675::GRID.VP.676.1" class="viewport">
                                    <g id="guide.label.titleGrob.2919.1" class="titleGrob gTree grob gDesc">
                                      <g id="GRID.text.2917.1" class="text grob gDesc">
                                        <g id="GRID.text.2917.1.1" transform="translate(456.92, 267.82)" stroke-width="0.1">
                                          <g id="GRID.text.2917.1.1.scale" transform="scale(1, -1)">
                                            <text x="0" y="0" id="GRID.text.2917.1.1.text" text-anchor="start" font-size="8.8" stroke="rgb(0,0,0)" font-family="Helvetica, Arial, FreeSans, Liberation Sans, Nimbus Sans L, sans-serif" fill="rgb(0,0,0)" stroke-opacity="1" fill-opacity="1" font-weight="normal" font-style="normal">
                                              <tspan id="GRID.text.2917.1.1.tspan.1" dy="3.23" x="0">tutto</tspan>
                                            </text>
                                          </g>
                                        </g>
                                      </g>
                                    </g>
                                  </g>
                                </g>
                              </g>
                            </g>
                          </g>
                          <g id="layout::guide-box.7-9-7-9::GRID.VP.688::guide-box.7-9-7-9::guides.3-3-3-3::GRID.VP.687::guides.3-3-3-3::label-4-3.5-4-5-4.1" class="viewport">
                            <g id="layout::guide-box.7-9-7-9::GRID.VP.688::guide-box.7-9-7-9::guides.3-3-3-3::GRID.VP.687::guides.3-3-3-3::label-4-3.5-4-5-4::GRID.VP.684.1" class="viewport">
                              <g id="label-4-3.5-4-5-4.1" class="forcedgrob gTableChild gTree grob gDesc">
                                <g id="layout::guide-box.7-9-7-9::GRID.VP.688::guide-box.7-9-7-9::guides.3-3-3-3::GRID.VP.687::guides.3-3-3-3::label-4-3.5-4-5-4::GRID.VP.684::GRID.VP.677.1" font-size="8.8" stroke="rgb(0,0,0)" font-family="Helvetica, Arial, FreeSans, Liberation Sans, Nimbus Sans L, sans-serif" stroke-opacity="1" font-weight="normal" font-style="normal" class="viewport">
                                  <g id="layout::guide-box.7-9-7-9::GRID.VP.688::guide-box.7-9-7-9::guides.3-3-3-3::GRID.VP.687::guides.3-3-3-3::label-4-3.5-4-5-4::GRID.VP.684::GRID.VP.677::GRID.VP.678.1" class="viewport">
                                    <g id="guide.label.titleGrob.2922.1" class="titleGrob gTree grob gDesc">
                                      <g id="GRID.text.2920.1" class="text grob gDesc">
                                        <g id="GRID.text.2920.1.1" transform="translate(456.92, 250.54)" stroke-width="0.1">
                                          <g id="GRID.text.2920.1.1.scale" transform="scale(1, -1)">
                                            <text x="0" y="0" id="GRID.text.2920.1.1.text" text-anchor="start" font-size="8.8" stroke="rgb(0,0,0)" font-family="Helvetica, Arial, FreeSans, Liberation Sans, Nimbus Sans L, sans-serif" fill="rgb(0,0,0)" stroke-opacity="1" fill-opacity="1" font-weight="normal" font-style="normal">
                                              <tspan id="GRID.text.2920.1.1.tspan.1" dy="3.23" x="0">avanzato</tspan>
                                            </text>
                                          </g>
                                        </g>
                                      </g>
                                    </g>
                                  </g>
                                </g>
                              </g>
                            </g>
                          </g>
                          <g id="layout::guide-box.7-9-7-9::GRID.VP.688::guide-box.7-9-7-9::guides.3-3-3-3::GRID.VP.687::guides.3-3-3-3::label-5-3.6-4-6-4.1" class="viewport">
                            <g id="layout::guide-box.7-9-7-9::GRID.VP.688::guide-box.7-9-7-9::guides.3-3-3-3::GRID.VP.687::guides.3-3-3-3::label-5-3.6-4-6-4::GRID.VP.685.1" class="viewport">
                              <g id="label-5-3.6-4-6-4.1" class="forcedgrob gTableChild gTree grob gDesc">
                                <g id="layout::guide-box.7-9-7-9::GRID.VP.688::guide-box.7-9-7-9::guides.3-3-3-3::GRID.VP.687::guides.3-3-3-3::label-5-3.6-4-6-4::GRID.VP.685::GRID.VP.679.1" font-size="8.8" stroke="rgb(0,0,0)" font-family="Helvetica, Arial, FreeSans, Liberation Sans, Nimbus Sans L, sans-serif" stroke-opacity="1" font-weight="normal" font-style="normal" class="viewport">
                                  <g id="layout::guide-box.7-9-7-9::GRID.VP.688::guide-box.7-9-7-9::guides.3-3-3-3::GRID.VP.687::guides.3-3-3-3::label-5-3.6-4-6-4::GRID.VP.685::GRID.VP.679::GRID.VP.680.1" class="viewport">
                                    <g id="guide.label.titleGrob.2925.1" class="titleGrob gTree grob gDesc">
                                      <g id="GRID.text.2923.1" class="text grob gDesc">
                                        <g id="GRID.text.2923.1.1" transform="translate(456.92, 233.26)" stroke-width="0.1">
                                          <g id="GRID.text.2923.1.1.scale" transform="scale(1, -1)">
                                            <text x="0" y="0" id="GRID.text.2923.1.1.text" text-anchor="start" font-size="8.8" stroke="rgb(0,0,0)" font-family="Helvetica, Arial, FreeSans, Liberation Sans, Nimbus Sans L, sans-serif" fill="rgb(0,0,0)" stroke-opacity="1" fill-opacity="1" font-weight="normal" font-style="normal">
                                              <tspan id="GRID.text.2923.1.1.tspan.1" dy="3.23" x="0">base</tspan>
                                            </text>
                                          </g>
                                        </g>
                                      </g>
                                    </g>
                                  </g>
                                </g>
                              </g>
                            </g>
                          </g>
                          <g id="layout::guide-box.7-9-7-9::GRID.VP.688::guide-box.7-9-7-9::guides.3-3-3-3::GRID.VP.687::guides.3-3-3-3::label-6-3.7-4-7-4.1" class="viewport">
                            <g id="layout::guide-box.7-9-7-9::GRID.VP.688::guide-box.7-9-7-9::guides.3-3-3-3::GRID.VP.687::guides.3-3-3-3::label-6-3.7-4-7-4::GRID.VP.686.1" class="viewport">
                              <g id="label-6-3.7-4-7-4.1" class="forcedgrob gTableChild gTree grob gDesc">
                                <g id="layout::guide-box.7-9-7-9::GRID.VP.688::guide-box.7-9-7-9::guides.3-3-3-3::GRID.VP.687::guides.3-3-3-3::label-6-3.7-4-7-4::GRID.VP.686::GRID.VP.681.1" font-size="8.8" stroke="rgb(0,0,0)" font-family="Helvetica, Arial, FreeSans, Liberation Sans, Nimbus Sans L, sans-serif" stroke-opacity="1" font-weight="normal" font-style="normal" class="viewport">
                                  <g id="layout::guide-box.7-9-7-9::GRID.VP.688::guide-box.7-9-7-9::guides.3-3-3-3::GRID.VP.687::guides.3-3-3-3::label-6-3.7-4-7-4::GRID.VP.686::GRID.VP.681::GRID.VP.682.1" class="viewport">
                                    <g id="guide.label.titleGrob.2928.1" class="titleGrob gTree grob gDesc">
                                      <g id="GRID.text.2926.1" class="text grob gDesc">
                                        <g id="GRID.text.2926.1.1" transform="translate(456.92, 215.98)" stroke-width="0.1">
                                          <g id="GRID.text.2926.1.1.scale" transform="scale(1, -1)">
                                            <text x="0" y="0" id="GRID.text.2926.1.1.text" text-anchor="start" font-size="8.8" stroke="rgb(0,0,0)" font-family="Helvetica, Arial, FreeSans, Liberation Sans, Nimbus Sans L, sans-serif" fill="rgb(0,0,0)" stroke-opacity="1" fill-opacity="1" font-weight="normal" font-style="normal">
                                              <tspan id="GRID.text.2926.1.1.tspan.1" dy="3.23" x="0">medio</tspan>
                                            </text>
                                          </g>
                                        </g>
                                      </g>
                                    </g>
                                  </g>
                                </g>
                              </g>
                            </g>
                          </g>
                        </g>
                      </g>
                    </g>
                  </g>
                </g>
              </g>
            </g>
          </g>
          <g id="layout::subtitle.4-5-4-5.1" class="viewport"/>
          <g id="layout::title.3-5-3-5.1" class="viewport">
            <g id="layout::title.3-5-3-5::GRID.VP.689.1" font-size="13.2" stroke="rgb(102,102,102)" font-family="Helvetica, Arial, FreeSans, Liberation Sans, Nimbus Sans L, sans-serif" stroke-opacity="1" font-weight="normal" font-style="normal" class="viewport">
              <g id="layout::title.3-5-3-5::GRID.VP.689::GRID.VP.690.1" class="viewport">
                <g id="title.3-5-3-5.1" class="forcedgrob gTableChild titleGrob gTree grob gDesc">
                  <g id="GRID.text.2943.1" class="text grob gDesc">
                    <g id="GRID.text.2943.1.1" transform="translate(212.97, 466.85)" stroke-width="0.1">
                      <g id="GRID.text.2943.1.1.scale" transform="scale(1, -1)">
                        <text x="0" y="0" id="GRID.text.2943.1.1.text" text-anchor="middle" font-size="13.2" stroke="rgb(102,102,102)" font-family="Helvetica, Arial, FreeSans, Liberation Sans, Nimbus Sans L, sans-serif" fill="rgb(102,102,102)" stroke-opacity="1" fill-opacity="1" font-weight="normal" font-style="normal">
                          <tspan id="GRID.text.2943.1.1.tspan.1" dy="9.33" x="0">anagrafica totali-sicurezza</tspan>
                        </text>
                      </g>
                    </g>
                  </g>
                </g>
              </g>
            </g>
          </g>
          <g id="layout::caption.10-5-10-5.1" class="viewport"/>
          <g id="layout::tag.2-2-2-2.1" class="viewport"/>
        </g>
      </g>
    </g>
  </g>
</svg>