<?xml version="1.0" encoding="UTF-8"?>
<svg xmlns="http://www.w3.org/2000/svg" xmlns:xlink="http://www.w3.org/1999/xlink" width="504px" height="504px" viewBox="0 0 504 504" version="1.1">
  <metadata xmlns:gridsvg="http://www.stat.auckland.ac.nz/~paul/R/gridSVG/">
    <gridsvg:generator name="gridSVG" version="1.6-0" time="2019-01-15 00:32:41"/>
    <gridsvg:argument name="name" value="./latest_informaggio_csv/anziani/risultati/svg/anagrafica-annocorso.svg"/>
    <gridsvg:argument name="exportCoords" value="none"/>
    <gridsvg:argument name="exportMappings" value="none"/>
    <gridsvg:argument name="exportJS" value="none"/>
    <gridsvg:argument name="res" value="72"/>
    <gridsvg:argument name="prefix" value=""/>
    <gridsvg:argument name="addClasses" value="TRUE"/>
    <gridsvg:argument name="indent" value="TRUE"/>
    <gridsvg:argument name="htmlWrapper" value="FALSE"/>
    <gridsvg:argument name="usePaths" value="vpPaths"/>
    <gridsvg:argument name="uniqueNames" value="TRUE"/>
    <gridsvg:separator name="id.sep" value="."/>
    <gridsvg:separator name="gPath.sep" value="::"/>
    <gridsvg:separator name="vpPath.sep" value="::"/>
  </metadata>
  <g transform="translate(0, 504) scale(1, -1)">
    <g id="gridSVG" fill="none" stroke="rgb(0,0,0)" stroke-dasharray="none" stroke-width="0.75" font-size="12" font-family="Helvetica, Arial, FreeSans, Liberation Sans, Nimbus Sans L, sans-serif" opacity="1" stroke-linecap="round" stroke-linejoin="round" stroke-miterlimit="10" stroke-opacity="1" fill-opacity="0" font-weight="normal" font-style="normal">
      <g id="layout.1" class="viewport">
        <g id="layout.2" class="forcedgrob gtable gTree grob gDesc">
          <defs>
            <clipPath id="layout::background.1-11-12-1.1.clipPath">
              <rect x="0" y="25.61" width="504" height="452.77" fill="none" stroke="none"/>
            </clipPath>
          </defs>
          <g id="layout::background.1-11-12-1.1" clip-path="url(#layout::background.1-11-12-1.1.clipPath)" class="viewport">
            <g id="background.1-11-12-1.1" class="forcedgrob gTableChild rect grob gDesc">
              <rect id="background.1-11-12-1.1.1" x="0" y="25.61" width="504" height="452.77" transform="" stroke-width="1.07" stroke="rgb(255,255,255)" fill="rgb(255,255,255)" stroke-dasharray="none" stroke-opacity="1" fill-opacity="1"/>
            </g>
          </g>
          <defs>
            <clipPath id="layout::panel.7-5-7-5.1.clipPath">
              <rect x="8.22" y="33.83" width="421.62" height="421.62" fill="none" stroke="none"/>
            </clipPath>
          </defs>
          <g id="layout::panel.7-5-7-5.1" clip-path="url(#layout::panel.7-5-7-5.1.clipPath)" class="viewport">
            <g id="panel.7-5-7-5.1" class="forcedgrob gTableChild gTree grob gDesc">
              <g id="grill.gTree.657.1" class="gTree grob gDesc">
                <g id="panel.background..rect.653.1" class="rect grob gDesc">
                  <rect id="panel.background..rect.653.1.1" x="8.22" y="33.83" width="421.62" height="421.62" transform="" stroke-width="1.07" stroke="none" fill="rgb(255,255,255)" stroke-dasharray="none" stroke-opacity="0" fill-opacity="1"/>
                </g>
              </g>
              <g id="bar.gTree.646.1" class="gTree grob gDesc">
                <g id="geom_polygon.polygon.638.1" class="polygon grob gDesc">
                  <polygon id="geom_polygon.polygon.638.1.1" points="219.03,244.64 224.83,244.28 230.64,243.91 236.44,243.55 242.25,243.18 248.05,242.82 253.85,242.45 259.66,242.09 265.46,241.72 271.27,241.36 277.07,240.99 282.87,240.63 288.68,240.26 294.48,239.9 300.29,239.53 306.09,239.17 311.89,238.8 317.7,238.44 323.5,238.07 329.31,237.71 335.11,237.34 340.91,236.97 346.72,236.61 352.52,236.24 358.33,235.88 364.13,235.51 369.93,235.15 375.74,234.78 381.54,234.42 387.35,234.05 387.61,239.79 387.68,245.53 387.55,251.26 387.23,256.99 386.71,262.71 386,268.41 385.09,274.07 383.99,279.71 382.7,285.3 381.23,290.85 379.56,296.34 377.71,301.77 375.67,307.14 373.45,312.43 371.06,317.65 368.49,322.78 365.74,327.82 362.83,332.76 359.74,337.6 356.5,342.34 353.1,346.96 349.54,351.46 345.83,355.84 341.97,360.09 337.97,364.21 333.83,368.19 329.56,372.02 325.16,375.71 320.64,379.24 316,382.62 311.25,385.84 306.39,388.9 301.43,391.79 296.38,394.51 291.24,397.05 286.01,399.42 280.7,401.61 275.33,403.62 269.88,405.44 264.38,407.08 258.83,408.53 253.23,409.79 247.59,410.86 241.92,411.73 236.22,412.41 230.5,412.9 224.77,413.19 219.03,413.29 219.03,407.48 219.03,401.66 219.03,395.85 219.03,390.03 219.03,384.21 219.03,378.4 219.03,372.58 219.03,366.77 219.03,360.95 219.03,355.14 219.03,349.32 219.03,343.51 219.03,337.69 219.03,331.88 219.03,326.06 219.03,320.24 219.03,314.43 219.03,308.61 219.03,302.8 219.03,296.98 219.03,291.17 219.03,285.35 219.03,279.54 219.03,273.72 219.03,267.9 219.03,262.09 219.03,256.27 219.03,250.46 219.03,244.64 219.03,244.64" stroke="none" fill="rgb(199,124,255)" stroke-width="1.07" stroke-dasharray="none" stroke-opacity="0" fill-opacity="1"/>
                </g>
                <g id="geom_polygon.polygon.640.1" class="polygon grob gDesc">
                  <polygon id="geom_polygon.polygon.640.1.1" points="219.03,244.64 218.3,238.87 217.57,233.1 216.84,227.33 216.11,221.56 215.39,215.8 214.66,210.03 213.93,204.26 213.2,198.49 212.47,192.72 211.74,186.95 211.01,181.18 210.28,175.41 209.55,169.64 208.83,163.87 208.1,158.1 207.37,152.33 206.64,146.56 205.91,140.79 205.18,135.02 204.45,129.25 203.72,123.48 202.99,117.71 202.27,111.94 201.54,106.17 200.81,100.4 200.08,94.63 199.35,88.86 198.62,83.09 197.89,77.32 203.6,76.7 209.32,76.27 215.06,76.04 220.8,76 226.53,76.16 232.26,76.51 237.98,77.06 243.67,77.8 249.33,78.74 254.96,79.87 260.54,81.18 266.08,82.69 271.56,84.39 276.99,86.27 282.34,88.33 287.63,90.58 292.83,93 297.95,95.6 302.97,98.37 307.9,101.31 312.73,104.42 317.44,107.69 322.05,111.11 326.53,114.7 330.89,118.43 335.12,122.31 339.22,126.33 343.17,130.49 346.98,134.78 350.65,139.2 354.16,143.74 357.52,148.39 360.71,153.16 363.74,158.04 366.6,163.01 369.3,168.08 371.81,173.24 374.16,178.48 376.32,183.79 378.3,189.18 380.09,194.63 381.7,200.14 383.12,205.7 384.35,211.31 385.39,216.95 386.24,222.63 386.89,228.33 387.35,234.05 381.54,234.42 375.74,234.78 369.93,235.15 364.13,235.51 358.33,235.88 352.52,236.24 346.72,236.61 340.91,236.97 335.11,237.34 329.31,237.71 323.5,238.07 317.7,238.44 311.89,238.8 306.09,239.17 300.29,239.53 294.48,239.9 288.68,240.26 282.87,240.63 277.07,240.99 271.27,241.36 265.46,241.72 259.66,242.09 253.85,242.45 248.05,242.82 242.25,243.18 236.44,243.55 230.64,243.91 224.83,244.28 219.03,244.64 219.03,244.64" stroke="none" fill="rgb(0,191,196)" stroke-width="1.07" stroke-dasharray="none" stroke-opacity="0" fill-opacity="1"/>
                </g>
                <g id="geom_polygon.polygon.642.1" class="polygon grob gDesc">
                  <polygon id="geom_polygon.polygon.642.1.1" points="219.03,244.64 213.23,245.01 207.42,245.37 201.62,245.74 195.81,246.1 190.01,246.47 184.21,246.83 178.4,247.2 172.6,247.56 166.79,247.93 160.99,248.29 155.19,248.66 149.38,249.03 143.58,249.39 137.77,249.76 131.97,250.12 126.17,250.49 120.36,250.85 114.56,251.22 108.75,251.58 102.95,251.95 97.15,252.31 91.34,252.68 85.54,253.04 79.73,253.41 73.93,253.77 68.13,254.14 62.32,254.5 56.52,254.87 50.71,255.23 50.45,249.46 50.38,243.68 50.52,237.9 50.85,232.13 51.37,226.38 52.1,220.64 53.02,214.94 54.13,209.27 55.44,203.64 56.94,198.05 58.64,192.53 60.52,187.06 62.58,181.66 64.83,176.34 67.26,171.1 69.87,165.94 72.66,160.88 75.61,155.91 78.74,151.05 82.03,146.3 85.48,141.66 89.08,137.14 92.84,132.75 96.75,128.49 100.8,124.37 104.99,120.39 109.32,116.56 113.77,112.87 118.35,109.35 123.04,105.97 127.85,102.77 132.77,99.73 137.78,96.86 142.89,94.16 148.1,91.64 153.38,89.3 158.74,87.14 164.17,85.17 169.67,83.38 175.23,81.78 180.83,80.38 186.48,79.17 192.17,78.15 197.89,77.32 198.62,83.09 199.35,88.86 200.08,94.63 200.81,100.4 201.54,106.17 202.27,111.94 202.99,117.71 203.72,123.48 204.45,129.25 205.18,135.02 205.91,140.79 206.64,146.56 207.37,152.33 208.1,158.1 208.83,163.87 209.55,169.64 210.28,175.41 211.01,181.18 211.74,186.95 212.47,192.72 213.2,198.49 213.93,204.26 214.66,210.03 215.39,215.8 216.11,221.56 216.84,227.33 217.57,233.1 218.3,238.87 219.03,244.64 219.03,244.64" stroke="none" fill="rgb(124,174,0)" stroke-width="1.07" stroke-dasharray="none" stroke-opacity="0" fill-opacity="1"/>
                </g>
                <g id="geom_polygon.polygon.644.1" class="polygon grob gDesc">
                  <polygon id="geom_polygon.polygon.644.1.1" points="219.03,244.64 219.03,250.46 219.03,256.27 219.03,262.09 219.03,267.9 219.03,273.72 219.03,279.54 219.03,285.35 219.03,291.17 219.03,296.98 219.03,302.8 219.03,308.61 219.03,314.43 219.03,320.24 219.03,326.06 219.03,331.88 219.03,337.69 219.03,343.51 219.03,349.32 219.03,355.14 219.03,360.95 219.03,366.77 219.03,372.58 219.03,378.4 219.03,384.21 219.03,390.03 219.03,395.85 219.03,401.66 219.03,407.48 219.03,413.29 213.25,413.19 207.48,412.9 201.72,412.4 195.98,411.71 190.27,410.82 184.59,409.74 178.96,408.46 173.37,406.99 167.83,405.33 162.36,403.48 156.95,401.45 151.61,399.23 146.35,396.83 141.18,394.25 136.1,391.49 131.12,388.57 126.24,385.47 121.47,382.21 116.81,378.78 112.27,375.2 107.86,371.47 103.58,367.58 99.44,363.55 95.43,359.39 91.57,355.08 87.86,350.65 84.31,346.1 80.91,341.42 77.68,336.63 74.61,331.73 71.71,326.73 68.98,321.64 66.43,316.45 64.06,311.18 61.87,305.83 59.87,300.41 58.05,294.92 56.42,289.38 54.99,283.78 53.74,278.14 52.69,272.45 51.83,266.74 51.18,260.99 50.71,255.23 56.52,254.87 62.32,254.5 68.13,254.14 73.93,253.77 79.73,253.41 85.54,253.04 91.34,252.68 97.15,252.31 102.95,251.95 108.75,251.58 114.56,251.22 120.36,250.85 126.17,250.49 131.97,250.12 137.77,249.76 143.58,249.39 149.38,249.03 155.19,248.66 160.99,248.29 166.79,247.93 172.6,247.56 178.4,247.2 184.21,246.83 190.01,246.47 195.81,246.1 201.62,245.74 207.42,245.37 213.23,245.01 219.03,244.64 219.03,244.64" stroke="none" fill="rgb(248,118,109)" stroke-width="1.07" stroke-dasharray="none" stroke-opacity="0" fill-opacity="1"/>
                </g>
              </g>
              <g id="GRID.text.647.1" class="text grob gDesc">
                <g id="GRID.text.647.1.1" transform="translate(280.5, 302.37)" stroke-width="0.1">
                  <g id="GRID.text.647.1.1.scale" transform="scale(1, -1)">
                    <text x="0" y="0" id="GRID.text.647.1.1.text" text-anchor="middle" stroke="rgb(0,0,0)" font-size="11.04" font-family="Helvetica, Arial, FreeSans, Liberation Sans, Nimbus Sans L, sans-serif" fill="rgb(0,0,0)" stroke-opacity="1" fill-opacity="1" font-weight="normal" font-style="normal">
                      <tspan id="GRID.text.647.1.1.tspan.1" dy="3.95" x="0">13</tspan>
                    </text>
                  </g>
                </g>
                <g id="GRID.text.647.1.2" transform="translate(272.78, 179.67)" stroke-width="0.1">
                  <g id="GRID.text.647.1.2.scale" transform="scale(1, -1)">
                    <text x="0" y="0" id="GRID.text.647.1.2.text" text-anchor="middle" stroke="rgb(0,0,0)" font-size="11.04" font-family="Helvetica, Arial, FreeSans, Liberation Sans, Nimbus Sans L, sans-serif" fill="rgb(0,0,0)" stroke-opacity="1" fill-opacity="1" font-weight="normal" font-style="normal">
                      <tspan id="GRID.text.647.1.2.tspan.1" dy="3.95" x="0">13</tspan>
                    </text>
                  </g>
                </g>
                <g id="GRID.text.647.1.3" transform="translate(154.06, 190.89)" stroke-width="0.1">
                  <g id="GRID.text.647.1.3.scale" transform="scale(1, -1)">
                    <text x="0" y="0" id="GRID.text.647.1.3.text" text-anchor="middle" stroke="rgb(0,0,0)" font-size="11.04" font-family="Helvetica, Arial, FreeSans, Liberation Sans, Nimbus Sans L, sans-serif" fill="rgb(0,0,0)" stroke-opacity="1" fill-opacity="1" font-weight="normal" font-style="normal">
                      <tspan id="GRID.text.647.1.3.tspan.1" dy="3.95" x="0">12</tspan>
                    </text>
                  </g>
                </g>
                <g id="GRID.text.647.1.4" transform="translate(161.31, 306.11)" stroke-width="0.1">
                  <g id="GRID.text.647.1.4.scale" transform="scale(1, -1)">
                    <text x="0" y="0" id="GRID.text.647.1.4.text" text-anchor="middle" stroke="rgb(0,0,0)" font-size="11.04" font-family="Helvetica, Arial, FreeSans, Liberation Sans, Nimbus Sans L, sans-serif" fill="rgb(0,0,0)" stroke-opacity="1" fill-opacity="1" font-weight="normal" font-style="normal">
                      <tspan id="GRID.text.647.1.4.tspan.1" dy="3.95" x="0">12</tspan>
                    </text>
                  </g>
                </g>
              </g>
              <g id="GRID.gTree.648.1" class="gTree grob gDesc"/>
            </g>
          </g>
          <g id="layout::spacer.8-6-8-6.1" class="viewport"/>
          <g id="layout::spacer.8-4-8-4.1" class="viewport"/>
          <g id="layout::spacer.6-6-6-6.1" class="viewport"/>
          <g id="layout::spacer.6-4-6-4.1" class="viewport"/>
          <g id="layout::axis-t.6-5-6-5.1" class="viewport"/>
          <g id="layout::axis-l.7-4-7-4.1" class="viewport">
            <g id="layout::axis-l.7-4-7-4::GRID.VP.155.1" class="viewport">
              <g id="axis-l.7-4-7-4.1" class="forcedgrob gTableChild absoluteGrob gTree grob gDesc">
                <g id="layout::axis-l.7-4-7-4::GRID.VP.155::axis.1" class="viewport">
                  <g id="axis.1" class="forcedgrob gtable gTree grob gDesc">
                    <g id="layout::axis-l.7-4-7-4::GRID.VP.155::axis::axis.1-1-1-1.1" class="viewport"/>
                    <g id="layout::axis-l.7-4-7-4::GRID.VP.155::axis::axis.1-2-1-2.1" class="viewport"/>
                  </g>
                </g>
              </g>
            </g>
          </g>
          <g id="layout::axis-r.7-6-7-6.1" class="viewport"/>
          <g id="layout::axis-b.8-5-8-5.1" class="viewport">
            <g id="layout::axis-b.8-5-8-5::GRID.VP.154.1" class="viewport">
              <g id="axis-b.8-5-8-5.1" class="forcedgrob gTableChild absoluteGrob gTree grob gDesc">
                <g id="layout::axis-b.8-5-8-5::GRID.VP.154::axis.1" class="viewport">
                  <g id="axis.2" class="forcedgrob gtable gTree grob gDesc">
                    <g id="layout::axis-b.8-5-8-5::GRID.VP.154::axis::axis.1-1-1-1.1" class="viewport"/>
                    <g id="layout::axis-b.8-5-8-5::GRID.VP.154::axis::axis.2-1-2-1.1" class="viewport"/>
                  </g>
                </g>
              </g>
            </g>
          </g>
          <g id="layout::xlab-t.5-5-5-5.1" class="viewport"/>
          <g id="layout::xlab-b.9-5-9-5.1" class="viewport"/>
          <g id="layout::ylab-l.7-3-7-3.1" class="viewport"/>
          <g id="layout::ylab-r.7-7-7-7.1" class="viewport"/>
          <g id="layout::guide-box.7-9-7-9.1" class="viewport">
            <g id="layout::guide-box.7-9-7-9::GRID.VP.169.1" class="viewport">
              <g id="layout::guide-box.7-9-7-9::GRID.VP.169::guide-box.7-9-7-9.1" class="viewport">
                <g id="guide-box.7-9-7-9.1" class="forcedgrob gTableChild gtable gTree grob gDesc">
                  <g id="layout::guide-box.7-9-7-9::GRID.VP.169::guide-box.7-9-7-9::legend.box.background.2-4-4-2.1" class="viewport"/>
                  <g id="layout::guide-box.7-9-7-9::GRID.VP.169::guide-box.7-9-7-9::guides.3-3-3-3.1" class="viewport">
                    <g id="layout::guide-box.7-9-7-9::GRID.VP.169::guide-box.7-9-7-9::guides.3-3-3-3::GRID.VP.168.1" class="viewport">
                      <g id="layout::guide-box.7-9-7-9::GRID.VP.169::guide-box.7-9-7-9::guides.3-3-3-3::GRID.VP.168::guides.3-3-3-3.1" class="viewport">
                        <g id="guides.3-3-3-3.1" class="forcedgrob gTableChild gtable gTree grob gDesc">
                          <g id="layout::guide-box.7-9-7-9::GRID.VP.169::guide-box.7-9-7-9::guides.3-3-3-3::GRID.VP.168::guides.3-3-3-3::background.1-6-8-1.1" class="viewport">
                            <g id="background.1-6-8-1.1" class="forcedgrob gTableChild rect grob gDesc">
                              <rect id="background.1-6-8-1.1.1" x="440.8" y="201.86" width="57.72" height="85.56" transform="" stroke-width="1.07" stroke="none" fill="rgb(255,255,255)" stroke-dasharray="none" stroke-opacity="0" fill-opacity="1"/>
                            </g>
                          </g>
                          <g id="layout::guide-box.7-9-7-9::GRID.VP.169::guide-box.7-9-7-9::guides.3-3-3-3::GRID.VP.168::guides.3-3-3-3::title.2-5-2-2.1" class="viewport"/>
                          <g id="layout::guide-box.7-9-7-9::GRID.VP.169::guide-box.7-9-7-9::guides.3-3-3-3::GRID.VP.168::guides.3-3-3-3::key-3-1-bg.4-2-4-2.1" class="viewport"/>
                          <g id="layout::guide-box.7-9-7-9::GRID.VP.169::guide-box.7-9-7-9::guides.3-3-3-3::GRID.VP.168::guides.3-3-3-3::key-3-1-1.4-2-4-2.1" class="viewport">
                            <g id="key-3-1-1.4-2-4-2.1" class="forcedgrob gTableChild rect grob gDesc">
                              <rect id="key-3-1-1.4-2-4-2.1.1" x="446.99" y="259.89" width="15.86" height="15.86" transform="" stroke="none" fill="rgb(248,118,109)" stroke-dasharray="none" stroke-width="1.07" stroke-linejoin="miter" stroke-opacity="0" fill-opacity="1"/>
                            </g>
                          </g>
                          <g id="layout::guide-box.7-9-7-9::GRID.VP.169::guide-box.7-9-7-9::guides.3-3-3-3::GRID.VP.168::guides.3-3-3-3::key-4-1-bg.5-2-5-2.1" class="viewport"/>
                          <g id="layout::guide-box.7-9-7-9::GRID.VP.169::guide-box.7-9-7-9::guides.3-3-3-3::GRID.VP.168::guides.3-3-3-3::key-4-1-1.5-2-5-2.1" class="viewport">
                            <g id="key-4-1-1.5-2-5-2.1" class="forcedgrob gTableChild rect grob gDesc">
                              <rect id="key-4-1-1.5-2-5-2.1.1" x="446.99" y="242.61" width="15.86" height="15.86" transform="" stroke="none" fill="rgb(124,174,0)" stroke-dasharray="none" stroke-width="1.07" stroke-linejoin="miter" stroke-opacity="0" fill-opacity="1"/>
                            </g>
                          </g>
                          <g id="layout::guide-box.7-9-7-9::GRID.VP.169::guide-box.7-9-7-9::guides.3-3-3-3::GRID.VP.168::guides.3-3-3-3::key-5-1-bg.6-2-6-2.1" class="viewport"/>
                          <g id="layout::guide-box.7-9-7-9::GRID.VP.169::guide-box.7-9-7-9::guides.3-3-3-3::GRID.VP.168::guides.3-3-3-3::key-5-1-1.6-2-6-2.1" class="viewport">
                            <g id="key-5-1-1.6-2-6-2.1" class="forcedgrob gTableChild rect grob gDesc">
                              <rect id="key-5-1-1.6-2-6-2.1.1" x="446.99" y="225.33" width="15.86" height="15.86" transform="" stroke="none" fill="rgb(0,191,196)" stroke-dasharray="none" stroke-width="1.07" stroke-linejoin="miter" stroke-opacity="0" fill-opacity="1"/>
                            </g>
                          </g>
                          <g id="layout::guide-box.7-9-7-9::GRID.VP.169::guide-box.7-9-7-9::guides.3-3-3-3::GRID.VP.168::guides.3-3-3-3::key-6-1-bg.7-2-7-2.1" class="viewport"/>
                          <g id="layout::guide-box.7-9-7-9::GRID.VP.169::guide-box.7-9-7-9::guides.3-3-3-3::GRID.VP.168::guides.3-3-3-3::key-6-1-1.7-2-7-2.1" class="viewport">
                            <g id="key-6-1-1.7-2-7-2.1" class="forcedgrob gTableChild rect grob gDesc">
                              <rect id="key-6-1-1.7-2-7-2.1.1" x="446.99" y="208.05" width="15.86" height="15.86" transform="" stroke="none" fill="rgb(199,124,255)" stroke-dasharray="none" stroke-width="1.07" stroke-linejoin="miter" stroke-opacity="0" fill-opacity="1"/>
                            </g>
                          </g>
                          <g id="layout::guide-box.7-9-7-9::GRID.VP.169::guide-box.7-9-7-9::guides.3-3-3-3::GRID.VP.168::guides.3-3-3-3::label-3-3.4-4-4-4.1" class="viewport">
                            <g id="layout::guide-box.7-9-7-9::GRID.VP.169::guide-box.7-9-7-9::guides.3-3-3-3::GRID.VP.168::guides.3-3-3-3::label-3-3.4-4-4-4::GRID.VP.164.1" class="viewport">
                              <g id="label-3-3.4-4-4-4.1" class="forcedgrob gTableChild gTree grob gDesc">
                                <g id="layout::guide-box.7-9-7-9::GRID.VP.169::guide-box.7-9-7-9::guides.3-3-3-3::GRID.VP.168::guides.3-3-3-3::label-3-3.4-4-4-4::GRID.VP.164::GRID.VP.156.1" font-size="8.8" stroke="rgb(0,0,0)" font-family="Helvetica, Arial, FreeSans, Liberation Sans, Nimbus Sans L, sans-serif" stroke-opacity="1" font-weight="normal" font-style="normal" class="viewport">
                                  <g id="layout::guide-box.7-9-7-9::GRID.VP.169::guide-box.7-9-7-9::guides.3-3-3-3::GRID.VP.168::guides.3-3-3-3::label-3-3.4-4-4-4::GRID.VP.164::GRID.VP.156::GRID.VP.157.1" class="viewport">
                                    <g id="guide.label.titleGrob.671.1" class="titleGrob gTree grob gDesc">
                                      <g id="GRID.text.669.1" class="text grob gDesc">
                                        <g id="GRID.text.669.1.1" transform="translate(469.04, 267.82)" stroke-width="0.1">
                                          <g id="GRID.text.669.1.1.scale" transform="scale(1, -1)">
                                            <text x="0" y="0" id="GRID.text.669.1.1.text" text-anchor="start" font-size="8.8" stroke="rgb(0,0,0)" font-family="Helvetica, Arial, FreeSans, Liberation Sans, Nimbus Sans L, sans-serif" fill="rgb(0,0,0)" stroke-opacity="1" fill-opacity="1" font-weight="normal" font-style="normal">
                                              <tspan id="GRID.text.669.1.1.tspan.1" dy="3.23" x="0">F (12)</tspan>
                                            </text>
                                          </g>
                                        </g>
                                      </g>
                                    </g>
                                  </g>
                                </g>
                              </g>
                            </g>
                          </g>
                          <g id="layout::guide-box.7-9-7-9::GRID.VP.169::guide-box.7-9-7-9::guides.3-3-3-3::GRID.VP.168::guides.3-3-3-3::label-4-3.5-4-5-4.1" class="viewport">
                            <g id="layout::guide-box.7-9-7-9::GRID.VP.169::guide-box.7-9-7-9::guides.3-3-3-3::GRID.VP.168::guides.3-3-3-3::label-4-3.5-4-5-4::GRID.VP.165.1" class="viewport">
                              <g id="label-4-3.5-4-5-4.1" class="forcedgrob gTableChild gTree grob gDesc">
                                <g id="layout::guide-box.7-9-7-9::GRID.VP.169::guide-box.7-9-7-9::guides.3-3-3-3::GRID.VP.168::guides.3-3-3-3::label-4-3.5-4-5-4::GRID.VP.165::GRID.VP.158.1" font-size="8.8" stroke="rgb(0,0,0)" font-family="Helvetica, Arial, FreeSans, Liberation Sans, Nimbus Sans L, sans-serif" stroke-opacity="1" font-weight="normal" font-style="normal" class="viewport">
                                  <g id="layout::guide-box.7-9-7-9::GRID.VP.169::guide-box.7-9-7-9::guides.3-3-3-3::GRID.VP.168::guides.3-3-3-3::label-4-3.5-4-5-4::GRID.VP.165::GRID.VP.158::GRID.VP.159.1" class="viewport">
                                    <g id="guide.label.titleGrob.674.1" class="titleGrob gTree grob gDesc">
                                      <g id="GRID.text.672.1" class="text grob gDesc">
                                        <g id="GRID.text.672.1.1" transform="translate(469.04, 250.54)" stroke-width="0.1">
                                          <g id="GRID.text.672.1.1.scale" transform="scale(1, -1)">
                                            <text x="0" y="0" id="GRID.text.672.1.1.text" text-anchor="start" font-size="8.8" stroke="rgb(0,0,0)" font-family="Helvetica, Arial, FreeSans, Liberation Sans, Nimbus Sans L, sans-serif" fill="rgb(0,0,0)" stroke-opacity="1" fill-opacity="1" font-weight="normal" font-style="normal">
                                              <tspan id="GRID.text.672.1.1.tspan.1" dy="3.23" x="0">2 (12)</tspan>
                                            </text>
                                          </g>
                                        </g>
                                      </g>
                                    </g>
                                  </g>
                                </g>
                              </g>
                            </g>
                          </g>
                          <g id="layout::guide-box.7-9-7-9::GRID.VP.169::guide-box.7-9-7-9::guides.3-3-3-3::GRID.VP.168::guides.3-3-3-3::label-5-3.6-4-6-4.1" class="viewport">
                            <g id="layout::guide-box.7-9-7-9::GRID.VP.169::guide-box.7-9-7-9::guides.3-3-3-3::GRID.VP.168::guides.3-3-3-3::label-5-3.6-4-6-4::GRID.VP.166.1" class="viewport">
                              <g id="label-5-3.6-4-6-4.1" class="forcedgrob gTableChild gTree grob gDesc">
                                <g id="layout::guide-box.7-9-7-9::GRID.VP.169::guide-box.7-9-7-9::guides.3-3-3-3::GRID.VP.168::guides.3-3-3-3::label-5-3.6-4-6-4::GRID.VP.166::GRID.VP.160.1" font-size="8.8" stroke="rgb(0,0,0)" font-family="Helvetica, Arial, FreeSans, Liberation Sans, Nimbus Sans L, sans-serif" stroke-opacity="1" font-weight="normal" font-style="normal" class="viewport">
                                  <g id="layout::guide-box.7-9-7-9::GRID.VP.169::guide-box.7-9-7-9::guides.3-3-3-3::GRID.VP.168::guides.3-3-3-3::label-5-3.6-4-6-4::GRID.VP.166::GRID.VP.160::GRID.VP.161.1" class="viewport">
                                    <g id="guide.label.titleGrob.677.1" class="titleGrob gTree grob gDesc">
                                      <g id="GRID.text.675.1" class="text grob gDesc">
                                        <g id="GRID.text.675.1.1" transform="translate(469.04, 233.26)" stroke-width="0.1">
                                          <g id="GRID.text.675.1.1.scale" transform="scale(1, -1)">
                                            <text x="0" y="0" id="GRID.text.675.1.1.text" text-anchor="start" font-size="8.8" stroke="rgb(0,0,0)" font-family="Helvetica, Arial, FreeSans, Liberation Sans, Nimbus Sans L, sans-serif" fill="rgb(0,0,0)" stroke-opacity="1" fill-opacity="1" font-weight="normal" font-style="normal">
                                              <tspan id="GRID.text.675.1.1.tspan.1" dy="3.23" x="0">3 (13)</tspan>
                                            </text>
                                          </g>
                                        </g>
                                      </g>
                                    </g>
                                  </g>
                                </g>
                              </g>
                            </g>
                          </g>
                          <g id="layout::guide-box.7-9-7-9::GRID.VP.169::guide-box.7-9-7-9::guides.3-3-3-3::GRID.VP.168::guides.3-3-3-3::label-6-3.7-4-7-4.1" class="viewport">
                            <g id="layout::guide-box.7-9-7-9::GRID.VP.169::guide-box.7-9-7-9::guides.3-3-3-3::GRID.VP.168::guides.3-3-3-3::label-6-3.7-4-7-4::GRID.VP.167.1" class="viewport">
                              <g id="label-6-3.7-4-7-4.1" class="forcedgrob gTableChild gTree grob gDesc">
                                <g id="layout::guide-box.7-9-7-9::GRID.VP.169::guide-box.7-9-7-9::guides.3-3-3-3::GRID.VP.168::guides.3-3-3-3::label-6-3.7-4-7-4::GRID.VP.167::GRID.VP.162.1" font-size="8.8" stroke="rgb(0,0,0)" font-family="Helvetica, Arial, FreeSans, Liberation Sans, Nimbus Sans L, sans-serif" stroke-opacity="1" font-weight="normal" font-style="normal" class="viewport">
                                  <g id="layout::guide-box.7-9-7-9::GRID.VP.169::guide-box.7-9-7-9::guides.3-3-3-3::GRID.VP.168::guides.3-3-3-3::label-6-3.7-4-7-4::GRID.VP.167::GRID.VP.162::GRID.VP.163.1" class="viewport">
                                    <g id="guide.label.titleGrob.680.1" class="titleGrob gTree grob gDesc">
                                      <g id="GRID.text.678.1" class="text grob gDesc">
                                        <g id="GRID.text.678.1.1" transform="translate(469.04, 215.98)" stroke-width="0.1">
                                          <g id="GRID.text.678.1.1.scale" transform="scale(1, -1)">
                                            <text x="0" y="0" id="GRID.text.678.1.1.text" text-anchor="start" font-size="8.8" stroke="rgb(0,0,0)" font-family="Helvetica, Arial, FreeSans, Liberation Sans, Nimbus Sans L, sans-serif" fill="rgb(0,0,0)" stroke-opacity="1" fill-opacity="1" font-weight="normal" font-style="normal">
                                              <tspan id="GRID.text.678.1.1.tspan.1" dy="3.23" x="0">1 (13)</tspan>
                                            </text>
                                          </g>
                                        </g>
                                      </g>
                                    </g>
                                  </g>
                                </g>
                              </g>
                            </g>
                          </g>
                        </g>
                      </g>
                    </g>
                  </g>
                </g>
              </g>
            </g>
          </g>
          <g id="layout::subtitle.4-5-4-5.1" class="viewport"/>
          <g id="layout::title.3-5-3-5.1" class="viewport">
            <g id="layout::title.3-5-3-5::GRID.VP.170.1" font-size="13.2" stroke="rgb(102,102,102)" font-family="Helvetica, Arial, FreeSans, Liberation Sans, Nimbus Sans L, sans-serif" stroke-opacity="1" font-weight="normal" font-style="normal" class="viewport">
              <g id="layout::title.3-5-3-5::GRID.VP.170::GRID.VP.171.1" class="viewport">
                <g id="title.3-5-3-5.1" class="forcedgrob gTableChild titleGrob gTree grob gDesc">
                  <g id="GRID.text.695.1" class="text grob gDesc">
                    <g id="GRID.text.695.1.1" transform="translate(219.03, 472.91)" stroke-width="0.1">
                      <g id="GRID.text.695.1.1.scale" transform="scale(1, -1)">
                        <text x="0" y="0" id="GRID.text.695.1.1.text" text-anchor="middle" font-size="13.2" stroke="rgb(102,102,102)" font-family="Helvetica, Arial, FreeSans, Liberation Sans, Nimbus Sans L, sans-serif" fill="rgb(102,102,102)" stroke-opacity="1" fill-opacity="1" font-weight="normal" font-style="normal">
                          <tspan id="GRID.text.695.1.1.tspan.1" dy="9.33" x="0">anagrafica annocorso</tspan>
                        </text>
                      </g>
                    </g>
                  </g>
                </g>
              </g>
            </g>
          </g>
          <g id="layout::caption.10-5-10-5.1" class="viewport"/>
          <g id="layout::tag.2-2-2-2.1" class="viewport"/>
        </g>
      </g>
    </g>
  </g>
</svg>