<?xml version="1.0" encoding="UTF-8"?>
<svg xmlns="http://www.w3.org/2000/svg" xmlns:xlink="http://www.w3.org/1999/xlink" width="504px" height="504px" viewBox="0 0 504 504" version="1.1">
  <metadata xmlns:gridsvg="http://www.stat.auckland.ac.nz/~paul/R/gridSVG/">
    <gridsvg:generator name="gridSVG" version="1.6-0" time="2019-01-15 00:32:58"/>
    <gridsvg:argument name="name" value="./latest_informaggio_csv/anziani/risultati/svg/anagrafica-espertoliceo.svg"/>
    <gridsvg:argument name="exportCoords" value="none"/>
    <gridsvg:argument name="exportMappings" value="none"/>
    <gridsvg:argument name="exportJS" value="none"/>
    <gridsvg:argument name="res" value="72"/>
    <gridsvg:argument name="prefix" value=""/>
    <gridsvg:argument name="addClasses" value="TRUE"/>
    <gridsvg:argument name="indent" value="TRUE"/>
    <gridsvg:argument name="htmlWrapper" value="FALSE"/>
    <gridsvg:argument name="usePaths" value="vpPaths"/>
    <gridsvg:argument name="uniqueNames" value="TRUE"/>
    <gridsvg:separator name="id.sep" value="."/>
    <gridsvg:separator name="gPath.sep" value="::"/>
    <gridsvg:separator name="vpPath.sep" value="::"/>
  </metadata>
  <g transform="translate(0, 504) scale(1, -1)">
    <g id="gridSVG" fill="none" stroke="rgb(0,0,0)" stroke-dasharray="none" stroke-width="0.75" font-size="12" font-family="Helvetica, Arial, FreeSans, Liberation Sans, Nimbus Sans L, sans-serif" opacity="1" stroke-linecap="round" stroke-linejoin="round" stroke-miterlimit="10" stroke-opacity="1" fill-opacity="0" font-weight="normal" font-style="normal">
      <g id="layout.1" class="viewport">
        <g id="layout.2" class="forcedgrob gtable gTree grob gDesc">
          <defs>
            <clipPath id="layout::background.1-11-12-1.1.clipPath">
              <rect x="0" y="26.11" width="504" height="451.77" fill="none" stroke="none"/>
            </clipPath>
          </defs>
          <g id="layout::background.1-11-12-1.1" clip-path="url(#layout::background.1-11-12-1.1.clipPath)" class="viewport">
            <g id="background.1-11-12-1.1" class="forcedgrob gTableChild rect grob gDesc">
              <rect id="background.1-11-12-1.1.1" x="0" y="26.11" width="504" height="451.77" transform="" stroke-width="1.07" stroke="rgb(255,255,255)" fill="rgb(255,255,255)" stroke-dasharray="none" stroke-opacity="1" fill-opacity="1"/>
            </g>
          </g>
          <defs>
            <clipPath id="layout::panel.7-5-7-5.1.clipPath">
              <rect x="8.22" y="34.33" width="420.62" height="420.62" fill="none" stroke="none"/>
            </clipPath>
          </defs>
          <g id="layout::panel.7-5-7-5.1" clip-path="url(#layout::panel.7-5-7-5.1.clipPath)" class="viewport">
            <g id="panel.7-5-7-5.1" class="forcedgrob gTableChild gTree grob gDesc">
              <g id="grill.gTree.1776.1" class="gTree grob gDesc">
                <g id="panel.background..rect.1772.1" class="rect grob gDesc">
                  <rect id="panel.background..rect.1772.1.1" x="8.22" y="34.33" width="420.62" height="420.62" transform="" stroke-width="1.07" stroke="none" fill="rgb(255,255,255)" stroke-dasharray="none" stroke-opacity="0" fill-opacity="1"/>
                </g>
              </g>
              <g id="bar.gTree.1765.1" class="gTree grob gDesc">
                <g id="geom_polygon.polygon.1761.1" class="polygon grob gDesc">
                  <polygon id="geom_polygon.polygon.1761.1.1" points="218.53,244.64 213.28,242.17 208.03,239.7 202.78,237.23 197.53,234.76 192.28,232.29 187.03,229.82 181.78,227.35 176.53,224.88 171.28,222.41 166.04,219.94 160.79,217.47 155.54,215 150.29,212.53 145.04,210.06 139.79,207.59 134.54,205.12 129.29,202.65 124.04,200.18 118.79,197.71 113.54,195.24 108.29,192.77 103.04,190.3 97.79,187.83 92.54,185.36 87.29,182.89 82.04,180.42 76.79,177.95 71.54,175.48 66.29,173.01 68.81,167.89 71.5,162.85 74.36,157.92 77.38,153.08 80.56,148.35 83.91,143.72 87.41,139.22 91.06,134.83 94.85,130.57 98.79,126.45 102.87,122.46 107.08,118.6 111.41,114.9 115.87,111.34 120.45,107.94 125.14,104.69 129.94,101.61 134.84,98.68 139.84,95.93 144.93,93.35 150.1,90.94 155.35,88.71 160.67,86.66 166.06,84.79 171.51,83.1 177.01,81.6 182.57,80.28 188.16,79.16 193.79,78.22 199.44,77.48 205.12,76.93 210.81,76.57 216.52,76.41 222.22,76.43 227.92,76.66 233.61,77.07 239.28,77.68 244.93,78.48 250.55,79.47 256.13,80.65 261.67,82.02 267.16,83.58 272.59,85.32 277.96,87.24 283.26,89.35 288.49,91.63 293.64,94.09 298.7,96.72 303.67,99.53 308.54,102.5 313.31,105.63 317.97,108.92 322.51,112.37 326.94,115.97 331.24,119.72 335.41,123.62 339.44,127.65 343.34,131.81 347.09,136.11 350.7,140.53 354.15,145.07 357.45,149.73 360.59,154.49 363.56,159.36 366.37,164.32 369.01,169.38 371.47,174.53 373.76,179.75 375.87,185.05 377.8,190.42 379.55,195.85 381.11,201.34 382.49,206.88 383.67,212.46 384.67,218.07 385.47,223.72 386.09,229.39 386.51,235.08 386.73,240.78 386.77,246.49 386.61,252.19 386.26,257.89 385.71,263.56 384.97,269.22 384.05,274.85 382.93,280.44 381.62,286 380.12,291.5 378.44,296.95 376.57,302.35 374.53,307.67 372.3,312.92 369.9,318.1 367.32,323.19 364.57,328.19 361.66,333.09 358.58,337.89 355.33,342.58 351.93,347.17 348.38,351.63 344.68,355.97 340.83,360.18 336.85,364.26 332.72,368.21 328.47,372.01 324.09,375.66 319.58,379.16 314.97,382.51 310.24,385.7 305.4,388.73 300.47,391.59 295.44,394.29 290.32,396.81 285.12,399.15 279.84,401.32 274.5,403.31 269.08,405.12 263.61,406.74 258.09,408.17 252.53,409.42 246.92,410.48 241.28,411.35 235.62,412.02 229.93,412.51 224.23,412.8 218.53,412.89 218.53,407.09 218.53,401.29 218.53,395.49 218.53,389.69 218.53,383.88 218.53,378.08 218.53,372.28 218.53,366.48 218.53,360.68 218.53,354.88 218.53,349.07 218.53,343.27 218.53,337.47 218.53,331.67 218.53,325.87 218.53,320.07 218.53,314.26 218.53,308.46 218.53,302.66 218.53,296.86 218.53,291.06 218.53,285.25 218.53,279.45 218.53,273.65 218.53,267.85 218.53,262.05 218.53,256.25 218.53,250.44 218.53,244.64 218.53,244.64" stroke="none" fill="rgb(0,191,196)" stroke-width="1.07" stroke-dasharray="none" stroke-opacity="0" fill-opacity="1"/>
                </g>
                <g id="geom_polygon.polygon.1763.1" class="polygon grob gDesc">
                  <polygon id="geom_polygon.polygon.1763.1.1" points="218.53,244.64 218.53,250.44 218.53,256.25 218.53,262.05 218.53,267.85 218.53,273.65 218.53,279.45 218.53,285.25 218.53,291.06 218.53,296.86 218.53,302.66 218.53,308.46 218.53,314.26 218.53,320.07 218.53,325.87 218.53,331.67 218.53,337.47 218.53,343.27 218.53,349.07 218.53,354.88 218.53,360.68 218.53,366.48 218.53,372.28 218.53,378.08 218.53,383.88 218.53,389.69 218.53,395.49 218.53,401.29 218.53,407.09 218.53,412.89 212.8,412.79 207.07,412.5 201.36,412.01 195.67,411.33 190,410.46 184.37,409.39 178.77,408.13 173.23,406.68 167.73,405.04 162.3,403.22 156.93,401.21 151.63,399.02 146.41,396.65 141.27,394.1 136.22,391.38 131.27,388.5 126.42,385.44 121.68,382.22 117.05,378.84 112.53,375.3 108.14,371.62 103.88,367.78 99.75,363.8 95.76,359.69 91.91,355.44 88.21,351.06 84.66,346.56 81.26,341.94 78.03,337.2 74.96,332.36 72.05,327.42 69.32,322.38 66.75,317.25 64.37,312.04 62.16,306.75 60.14,301.38 58.3,295.95 56.64,290.46 55.17,284.92 53.9,279.33 52.81,273.7 51.92,268.04 51.22,262.35 50.71,256.64 50.4,250.91 50.28,245.18 50.36,239.45 50.64,233.72 51.11,228.01 51.77,222.31 52.63,216.64 53.68,211.01 54.92,205.41 56.35,199.86 57.97,194.36 59.78,188.92 61.77,183.54 63.94,178.23 66.29,173.01 71.54,175.48 76.79,177.95 82.04,180.42 87.29,182.89 92.54,185.36 97.79,187.83 103.04,190.3 108.29,192.77 113.54,195.24 118.79,197.71 124.04,200.18 129.29,202.65 134.54,205.12 139.79,207.59 145.04,210.06 150.29,212.53 155.54,215 160.79,217.47 166.04,219.94 171.28,222.41 176.53,224.88 181.78,227.35 187.03,229.82 192.28,232.29 197.53,234.76 202.78,237.23 208.03,239.7 213.28,242.17 218.53,244.64 218.53,244.64" stroke="none" fill="rgb(248,118,109)" stroke-width="1.07" stroke-dasharray="none" stroke-opacity="0" fill-opacity="1"/>
                </g>
              </g>
              <g id="GRID.text.1766.1" class="text grob gDesc">
                <g id="GRID.text.1766.1.1" transform="translate(289.56, 199.57)" stroke-width="0.1">
                  <g id="GRID.text.1766.1.1.scale" transform="scale(1, -1)">
                    <text x="0" y="0" id="GRID.text.1766.1.1.text" text-anchor="middle" stroke="rgb(0,0,0)" font-size="11.04" font-family="Helvetica, Arial, FreeSans, Liberation Sans, Nimbus Sans L, sans-serif" fill="rgb(0,0,0)" stroke-opacity="1" fill-opacity="1" font-weight="normal" font-style="normal">
                      <tspan id="GRID.text.1766.1.1.tspan.1" dy="3.95" x="0">34</tspan>
                    </text>
                  </g>
                </g>
                <g id="GRID.text.1766.1.2" transform="translate(147.5, 289.72)" stroke-width="0.1">
                  <g id="GRID.text.1766.1.2.scale" transform="scale(1, -1)">
                    <text x="0" y="0" id="GRID.text.1766.1.2.text" text-anchor="middle" stroke="rgb(0,0,0)" font-size="11.04" font-family="Helvetica, Arial, FreeSans, Liberation Sans, Nimbus Sans L, sans-serif" fill="rgb(0,0,0)" stroke-opacity="1" fill-opacity="1" font-weight="normal" font-style="normal">
                      <tspan id="GRID.text.1766.1.2.tspan.1" dy="3.95" x="0">16</tspan>
                    </text>
                  </g>
                </g>
              </g>
              <g id="GRID.gTree.1767.1" class="gTree grob gDesc"/>
            </g>
          </g>
          <g id="layout::spacer.8-6-8-6.1" class="viewport"/>
          <g id="layout::spacer.8-4-8-4.1" class="viewport"/>
          <g id="layout::spacer.6-6-6-6.1" class="viewport"/>
          <g id="layout::spacer.6-4-6-4.1" class="viewport"/>
          <g id="layout::axis-t.6-5-6-5.1" class="viewport"/>
          <g id="layout::axis-l.7-4-7-4.1" class="viewport">
            <g id="layout::axis-l.7-4-7-4::GRID.VP.404.1" class="viewport">
              <g id="axis-l.7-4-7-4.1" class="forcedgrob gTableChild absoluteGrob gTree grob gDesc">
                <g id="layout::axis-l.7-4-7-4::GRID.VP.404::axis.1" class="viewport">
                  <g id="axis.1" class="forcedgrob gtable gTree grob gDesc">
                    <g id="layout::axis-l.7-4-7-4::GRID.VP.404::axis::axis.1-1-1-1.1" class="viewport"/>
                    <g id="layout::axis-l.7-4-7-4::GRID.VP.404::axis::axis.1-2-1-2.1" class="viewport"/>
                  </g>
                </g>
              </g>
            </g>
          </g>
          <g id="layout::axis-r.7-6-7-6.1" class="viewport"/>
          <g id="layout::axis-b.8-5-8-5.1" class="viewport">
            <g id="layout::axis-b.8-5-8-5::GRID.VP.403.1" class="viewport">
              <g id="axis-b.8-5-8-5.1" class="forcedgrob gTableChild absoluteGrob gTree grob gDesc">
                <g id="layout::axis-b.8-5-8-5::GRID.VP.403::axis.1" class="viewport">
                  <g id="axis.2" class="forcedgrob gtable gTree grob gDesc">
                    <g id="layout::axis-b.8-5-8-5::GRID.VP.403::axis::axis.1-1-1-1.1" class="viewport"/>
                    <g id="layout::axis-b.8-5-8-5::GRID.VP.403::axis::axis.2-1-2-1.1" class="viewport"/>
                  </g>
                </g>
              </g>
            </g>
          </g>
          <g id="layout::xlab-t.5-5-5-5.1" class="viewport"/>
          <g id="layout::xlab-b.9-5-9-5.1" class="viewport"/>
          <g id="layout::ylab-l.7-3-7-3.1" class="viewport"/>
          <g id="layout::ylab-r.7-7-7-7.1" class="viewport"/>
          <g id="layout::guide-box.7-9-7-9.1" class="viewport">
            <g id="layout::guide-box.7-9-7-9::GRID.VP.412.1" class="viewport">
              <g id="layout::guide-box.7-9-7-9::GRID.VP.412::guide-box.7-9-7-9.1" class="viewport">
                <g id="guide-box.7-9-7-9.1" class="forcedgrob gTableChild gtable gTree grob gDesc">
                  <g id="layout::guide-box.7-9-7-9::GRID.VP.412::guide-box.7-9-7-9::legend.box.background.2-4-4-2.1" class="viewport"/>
                  <g id="layout::guide-box.7-9-7-9::GRID.VP.412::guide-box.7-9-7-9::guides.3-3-3-3.1" class="viewport">
                    <g id="layout::guide-box.7-9-7-9::GRID.VP.412::guide-box.7-9-7-9::guides.3-3-3-3::GRID.VP.411.1" class="viewport">
                      <g id="layout::guide-box.7-9-7-9::GRID.VP.412::guide-box.7-9-7-9::guides.3-3-3-3::GRID.VP.411::guides.3-3-3-3.1" class="viewport">
                        <g id="guides.3-3-3-3.1" class="forcedgrob gTableChild gtable gTree grob gDesc">
                          <g id="layout::guide-box.7-9-7-9::GRID.VP.412::guide-box.7-9-7-9::guides.3-3-3-3::GRID.VP.411::guides.3-3-3-3::background.1-6-6-1.1" class="viewport">
                            <g id="background.1-6-6-1.1" class="forcedgrob gTableChild rect grob gDesc">
                              <rect id="background.1-6-6-1.1.1" x="439.8" y="219.14" width="58.72" height="51" transform="" stroke-width="1.07" stroke="none" fill="rgb(255,255,255)" stroke-dasharray="none" stroke-opacity="0" fill-opacity="1"/>
                            </g>
                          </g>
                          <g id="layout::guide-box.7-9-7-9::GRID.VP.412::guide-box.7-9-7-9::guides.3-3-3-3::GRID.VP.411::guides.3-3-3-3::title.2-5-2-2.1" class="viewport"/>
                          <g id="layout::guide-box.7-9-7-9::GRID.VP.412::guide-box.7-9-7-9::guides.3-3-3-3::GRID.VP.411::guides.3-3-3-3::key-3-1-bg.4-2-4-2.1" class="viewport"/>
                          <g id="layout::guide-box.7-9-7-9::GRID.VP.412::guide-box.7-9-7-9::guides.3-3-3-3::GRID.VP.411::guides.3-3-3-3::key-3-1-1.4-2-4-2.1" class="viewport">
                            <g id="key-3-1-1.4-2-4-2.1" class="forcedgrob gTableChild rect grob gDesc">
                              <rect id="key-3-1-1.4-2-4-2.1.1" x="445.99" y="242.61" width="15.86" height="15.86" transform="" stroke="none" fill="rgb(248,118,109)" stroke-dasharray="none" stroke-width="1.07" stroke-linejoin="miter" stroke-opacity="0" fill-opacity="1"/>
                            </g>
                          </g>
                          <g id="layout::guide-box.7-9-7-9::GRID.VP.412::guide-box.7-9-7-9::guides.3-3-3-3::GRID.VP.411::guides.3-3-3-3::key-4-1-bg.5-2-5-2.1" class="viewport"/>
                          <g id="layout::guide-box.7-9-7-9::GRID.VP.412::guide-box.7-9-7-9::guides.3-3-3-3::GRID.VP.411::guides.3-3-3-3::key-4-1-1.5-2-5-2.1" class="viewport">
                            <g id="key-4-1-1.5-2-5-2.1" class="forcedgrob gTableChild rect grob gDesc">
                              <rect id="key-4-1-1.5-2-5-2.1.1" x="445.99" y="225.33" width="15.86" height="15.86" transform="" stroke="none" fill="rgb(0,191,196)" stroke-dasharray="none" stroke-width="1.07" stroke-linejoin="miter" stroke-opacity="0" fill-opacity="1"/>
                            </g>
                          </g>
                          <g id="layout::guide-box.7-9-7-9::GRID.VP.412::guide-box.7-9-7-9::guides.3-3-3-3::GRID.VP.411::guides.3-3-3-3::label-3-3.4-4-4-4.1" class="viewport">
                            <g id="layout::guide-box.7-9-7-9::GRID.VP.412::guide-box.7-9-7-9::guides.3-3-3-3::GRID.VP.411::guides.3-3-3-3::label-3-3.4-4-4-4::GRID.VP.409.1" class="viewport">
                              <g id="label-3-3.4-4-4-4.1" class="forcedgrob gTableChild gTree grob gDesc">
                                <g id="layout::guide-box.7-9-7-9::GRID.VP.412::guide-box.7-9-7-9::guides.3-3-3-3::GRID.VP.411::guides.3-3-3-3::label-3-3.4-4-4-4::GRID.VP.409::GRID.VP.405.1" font-size="8.8" stroke="rgb(0,0,0)" font-family="Helvetica, Arial, FreeSans, Liberation Sans, Nimbus Sans L, sans-serif" stroke-opacity="1" font-weight="normal" font-style="normal" class="viewport">
                                  <g id="layout::guide-box.7-9-7-9::GRID.VP.412::guide-box.7-9-7-9::guides.3-3-3-3::GRID.VP.411::guides.3-3-3-3::label-3-3.4-4-4-4::GRID.VP.409::GRID.VP.405::GRID.VP.406.1" class="viewport">
                                    <g id="guide.label.titleGrob.1790.1" class="titleGrob gTree grob gDesc">
                                      <g id="GRID.text.1788.1" class="text grob gDesc">
                                        <g id="GRID.text.1788.1.1" transform="translate(468.04, 250.54)" stroke-width="0.1">
                                          <g id="GRID.text.1788.1.1.scale" transform="scale(1, -1)">
                                            <text x="0" y="0" id="GRID.text.1788.1.1.text" text-anchor="start" font-size="8.8" stroke="rgb(0,0,0)" font-family="Helvetica, Arial, FreeSans, Liberation Sans, Nimbus Sans L, sans-serif" fill="rgb(0,0,0)" stroke-opacity="1" fill-opacity="1" font-weight="normal" font-style="normal">
                                              <tspan id="GRID.text.1788.1.1.tspan.1" dy="3.23" x="0">N (16)</tspan>
                                            </text>
                                          </g>
                                        </g>
                                      </g>
                                    </g>
                                  </g>
                                </g>
                              </g>
                            </g>
                          </g>
                          <g id="layout::guide-box.7-9-7-9::GRID.VP.412::guide-box.7-9-7-9::guides.3-3-3-3::GRID.VP.411::guides.3-3-3-3::label-4-3.5-4-5-4.1" class="viewport">
                            <g id="layout::guide-box.7-9-7-9::GRID.VP.412::guide-box.7-9-7-9::guides.3-3-3-3::GRID.VP.411::guides.3-3-3-3::label-4-3.5-4-5-4::GRID.VP.410.1" class="viewport">
                              <g id="label-4-3.5-4-5-4.1" class="forcedgrob gTableChild gTree grob gDesc">
                                <g id="layout::guide-box.7-9-7-9::GRID.VP.412::guide-box.7-9-7-9::guides.3-3-3-3::GRID.VP.411::guides.3-3-3-3::label-4-3.5-4-5-4::GRID.VP.410::GRID.VP.407.1" font-size="8.8" stroke="rgb(0,0,0)" font-family="Helvetica, Arial, FreeSans, Liberation Sans, Nimbus Sans L, sans-serif" stroke-opacity="1" font-weight="normal" font-style="normal" class="viewport">
                                  <g id="layout::guide-box.7-9-7-9::GRID.VP.412::guide-box.7-9-7-9::guides.3-3-3-3::GRID.VP.411::guides.3-3-3-3::label-4-3.5-4-5-4::GRID.VP.410::GRID.VP.407::GRID.VP.408.1" class="viewport">
                                    <g id="guide.label.titleGrob.1793.1" class="titleGrob gTree grob gDesc">
                                      <g id="GRID.text.1791.1" class="text grob gDesc">
                                        <g id="GRID.text.1791.1.1" transform="translate(468.04, 233.26)" stroke-width="0.1">
                                          <g id="GRID.text.1791.1.1.scale" transform="scale(1, -1)">
                                            <text x="0" y="0" id="GRID.text.1791.1.1.text" text-anchor="start" font-size="8.8" stroke="rgb(0,0,0)" font-family="Helvetica, Arial, FreeSans, Liberation Sans, Nimbus Sans L, sans-serif" fill="rgb(0,0,0)" stroke-opacity="1" fill-opacity="1" font-weight="normal" font-style="normal">
                                              <tspan id="GRID.text.1791.1.1.tspan.1" dy="3.23" x="0">S (34)</tspan>
                                            </text>
                                          </g>
                                        </g>
                                      </g>
                                    </g>
                                  </g>
                                </g>
                              </g>
                            </g>
                          </g>
                        </g>
                      </g>
                    </g>
                  </g>
                </g>
              </g>
            </g>
          </g>
          <g id="layout::subtitle.4-5-4-5.1" class="viewport"/>
          <g id="layout::title.3-5-3-5.1" class="viewport">
            <g id="layout::title.3-5-3-5::GRID.VP.413.1" font-size="13.2" stroke="rgb(102,102,102)" font-family="Helvetica, Arial, FreeSans, Liberation Sans, Nimbus Sans L, sans-serif" stroke-opacity="1" font-weight="normal" font-style="normal" class="viewport">
              <g id="layout::title.3-5-3-5::GRID.VP.413::GRID.VP.414.1" class="viewport">
                <g id="title.3-5-3-5.1" class="forcedgrob gTableChild titleGrob gTree grob gDesc">
                  <g id="GRID.text.1802.1" class="text grob gDesc">
                    <g id="GRID.text.1802.1.1" transform="translate(218.53, 472.41)" stroke-width="0.1">
                      <g id="GRID.text.1802.1.1.scale" transform="scale(1, -1)">
                        <text x="0" y="0" id="GRID.text.1802.1.1.text" text-anchor="middle" font-size="13.2" stroke="rgb(102,102,102)" font-family="Helvetica, Arial, FreeSans, Liberation Sans, Nimbus Sans L, sans-serif" fill="rgb(102,102,102)" stroke-opacity="1" fill-opacity="1" font-weight="normal" font-style="normal">
                          <tspan id="GRID.text.1802.1.1.tspan.1" dy="9.33" x="0">anagrafica espertoliceo</tspan>
                        </text>
                      </g>
                    </g>
                  </g>
                </g>
              </g>
            </g>
          </g>
          <g id="layout::caption.10-5-10-5.1" class="viewport"/>
          <g id="layout::tag.2-2-2-2.1" class="viewport"/>
        </g>
      </g>
    </g>
  </g>
</svg>