<?xml version="1.0" encoding="UTF-8"?>
<svg xmlns="http://www.w3.org/2000/svg" xmlns:xlink="http://www.w3.org/1999/xlink" width="504px" height="504px" viewBox="0 0 504 504" version="1.1">
  <metadata xmlns:gridsvg="http://www.stat.auckland.ac.nz/~paul/R/gridSVG/">
    <gridsvg:generator name="gridSVG" version="1.6-0" time="2019-01-18 19:06:57"/>
    <gridsvg:argument name="name" value="./latest_informaggio_csv/anziani/risultati/svg/anagrafica-computerpersonale.svg"/>
    <gridsvg:argument name="exportCoords" value="none"/>
    <gridsvg:argument name="exportMappings" value="none"/>
    <gridsvg:argument name="exportJS" value="none"/>
    <gridsvg:argument name="res" value="72"/>
    <gridsvg:argument name="prefix" value=""/>
    <gridsvg:argument name="addClasses" value="TRUE"/>
    <gridsvg:argument name="indent" value="TRUE"/>
    <gridsvg:argument name="htmlWrapper" value="FALSE"/>
    <gridsvg:argument name="usePaths" value="vpPaths"/>
    <gridsvg:argument name="uniqueNames" value="TRUE"/>
    <gridsvg:separator name="id.sep" value="."/>
    <gridsvg:separator name="gPath.sep" value="::"/>
    <gridsvg:separator name="vpPath.sep" value="::"/>
  </metadata>
  <g transform="translate(0, 504) scale(1, -1)">
    <g id="gridSVG" fill="none" stroke="rgb(0,0,0)" stroke-dasharray="none" stroke-width="0.75" font-size="12" font-family="Helvetica, Arial, FreeSans, Liberation Sans, Nimbus Sans L, sans-serif" opacity="1" stroke-linecap="round" stroke-linejoin="round" stroke-miterlimit="10" stroke-opacity="1" fill-opacity="0" font-weight="normal" font-style="normal">
      <g id="layout.1" class="viewport">
        <g id="layout.2" class="forcedgrob gtable gTree grob gDesc">
          <defs>
            <clipPath id="layout::background.1-11-12-1.1.clipPath">
              <rect x="0" y="25.87" width="504" height="452.27" fill="none" stroke="none"/>
            </clipPath>
          </defs>
          <g id="layout::background.1-11-12-1.1" clip-path="url(#layout::background.1-11-12-1.1.clipPath)" class="viewport">
            <g id="background.1-11-12-1.1" class="forcedgrob gTableChild rect grob gDesc">
              <rect id="background.1-11-12-1.1.1" x="0" y="25.87" width="504" height="452.27" transform="" stroke-width="1.07" stroke="rgb(255,255,255)" fill="rgb(255,255,255)" stroke-dasharray="none" stroke-opacity="1" fill-opacity="1"/>
            </g>
          </g>
          <defs>
            <clipPath id="layout::panel.7-5-7-5.1.clipPath">
              <rect x="8.22" y="34.08" width="421.12" height="421.12" fill="none" stroke="none"/>
            </clipPath>
          </defs>
          <g id="layout::panel.7-5-7-5.1" clip-path="url(#layout::panel.7-5-7-5.1.clipPath)" class="viewport">
            <g id="panel.7-5-7-5.1" class="forcedgrob gTableChild gTree grob gDesc">
              <g id="grill.gTree.1183.1" class="gTree grob gDesc">
                <g id="panel.background..rect.1179.1" class="rect grob gDesc">
                  <rect id="panel.background..rect.1179.1.1" x="8.22" y="34.08" width="421.12" height="421.12" transform="" stroke-width="1.07" stroke="none" fill="rgb(255,255,255)" stroke-dasharray="none" stroke-opacity="0" fill-opacity="1"/>
                </g>
              </g>
              <g id="bar.gTree.1172.1" class="gTree grob gDesc">
                <g id="geom_polygon.polygon.1168.1" class="polygon grob gDesc">
                  <polygon id="geom_polygon.polygon.1168.1.1" points="218.78,244.64 217.33,250.27 215.89,255.9 214.44,261.52 213,267.15 211.56,272.77 210.11,278.4 208.67,284.03 207.22,289.65 205.78,295.28 204.33,300.9 202.89,306.53 201.44,312.16 200,317.78 198.55,323.41 197.11,329.03 195.67,334.66 194.22,340.29 192.78,345.91 191.33,351.54 189.89,357.16 188.44,362.79 187,368.42 185.55,374.04 184.11,379.67 182.66,385.29 181.22,390.92 179.78,396.55 178.33,402.17 176.89,407.8 171.38,406.28 165.93,404.59 160.55,402.7 155.22,400.64 149.97,398.4 144.8,395.98 139.72,393.39 134.73,390.62 129.83,387.69 125.03,384.59 120.35,381.34 115.77,377.92 111.31,374.36 106.98,370.64 102.78,366.78 98.7,362.78 94.77,358.65 90.98,354.38 87.34,349.99 83.84,345.47 80.5,340.84 77.32,336.1 74.31,331.26 71.45,326.31 68.77,321.28 66.26,316.15 63.93,310.94 61.77,305.66 59.79,300.3 58,294.88 56.39,289.41 54.96,283.88 53.73,278.31 52.68,272.7 51.83,267.05 51.16,261.38 50.69,255.69 50.42,249.99 50.33,244.29 50.44,238.58 50.74,232.88 51.24,227.19 51.92,221.53 52.8,215.89 53.87,210.28 55.13,204.71 56.58,199.19 58.21,193.72 60.03,188.31 62.03,182.97 64.21,177.69 66.57,172.49 69.1,167.38 71.8,162.35 74.67,157.42 77.71,152.58 80.91,147.86 84.27,143.24 87.78,138.74 91.45,134.37 95.26,130.12 99.21,126 103.29,122.01 107.52,118.17 111.86,114.47 116.34,110.93 120.93,107.53 125.63,104.3 130.44,101.22 135.35,98.31 140.35,95.57 145.45,93 150.63,90.6 155.88,88.38 161.22,86.34 166.61,84.48 172.07,82.8 177.58,81.31 183.14,80.01 188.73,78.9 194.37,77.97 200.03,77.24 205.71,76.7 211.41,76.36 217.11,76.2 222.82,76.24 228.52,76.48 234.22,76.91 239.89,77.52 245.54,78.34 251.16,79.34 256.74,80.53 262.28,81.91 267.77,83.48 273.2,85.23 278.57,87.17 283.87,89.28 289.1,91.58 294.24,94.05 299.3,96.69 304.27,99.5 309.14,102.48 313.9,105.63 318.56,108.93 323.1,112.39 327.52,116 331.81,119.75 335.98,123.66 340.01,127.7 343.91,131.87 347.65,136.18 351.25,140.6 354.7,145.15 358,149.81 361.13,154.59 364.1,159.46 366.9,164.43 369.53,169.5 371.99,174.65 374.28,179.88 376.38,185.18 378.31,190.56 380.05,195.99 381.6,201.49 382.97,207.03 384.15,212.61 385.14,218.23 385.94,223.89 386.55,229.56 386.96,235.25 387.18,240.96 387.21,246.66 387.05,252.37 386.69,258.07 386.14,263.75 385.39,269.41 384.46,275.04 383.33,280.63 382.02,286.19 380.52,291.7 378.83,297.15 376.96,302.54 374.91,307.87 372.68,313.12 370.27,318.3 367.69,323.39 364.93,328.39 362.01,333.29 358.93,338.09 355.68,342.79 352.28,347.37 348.72,351.83 345.01,356.17 341.16,360.39 337.17,364.47 333.04,368.41 328.78,372.21 324.4,375.86 319.89,379.37 315.27,382.71 310.54,385.9 305.7,388.93 300.76,391.79 295.73,394.49 290.61,397.01 285.4,399.35 280.12,401.52 274.77,403.51 269.36,405.32 263.89,406.94 258.36,408.37 252.79,409.62 247.18,410.68 241.54,411.54 235.87,412.22 230.19,412.7 224.48,412.99 218.78,413.09 218.78,407.28 218.78,401.47 218.78,395.66 218.78,389.86 218.78,384.05 218.78,378.24 218.78,372.43 218.78,366.62 218.78,360.81 218.78,355 218.78,349.2 218.78,343.39 218.78,337.58 218.78,331.77 218.78,325.96 218.78,320.15 218.78,314.35 218.78,308.54 218.78,302.73 218.78,296.92 218.78,291.11 218.78,285.3 218.78,279.49 218.78,273.69 218.78,267.88 218.78,262.07 218.78,256.26 218.78,250.45 218.78,244.64 218.78,244.64" stroke="none" fill="rgb(0,191,196)" stroke-width="1.07" stroke-dasharray="none" stroke-opacity="0" fill-opacity="1"/>
                </g>
                <g id="geom_polygon.polygon.1170.1" class="polygon grob gDesc">
                  <polygon id="geom_polygon.polygon.1170.1.1" points="218.78,244.64 218.78,250.45 218.78,256.26 218.78,262.07 218.78,267.88 218.78,273.69 218.78,279.49 218.78,285.3 218.78,291.11 218.78,296.92 218.78,302.73 218.78,308.54 218.78,314.35 218.78,320.15 218.78,325.96 218.78,331.77 218.78,337.58 218.78,343.39 218.78,349.2 218.78,355 218.78,360.81 218.78,366.62 218.78,372.43 218.78,378.24 218.78,384.05 218.78,389.86 218.78,395.66 218.78,401.47 218.78,407.28 218.78,413.09 212.73,412.98 206.69,412.66 200.67,412.11 194.67,411.36 188.7,410.38 182.77,409.2 176.89,407.8 178.33,402.17 179.78,396.55 181.22,390.92 182.66,385.29 184.11,379.67 185.55,374.04 187,368.42 188.44,362.79 189.89,357.16 191.33,351.54 192.78,345.91 194.22,340.29 195.67,334.66 197.11,329.03 198.55,323.41 200,317.78 201.44,312.16 202.89,306.53 204.33,300.9 205.78,295.28 207.22,289.65 208.67,284.03 210.11,278.4 211.56,272.77 213,267.15 214.44,261.52 215.89,255.9 217.33,250.27 218.78,244.64 218.78,244.64" stroke="none" fill="rgb(248,118,109)" stroke-width="1.07" stroke-dasharray="none" stroke-opacity="0" fill-opacity="1"/>
                </g>
              </g>
              <g id="GRID.text.1173.1" class="text grob gDesc">
                <g id="GRID.text.1173.1.1" transform="translate(229.33, 161.08)" stroke-width="0.1">
                  <g id="GRID.text.1173.1.1.scale" transform="scale(1, -1)">
                    <text x="0" y="0" id="GRID.text.1173.1.1.text" text-anchor="middle" stroke="rgb(0,0,0)" font-size="11.04" font-family="Helvetica, Arial, FreeSans, Liberation Sans, Nimbus Sans L, sans-serif" fill="rgb(0,0,0)" stroke-opacity="1" fill-opacity="1" font-weight="normal" font-style="normal">
                      <tspan id="GRID.text.1173.1.1.tspan.1" dy="3.95" x="0">48</tspan>
                    </text>
                  </g>
                </g>
                <g id="GRID.text.1173.1.2" transform="translate(208.22, 328.2)" stroke-width="0.1">
                  <g id="GRID.text.1173.1.2.scale" transform="scale(1, -1)">
                    <text x="0" y="0" id="GRID.text.1173.1.2.text" text-anchor="middle" stroke="rgb(0,0,0)" font-size="11.04" font-family="Helvetica, Arial, FreeSans, Liberation Sans, Nimbus Sans L, sans-serif" fill="rgb(0,0,0)" stroke-opacity="1" fill-opacity="1" font-weight="normal" font-style="normal">
                      <tspan id="GRID.text.1173.1.2.tspan.1" dy="3.95" x="0">2</tspan>
                    </text>
                  </g>
                </g>
              </g>
              <g id="GRID.gTree.1174.1" class="gTree grob gDesc"/>
            </g>
          </g>
          <g id="layout::spacer.8-6-8-6.1" class="viewport"/>
          <g id="layout::spacer.8-4-8-4.1" class="viewport"/>
          <g id="layout::spacer.6-6-6-6.1" class="viewport"/>
          <g id="layout::spacer.6-4-6-4.1" class="viewport"/>
          <g id="layout::axis-t.6-5-6-5.1" class="viewport"/>
          <g id="layout::axis-l.7-4-7-4.1" class="viewport">
            <g id="layout::axis-l.7-4-7-4::GRID.VP.275.1" class="viewport">
              <g id="axis-l.7-4-7-4.1" class="forcedgrob gTableChild absoluteGrob gTree grob gDesc">
                <g id="layout::axis-l.7-4-7-4::GRID.VP.275::axis.1" class="viewport">
                  <g id="axis.1" class="forcedgrob gtable gTree grob gDesc">
                    <g id="layout::axis-l.7-4-7-4::GRID.VP.275::axis::axis.1-1-1-1.1" class="viewport"/>
                    <g id="layout::axis-l.7-4-7-4::GRID.VP.275::axis::axis.1-2-1-2.1" class="viewport"/>
                  </g>
                </g>
              </g>
            </g>
          </g>
          <g id="layout::axis-r.7-6-7-6.1" class="viewport"/>
          <g id="layout::axis-b.8-5-8-5.1" class="viewport">
            <g id="layout::axis-b.8-5-8-5::GRID.VP.274.1" class="viewport">
              <g id="axis-b.8-5-8-5.1" class="forcedgrob gTableChild absoluteGrob gTree grob gDesc">
                <g id="layout::axis-b.8-5-8-5::GRID.VP.274::axis.1" class="viewport">
                  <g id="axis.2" class="forcedgrob gtable gTree grob gDesc">
                    <g id="layout::axis-b.8-5-8-5::GRID.VP.274::axis::axis.1-1-1-1.1" class="viewport"/>
                    <g id="layout::axis-b.8-5-8-5::GRID.VP.274::axis::axis.2-1-2-1.1" class="viewport"/>
                  </g>
                </g>
              </g>
            </g>
          </g>
          <g id="layout::xlab-t.5-5-5-5.1" class="viewport"/>
          <g id="layout::xlab-b.9-5-9-5.1" class="viewport"/>
          <g id="layout::ylab-l.7-3-7-3.1" class="viewport"/>
          <g id="layout::ylab-r.7-7-7-7.1" class="viewport"/>
          <g id="layout::guide-box.7-9-7-9.1" class="viewport">
            <g id="layout::guide-box.7-9-7-9::GRID.VP.283.1" class="viewport">
              <g id="layout::guide-box.7-9-7-9::GRID.VP.283::guide-box.7-9-7-9.1" class="viewport">
                <g id="guide-box.7-9-7-9.1" class="forcedgrob gTableChild gtable gTree grob gDesc">
                  <g id="layout::guide-box.7-9-7-9::GRID.VP.283::guide-box.7-9-7-9::legend.box.background.2-4-4-2.1" class="viewport"/>
                  <g id="layout::guide-box.7-9-7-9::GRID.VP.283::guide-box.7-9-7-9::guides.3-3-3-3.1" class="viewport">
                    <g id="layout::guide-box.7-9-7-9::GRID.VP.283::guide-box.7-9-7-9::guides.3-3-3-3::GRID.VP.282.1" class="viewport">
                      <g id="layout::guide-box.7-9-7-9::GRID.VP.283::guide-box.7-9-7-9::guides.3-3-3-3::GRID.VP.282::guides.3-3-3-3.1" class="viewport">
                        <g id="guides.3-3-3-3.1" class="forcedgrob gTableChild gtable gTree grob gDesc">
                          <g id="layout::guide-box.7-9-7-9::GRID.VP.283::guide-box.7-9-7-9::guides.3-3-3-3::GRID.VP.282::guides.3-3-3-3::background.1-6-6-1.1" class="viewport">
                            <g id="background.1-6-6-1.1" class="forcedgrob gTableChild rect grob gDesc">
                              <rect id="background.1-6-6-1.1.1" x="440.3" y="219.14" width="58.23" height="51" transform="" stroke-width="1.07" stroke="none" fill="rgb(255,255,255)" stroke-dasharray="none" stroke-opacity="0" fill-opacity="1"/>
                            </g>
                          </g>
                          <g id="layout::guide-box.7-9-7-9::GRID.VP.283::guide-box.7-9-7-9::guides.3-3-3-3::GRID.VP.282::guides.3-3-3-3::title.2-5-2-2.1" class="viewport"/>
                          <g id="layout::guide-box.7-9-7-9::GRID.VP.283::guide-box.7-9-7-9::guides.3-3-3-3::GRID.VP.282::guides.3-3-3-3::key-3-1-bg.4-2-4-2.1" class="viewport"/>
                          <g id="layout::guide-box.7-9-7-9::GRID.VP.283::guide-box.7-9-7-9::guides.3-3-3-3::GRID.VP.282::guides.3-3-3-3::key-3-1-1.4-2-4-2.1" class="viewport">
                            <g id="key-3-1-1.4-2-4-2.1" class="forcedgrob gTableChild rect grob gDesc">
                              <rect id="key-3-1-1.4-2-4-2.1.1" x="446.48" y="242.61" width="15.86" height="15.86" transform="" stroke="none" fill="rgb(248,118,109)" stroke-dasharray="none" stroke-width="1.07" stroke-linejoin="miter" stroke-opacity="0" fill-opacity="1"/>
                            </g>
                          </g>
                          <g id="layout::guide-box.7-9-7-9::GRID.VP.283::guide-box.7-9-7-9::guides.3-3-3-3::GRID.VP.282::guides.3-3-3-3::key-4-1-bg.5-2-5-2.1" class="viewport"/>
                          <g id="layout::guide-box.7-9-7-9::GRID.VP.283::guide-box.7-9-7-9::guides.3-3-3-3::GRID.VP.282::guides.3-3-3-3::key-4-1-1.5-2-5-2.1" class="viewport">
                            <g id="key-4-1-1.5-2-5-2.1" class="forcedgrob gTableChild rect grob gDesc">
                              <rect id="key-4-1-1.5-2-5-2.1.1" x="446.48" y="225.33" width="15.86" height="15.86" transform="" stroke="none" fill="rgb(0,191,196)" stroke-dasharray="none" stroke-width="1.07" stroke-linejoin="miter" stroke-opacity="0" fill-opacity="1"/>
                            </g>
                          </g>
                          <g id="layout::guide-box.7-9-7-9::GRID.VP.283::guide-box.7-9-7-9::guides.3-3-3-3::GRID.VP.282::guides.3-3-3-3::label-3-3.4-4-4-4.1" class="viewport">
                            <g id="layout::guide-box.7-9-7-9::GRID.VP.283::guide-box.7-9-7-9::guides.3-3-3-3::GRID.VP.282::guides.3-3-3-3::label-3-3.4-4-4-4::GRID.VP.280.1" class="viewport">
                              <g id="label-3-3.4-4-4-4.1" class="forcedgrob gTableChild gTree grob gDesc">
                                <g id="layout::guide-box.7-9-7-9::GRID.VP.283::guide-box.7-9-7-9::guides.3-3-3-3::GRID.VP.282::guides.3-3-3-3::label-3-3.4-4-4-4::GRID.VP.280::GRID.VP.276.1" font-size="8.8" stroke="rgb(0,0,0)" font-family="Helvetica, Arial, FreeSans, Liberation Sans, Nimbus Sans L, sans-serif" stroke-opacity="1" font-weight="normal" font-style="normal" class="viewport">
                                  <g id="layout::guide-box.7-9-7-9::GRID.VP.283::guide-box.7-9-7-9::guides.3-3-3-3::GRID.VP.282::guides.3-3-3-3::label-3-3.4-4-4-4::GRID.VP.280::GRID.VP.276::GRID.VP.277.1" class="viewport">
                                    <g id="guide.label.titleGrob.1197.1" class="titleGrob gTree grob gDesc">
                                      <g id="GRID.text.1195.1" class="text grob gDesc">
                                        <g id="GRID.text.1195.1.1" transform="translate(468.53, 250.54)" stroke-width="0.1">
                                          <g id="GRID.text.1195.1.1.scale" transform="scale(1, -1)">
                                            <text x="0" y="0" id="GRID.text.1195.1.1.text" text-anchor="start" font-size="8.8" stroke="rgb(0,0,0)" font-family="Helvetica, Arial, FreeSans, Liberation Sans, Nimbus Sans L, sans-serif" fill="rgb(0,0,0)" stroke-opacity="1" fill-opacity="1" font-weight="normal" font-style="normal">
                                              <tspan id="GRID.text.1195.1.1.tspan.1" dy="3.23" x="0">N (2)</tspan>
                                            </text>
                                          </g>
                                        </g>
                                      </g>
                                    </g>
                                  </g>
                                </g>
                              </g>
                            </g>
                          </g>
                          <g id="layout::guide-box.7-9-7-9::GRID.VP.283::guide-box.7-9-7-9::guides.3-3-3-3::GRID.VP.282::guides.3-3-3-3::label-4-3.5-4-5-4.1" class="viewport">
                            <g id="layout::guide-box.7-9-7-9::GRID.VP.283::guide-box.7-9-7-9::guides.3-3-3-3::GRID.VP.282::guides.3-3-3-3::label-4-3.5-4-5-4::GRID.VP.281.1" class="viewport">
                              <g id="label-4-3.5-4-5-4.1" class="forcedgrob gTableChild gTree grob gDesc">
                                <g id="layout::guide-box.7-9-7-9::GRID.VP.283::guide-box.7-9-7-9::guides.3-3-3-3::GRID.VP.282::guides.3-3-3-3::label-4-3.5-4-5-4::GRID.VP.281::GRID.VP.278.1" font-size="8.8" stroke="rgb(0,0,0)" font-family="Helvetica, Arial, FreeSans, Liberation Sans, Nimbus Sans L, sans-serif" stroke-opacity="1" font-weight="normal" font-style="normal" class="viewport">
                                  <g id="layout::guide-box.7-9-7-9::GRID.VP.283::guide-box.7-9-7-9::guides.3-3-3-3::GRID.VP.282::guides.3-3-3-3::label-4-3.5-4-5-4::GRID.VP.281::GRID.VP.278::GRID.VP.279.1" class="viewport">
                                    <g id="guide.label.titleGrob.1200.1" class="titleGrob gTree grob gDesc">
                                      <g id="GRID.text.1198.1" class="text grob gDesc">
                                        <g id="GRID.text.1198.1.1" transform="translate(468.53, 233.26)" stroke-width="0.1">
                                          <g id="GRID.text.1198.1.1.scale" transform="scale(1, -1)">
                                            <text x="0" y="0" id="GRID.text.1198.1.1.text" text-anchor="start" font-size="8.8" stroke="rgb(0,0,0)" font-family="Helvetica, Arial, FreeSans, Liberation Sans, Nimbus Sans L, sans-serif" fill="rgb(0,0,0)" stroke-opacity="1" fill-opacity="1" font-weight="normal" font-style="normal">
                                              <tspan id="GRID.text.1198.1.1.tspan.1" dy="3.23" x="0">S (48)</tspan>
                                            </text>
                                          </g>
                                        </g>
                                      </g>
                                    </g>
                                  </g>
                                </g>
                              </g>
                            </g>
                          </g>
                        </g>
                      </g>
                    </g>
                  </g>
                </g>
              </g>
            </g>
          </g>
          <g id="layout::subtitle.4-5-4-5.1" class="viewport"/>
          <g id="layout::title.3-5-3-5.1" class="viewport">
            <g id="layout::title.3-5-3-5::GRID.VP.284.1" font-size="13.2" stroke="rgb(102,102,102)" font-family="Helvetica, Arial, FreeSans, Liberation Sans, Nimbus Sans L, sans-serif" stroke-opacity="1" font-weight="normal" font-style="normal" class="viewport">
              <g id="layout::title.3-5-3-5::GRID.VP.284::GRID.VP.285.1" class="viewport">
                <g id="title.3-5-3-5.1" class="forcedgrob gTableChild titleGrob gTree grob gDesc">
                  <g id="GRID.text.1209.1" class="text grob gDesc">
                    <g id="GRID.text.1209.1.1" transform="translate(218.78, 472.66)" stroke-width="0.1">
                      <g id="GRID.text.1209.1.1.scale" transform="scale(1, -1)">
                        <text x="0" y="0" id="GRID.text.1209.1.1.text" text-anchor="middle" font-size="13.2" stroke="rgb(102,102,102)" font-family="Helvetica, Arial, FreeSans, Liberation Sans, Nimbus Sans L, sans-serif" fill="rgb(102,102,102)" stroke-opacity="1" fill-opacity="1" font-weight="normal" font-style="normal">
                          <tspan id="GRID.text.1209.1.1.tspan.1" dy="9.33" x="0">anagrafica computerpersonale</tspan>
                        </text>
                      </g>
                    </g>
                  </g>
                </g>
              </g>
            </g>
          </g>
          <g id="layout::caption.10-5-10-5.1" class="viewport"/>
          <g id="layout::tag.2-2-2-2.1" class="viewport"/>
        </g>
      </g>
    </g>
  </g>
</svg>