<?xml version="1.0" encoding="UTF-8"?>
<svg xmlns="http://www.w3.org/2000/svg" xmlns:xlink="http://www.w3.org/1999/xlink" width="504px" height="504px" viewBox="0 0 504 504" version="1.1">
  <metadata xmlns:gridsvg="http://www.stat.auckland.ac.nz/~paul/R/gridSVG/">
    <gridsvg:generator name="gridSVG" version="1.6-0" time="2019-01-08 22:40:00"/>
    <gridsvg:argument name="name" value="./latest_informaggio_csv/anziani/risultati/svg/anagrafica-totali-altroattivita.svg"/>
    <gridsvg:argument name="exportCoords" value="none"/>
    <gridsvg:argument name="exportMappings" value="none"/>
    <gridsvg:argument name="exportJS" value="none"/>
    <gridsvg:argument name="res" value="72"/>
    <gridsvg:argument name="prefix" value=""/>
    <gridsvg:argument name="addClasses" value="TRUE"/>
    <gridsvg:argument name="indent" value="TRUE"/>
    <gridsvg:argument name="htmlWrapper" value="FALSE"/>
    <gridsvg:argument name="usePaths" value="vpPaths"/>
    <gridsvg:argument name="uniqueNames" value="TRUE"/>
    <gridsvg:separator name="id.sep" value="."/>
    <gridsvg:separator name="gPath.sep" value="::"/>
    <gridsvg:separator name="vpPath.sep" value="::"/>
  </metadata>
  <g transform="translate(0, 504) scale(1, -1)">
    <g id="gridSVG" fill="none" stroke="rgb(0,0,0)" stroke-dasharray="none" stroke-width="0.75" font-size="12" font-family="Helvetica, Arial, FreeSans, Liberation Sans, Nimbus Sans L, sans-serif" opacity="1" stroke-linecap="round" stroke-linejoin="round" stroke-miterlimit="10" stroke-opacity="1" fill-opacity="0" font-weight="normal" font-style="normal">
      <g id="layout.1" class="viewport">
        <g id="layout.2" class="forcedgrob gtable gTree grob gDesc">
          <defs>
            <clipPath id="layout::background.1-11-12-1.1.clipPath">
              <rect x="0" y="111.09" width="504" height="281.82" fill="none" stroke="none"/>
            </clipPath>
          </defs>
          <g id="layout::background.1-11-12-1.1" clip-path="url(#layout::background.1-11-12-1.1.clipPath)" class="viewport">
            <g id="background.1-11-12-1.1" class="forcedgrob gTableChild rect grob gDesc">
              <rect id="background.1-11-12-1.1.1" x="0" y="111.09" width="504" height="281.82" transform="" stroke-width="1.07" stroke="rgb(255,255,255)" fill="rgb(255,255,255)" stroke-dasharray="none" stroke-opacity="1" fill-opacity="1"/>
            </g>
          </g>
          <defs>
            <clipPath id="layout::panel.7-5-7-5.1.clipPath">
              <rect x="8.22" y="119.31" width="250.67" height="250.67" fill="none" stroke="none"/>
            </clipPath>
          </defs>
          <g id="layout::panel.7-5-7-5.1" clip-path="url(#layout::panel.7-5-7-5.1.clipPath)" class="viewport">
            <g id="panel.7-5-7-5.1" class="forcedgrob gTableChild gTree grob gDesc">
              <g id="grill.gTree.23.1" class="gTree grob gDesc">
                <g id="panel.background..rect.19.1" class="rect grob gDesc">
                  <rect id="panel.background..rect.19.1.1" x="8.22" y="119.31" width="250.67" height="250.67" transform="" stroke-width="1.07" stroke="none" fill="rgb(255,255,255)" stroke-dasharray="none" stroke-opacity="0" fill-opacity="1"/>
                </g>
              </g>
              <g id="bar.gTree.12.1" class="gTree grob gDesc">
                <g id="geom_polygon.polygon.2.1" class="polygon grob gDesc">
                  <polygon id="geom_polygon.polygon.2.1.1" points="133.55,244.64 131.82,247.64 130.09,250.63 128.37,253.63 126.64,256.62 124.91,259.61 123.18,262.61 121.45,265.6 119.72,268.6 117.99,271.59 116.26,274.59 114.54,277.58 112.81,280.57 111.08,283.57 109.35,286.56 107.62,289.56 105.89,292.55 104.16,295.55 102.44,298.54 100.71,301.53 98.98,304.53 97.25,307.52 95.52,310.52 93.79,313.51 92.06,316.51 90.33,319.5 88.61,322.49 86.88,325.49 85.15,328.48 83.42,331.48 80.51,329.73 77.65,327.88 74.87,325.94 72.15,323.91 69.5,321.78 66.92,319.57 64.42,317.27 62,314.88 59.66,312.42 57.41,309.88 55.24,307.26 53.17,304.57 51.18,301.82 49.29,298.99 47.5,296.11 45.81,293.16 44.21,290.16 42.72,287.11 41.34,284.01 40.06,280.86 38.88,277.68 37.82,274.45 36.86,271.19 36.02,267.9 35.29,264.58 34.67,261.24 34.16,257.88 33.77,254.51 33.5,251.12 33.33,247.73 33.29,244.33 33.35,240.94 33.54,237.55 33.84,234.16 34.25,230.79 34.77,227.43 35.41,224.1 36.17,220.79 37.03,217.5 38,214.25 39.09,211.03 40.28,207.85 41.58,204.71 42.99,201.62 44.5,198.57 46.11,195.58 47.82,192.65 49.63,189.78 51.54,186.96 53.54,184.22 55.63,181.54 57.81,178.94 60.08,176.41 62.44,173.96 64.87,171.59 67.38,169.31 69.97,167.11 72.64,165 75.37,162.98 78.17,161.06 81.03,159.23 83.95,157.5 86.94,155.87 89.97,154.34 93.05,152.92 96.18,151.6 99.36,150.39 102.57,149.28 105.82,148.29 109.1,147.41 112.4,146.63 115.74,145.97 119.09,145.43 122.46,144.99 125.84,144.67 129.23,144.47 132.63,144.38 136.02,144.41 139.42,144.55 142.8,144.8 146.18,145.18 149.54,145.66 152.89,146.26 156.21,146.97 159.5,147.79 162.77,148.73 166,149.77 169.2,150.93 172.35,152.19 175.46,153.55 178.52,155.03 181.53,156.6 184.49,158.28 187.38,160.05 190.22,161.92 192.99,163.89 195.69,165.95 198.32,168.1 200.87,170.34 203.35,172.66 205.75,175.07 208.06,177.55 210.29,180.11 212.44,182.75 214.49,185.46 216.45,188.23 218.31,191.07 220.08,193.98 221.74,196.94 223.31,199.95 224.77,203.02 226.13,206.13 227.38,209.29 228.52,212.49 229.56,215.72 230.48,218.99 231.29,222.29 232,225.61 232.58,228.96 233.06,232.32 233.42,235.7 233.66,239.09 233.8,242.48 233.81,245.88 233.71,249.27 233.5,252.66 233.17,256.04 232.72,259.41 232.17,262.76 231.5,266.09 230.71,269.4 229.82,272.68 228.82,275.92 227.7,279.13 226.48,282.3 225.15,285.43 223.72,288.5 222.18,291.53 220.54,294.51 218.8,297.43 216.96,300.28 215.03,303.08 213,305.8 210.89,308.46 208.68,311.04 206.39,313.55 204.01,315.98 201.56,318.32 199.02,320.58 196.41,322.76 193.73,324.84 190.98,326.84 188.16,328.73 185.28,330.54 182.34,332.24 179.35,333.84 176.3,335.34 173.2,336.74 170.06,338.03 166.88,339.21 163.65,340.28 160.4,341.25 157.11,342.1 153.79,342.85 150.46,343.47 147.1,343.99 143.73,344.39 140.34,344.68 136.95,344.85 133.55,344.91 133.55,341.45 133.55,337.99 133.55,334.54 133.55,331.08 133.55,327.62 133.55,324.16 133.55,320.71 133.55,317.25 133.55,313.79 133.55,310.33 133.55,306.88 133.55,303.42 133.55,299.96 133.55,296.51 133.55,293.05 133.55,289.59 133.55,286.13 133.55,282.68 133.55,279.22 133.55,275.76 133.55,272.3 133.55,268.85 133.55,265.39 133.55,261.93 133.55,258.47 133.55,255.02 133.55,251.56 133.55,248.1 133.55,244.64 133.55,244.64" stroke="none" fill="rgb(231,107,243)" stroke-width="1.07" stroke-dasharray="none" stroke-opacity="0" fill-opacity="1"/>
                </g>
                <g id="geom_polygon.polygon.4.1" class="polygon grob gDesc">
                  <polygon id="geom_polygon.polygon.4.1.1" points="133.55,244.64 132.23,247.84 130.91,251.03 129.58,254.23 128.26,257.42 126.94,260.61 125.61,263.81 124.29,267 122.97,270.2 121.64,273.39 120.32,276.59 119,279.78 117.67,282.97 116.35,286.17 115.03,289.36 113.71,292.56 112.38,295.75 111.06,298.95 109.74,302.14 108.41,305.33 107.09,308.53 105.77,311.72 104.44,314.92 103.12,318.11 101.8,321.31 100.47,324.5 99.15,327.69 97.83,330.89 96.51,334.08 95.18,337.28 91.18,335.52 87.25,333.58 83.42,331.48 85.15,328.48 86.88,325.49 88.61,322.49 90.33,319.5 92.06,316.51 93.79,313.51 95.52,310.52 97.25,307.52 98.98,304.53 100.71,301.53 102.44,298.54 104.16,295.55 105.89,292.55 107.62,289.56 109.35,286.56 111.08,283.57 112.81,280.57 114.54,277.58 116.26,274.59 117.99,271.59 119.72,268.6 121.45,265.6 123.18,262.61 124.91,259.61 126.64,256.62 128.37,253.63 130.09,250.63 131.82,247.64 133.55,244.64 133.55,244.64" stroke="none" fill="rgb(0,176,246)" stroke-width="1.07" stroke-dasharray="none" stroke-opacity="0" fill-opacity="1"/>
                </g>
                <g id="geom_polygon.polygon.6.1" class="polygon grob gDesc">
                  <polygon id="geom_polygon.polygon.6.1.1" points="133.55,244.64 132.66,247.98 131.76,251.32 130.87,254.66 129.97,258 129.08,261.34 128.18,264.68 127.29,268.02 126.39,271.36 125.5,274.7 124.6,278.04 123.71,281.38 122.81,284.72 121.92,288.06 121.02,291.4 120.13,294.74 119.23,298.08 118.34,301.42 117.44,304.76 116.55,308.1 115.66,311.44 114.76,314.78 113.87,318.12 112.97,321.46 112.08,324.79 111.18,328.13 110.29,331.47 109.39,334.81 108.5,338.15 107.6,341.49 103.4,340.27 99.26,338.86 95.18,337.28 96.51,334.08 97.83,330.89 99.15,327.69 100.47,324.5 101.8,321.31 103.12,318.11 104.44,314.92 105.77,311.72 107.09,308.53 108.41,305.33 109.74,302.14 111.06,298.95 112.38,295.75 113.71,292.56 115.03,289.36 116.35,286.17 117.67,282.97 119,279.78 120.32,276.59 121.64,273.39 122.97,270.2 124.29,267 125.61,263.81 126.94,260.61 128.26,257.42 129.58,254.23 130.91,251.03 132.23,247.84 133.55,244.64 133.55,244.64" stroke="none" fill="rgb(0,191,125)" stroke-width="1.07" stroke-dasharray="none" stroke-opacity="0" fill-opacity="1"/>
                </g>
                <g id="geom_polygon.polygon.8.1" class="polygon grob gDesc">
                  <polygon id="geom_polygon.polygon.8.1.1" points="133.55,244.64 133.1,248.07 132.65,251.5 132.2,254.93 131.75,258.35 131.3,261.78 130.84,265.21 130.39,268.64 129.94,272.07 129.49,275.49 129.04,278.92 128.59,282.35 128.14,285.78 127.69,289.21 127.23,292.63 126.78,296.06 126.33,299.49 125.88,302.92 125.43,306.35 124.98,309.77 124.53,313.2 124.08,316.63 123.62,320.06 123.17,323.48 122.72,326.91 122.27,330.34 121.82,333.77 121.37,337.2 120.92,340.62 120.46,344.05 116.14,343.39 111.85,342.53 107.6,341.49 108.5,338.15 109.39,334.81 110.29,331.47 111.18,328.13 112.08,324.79 112.97,321.46 113.87,318.12 114.76,314.78 115.66,311.44 116.55,308.1 117.44,304.76 118.34,301.42 119.23,298.08 120.13,294.74 121.02,291.4 121.92,288.06 122.81,284.72 123.71,281.38 124.6,278.04 125.5,274.7 126.39,271.36 127.29,268.02 128.18,264.68 129.08,261.34 129.97,258 130.87,254.66 131.76,251.32 132.66,247.98 133.55,244.64 133.55,244.64" stroke="none" fill="rgb(163,165,0)" stroke-width="1.07" stroke-dasharray="none" stroke-opacity="0" fill-opacity="1"/>
                </g>
                <g id="geom_polygon.polygon.10.1" class="polygon grob gDesc">
                  <polygon id="geom_polygon.polygon.10.1.1" points="133.55,244.64 133.55,248.1 133.55,251.56 133.55,255.02 133.55,258.47 133.55,261.93 133.55,265.39 133.55,268.85 133.55,272.3 133.55,275.76 133.55,279.22 133.55,282.68 133.55,286.13 133.55,289.59 133.55,293.05 133.55,296.51 133.55,299.96 133.55,303.42 133.55,306.88 133.55,310.33 133.55,313.79 133.55,317.25 133.55,320.71 133.55,324.16 133.55,327.62 133.55,331.08 133.55,334.54 133.55,337.99 133.55,341.45 133.55,344.91 129.18,344.81 124.81,344.53 120.46,344.05 120.92,340.62 121.37,337.2 121.82,333.77 122.27,330.34 122.72,326.91 123.17,323.48 123.62,320.06 124.08,316.63 124.53,313.2 124.98,309.77 125.43,306.35 125.88,302.92 126.33,299.49 126.78,296.06 127.23,292.63 127.69,289.21 128.14,285.78 128.59,282.35 129.04,278.92 129.49,275.49 129.94,272.07 130.39,268.64 130.84,265.21 131.3,261.78 131.75,258.35 132.2,254.93 132.65,251.5 133.1,248.07 133.55,244.64 133.55,244.64" stroke="none" fill="rgb(248,118,109)" stroke-width="1.07" stroke-dasharray="none" stroke-opacity="0" fill-opacity="1"/>
                </g>
              </g>
              <g id="GRID.text.13.1" class="text grob gDesc">
                <g id="GRID.text.13.1.1" transform="translate(146.53, 196.22)" stroke-width="0.1">
                  <g id="GRID.text.13.1.1.scale" transform="scale(1, -1)">
                    <text x="0" y="0" id="GRID.text.13.1.1.text" text-anchor="middle" stroke="rgb(0,0,0)" font-size="11.04" font-family="Helvetica, Arial, FreeSans, Liberation Sans, Nimbus Sans L, sans-serif" fill="rgb(0,0,0)" stroke-opacity="1" fill-opacity="1" font-weight="normal" font-style="normal">
                      <tspan id="GRID.text.13.1.1.tspan.1" dy="3.95" x="0">44</tspan>
                    </text>
                  </g>
                </g>
                <g id="GRID.text.13.1.2" transform="translate(111.38, 289.61)" stroke-width="0.1">
                  <g id="GRID.text.13.1.2.scale" transform="scale(1, -1)">
                    <text x="0" y="0" id="GRID.text.13.1.2.text" text-anchor="middle" stroke="rgb(0,0,0)" font-size="11.04" font-family="Helvetica, Arial, FreeSans, Liberation Sans, Nimbus Sans L, sans-serif" fill="rgb(0,0,0)" stroke-opacity="1" fill-opacity="1" font-weight="normal" font-style="normal">
                      <tspan id="GRID.text.13.1.2.tspan.1" dy="3.95" x="0">1</tspan>
                    </text>
                  </g>
                </g>
                <g id="GRID.text.13.1.3" transform="translate(117.44, 292.12)" stroke-width="0.1">
                  <g id="GRID.text.13.1.3.scale" transform="scale(1, -1)">
                    <text x="0" y="0" id="GRID.text.13.1.3.text" text-anchor="middle" stroke="rgb(0,0,0)" font-size="11.04" font-family="Helvetica, Arial, FreeSans, Liberation Sans, Nimbus Sans L, sans-serif" fill="rgb(0,0,0)" stroke-opacity="1" fill-opacity="1" font-weight="normal" font-style="normal">
                      <tspan id="GRID.text.13.1.3.tspan.1" dy="3.95" x="0">1</tspan>
                    </text>
                  </g>
                </g>
                <g id="GRID.text.13.1.4" transform="translate(123.77, 293.81)" stroke-width="0.1">
                  <g id="GRID.text.13.1.4.scale" transform="scale(1, -1)">
                    <text x="0" y="0" id="GRID.text.13.1.4.text" text-anchor="middle" stroke="rgb(0,0,0)" font-size="11.04" font-family="Helvetica, Arial, FreeSans, Liberation Sans, Nimbus Sans L, sans-serif" fill="rgb(0,0,0)" stroke-opacity="1" fill-opacity="1" font-weight="normal" font-style="normal">
                      <tspan id="GRID.text.13.1.4.tspan.1" dy="3.95" x="0">1</tspan>
                    </text>
                  </g>
                </g>
                <g id="GRID.text.13.1.5" transform="translate(130.27, 294.67)" stroke-width="0.1">
                  <g id="GRID.text.13.1.5.scale" transform="scale(1, -1)">
                    <text x="0" y="0" id="GRID.text.13.1.5.text" text-anchor="middle" stroke="rgb(0,0,0)" font-size="11.04" font-family="Helvetica, Arial, FreeSans, Liberation Sans, Nimbus Sans L, sans-serif" fill="rgb(0,0,0)" stroke-opacity="1" fill-opacity="1" font-weight="normal" font-style="normal">
                      <tspan id="GRID.text.13.1.5.tspan.1" dy="3.95" x="0">1</tspan>
                    </text>
                  </g>
                </g>
              </g>
              <g id="GRID.gTree.14.1" class="gTree grob gDesc"/>
            </g>
          </g>
          <g id="layout::spacer.8-6-8-6.1" class="viewport"/>
          <g id="layout::spacer.8-4-8-4.1" class="viewport"/>
          <g id="layout::spacer.6-6-6-6.1" class="viewport"/>
          <g id="layout::spacer.6-4-6-4.1" class="viewport"/>
          <g id="layout::axis-t.6-5-6-5.1" class="viewport"/>
          <g id="layout::axis-l.7-4-7-4.1" class="viewport">
            <g id="layout::axis-l.7-4-7-4::GRID.VP.2.1" class="viewport">
              <g id="axis-l.7-4-7-4.1" class="forcedgrob gTableChild absoluteGrob gTree grob gDesc">
                <g id="layout::axis-l.7-4-7-4::GRID.VP.2::axis.1" class="viewport">
                  <g id="axis.1" class="forcedgrob gtable gTree grob gDesc">
                    <g id="layout::axis-l.7-4-7-4::GRID.VP.2::axis::axis.1-1-1-1.1" class="viewport"/>
                    <g id="layout::axis-l.7-4-7-4::GRID.VP.2::axis::axis.1-2-1-2.1" class="viewport"/>
                  </g>
                </g>
              </g>
            </g>
          </g>
          <g id="layout::axis-r.7-6-7-6.1" class="viewport"/>
          <g id="layout::axis-b.8-5-8-5.1" class="viewport">
            <g id="layout::axis-b.8-5-8-5::GRID.VP.1.1" class="viewport">
              <g id="axis-b.8-5-8-5.1" class="forcedgrob gTableChild absoluteGrob gTree grob gDesc">
                <g id="layout::axis-b.8-5-8-5::GRID.VP.1::axis.1" class="viewport">
                  <g id="axis.2" class="forcedgrob gtable gTree grob gDesc">
                    <g id="layout::axis-b.8-5-8-5::GRID.VP.1::axis::axis.1-1-1-1.1" class="viewport"/>
                    <g id="layout::axis-b.8-5-8-5::GRID.VP.1::axis::axis.2-1-2-1.1" class="viewport"/>
                  </g>
                </g>
              </g>
            </g>
          </g>
          <g id="layout::xlab-t.5-5-5-5.1" class="viewport"/>
          <g id="layout::xlab-b.9-5-9-5.1" class="viewport"/>
          <g id="layout::ylab-l.7-3-7-3.1" class="viewport"/>
          <g id="layout::ylab-r.7-7-7-7.1" class="viewport"/>
          <g id="layout::guide-box.7-9-7-9.1" class="viewport">
            <g id="layout::guide-box.7-9-7-9::GRID.VP.19.1" class="viewport">
              <g id="layout::guide-box.7-9-7-9::GRID.VP.19::guide-box.7-9-7-9.1" class="viewport">
                <g id="guide-box.7-9-7-9.1" class="forcedgrob gTableChild gtable gTree grob gDesc">
                  <g id="layout::guide-box.7-9-7-9::GRID.VP.19::guide-box.7-9-7-9::legend.box.background.2-4-4-2.1" class="viewport"/>
                  <g id="layout::guide-box.7-9-7-9::GRID.VP.19::guide-box.7-9-7-9::guides.3-3-3-3.1" class="viewport">
                    <g id="layout::guide-box.7-9-7-9::GRID.VP.19::guide-box.7-9-7-9::guides.3-3-3-3::GRID.VP.18.1" class="viewport">
                      <g id="layout::guide-box.7-9-7-9::GRID.VP.19::guide-box.7-9-7-9::guides.3-3-3-3::GRID.VP.18::guides.3-3-3-3.1" class="viewport">
                        <g id="guides.3-3-3-3.1" class="forcedgrob gTableChild gtable gTree grob gDesc">
                          <g id="layout::guide-box.7-9-7-9::GRID.VP.19::guide-box.7-9-7-9::guides.3-3-3-3::GRID.VP.18::guides.3-3-3-3::background.1-6-9-1.1" class="viewport">
                            <g id="background.1-6-9-1.1" class="forcedgrob gTableChild rect grob gDesc">
                              <rect id="background.1-6-9-1.1.1" x="269.84" y="193.22" width="228.68" height="102.84" transform="" stroke-width="1.07" stroke="none" fill="rgb(255,255,255)" stroke-dasharray="none" stroke-opacity="0" fill-opacity="1"/>
                            </g>
                          </g>
                          <g id="layout::guide-box.7-9-7-9::GRID.VP.19::guide-box.7-9-7-9::guides.3-3-3-3::GRID.VP.18::guides.3-3-3-3::title.2-5-2-2.1" class="viewport"/>
                          <g id="layout::guide-box.7-9-7-9::GRID.VP.19::guide-box.7-9-7-9::guides.3-3-3-3::GRID.VP.18::guides.3-3-3-3::key-3-1-bg.4-2-4-2.1" class="viewport"/>
                          <g id="layout::guide-box.7-9-7-9::GRID.VP.19::guide-box.7-9-7-9::guides.3-3-3-3::GRID.VP.18::guides.3-3-3-3::key-3-1-1.4-2-4-2.1" class="viewport">
                            <g id="key-3-1-1.4-2-4-2.1" class="forcedgrob gTableChild rect grob gDesc">
                              <rect id="key-3-1-1.4-2-4-2.1.1" x="276.03" y="268.53" width="15.86" height="15.86" transform="" stroke="none" fill="rgb(248,118,109)" stroke-dasharray="none" stroke-width="1.07" stroke-linejoin="miter" stroke-opacity="0" fill-opacity="1"/>
                            </g>
                          </g>
                          <g id="layout::guide-box.7-9-7-9::GRID.VP.19::guide-box.7-9-7-9::guides.3-3-3-3::GRID.VP.18::guides.3-3-3-3::key-4-1-bg.5-2-5-2.1" class="viewport"/>
                          <g id="layout::guide-box.7-9-7-9::GRID.VP.19::guide-box.7-9-7-9::guides.3-3-3-3::GRID.VP.18::guides.3-3-3-3::key-4-1-1.5-2-5-2.1" class="viewport">
                            <g id="key-4-1-1.5-2-5-2.1" class="forcedgrob gTableChild rect grob gDesc">
                              <rect id="key-4-1-1.5-2-5-2.1.1" x="276.03" y="251.25" width="15.86" height="15.86" transform="" stroke="none" fill="rgb(163,165,0)" stroke-dasharray="none" stroke-width="1.07" stroke-linejoin="miter" stroke-opacity="0" fill-opacity="1"/>
                            </g>
                          </g>
                          <g id="layout::guide-box.7-9-7-9::GRID.VP.19::guide-box.7-9-7-9::guides.3-3-3-3::GRID.VP.18::guides.3-3-3-3::key-5-1-bg.6-2-6-2.1" class="viewport"/>
                          <g id="layout::guide-box.7-9-7-9::GRID.VP.19::guide-box.7-9-7-9::guides.3-3-3-3::GRID.VP.18::guides.3-3-3-3::key-5-1-1.6-2-6-2.1" class="viewport">
                            <g id="key-5-1-1.6-2-6-2.1" class="forcedgrob gTableChild rect grob gDesc">
                              <rect id="key-5-1-1.6-2-6-2.1.1" x="276.03" y="233.97" width="15.86" height="15.86" transform="" stroke="none" fill="rgb(0,191,125)" stroke-dasharray="none" stroke-width="1.07" stroke-linejoin="miter" stroke-opacity="0" fill-opacity="1"/>
                            </g>
                          </g>
                          <g id="layout::guide-box.7-9-7-9::GRID.VP.19::guide-box.7-9-7-9::guides.3-3-3-3::GRID.VP.18::guides.3-3-3-3::key-6-1-bg.7-2-7-2.1" class="viewport"/>
                          <g id="layout::guide-box.7-9-7-9::GRID.VP.19::guide-box.7-9-7-9::guides.3-3-3-3::GRID.VP.18::guides.3-3-3-3::key-6-1-1.7-2-7-2.1" class="viewport">
                            <g id="key-6-1-1.7-2-7-2.1" class="forcedgrob gTableChild rect grob gDesc">
                              <rect id="key-6-1-1.7-2-7-2.1.1" x="276.03" y="216.69" width="15.86" height="15.86" transform="" stroke="none" fill="rgb(0,176,246)" stroke-dasharray="none" stroke-width="1.07" stroke-linejoin="miter" stroke-opacity="0" fill-opacity="1"/>
                            </g>
                          </g>
                          <g id="layout::guide-box.7-9-7-9::GRID.VP.19::guide-box.7-9-7-9::guides.3-3-3-3::GRID.VP.18::guides.3-3-3-3::key-7-1-bg.8-2-8-2.1" class="viewport"/>
                          <g id="layout::guide-box.7-9-7-9::GRID.VP.19::guide-box.7-9-7-9::guides.3-3-3-3::GRID.VP.18::guides.3-3-3-3::key-7-1-1.8-2-8-2.1" class="viewport">
                            <g id="key-7-1-1.8-2-8-2.1" class="forcedgrob gTableChild rect grob gDesc">
                              <rect id="key-7-1-1.8-2-8-2.1.1" x="276.03" y="199.41" width="15.86" height="15.86" transform="" stroke="none" fill="rgb(231,107,243)" stroke-dasharray="none" stroke-width="1.07" stroke-linejoin="miter" stroke-opacity="0" fill-opacity="1"/>
                            </g>
                          </g>
                          <g id="layout::guide-box.7-9-7-9::GRID.VP.19::guide-box.7-9-7-9::guides.3-3-3-3::GRID.VP.18::guides.3-3-3-3::label-3-3.4-4-4-4.1" class="viewport">
                            <g id="layout::guide-box.7-9-7-9::GRID.VP.19::guide-box.7-9-7-9::guides.3-3-3-3::GRID.VP.18::guides.3-3-3-3::label-3-3.4-4-4-4::GRID.VP.13.1" class="viewport">
                              <g id="label-3-3.4-4-4-4.1" class="forcedgrob gTableChild gTree grob gDesc">
                                <g id="layout::guide-box.7-9-7-9::GRID.VP.19::guide-box.7-9-7-9::guides.3-3-3-3::GRID.VP.18::guides.3-3-3-3::label-3-3.4-4-4-4::GRID.VP.13::GRID.VP.3.1" font-size="8.8" stroke="rgb(0,0,0)" font-family="Helvetica, Arial, FreeSans, Liberation Sans, Nimbus Sans L, sans-serif" stroke-opacity="1" font-weight="normal" font-style="normal" class="viewport">
                                  <g id="layout::guide-box.7-9-7-9::GRID.VP.19::guide-box.7-9-7-9::guides.3-3-3-3::GRID.VP.18::guides.3-3-3-3::label-3-3.4-4-4-4::GRID.VP.13::GRID.VP.3::GRID.VP.4.1" class="viewport">
                                    <g id="guide.label.titleGrob.37.1" class="titleGrob gTree grob gDesc">
                                      <g id="GRID.text.35.1" class="text grob gDesc">
                                        <g id="GRID.text.35.1.1" transform="translate(298.08, 276.46)" stroke-width="0.1">
                                          <g id="GRID.text.35.1.1.scale" transform="scale(1, -1)">
                                            <text x="0" y="0" id="GRID.text.35.1.1.text" text-anchor="start" font-size="8.8" stroke="rgb(0,0,0)" font-family="Helvetica, Arial, FreeSans, Liberation Sans, Nimbus Sans L, sans-serif" fill="rgb(0,0,0)" stroke-opacity="1" fill-opacity="1" font-weight="normal" font-style="normal">
                                              <tspan id="GRID.text.35.1.1.tspan.1" dy="3.23" x="0">Leggere</tspan>
                                            </text>
                                          </g>
                                        </g>
                                      </g>
                                    </g>
                                  </g>
                                </g>
                              </g>
                            </g>
                          </g>
                          <g id="layout::guide-box.7-9-7-9::GRID.VP.19::guide-box.7-9-7-9::guides.3-3-3-3::GRID.VP.18::guides.3-3-3-3::label-4-3.5-4-5-4.1" class="viewport">
                            <g id="layout::guide-box.7-9-7-9::GRID.VP.19::guide-box.7-9-7-9::guides.3-3-3-3::GRID.VP.18::guides.3-3-3-3::label-4-3.5-4-5-4::GRID.VP.14.1" class="viewport">
                              <g id="label-4-3.5-4-5-4.1" class="forcedgrob gTableChild gTree grob gDesc">
                                <g id="layout::guide-box.7-9-7-9::GRID.VP.19::guide-box.7-9-7-9::guides.3-3-3-3::GRID.VP.18::guides.3-3-3-3::label-4-3.5-4-5-4::GRID.VP.14::GRID.VP.5.1" font-size="8.8" stroke="rgb(0,0,0)" font-family="Helvetica, Arial, FreeSans, Liberation Sans, Nimbus Sans L, sans-serif" stroke-opacity="1" font-weight="normal" font-style="normal" class="viewport">
                                  <g id="layout::guide-box.7-9-7-9::GRID.VP.19::guide-box.7-9-7-9::guides.3-3-3-3::GRID.VP.18::guides.3-3-3-3::label-4-3.5-4-5-4::GRID.VP.14::GRID.VP.5::GRID.VP.6.1" class="viewport">
                                    <g id="guide.label.titleGrob.40.1" class="titleGrob gTree grob gDesc">
                                      <g id="GRID.text.38.1" class="text grob gDesc">
                                        <g id="GRID.text.38.1.1" transform="translate(298.08, 259.18)" stroke-width="0.1">
                                          <g id="GRID.text.38.1.1.scale" transform="scale(1, -1)">
                                            <text x="0" y="0" id="GRID.text.38.1.1.text" text-anchor="start" font-size="8.8" stroke="rgb(0,0,0)" font-family="Helvetica, Arial, FreeSans, Liberation Sans, Nimbus Sans L, sans-serif" fill="rgb(0,0,0)" stroke-opacity="1" fill-opacity="1" font-weight="normal" font-style="normal">
                                              <tspan id="GRID.text.38.1.1.tspan.1" dy="3.23" x="0">Shopping </tspan>
                                            </text>
                                          </g>
                                        </g>
                                      </g>
                                    </g>
                                  </g>
                                </g>
                              </g>
                            </g>
                          </g>
                          <g id="layout::guide-box.7-9-7-9::GRID.VP.19::guide-box.7-9-7-9::guides.3-3-3-3::GRID.VP.18::guides.3-3-3-3::label-5-3.6-4-6-4.1" class="viewport">
                            <g id="layout::guide-box.7-9-7-9::GRID.VP.19::guide-box.7-9-7-9::guides.3-3-3-3::GRID.VP.18::guides.3-3-3-3::label-5-3.6-4-6-4::GRID.VP.15.1" class="viewport">
                              <g id="label-5-3.6-4-6-4.1" class="forcedgrob gTableChild gTree grob gDesc">
                                <g id="layout::guide-box.7-9-7-9::GRID.VP.19::guide-box.7-9-7-9::guides.3-3-3-3::GRID.VP.18::guides.3-3-3-3::label-5-3.6-4-6-4::GRID.VP.15::GRID.VP.7.1" font-size="8.8" stroke="rgb(0,0,0)" font-family="Helvetica, Arial, FreeSans, Liberation Sans, Nimbus Sans L, sans-serif" stroke-opacity="1" font-weight="normal" font-style="normal" class="viewport">
                                  <g id="layout::guide-box.7-9-7-9::GRID.VP.19::guide-box.7-9-7-9::guides.3-3-3-3::GRID.VP.18::guides.3-3-3-3::label-5-3.6-4-6-4::GRID.VP.15::GRID.VP.7::GRID.VP.8.1" class="viewport">
                                    <g id="guide.label.titleGrob.43.1" class="titleGrob gTree grob gDesc">
                                      <g id="GRID.text.41.1" class="text grob gDesc">
                                        <g id="GRID.text.41.1.1" transform="translate(298.08, 241.9)" stroke-width="0.1">
                                          <g id="GRID.text.41.1.1.scale" transform="scale(1, -1)">
                                            <text x="0" y="0" id="GRID.text.41.1.1.text" text-anchor="start" font-size="8.8" stroke="rgb(0,0,0)" font-family="Helvetica, Arial, FreeSans, Liberation Sans, Nimbus Sans L, sans-serif" fill="rgb(0,0,0)" stroke-opacity="1" fill-opacity="1" font-weight="normal" font-style="normal">
                                              <tspan id="GRID.text.41.1.1.tspan.1" dy="3.23" x="0">social network</tspan>
                                            </text>
                                          </g>
                                        </g>
                                      </g>
                                    </g>
                                  </g>
                                </g>
                              </g>
                            </g>
                          </g>
                          <g id="layout::guide-box.7-9-7-9::GRID.VP.19::guide-box.7-9-7-9::guides.3-3-3-3::GRID.VP.18::guides.3-3-3-3::label-6-3.7-4-7-4.1" class="viewport">
                            <g id="layout::guide-box.7-9-7-9::GRID.VP.19::guide-box.7-9-7-9::guides.3-3-3-3::GRID.VP.18::guides.3-3-3-3::label-6-3.7-4-7-4::GRID.VP.16.1" class="viewport">
                              <g id="label-6-3.7-4-7-4.1" class="forcedgrob gTableChild gTree grob gDesc">
                                <g id="layout::guide-box.7-9-7-9::GRID.VP.19::guide-box.7-9-7-9::guides.3-3-3-3::GRID.VP.18::guides.3-3-3-3::label-6-3.7-4-7-4::GRID.VP.16::GRID.VP.9.1" font-size="8.8" stroke="rgb(0,0,0)" font-family="Helvetica, Arial, FreeSans, Liberation Sans, Nimbus Sans L, sans-serif" stroke-opacity="1" font-weight="normal" font-style="normal" class="viewport">
                                  <g id="layout::guide-box.7-9-7-9::GRID.VP.19::guide-box.7-9-7-9::guides.3-3-3-3::GRID.VP.18::guides.3-3-3-3::label-6-3.7-4-7-4::GRID.VP.16::GRID.VP.9::GRID.VP.10.1" class="viewport">
                                    <g id="guide.label.titleGrob.46.1" class="titleGrob gTree grob gDesc">
                                      <g id="GRID.text.44.1" class="text grob gDesc">
                                        <g id="GRID.text.44.1.1" transform="translate(298.08, 224.62)" stroke-width="0.1">
                                          <g id="GRID.text.44.1.1.scale" transform="scale(1, -1)">
                                            <text x="0" y="0" id="GRID.text.44.1.1.text" text-anchor="start" font-size="8.8" stroke="rgb(0,0,0)" font-family="Helvetica, Arial, FreeSans, Liberation Sans, Nimbus Sans L, sans-serif" fill="rgb(0,0,0)" stroke-opacity="1" fill-opacity="1" font-weight="normal" font-style="normal">
                                              <tspan id="GRID.text.44.1.1.tspan.1" dy="3.23" x="0">Utilizzo principalmente i vari dispositivi per studio</tspan>
                                            </text>
                                          </g>
                                        </g>
                                      </g>
                                    </g>
                                  </g>
                                </g>
                              </g>
                            </g>
                          </g>
                          <g id="layout::guide-box.7-9-7-9::GRID.VP.19::guide-box.7-9-7-9::guides.3-3-3-3::GRID.VP.18::guides.3-3-3-3::label-7-3.8-4-8-4.1" class="viewport">
                            <g id="layout::guide-box.7-9-7-9::GRID.VP.19::guide-box.7-9-7-9::guides.3-3-3-3::GRID.VP.18::guides.3-3-3-3::label-7-3.8-4-8-4::GRID.VP.17.1" class="viewport">
                              <g id="label-7-3.8-4-8-4.1" class="forcedgrob gTableChild gTree grob gDesc">
                                <g id="layout::guide-box.7-9-7-9::GRID.VP.19::guide-box.7-9-7-9::guides.3-3-3-3::GRID.VP.18::guides.3-3-3-3::label-7-3.8-4-8-4::GRID.VP.17::GRID.VP.11.1" font-size="8.8" stroke="rgb(0,0,0)" font-family="Helvetica, Arial, FreeSans, Liberation Sans, Nimbus Sans L, sans-serif" stroke-opacity="1" font-weight="normal" font-style="normal" class="viewport">
                                  <g id="layout::guide-box.7-9-7-9::GRID.VP.19::guide-box.7-9-7-9::guides.3-3-3-3::GRID.VP.18::guides.3-3-3-3::label-7-3.8-4-8-4::GRID.VP.17::GRID.VP.11::GRID.VP.12.1" class="viewport">
                                    <g id="guide.label.titleGrob.49.1" class="titleGrob gTree grob gDesc">
                                      <g id="GRID.text.47.1" class="text grob gDesc">
                                        <g id="GRID.text.47.1.1" transform="translate(298.08, 207.34)" stroke-width="0.1">
                                          <g id="GRID.text.47.1.1.scale" transform="scale(1, -1)">
                                            <text x="0" y="0" id="GRID.text.47.1.1.text" text-anchor="start" font-size="8.8" stroke="rgb(0,0,0)" font-family="Helvetica, Arial, FreeSans, Liberation Sans, Nimbus Sans L, sans-serif" fill="rgb(0,0,0)" stroke-opacity="1" fill-opacity="1" font-weight="normal" font-style="normal">
                                              <tspan id="GRID.text.47.1.1.tspan.1" dy="3.23" x="0">NA</tspan>
                                            </text>
                                          </g>
                                        </g>
                                      </g>
                                    </g>
                                  </g>
                                </g>
                              </g>
                            </g>
                          </g>
                        </g>
                      </g>
                    </g>
                  </g>
                </g>
              </g>
            </g>
          </g>
          <g id="layout::subtitle.4-5-4-5.1" class="viewport"/>
          <g id="layout::title.3-5-3-5.1" class="viewport">
            <g id="layout::title.3-5-3-5::GRID.VP.20.1" font-size="13.2" stroke="rgb(102,102,102)" font-family="Helvetica, Arial, FreeSans, Liberation Sans, Nimbus Sans L, sans-serif" stroke-opacity="1" font-weight="normal" font-style="normal" class="viewport">
              <g id="layout::title.3-5-3-5::GRID.VP.20::GRID.VP.21.1" class="viewport">
                <g id="title.3-5-3-5.1" class="forcedgrob gTableChild titleGrob gTree grob gDesc">
                  <g id="GRID.text.67.1" class="text grob gDesc">
                    <g id="GRID.text.67.1.1" transform="translate(133.55, 387.43)" stroke-width="0.1">
                      <g id="GRID.text.67.1.1.scale" transform="scale(1, -1)">
                        <text x="0" y="0" id="GRID.text.67.1.1.text" text-anchor="middle" font-size="13.2" stroke="rgb(102,102,102)" font-family="Helvetica, Arial, FreeSans, Liberation Sans, Nimbus Sans L, sans-serif" fill="rgb(102,102,102)" stroke-opacity="1" fill-opacity="1" font-weight="normal" font-style="normal">
                          <tspan id="GRID.text.67.1.1.tspan.1" dy="9.33" x="0">anagrafica totali-altroattivita</tspan>
                        </text>
                      </g>
                    </g>
                  </g>
                </g>
              </g>
            </g>
          </g>
          <g id="layout::caption.10-5-10-5.1" class="viewport"/>
          <g id="layout::tag.2-2-2-2.1" class="viewport"/>
        </g>
      </g>
    </g>
  </g>
</svg>