<?xml version="1.0" encoding="UTF-8"?>
<svg xmlns="http://www.w3.org/2000/svg" xmlns:xlink="http://www.w3.org/1999/xlink" width="504px" height="504px" viewBox="0 0 504 504" version="1.1">
  <metadata xmlns:gridsvg="http://www.stat.auckland.ac.nz/~paul/R/gridSVG/">
    <gridsvg:generator name="gridSVG" version="1.6-0" time="2019-01-14 19:41:16"/>
    <gridsvg:argument name="name" value="./latest_informaggio_csv/anziani/risultati/svg/anagrafica-sostituzionehardware.svg"/>
    <gridsvg:argument name="exportCoords" value="none"/>
    <gridsvg:argument name="exportMappings" value="none"/>
    <gridsvg:argument name="exportJS" value="none"/>
    <gridsvg:argument name="res" value="72"/>
    <gridsvg:argument name="prefix" value=""/>
    <gridsvg:argument name="addClasses" value="TRUE"/>
    <gridsvg:argument name="indent" value="TRUE"/>
    <gridsvg:argument name="htmlWrapper" value="FALSE"/>
    <gridsvg:argument name="usePaths" value="vpPaths"/>
    <gridsvg:argument name="uniqueNames" value="TRUE"/>
    <gridsvg:separator name="id.sep" value="."/>
    <gridsvg:separator name="gPath.sep" value="::"/>
    <gridsvg:separator name="vpPath.sep" value="::"/>
  </metadata>
  <g transform="translate(0, 504) scale(1, -1)">
    <g id="gridSVG" fill="none" stroke="rgb(0,0,0)" stroke-dasharray="none" stroke-width="0.75" font-size="12" font-family="Helvetica, Arial, FreeSans, Liberation Sans, Nimbus Sans L, sans-serif" opacity="1" stroke-linecap="round" stroke-linejoin="round" stroke-miterlimit="10" stroke-opacity="1" fill-opacity="0" font-weight="normal" font-style="normal">
      <g id="layout.1" class="viewport">
        <g id="layout.2" class="forcedgrob gtable gTree grob gDesc">
          <defs>
            <clipPath id="layout::background.1-11-12-1.1.clipPath">
              <rect x="0" y="26.11" width="504" height="451.77" fill="none" stroke="none"/>
            </clipPath>
          </defs>
          <g id="layout::background.1-11-12-1.1" clip-path="url(#layout::background.1-11-12-1.1.clipPath)" class="viewport">
            <g id="background.1-11-12-1.1" class="forcedgrob gTableChild rect grob gDesc">
              <rect id="background.1-11-12-1.1.1" x="0" y="26.11" width="504" height="451.77" transform="" stroke-width="1.07" stroke="rgb(255,255,255)" fill="rgb(255,255,255)" stroke-dasharray="none" stroke-opacity="1" fill-opacity="1"/>
            </g>
          </g>
          <defs>
            <clipPath id="layout::panel.7-5-7-5.1.clipPath">
              <rect x="8.22" y="34.33" width="420.62" height="420.62" fill="none" stroke="none"/>
            </clipPath>
          </defs>
          <g id="layout::panel.7-5-7-5.1" clip-path="url(#layout::panel.7-5-7-5.1.clipPath)" class="viewport">
            <g id="panel.7-5-7-5.1" class="forcedgrob gTableChild gTree grob gDesc">
              <g id="grill.gTree.2982.1" class="gTree grob gDesc">
                <g id="panel.background..rect.2978.1" class="rect grob gDesc">
                  <rect id="panel.background..rect.2978.1.1" x="8.22" y="34.33" width="420.62" height="420.62" transform="" stroke-width="1.07" stroke="none" fill="rgb(255,255,255)" stroke-dasharray="none" stroke-opacity="0" fill-opacity="1"/>
                </g>
              </g>
              <g id="bar.gTree.2971.1" class="gTree grob gDesc">
                <g id="geom_polygon.polygon.2967.1" class="polygon grob gDesc">
                  <polygon id="geom_polygon.polygon.2967.1.1" points="218.53,244.64 217.77,238.89 217.02,233.14 216.26,227.39 215.5,221.63 214.74,215.88 213.99,210.13 213.23,204.38 212.47,198.63 211.71,192.87 210.96,187.12 210.2,181.37 209.44,175.62 208.69,169.87 207.93,164.11 207.17,158.36 206.41,152.61 205.66,146.86 204.9,141.11 204.14,135.35 203.38,129.6 202.63,123.85 201.87,118.1 201.11,112.35 200.36,106.59 199.6,100.84 198.84,95.09 198.08,89.34 197.33,83.59 196.57,77.83 202.27,77.18 207.98,76.73 213.71,76.46 219.45,76.4 225.18,76.53 230.91,76.85 236.62,77.37 242.31,78.08 247.97,78.99 253.6,80.09 259.19,81.38 264.73,82.86 270.22,84.53 275.64,86.38 281,88.42 286.29,90.64 291.5,93.04 296.63,95.62 301.66,98.37 306.6,101.28 311.43,104.37 316.16,107.62 320.77,111.02 325.27,114.59 329.64,118.3 333.88,122.16 337.99,126.16 341.95,130.3 345.78,134.57 349.46,138.97 352.98,143.5 356.35,148.14 359.56,152.89 362.61,157.75 365.48,162.71 368.19,167.77 370.72,172.91 373.08,178.14 375.26,183.45 377.25,188.83 379.06,194.27 380.68,199.77 382.12,205.32 383.36,210.92 384.42,216.56 385.28,222.23 385.95,227.92 386.42,233.64 386.7,239.37 386.78,245.1 386.67,250.84 386.36,256.56 385.85,262.28 385.15,267.97 384.26,273.63 383.18,279.26 381.9,284.86 380.44,290.4 378.78,295.89 376.94,301.32 374.92,306.69 372.71,311.98 370.33,317.2 367.77,322.33 365.03,327.37 362.13,332.32 359.06,337.16 355.82,341.9 352.43,346.52 348.88,351.02 345.18,355.4 341.33,359.66 337.34,363.78 333.21,367.76 328.95,371.59 324.56,375.28 320.04,378.82 315.41,382.2 310.66,385.42 305.81,388.48 300.86,391.37 295.81,394.09 290.67,396.64 285.45,399.01 280.15,401.2 274.78,403.21 269.34,405.04 263.85,406.67 258.3,408.12 252.7,409.39 247.07,410.45 241.4,411.33 235.71,412.01 229.99,412.5 224.26,412.79 218.53,412.89 218.53,407.09 218.53,401.29 218.53,395.49 218.53,389.69 218.53,383.88 218.53,378.08 218.53,372.28 218.53,366.48 218.53,360.68 218.53,354.88 218.53,349.07 218.53,343.27 218.53,337.47 218.53,331.67 218.53,325.87 218.53,320.07 218.53,314.26 218.53,308.46 218.53,302.66 218.53,296.86 218.53,291.06 218.53,285.25 218.53,279.45 218.53,273.65 218.53,267.85 218.53,262.05 218.53,256.25 218.53,250.44 218.53,244.64 218.53,244.64" stroke="none" fill="rgb(0,191,196)" stroke-width="1.07" stroke-dasharray="none" stroke-opacity="0" fill-opacity="1"/>
                </g>
                <g id="geom_polygon.polygon.2969.1" class="polygon grob gDesc">
                  <polygon id="geom_polygon.polygon.2969.1.1" points="218.53,244.64 218.53,250.44 218.53,256.25 218.53,262.05 218.53,267.85 218.53,273.65 218.53,279.45 218.53,285.25 218.53,291.06 218.53,296.86 218.53,302.66 218.53,308.46 218.53,314.26 218.53,320.07 218.53,325.87 218.53,331.67 218.53,337.47 218.53,343.27 218.53,349.07 218.53,354.88 218.53,360.68 218.53,366.48 218.53,372.28 218.53,378.08 218.53,383.88 218.53,389.69 218.53,395.49 218.53,401.29 218.53,407.09 218.53,412.89 212.78,412.79 207.03,412.5 201.29,412.01 195.58,411.32 189.89,410.44 184.24,409.36 178.62,408.09 173.05,406.63 167.54,404.98 162.08,403.14 156.7,401.12 151.38,398.91 146.14,396.52 140.99,393.96 135.93,391.22 130.96,388.31 126.1,385.23 121.34,381.98 116.7,378.58 112.18,375.02 107.78,371.3 103.52,367.44 99.38,363.44 95.39,359.29 91.54,355.01 87.84,350.6 84.29,346.07 80.9,341.42 77.67,336.66 74.61,331.78 71.71,326.81 68.98,321.74 66.44,316.58 64.06,311.33 61.87,306.01 59.87,300.62 58.04,295.16 56.41,289.64 54.97,284.07 53.71,278.45 52.65,272.79 51.79,267.1 51.12,261.38 50.64,255.65 50.36,249.9 50.28,244.14 50.4,238.39 50.71,232.64 51.22,226.91 51.92,221.19 52.82,215.51 53.92,209.86 55.2,204.25 56.68,198.68 58.35,193.18 60.2,187.73 62.24,182.34 64.46,177.03 66.87,171.8 69.45,166.66 72.2,161.6 75.13,156.65 78.22,151.79 81.48,147.05 84.9,142.42 88.47,137.91 92.2,133.52 96.07,129.26 100.09,125.14 104.25,121.16 108.54,117.33 112.96,113.64 117.5,110.1 122.16,106.73 126.94,103.51 131.82,100.46 136.8,97.58 141.88,94.87 147.05,92.33 152.3,89.98 157.63,87.8 163.03,85.81 168.49,84.01 174.02,82.39 179.59,80.96 185.22,79.73 190.88,78.68 196.57,77.83 197.33,83.59 198.08,89.34 198.84,95.09 199.6,100.84 200.36,106.59 201.11,112.35 201.87,118.1 202.63,123.85 203.38,129.6 204.14,135.35 204.9,141.11 205.66,146.86 206.41,152.61 207.17,158.36 207.93,164.11 208.69,169.87 209.44,175.62 210.2,181.37 210.96,187.12 211.71,192.87 212.47,198.63 213.23,204.38 213.99,210.13 214.74,215.88 215.5,221.63 216.26,227.39 217.02,233.14 217.77,238.89 218.53,244.64 218.53,244.64" stroke="none" fill="rgb(248,118,109)" stroke-width="1.07" stroke-dasharray="none" stroke-opacity="0" fill-opacity="1"/>
                </g>
              </g>
              <g id="GRID.text.2972.1" class="text grob gDesc">
                <g id="GRID.text.2972.1.1" transform="translate(302.47, 239.14)" stroke-width="0.1">
                  <g id="GRID.text.2972.1.1.scale" transform="scale(1, -1)">
                    <text x="0" y="0" id="GRID.text.2972.1.1.text" text-anchor="middle" stroke="rgb(0,0,0)" font-size="11.04" font-family="Helvetica, Arial, FreeSans, Liberation Sans, Nimbus Sans L, sans-serif" fill="rgb(0,0,0)" stroke-opacity="1" fill-opacity="1" font-weight="normal" font-style="normal">
                      <tspan id="GRID.text.2972.1.1.tspan.1" dy="3.95" x="0">25</tspan>
                    </text>
                  </g>
                </g>
                <g id="GRID.text.2972.1.2" transform="translate(134.59, 250.15)" stroke-width="0.1">
                  <g id="GRID.text.2972.1.2.scale" transform="scale(1, -1)">
                    <text x="0" y="0" id="GRID.text.2972.1.2.text" text-anchor="middle" stroke="rgb(0,0,0)" font-size="11.04" font-family="Helvetica, Arial, FreeSans, Liberation Sans, Nimbus Sans L, sans-serif" fill="rgb(0,0,0)" stroke-opacity="1" fill-opacity="1" font-weight="normal" font-style="normal">
                      <tspan id="GRID.text.2972.1.2.tspan.1" dy="3.95" x="0">23</tspan>
                    </text>
                  </g>
                </g>
              </g>
              <g id="GRID.gTree.2973.1" class="gTree grob gDesc"/>
            </g>
          </g>
          <g id="layout::spacer.8-6-8-6.1" class="viewport"/>
          <g id="layout::spacer.8-4-8-4.1" class="viewport"/>
          <g id="layout::spacer.6-6-6-6.1" class="viewport"/>
          <g id="layout::spacer.6-4-6-4.1" class="viewport"/>
          <g id="layout::axis-t.6-5-6-5.1" class="viewport"/>
          <g id="layout::axis-l.7-4-7-4.1" class="viewport">
            <g id="layout::axis-l.7-4-7-4::GRID.VP.692.1" class="viewport">
              <g id="axis-l.7-4-7-4.1" class="forcedgrob gTableChild absoluteGrob gTree grob gDesc">
                <g id="layout::axis-l.7-4-7-4::GRID.VP.692::axis.1" class="viewport">
                  <g id="axis.1" class="forcedgrob gtable gTree grob gDesc">
                    <g id="layout::axis-l.7-4-7-4::GRID.VP.692::axis::axis.1-1-1-1.1" class="viewport"/>
                    <g id="layout::axis-l.7-4-7-4::GRID.VP.692::axis::axis.1-2-1-2.1" class="viewport"/>
                  </g>
                </g>
              </g>
            </g>
          </g>
          <g id="layout::axis-r.7-6-7-6.1" class="viewport"/>
          <g id="layout::axis-b.8-5-8-5.1" class="viewport">
            <g id="layout::axis-b.8-5-8-5::GRID.VP.691.1" class="viewport">
              <g id="axis-b.8-5-8-5.1" class="forcedgrob gTableChild absoluteGrob gTree grob gDesc">
                <g id="layout::axis-b.8-5-8-5::GRID.VP.691::axis.1" class="viewport">
                  <g id="axis.2" class="forcedgrob gtable gTree grob gDesc">
                    <g id="layout::axis-b.8-5-8-5::GRID.VP.691::axis::axis.1-1-1-1.1" class="viewport"/>
                    <g id="layout::axis-b.8-5-8-5::GRID.VP.691::axis::axis.2-1-2-1.1" class="viewport"/>
                  </g>
                </g>
              </g>
            </g>
          </g>
          <g id="layout::xlab-t.5-5-5-5.1" class="viewport"/>
          <g id="layout::xlab-b.9-5-9-5.1" class="viewport"/>
          <g id="layout::ylab-l.7-3-7-3.1" class="viewport"/>
          <g id="layout::ylab-r.7-7-7-7.1" class="viewport"/>
          <g id="layout::guide-box.7-9-7-9.1" class="viewport">
            <g id="layout::guide-box.7-9-7-9::GRID.VP.700.1" class="viewport">
              <g id="layout::guide-box.7-9-7-9::GRID.VP.700::guide-box.7-9-7-9.1" class="viewport">
                <g id="guide-box.7-9-7-9.1" class="forcedgrob gTableChild gtable gTree grob gDesc">
                  <g id="layout::guide-box.7-9-7-9::GRID.VP.700::guide-box.7-9-7-9::legend.box.background.2-4-4-2.1" class="viewport"/>
                  <g id="layout::guide-box.7-9-7-9::GRID.VP.700::guide-box.7-9-7-9::guides.3-3-3-3.1" class="viewport">
                    <g id="layout::guide-box.7-9-7-9::GRID.VP.700::guide-box.7-9-7-9::guides.3-3-3-3::GRID.VP.699.1" class="viewport">
                      <g id="layout::guide-box.7-9-7-9::GRID.VP.700::guide-box.7-9-7-9::guides.3-3-3-3::GRID.VP.699::guides.3-3-3-3.1" class="viewport">
                        <g id="guides.3-3-3-3.1" class="forcedgrob gTableChild gtable gTree grob gDesc">
                          <g id="layout::guide-box.7-9-7-9::GRID.VP.700::guide-box.7-9-7-9::guides.3-3-3-3::GRID.VP.699::guides.3-3-3-3::background.1-6-6-1.1" class="viewport">
                            <g id="background.1-6-6-1.1" class="forcedgrob gTableChild rect grob gDesc">
                              <rect id="background.1-6-6-1.1.1" x="439.8" y="219.14" width="58.72" height="51" transform="" stroke-width="1.07" stroke="none" fill="rgb(255,255,255)" stroke-dasharray="none" stroke-opacity="0" fill-opacity="1"/>
                            </g>
                          </g>
                          <g id="layout::guide-box.7-9-7-9::GRID.VP.700::guide-box.7-9-7-9::guides.3-3-3-3::GRID.VP.699::guides.3-3-3-3::title.2-5-2-2.1" class="viewport"/>
                          <g id="layout::guide-box.7-9-7-9::GRID.VP.700::guide-box.7-9-7-9::guides.3-3-3-3::GRID.VP.699::guides.3-3-3-3::key-3-1-bg.4-2-4-2.1" class="viewport"/>
                          <g id="layout::guide-box.7-9-7-9::GRID.VP.700::guide-box.7-9-7-9::guides.3-3-3-3::GRID.VP.699::guides.3-3-3-3::key-3-1-1.4-2-4-2.1" class="viewport">
                            <g id="key-3-1-1.4-2-4-2.1" class="forcedgrob gTableChild rect grob gDesc">
                              <rect id="key-3-1-1.4-2-4-2.1.1" x="445.99" y="242.61" width="15.86" height="15.86" transform="" stroke="none" fill="rgb(248,118,109)" stroke-dasharray="none" stroke-width="1.07" stroke-linejoin="miter" stroke-opacity="0" fill-opacity="1"/>
                            </g>
                          </g>
                          <g id="layout::guide-box.7-9-7-9::GRID.VP.700::guide-box.7-9-7-9::guides.3-3-3-3::GRID.VP.699::guides.3-3-3-3::key-4-1-bg.5-2-5-2.1" class="viewport"/>
                          <g id="layout::guide-box.7-9-7-9::GRID.VP.700::guide-box.7-9-7-9::guides.3-3-3-3::GRID.VP.699::guides.3-3-3-3::key-4-1-1.5-2-5-2.1" class="viewport">
                            <g id="key-4-1-1.5-2-5-2.1" class="forcedgrob gTableChild rect grob gDesc">
                              <rect id="key-4-1-1.5-2-5-2.1.1" x="445.99" y="225.33" width="15.86" height="15.86" transform="" stroke="none" fill="rgb(0,191,196)" stroke-dasharray="none" stroke-width="1.07" stroke-linejoin="miter" stroke-opacity="0" fill-opacity="1"/>
                            </g>
                          </g>
                          <g id="layout::guide-box.7-9-7-9::GRID.VP.700::guide-box.7-9-7-9::guides.3-3-3-3::GRID.VP.699::guides.3-3-3-3::label-3-3.4-4-4-4.1" class="viewport">
                            <g id="layout::guide-box.7-9-7-9::GRID.VP.700::guide-box.7-9-7-9::guides.3-3-3-3::GRID.VP.699::guides.3-3-3-3::label-3-3.4-4-4-4::GRID.VP.697.1" class="viewport">
                              <g id="label-3-3.4-4-4-4.1" class="forcedgrob gTableChild gTree grob gDesc">
                                <g id="layout::guide-box.7-9-7-9::GRID.VP.700::guide-box.7-9-7-9::guides.3-3-3-3::GRID.VP.699::guides.3-3-3-3::label-3-3.4-4-4-4::GRID.VP.697::GRID.VP.693.1" font-size="8.8" stroke="rgb(0,0,0)" font-family="Helvetica, Arial, FreeSans, Liberation Sans, Nimbus Sans L, sans-serif" stroke-opacity="1" font-weight="normal" font-style="normal" class="viewport">
                                  <g id="layout::guide-box.7-9-7-9::GRID.VP.700::guide-box.7-9-7-9::guides.3-3-3-3::GRID.VP.699::guides.3-3-3-3::label-3-3.4-4-4-4::GRID.VP.697::GRID.VP.693::GRID.VP.694.1" class="viewport">
                                    <g id="guide.label.titleGrob.2996.1" class="titleGrob gTree grob gDesc">
                                      <g id="GRID.text.2994.1" class="text grob gDesc">
                                        <g id="GRID.text.2994.1.1" transform="translate(468.04, 250.54)" stroke-width="0.1">
                                          <g id="GRID.text.2994.1.1.scale" transform="scale(1, -1)">
                                            <text x="0" y="0" id="GRID.text.2994.1.1.text" text-anchor="start" font-size="8.8" stroke="rgb(0,0,0)" font-family="Helvetica, Arial, FreeSans, Liberation Sans, Nimbus Sans L, sans-serif" fill="rgb(0,0,0)" stroke-opacity="1" fill-opacity="1" font-weight="normal" font-style="normal">
                                              <tspan id="GRID.text.2994.1.1.tspan.1" dy="3.23" x="0">N (23)</tspan>
                                            </text>
                                          </g>
                                        </g>
                                      </g>
                                    </g>
                                  </g>
                                </g>
                              </g>
                            </g>
                          </g>
                          <g id="layout::guide-box.7-9-7-9::GRID.VP.700::guide-box.7-9-7-9::guides.3-3-3-3::GRID.VP.699::guides.3-3-3-3::label-4-3.5-4-5-4.1" class="viewport">
                            <g id="layout::guide-box.7-9-7-9::GRID.VP.700::guide-box.7-9-7-9::guides.3-3-3-3::GRID.VP.699::guides.3-3-3-3::label-4-3.5-4-5-4::GRID.VP.698.1" class="viewport">
                              <g id="label-4-3.5-4-5-4.1" class="forcedgrob gTableChild gTree grob gDesc">
                                <g id="layout::guide-box.7-9-7-9::GRID.VP.700::guide-box.7-9-7-9::guides.3-3-3-3::GRID.VP.699::guides.3-3-3-3::label-4-3.5-4-5-4::GRID.VP.698::GRID.VP.695.1" font-size="8.8" stroke="rgb(0,0,0)" font-family="Helvetica, Arial, FreeSans, Liberation Sans, Nimbus Sans L, sans-serif" stroke-opacity="1" font-weight="normal" font-style="normal" class="viewport">
                                  <g id="layout::guide-box.7-9-7-9::GRID.VP.700::guide-box.7-9-7-9::guides.3-3-3-3::GRID.VP.699::guides.3-3-3-3::label-4-3.5-4-5-4::GRID.VP.698::GRID.VP.695::GRID.VP.696.1" class="viewport">
                                    <g id="guide.label.titleGrob.2999.1" class="titleGrob gTree grob gDesc">
                                      <g id="GRID.text.2997.1" class="text grob gDesc">
                                        <g id="GRID.text.2997.1.1" transform="translate(468.04, 233.26)" stroke-width="0.1">
                                          <g id="GRID.text.2997.1.1.scale" transform="scale(1, -1)">
                                            <text x="0" y="0" id="GRID.text.2997.1.1.text" text-anchor="start" font-size="8.8" stroke="rgb(0,0,0)" font-family="Helvetica, Arial, FreeSans, Liberation Sans, Nimbus Sans L, sans-serif" fill="rgb(0,0,0)" stroke-opacity="1" fill-opacity="1" font-weight="normal" font-style="normal">
                                              <tspan id="GRID.text.2997.1.1.tspan.1" dy="3.23" x="0">S (25)</tspan>
                                            </text>
                                          </g>
                                        </g>
                                      </g>
                                    </g>
                                  </g>
                                </g>
                              </g>
                            </g>
                          </g>
                        </g>
                      </g>
                    </g>
                  </g>
                </g>
              </g>
            </g>
          </g>
          <g id="layout::subtitle.4-5-4-5.1" class="viewport"/>
          <g id="layout::title.3-5-3-5.1" class="viewport">
            <g id="layout::title.3-5-3-5::GRID.VP.701.1" font-size="13.2" stroke="rgb(102,102,102)" font-family="Helvetica, Arial, FreeSans, Liberation Sans, Nimbus Sans L, sans-serif" stroke-opacity="1" font-weight="normal" font-style="normal" class="viewport">
              <g id="layout::title.3-5-3-5::GRID.VP.701::GRID.VP.702.1" class="viewport">
                <g id="title.3-5-3-5.1" class="forcedgrob gTableChild titleGrob gTree grob gDesc">
                  <g id="GRID.text.3008.1" class="text grob gDesc">
                    <g id="GRID.text.3008.1.1" transform="translate(218.53, 472.41)" stroke-width="0.1">
                      <g id="GRID.text.3008.1.1.scale" transform="scale(1, -1)">
                        <text x="0" y="0" id="GRID.text.3008.1.1.text" text-anchor="middle" font-size="13.2" stroke="rgb(102,102,102)" font-family="Helvetica, Arial, FreeSans, Liberation Sans, Nimbus Sans L, sans-serif" fill="rgb(102,102,102)" stroke-opacity="1" fill-opacity="1" font-weight="normal" font-style="normal">
                          <tspan id="GRID.text.3008.1.1.tspan.1" dy="9.33" x="0">anagrafica sostituzionehardware</tspan>
                        </text>
                      </g>
                    </g>
                  </g>
                </g>
              </g>
            </g>
          </g>
          <g id="layout::caption.10-5-10-5.1" class="viewport"/>
          <g id="layout::tag.2-2-2-2.1" class="viewport"/>
        </g>
      </g>
    </g>
  </g>
</svg>