<?xml version="1.0" encoding="UTF-8"?>
<svg xmlns="http://www.w3.org/2000/svg" xmlns:xlink="http://www.w3.org/1999/xlink" width="504px" height="504px" viewBox="0 0 504 504" version="1.1">
  <metadata xmlns:gridsvg="http://www.stat.auckland.ac.nz/~paul/R/gridSVG/">
    <gridsvg:generator name="gridSVG" version="1.6-0" time="2019-01-14 19:40:52"/>
    <gridsvg:argument name="name" value="./latest_informaggio_csv/anziani/risultati/svg/anagrafica-annocorso.svg"/>
    <gridsvg:argument name="exportCoords" value="none"/>
    <gridsvg:argument name="exportMappings" value="none"/>
    <gridsvg:argument name="exportJS" value="none"/>
    <gridsvg:argument name="res" value="72"/>
    <gridsvg:argument name="prefix" value=""/>
    <gridsvg:argument name="addClasses" value="TRUE"/>
    <gridsvg:argument name="indent" value="TRUE"/>
    <gridsvg:argument name="htmlWrapper" value="FALSE"/>
    <gridsvg:argument name="usePaths" value="vpPaths"/>
    <gridsvg:argument name="uniqueNames" value="TRUE"/>
    <gridsvg:separator name="id.sep" value="."/>
    <gridsvg:separator name="gPath.sep" value="::"/>
    <gridsvg:separator name="vpPath.sep" value="::"/>
  </metadata>
  <g transform="translate(0, 504) scale(1, -1)">
    <g id="gridSVG" fill="none" stroke="rgb(0,0,0)" stroke-dasharray="none" stroke-width="0.75" font-size="12" font-family="Helvetica, Arial, FreeSans, Liberation Sans, Nimbus Sans L, sans-serif" opacity="1" stroke-linecap="round" stroke-linejoin="round" stroke-miterlimit="10" stroke-opacity="1" fill-opacity="0" font-weight="normal" font-style="normal">
      <g id="layout.1" class="viewport">
        <g id="layout.2" class="forcedgrob gtable gTree grob gDesc">
          <defs>
            <clipPath id="layout::background.1-11-12-1.1.clipPath">
              <rect x="0" y="25.61" width="504" height="452.77" fill="none" stroke="none"/>
            </clipPath>
          </defs>
          <g id="layout::background.1-11-12-1.1" clip-path="url(#layout::background.1-11-12-1.1.clipPath)" class="viewport">
            <g id="background.1-11-12-1.1" class="forcedgrob gTableChild rect grob gDesc">
              <rect id="background.1-11-12-1.1.1" x="0" y="25.61" width="504" height="452.77" transform="" stroke-width="1.07" stroke="rgb(255,255,255)" fill="rgb(255,255,255)" stroke-dasharray="none" stroke-opacity="1" fill-opacity="1"/>
            </g>
          </g>
          <defs>
            <clipPath id="layout::panel.7-5-7-5.1.clipPath">
              <rect x="8.22" y="33.83" width="421.62" height="421.62" fill="none" stroke="none"/>
            </clipPath>
          </defs>
          <g id="layout::panel.7-5-7-5.1" clip-path="url(#layout::panel.7-5-7-5.1.clipPath)" class="viewport">
            <g id="panel.7-5-7-5.1" class="forcedgrob gTableChild gTree grob gDesc">
              <g id="grill.gTree.646.1" class="gTree grob gDesc">
                <g id="panel.background..rect.642.1" class="rect grob gDesc">
                  <rect id="panel.background..rect.642.1.1" x="8.22" y="33.83" width="421.62" height="421.62" transform="" stroke-width="1.07" stroke="none" fill="rgb(255,255,255)" stroke-dasharray="none" stroke-opacity="0" fill-opacity="1"/>
                </g>
              </g>
              <g id="bar.gTree.635.1" class="gTree grob gDesc">
                <g id="geom_polygon.polygon.627.1" class="polygon grob gDesc">
                  <polygon id="geom_polygon.polygon.627.1.1" points="219.03,244.64 224.8,243.88 230.56,243.12 236.33,242.37 242.09,241.61 247.86,240.85 253.62,240.09 259.39,239.33 265.16,238.57 270.92,237.81 276.69,237.05 282.45,236.29 288.22,235.53 293.98,234.78 299.75,234.02 305.52,233.26 311.28,232.5 317.05,231.74 322.81,230.98 328.58,230.22 334.34,229.46 340.11,228.7 345.88,227.94 351.64,227.18 357.41,226.43 363.17,225.67 368.94,224.91 374.7,224.15 380.47,223.39 386.24,222.63 386.89,228.33 387.35,234.05 387.61,239.79 387.68,245.53 387.55,251.26 387.23,256.99 386.71,262.71 386,268.41 385.09,274.07 383.99,279.71 382.7,285.3 381.23,290.85 379.56,296.34 377.71,301.77 375.67,307.14 373.45,312.43 371.06,317.65 368.49,322.78 365.74,327.82 362.83,332.76 359.74,337.6 356.5,342.34 353.1,346.96 349.54,351.46 345.83,355.84 341.97,360.09 337.97,364.21 333.83,368.19 329.56,372.02 325.16,375.71 320.64,379.24 316,382.62 311.25,385.84 306.39,388.9 301.43,391.79 296.38,394.51 291.24,397.05 286.01,399.42 280.7,401.61 275.33,403.62 269.88,405.44 264.38,407.08 258.83,408.53 253.23,409.79 247.59,410.86 241.92,411.73 236.22,412.41 230.5,412.9 224.77,413.19 219.03,413.29 219.03,407.48 219.03,401.66 219.03,395.85 219.03,390.03 219.03,384.21 219.03,378.4 219.03,372.58 219.03,366.77 219.03,360.95 219.03,355.14 219.03,349.32 219.03,343.51 219.03,337.69 219.03,331.88 219.03,326.06 219.03,320.24 219.03,314.43 219.03,308.61 219.03,302.8 219.03,296.98 219.03,291.17 219.03,285.35 219.03,279.54 219.03,273.72 219.03,267.9 219.03,262.09 219.03,256.27 219.03,250.46 219.03,244.64 219.03,244.64" stroke="none" fill="rgb(199,124,255)" stroke-width="1.07" stroke-dasharray="none" stroke-opacity="0" fill-opacity="1"/>
                </g>
                <g id="geom_polygon.polygon.629.1" class="polygon grob gDesc">
                  <polygon id="geom_polygon.polygon.629.1.1" points="219.03,244.64 218.27,238.88 217.51,233.11 216.75,227.35 215.99,221.58 215.23,215.81 214.48,210.05 213.72,204.28 212.96,198.52 212.2,192.75 211.44,186.99 210.68,181.22 209.92,175.45 209.16,169.69 208.4,163.92 207.64,158.16 206.88,152.39 206.13,146.63 205.37,140.86 204.61,135.09 203.85,129.33 203.09,123.56 202.33,117.8 201.57,112.03 200.81,106.27 200.05,100.5 199.29,94.73 198.53,88.97 197.78,83.2 197.02,77.44 202.74,76.78 208.48,76.33 214.23,76.06 219.99,76 225.75,76.13 231.5,76.46 237.23,76.98 242.94,77.7 248.63,78.61 254.28,79.72 259.89,81.02 265.45,82.51 270.96,84.19 276.41,86.06 281.79,88.11 287.1,90.34 292.33,92.76 297.47,95.35 302.52,98.11 307.48,101.05 312.33,104.15 317.07,107.42 321.7,110.85 326.2,114.43 330.59,118.16 334.84,122.05 338.96,126.07 342.94,130.23 346.77,134.53 350.46,138.96 353.99,143.51 357.36,148.17 360.57,152.95 363.62,157.84 366.5,162.82 369.21,167.91 371.74,173.08 374.1,178.33 376.27,183.67 378.26,189.07 380.06,194.54 381.68,200.07 383.11,205.65 384.34,211.27 385.39,216.93 386.24,222.63 380.47,223.39 374.7,224.15 368.94,224.91 363.17,225.67 357.41,226.43 351.64,227.18 345.88,227.94 340.11,228.7 334.34,229.46 328.58,230.22 322.81,230.98 317.05,231.74 311.28,232.5 305.52,233.26 299.75,234.02 293.98,234.78 288.22,235.53 282.45,236.29 276.69,237.05 270.92,237.81 265.16,238.57 259.39,239.33 253.62,240.09 247.86,240.85 242.09,241.61 236.33,242.37 230.56,243.12 224.8,243.88 219.03,244.64 219.03,244.64" stroke="none" fill="rgb(0,191,196)" stroke-width="1.07" stroke-dasharray="none" stroke-opacity="0" fill-opacity="1"/>
                </g>
                <g id="geom_polygon.polygon.631.1" class="polygon grob gDesc">
                  <polygon id="geom_polygon.polygon.631.1.1" points="219.03,244.64 213.26,245.4 207.5,246.16 201.73,246.92 195.97,247.68 190.2,248.44 184.44,249.2 178.67,249.96 172.9,250.72 167.14,251.47 161.37,252.23 155.61,252.99 149.84,253.75 144.08,254.51 138.31,255.27 132.54,256.03 126.78,256.79 121.01,257.55 115.25,258.31 109.48,259.07 103.72,259.82 97.95,260.58 92.18,261.34 86.42,262.1 80.65,262.86 74.89,263.62 69.12,264.38 63.36,265.14 57.59,265.9 51.82,266.66 51.17,260.93 50.71,255.19 50.45,249.44 50.38,243.68 50.52,237.93 50.84,232.18 51.37,226.44 52.09,220.73 53,215.04 54.11,209.39 55.41,203.78 56.9,198.22 58.58,192.71 60.44,187.26 62.49,181.88 64.73,176.57 67.14,171.35 69.73,166.2 72.5,161.15 75.43,156.2 78.54,151.35 81.8,146.6 85.23,141.98 88.82,137.47 92.55,133.09 96.43,128.83 100.46,124.71 104.62,120.74 108.92,116.9 113.34,113.22 117.89,109.69 122.56,106.31 127.34,103.1 132.22,100.05 137.21,97.17 142.29,94.46 147.47,91.93 152.72,89.58 158.05,87.4 163.46,85.41 168.93,83.61 174.45,81.99 180.03,80.57 185.66,79.33 191.32,78.29 197.02,77.44 197.78,83.2 198.53,88.97 199.29,94.73 200.05,100.5 200.81,106.27 201.57,112.03 202.33,117.8 203.09,123.56 203.85,129.33 204.61,135.09 205.37,140.86 206.13,146.63 206.88,152.39 207.64,158.16 208.4,163.92 209.16,169.69 209.92,175.45 210.68,181.22 211.44,186.99 212.2,192.75 212.96,198.52 213.72,204.28 214.48,210.05 215.23,215.81 215.99,221.58 216.75,227.35 217.51,233.11 218.27,238.88 219.03,244.64 219.03,244.64" stroke="none" fill="rgb(124,174,0)" stroke-width="1.07" stroke-dasharray="none" stroke-opacity="0" fill-opacity="1"/>
                </g>
                <g id="geom_polygon.polygon.633.1" class="polygon grob gDesc">
                  <polygon id="geom_polygon.polygon.633.1.1" points="219.03,244.64 219.03,250.46 219.03,256.27 219.03,262.09 219.03,267.9 219.03,273.72 219.03,279.54 219.03,285.35 219.03,291.17 219.03,296.98 219.03,302.8 219.03,308.61 219.03,314.43 219.03,320.24 219.03,326.06 219.03,331.88 219.03,337.69 219.03,343.51 219.03,349.32 219.03,355.14 219.03,360.95 219.03,366.77 219.03,372.58 219.03,378.4 219.03,384.21 219.03,390.03 219.03,395.85 219.03,401.66 219.03,407.48 219.03,413.29 213.25,413.19 207.48,412.9 201.71,412.4 195.97,411.71 190.26,410.82 184.58,409.74 178.94,408.46 173.35,406.99 167.82,405.33 162.34,403.48 156.93,401.44 151.59,399.22 146.33,396.82 141.16,394.24 136.07,391.48 131.09,388.55 126.21,385.45 121.44,382.19 116.78,378.76 112.24,375.18 107.83,371.44 103.55,367.55 99.41,363.52 95.4,359.35 91.54,355.05 87.83,350.61 84.28,346.05 80.88,341.38 77.65,336.58 74.58,331.68 71.68,326.68 68.95,321.58 66.41,316.39 64.04,311.12 61.85,305.77 59.85,300.34 58.03,294.86 56.4,289.31 54.97,283.71 53.73,278.06 52.68,272.37 51.82,266.66 57.59,265.9 63.36,265.14 69.12,264.38 74.89,263.62 80.65,262.86 86.42,262.1 92.18,261.34 97.95,260.58 103.72,259.82 109.48,259.07 115.25,258.31 121.01,257.55 126.78,256.79 132.54,256.03 138.31,255.27 144.08,254.51 149.84,253.75 155.61,252.99 161.37,252.23 167.14,251.47 172.9,250.72 178.67,249.96 184.44,249.2 190.2,248.44 195.97,247.68 201.73,246.92 207.5,246.16 213.26,245.4 219.03,244.64 219.03,244.64" stroke="none" fill="rgb(248,118,109)" stroke-width="1.07" stroke-dasharray="none" stroke-opacity="0" fill-opacity="1"/>
                </g>
              </g>
              <g id="GRID.text.636.1" class="text grob gDesc">
                <g id="GRID.text.636.1.1" transform="translate(282.43, 300.24)" stroke-width="0.1">
                  <g id="GRID.text.636.1.1.scale" transform="scale(1, -1)">
                    <text x="0" y="0" id="GRID.text.636.1.1.text" text-anchor="middle" stroke="rgb(0,0,0)" font-size="11.04" font-family="Helvetica, Arial, FreeSans, Liberation Sans, Nimbus Sans L, sans-serif" fill="rgb(0,0,0)" stroke-opacity="1" fill-opacity="1" font-weight="normal" font-style="normal">
                      <tspan id="GRID.text.636.1.1.tspan.1" dy="3.95" x="0">13</tspan>
                    </text>
                  </g>
                </g>
                <g id="GRID.text.636.1.2" transform="translate(270.36, 177.74)" stroke-width="0.1">
                  <g id="GRID.text.636.1.2.scale" transform="scale(1, -1)">
                    <text x="0" y="0" id="GRID.text.636.1.2.text" text-anchor="middle" stroke="rgb(0,0,0)" font-size="11.04" font-family="Helvetica, Arial, FreeSans, Liberation Sans, Nimbus Sans L, sans-serif" fill="rgb(0,0,0)" stroke-opacity="1" fill-opacity="1" font-weight="normal" font-style="normal">
                      <tspan id="GRID.text.636.1.2.tspan.1" dy="3.95" x="0">12</tspan>
                    </text>
                  </g>
                </g>
                <g id="GRID.text.636.1.3" transform="translate(152.13, 193.31)" stroke-width="0.1">
                  <g id="GRID.text.636.1.3.scale" transform="scale(1, -1)">
                    <text x="0" y="0" id="GRID.text.636.1.3.text" text-anchor="middle" stroke="rgb(0,0,0)" font-size="11.04" font-family="Helvetica, Arial, FreeSans, Liberation Sans, Nimbus Sans L, sans-serif" fill="rgb(0,0,0)" stroke-opacity="1" fill-opacity="1" font-weight="normal" font-style="normal">
                      <tspan id="GRID.text.636.1.3.tspan.1" dy="3.95" x="0">12</tspan>
                    </text>
                  </g>
                </g>
                <g id="GRID.text.636.1.4" transform="translate(163.43, 308.04)" stroke-width="0.1">
                  <g id="GRID.text.636.1.4.scale" transform="scale(1, -1)">
                    <text x="0" y="0" id="GRID.text.636.1.4.text" text-anchor="middle" stroke="rgb(0,0,0)" font-size="11.04" font-family="Helvetica, Arial, FreeSans, Liberation Sans, Nimbus Sans L, sans-serif" fill="rgb(0,0,0)" stroke-opacity="1" fill-opacity="1" font-weight="normal" font-style="normal">
                      <tspan id="GRID.text.636.1.4.tspan.1" dy="3.95" x="0">11</tspan>
                    </text>
                  </g>
                </g>
              </g>
              <g id="GRID.gTree.637.1" class="gTree grob gDesc"/>
            </g>
          </g>
          <g id="layout::spacer.8-6-8-6.1" class="viewport"/>
          <g id="layout::spacer.8-4-8-4.1" class="viewport"/>
          <g id="layout::spacer.6-6-6-6.1" class="viewport"/>
          <g id="layout::spacer.6-4-6-4.1" class="viewport"/>
          <g id="layout::axis-t.6-5-6-5.1" class="viewport"/>
          <g id="layout::axis-l.7-4-7-4.1" class="viewport">
            <g id="layout::axis-l.7-4-7-4::GRID.VP.152.1" class="viewport">
              <g id="axis-l.7-4-7-4.1" class="forcedgrob gTableChild absoluteGrob gTree grob gDesc">
                <g id="layout::axis-l.7-4-7-4::GRID.VP.152::axis.1" class="viewport">
                  <g id="axis.1" class="forcedgrob gtable gTree grob gDesc">
                    <g id="layout::axis-l.7-4-7-4::GRID.VP.152::axis::axis.1-1-1-1.1" class="viewport"/>
                    <g id="layout::axis-l.7-4-7-4::GRID.VP.152::axis::axis.1-2-1-2.1" class="viewport"/>
                  </g>
                </g>
              </g>
            </g>
          </g>
          <g id="layout::axis-r.7-6-7-6.1" class="viewport"/>
          <g id="layout::axis-b.8-5-8-5.1" class="viewport">
            <g id="layout::axis-b.8-5-8-5::GRID.VP.151.1" class="viewport">
              <g id="axis-b.8-5-8-5.1" class="forcedgrob gTableChild absoluteGrob gTree grob gDesc">
                <g id="layout::axis-b.8-5-8-5::GRID.VP.151::axis.1" class="viewport">
                  <g id="axis.2" class="forcedgrob gtable gTree grob gDesc">
                    <g id="layout::axis-b.8-5-8-5::GRID.VP.151::axis::axis.1-1-1-1.1" class="viewport"/>
                    <g id="layout::axis-b.8-5-8-5::GRID.VP.151::axis::axis.2-1-2-1.1" class="viewport"/>
                  </g>
                </g>
              </g>
            </g>
          </g>
          <g id="layout::xlab-t.5-5-5-5.1" class="viewport"/>
          <g id="layout::xlab-b.9-5-9-5.1" class="viewport"/>
          <g id="layout::ylab-l.7-3-7-3.1" class="viewport"/>
          <g id="layout::ylab-r.7-7-7-7.1" class="viewport"/>
          <g id="layout::guide-box.7-9-7-9.1" class="viewport">
            <g id="layout::guide-box.7-9-7-9::GRID.VP.166.1" class="viewport">
              <g id="layout::guide-box.7-9-7-9::GRID.VP.166::guide-box.7-9-7-9.1" class="viewport">
                <g id="guide-box.7-9-7-9.1" class="forcedgrob gTableChild gtable gTree grob gDesc">
                  <g id="layout::guide-box.7-9-7-9::GRID.VP.166::guide-box.7-9-7-9::legend.box.background.2-4-4-2.1" class="viewport"/>
                  <g id="layout::guide-box.7-9-7-9::GRID.VP.166::guide-box.7-9-7-9::guides.3-3-3-3.1" class="viewport">
                    <g id="layout::guide-box.7-9-7-9::GRID.VP.166::guide-box.7-9-7-9::guides.3-3-3-3::GRID.VP.165.1" class="viewport">
                      <g id="layout::guide-box.7-9-7-9::GRID.VP.166::guide-box.7-9-7-9::guides.3-3-3-3::GRID.VP.165::guides.3-3-3-3.1" class="viewport">
                        <g id="guides.3-3-3-3.1" class="forcedgrob gTableChild gtable gTree grob gDesc">
                          <g id="layout::guide-box.7-9-7-9::GRID.VP.166::guide-box.7-9-7-9::guides.3-3-3-3::GRID.VP.165::guides.3-3-3-3::background.1-6-8-1.1" class="viewport">
                            <g id="background.1-6-8-1.1" class="forcedgrob gTableChild rect grob gDesc">
                              <rect id="background.1-6-8-1.1.1" x="440.8" y="201.86" width="57.72" height="85.56" transform="" stroke-width="1.07" stroke="none" fill="rgb(255,255,255)" stroke-dasharray="none" stroke-opacity="0" fill-opacity="1"/>
                            </g>
                          </g>
                          <g id="layout::guide-box.7-9-7-9::GRID.VP.166::guide-box.7-9-7-9::guides.3-3-3-3::GRID.VP.165::guides.3-3-3-3::title.2-5-2-2.1" class="viewport"/>
                          <g id="layout::guide-box.7-9-7-9::GRID.VP.166::guide-box.7-9-7-9::guides.3-3-3-3::GRID.VP.165::guides.3-3-3-3::key-3-1-bg.4-2-4-2.1" class="viewport"/>
                          <g id="layout::guide-box.7-9-7-9::GRID.VP.166::guide-box.7-9-7-9::guides.3-3-3-3::GRID.VP.165::guides.3-3-3-3::key-3-1-1.4-2-4-2.1" class="viewport">
                            <g id="key-3-1-1.4-2-4-2.1" class="forcedgrob gTableChild rect grob gDesc">
                              <rect id="key-3-1-1.4-2-4-2.1.1" x="446.99" y="259.89" width="15.86" height="15.86" transform="" stroke="none" fill="rgb(248,118,109)" stroke-dasharray="none" stroke-width="1.07" stroke-linejoin="miter" stroke-opacity="0" fill-opacity="1"/>
                            </g>
                          </g>
                          <g id="layout::guide-box.7-9-7-9::GRID.VP.166::guide-box.7-9-7-9::guides.3-3-3-3::GRID.VP.165::guides.3-3-3-3::key-4-1-bg.5-2-5-2.1" class="viewport"/>
                          <g id="layout::guide-box.7-9-7-9::GRID.VP.166::guide-box.7-9-7-9::guides.3-3-3-3::GRID.VP.165::guides.3-3-3-3::key-4-1-1.5-2-5-2.1" class="viewport">
                            <g id="key-4-1-1.5-2-5-2.1" class="forcedgrob gTableChild rect grob gDesc">
                              <rect id="key-4-1-1.5-2-5-2.1.1" x="446.99" y="242.61" width="15.86" height="15.86" transform="" stroke="none" fill="rgb(124,174,0)" stroke-dasharray="none" stroke-width="1.07" stroke-linejoin="miter" stroke-opacity="0" fill-opacity="1"/>
                            </g>
                          </g>
                          <g id="layout::guide-box.7-9-7-9::GRID.VP.166::guide-box.7-9-7-9::guides.3-3-3-3::GRID.VP.165::guides.3-3-3-3::key-5-1-bg.6-2-6-2.1" class="viewport"/>
                          <g id="layout::guide-box.7-9-7-9::GRID.VP.166::guide-box.7-9-7-9::guides.3-3-3-3::GRID.VP.165::guides.3-3-3-3::key-5-1-1.6-2-6-2.1" class="viewport">
                            <g id="key-5-1-1.6-2-6-2.1" class="forcedgrob gTableChild rect grob gDesc">
                              <rect id="key-5-1-1.6-2-6-2.1.1" x="446.99" y="225.33" width="15.86" height="15.86" transform="" stroke="none" fill="rgb(0,191,196)" stroke-dasharray="none" stroke-width="1.07" stroke-linejoin="miter" stroke-opacity="0" fill-opacity="1"/>
                            </g>
                          </g>
                          <g id="layout::guide-box.7-9-7-9::GRID.VP.166::guide-box.7-9-7-9::guides.3-3-3-3::GRID.VP.165::guides.3-3-3-3::key-6-1-bg.7-2-7-2.1" class="viewport"/>
                          <g id="layout::guide-box.7-9-7-9::GRID.VP.166::guide-box.7-9-7-9::guides.3-3-3-3::GRID.VP.165::guides.3-3-3-3::key-6-1-1.7-2-7-2.1" class="viewport">
                            <g id="key-6-1-1.7-2-7-2.1" class="forcedgrob gTableChild rect grob gDesc">
                              <rect id="key-6-1-1.7-2-7-2.1.1" x="446.99" y="208.05" width="15.86" height="15.86" transform="" stroke="none" fill="rgb(199,124,255)" stroke-dasharray="none" stroke-width="1.07" stroke-linejoin="miter" stroke-opacity="0" fill-opacity="1"/>
                            </g>
                          </g>
                          <g id="layout::guide-box.7-9-7-9::GRID.VP.166::guide-box.7-9-7-9::guides.3-3-3-3::GRID.VP.165::guides.3-3-3-3::label-3-3.4-4-4-4.1" class="viewport">
                            <g id="layout::guide-box.7-9-7-9::GRID.VP.166::guide-box.7-9-7-9::guides.3-3-3-3::GRID.VP.165::guides.3-3-3-3::label-3-3.4-4-4-4::GRID.VP.161.1" class="viewport">
                              <g id="label-3-3.4-4-4-4.1" class="forcedgrob gTableChild gTree grob gDesc">
                                <g id="layout::guide-box.7-9-7-9::GRID.VP.166::guide-box.7-9-7-9::guides.3-3-3-3::GRID.VP.165::guides.3-3-3-3::label-3-3.4-4-4-4::GRID.VP.161::GRID.VP.153.1" font-size="8.8" stroke="rgb(0,0,0)" font-family="Helvetica, Arial, FreeSans, Liberation Sans, Nimbus Sans L, sans-serif" stroke-opacity="1" font-weight="normal" font-style="normal" class="viewport">
                                  <g id="layout::guide-box.7-9-7-9::GRID.VP.166::guide-box.7-9-7-9::guides.3-3-3-3::GRID.VP.165::guides.3-3-3-3::label-3-3.4-4-4-4::GRID.VP.161::GRID.VP.153::GRID.VP.154.1" class="viewport">
                                    <g id="guide.label.titleGrob.660.1" class="titleGrob gTree grob gDesc">
                                      <g id="GRID.text.658.1" class="text grob gDesc">
                                        <g id="GRID.text.658.1.1" transform="translate(469.04, 267.82)" stroke-width="0.1">
                                          <g id="GRID.text.658.1.1.scale" transform="scale(1, -1)">
                                            <text x="0" y="0" id="GRID.text.658.1.1.text" text-anchor="start" font-size="8.8" stroke="rgb(0,0,0)" font-family="Helvetica, Arial, FreeSans, Liberation Sans, Nimbus Sans L, sans-serif" fill="rgb(0,0,0)" stroke-opacity="1" fill-opacity="1" font-weight="normal" font-style="normal">
                                              <tspan id="GRID.text.658.1.1.tspan.1" dy="3.23" x="0">F (11)</tspan>
                                            </text>
                                          </g>
                                        </g>
                                      </g>
                                    </g>
                                  </g>
                                </g>
                              </g>
                            </g>
                          </g>
                          <g id="layout::guide-box.7-9-7-9::GRID.VP.166::guide-box.7-9-7-9::guides.3-3-3-3::GRID.VP.165::guides.3-3-3-3::label-4-3.5-4-5-4.1" class="viewport">
                            <g id="layout::guide-box.7-9-7-9::GRID.VP.166::guide-box.7-9-7-9::guides.3-3-3-3::GRID.VP.165::guides.3-3-3-3::label-4-3.5-4-5-4::GRID.VP.162.1" class="viewport">
                              <g id="label-4-3.5-4-5-4.1" class="forcedgrob gTableChild gTree grob gDesc">
                                <g id="layout::guide-box.7-9-7-9::GRID.VP.166::guide-box.7-9-7-9::guides.3-3-3-3::GRID.VP.165::guides.3-3-3-3::label-4-3.5-4-5-4::GRID.VP.162::GRID.VP.155.1" font-size="8.8" stroke="rgb(0,0,0)" font-family="Helvetica, Arial, FreeSans, Liberation Sans, Nimbus Sans L, sans-serif" stroke-opacity="1" font-weight="normal" font-style="normal" class="viewport">
                                  <g id="layout::guide-box.7-9-7-9::GRID.VP.166::guide-box.7-9-7-9::guides.3-3-3-3::GRID.VP.165::guides.3-3-3-3::label-4-3.5-4-5-4::GRID.VP.162::GRID.VP.155::GRID.VP.156.1" class="viewport">
                                    <g id="guide.label.titleGrob.663.1" class="titleGrob gTree grob gDesc">
                                      <g id="GRID.text.661.1" class="text grob gDesc">
                                        <g id="GRID.text.661.1.1" transform="translate(469.04, 250.54)" stroke-width="0.1">
                                          <g id="GRID.text.661.1.1.scale" transform="scale(1, -1)">
                                            <text x="0" y="0" id="GRID.text.661.1.1.text" text-anchor="start" font-size="8.8" stroke="rgb(0,0,0)" font-family="Helvetica, Arial, FreeSans, Liberation Sans, Nimbus Sans L, sans-serif" fill="rgb(0,0,0)" stroke-opacity="1" fill-opacity="1" font-weight="normal" font-style="normal">
                                              <tspan id="GRID.text.661.1.1.tspan.1" dy="3.23" x="0">2 (12)</tspan>
                                            </text>
                                          </g>
                                        </g>
                                      </g>
                                    </g>
                                  </g>
                                </g>
                              </g>
                            </g>
                          </g>
                          <g id="layout::guide-box.7-9-7-9::GRID.VP.166::guide-box.7-9-7-9::guides.3-3-3-3::GRID.VP.165::guides.3-3-3-3::label-5-3.6-4-6-4.1" class="viewport">
                            <g id="layout::guide-box.7-9-7-9::GRID.VP.166::guide-box.7-9-7-9::guides.3-3-3-3::GRID.VP.165::guides.3-3-3-3::label-5-3.6-4-6-4::GRID.VP.163.1" class="viewport">
                              <g id="label-5-3.6-4-6-4.1" class="forcedgrob gTableChild gTree grob gDesc">
                                <g id="layout::guide-box.7-9-7-9::GRID.VP.166::guide-box.7-9-7-9::guides.3-3-3-3::GRID.VP.165::guides.3-3-3-3::label-5-3.6-4-6-4::GRID.VP.163::GRID.VP.157.1" font-size="8.8" stroke="rgb(0,0,0)" font-family="Helvetica, Arial, FreeSans, Liberation Sans, Nimbus Sans L, sans-serif" stroke-opacity="1" font-weight="normal" font-style="normal" class="viewport">
                                  <g id="layout::guide-box.7-9-7-9::GRID.VP.166::guide-box.7-9-7-9::guides.3-3-3-3::GRID.VP.165::guides.3-3-3-3::label-5-3.6-4-6-4::GRID.VP.163::GRID.VP.157::GRID.VP.158.1" class="viewport">
                                    <g id="guide.label.titleGrob.666.1" class="titleGrob gTree grob gDesc">
                                      <g id="GRID.text.664.1" class="text grob gDesc">
                                        <g id="GRID.text.664.1.1" transform="translate(469.04, 233.26)" stroke-width="0.1">
                                          <g id="GRID.text.664.1.1.scale" transform="scale(1, -1)">
                                            <text x="0" y="0" id="GRID.text.664.1.1.text" text-anchor="start" font-size="8.8" stroke="rgb(0,0,0)" font-family="Helvetica, Arial, FreeSans, Liberation Sans, Nimbus Sans L, sans-serif" fill="rgb(0,0,0)" stroke-opacity="1" fill-opacity="1" font-weight="normal" font-style="normal">
                                              <tspan id="GRID.text.664.1.1.tspan.1" dy="3.23" x="0">1 (12)</tspan>
                                            </text>
                                          </g>
                                        </g>
                                      </g>
                                    </g>
                                  </g>
                                </g>
                              </g>
                            </g>
                          </g>
                          <g id="layout::guide-box.7-9-7-9::GRID.VP.166::guide-box.7-9-7-9::guides.3-3-3-3::GRID.VP.165::guides.3-3-3-3::label-6-3.7-4-7-4.1" class="viewport">
                            <g id="layout::guide-box.7-9-7-9::GRID.VP.166::guide-box.7-9-7-9::guides.3-3-3-3::GRID.VP.165::guides.3-3-3-3::label-6-3.7-4-7-4::GRID.VP.164.1" class="viewport">
                              <g id="label-6-3.7-4-7-4.1" class="forcedgrob gTableChild gTree grob gDesc">
                                <g id="layout::guide-box.7-9-7-9::GRID.VP.166::guide-box.7-9-7-9::guides.3-3-3-3::GRID.VP.165::guides.3-3-3-3::label-6-3.7-4-7-4::GRID.VP.164::GRID.VP.159.1" font-size="8.8" stroke="rgb(0,0,0)" font-family="Helvetica, Arial, FreeSans, Liberation Sans, Nimbus Sans L, sans-serif" stroke-opacity="1" font-weight="normal" font-style="normal" class="viewport">
                                  <g id="layout::guide-box.7-9-7-9::GRID.VP.166::guide-box.7-9-7-9::guides.3-3-3-3::GRID.VP.165::guides.3-3-3-3::label-6-3.7-4-7-4::GRID.VP.164::GRID.VP.159::GRID.VP.160.1" class="viewport">
                                    <g id="guide.label.titleGrob.669.1" class="titleGrob gTree grob gDesc">
                                      <g id="GRID.text.667.1" class="text grob gDesc">
                                        <g id="GRID.text.667.1.1" transform="translate(469.04, 215.98)" stroke-width="0.1">
                                          <g id="GRID.text.667.1.1.scale" transform="scale(1, -1)">
                                            <text x="0" y="0" id="GRID.text.667.1.1.text" text-anchor="start" font-size="8.8" stroke="rgb(0,0,0)" font-family="Helvetica, Arial, FreeSans, Liberation Sans, Nimbus Sans L, sans-serif" fill="rgb(0,0,0)" stroke-opacity="1" fill-opacity="1" font-weight="normal" font-style="normal">
                                              <tspan id="GRID.text.667.1.1.tspan.1" dy="3.23" x="0">3 (13)</tspan>
                                            </text>
                                          </g>
                                        </g>
                                      </g>
                                    </g>
                                  </g>
                                </g>
                              </g>
                            </g>
                          </g>
                        </g>
                      </g>
                    </g>
                  </g>
                </g>
              </g>
            </g>
          </g>
          <g id="layout::subtitle.4-5-4-5.1" class="viewport"/>
          <g id="layout::title.3-5-3-5.1" class="viewport">
            <g id="layout::title.3-5-3-5::GRID.VP.167.1" font-size="13.2" stroke="rgb(102,102,102)" font-family="Helvetica, Arial, FreeSans, Liberation Sans, Nimbus Sans L, sans-serif" stroke-opacity="1" font-weight="normal" font-style="normal" class="viewport">
              <g id="layout::title.3-5-3-5::GRID.VP.167::GRID.VP.168.1" class="viewport">
                <g id="title.3-5-3-5.1" class="forcedgrob gTableChild titleGrob gTree grob gDesc">
                  <g id="GRID.text.684.1" class="text grob gDesc">
                    <g id="GRID.text.684.1.1" transform="translate(219.03, 472.91)" stroke-width="0.1">
                      <g id="GRID.text.684.1.1.scale" transform="scale(1, -1)">
                        <text x="0" y="0" id="GRID.text.684.1.1.text" text-anchor="middle" font-size="13.2" stroke="rgb(102,102,102)" font-family="Helvetica, Arial, FreeSans, Liberation Sans, Nimbus Sans L, sans-serif" fill="rgb(102,102,102)" stroke-opacity="1" fill-opacity="1" font-weight="normal" font-style="normal">
                          <tspan id="GRID.text.684.1.1.tspan.1" dy="9.33" x="0">anagrafica annocorso</tspan>
                        </text>
                      </g>
                    </g>
                  </g>
                </g>
              </g>
            </g>
          </g>
          <g id="layout::caption.10-5-10-5.1" class="viewport"/>
          <g id="layout::tag.2-2-2-2.1" class="viewport"/>
        </g>
      </g>
    </g>
  </g>
</svg>