<?xml version="1.0" encoding="UTF-8"?>
<svg xmlns="http://www.w3.org/2000/svg" xmlns:xlink="http://www.w3.org/1999/xlink" width="504px" height="504px" viewBox="0 0 504 504" version="1.1">
  <metadata xmlns:gridsvg="http://www.stat.auckland.ac.nz/~paul/R/gridSVG/">
    <gridsvg:generator name="gridSVG" version="1.6-0" time="2019-01-14 15:48:10"/>
    <gridsvg:argument name="name" value="./latest_informaggio_csv/anziani/risultati/svg/anagrafica-totali-disclaimer.svg"/>
    <gridsvg:argument name="exportCoords" value="none"/>
    <gridsvg:argument name="exportMappings" value="none"/>
    <gridsvg:argument name="exportJS" value="none"/>
    <gridsvg:argument name="res" value="72"/>
    <gridsvg:argument name="prefix" value=""/>
    <gridsvg:argument name="addClasses" value="TRUE"/>
    <gridsvg:argument name="indent" value="TRUE"/>
    <gridsvg:argument name="htmlWrapper" value="FALSE"/>
    <gridsvg:argument name="usePaths" value="vpPaths"/>
    <gridsvg:argument name="uniqueNames" value="TRUE"/>
    <gridsvg:separator name="id.sep" value="."/>
    <gridsvg:separator name="gPath.sep" value="::"/>
    <gridsvg:separator name="vpPath.sep" value="::"/>
  </metadata>
  <g transform="translate(0, 504) scale(1, -1)">
    <g id="gridSVG" fill="none" stroke="rgb(0,0,0)" stroke-dasharray="none" stroke-width="0.75" font-size="12" font-family="Helvetica, Arial, FreeSans, Liberation Sans, Nimbus Sans L, sans-serif" opacity="1" stroke-linecap="round" stroke-linejoin="round" stroke-miterlimit="10" stroke-opacity="1" fill-opacity="0" font-weight="normal" font-style="normal">
      <g id="layout.1" class="viewport">
        <g id="layout.2" class="forcedgrob gtable gTree grob gDesc">
          <defs>
            <clipPath id="layout::background.1-11-12-1.1.clipPath">
              <rect x="0" y="28.62" width="504" height="446.76" fill="none" stroke="none"/>
            </clipPath>
          </defs>
          <g id="layout::background.1-11-12-1.1" clip-path="url(#layout::background.1-11-12-1.1.clipPath)" class="viewport">
            <g id="background.1-11-12-1.1" class="forcedgrob gTableChild rect grob gDesc">
              <rect id="background.1-11-12-1.1.1" x="0" y="28.62" width="504" height="446.76" transform="" stroke-width="1.07" stroke="rgb(255,255,255)" fill="rgb(255,255,255)" stroke-dasharray="none" stroke-opacity="1" fill-opacity="1"/>
            </g>
          </g>
          <defs>
            <clipPath id="layout::panel.7-5-7-5.1.clipPath">
              <rect x="8.22" y="36.84" width="415.61" height="415.61" fill="none" stroke="none"/>
            </clipPath>
          </defs>
          <g id="layout::panel.7-5-7-5.1" clip-path="url(#layout::panel.7-5-7-5.1.clipPath)" class="viewport">
            <g id="panel.7-5-7-5.1" class="forcedgrob gTableChild gTree grob gDesc">
              <g id="grill.gTree.1588.1" class="gTree grob gDesc">
                <g id="panel.background..rect.1584.1" class="rect grob gDesc">
                  <rect id="panel.background..rect.1584.1.1" x="8.22" y="36.84" width="415.61" height="415.61" transform="" stroke-width="1.07" stroke="none" fill="rgb(255,255,255)" stroke-dasharray="none" stroke-opacity="0" fill-opacity="1"/>
                </g>
              </g>
              <g id="bar.gTree.1577.1" class="gTree grob gDesc">
                <g id="geom_polygon.polygon.1569.1" class="polygon grob gDesc">
                  <polygon id="geom_polygon.polygon.1569.1.1" points="216.02,244.64 213.83,239.35 211.64,234.05 209.44,228.75 207.25,223.46 205.05,218.16 202.86,212.87 200.67,207.57 198.47,202.27 196.28,196.98 194.09,191.68 191.89,186.39 189.7,181.09 187.51,175.79 185.31,170.5 183.12,165.2 180.92,159.9 178.73,154.61 176.54,149.31 174.34,144.02 172.15,138.72 169.96,133.42 167.76,128.13 165.57,122.83 163.37,117.53 161.18,112.24 158.99,106.94 156.79,101.65 154.6,96.35 152.41,91.05 157.66,88.98 162.98,87.09 168.37,85.38 173.81,83.85 179.29,82.51 184.82,81.35 190.39,80.39 195.99,79.61 201.6,79.03 207.24,78.63 212.89,78.43 218.53,78.42 224.18,78.6 229.82,78.97 235.44,79.54 241.04,80.29 246.61,81.24 252.14,82.37 257.63,83.69 263.08,85.2 268.47,86.89 273.8,88.76 279.06,90.81 284.25,93.05 289.36,95.45 294.39,98.03 299.33,100.78 304.17,103.69 308.91,106.77 313.54,110 318.05,113.39 322.46,116.94 326.73,120.63 330.88,124.46 334.9,128.43 338.78,132.54 342.52,136.77 346.11,141.13 349.55,145.61 352.84,150.21 355.97,154.91 358.94,159.72 361.74,164.62 364.38,169.62 366.84,174.7 369.13,179.87 371.24,185.11 373.17,190.41 374.93,195.78 376.49,201.21 377.88,206.69 379.07,212.21 380.08,217.77 380.9,223.36 381.53,228.97 381.96,234.61 382.21,240.25 382.26,245.9 382.12,251.55 381.79,257.19 381.27,262.81 380.56,268.42 379.66,273.99 378.56,279.53 377.29,285.04 375.82,290.49 374.17,295.9 372.34,301.24 370.32,306.52 368.13,311.72 365.77,316.85 363.23,321.9 360.52,326.86 357.64,331.72 354.6,336.48 351.4,341.14 348.04,345.68 344.53,350.11 340.87,354.41 337.07,358.59 333.13,362.64 329.05,366.55 324.85,370.32 320.51,373.94 316.06,377.42 311.49,380.74 306.81,383.91 302.03,386.91 297.14,389.75 292.17,392.42 287.1,394.93 281.95,397.25 276.73,399.41 271.44,401.38 266.08,403.17 260.67,404.78 255.2,406.21 249.69,407.44 244.14,408.49 238.55,409.35 232.94,410.02 227.31,410.5 221.67,410.79 216.02,410.89 216.02,405.15 216.02,399.42 216.02,393.69 216.02,387.96 216.02,382.22 216.02,376.49 216.02,370.76 216.02,365.03 216.02,359.29 216.02,353.56 216.02,347.83 216.02,342.1 216.02,336.36 216.02,330.63 216.02,324.9 216.02,319.17 216.02,313.43 216.02,307.7 216.02,301.97 216.02,296.24 216.02,290.5 216.02,284.77 216.02,279.04 216.02,273.31 216.02,267.57 216.02,261.84 216.02,256.11 216.02,250.38 216.02,244.64 216.02,244.64" stroke="none" fill="rgb(199,124,255)" stroke-width="1.07" stroke-dasharray="none" stroke-opacity="0" fill-opacity="1"/>
                </g>
                <g id="geom_polygon.polygon.1571.1" class="polygon grob gDesc">
                  <polygon id="geom_polygon.polygon.1571.1.1" points="216.02,244.64 213.83,249.94 211.64,255.24 209.44,260.53 207.25,265.83 205.05,271.12 202.86,276.42 200.67,281.72 198.47,287.01 196.28,292.31 194.09,297.6 191.89,302.9 189.7,308.2 187.51,313.49 185.31,318.79 183.12,324.09 180.92,329.38 178.73,334.68 176.54,339.97 174.34,345.27 172.15,350.57 169.96,355.86 167.76,361.16 165.57,366.46 163.37,371.75 161.18,377.05 158.99,382.34 156.79,387.64 154.6,392.94 152.41,398.23 147.2,395.97 142.07,393.53 137.03,390.92 132.08,388.14 127.23,385.19 122.49,382.08 117.85,378.8 113.33,375.37 108.92,371.79 104.64,368.06 100.5,364.18 96.48,360.17 92.61,356.02 88.88,351.74 85.29,347.34 81.86,342.82 78.59,338.18 75.48,333.43 72.53,328.58 69.75,323.63 67.13,318.59 64.7,313.47 62.43,308.26 60.35,302.98 58.45,297.63 56.73,292.22 55.2,286.76 53.86,281.24 52.7,275.68 51.74,270.09 50.97,264.46 50.39,258.82 50,253.15 49.8,247.48 49.8,241.8 50,236.13 50.39,230.47 50.97,224.82 51.74,219.2 52.7,213.6 53.86,208.05 55.2,202.53 56.73,197.06 58.45,191.65 60.35,186.31 62.43,181.02 64.7,175.82 67.13,170.69 69.75,165.65 72.53,160.7 75.48,155.85 78.59,151.11 81.86,146.47 85.29,141.95 88.88,137.54 92.61,133.26 96.48,129.12 100.5,125.1 104.64,121.23 108.92,117.5 113.33,113.91 117.85,110.48 122.49,107.21 127.23,104.1 132.08,101.15 137.03,98.37 142.07,95.75 147.2,93.32 152.41,91.05 154.6,96.35 156.79,101.65 158.99,106.94 161.18,112.24 163.37,117.53 165.57,122.83 167.76,128.13 169.96,133.42 172.15,138.72 174.34,144.02 176.54,149.31 178.73,154.61 180.92,159.9 183.12,165.2 185.31,170.5 187.51,175.79 189.7,181.09 191.89,186.39 194.09,191.68 196.28,196.98 198.47,202.27 200.67,207.57 202.86,212.87 205.05,218.16 207.25,223.46 209.44,228.75 211.64,234.05 213.83,239.35 216.02,244.64 216.02,244.64" stroke="none" fill="rgb(0,191,196)" stroke-width="1.07" stroke-dasharray="none" stroke-opacity="0" fill-opacity="1"/>
                </g>
                <g id="geom_polygon.polygon.1573.1" class="polygon grob gDesc">
                  <polygon id="geom_polygon.polygon.1573.1.1" points="216.02,244.64 215.28,250.33 214.53,256.01 213.78,261.69 213.03,267.38 212.28,273.06 211.53,278.74 210.79,284.43 210.04,290.11 209.29,295.79 208.54,301.48 207.79,307.16 207.04,312.85 206.3,318.53 205.55,324.21 204.8,329.9 204.05,335.58 203.3,341.26 202.56,346.95 201.81,352.63 201.06,358.31 200.31,364 199.56,369.68 198.81,375.36 198.07,381.05 197.32,386.73 196.57,392.41 195.82,398.1 195.07,403.78 194.32,409.46 188.18,408.54 182.07,407.38 176.01,406 170,404.39 164.06,402.56 158.19,400.5 152.41,398.23 154.6,392.94 156.79,387.64 158.99,382.34 161.18,377.05 163.37,371.75 165.57,366.46 167.76,361.16 169.96,355.86 172.15,350.57 174.34,345.27 176.54,339.97 178.73,334.68 180.92,329.38 183.12,324.09 185.31,318.79 187.51,313.49 189.7,308.2 191.89,302.9 194.09,297.6 196.28,292.31 198.47,287.01 200.67,281.72 202.86,276.42 205.05,271.12 207.25,265.83 209.44,260.53 211.64,255.24 213.83,249.94 216.02,244.64 216.02,244.64" stroke="none" fill="rgb(124,174,0)" stroke-width="1.07" stroke-dasharray="none" stroke-opacity="0" fill-opacity="1"/>
                </g>
                <g id="geom_polygon.polygon.1575.1" class="polygon grob gDesc">
                  <polygon id="geom_polygon.polygon.1575.1.1" points="216.02,244.64 216.02,250.38 216.02,256.11 216.02,261.84 216.02,267.57 216.02,273.31 216.02,279.04 216.02,284.77 216.02,290.5 216.02,296.24 216.02,301.97 216.02,307.7 216.02,313.43 216.02,319.17 216.02,324.9 216.02,330.63 216.02,336.36 216.02,342.1 216.02,347.83 216.02,353.56 216.02,359.29 216.02,365.03 216.02,370.76 216.02,376.49 216.02,382.22 216.02,387.96 216.02,393.69 216.02,399.42 216.02,405.15 216.02,410.89 208.77,410.73 201.53,410.25 194.32,409.46 195.07,403.78 195.82,398.1 196.57,392.41 197.32,386.73 198.07,381.05 198.81,375.36 199.56,369.68 200.31,364 201.06,358.31 201.81,352.63 202.56,346.95 203.3,341.26 204.05,335.58 204.8,329.9 205.55,324.21 206.3,318.53 207.04,312.85 207.79,307.16 208.54,301.48 209.29,295.79 210.04,290.11 210.79,284.43 211.53,278.74 212.28,273.06 213.03,267.38 213.78,261.69 214.53,256.01 215.28,250.33 216.02,244.64 216.02,244.64" stroke="none" fill="rgb(248,118,109)" stroke-width="1.07" stroke-dasharray="none" stroke-opacity="0" fill-opacity="1"/>
                </g>
              </g>
              <g id="GRID.text.1578.1" class="text grob gDesc">
                <g id="GRID.text.1578.1.1" transform="translate(297.55, 228.43)" stroke-width="0.1">
                  <g id="GRID.text.1578.1.1.scale" transform="scale(1, -1)">
                    <text x="0" y="0" id="GRID.text.1578.1.1.text" text-anchor="middle" stroke="rgb(0,0,0)" font-size="11.04" font-family="Helvetica, Arial, FreeSans, Liberation Sans, Nimbus Sans L, sans-serif" fill="rgb(0,0,0)" stroke-opacity="1" fill-opacity="1" font-weight="normal" font-style="normal">
                      <tspan id="GRID.text.1578.1.1.tspan.1" dy="3.95" x="0">27</tspan>
                    </text>
                  </g>
                </g>
                <g id="GRID.text.1578.1.2" transform="translate(132.9, 244.64)" stroke-width="0.1">
                  <g id="GRID.text.1578.1.2.scale" transform="scale(1, -1)">
                    <text x="0" y="0" id="GRID.text.1578.1.2.text" text-anchor="middle" stroke="rgb(0,0,0)" font-size="11.04" font-family="Helvetica, Arial, FreeSans, Liberation Sans, Nimbus Sans L, sans-serif" fill="rgb(0,0,0)" stroke-opacity="1" fill-opacity="1" font-weight="normal" font-style="normal">
                      <tspan id="GRID.text.1578.1.2.tspan.1" dy="3.95" x="0">18</tspan>
                    </text>
                  </g>
                </g>
                <g id="GRID.text.1578.1.3" transform="translate(194.51, 324.93)" stroke-width="0.1">
                  <g id="GRID.text.1578.1.3.scale" transform="scale(1, -1)">
                    <text x="0" y="0" id="GRID.text.1578.1.3.text" text-anchor="middle" stroke="rgb(0,0,0)" font-size="11.04" font-family="Helvetica, Arial, FreeSans, Liberation Sans, Nimbus Sans L, sans-serif" fill="rgb(0,0,0)" stroke-opacity="1" fill-opacity="1" font-weight="normal" font-style="normal">
                      <tspan id="GRID.text.1578.1.3.tspan.1" dy="3.95" x="0">2</tspan>
                    </text>
                  </g>
                </g>
                <g id="GRID.text.1578.1.4" transform="translate(210.59, 327.59)" stroke-width="0.1">
                  <g id="GRID.text.1578.1.4.scale" transform="scale(1, -1)">
                    <text x="0" y="0" id="GRID.text.1578.1.4.text" text-anchor="middle" stroke="rgb(0,0,0)" font-size="11.04" font-family="Helvetica, Arial, FreeSans, Liberation Sans, Nimbus Sans L, sans-serif" fill="rgb(0,0,0)" stroke-opacity="1" fill-opacity="1" font-weight="normal" font-style="normal">
                      <tspan id="GRID.text.1578.1.4.tspan.1" dy="3.95" x="0">1</tspan>
                    </text>
                  </g>
                </g>
              </g>
              <g id="GRID.gTree.1579.1" class="gTree grob gDesc"/>
            </g>
          </g>
          <g id="layout::spacer.8-6-8-6.1" class="viewport"/>
          <g id="layout::spacer.8-4-8-4.1" class="viewport"/>
          <g id="layout::spacer.6-6-6-6.1" class="viewport"/>
          <g id="layout::spacer.6-4-6-4.1" class="viewport"/>
          <g id="layout::axis-t.6-5-6-5.1" class="viewport"/>
          <g id="layout::axis-l.7-4-7-4.1" class="viewport">
            <g id="layout::axis-l.7-4-7-4::GRID.VP.368.1" class="viewport">
              <g id="axis-l.7-4-7-4.1" class="forcedgrob gTableChild absoluteGrob gTree grob gDesc">
                <g id="layout::axis-l.7-4-7-4::GRID.VP.368::axis.1" class="viewport">
                  <g id="axis.1" class="forcedgrob gtable gTree grob gDesc">
                    <g id="layout::axis-l.7-4-7-4::GRID.VP.368::axis::axis.1-1-1-1.1" class="viewport"/>
                    <g id="layout::axis-l.7-4-7-4::GRID.VP.368::axis::axis.1-2-1-2.1" class="viewport"/>
                  </g>
                </g>
              </g>
            </g>
          </g>
          <g id="layout::axis-r.7-6-7-6.1" class="viewport"/>
          <g id="layout::axis-b.8-5-8-5.1" class="viewport">
            <g id="layout::axis-b.8-5-8-5::GRID.VP.367.1" class="viewport">
              <g id="axis-b.8-5-8-5.1" class="forcedgrob gTableChild absoluteGrob gTree grob gDesc">
                <g id="layout::axis-b.8-5-8-5::GRID.VP.367::axis.1" class="viewport">
                  <g id="axis.2" class="forcedgrob gtable gTree grob gDesc">
                    <g id="layout::axis-b.8-5-8-5::GRID.VP.367::axis::axis.1-1-1-1.1" class="viewport"/>
                    <g id="layout::axis-b.8-5-8-5::GRID.VP.367::axis::axis.2-1-2-1.1" class="viewport"/>
                  </g>
                </g>
              </g>
            </g>
          </g>
          <g id="layout::xlab-t.5-5-5-5.1" class="viewport"/>
          <g id="layout::xlab-b.9-5-9-5.1" class="viewport"/>
          <g id="layout::ylab-l.7-3-7-3.1" class="viewport"/>
          <g id="layout::ylab-r.7-7-7-7.1" class="viewport"/>
          <g id="layout::guide-box.7-9-7-9.1" class="viewport">
            <g id="layout::guide-box.7-9-7-9::GRID.VP.382.1" class="viewport">
              <g id="layout::guide-box.7-9-7-9::GRID.VP.382::guide-box.7-9-7-9.1" class="viewport">
                <g id="guide-box.7-9-7-9.1" class="forcedgrob gTableChild gtable gTree grob gDesc">
                  <g id="layout::guide-box.7-9-7-9::GRID.VP.382::guide-box.7-9-7-9::legend.box.background.2-4-4-2.1" class="viewport"/>
                  <g id="layout::guide-box.7-9-7-9::GRID.VP.382::guide-box.7-9-7-9::guides.3-3-3-3.1" class="viewport">
                    <g id="layout::guide-box.7-9-7-9::GRID.VP.382::guide-box.7-9-7-9::guides.3-3-3-3::GRID.VP.381.1" class="viewport">
                      <g id="layout::guide-box.7-9-7-9::GRID.VP.382::guide-box.7-9-7-9::guides.3-3-3-3::GRID.VP.381::guides.3-3-3-3.1" class="viewport">
                        <g id="guides.3-3-3-3.1" class="forcedgrob gTableChild gtable gTree grob gDesc">
                          <g id="layout::guide-box.7-9-7-9::GRID.VP.382::guide-box.7-9-7-9::guides.3-3-3-3::GRID.VP.381::guides.3-3-3-3::background.1-6-8-1.1" class="viewport">
                            <g id="background.1-6-8-1.1" class="forcedgrob gTableChild rect grob gDesc">
                              <rect id="background.1-6-8-1.1.1" x="434.79" y="201.86" width="63.73" height="85.56" transform="" stroke-width="1.07" stroke="none" fill="rgb(255,255,255)" stroke-dasharray="none" stroke-opacity="0" fill-opacity="1"/>
                            </g>
                          </g>
                          <g id="layout::guide-box.7-9-7-9::GRID.VP.382::guide-box.7-9-7-9::guides.3-3-3-3::GRID.VP.381::guides.3-3-3-3::title.2-5-2-2.1" class="viewport"/>
                          <g id="layout::guide-box.7-9-7-9::GRID.VP.382::guide-box.7-9-7-9::guides.3-3-3-3::GRID.VP.381::guides.3-3-3-3::key-3-1-bg.4-2-4-2.1" class="viewport"/>
                          <g id="layout::guide-box.7-9-7-9::GRID.VP.382::guide-box.7-9-7-9::guides.3-3-3-3::GRID.VP.381::guides.3-3-3-3::key-3-1-1.4-2-4-2.1" class="viewport">
                            <g id="key-3-1-1.4-2-4-2.1" class="forcedgrob gTableChild rect grob gDesc">
                              <rect id="key-3-1-1.4-2-4-2.1.1" x="440.98" y="259.89" width="15.86" height="15.86" transform="" stroke="none" fill="rgb(248,118,109)" stroke-dasharray="none" stroke-width="1.07" stroke-linejoin="miter" stroke-opacity="0" fill-opacity="1"/>
                            </g>
                          </g>
                          <g id="layout::guide-box.7-9-7-9::GRID.VP.382::guide-box.7-9-7-9::guides.3-3-3-3::GRID.VP.381::guides.3-3-3-3::key-4-1-bg.5-2-5-2.1" class="viewport"/>
                          <g id="layout::guide-box.7-9-7-9::GRID.VP.382::guide-box.7-9-7-9::guides.3-3-3-3::GRID.VP.381::guides.3-3-3-3::key-4-1-1.5-2-5-2.1" class="viewport">
                            <g id="key-4-1-1.5-2-5-2.1" class="forcedgrob gTableChild rect grob gDesc">
                              <rect id="key-4-1-1.5-2-5-2.1.1" x="440.98" y="242.61" width="15.86" height="15.86" transform="" stroke="none" fill="rgb(124,174,0)" stroke-dasharray="none" stroke-width="1.07" stroke-linejoin="miter" stroke-opacity="0" fill-opacity="1"/>
                            </g>
                          </g>
                          <g id="layout::guide-box.7-9-7-9::GRID.VP.382::guide-box.7-9-7-9::guides.3-3-3-3::GRID.VP.381::guides.3-3-3-3::key-5-1-bg.6-2-6-2.1" class="viewport"/>
                          <g id="layout::guide-box.7-9-7-9::GRID.VP.382::guide-box.7-9-7-9::guides.3-3-3-3::GRID.VP.381::guides.3-3-3-3::key-5-1-1.6-2-6-2.1" class="viewport">
                            <g id="key-5-1-1.6-2-6-2.1" class="forcedgrob gTableChild rect grob gDesc">
                              <rect id="key-5-1-1.6-2-6-2.1.1" x="440.98" y="225.33" width="15.86" height="15.86" transform="" stroke="none" fill="rgb(0,191,196)" stroke-dasharray="none" stroke-width="1.07" stroke-linejoin="miter" stroke-opacity="0" fill-opacity="1"/>
                            </g>
                          </g>
                          <g id="layout::guide-box.7-9-7-9::GRID.VP.382::guide-box.7-9-7-9::guides.3-3-3-3::GRID.VP.381::guides.3-3-3-3::key-6-1-bg.7-2-7-2.1" class="viewport"/>
                          <g id="layout::guide-box.7-9-7-9::GRID.VP.382::guide-box.7-9-7-9::guides.3-3-3-3::GRID.VP.381::guides.3-3-3-3::key-6-1-1.7-2-7-2.1" class="viewport">
                            <g id="key-6-1-1.7-2-7-2.1" class="forcedgrob gTableChild rect grob gDesc">
                              <rect id="key-6-1-1.7-2-7-2.1.1" x="440.98" y="208.05" width="15.86" height="15.86" transform="" stroke="none" fill="rgb(199,124,255)" stroke-dasharray="none" stroke-width="1.07" stroke-linejoin="miter" stroke-opacity="0" fill-opacity="1"/>
                            </g>
                          </g>
                          <g id="layout::guide-box.7-9-7-9::GRID.VP.382::guide-box.7-9-7-9::guides.3-3-3-3::GRID.VP.381::guides.3-3-3-3::label-3-3.4-4-4-4.1" class="viewport">
                            <g id="layout::guide-box.7-9-7-9::GRID.VP.382::guide-box.7-9-7-9::guides.3-3-3-3::GRID.VP.381::guides.3-3-3-3::label-3-3.4-4-4-4::GRID.VP.377.1" class="viewport">
                              <g id="label-3-3.4-4-4-4.1" class="forcedgrob gTableChild gTree grob gDesc">
                                <g id="layout::guide-box.7-9-7-9::GRID.VP.382::guide-box.7-9-7-9::guides.3-3-3-3::GRID.VP.381::guides.3-3-3-3::label-3-3.4-4-4-4::GRID.VP.377::GRID.VP.369.1" font-size="8.8" stroke="rgb(0,0,0)" font-family="Helvetica, Arial, FreeSans, Liberation Sans, Nimbus Sans L, sans-serif" stroke-opacity="1" font-weight="normal" font-style="normal" class="viewport">
                                  <g id="layout::guide-box.7-9-7-9::GRID.VP.382::guide-box.7-9-7-9::guides.3-3-3-3::GRID.VP.381::guides.3-3-3-3::label-3-3.4-4-4-4::GRID.VP.377::GRID.VP.369::GRID.VP.370.1" class="viewport">
                                    <g id="guide.label.titleGrob.1602.1" class="titleGrob gTree grob gDesc">
                                      <g id="GRID.text.1600.1" class="text grob gDesc">
                                        <g id="GRID.text.1600.1.1" transform="translate(463.03, 267.82)" stroke-width="0.1">
                                          <g id="GRID.text.1600.1.1.scale" transform="scale(1, -1)">
                                            <text x="0" y="0" id="GRID.text.1600.1.1.text" text-anchor="start" font-size="8.8" stroke="rgb(0,0,0)" font-family="Helvetica, Arial, FreeSans, Liberation Sans, Nimbus Sans L, sans-serif" fill="rgb(0,0,0)" stroke-opacity="1" fill-opacity="1" font-weight="normal" font-style="normal">
                                              <tspan id="GRID.text.1600.1.1.tspan.1" dy="3.23" x="0">Fra</tspan>
                                            </text>
                                          </g>
                                        </g>
                                      </g>
                                    </g>
                                  </g>
                                </g>
                              </g>
                            </g>
                          </g>
                          <g id="layout::guide-box.7-9-7-9::GRID.VP.382::guide-box.7-9-7-9::guides.3-3-3-3::GRID.VP.381::guides.3-3-3-3::label-4-3.5-4-5-4.1" class="viewport">
                            <g id="layout::guide-box.7-9-7-9::GRID.VP.382::guide-box.7-9-7-9::guides.3-3-3-3::GRID.VP.381::guides.3-3-3-3::label-4-3.5-4-5-4::GRID.VP.378.1" class="viewport">
                              <g id="label-4-3.5-4-5-4.1" class="forcedgrob gTableChild gTree grob gDesc">
                                <g id="layout::guide-box.7-9-7-9::GRID.VP.382::guide-box.7-9-7-9::guides.3-3-3-3::GRID.VP.381::guides.3-3-3-3::label-4-3.5-4-5-4::GRID.VP.378::GRID.VP.371.1" font-size="8.8" stroke="rgb(0,0,0)" font-family="Helvetica, Arial, FreeSans, Liberation Sans, Nimbus Sans L, sans-serif" stroke-opacity="1" font-weight="normal" font-style="normal" class="viewport">
                                  <g id="layout::guide-box.7-9-7-9::GRID.VP.382::guide-box.7-9-7-9::guides.3-3-3-3::GRID.VP.381::guides.3-3-3-3::label-4-3.5-4-5-4::GRID.VP.378::GRID.VP.371::GRID.VP.372.1" class="viewport">
                                    <g id="guide.label.titleGrob.1605.1" class="titleGrob gTree grob gDesc">
                                      <g id="GRID.text.1603.1" class="text grob gDesc">
                                        <g id="GRID.text.1603.1.1" transform="translate(463.03, 250.54)" stroke-width="0.1">
                                          <g id="GRID.text.1603.1.1.scale" transform="scale(1, -1)">
                                            <text x="0" y="0" id="GRID.text.1603.1.1.text" text-anchor="start" font-size="8.8" stroke="rgb(0,0,0)" font-family="Helvetica, Arial, FreeSans, Liberation Sans, Nimbus Sans L, sans-serif" fill="rgb(0,0,0)" stroke-opacity="1" fill-opacity="1" font-weight="normal" font-style="normal">
                                              <tspan id="GRID.text.1603.1.1.tspan.1" dy="3.23" x="0">accetto</tspan>
                                            </text>
                                          </g>
                                        </g>
                                      </g>
                                    </g>
                                  </g>
                                </g>
                              </g>
                            </g>
                          </g>
                          <g id="layout::guide-box.7-9-7-9::GRID.VP.382::guide-box.7-9-7-9::guides.3-3-3-3::GRID.VP.381::guides.3-3-3-3::label-5-3.6-4-6-4.1" class="viewport">
                            <g id="layout::guide-box.7-9-7-9::GRID.VP.382::guide-box.7-9-7-9::guides.3-3-3-3::GRID.VP.381::guides.3-3-3-3::label-5-3.6-4-6-4::GRID.VP.379.1" class="viewport">
                              <g id="label-5-3.6-4-6-4.1" class="forcedgrob gTableChild gTree grob gDesc">
                                <g id="layout::guide-box.7-9-7-9::GRID.VP.382::guide-box.7-9-7-9::guides.3-3-3-3::GRID.VP.381::guides.3-3-3-3::label-5-3.6-4-6-4::GRID.VP.379::GRID.VP.373.1" font-size="8.8" stroke="rgb(0,0,0)" font-family="Helvetica, Arial, FreeSans, Liberation Sans, Nimbus Sans L, sans-serif" stroke-opacity="1" font-weight="normal" font-style="normal" class="viewport">
                                  <g id="layout::guide-box.7-9-7-9::GRID.VP.382::guide-box.7-9-7-9::guides.3-3-3-3::GRID.VP.381::guides.3-3-3-3::label-5-3.6-4-6-4::GRID.VP.379::GRID.VP.373::GRID.VP.374.1" class="viewport">
                                    <g id="guide.label.titleGrob.1608.1" class="titleGrob gTree grob gDesc">
                                      <g id="GRID.text.1606.1" class="text grob gDesc">
                                        <g id="GRID.text.1606.1.1" transform="translate(463.03, 233.26)" stroke-width="0.1">
                                          <g id="GRID.text.1606.1.1.scale" transform="scale(1, -1)">
                                            <text x="0" y="0" id="GRID.text.1606.1.1.text" text-anchor="start" font-size="8.8" stroke="rgb(0,0,0)" font-family="Helvetica, Arial, FreeSans, Liberation Sans, Nimbus Sans L, sans-serif" fill="rgb(0,0,0)" stroke-opacity="1" fill-opacity="1" font-weight="normal" font-style="normal">
                                              <tspan id="GRID.text.1606.1.1.tspan.1" dy="3.23" x="0">Accetto</tspan>
                                            </text>
                                          </g>
                                        </g>
                                      </g>
                                    </g>
                                  </g>
                                </g>
                              </g>
                            </g>
                          </g>
                          <g id="layout::guide-box.7-9-7-9::GRID.VP.382::guide-box.7-9-7-9::guides.3-3-3-3::GRID.VP.381::guides.3-3-3-3::label-6-3.7-4-7-4.1" class="viewport">
                            <g id="layout::guide-box.7-9-7-9::GRID.VP.382::guide-box.7-9-7-9::guides.3-3-3-3::GRID.VP.381::guides.3-3-3-3::label-6-3.7-4-7-4::GRID.VP.380.1" class="viewport">
                              <g id="label-6-3.7-4-7-4.1" class="forcedgrob gTableChild gTree grob gDesc">
                                <g id="layout::guide-box.7-9-7-9::GRID.VP.382::guide-box.7-9-7-9::guides.3-3-3-3::GRID.VP.381::guides.3-3-3-3::label-6-3.7-4-7-4::GRID.VP.380::GRID.VP.375.1" font-size="8.8" stroke="rgb(0,0,0)" font-family="Helvetica, Arial, FreeSans, Liberation Sans, Nimbus Sans L, sans-serif" stroke-opacity="1" font-weight="normal" font-style="normal" class="viewport">
                                  <g id="layout::guide-box.7-9-7-9::GRID.VP.382::guide-box.7-9-7-9::guides.3-3-3-3::GRID.VP.381::guides.3-3-3-3::label-6-3.7-4-7-4::GRID.VP.380::GRID.VP.375::GRID.VP.376.1" class="viewport">
                                    <g id="guide.label.titleGrob.1611.1" class="titleGrob gTree grob gDesc">
                                      <g id="GRID.text.1609.1" class="text grob gDesc">
                                        <g id="GRID.text.1609.1.1" transform="translate(463.03, 215.98)" stroke-width="0.1">
                                          <g id="GRID.text.1609.1.1.scale" transform="scale(1, -1)">
                                            <text x="0" y="0" id="GRID.text.1609.1.1.text" text-anchor="start" font-size="8.8" stroke="rgb(0,0,0)" font-family="Helvetica, Arial, FreeSans, Liberation Sans, Nimbus Sans L, sans-serif" fill="rgb(0,0,0)" stroke-opacity="1" fill-opacity="1" font-weight="normal" font-style="normal">
                                              <tspan id="GRID.text.1609.1.1.tspan.1" dy="3.23" x="0">NA</tspan>
                                            </text>
                                          </g>
                                        </g>
                                      </g>
                                    </g>
                                  </g>
                                </g>
                              </g>
                            </g>
                          </g>
                        </g>
                      </g>
                    </g>
                  </g>
                </g>
              </g>
            </g>
          </g>
          <g id="layout::subtitle.4-5-4-5.1" class="viewport"/>
          <g id="layout::title.3-5-3-5.1" class="viewport">
            <g id="layout::title.3-5-3-5::GRID.VP.383.1" font-size="13.2" stroke="rgb(102,102,102)" font-family="Helvetica, Arial, FreeSans, Liberation Sans, Nimbus Sans L, sans-serif" stroke-opacity="1" font-weight="normal" font-style="normal" class="viewport">
              <g id="layout::title.3-5-3-5::GRID.VP.383::GRID.VP.384.1" class="viewport">
                <g id="title.3-5-3-5.1" class="forcedgrob gTableChild titleGrob gTree grob gDesc">
                  <g id="GRID.text.1626.1" class="text grob gDesc">
                    <g id="GRID.text.1626.1.1" transform="translate(216.02, 469.9)" stroke-width="0.1">
                      <g id="GRID.text.1626.1.1.scale" transform="scale(1, -1)">
                        <text x="0" y="0" id="GRID.text.1626.1.1.text" text-anchor="middle" font-size="13.2" stroke="rgb(102,102,102)" font-family="Helvetica, Arial, FreeSans, Liberation Sans, Nimbus Sans L, sans-serif" fill="rgb(102,102,102)" stroke-opacity="1" fill-opacity="1" font-weight="normal" font-style="normal">
                          <tspan id="GRID.text.1626.1.1.tspan.1" dy="9.33" x="0">anagrafica totali-disclaimer</tspan>
                        </text>
                      </g>
                    </g>
                  </g>
                </g>
              </g>
            </g>
          </g>
          <g id="layout::caption.10-5-10-5.1" class="viewport"/>
          <g id="layout::tag.2-2-2-2.1" class="viewport"/>
        </g>
      </g>
    </g>
  </g>
</svg>