<?xml version="1.0" encoding="UTF-8"?>
<svg xmlns="http://www.w3.org/2000/svg" xmlns:xlink="http://www.w3.org/1999/xlink" width="504px" height="504px" viewBox="0 0 504 504" version="1.1">
  <metadata xmlns:gridsvg="http://www.stat.auckland.ac.nz/~paul/R/gridSVG/">
    <gridsvg:generator name="gridSVG" version="1.6-0" time="2019-01-14 15:48:23"/>
    <gridsvg:argument name="name" value="./latest_informaggio_csv/anziani/risultati/svg/anagrafica-totali-sesso.svg"/>
    <gridsvg:argument name="exportCoords" value="none"/>
    <gridsvg:argument name="exportMappings" value="none"/>
    <gridsvg:argument name="exportJS" value="none"/>
    <gridsvg:argument name="res" value="72"/>
    <gridsvg:argument name="prefix" value=""/>
    <gridsvg:argument name="addClasses" value="TRUE"/>
    <gridsvg:argument name="indent" value="TRUE"/>
    <gridsvg:argument name="htmlWrapper" value="FALSE"/>
    <gridsvg:argument name="usePaths" value="vpPaths"/>
    <gridsvg:argument name="uniqueNames" value="TRUE"/>
    <gridsvg:separator name="id.sep" value="."/>
    <gridsvg:separator name="gPath.sep" value="::"/>
    <gridsvg:separator name="vpPath.sep" value="::"/>
  </metadata>
  <g transform="translate(0, 504) scale(1, -1)">
    <g id="gridSVG" fill="none" stroke="rgb(0,0,0)" stroke-dasharray="none" stroke-width="0.75" font-size="12" font-family="Helvetica, Arial, FreeSans, Liberation Sans, Nimbus Sans L, sans-serif" opacity="1" stroke-linecap="round" stroke-linejoin="round" stroke-miterlimit="10" stroke-opacity="1" fill-opacity="0" font-weight="normal" font-style="normal">
      <g id="layout.1" class="viewport">
        <g id="layout.2" class="forcedgrob gtable gTree grob gDesc">
          <defs>
            <clipPath id="layout::background.1-11-12-1.1.clipPath">
              <rect x="0" y="17.36" width="504" height="469.28" fill="none" stroke="none"/>
            </clipPath>
          </defs>
          <g id="layout::background.1-11-12-1.1" clip-path="url(#layout::background.1-11-12-1.1.clipPath)" class="viewport">
            <g id="background.1-11-12-1.1" class="forcedgrob gTableChild rect grob gDesc">
              <rect id="background.1-11-12-1.1.1" x="0" y="17.36" width="504" height="469.28" transform="" stroke-width="1.07" stroke="rgb(255,255,255)" fill="rgb(255,255,255)" stroke-dasharray="none" stroke-opacity="1" fill-opacity="1"/>
            </g>
          </g>
          <defs>
            <clipPath id="layout::panel.7-5-7-5.1.clipPath">
              <rect x="8.22" y="25.58" width="438.13" height="438.13" fill="none" stroke="none"/>
            </clipPath>
          </defs>
          <g id="layout::panel.7-5-7-5.1" clip-path="url(#layout::panel.7-5-7-5.1.clipPath)" class="viewport">
            <g id="panel.7-5-7-5.1" class="forcedgrob gTableChild gTree grob gDesc">
              <g id="grill.gTree.2833.1" class="gTree grob gDesc">
                <g id="panel.background..rect.2829.1" class="rect grob gDesc">
                  <rect id="panel.background..rect.2829.1.1" x="8.22" y="25.58" width="438.13" height="438.13" transform="" stroke-width="1.07" stroke="none" fill="rgb(255,255,255)" stroke-dasharray="none" stroke-opacity="0" fill-opacity="1"/>
                </g>
              </g>
              <g id="bar.gTree.2822.1" class="gTree grob gDesc">
                <g id="geom_polygon.polygon.2816.1" class="polygon grob gDesc">
                  <polygon id="geom_polygon.polygon.2816.1.1" points="227.28,244.64 221.45,243.08 215.61,241.51 209.77,239.95 203.93,238.39 198.1,236.82 192.26,235.26 186.42,233.69 180.58,232.13 174.75,230.57 168.91,229 163.07,227.44 157.24,225.87 151.4,224.31 145.56,222.75 139.72,221.18 133.89,219.62 128.05,218.05 122.21,216.49 116.38,214.93 110.54,213.36 104.7,211.8 98.86,210.23 93.03,208.67 87.19,207.11 81.35,205.54 75.52,203.98 69.68,202.41 63.84,200.85 58,199.28 59.64,193.56 61.47,187.9 63.5,182.3 65.71,176.77 68.11,171.32 70.69,165.96 73.45,160.68 76.39,155.51 79.51,150.43 82.79,145.47 86.25,140.62 89.86,135.89 93.64,131.28 97.56,126.81 101.64,122.47 105.86,118.27 110.23,114.22 114.72,110.32 119.35,106.57 124.1,102.99 128.97,99.56 133.96,96.31 139.05,93.22 144.25,90.31 149.54,87.58 154.92,85.03 160.38,82.67 165.92,80.49 171.53,78.5 177.21,76.7 182.94,75.09 188.72,73.69 194.55,72.48 200.42,71.46 206.32,70.65 212.24,70.04 218.18,69.63 224.13,69.42 230.08,69.41 236.03,69.61 241.98,70.01 247.9,70.61 253.8,71.41 259.67,72.41 265.5,73.61 271.29,75.01 277.02,76.6 282.7,78.39 288.32,80.36 293.86,82.53 299.33,84.89 304.72,87.43 310.01,90.15 315.21,93.05 320.31,96.12 325.3,99.37 330.18,102.78 334.94,106.36 339.57,110.09 344.08,113.99 348.45,118.03 352.68,122.22 356.77,126.55 360.7,131.01 364.49,135.61 368.11,140.33 371.57,145.18 374.87,150.14 377.99,155.2 380.94,160.38 383.72,165.64 386.31,171 388.72,176.45 390.94,181.97 392.98,187.56 394.82,193.23 396.47,198.95 397.93,204.72 399.18,210.54 400.24,216.4 401.1,222.29 401.76,228.21 402.22,234.14 402.47,240.09 402.53,246.04 402.38,252 402.03,257.94 401.48,263.87 400.72,269.77 399.77,275.65 398.62,281.49 397.27,287.29 395.72,293.04 393.98,298.73 392.04,304.36 389.92,309.93 387.61,315.41 385.11,320.82 382.43,326.13 379.58,331.36 376.54,336.48 373.34,341.5 369.96,346.4 366.43,351.19 362.73,355.85 358.87,360.39 354.86,364.79 350.71,369.06 346.41,373.18 341.98,377.15 337.41,380.97 332.71,384.63 327.9,388.13 322.97,391.47 317.92,394.63 312.78,397.63 307.53,400.44 302.19,403.08 296.77,405.53 291.26,407.8 285.68,409.88 280.04,411.77 274.33,413.46 268.57,414.96 262.76,416.27 256.91,417.37 251.03,418.28 245.11,418.98 239.18,419.49 233.24,419.79 227.28,419.89 227.28,413.85 227.28,407.81 227.28,401.76 227.28,395.72 227.28,389.68 227.28,383.64 227.28,377.59 227.28,371.55 227.28,365.51 227.28,359.46 227.28,353.42 227.28,347.38 227.28,341.33 227.28,335.29 227.28,329.25 227.28,323.2 227.28,317.16 227.28,311.12 227.28,305.07 227.28,299.03 227.28,292.99 227.28,286.95 227.28,280.9 227.28,274.86 227.28,268.82 227.28,262.77 227.28,256.73 227.28,250.69 227.28,244.64 227.28,244.64" stroke="none" fill="rgb(97,156,255)" stroke-width="1.07" stroke-dasharray="none" stroke-opacity="0" fill-opacity="1"/>
                </g>
                <g id="geom_polygon.polygon.2818.1" class="polygon grob gDesc">
                  <polygon id="geom_polygon.polygon.2818.1.1" points="227.28,244.64 226.49,250.63 225.71,256.63 224.92,262.62 224.13,268.61 223.34,274.6 222.55,280.59 221.76,286.58 220.97,292.57 220.18,298.57 219.39,304.56 218.61,310.55 217.82,316.54 217.03,322.53 216.24,328.52 215.45,334.51 214.66,340.51 213.87,346.5 213.08,352.49 212.3,358.48 211.51,364.47 210.72,370.46 209.93,376.45 209.14,382.45 208.35,388.44 207.56,394.43 206.77,400.42 205.99,406.41 205.2,412.4 204.41,418.39 198.51,417.52 192.64,416.44 186.82,415.16 181.04,413.68 175.31,412.01 169.65,410.15 164.05,408.09 158.53,405.84 153.08,403.41 147.72,400.79 142.45,398 137.28,395.02 132.22,391.87 127.26,388.55 122.43,385.06 117.71,381.41 113.12,377.61 108.66,373.64 104.34,369.53 100.16,365.28 96.13,360.88 92.25,356.35 88.53,351.69 84.96,346.91 81.57,342.01 78.34,336.99 75.28,331.87 72.4,326.65 69.7,321.33 67.18,315.92 64.85,310.44 62.71,304.87 60.75,299.23 58.99,293.54 57.42,287.78 56.05,281.98 54.88,276.13 53.91,270.24 53.14,264.33 52.57,258.39 52.21,252.44 52.04,246.48 52.08,240.51 52.32,234.55 52.77,228.61 53.41,222.68 54.26,216.77 55.31,210.9 56.56,205.07 58,199.28 63.84,200.85 69.68,202.41 75.52,203.98 81.35,205.54 87.19,207.11 93.03,208.67 98.86,210.23 104.7,211.8 110.54,213.36 116.38,214.93 122.21,216.49 128.05,218.05 133.89,219.62 139.72,221.18 145.56,222.75 151.4,224.31 157.24,225.87 163.07,227.44 168.91,229 174.75,230.57 180.58,232.13 186.42,233.69 192.26,235.26 198.1,236.82 203.93,238.39 209.77,239.95 215.61,241.51 221.45,243.08 227.28,244.64 227.28,244.64" stroke="none" fill="rgb(0,186,56)" stroke-width="1.07" stroke-dasharray="none" stroke-opacity="0" fill-opacity="1"/>
                </g>
                <g id="geom_polygon.polygon.2820.1" class="polygon grob gDesc">
                  <polygon id="geom_polygon.polygon.2820.1.1" points="227.28,244.64 227.28,250.69 227.28,256.73 227.28,262.77 227.28,268.82 227.28,274.86 227.28,280.9 227.28,286.95 227.28,292.99 227.28,299.03 227.28,305.07 227.28,311.12 227.28,317.16 227.28,323.2 227.28,329.25 227.28,335.29 227.28,341.33 227.28,347.38 227.28,353.42 227.28,359.46 227.28,365.51 227.28,371.55 227.28,377.59 227.28,383.64 227.28,389.68 227.28,395.72 227.28,401.76 227.28,407.81 227.28,413.85 227.28,419.89 219.64,419.73 212.01,419.23 204.41,418.39 205.2,412.4 205.99,406.41 206.77,400.42 207.56,394.43 208.35,388.44 209.14,382.45 209.93,376.45 210.72,370.46 211.51,364.47 212.3,358.48 213.08,352.49 213.87,346.5 214.66,340.51 215.45,334.51 216.24,328.52 217.03,322.53 217.82,316.54 218.61,310.55 219.39,304.56 220.18,298.57 220.97,292.57 221.76,286.58 222.55,280.59 223.34,274.6 224.13,268.61 224.92,262.62 225.71,256.63 226.49,250.63 227.28,244.64 227.28,244.64" stroke="none" fill="rgb(248,118,109)" stroke-width="1.07" stroke-dasharray="none" stroke-opacity="0" fill-opacity="1"/>
                </g>
              </g>
              <g id="GRID.text.2823.1" class="text grob gDesc">
                <g id="GRID.text.2823.1.1" transform="translate(296.8, 191.3)" stroke-width="0.1">
                  <g id="GRID.text.2823.1.1.scale" transform="scale(1, -1)">
                    <text x="0" y="0" id="GRID.text.2823.1.1.text" text-anchor="middle" stroke="rgb(0,0,0)" font-size="11.04" font-family="Helvetica, Arial, FreeSans, Liberation Sans, Nimbus Sans L, sans-serif" fill="rgb(0,0,0)" stroke-opacity="1" fill-opacity="1" font-weight="normal" font-style="normal">
                      <tspan id="GRID.text.2823.1.1.tspan.1" dy="3.95" x="0">34</tspan>
                    </text>
                  </g>
                </g>
                <g id="GRID.text.2823.1.2" transform="translate(154.42, 293.33)" stroke-width="0.1">
                  <g id="GRID.text.2823.1.2.scale" transform="scale(1, -1)">
                    <text x="0" y="0" id="GRID.text.2823.1.2.text" text-anchor="middle" stroke="rgb(0,0,0)" font-size="11.04" font-family="Helvetica, Arial, FreeSans, Liberation Sans, Nimbus Sans L, sans-serif" fill="rgb(0,0,0)" stroke-opacity="1" fill-opacity="1" font-weight="normal" font-style="normal">
                      <tspan id="GRID.text.2823.1.2.tspan.1" dy="3.95" x="0">13</tspan>
                    </text>
                  </g>
                </g>
                <g id="GRID.text.2823.1.3" transform="translate(221.55, 332.08)" stroke-width="0.1">
                  <g id="GRID.text.2823.1.3.scale" transform="scale(1, -1)">
                    <text x="0" y="0" id="GRID.text.2823.1.3.text" text-anchor="middle" stroke="rgb(0,0,0)" font-size="11.04" font-family="Helvetica, Arial, FreeSans, Liberation Sans, Nimbus Sans L, sans-serif" fill="rgb(0,0,0)" stroke-opacity="1" fill-opacity="1" font-weight="normal" font-style="normal">
                      <tspan id="GRID.text.2823.1.3.tspan.1" dy="3.95" x="0">1</tspan>
                    </text>
                  </g>
                </g>
              </g>
              <g id="GRID.gTree.2824.1" class="gTree grob gDesc"/>
            </g>
          </g>
          <g id="layout::spacer.8-6-8-6.1" class="viewport"/>
          <g id="layout::spacer.8-4-8-4.1" class="viewport"/>
          <g id="layout::spacer.6-6-6-6.1" class="viewport"/>
          <g id="layout::spacer.6-4-6-4.1" class="viewport"/>
          <g id="layout::axis-t.6-5-6-5.1" class="viewport"/>
          <g id="layout::axis-l.7-4-7-4.1" class="viewport">
            <g id="layout::axis-l.7-4-7-4::GRID.VP.659.1" class="viewport">
              <g id="axis-l.7-4-7-4.1" class="forcedgrob gTableChild absoluteGrob gTree grob gDesc">
                <g id="layout::axis-l.7-4-7-4::GRID.VP.659::axis.1" class="viewport">
                  <g id="axis.1" class="forcedgrob gtable gTree grob gDesc">
                    <g id="layout::axis-l.7-4-7-4::GRID.VP.659::axis::axis.1-1-1-1.1" class="viewport"/>
                    <g id="layout::axis-l.7-4-7-4::GRID.VP.659::axis::axis.1-2-1-2.1" class="viewport"/>
                  </g>
                </g>
              </g>
            </g>
          </g>
          <g id="layout::axis-r.7-6-7-6.1" class="viewport"/>
          <g id="layout::axis-b.8-5-8-5.1" class="viewport">
            <g id="layout::axis-b.8-5-8-5::GRID.VP.658.1" class="viewport">
              <g id="axis-b.8-5-8-5.1" class="forcedgrob gTableChild absoluteGrob gTree grob gDesc">
                <g id="layout::axis-b.8-5-8-5::GRID.VP.658::axis.1" class="viewport">
                  <g id="axis.2" class="forcedgrob gtable gTree grob gDesc">
                    <g id="layout::axis-b.8-5-8-5::GRID.VP.658::axis::axis.1-1-1-1.1" class="viewport"/>
                    <g id="layout::axis-b.8-5-8-5::GRID.VP.658::axis::axis.2-1-2-1.1" class="viewport"/>
                  </g>
                </g>
              </g>
            </g>
          </g>
          <g id="layout::xlab-t.5-5-5-5.1" class="viewport"/>
          <g id="layout::xlab-b.9-5-9-5.1" class="viewport"/>
          <g id="layout::ylab-l.7-3-7-3.1" class="viewport"/>
          <g id="layout::ylab-r.7-7-7-7.1" class="viewport"/>
          <g id="layout::guide-box.7-9-7-9.1" class="viewport">
            <g id="layout::guide-box.7-9-7-9::GRID.VP.670.1" class="viewport">
              <g id="layout::guide-box.7-9-7-9::GRID.VP.670::guide-box.7-9-7-9.1" class="viewport">
                <g id="guide-box.7-9-7-9.1" class="forcedgrob gTableChild gtable gTree grob gDesc">
                  <g id="layout::guide-box.7-9-7-9::GRID.VP.670::guide-box.7-9-7-9::legend.box.background.2-4-4-2.1" class="viewport"/>
                  <g id="layout::guide-box.7-9-7-9::GRID.VP.670::guide-box.7-9-7-9::guides.3-3-3-3.1" class="viewport">
                    <g id="layout::guide-box.7-9-7-9::GRID.VP.670::guide-box.7-9-7-9::guides.3-3-3-3::GRID.VP.669.1" class="viewport">
                      <g id="layout::guide-box.7-9-7-9::GRID.VP.670::guide-box.7-9-7-9::guides.3-3-3-3::GRID.VP.669::guides.3-3-3-3.1" class="viewport">
                        <g id="guides.3-3-3-3.1" class="forcedgrob gTableChild gtable gTree grob gDesc">
                          <g id="layout::guide-box.7-9-7-9::GRID.VP.670::guide-box.7-9-7-9::guides.3-3-3-3::GRID.VP.669::guides.3-3-3-3::background.1-6-7-1.1" class="viewport">
                            <g id="background.1-6-7-1.1" class="forcedgrob gTableChild rect grob gDesc">
                              <rect id="background.1-6-7-1.1.1" x="457.31" y="210.5" width="41.22" height="68.28" transform="" stroke-width="1.07" stroke="none" fill="rgb(255,255,255)" stroke-dasharray="none" stroke-opacity="0" fill-opacity="1"/>
                            </g>
                          </g>
                          <g id="layout::guide-box.7-9-7-9::GRID.VP.670::guide-box.7-9-7-9::guides.3-3-3-3::GRID.VP.669::guides.3-3-3-3::title.2-5-2-2.1" class="viewport"/>
                          <g id="layout::guide-box.7-9-7-9::GRID.VP.670::guide-box.7-9-7-9::guides.3-3-3-3::GRID.VP.669::guides.3-3-3-3::key-3-1-bg.4-2-4-2.1" class="viewport"/>
                          <g id="layout::guide-box.7-9-7-9::GRID.VP.670::guide-box.7-9-7-9::guides.3-3-3-3::GRID.VP.669::guides.3-3-3-3::key-3-1-1.4-2-4-2.1" class="viewport">
                            <g id="key-3-1-1.4-2-4-2.1" class="forcedgrob gTableChild rect grob gDesc">
                              <rect id="key-3-1-1.4-2-4-2.1.1" x="463.49" y="251.25" width="15.86" height="15.86" transform="" stroke="none" fill="rgb(248,118,109)" stroke-dasharray="none" stroke-width="1.07" stroke-linejoin="miter" stroke-opacity="0" fill-opacity="1"/>
                            </g>
                          </g>
                          <g id="layout::guide-box.7-9-7-9::GRID.VP.670::guide-box.7-9-7-9::guides.3-3-3-3::GRID.VP.669::guides.3-3-3-3::key-4-1-bg.5-2-5-2.1" class="viewport"/>
                          <g id="layout::guide-box.7-9-7-9::GRID.VP.670::guide-box.7-9-7-9::guides.3-3-3-3::GRID.VP.669::guides.3-3-3-3::key-4-1-1.5-2-5-2.1" class="viewport">
                            <g id="key-4-1-1.5-2-5-2.1" class="forcedgrob gTableChild rect grob gDesc">
                              <rect id="key-4-1-1.5-2-5-2.1.1" x="463.49" y="233.97" width="15.86" height="15.86" transform="" stroke="none" fill="rgb(0,186,56)" stroke-dasharray="none" stroke-width="1.07" stroke-linejoin="miter" stroke-opacity="0" fill-opacity="1"/>
                            </g>
                          </g>
                          <g id="layout::guide-box.7-9-7-9::GRID.VP.670::guide-box.7-9-7-9::guides.3-3-3-3::GRID.VP.669::guides.3-3-3-3::key-5-1-bg.6-2-6-2.1" class="viewport"/>
                          <g id="layout::guide-box.7-9-7-9::GRID.VP.670::guide-box.7-9-7-9::guides.3-3-3-3::GRID.VP.669::guides.3-3-3-3::key-5-1-1.6-2-6-2.1" class="viewport">
                            <g id="key-5-1-1.6-2-6-2.1" class="forcedgrob gTableChild rect grob gDesc">
                              <rect id="key-5-1-1.6-2-6-2.1.1" x="463.49" y="216.69" width="15.86" height="15.86" transform="" stroke="none" fill="rgb(97,156,255)" stroke-dasharray="none" stroke-width="1.07" stroke-linejoin="miter" stroke-opacity="0" fill-opacity="1"/>
                            </g>
                          </g>
                          <g id="layout::guide-box.7-9-7-9::GRID.VP.670::guide-box.7-9-7-9::guides.3-3-3-3::GRID.VP.669::guides.3-3-3-3::label-3-3.4-4-4-4.1" class="viewport">
                            <g id="layout::guide-box.7-9-7-9::GRID.VP.670::guide-box.7-9-7-9::guides.3-3-3-3::GRID.VP.669::guides.3-3-3-3::label-3-3.4-4-4-4::GRID.VP.666.1" class="viewport">
                              <g id="label-3-3.4-4-4-4.1" class="forcedgrob gTableChild gTree grob gDesc">
                                <g id="layout::guide-box.7-9-7-9::GRID.VP.670::guide-box.7-9-7-9::guides.3-3-3-3::GRID.VP.669::guides.3-3-3-3::label-3-3.4-4-4-4::GRID.VP.666::GRID.VP.660.1" font-size="8.8" stroke="rgb(0,0,0)" font-family="Helvetica, Arial, FreeSans, Liberation Sans, Nimbus Sans L, sans-serif" stroke-opacity="1" font-weight="normal" font-style="normal" class="viewport">
                                  <g id="layout::guide-box.7-9-7-9::GRID.VP.670::guide-box.7-9-7-9::guides.3-3-3-3::GRID.VP.669::guides.3-3-3-3::label-3-3.4-4-4-4::GRID.VP.666::GRID.VP.660::GRID.VP.661.1" class="viewport">
                                    <g id="guide.label.titleGrob.2847.1" class="titleGrob gTree grob gDesc">
                                      <g id="GRID.text.2845.1" class="text grob gDesc">
                                        <g id="GRID.text.2845.1.1" transform="translate(485.54, 259.18)" stroke-width="0.1">
                                          <g id="GRID.text.2845.1.1.scale" transform="scale(1, -1)">
                                            <text x="0" y="0" id="GRID.text.2845.1.1.text" text-anchor="start" font-size="8.8" stroke="rgb(0,0,0)" font-family="Helvetica, Arial, FreeSans, Liberation Sans, Nimbus Sans L, sans-serif" fill="rgb(0,0,0)" stroke-opacity="1" fill-opacity="1" font-weight="normal" font-style="normal">
                                              <tspan id="GRID.text.2845.1.1.tspan.1" dy="3.23" x="0">A</tspan>
                                            </text>
                                          </g>
                                        </g>
                                      </g>
                                    </g>
                                  </g>
                                </g>
                              </g>
                            </g>
                          </g>
                          <g id="layout::guide-box.7-9-7-9::GRID.VP.670::guide-box.7-9-7-9::guides.3-3-3-3::GRID.VP.669::guides.3-3-3-3::label-4-3.5-4-5-4.1" class="viewport">
                            <g id="layout::guide-box.7-9-7-9::GRID.VP.670::guide-box.7-9-7-9::guides.3-3-3-3::GRID.VP.669::guides.3-3-3-3::label-4-3.5-4-5-4::GRID.VP.667.1" class="viewport">
                              <g id="label-4-3.5-4-5-4.1" class="forcedgrob gTableChild gTree grob gDesc">
                                <g id="layout::guide-box.7-9-7-9::GRID.VP.670::guide-box.7-9-7-9::guides.3-3-3-3::GRID.VP.669::guides.3-3-3-3::label-4-3.5-4-5-4::GRID.VP.667::GRID.VP.662.1" font-size="8.8" stroke="rgb(0,0,0)" font-family="Helvetica, Arial, FreeSans, Liberation Sans, Nimbus Sans L, sans-serif" stroke-opacity="1" font-weight="normal" font-style="normal" class="viewport">
                                  <g id="layout::guide-box.7-9-7-9::GRID.VP.670::guide-box.7-9-7-9::guides.3-3-3-3::GRID.VP.669::guides.3-3-3-3::label-4-3.5-4-5-4::GRID.VP.667::GRID.VP.662::GRID.VP.663.1" class="viewport">
                                    <g id="guide.label.titleGrob.2850.1" class="titleGrob gTree grob gDesc">
                                      <g id="GRID.text.2848.1" class="text grob gDesc">
                                        <g id="GRID.text.2848.1.1" transform="translate(485.54, 241.9)" stroke-width="0.1">
                                          <g id="GRID.text.2848.1.1.scale" transform="scale(1, -1)">
                                            <text x="0" y="0" id="GRID.text.2848.1.1.text" text-anchor="start" font-size="8.8" stroke="rgb(0,0,0)" font-family="Helvetica, Arial, FreeSans, Liberation Sans, Nimbus Sans L, sans-serif" fill="rgb(0,0,0)" stroke-opacity="1" fill-opacity="1" font-weight="normal" font-style="normal">
                                              <tspan id="GRID.text.2848.1.1.tspan.1" dy="3.23" x="0">M</tspan>
                                            </text>
                                          </g>
                                        </g>
                                      </g>
                                    </g>
                                  </g>
                                </g>
                              </g>
                            </g>
                          </g>
                          <g id="layout::guide-box.7-9-7-9::GRID.VP.670::guide-box.7-9-7-9::guides.3-3-3-3::GRID.VP.669::guides.3-3-3-3::label-5-3.6-4-6-4.1" class="viewport">
                            <g id="layout::guide-box.7-9-7-9::GRID.VP.670::guide-box.7-9-7-9::guides.3-3-3-3::GRID.VP.669::guides.3-3-3-3::label-5-3.6-4-6-4::GRID.VP.668.1" class="viewport">
                              <g id="label-5-3.6-4-6-4.1" class="forcedgrob gTableChild gTree grob gDesc">
                                <g id="layout::guide-box.7-9-7-9::GRID.VP.670::guide-box.7-9-7-9::guides.3-3-3-3::GRID.VP.669::guides.3-3-3-3::label-5-3.6-4-6-4::GRID.VP.668::GRID.VP.664.1" font-size="8.8" stroke="rgb(0,0,0)" font-family="Helvetica, Arial, FreeSans, Liberation Sans, Nimbus Sans L, sans-serif" stroke-opacity="1" font-weight="normal" font-style="normal" class="viewport">
                                  <g id="layout::guide-box.7-9-7-9::GRID.VP.670::guide-box.7-9-7-9::guides.3-3-3-3::GRID.VP.669::guides.3-3-3-3::label-5-3.6-4-6-4::GRID.VP.668::GRID.VP.664::GRID.VP.665.1" class="viewport">
                                    <g id="guide.label.titleGrob.2853.1" class="titleGrob gTree grob gDesc">
                                      <g id="GRID.text.2851.1" class="text grob gDesc">
                                        <g id="GRID.text.2851.1.1" transform="translate(485.54, 224.62)" stroke-width="0.1">
                                          <g id="GRID.text.2851.1.1.scale" transform="scale(1, -1)">
                                            <text x="0" y="0" id="GRID.text.2851.1.1.text" text-anchor="start" font-size="8.8" stroke="rgb(0,0,0)" font-family="Helvetica, Arial, FreeSans, Liberation Sans, Nimbus Sans L, sans-serif" fill="rgb(0,0,0)" stroke-opacity="1" fill-opacity="1" font-weight="normal" font-style="normal">
                                              <tspan id="GRID.text.2851.1.1.tspan.1" dy="3.23" x="0">F</tspan>
                                            </text>
                                          </g>
                                        </g>
                                      </g>
                                    </g>
                                  </g>
                                </g>
                              </g>
                            </g>
                          </g>
                        </g>
                      </g>
                    </g>
                  </g>
                </g>
              </g>
            </g>
          </g>
          <g id="layout::subtitle.4-5-4-5.1" class="viewport"/>
          <g id="layout::title.3-5-3-5.1" class="viewport">
            <g id="layout::title.3-5-3-5::GRID.VP.671.1" font-size="13.2" stroke="rgb(102,102,102)" font-family="Helvetica, Arial, FreeSans, Liberation Sans, Nimbus Sans L, sans-serif" stroke-opacity="1" font-weight="normal" font-style="normal" class="viewport">
              <g id="layout::title.3-5-3-5::GRID.VP.671::GRID.VP.672.1" class="viewport">
                <g id="title.3-5-3-5.1" class="forcedgrob gTableChild titleGrob gTree grob gDesc">
                  <g id="GRID.text.2865.1" class="text grob gDesc">
                    <g id="GRID.text.2865.1.1" transform="translate(227.28, 481.16)" stroke-width="0.1">
                      <g id="GRID.text.2865.1.1.scale" transform="scale(1, -1)">
                        <text x="0" y="0" id="GRID.text.2865.1.1.text" text-anchor="middle" font-size="13.2" stroke="rgb(102,102,102)" font-family="Helvetica, Arial, FreeSans, Liberation Sans, Nimbus Sans L, sans-serif" fill="rgb(102,102,102)" stroke-opacity="1" fill-opacity="1" font-weight="normal" font-style="normal">
                          <tspan id="GRID.text.2865.1.1.tspan.1" dy="9.33" x="0">anagrafica totali-sesso</tspan>
                        </text>
                      </g>
                    </g>
                  </g>
                </g>
              </g>
            </g>
          </g>
          <g id="layout::caption.10-5-10-5.1" class="viewport"/>
          <g id="layout::tag.2-2-2-2.1" class="viewport"/>
        </g>
      </g>
    </g>
  </g>
</svg>