<?xml version="1.0" encoding="UTF-8"?>
<svg xmlns="http://www.w3.org/2000/svg" xmlns:xlink="http://www.w3.org/1999/xlink" width="504px" height="504px" viewBox="0 0 504 504" version="1.1">
  <metadata xmlns:gridsvg="http://www.stat.auckland.ac.nz/~paul/R/gridSVG/">
    <gridsvg:generator name="gridSVG" version="1.6-0" time="2019-01-15 00:32:54"/>
    <gridsvg:argument name="name" value="./latest_informaggio_csv/anziani/risultati/svg/anagrafica-dispositivo.svg"/>
    <gridsvg:argument name="exportCoords" value="none"/>
    <gridsvg:argument name="exportMappings" value="none"/>
    <gridsvg:argument name="exportJS" value="none"/>
    <gridsvg:argument name="res" value="72"/>
    <gridsvg:argument name="prefix" value=""/>
    <gridsvg:argument name="addClasses" value="TRUE"/>
    <gridsvg:argument name="indent" value="TRUE"/>
    <gridsvg:argument name="htmlWrapper" value="FALSE"/>
    <gridsvg:argument name="usePaths" value="vpPaths"/>
    <gridsvg:argument name="uniqueNames" value="TRUE"/>
    <gridsvg:separator name="id.sep" value="."/>
    <gridsvg:separator name="gPath.sep" value="::"/>
    <gridsvg:separator name="vpPath.sep" value="::"/>
  </metadata>
  <g transform="translate(0, 504) scale(1, -1)">
    <g id="gridSVG" fill="none" stroke="rgb(0,0,0)" stroke-dasharray="none" stroke-width="0.75" font-size="12" font-family="Helvetica, Arial, FreeSans, Liberation Sans, Nimbus Sans L, sans-serif" opacity="1" stroke-linecap="round" stroke-linejoin="round" stroke-miterlimit="10" stroke-opacity="1" fill-opacity="0" font-weight="normal" font-style="normal">
      <g id="layout.1" class="viewport">
        <g id="layout.2" class="forcedgrob gtable gTree grob gDesc">
          <defs>
            <clipPath id="layout::background.1-11-12-1.1.clipPath">
              <rect x="0" y="45.05" width="504" height="413.89" fill="none" stroke="none"/>
            </clipPath>
          </defs>
          <g id="layout::background.1-11-12-1.1" clip-path="url(#layout::background.1-11-12-1.1.clipPath)" class="viewport">
            <g id="background.1-11-12-1.1" class="forcedgrob gTableChild rect grob gDesc">
              <rect id="background.1-11-12-1.1.1" x="0" y="45.05" width="504" height="413.89" transform="" stroke-width="1.07" stroke="rgb(255,255,255)" fill="rgb(255,255,255)" stroke-dasharray="none" stroke-opacity="1" fill-opacity="1"/>
            </g>
          </g>
          <defs>
            <clipPath id="layout::panel.7-5-7-5.1.clipPath">
              <rect x="8.22" y="53.27" width="382.74" height="382.74" fill="none" stroke="none"/>
            </clipPath>
          </defs>
          <g id="layout::panel.7-5-7-5.1" clip-path="url(#layout::panel.7-5-7-5.1.clipPath)" class="viewport">
            <g id="panel.7-5-7-5.1" class="forcedgrob gTableChild gTree grob gDesc">
              <g id="grill.gTree.1568.1" class="gTree grob gDesc">
                <g id="panel.background..rect.1564.1" class="rect grob gDesc">
                  <rect id="panel.background..rect.1564.1.1" x="8.22" y="53.27" width="382.74" height="382.74" transform="" stroke-width="1.07" stroke="none" fill="rgb(255,255,255)" stroke-dasharray="none" stroke-opacity="0" fill-opacity="1"/>
                </g>
              </g>
              <g id="bar.gTree.1557.1" class="gTree grob gDesc">
                <g id="geom_polygon.polygon.1551.1" class="polygon grob gDesc">
                  <polygon id="geom_polygon.polygon.1551.1.1" points="199.59,244.64 194.32,244.31 189.05,243.98 183.78,243.65 178.51,243.32 173.25,242.99 167.98,242.65 162.71,242.32 157.44,241.99 152.17,241.66 146.9,241.33 141.63,241 136.36,240.67 131.1,240.33 125.83,240 120.56,239.67 115.29,239.34 110.02,239.01 104.75,238.68 99.48,238.34 94.21,238.01 88.95,237.68 83.68,237.35 78.41,237.02 73.14,236.69 67.87,236.36 62.6,236.02 57.33,235.69 52.06,235.36 46.8,235.03 47.21,229.85 47.8,224.69 48.56,219.55 49.5,214.44 50.61,209.36 51.9,204.33 53.35,199.34 54.97,194.41 56.76,189.53 58.71,184.71 60.83,179.97 63.1,175.3 65.53,170.7 68.12,166.2 70.86,161.78 73.74,157.46 76.77,153.24 79.94,149.13 83.25,145.12 86.7,141.23 90.27,137.46 93.97,133.81 97.79,130.29 101.73,126.9 105.78,123.65 109.94,120.54 114.21,117.57 118.57,114.74 123.02,112.07 127.56,109.55 132.19,107.18 136.89,104.97 141.67,102.93 146.51,101.04 151.41,99.32 156.37,97.77 161.38,96.39 166.43,95.18 171.52,94.14 176.65,93.28 181.8,92.58 186.97,92.07 192.15,91.73 197.34,91.56 202.54,91.58 207.73,91.76 212.91,92.13 218.08,92.67 223.23,93.38 228.35,94.27 233.43,95.33 238.48,96.57 243.48,97.97 248.43,99.55 253.33,101.29 258.16,103.19 262.93,105.26 267.62,107.49 272.23,109.88 276.77,112.42 281.21,115.12 285.56,117.96 289.8,120.95 293.95,124.08 297.99,127.35 301.91,130.76 305.71,134.3 309.4,137.96 312.95,141.75 316.38,145.66 319.67,149.68 322.83,153.81 325.84,158.04 328.7,162.37 331.42,166.8 333.99,171.32 336.4,175.92 338.65,180.6 340.74,185.36 342.67,190.18 344.44,195.07 346.04,200.01 347.47,205.01 348.73,210.05 349.81,215.13 350.73,220.24 351.47,225.39 352.04,230.55 352.43,235.73 352.64,240.92 352.68,246.12 352.54,251.31 352.23,256.5 351.74,261.67 351.07,266.82 350.23,271.95 349.22,277.05 348.03,282.1 346.68,287.12 345.15,292.09 343.46,297 341.6,301.85 339.57,306.63 337.39,311.35 335.05,315.99 332.55,320.54 329.9,325.01 327.09,329.38 324.15,333.66 321.05,337.84 317.82,341.91 314.45,345.86 310.95,349.7 307.32,353.42 303.57,357.01 299.7,360.48 295.71,363.81 291.61,367 287.41,370.05 283.1,372.96 278.7,375.72 274.2,378.33 269.63,380.78 264.97,383.08 260.23,385.22 255.43,387.19 250.56,389.01 245.63,390.65 240.65,392.13 235.62,393.44 230.55,394.58 225.44,395.54 220.31,396.33 215.15,396.95 209.97,397.39 204.78,397.65 199.59,397.74 199.59,392.46 199.59,387.18 199.59,381.9 199.59,376.62 199.59,371.34 199.59,366.06 199.59,360.79 199.59,355.51 199.59,350.23 199.59,344.95 199.59,339.67 199.59,334.39 199.59,329.11 199.59,323.83 199.59,318.55 199.59,313.27 199.59,307.99 199.59,302.71 199.59,297.44 199.59,292.16 199.59,286.88 199.59,281.6 199.59,276.32 199.59,271.04 199.59,265.76 199.59,260.48 199.59,255.2 199.59,249.92 199.59,244.64 199.59,244.64" stroke="none" fill="rgb(97,156,255)" stroke-width="1.07" stroke-dasharray="none" stroke-opacity="0" fill-opacity="1"/>
                </g>
                <g id="geom_polygon.polygon.1553.1" class="polygon grob gDesc">
                  <polygon id="geom_polygon.polygon.1553.1.1" points="199.59,244.64 197.05,249.27 194.5,253.9 191.96,258.52 189.42,263.15 186.87,267.77 184.33,272.4 181.79,277.03 179.24,281.65 176.7,286.28 174.16,290.91 171.61,295.53 169.07,300.16 166.53,304.78 163.98,309.41 161.44,314.04 158.9,318.66 156.35,323.29 153.81,327.91 151.27,332.54 148.72,337.17 146.18,341.79 143.64,346.42 141.09,351.05 138.55,355.67 136.01,360.3 133.46,364.92 130.92,369.55 128.38,374.18 125.83,378.8 121.28,376.2 116.82,373.44 112.46,370.52 108.19,367.46 104.04,364.26 100,360.92 96.07,357.44 92.27,353.82 88.59,350.08 85.04,346.22 81.63,342.23 78.35,338.13 75.22,333.92 72.23,329.61 69.4,325.19 66.71,320.69 64.19,316.09 61.82,311.41 59.61,306.65 57.57,301.81 55.69,296.91 53.99,291.95 52.45,286.94 51.09,281.87 49.9,276.76 48.89,271.61 48.05,266.43 47.39,261.23 46.92,256 46.62,250.76 46.5,245.52 46.56,240.27 46.8,235.03 52.06,235.36 57.33,235.69 62.6,236.02 67.87,236.36 73.14,236.69 78.41,237.02 83.68,237.35 88.95,237.68 94.21,238.01 99.48,238.34 104.75,238.68 110.02,239.01 115.29,239.34 120.56,239.67 125.83,240 131.1,240.33 136.36,240.67 141.63,241 146.9,241.33 152.17,241.66 157.44,241.99 162.71,242.32 167.98,242.65 173.25,242.99 178.51,243.32 183.78,243.65 189.05,243.98 194.32,244.31 199.59,244.64 199.59,244.64" stroke="none" fill="rgb(0,186,56)" stroke-width="1.07" stroke-dasharray="none" stroke-opacity="0" fill-opacity="1"/>
                </g>
                <g id="geom_polygon.polygon.1555.1" class="polygon grob gDesc">
                  <polygon id="geom_polygon.polygon.1555.1.1" points="199.59,244.64 199.59,249.92 199.59,255.2 199.59,260.48 199.59,265.76 199.59,271.04 199.59,276.32 199.59,281.6 199.59,286.88 199.59,292.16 199.59,297.44 199.59,302.71 199.59,307.99 199.59,313.27 199.59,318.55 199.59,323.83 199.59,329.11 199.59,334.39 199.59,339.67 199.59,344.95 199.59,350.23 199.59,355.51 199.59,360.79 199.59,366.06 199.59,371.34 199.59,376.62 199.59,381.9 199.59,387.18 199.59,392.46 199.59,397.74 194.09,397.64 188.61,397.35 183.13,396.85 177.68,396.16 172.25,395.28 166.86,394.2 161.52,392.93 156.22,391.47 150.98,389.82 145.8,387.98 140.69,385.95 135.65,383.75 130.7,381.36 125.83,378.8 128.38,374.18 130.92,369.55 133.46,364.92 136.01,360.3 138.55,355.67 141.09,351.05 143.64,346.42 146.18,341.79 148.72,337.17 151.27,332.54 153.81,327.91 156.35,323.29 158.9,318.66 161.44,314.04 163.98,309.41 166.53,304.78 169.07,300.16 171.61,295.53 174.16,290.91 176.7,286.28 179.24,281.65 181.79,277.03 184.33,272.4 186.87,267.77 189.42,263.15 191.96,258.52 194.5,253.9 197.05,249.27 199.59,244.64 199.59,244.64" stroke="none" fill="rgb(248,118,109)" stroke-width="1.07" stroke-dasharray="none" stroke-opacity="0" fill-opacity="1"/>
                </g>
              </g>
              <g id="GRID.text.1558.1" class="text grob gDesc">
                <g id="GRID.text.1558.1.1" transform="translate(255.39, 192.24)" stroke-width="0.1">
                  <g id="GRID.text.1558.1.1.scale" transform="scale(1, -1)">
                    <text x="0" y="0" id="GRID.text.1558.1.1.text" text-anchor="middle" stroke="rgb(0,0,0)" font-size="11.04" font-family="Helvetica, Arial, FreeSans, Liberation Sans, Nimbus Sans L, sans-serif" fill="rgb(0,0,0)" stroke-opacity="1" fill-opacity="1" font-weight="normal" font-style="normal">
                      <tspan id="GRID.text.1558.1.1.tspan.1" dy="3.95" x="0">37</tspan>
                    </text>
                  </g>
                </g>
                <g id="GRID.text.1558.1.2" transform="translate(132.51, 281.52)" stroke-width="0.1">
                  <g id="GRID.text.1558.1.2.scale" transform="scale(1, -1)">
                    <text x="0" y="0" id="GRID.text.1558.1.2.text" text-anchor="middle" stroke="rgb(0,0,0)" font-size="11.04" font-family="Helvetica, Arial, FreeSans, Liberation Sans, Nimbus Sans L, sans-serif" fill="rgb(0,0,0)" stroke-opacity="1" fill-opacity="1" font-weight="normal" font-style="normal">
                      <tspan id="GRID.text.1558.1.2.tspan.1" dy="3.95" x="0">9</tspan>
                    </text>
                  </g>
                </g>
                <g id="GRID.text.1558.1.3" transform="translate(180.55, 318.79)" stroke-width="0.1">
                  <g id="GRID.text.1558.1.3.scale" transform="scale(1, -1)">
                    <text x="0" y="0" id="GRID.text.1558.1.3.text" text-anchor="middle" stroke="rgb(0,0,0)" font-size="11.04" font-family="Helvetica, Arial, FreeSans, Liberation Sans, Nimbus Sans L, sans-serif" fill="rgb(0,0,0)" stroke-opacity="1" fill-opacity="1" font-weight="normal" font-style="normal">
                      <tspan id="GRID.text.1558.1.3.tspan.1" dy="3.95" x="0">4</tspan>
                    </text>
                  </g>
                </g>
              </g>
              <g id="GRID.gTree.1559.1" class="gTree grob gDesc"/>
            </g>
          </g>
          <g id="layout::spacer.8-6-8-6.1" class="viewport"/>
          <g id="layout::spacer.8-4-8-4.1" class="viewport"/>
          <g id="layout::spacer.6-6-6-6.1" class="viewport"/>
          <g id="layout::spacer.6-4-6-4.1" class="viewport"/>
          <g id="layout::axis-t.6-5-6-5.1" class="viewport"/>
          <g id="layout::axis-l.7-4-7-4.1" class="viewport">
            <g id="layout::axis-l.7-4-7-4::GRID.VP.359.1" class="viewport">
              <g id="axis-l.7-4-7-4.1" class="forcedgrob gTableChild absoluteGrob gTree grob gDesc">
                <g id="layout::axis-l.7-4-7-4::GRID.VP.359::axis.1" class="viewport">
                  <g id="axis.1" class="forcedgrob gtable gTree grob gDesc">
                    <g id="layout::axis-l.7-4-7-4::GRID.VP.359::axis::axis.1-1-1-1.1" class="viewport"/>
                    <g id="layout::axis-l.7-4-7-4::GRID.VP.359::axis::axis.1-2-1-2.1" class="viewport"/>
                  </g>
                </g>
              </g>
            </g>
          </g>
          <g id="layout::axis-r.7-6-7-6.1" class="viewport"/>
          <g id="layout::axis-b.8-5-8-5.1" class="viewport">
            <g id="layout::axis-b.8-5-8-5::GRID.VP.358.1" class="viewport">
              <g id="axis-b.8-5-8-5.1" class="forcedgrob gTableChild absoluteGrob gTree grob gDesc">
                <g id="layout::axis-b.8-5-8-5::GRID.VP.358::axis.1" class="viewport">
                  <g id="axis.2" class="forcedgrob gtable gTree grob gDesc">
                    <g id="layout::axis-b.8-5-8-5::GRID.VP.358::axis::axis.1-1-1-1.1" class="viewport"/>
                    <g id="layout::axis-b.8-5-8-5::GRID.VP.358::axis::axis.2-1-2-1.1" class="viewport"/>
                  </g>
                </g>
              </g>
            </g>
          </g>
          <g id="layout::xlab-t.5-5-5-5.1" class="viewport"/>
          <g id="layout::xlab-b.9-5-9-5.1" class="viewport"/>
          <g id="layout::ylab-l.7-3-7-3.1" class="viewport"/>
          <g id="layout::ylab-r.7-7-7-7.1" class="viewport"/>
          <g id="layout::guide-box.7-9-7-9.1" class="viewport">
            <g id="layout::guide-box.7-9-7-9::GRID.VP.370.1" class="viewport">
              <g id="layout::guide-box.7-9-7-9::GRID.VP.370::guide-box.7-9-7-9.1" class="viewport">
                <g id="guide-box.7-9-7-9.1" class="forcedgrob gTableChild gtable gTree grob gDesc">
                  <g id="layout::guide-box.7-9-7-9::GRID.VP.370::guide-box.7-9-7-9::legend.box.background.2-4-4-2.1" class="viewport"/>
                  <g id="layout::guide-box.7-9-7-9::GRID.VP.370::guide-box.7-9-7-9::guides.3-3-3-3.1" class="viewport">
                    <g id="layout::guide-box.7-9-7-9::GRID.VP.370::guide-box.7-9-7-9::guides.3-3-3-3::GRID.VP.369.1" class="viewport">
                      <g id="layout::guide-box.7-9-7-9::GRID.VP.370::guide-box.7-9-7-9::guides.3-3-3-3::GRID.VP.369::guides.3-3-3-3.1" class="viewport">
                        <g id="guides.3-3-3-3.1" class="forcedgrob gTableChild gtable gTree grob gDesc">
                          <g id="layout::guide-box.7-9-7-9::GRID.VP.370::guide-box.7-9-7-9::guides.3-3-3-3::GRID.VP.369::guides.3-3-3-3::background.1-6-7-1.1" class="viewport">
                            <g id="background.1-6-7-1.1" class="forcedgrob gTableChild rect grob gDesc">
                              <rect id="background.1-6-7-1.1.1" x="401.92" y="210.5" width="96.6" height="68.28" transform="" stroke-width="1.07" stroke="none" fill="rgb(255,255,255)" stroke-dasharray="none" stroke-opacity="0" fill-opacity="1"/>
                            </g>
                          </g>
                          <g id="layout::guide-box.7-9-7-9::GRID.VP.370::guide-box.7-9-7-9::guides.3-3-3-3::GRID.VP.369::guides.3-3-3-3::title.2-5-2-2.1" class="viewport"/>
                          <g id="layout::guide-box.7-9-7-9::GRID.VP.370::guide-box.7-9-7-9::guides.3-3-3-3::GRID.VP.369::guides.3-3-3-3::key-3-1-bg.4-2-4-2.1" class="viewport"/>
                          <g id="layout::guide-box.7-9-7-9::GRID.VP.370::guide-box.7-9-7-9::guides.3-3-3-3::GRID.VP.369::guides.3-3-3-3::key-3-1-1.4-2-4-2.1" class="viewport">
                            <g id="key-3-1-1.4-2-4-2.1" class="forcedgrob gTableChild rect grob gDesc">
                              <rect id="key-3-1-1.4-2-4-2.1.1" x="408.11" y="251.25" width="15.86" height="15.86" transform="" stroke="none" fill="rgb(248,118,109)" stroke-dasharray="none" stroke-width="1.07" stroke-linejoin="miter" stroke-opacity="0" fill-opacity="1"/>
                            </g>
                          </g>
                          <g id="layout::guide-box.7-9-7-9::GRID.VP.370::guide-box.7-9-7-9::guides.3-3-3-3::GRID.VP.369::guides.3-3-3-3::key-4-1-bg.5-2-5-2.1" class="viewport"/>
                          <g id="layout::guide-box.7-9-7-9::GRID.VP.370::guide-box.7-9-7-9::guides.3-3-3-3::GRID.VP.369::guides.3-3-3-3::key-4-1-1.5-2-5-2.1" class="viewport">
                            <g id="key-4-1-1.5-2-5-2.1" class="forcedgrob gTableChild rect grob gDesc">
                              <rect id="key-4-1-1.5-2-5-2.1.1" x="408.11" y="233.97" width="15.86" height="15.86" transform="" stroke="none" fill="rgb(0,186,56)" stroke-dasharray="none" stroke-width="1.07" stroke-linejoin="miter" stroke-opacity="0" fill-opacity="1"/>
                            </g>
                          </g>
                          <g id="layout::guide-box.7-9-7-9::GRID.VP.370::guide-box.7-9-7-9::guides.3-3-3-3::GRID.VP.369::guides.3-3-3-3::key-5-1-bg.6-2-6-2.1" class="viewport"/>
                          <g id="layout::guide-box.7-9-7-9::GRID.VP.370::guide-box.7-9-7-9::guides.3-3-3-3::GRID.VP.369::guides.3-3-3-3::key-5-1-1.6-2-6-2.1" class="viewport">
                            <g id="key-5-1-1.6-2-6-2.1" class="forcedgrob gTableChild rect grob gDesc">
                              <rect id="key-5-1-1.6-2-6-2.1.1" x="408.11" y="216.69" width="15.86" height="15.86" transform="" stroke="none" fill="rgb(97,156,255)" stroke-dasharray="none" stroke-width="1.07" stroke-linejoin="miter" stroke-opacity="0" fill-opacity="1"/>
                            </g>
                          </g>
                          <g id="layout::guide-box.7-9-7-9::GRID.VP.370::guide-box.7-9-7-9::guides.3-3-3-3::GRID.VP.369::guides.3-3-3-3::label-3-3.4-4-4-4.1" class="viewport">
                            <g id="layout::guide-box.7-9-7-9::GRID.VP.370::guide-box.7-9-7-9::guides.3-3-3-3::GRID.VP.369::guides.3-3-3-3::label-3-3.4-4-4-4::GRID.VP.366.1" class="viewport">
                              <g id="label-3-3.4-4-4-4.1" class="forcedgrob gTableChild gTree grob gDesc">
                                <g id="layout::guide-box.7-9-7-9::GRID.VP.370::guide-box.7-9-7-9::guides.3-3-3-3::GRID.VP.369::guides.3-3-3-3::label-3-3.4-4-4-4::GRID.VP.366::GRID.VP.360.1" font-size="8.8" stroke="rgb(0,0,0)" font-family="Helvetica, Arial, FreeSans, Liberation Sans, Nimbus Sans L, sans-serif" stroke-opacity="1" font-weight="normal" font-style="normal" class="viewport">
                                  <g id="layout::guide-box.7-9-7-9::GRID.VP.370::guide-box.7-9-7-9::guides.3-3-3-3::GRID.VP.369::guides.3-3-3-3::label-3-3.4-4-4-4::GRID.VP.366::GRID.VP.360::GRID.VP.361.1" class="viewport">
                                    <g id="guide.label.titleGrob.1582.1" class="titleGrob gTree grob gDesc">
                                      <g id="GRID.text.1580.1" class="text grob gDesc">
                                        <g id="GRID.text.1580.1.1" transform="translate(430.16, 259.18)" stroke-width="0.1">
                                          <g id="GRID.text.1580.1.1.scale" transform="scale(1, -1)">
                                            <text x="0" y="0" id="GRID.text.1580.1.1.text" text-anchor="start" font-size="8.8" stroke="rgb(0,0,0)" font-family="Helvetica, Arial, FreeSans, Liberation Sans, Nimbus Sans L, sans-serif" fill="rgb(0,0,0)" stroke-opacity="1" fill-opacity="1" font-weight="normal" font-style="normal">
                                              <tspan id="GRID.text.1580.1.1.tspan.1" dy="3.23" x="0">Fisso (4)</tspan>
                                            </text>
                                          </g>
                                        </g>
                                      </g>
                                    </g>
                                  </g>
                                </g>
                              </g>
                            </g>
                          </g>
                          <g id="layout::guide-box.7-9-7-9::GRID.VP.370::guide-box.7-9-7-9::guides.3-3-3-3::GRID.VP.369::guides.3-3-3-3::label-4-3.5-4-5-4.1" class="viewport">
                            <g id="layout::guide-box.7-9-7-9::GRID.VP.370::guide-box.7-9-7-9::guides.3-3-3-3::GRID.VP.369::guides.3-3-3-3::label-4-3.5-4-5-4::GRID.VP.367.1" class="viewport">
                              <g id="label-4-3.5-4-5-4.1" class="forcedgrob gTableChild gTree grob gDesc">
                                <g id="layout::guide-box.7-9-7-9::GRID.VP.370::guide-box.7-9-7-9::guides.3-3-3-3::GRID.VP.369::guides.3-3-3-3::label-4-3.5-4-5-4::GRID.VP.367::GRID.VP.362.1" font-size="8.8" stroke="rgb(0,0,0)" font-family="Helvetica, Arial, FreeSans, Liberation Sans, Nimbus Sans L, sans-serif" stroke-opacity="1" font-weight="normal" font-style="normal" class="viewport">
                                  <g id="layout::guide-box.7-9-7-9::GRID.VP.370::guide-box.7-9-7-9::guides.3-3-3-3::GRID.VP.369::guides.3-3-3-3::label-4-3.5-4-5-4::GRID.VP.367::GRID.VP.362::GRID.VP.363.1" class="viewport">
                                    <g id="guide.label.titleGrob.1585.1" class="titleGrob gTree grob gDesc">
                                      <g id="GRID.text.1583.1" class="text grob gDesc">
                                        <g id="GRID.text.1583.1.1" transform="translate(430.16, 241.9)" stroke-width="0.1">
                                          <g id="GRID.text.1583.1.1.scale" transform="scale(1, -1)">
                                            <text x="0" y="0" id="GRID.text.1583.1.1.text" text-anchor="start" font-size="8.8" stroke="rgb(0,0,0)" font-family="Helvetica, Arial, FreeSans, Liberation Sans, Nimbus Sans L, sans-serif" fill="rgb(0,0,0)" stroke-opacity="1" fill-opacity="1" font-weight="normal" font-style="normal">
                                              <tspan id="GRID.text.1583.1.1.tspan.1" dy="3.23" x="0">Smartphone (9)</tspan>
                                            </text>
                                          </g>
                                        </g>
                                      </g>
                                    </g>
                                  </g>
                                </g>
                              </g>
                            </g>
                          </g>
                          <g id="layout::guide-box.7-9-7-9::GRID.VP.370::guide-box.7-9-7-9::guides.3-3-3-3::GRID.VP.369::guides.3-3-3-3::label-5-3.6-4-6-4.1" class="viewport">
                            <g id="layout::guide-box.7-9-7-9::GRID.VP.370::guide-box.7-9-7-9::guides.3-3-3-3::GRID.VP.369::guides.3-3-3-3::label-5-3.6-4-6-4::GRID.VP.368.1" class="viewport">
                              <g id="label-5-3.6-4-6-4.1" class="forcedgrob gTableChild gTree grob gDesc">
                                <g id="layout::guide-box.7-9-7-9::GRID.VP.370::guide-box.7-9-7-9::guides.3-3-3-3::GRID.VP.369::guides.3-3-3-3::label-5-3.6-4-6-4::GRID.VP.368::GRID.VP.364.1" font-size="8.8" stroke="rgb(0,0,0)" font-family="Helvetica, Arial, FreeSans, Liberation Sans, Nimbus Sans L, sans-serif" stroke-opacity="1" font-weight="normal" font-style="normal" class="viewport">
                                  <g id="layout::guide-box.7-9-7-9::GRID.VP.370::guide-box.7-9-7-9::guides.3-3-3-3::GRID.VP.369::guides.3-3-3-3::label-5-3.6-4-6-4::GRID.VP.368::GRID.VP.364::GRID.VP.365.1" class="viewport">
                                    <g id="guide.label.titleGrob.1588.1" class="titleGrob gTree grob gDesc">
                                      <g id="GRID.text.1586.1" class="text grob gDesc">
                                        <g id="GRID.text.1586.1.1" transform="translate(430.16, 224.62)" stroke-width="0.1">
                                          <g id="GRID.text.1586.1.1.scale" transform="scale(1, -1)">
                                            <text x="0" y="0" id="GRID.text.1586.1.1.text" text-anchor="start" font-size="8.8" stroke="rgb(0,0,0)" font-family="Helvetica, Arial, FreeSans, Liberation Sans, Nimbus Sans L, sans-serif" fill="rgb(0,0,0)" stroke-opacity="1" fill-opacity="1" font-weight="normal" font-style="normal">
                                              <tspan id="GRID.text.1586.1.1.tspan.1" dy="3.23" x="0">Portatile (37)</tspan>
                                            </text>
                                          </g>
                                        </g>
                                      </g>
                                    </g>
                                  </g>
                                </g>
                              </g>
                            </g>
                          </g>
                        </g>
                      </g>
                    </g>
                  </g>
                </g>
              </g>
            </g>
          </g>
          <g id="layout::subtitle.4-5-4-5.1" class="viewport"/>
          <g id="layout::title.3-5-3-5.1" class="viewport">
            <g id="layout::title.3-5-3-5::GRID.VP.371.1" font-size="13.2" stroke="rgb(102,102,102)" font-family="Helvetica, Arial, FreeSans, Liberation Sans, Nimbus Sans L, sans-serif" stroke-opacity="1" font-weight="normal" font-style="normal" class="viewport">
              <g id="layout::title.3-5-3-5::GRID.VP.371::GRID.VP.372.1" class="viewport">
                <g id="title.3-5-3-5.1" class="forcedgrob gTableChild titleGrob gTree grob gDesc">
                  <g id="GRID.text.1600.1" class="text grob gDesc">
                    <g id="GRID.text.1600.1.1" transform="translate(199.59, 453.47)" stroke-width="0.1">
                      <g id="GRID.text.1600.1.1.scale" transform="scale(1, -1)">
                        <text x="0" y="0" id="GRID.text.1600.1.1.text" text-anchor="middle" font-size="13.2" stroke="rgb(102,102,102)" font-family="Helvetica, Arial, FreeSans, Liberation Sans, Nimbus Sans L, sans-serif" fill="rgb(102,102,102)" stroke-opacity="1" fill-opacity="1" font-weight="normal" font-style="normal">
                          <tspan id="GRID.text.1600.1.1.tspan.1" dy="9.33" x="0">anagrafica dispositivo</tspan>
                        </text>
                      </g>
                    </g>
                  </g>
                </g>
              </g>
            </g>
          </g>
          <g id="layout::caption.10-5-10-5.1" class="viewport"/>
          <g id="layout::tag.2-2-2-2.1" class="viewport"/>
        </g>
      </g>
    </g>
  </g>
</svg>