<?xml version="1.0" encoding="UTF-8"?>
<svg xmlns="http://www.w3.org/2000/svg" xmlns:xlink="http://www.w3.org/1999/xlink" width="504px" height="504px" viewBox="0 0 504 504" version="1.1">
  <metadata xmlns:gridsvg="http://www.stat.auckland.ac.nz/~paul/R/gridSVG/">
    <gridsvg:generator name="gridSVG" version="1.6-0" time="2019-01-08 22:40:27"/>
    <gridsvg:argument name="name" value="./latest_informaggio_csv/anziani/risultati/svg/anagrafica-totali-competenza.svg"/>
    <gridsvg:argument name="exportCoords" value="none"/>
    <gridsvg:argument name="exportMappings" value="none"/>
    <gridsvg:argument name="exportJS" value="none"/>
    <gridsvg:argument name="res" value="72"/>
    <gridsvg:argument name="prefix" value=""/>
    <gridsvg:argument name="addClasses" value="TRUE"/>
    <gridsvg:argument name="indent" value="TRUE"/>
    <gridsvg:argument name="htmlWrapper" value="FALSE"/>
    <gridsvg:argument name="usePaths" value="vpPaths"/>
    <gridsvg:argument name="uniqueNames" value="TRUE"/>
    <gridsvg:separator name="id.sep" value="."/>
    <gridsvg:separator name="gPath.sep" value="::"/>
    <gridsvg:separator name="vpPath.sep" value="::"/>
  </metadata>
  <g transform="translate(0, 504) scale(1, -1)">
    <g id="gridSVG" fill="none" stroke="rgb(0,0,0)" stroke-dasharray="none" stroke-width="0.75" font-size="12" font-family="Helvetica, Arial, FreeSans, Liberation Sans, Nimbus Sans L, sans-serif" opacity="1" stroke-linecap="round" stroke-linejoin="round" stroke-miterlimit="10" stroke-opacity="1" fill-opacity="0" font-weight="normal" font-style="normal">
      <g id="layout.1" class="viewport">
        <g id="layout.2" class="forcedgrob gtable gTree grob gDesc">
          <defs>
            <clipPath id="layout::background.1-11-12-1.1.clipPath">
              <rect x="0" y="33.87" width="504" height="436.26" fill="none" stroke="none"/>
            </clipPath>
          </defs>
          <g id="layout::background.1-11-12-1.1" clip-path="url(#layout::background.1-11-12-1.1.clipPath)" class="viewport">
            <g id="background.1-11-12-1.1" class="forcedgrob gTableChild rect grob gDesc">
              <rect id="background.1-11-12-1.1.1" x="0" y="33.87" width="504" height="436.26" transform="" stroke-width="1.07" stroke="rgb(255,255,255)" fill="rgb(255,255,255)" stroke-dasharray="none" stroke-opacity="1" fill-opacity="1"/>
            </g>
          </g>
          <defs>
            <clipPath id="layout::panel.7-5-7-5.1.clipPath">
              <rect x="8.22" y="42.09" width="405.11" height="405.11" fill="none" stroke="none"/>
            </clipPath>
          </defs>
          <g id="layout::panel.7-5-7-5.1" clip-path="url(#layout::panel.7-5-7-5.1.clipPath)" class="viewport">
            <g id="panel.7-5-7-5.1" class="forcedgrob gTableChild gTree grob gDesc">
              <g id="grill.gTree.1282.1" class="gTree grob gDesc">
                <g id="panel.background..rect.1278.1" class="rect grob gDesc">
                  <rect id="panel.background..rect.1278.1.1" x="8.22" y="42.09" width="405.11" height="405.11" transform="" stroke-width="1.07" stroke="none" fill="rgb(255,255,255)" stroke-dasharray="none" stroke-opacity="0" fill-opacity="1"/>
                </g>
              </g>
              <g id="bar.gTree.1271.1" class="gTree grob gDesc">
                <g id="geom_polygon.polygon.1263.1" class="polygon grob gDesc">
                  <polygon id="geom_polygon.polygon.1263.1.1" points="210.77,244.64 208.63,239.48 206.5,234.32 204.36,229.16 202.22,223.99 200.08,218.83 197.94,213.67 195.8,208.51 193.67,203.34 191.53,198.18 189.39,193.02 187.25,187.86 185.11,182.7 182.97,177.53 180.84,172.37 178.7,167.21 176.56,162.05 174.42,156.88 172.28,151.72 170.14,146.56 168.01,141.4 165.87,136.23 163.73,131.07 161.59,125.91 159.45,120.75 157.31,115.58 155.18,110.42 153.04,105.26 150.9,100.1 148.76,94.94 153.88,92.91 159.07,91.07 164.32,89.4 169.62,87.91 174.97,86.61 180.36,85.48 185.79,84.54 191.24,83.78 196.72,83.21 202.21,82.83 207.71,82.63 213.22,82.62 218.72,82.8 224.22,83.16 229.7,83.71 235.15,84.45 240.58,85.37 245.98,86.47 251.33,87.76 256.64,89.23 261.89,90.88 267.09,92.7 272.22,94.7 277.28,96.88 282.26,99.22 287.16,101.73 291.97,104.41 296.69,107.25 301.31,110.25 305.82,113.4 310.22,116.71 314.51,120.16 318.68,123.76 322.73,127.5 326.64,131.37 330.43,135.37 334.07,139.5 337.57,143.75 340.93,148.11 344.13,152.59 347.18,157.18 350.07,161.86 352.81,166.64 355.37,171.51 357.78,176.47 360.01,181.5 362.07,186.61 363.95,191.78 365.66,197.02 367.19,202.31 368.54,207.65 369.7,213.03 370.68,218.45 371.48,223.9 372.09,229.37 372.52,234.86 372.76,240.36 372.81,245.87 372.67,251.37 372.35,256.87 371.84,262.35 371.15,267.81 370.27,273.25 369.21,278.65 367.96,284.02 366.53,289.33 364.92,294.6 363.14,299.81 361.17,304.95 359.04,310.03 356.73,315.03 354.25,319.95 351.61,324.78 348.81,329.52 345.84,334.16 342.73,338.7 339.45,343.13 336.03,347.44 332.47,351.64 328.76,355.71 324.92,359.66 320.95,363.47 316.85,367.14 312.62,370.68 308.28,374.06 303.83,377.3 299.27,380.39 294.6,383.32 289.84,386.08 284.99,388.69 280.05,391.13 275.04,393.4 269.95,395.49 264.79,397.42 259.56,399.17 254.29,400.73 248.96,402.12 243.58,403.33 238.17,404.35 232.73,405.19 227.26,405.84 221.78,406.31 216.28,406.59 210.77,406.69 210.77,401.1 210.77,395.51 210.77,389.92 210.77,384.33 210.77,378.75 210.77,373.16 210.77,367.57 210.77,361.98 210.77,356.4 210.77,350.81 210.77,345.22 210.77,339.63 210.77,334.05 210.77,328.46 210.77,322.87 210.77,317.28 210.77,311.7 210.77,306.11 210.77,300.52 210.77,294.93 210.77,289.34 210.77,283.76 210.77,278.17 210.77,272.58 210.77,266.99 210.77,261.41 210.77,255.82 210.77,250.23 210.77,244.64 210.77,244.64" stroke="none" fill="rgb(199,124,255)" stroke-width="1.07" stroke-dasharray="none" stroke-opacity="0" fill-opacity="1"/>
                </g>
                <g id="geom_polygon.polygon.1265.1" class="polygon grob gDesc">
                  <polygon id="geom_polygon.polygon.1265.1.1" points="210.77,244.64 205.23,245.37 199.69,246.1 194.15,246.83 188.61,247.56 183.07,248.29 177.53,249.02 171.99,249.75 166.45,250.48 160.91,251.21 155.37,251.94 149.83,252.67 144.29,253.4 138.75,254.12 133.21,254.85 127.67,255.58 122.13,256.31 116.59,257.04 111.05,257.77 105.51,258.5 99.97,259.23 94.44,259.96 88.9,260.69 83.36,261.42 77.82,262.15 72.28,262.88 66.74,263.61 61.2,264.34 55.66,265.06 50.12,265.79 49.48,260.25 49.04,254.68 48.79,249.11 48.73,243.53 48.87,237.95 49.19,232.37 49.71,226.82 50.42,221.28 51.32,215.77 52.41,210.3 53.69,204.86 55.15,199.48 56.8,194.14 58.63,188.87 60.64,183.67 62.83,178.53 65.19,173.47 67.73,168.5 70.44,163.62 73.31,158.84 76.35,154.15 79.55,149.58 82.9,145.11 86.4,140.77 90.05,136.55 93.85,132.45 97.78,128.49 101.85,124.67 106.04,120.99 110.37,117.46 114.8,114.07 119.36,110.85 124.02,107.78 128.79,104.87 133.65,102.13 138.6,99.56 143.64,97.16 148.76,94.94 150.9,100.1 153.04,105.26 155.18,110.42 157.31,115.58 159.45,120.75 161.59,125.91 163.73,131.07 165.87,136.23 168.01,141.4 170.14,146.56 172.28,151.72 174.42,156.88 176.56,162.05 178.7,167.21 180.84,172.37 182.97,177.53 185.11,182.7 187.25,187.86 189.39,193.02 191.53,198.18 193.67,203.34 195.8,208.51 197.94,213.67 200.08,218.83 202.22,223.99 204.36,229.16 206.5,234.32 208.63,239.48 210.77,244.64 210.77,244.64" stroke="none" fill="rgb(0,191,196)" stroke-width="1.07" stroke-dasharray="none" stroke-opacity="0" fill-opacity="1"/>
                </g>
                <g id="geom_polygon.polygon.1267.1" class="polygon grob gDesc">
                  <polygon id="geom_polygon.polygon.1267.1.1" points="210.77,244.64 207.37,249.08 203.97,253.51 200.57,257.94 197.17,262.38 193.76,266.81 190.36,271.24 186.96,275.67 183.56,280.11 180.16,284.54 176.76,288.97 173.36,293.41 169.95,297.84 166.55,302.27 163.15,306.71 159.75,311.14 156.35,315.57 152.95,320 149.54,324.44 146.14,328.87 142.74,333.3 139.34,337.74 135.94,342.17 132.54,346.6 129.13,351.04 125.73,355.47 122.33,359.9 118.93,364.33 115.53,368.77 112.13,373.2 107.8,369.76 103.58,366.17 99.5,362.44 95.54,358.57 91.72,354.57 88.03,350.44 84.49,346.19 81.1,341.82 77.86,337.33 74.77,332.74 71.84,328.05 69.08,323.26 66.48,318.37 64.04,313.4 61.78,308.35 59.69,303.23 57.78,298.04 56.05,292.78 54.49,287.47 53.12,282.11 51.93,276.71 50.93,271.27 50.12,265.79 55.66,265.06 61.2,264.34 66.74,263.61 72.28,262.88 77.82,262.15 83.36,261.42 88.9,260.69 94.44,259.96 99.97,259.23 105.51,258.5 111.05,257.77 116.59,257.04 122.13,256.31 127.67,255.58 133.21,254.85 138.75,254.12 144.29,253.4 149.83,252.67 155.37,251.94 160.91,251.21 166.45,250.48 171.99,249.75 177.53,249.02 183.07,248.29 188.61,247.56 194.15,246.83 199.69,246.1 205.23,245.37 210.77,244.64 210.77,244.64" stroke="none" fill="rgb(124,174,0)" stroke-width="1.07" stroke-dasharray="none" stroke-opacity="0" fill-opacity="1"/>
                </g>
                <g id="geom_polygon.polygon.1269.1" class="polygon grob gDesc">
                  <polygon id="geom_polygon.polygon.1269.1.1" points="210.77,244.64 210.77,250.23 210.77,255.82 210.77,261.41 210.77,266.99 210.77,272.58 210.77,278.17 210.77,283.76 210.77,289.34 210.77,294.93 210.77,300.52 210.77,306.11 210.77,311.7 210.77,317.28 210.77,322.87 210.77,328.46 210.77,334.05 210.77,339.63 210.77,345.22 210.77,350.81 210.77,356.4 210.77,361.98 210.77,367.57 210.77,373.16 210.77,378.75 210.77,384.33 210.77,389.92 210.77,395.51 210.77,401.1 210.77,406.69 205.19,406.59 199.62,406.3 194.06,405.82 188.52,405.15 183,404.29 177.52,403.24 172.08,402 166.68,400.57 161.34,398.96 156.05,397.17 150.83,395.19 145.68,393.04 140.61,390.71 135.62,388.2 130.72,385.53 125.91,382.69 121.21,379.69 116.61,376.52 112.13,373.2 115.53,368.77 118.93,364.33 122.33,359.9 125.73,355.47 129.13,351.04 132.54,346.6 135.94,342.17 139.34,337.74 142.74,333.3 146.14,328.87 149.54,324.44 152.95,320 156.35,315.57 159.75,311.14 163.15,306.71 166.55,302.27 169.95,297.84 173.36,293.41 176.76,288.97 180.16,284.54 183.56,280.11 186.96,275.67 190.36,271.24 193.76,266.81 197.17,262.38 200.57,257.94 203.97,253.51 207.37,249.08 210.77,244.64 210.77,244.64" stroke="none" fill="rgb(248,118,109)" stroke-width="1.07" stroke-dasharray="none" stroke-opacity="0" fill-opacity="1"/>
                </g>
              </g>
              <g id="GRID.text.1272.1" class="text grob gDesc">
                <g id="GRID.text.1272.1.1" transform="translate(290.24, 228.84)" stroke-width="0.1">
                  <g id="GRID.text.1272.1.1.scale" transform="scale(1, -1)">
                    <text x="0" y="0" id="GRID.text.1272.1.1.text" text-anchor="middle" stroke="rgb(0,0,0)" font-size="11.04" font-family="Helvetica, Arial, FreeSans, Liberation Sans, Nimbus Sans L, sans-serif" fill="rgb(0,0,0)" stroke-opacity="1" fill-opacity="1" font-weight="normal" font-style="normal">
                      <tspan id="GRID.text.1272.1.1.tspan.1" dy="3.95" x="0">27</tspan>
                    </text>
                  </g>
                </g>
                <g id="GRID.text.1272.1.2" transform="translate(140.61, 204.13)" stroke-width="0.1">
                  <g id="GRID.text.1272.1.2.scale" transform="scale(1, -1)">
                    <text x="0" y="0" id="GRID.text.1272.1.2.text" text-anchor="middle" stroke="rgb(0,0,0)" font-size="11.04" font-family="Helvetica, Arial, FreeSans, Liberation Sans, Nimbus Sans L, sans-serif" fill="rgb(0,0,0)" stroke-opacity="1" fill-opacity="1" font-weight="normal" font-style="normal">
                      <tspan id="GRID.text.1272.1.2.tspan.1" dy="3.95" x="0">10</tspan>
                    </text>
                  </g>
                </g>
                <g id="GRID.text.1272.1.3" transform="translate(140.61, 285.15)" stroke-width="0.1">
                  <g id="GRID.text.1272.1.3.scale" transform="scale(1, -1)">
                    <text x="0" y="0" id="GRID.text.1272.1.3.text" text-anchor="middle" stroke="rgb(0,0,0)" font-size="11.04" font-family="Helvetica, Arial, FreeSans, Liberation Sans, Nimbus Sans L, sans-serif" fill="rgb(0,0,0)" stroke-opacity="1" fill-opacity="1" font-weight="normal" font-style="normal">
                      <tspan id="GRID.text.1272.1.3.tspan.1" dy="3.95" x="0">6</tspan>
                    </text>
                  </g>
                </g>
                <g id="GRID.text.1272.1.4" transform="translate(184.73, 321.36)" stroke-width="0.1">
                  <g id="GRID.text.1272.1.4.scale" transform="scale(1, -1)">
                    <text x="0" y="0" id="GRID.text.1272.1.4.text" text-anchor="middle" stroke="rgb(0,0,0)" font-size="11.04" font-family="Helvetica, Arial, FreeSans, Liberation Sans, Nimbus Sans L, sans-serif" fill="rgb(0,0,0)" stroke-opacity="1" fill-opacity="1" font-weight="normal" font-style="normal">
                      <tspan id="GRID.text.1272.1.4.tspan.1" dy="3.95" x="0">5</tspan>
                    </text>
                  </g>
                </g>
              </g>
              <g id="GRID.gTree.1273.1" class="gTree grob gDesc"/>
            </g>
          </g>
          <g id="layout::spacer.8-6-8-6.1" class="viewport"/>
          <g id="layout::spacer.8-4-8-4.1" class="viewport"/>
          <g id="layout::spacer.6-6-6-6.1" class="viewport"/>
          <g id="layout::spacer.6-4-6-4.1" class="viewport"/>
          <g id="layout::axis-t.6-5-6-5.1" class="viewport"/>
          <g id="layout::axis-l.7-4-7-4.1" class="viewport">
            <g id="layout::axis-l.7-4-7-4::GRID.VP.305.1" class="viewport">
              <g id="axis-l.7-4-7-4.1" class="forcedgrob gTableChild absoluteGrob gTree grob gDesc">
                <g id="layout::axis-l.7-4-7-4::GRID.VP.305::axis.1" class="viewport">
                  <g id="axis.1" class="forcedgrob gtable gTree grob gDesc">
                    <g id="layout::axis-l.7-4-7-4::GRID.VP.305::axis::axis.1-1-1-1.1" class="viewport"/>
                    <g id="layout::axis-l.7-4-7-4::GRID.VP.305::axis::axis.1-2-1-2.1" class="viewport"/>
                  </g>
                </g>
              </g>
            </g>
          </g>
          <g id="layout::axis-r.7-6-7-6.1" class="viewport"/>
          <g id="layout::axis-b.8-5-8-5.1" class="viewport">
            <g id="layout::axis-b.8-5-8-5::GRID.VP.304.1" class="viewport">
              <g id="axis-b.8-5-8-5.1" class="forcedgrob gTableChild absoluteGrob gTree grob gDesc">
                <g id="layout::axis-b.8-5-8-5::GRID.VP.304::axis.1" class="viewport">
                  <g id="axis.2" class="forcedgrob gtable gTree grob gDesc">
                    <g id="layout::axis-b.8-5-8-5::GRID.VP.304::axis::axis.1-1-1-1.1" class="viewport"/>
                    <g id="layout::axis-b.8-5-8-5::GRID.VP.304::axis::axis.2-1-2-1.1" class="viewport"/>
                  </g>
                </g>
              </g>
            </g>
          </g>
          <g id="layout::xlab-t.5-5-5-5.1" class="viewport"/>
          <g id="layout::xlab-b.9-5-9-5.1" class="viewport"/>
          <g id="layout::ylab-l.7-3-7-3.1" class="viewport"/>
          <g id="layout::ylab-r.7-7-7-7.1" class="viewport"/>
          <g id="layout::guide-box.7-9-7-9.1" class="viewport">
            <g id="layout::guide-box.7-9-7-9::GRID.VP.319.1" class="viewport">
              <g id="layout::guide-box.7-9-7-9::GRID.VP.319::guide-box.7-9-7-9.1" class="viewport">
                <g id="guide-box.7-9-7-9.1" class="forcedgrob gTableChild gtable gTree grob gDesc">
                  <g id="layout::guide-box.7-9-7-9::GRID.VP.319::guide-box.7-9-7-9::legend.box.background.2-4-4-2.1" class="viewport"/>
                  <g id="layout::guide-box.7-9-7-9::GRID.VP.319::guide-box.7-9-7-9::guides.3-3-3-3.1" class="viewport">
                    <g id="layout::guide-box.7-9-7-9::GRID.VP.319::guide-box.7-9-7-9::guides.3-3-3-3::GRID.VP.318.1" class="viewport">
                      <g id="layout::guide-box.7-9-7-9::GRID.VP.319::guide-box.7-9-7-9::guides.3-3-3-3::GRID.VP.318::guides.3-3-3-3.1" class="viewport">
                        <g id="guides.3-3-3-3.1" class="forcedgrob gTableChild gtable gTree grob gDesc">
                          <g id="layout::guide-box.7-9-7-9::GRID.VP.319::guide-box.7-9-7-9::guides.3-3-3-3::GRID.VP.318::guides.3-3-3-3::background.1-6-8-1.1" class="viewport">
                            <g id="background.1-6-8-1.1" class="forcedgrob gTableChild rect grob gDesc">
                              <rect id="background.1-6-8-1.1.1" x="424.28" y="201.86" width="74.24" height="85.56" transform="" stroke-width="1.07" stroke="none" fill="rgb(255,255,255)" stroke-dasharray="none" stroke-opacity="0" fill-opacity="1"/>
                            </g>
                          </g>
                          <g id="layout::guide-box.7-9-7-9::GRID.VP.319::guide-box.7-9-7-9::guides.3-3-3-3::GRID.VP.318::guides.3-3-3-3::title.2-5-2-2.1" class="viewport"/>
                          <g id="layout::guide-box.7-9-7-9::GRID.VP.319::guide-box.7-9-7-9::guides.3-3-3-3::GRID.VP.318::guides.3-3-3-3::key-3-1-bg.4-2-4-2.1" class="viewport"/>
                          <g id="layout::guide-box.7-9-7-9::GRID.VP.319::guide-box.7-9-7-9::guides.3-3-3-3::GRID.VP.318::guides.3-3-3-3::key-3-1-1.4-2-4-2.1" class="viewport">
                            <g id="key-3-1-1.4-2-4-2.1" class="forcedgrob gTableChild rect grob gDesc">
                              <rect id="key-3-1-1.4-2-4-2.1.1" x="430.47" y="259.89" width="15.86" height="15.86" transform="" stroke="none" fill="rgb(248,118,109)" stroke-dasharray="none" stroke-width="1.07" stroke-linejoin="miter" stroke-opacity="0" fill-opacity="1"/>
                            </g>
                          </g>
                          <g id="layout::guide-box.7-9-7-9::GRID.VP.319::guide-box.7-9-7-9::guides.3-3-3-3::GRID.VP.318::guides.3-3-3-3::key-4-1-bg.5-2-5-2.1" class="viewport"/>
                          <g id="layout::guide-box.7-9-7-9::GRID.VP.319::guide-box.7-9-7-9::guides.3-3-3-3::GRID.VP.318::guides.3-3-3-3::key-4-1-1.5-2-5-2.1" class="viewport">
                            <g id="key-4-1-1.5-2-5-2.1" class="forcedgrob gTableChild rect grob gDesc">
                              <rect id="key-4-1-1.5-2-5-2.1.1" x="430.47" y="242.61" width="15.86" height="15.86" transform="" stroke="none" fill="rgb(124,174,0)" stroke-dasharray="none" stroke-width="1.07" stroke-linejoin="miter" stroke-opacity="0" fill-opacity="1"/>
                            </g>
                          </g>
                          <g id="layout::guide-box.7-9-7-9::GRID.VP.319::guide-box.7-9-7-9::guides.3-3-3-3::GRID.VP.318::guides.3-3-3-3::key-5-1-bg.6-2-6-2.1" class="viewport"/>
                          <g id="layout::guide-box.7-9-7-9::GRID.VP.319::guide-box.7-9-7-9::guides.3-3-3-3::GRID.VP.318::guides.3-3-3-3::key-5-1-1.6-2-6-2.1" class="viewport">
                            <g id="key-5-1-1.6-2-6-2.1" class="forcedgrob gTableChild rect grob gDesc">
                              <rect id="key-5-1-1.6-2-6-2.1.1" x="430.47" y="225.33" width="15.86" height="15.86" transform="" stroke="none" fill="rgb(0,191,196)" stroke-dasharray="none" stroke-width="1.07" stroke-linejoin="miter" stroke-opacity="0" fill-opacity="1"/>
                            </g>
                          </g>
                          <g id="layout::guide-box.7-9-7-9::GRID.VP.319::guide-box.7-9-7-9::guides.3-3-3-3::GRID.VP.318::guides.3-3-3-3::key-6-1-bg.7-2-7-2.1" class="viewport"/>
                          <g id="layout::guide-box.7-9-7-9::GRID.VP.319::guide-box.7-9-7-9::guides.3-3-3-3::GRID.VP.318::guides.3-3-3-3::key-6-1-1.7-2-7-2.1" class="viewport">
                            <g id="key-6-1-1.7-2-7-2.1" class="forcedgrob gTableChild rect grob gDesc">
                              <rect id="key-6-1-1.7-2-7-2.1.1" x="430.47" y="208.05" width="15.86" height="15.86" transform="" stroke="none" fill="rgb(199,124,255)" stroke-dasharray="none" stroke-width="1.07" stroke-linejoin="miter" stroke-opacity="0" fill-opacity="1"/>
                            </g>
                          </g>
                          <g id="layout::guide-box.7-9-7-9::GRID.VP.319::guide-box.7-9-7-9::guides.3-3-3-3::GRID.VP.318::guides.3-3-3-3::label-3-3.4-4-4-4.1" class="viewport">
                            <g id="layout::guide-box.7-9-7-9::GRID.VP.319::guide-box.7-9-7-9::guides.3-3-3-3::GRID.VP.318::guides.3-3-3-3::label-3-3.4-4-4-4::GRID.VP.314.1" class="viewport">
                              <g id="label-3-3.4-4-4-4.1" class="forcedgrob gTableChild gTree grob gDesc">
                                <g id="layout::guide-box.7-9-7-9::GRID.VP.319::guide-box.7-9-7-9::guides.3-3-3-3::GRID.VP.318::guides.3-3-3-3::label-3-3.4-4-4-4::GRID.VP.314::GRID.VP.306.1" font-size="8.8" stroke="rgb(0,0,0)" font-family="Helvetica, Arial, FreeSans, Liberation Sans, Nimbus Sans L, sans-serif" stroke-opacity="1" font-weight="normal" font-style="normal" class="viewport">
                                  <g id="layout::guide-box.7-9-7-9::GRID.VP.319::guide-box.7-9-7-9::guides.3-3-3-3::GRID.VP.318::guides.3-3-3-3::label-3-3.4-4-4-4::GRID.VP.314::GRID.VP.306::GRID.VP.307.1" class="viewport">
                                    <g id="guide.label.titleGrob.1296.1" class="titleGrob gTree grob gDesc">
                                      <g id="GRID.text.1294.1" class="text grob gDesc">
                                        <g id="GRID.text.1294.1.1" transform="translate(452.52, 267.82)" stroke-width="0.1">
                                          <g id="GRID.text.1294.1.1.scale" transform="scale(1, -1)">
                                            <text x="0" y="0" id="GRID.text.1294.1.1.text" text-anchor="start" font-size="8.8" stroke="rgb(0,0,0)" font-family="Helvetica, Arial, FreeSans, Liberation Sans, Nimbus Sans L, sans-serif" fill="rgb(0,0,0)" stroke-opacity="1" fill-opacity="1" font-weight="normal" font-style="normal">
                                              <tspan id="GRID.text.1294.1.1.tspan.1" dy="3.23" x="0">scarsa</tspan>
                                            </text>
                                          </g>
                                        </g>
                                      </g>
                                    </g>
                                  </g>
                                </g>
                              </g>
                            </g>
                          </g>
                          <g id="layout::guide-box.7-9-7-9::GRID.VP.319::guide-box.7-9-7-9::guides.3-3-3-3::GRID.VP.318::guides.3-3-3-3::label-4-3.5-4-5-4.1" class="viewport">
                            <g id="layout::guide-box.7-9-7-9::GRID.VP.319::guide-box.7-9-7-9::guides.3-3-3-3::GRID.VP.318::guides.3-3-3-3::label-4-3.5-4-5-4::GRID.VP.315.1" class="viewport">
                              <g id="label-4-3.5-4-5-4.1" class="forcedgrob gTableChild gTree grob gDesc">
                                <g id="layout::guide-box.7-9-7-9::GRID.VP.319::guide-box.7-9-7-9::guides.3-3-3-3::GRID.VP.318::guides.3-3-3-3::label-4-3.5-4-5-4::GRID.VP.315::GRID.VP.308.1" font-size="8.8" stroke="rgb(0,0,0)" font-family="Helvetica, Arial, FreeSans, Liberation Sans, Nimbus Sans L, sans-serif" stroke-opacity="1" font-weight="normal" font-style="normal" class="viewport">
                                  <g id="layout::guide-box.7-9-7-9::GRID.VP.319::guide-box.7-9-7-9::guides.3-3-3-3::GRID.VP.318::guides.3-3-3-3::label-4-3.5-4-5-4::GRID.VP.315::GRID.VP.308::GRID.VP.309.1" class="viewport">
                                    <g id="guide.label.titleGrob.1299.1" class="titleGrob gTree grob gDesc">
                                      <g id="GRID.text.1297.1" class="text grob gDesc">
                                        <g id="GRID.text.1297.1.1" transform="translate(452.52, 250.54)" stroke-width="0.1">
                                          <g id="GRID.text.1297.1.1.scale" transform="scale(1, -1)">
                                            <text x="0" y="0" id="GRID.text.1297.1.1.text" text-anchor="start" font-size="8.8" stroke="rgb(0,0,0)" font-family="Helvetica, Arial, FreeSans, Liberation Sans, Nimbus Sans L, sans-serif" fill="rgb(0,0,0)" stroke-opacity="1" fill-opacity="1" font-weight="normal" font-style="normal">
                                              <tspan id="GRID.text.1297.1.1.tspan.1" dy="3.23" x="0">ottima</tspan>
                                            </text>
                                          </g>
                                        </g>
                                      </g>
                                    </g>
                                  </g>
                                </g>
                              </g>
                            </g>
                          </g>
                          <g id="layout::guide-box.7-9-7-9::GRID.VP.319::guide-box.7-9-7-9::guides.3-3-3-3::GRID.VP.318::guides.3-3-3-3::label-5-3.6-4-6-4.1" class="viewport">
                            <g id="layout::guide-box.7-9-7-9::GRID.VP.319::guide-box.7-9-7-9::guides.3-3-3-3::GRID.VP.318::guides.3-3-3-3::label-5-3.6-4-6-4::GRID.VP.316.1" class="viewport">
                              <g id="label-5-3.6-4-6-4.1" class="forcedgrob gTableChild gTree grob gDesc">
                                <g id="layout::guide-box.7-9-7-9::GRID.VP.319::guide-box.7-9-7-9::guides.3-3-3-3::GRID.VP.318::guides.3-3-3-3::label-5-3.6-4-6-4::GRID.VP.316::GRID.VP.310.1" font-size="8.8" stroke="rgb(0,0,0)" font-family="Helvetica, Arial, FreeSans, Liberation Sans, Nimbus Sans L, sans-serif" stroke-opacity="1" font-weight="normal" font-style="normal" class="viewport">
                                  <g id="layout::guide-box.7-9-7-9::GRID.VP.319::guide-box.7-9-7-9::guides.3-3-3-3::GRID.VP.318::guides.3-3-3-3::label-5-3.6-4-6-4::GRID.VP.316::GRID.VP.310::GRID.VP.311.1" class="viewport">
                                    <g id="guide.label.titleGrob.1302.1" class="titleGrob gTree grob gDesc">
                                      <g id="GRID.text.1300.1" class="text grob gDesc">
                                        <g id="GRID.text.1300.1.1" transform="translate(452.52, 233.26)" stroke-width="0.1">
                                          <g id="GRID.text.1300.1.1.scale" transform="scale(1, -1)">
                                            <text x="0" y="0" id="GRID.text.1300.1.1.text" text-anchor="start" font-size="8.8" stroke="rgb(0,0,0)" font-family="Helvetica, Arial, FreeSans, Liberation Sans, Nimbus Sans L, sans-serif" fill="rgb(0,0,0)" stroke-opacity="1" fill-opacity="1" font-weight="normal" font-style="normal">
                                              <tspan id="GRID.text.1300.1.1.tspan.1" dy="3.23" x="0">sufficiente</tspan>
                                            </text>
                                          </g>
                                        </g>
                                      </g>
                                    </g>
                                  </g>
                                </g>
                              </g>
                            </g>
                          </g>
                          <g id="layout::guide-box.7-9-7-9::GRID.VP.319::guide-box.7-9-7-9::guides.3-3-3-3::GRID.VP.318::guides.3-3-3-3::label-6-3.7-4-7-4.1" class="viewport">
                            <g id="layout::guide-box.7-9-7-9::GRID.VP.319::guide-box.7-9-7-9::guides.3-3-3-3::GRID.VP.318::guides.3-3-3-3::label-6-3.7-4-7-4::GRID.VP.317.1" class="viewport">
                              <g id="label-6-3.7-4-7-4.1" class="forcedgrob gTableChild gTree grob gDesc">
                                <g id="layout::guide-box.7-9-7-9::GRID.VP.319::guide-box.7-9-7-9::guides.3-3-3-3::GRID.VP.318::guides.3-3-3-3::label-6-3.7-4-7-4::GRID.VP.317::GRID.VP.312.1" font-size="8.8" stroke="rgb(0,0,0)" font-family="Helvetica, Arial, FreeSans, Liberation Sans, Nimbus Sans L, sans-serif" stroke-opacity="1" font-weight="normal" font-style="normal" class="viewport">
                                  <g id="layout::guide-box.7-9-7-9::GRID.VP.319::guide-box.7-9-7-9::guides.3-3-3-3::GRID.VP.318::guides.3-3-3-3::label-6-3.7-4-7-4::GRID.VP.317::GRID.VP.312::GRID.VP.313.1" class="viewport">
                                    <g id="guide.label.titleGrob.1305.1" class="titleGrob gTree grob gDesc">
                                      <g id="GRID.text.1303.1" class="text grob gDesc">
                                        <g id="GRID.text.1303.1.1" transform="translate(452.52, 215.98)" stroke-width="0.1">
                                          <g id="GRID.text.1303.1.1.scale" transform="scale(1, -1)">
                                            <text x="0" y="0" id="GRID.text.1303.1.1.text" text-anchor="start" font-size="8.8" stroke="rgb(0,0,0)" font-family="Helvetica, Arial, FreeSans, Liberation Sans, Nimbus Sans L, sans-serif" fill="rgb(0,0,0)" stroke-opacity="1" fill-opacity="1" font-weight="normal" font-style="normal">
                                              <tspan id="GRID.text.1303.1.1.tspan.1" dy="3.23" x="0">buona</tspan>
                                            </text>
                                          </g>
                                        </g>
                                      </g>
                                    </g>
                                  </g>
                                </g>
                              </g>
                            </g>
                          </g>
                        </g>
                      </g>
                    </g>
                  </g>
                </g>
              </g>
            </g>
          </g>
          <g id="layout::subtitle.4-5-4-5.1" class="viewport"/>
          <g id="layout::title.3-5-3-5.1" class="viewport">
            <g id="layout::title.3-5-3-5::GRID.VP.320.1" font-size="13.2" stroke="rgb(102,102,102)" font-family="Helvetica, Arial, FreeSans, Liberation Sans, Nimbus Sans L, sans-serif" stroke-opacity="1" font-weight="normal" font-style="normal" class="viewport">
              <g id="layout::title.3-5-3-5::GRID.VP.320::GRID.VP.321.1" class="viewport">
                <g id="title.3-5-3-5.1" class="forcedgrob gTableChild titleGrob gTree grob gDesc">
                  <g id="GRID.text.1320.1" class="text grob gDesc">
                    <g id="GRID.text.1320.1.1" transform="translate(210.77, 464.65)" stroke-width="0.1">
                      <g id="GRID.text.1320.1.1.scale" transform="scale(1, -1)">
                        <text x="0" y="0" id="GRID.text.1320.1.1.text" text-anchor="middle" font-size="13.2" stroke="rgb(102,102,102)" font-family="Helvetica, Arial, FreeSans, Liberation Sans, Nimbus Sans L, sans-serif" fill="rgb(102,102,102)" stroke-opacity="1" fill-opacity="1" font-weight="normal" font-style="normal">
                          <tspan id="GRID.text.1320.1.1.tspan.1" dy="9.33" x="0">anagrafica totali-competenza</tspan>
                        </text>
                      </g>
                    </g>
                  </g>
                </g>
              </g>
            </g>
          </g>
          <g id="layout::caption.10-5-10-5.1" class="viewport"/>
          <g id="layout::tag.2-2-2-2.1" class="viewport"/>
        </g>
      </g>
    </g>
  </g>
</svg>