<?xml version="1.0" encoding="UTF-8"?>
<svg xmlns="http://www.w3.org/2000/svg" xmlns:xlink="http://www.w3.org/1999/xlink" width="504px" height="504px" viewBox="0 0 504 504" version="1.1">
  <metadata xmlns:gridsvg="http://www.stat.auckland.ac.nz/~paul/R/gridSVG/">
    <gridsvg:generator name="gridSVG" version="1.6-0" time="2019-01-14 19:41:05"/>
    <gridsvg:argument name="name" value="./latest_informaggio_csv/anziani/risultati/svg/anagrafica-espertoliceo.svg"/>
    <gridsvg:argument name="exportCoords" value="none"/>
    <gridsvg:argument name="exportMappings" value="none"/>
    <gridsvg:argument name="exportJS" value="none"/>
    <gridsvg:argument name="res" value="72"/>
    <gridsvg:argument name="prefix" value=""/>
    <gridsvg:argument name="addClasses" value="TRUE"/>
    <gridsvg:argument name="indent" value="TRUE"/>
    <gridsvg:argument name="htmlWrapper" value="FALSE"/>
    <gridsvg:argument name="usePaths" value="vpPaths"/>
    <gridsvg:argument name="uniqueNames" value="TRUE"/>
    <gridsvg:separator name="id.sep" value="."/>
    <gridsvg:separator name="gPath.sep" value="::"/>
    <gridsvg:separator name="vpPath.sep" value="::"/>
  </metadata>
  <g transform="translate(0, 504) scale(1, -1)">
    <g id="gridSVG" fill="none" stroke="rgb(0,0,0)" stroke-dasharray="none" stroke-width="0.75" font-size="12" font-family="Helvetica, Arial, FreeSans, Liberation Sans, Nimbus Sans L, sans-serif" opacity="1" stroke-linecap="round" stroke-linejoin="round" stroke-miterlimit="10" stroke-opacity="1" fill-opacity="0" font-weight="normal" font-style="normal">
      <g id="layout.1" class="viewport">
        <g id="layout.2" class="forcedgrob gtable gTree grob gDesc">
          <defs>
            <clipPath id="layout::background.1-11-12-1.1.clipPath">
              <rect x="0" y="26.11" width="504" height="451.77" fill="none" stroke="none"/>
            </clipPath>
          </defs>
          <g id="layout::background.1-11-12-1.1" clip-path="url(#layout::background.1-11-12-1.1.clipPath)" class="viewport">
            <g id="background.1-11-12-1.1" class="forcedgrob gTableChild rect grob gDesc">
              <rect id="background.1-11-12-1.1.1" x="0" y="26.11" width="504" height="451.77" transform="" stroke-width="1.07" stroke="rgb(255,255,255)" fill="rgb(255,255,255)" stroke-dasharray="none" stroke-opacity="1" fill-opacity="1"/>
            </g>
          </g>
          <defs>
            <clipPath id="layout::panel.7-5-7-5.1.clipPath">
              <rect x="8.22" y="34.33" width="420.62" height="420.62" fill="none" stroke="none"/>
            </clipPath>
          </defs>
          <g id="layout::panel.7-5-7-5.1" clip-path="url(#layout::panel.7-5-7-5.1.clipPath)" class="viewport">
            <g id="panel.7-5-7-5.1" class="forcedgrob gTableChild gTree grob gDesc">
              <g id="grill.gTree.1875.1" class="gTree grob gDesc">
                <g id="panel.background..rect.1871.1" class="rect grob gDesc">
                  <rect id="panel.background..rect.1871.1.1" x="8.22" y="34.33" width="420.62" height="420.62" transform="" stroke-width="1.07" stroke="none" fill="rgb(255,255,255)" stroke-dasharray="none" stroke-opacity="0" fill-opacity="1"/>
                </g>
              </g>
              <g id="bar.gTree.1864.1" class="gTree grob gDesc">
                <g id="geom_polygon.polygon.1860.1" class="polygon grob gDesc">
                  <polygon id="geom_polygon.polygon.1860.1.1" points="218.53,244.64 213.51,241.74 208.48,238.84 203.46,235.94 198.43,233.04 193.41,230.14 188.38,227.24 183.36,224.34 178.33,221.44 173.31,218.54 168.29,215.63 163.26,212.73 158.24,209.83 153.21,206.93 148.19,204.03 143.16,201.13 138.14,198.23 133.12,195.33 128.09,192.43 123.07,189.53 118.04,186.63 113.02,183.73 107.99,180.82 102.97,177.92 97.94,175.02 92.92,172.12 87.9,169.22 82.87,166.32 77.85,163.42 72.82,160.52 75.77,155.61 78.89,150.8 82.16,146.1 85.6,141.51 89.18,137.04 92.92,132.7 96.81,128.49 100.83,124.41 105,120.48 109.29,116.68 113.71,113.04 118.25,109.54 122.91,106.21 127.68,103.03 132.55,100.02 137.53,97.18 142.59,94.51 147.75,92.01 152.99,89.69 158.3,87.54 163.69,85.58 169.13,83.81 174.64,82.22 180.19,80.82 185.79,79.61 191.43,78.59 197.1,77.76 202.8,77.13 208.51,76.69 214.23,76.45 219.96,76.4 225.69,76.55 231.41,76.89 237.11,77.42 242.8,78.15 248.45,79.08 254.07,80.19 259.65,81.5 265.18,82.99 270.66,84.67 276.07,86.54 281.42,88.59 286.7,90.82 291.9,93.23 297.01,95.82 302.03,98.58 306.96,101.51 311.78,104.6 316.5,107.86 321.1,111.27 325.58,114.84 329.93,118.56 334.16,122.43 338.26,126.44 342.21,130.58 346.02,134.86 349.69,139.26 353.2,143.79 356.56,148.43 359.75,153.19 362.78,158.05 365.65,163.01 368.34,168.07 370.86,173.21 373.21,178.44 375.37,183.75 377.35,189.12 379.15,194.56 380.76,200.06 382.19,205.61 383.42,211.2 384.47,216.84 385.32,222.5 385.97,228.2 386.44,233.91 386.7,239.63 386.78,245.36 386.66,251.09 386.34,256.81 385.83,262.51 385.12,268.2 384.22,273.86 383.13,279.48 381.85,285.07 380.38,290.61 378.72,296.09 376.88,301.51 374.85,306.87 372.64,312.16 370.25,317.37 367.69,322.49 364.95,327.52 362.04,332.46 358.97,337.3 355.73,342.02 352.34,346.64 348.79,351.14 345.09,355.51 341.24,359.75 337.25,363.87 333.12,367.84 328.86,371.67 324.47,375.35 319.96,378.88 315.33,382.26 310.59,385.47 305.74,388.53 300.79,391.41 295.74,394.13 290.61,396.67 285.39,399.04 280.09,401.22 274.73,403.23 269.29,405.05 263.8,406.69 258.26,408.13 252.67,409.39 247.04,410.46 241.38,411.33 235.69,412.01 229.98,412.5 224.26,412.79 218.53,412.89 218.53,407.09 218.53,401.29 218.53,395.49 218.53,389.69 218.53,383.88 218.53,378.08 218.53,372.28 218.53,366.48 218.53,360.68 218.53,354.88 218.53,349.07 218.53,343.27 218.53,337.47 218.53,331.67 218.53,325.87 218.53,320.07 218.53,314.26 218.53,308.46 218.53,302.66 218.53,296.86 218.53,291.06 218.53,285.25 218.53,279.45 218.53,273.65 218.53,267.85 218.53,262.05 218.53,256.25 218.53,250.44 218.53,244.64 218.53,244.64" stroke="none" fill="rgb(0,191,196)" stroke-width="1.07" stroke-dasharray="none" stroke-opacity="0" fill-opacity="1"/>
                </g>
                <g id="geom_polygon.polygon.1862.1" class="polygon grob gDesc">
                  <polygon id="geom_polygon.polygon.1862.1.1" points="218.53,244.64 218.53,250.44 218.53,256.25 218.53,262.05 218.53,267.85 218.53,273.65 218.53,279.45 218.53,285.25 218.53,291.06 218.53,296.86 218.53,302.66 218.53,308.46 218.53,314.26 218.53,320.07 218.53,325.87 218.53,331.67 218.53,337.47 218.53,343.27 218.53,349.07 218.53,354.88 218.53,360.68 218.53,366.48 218.53,372.28 218.53,378.08 218.53,383.88 218.53,389.69 218.53,395.49 218.53,401.29 218.53,407.09 218.53,412.89 212.75,412.79 206.99,412.5 201.23,412 195.5,411.31 189.79,410.42 184.11,409.33 178.48,408.06 172.9,406.58 167.36,404.92 161.89,403.07 156.49,401.03 151.15,398.81 145.9,396.41 140.73,393.83 135.66,391.07 130.68,388.14 125.81,385.04 121.04,381.77 116.39,378.34 111.86,374.76 107.46,371.02 103.19,367.13 99.05,363.1 95.05,358.93 91.2,354.62 87.5,350.19 83.96,345.63 80.57,340.95 77.35,336.16 74.29,331.26 71.4,326.25 68.69,321.16 66.15,315.97 63.79,310.69 61.61,305.34 59.62,299.92 57.82,294.43 56.2,288.89 54.78,283.29 53.55,277.64 52.51,271.96 51.67,266.25 51.03,260.51 50.59,254.75 50.34,248.98 50.29,243.2 50.44,237.42 50.78,231.66 51.33,225.91 52.07,220.18 53.01,214.48 54.14,208.82 55.47,203.19 56.99,197.62 58.7,192.1 60.59,186.65 62.68,181.26 64.94,175.95 67.39,170.71 70.02,165.57 72.82,160.52 77.85,163.42 82.87,166.32 87.9,169.22 92.92,172.12 97.94,175.02 102.97,177.92 107.99,180.82 113.02,183.73 118.04,186.63 123.07,189.53 128.09,192.43 133.12,195.33 138.14,198.23 143.16,201.13 148.19,204.03 153.21,206.93 158.24,209.83 163.26,212.73 168.29,215.63 173.31,218.54 178.33,221.44 183.36,224.34 188.38,227.24 193.41,230.14 198.43,233.04 203.46,235.94 208.48,238.84 213.51,241.74 218.53,244.64 218.53,244.64" stroke="none" fill="rgb(248,118,109)" stroke-width="1.07" stroke-dasharray="none" stroke-opacity="0" fill-opacity="1"/>
                </g>
              </g>
              <g id="GRID.text.1865.1" class="text grob gDesc">
                <g id="GRID.text.1865.1.1" transform="translate(291.38, 202.58)" stroke-width="0.1">
                  <g id="GRID.text.1865.1.1.scale" transform="scale(1, -1)">
                    <text x="0" y="0" id="GRID.text.1865.1.1.text" text-anchor="middle" stroke="rgb(0,0,0)" font-size="11.04" font-family="Helvetica, Arial, FreeSans, Liberation Sans, Nimbus Sans L, sans-serif" fill="rgb(0,0,0)" stroke-opacity="1" fill-opacity="1" font-weight="normal" font-style="normal">
                      <tspan id="GRID.text.1865.1.1.tspan.1" dy="3.95" x="0">32</tspan>
                    </text>
                  </g>
                </g>
                <g id="GRID.text.1865.1.2" transform="translate(145.68, 286.71)" stroke-width="0.1">
                  <g id="GRID.text.1865.1.2.scale" transform="scale(1, -1)">
                    <text x="0" y="0" id="GRID.text.1865.1.2.text" text-anchor="middle" stroke="rgb(0,0,0)" font-size="11.04" font-family="Helvetica, Arial, FreeSans, Liberation Sans, Nimbus Sans L, sans-serif" fill="rgb(0,0,0)" stroke-opacity="1" fill-opacity="1" font-weight="normal" font-style="normal">
                      <tspan id="GRID.text.1865.1.2.tspan.1" dy="3.95" x="0">16</tspan>
                    </text>
                  </g>
                </g>
              </g>
              <g id="GRID.gTree.1866.1" class="gTree grob gDesc"/>
            </g>
          </g>
          <g id="layout::spacer.8-6-8-6.1" class="viewport"/>
          <g id="layout::spacer.8-4-8-4.1" class="viewport"/>
          <g id="layout::spacer.6-6-6-6.1" class="viewport"/>
          <g id="layout::spacer.6-4-6-4.1" class="viewport"/>
          <g id="layout::axis-t.6-5-6-5.1" class="viewport"/>
          <g id="layout::axis-l.7-4-7-4.1" class="viewport">
            <g id="layout::axis-l.7-4-7-4::GRID.VP.431.1" class="viewport">
              <g id="axis-l.7-4-7-4.1" class="forcedgrob gTableChild absoluteGrob gTree grob gDesc">
                <g id="layout::axis-l.7-4-7-4::GRID.VP.431::axis.1" class="viewport">
                  <g id="axis.1" class="forcedgrob gtable gTree grob gDesc">
                    <g id="layout::axis-l.7-4-7-4::GRID.VP.431::axis::axis.1-1-1-1.1" class="viewport"/>
                    <g id="layout::axis-l.7-4-7-4::GRID.VP.431::axis::axis.1-2-1-2.1" class="viewport"/>
                  </g>
                </g>
              </g>
            </g>
          </g>
          <g id="layout::axis-r.7-6-7-6.1" class="viewport"/>
          <g id="layout::axis-b.8-5-8-5.1" class="viewport">
            <g id="layout::axis-b.8-5-8-5::GRID.VP.430.1" class="viewport">
              <g id="axis-b.8-5-8-5.1" class="forcedgrob gTableChild absoluteGrob gTree grob gDesc">
                <g id="layout::axis-b.8-5-8-5::GRID.VP.430::axis.1" class="viewport">
                  <g id="axis.2" class="forcedgrob gtable gTree grob gDesc">
                    <g id="layout::axis-b.8-5-8-5::GRID.VP.430::axis::axis.1-1-1-1.1" class="viewport"/>
                    <g id="layout::axis-b.8-5-8-5::GRID.VP.430::axis::axis.2-1-2-1.1" class="viewport"/>
                  </g>
                </g>
              </g>
            </g>
          </g>
          <g id="layout::xlab-t.5-5-5-5.1" class="viewport"/>
          <g id="layout::xlab-b.9-5-9-5.1" class="viewport"/>
          <g id="layout::ylab-l.7-3-7-3.1" class="viewport"/>
          <g id="layout::ylab-r.7-7-7-7.1" class="viewport"/>
          <g id="layout::guide-box.7-9-7-9.1" class="viewport">
            <g id="layout::guide-box.7-9-7-9::GRID.VP.439.1" class="viewport">
              <g id="layout::guide-box.7-9-7-9::GRID.VP.439::guide-box.7-9-7-9.1" class="viewport">
                <g id="guide-box.7-9-7-9.1" class="forcedgrob gTableChild gtable gTree grob gDesc">
                  <g id="layout::guide-box.7-9-7-9::GRID.VP.439::guide-box.7-9-7-9::legend.box.background.2-4-4-2.1" class="viewport"/>
                  <g id="layout::guide-box.7-9-7-9::GRID.VP.439::guide-box.7-9-7-9::guides.3-3-3-3.1" class="viewport">
                    <g id="layout::guide-box.7-9-7-9::GRID.VP.439::guide-box.7-9-7-9::guides.3-3-3-3::GRID.VP.438.1" class="viewport">
                      <g id="layout::guide-box.7-9-7-9::GRID.VP.439::guide-box.7-9-7-9::guides.3-3-3-3::GRID.VP.438::guides.3-3-3-3.1" class="viewport">
                        <g id="guides.3-3-3-3.1" class="forcedgrob gTableChild gtable gTree grob gDesc">
                          <g id="layout::guide-box.7-9-7-9::GRID.VP.439::guide-box.7-9-7-9::guides.3-3-3-3::GRID.VP.438::guides.3-3-3-3::background.1-6-6-1.1" class="viewport">
                            <g id="background.1-6-6-1.1" class="forcedgrob gTableChild rect grob gDesc">
                              <rect id="background.1-6-6-1.1.1" x="439.8" y="219.14" width="58.72" height="51" transform="" stroke-width="1.07" stroke="none" fill="rgb(255,255,255)" stroke-dasharray="none" stroke-opacity="0" fill-opacity="1"/>
                            </g>
                          </g>
                          <g id="layout::guide-box.7-9-7-9::GRID.VP.439::guide-box.7-9-7-9::guides.3-3-3-3::GRID.VP.438::guides.3-3-3-3::title.2-5-2-2.1" class="viewport"/>
                          <g id="layout::guide-box.7-9-7-9::GRID.VP.439::guide-box.7-9-7-9::guides.3-3-3-3::GRID.VP.438::guides.3-3-3-3::key-3-1-bg.4-2-4-2.1" class="viewport"/>
                          <g id="layout::guide-box.7-9-7-9::GRID.VP.439::guide-box.7-9-7-9::guides.3-3-3-3::GRID.VP.438::guides.3-3-3-3::key-3-1-1.4-2-4-2.1" class="viewport">
                            <g id="key-3-1-1.4-2-4-2.1" class="forcedgrob gTableChild rect grob gDesc">
                              <rect id="key-3-1-1.4-2-4-2.1.1" x="445.99" y="242.61" width="15.86" height="15.86" transform="" stroke="none" fill="rgb(248,118,109)" stroke-dasharray="none" stroke-width="1.07" stroke-linejoin="miter" stroke-opacity="0" fill-opacity="1"/>
                            </g>
                          </g>
                          <g id="layout::guide-box.7-9-7-9::GRID.VP.439::guide-box.7-9-7-9::guides.3-3-3-3::GRID.VP.438::guides.3-3-3-3::key-4-1-bg.5-2-5-2.1" class="viewport"/>
                          <g id="layout::guide-box.7-9-7-9::GRID.VP.439::guide-box.7-9-7-9::guides.3-3-3-3::GRID.VP.438::guides.3-3-3-3::key-4-1-1.5-2-5-2.1" class="viewport">
                            <g id="key-4-1-1.5-2-5-2.1" class="forcedgrob gTableChild rect grob gDesc">
                              <rect id="key-4-1-1.5-2-5-2.1.1" x="445.99" y="225.33" width="15.86" height="15.86" transform="" stroke="none" fill="rgb(0,191,196)" stroke-dasharray="none" stroke-width="1.07" stroke-linejoin="miter" stroke-opacity="0" fill-opacity="1"/>
                            </g>
                          </g>
                          <g id="layout::guide-box.7-9-7-9::GRID.VP.439::guide-box.7-9-7-9::guides.3-3-3-3::GRID.VP.438::guides.3-3-3-3::label-3-3.4-4-4-4.1" class="viewport">
                            <g id="layout::guide-box.7-9-7-9::GRID.VP.439::guide-box.7-9-7-9::guides.3-3-3-3::GRID.VP.438::guides.3-3-3-3::label-3-3.4-4-4-4::GRID.VP.436.1" class="viewport">
                              <g id="label-3-3.4-4-4-4.1" class="forcedgrob gTableChild gTree grob gDesc">
                                <g id="layout::guide-box.7-9-7-9::GRID.VP.439::guide-box.7-9-7-9::guides.3-3-3-3::GRID.VP.438::guides.3-3-3-3::label-3-3.4-4-4-4::GRID.VP.436::GRID.VP.432.1" font-size="8.8" stroke="rgb(0,0,0)" font-family="Helvetica, Arial, FreeSans, Liberation Sans, Nimbus Sans L, sans-serif" stroke-opacity="1" font-weight="normal" font-style="normal" class="viewport">
                                  <g id="layout::guide-box.7-9-7-9::GRID.VP.439::guide-box.7-9-7-9::guides.3-3-3-3::GRID.VP.438::guides.3-3-3-3::label-3-3.4-4-4-4::GRID.VP.436::GRID.VP.432::GRID.VP.433.1" class="viewport">
                                    <g id="guide.label.titleGrob.1889.1" class="titleGrob gTree grob gDesc">
                                      <g id="GRID.text.1887.1" class="text grob gDesc">
                                        <g id="GRID.text.1887.1.1" transform="translate(468.04, 250.54)" stroke-width="0.1">
                                          <g id="GRID.text.1887.1.1.scale" transform="scale(1, -1)">
                                            <text x="0" y="0" id="GRID.text.1887.1.1.text" text-anchor="start" font-size="8.8" stroke="rgb(0,0,0)" font-family="Helvetica, Arial, FreeSans, Liberation Sans, Nimbus Sans L, sans-serif" fill="rgb(0,0,0)" stroke-opacity="1" fill-opacity="1" font-weight="normal" font-style="normal">
                                              <tspan id="GRID.text.1887.1.1.tspan.1" dy="3.23" x="0">N (16)</tspan>
                                            </text>
                                          </g>
                                        </g>
                                      </g>
                                    </g>
                                  </g>
                                </g>
                              </g>
                            </g>
                          </g>
                          <g id="layout::guide-box.7-9-7-9::GRID.VP.439::guide-box.7-9-7-9::guides.3-3-3-3::GRID.VP.438::guides.3-3-3-3::label-4-3.5-4-5-4.1" class="viewport">
                            <g id="layout::guide-box.7-9-7-9::GRID.VP.439::guide-box.7-9-7-9::guides.3-3-3-3::GRID.VP.438::guides.3-3-3-3::label-4-3.5-4-5-4::GRID.VP.437.1" class="viewport">
                              <g id="label-4-3.5-4-5-4.1" class="forcedgrob gTableChild gTree grob gDesc">
                                <g id="layout::guide-box.7-9-7-9::GRID.VP.439::guide-box.7-9-7-9::guides.3-3-3-3::GRID.VP.438::guides.3-3-3-3::label-4-3.5-4-5-4::GRID.VP.437::GRID.VP.434.1" font-size="8.8" stroke="rgb(0,0,0)" font-family="Helvetica, Arial, FreeSans, Liberation Sans, Nimbus Sans L, sans-serif" stroke-opacity="1" font-weight="normal" font-style="normal" class="viewport">
                                  <g id="layout::guide-box.7-9-7-9::GRID.VP.439::guide-box.7-9-7-9::guides.3-3-3-3::GRID.VP.438::guides.3-3-3-3::label-4-3.5-4-5-4::GRID.VP.437::GRID.VP.434::GRID.VP.435.1" class="viewport">
                                    <g id="guide.label.titleGrob.1892.1" class="titleGrob gTree grob gDesc">
                                      <g id="GRID.text.1890.1" class="text grob gDesc">
                                        <g id="GRID.text.1890.1.1" transform="translate(468.04, 233.26)" stroke-width="0.1">
                                          <g id="GRID.text.1890.1.1.scale" transform="scale(1, -1)">
                                            <text x="0" y="0" id="GRID.text.1890.1.1.text" text-anchor="start" font-size="8.8" stroke="rgb(0,0,0)" font-family="Helvetica, Arial, FreeSans, Liberation Sans, Nimbus Sans L, sans-serif" fill="rgb(0,0,0)" stroke-opacity="1" fill-opacity="1" font-weight="normal" font-style="normal">
                                              <tspan id="GRID.text.1890.1.1.tspan.1" dy="3.23" x="0">S (32)</tspan>
                                            </text>
                                          </g>
                                        </g>
                                      </g>
                                    </g>
                                  </g>
                                </g>
                              </g>
                            </g>
                          </g>
                        </g>
                      </g>
                    </g>
                  </g>
                </g>
              </g>
            </g>
          </g>
          <g id="layout::subtitle.4-5-4-5.1" class="viewport"/>
          <g id="layout::title.3-5-3-5.1" class="viewport">
            <g id="layout::title.3-5-3-5::GRID.VP.440.1" font-size="13.2" stroke="rgb(102,102,102)" font-family="Helvetica, Arial, FreeSans, Liberation Sans, Nimbus Sans L, sans-serif" stroke-opacity="1" font-weight="normal" font-style="normal" class="viewport">
              <g id="layout::title.3-5-3-5::GRID.VP.440::GRID.VP.441.1" class="viewport">
                <g id="title.3-5-3-5.1" class="forcedgrob gTableChild titleGrob gTree grob gDesc">
                  <g id="GRID.text.1901.1" class="text grob gDesc">
                    <g id="GRID.text.1901.1.1" transform="translate(218.53, 472.41)" stroke-width="0.1">
                      <g id="GRID.text.1901.1.1.scale" transform="scale(1, -1)">
                        <text x="0" y="0" id="GRID.text.1901.1.1.text" text-anchor="middle" font-size="13.2" stroke="rgb(102,102,102)" font-family="Helvetica, Arial, FreeSans, Liberation Sans, Nimbus Sans L, sans-serif" fill="rgb(102,102,102)" stroke-opacity="1" fill-opacity="1" font-weight="normal" font-style="normal">
                          <tspan id="GRID.text.1901.1.1.tspan.1" dy="9.33" x="0">anagrafica espertoliceo</tspan>
                        </text>
                      </g>
                    </g>
                  </g>
                </g>
              </g>
            </g>
          </g>
          <g id="layout::caption.10-5-10-5.1" class="viewport"/>
          <g id="layout::tag.2-2-2-2.1" class="viewport"/>
        </g>
      </g>
    </g>
  </g>
</svg>