<?xml version="1.0" encoding="UTF-8"?>
<svg xmlns="http://www.w3.org/2000/svg" xmlns:xlink="http://www.w3.org/1999/xlink" width="504px" height="504px" viewBox="0 0 504 504" version="1.1">
  <metadata xmlns:gridsvg="http://www.stat.auckland.ac.nz/~paul/R/gridSVG/">
    <gridsvg:generator name="gridSVG" version="1.6-0" time="2019-01-08 22:40:25"/>
    <gridsvg:argument name="name" value="./latest_informaggio_csv/anziani/risultati/svg/anagrafica-totali-cdl.svg"/>
    <gridsvg:argument name="exportCoords" value="none"/>
    <gridsvg:argument name="exportMappings" value="none"/>
    <gridsvg:argument name="exportJS" value="none"/>
    <gridsvg:argument name="res" value="72"/>
    <gridsvg:argument name="prefix" value=""/>
    <gridsvg:argument name="addClasses" value="TRUE"/>
    <gridsvg:argument name="indent" value="TRUE"/>
    <gridsvg:argument name="htmlWrapper" value="FALSE"/>
    <gridsvg:argument name="usePaths" value="vpPaths"/>
    <gridsvg:argument name="uniqueNames" value="TRUE"/>
    <gridsvg:separator name="id.sep" value="."/>
    <gridsvg:separator name="gPath.sep" value="::"/>
    <gridsvg:separator name="vpPath.sep" value="::"/>
  </metadata>
  <g transform="translate(0, 504) scale(1, -1)">
    <g id="gridSVG" fill="none" stroke="rgb(0,0,0)" stroke-dasharray="none" stroke-width="0.75" font-size="12" font-family="Helvetica, Arial, FreeSans, Liberation Sans, Nimbus Sans L, sans-serif" opacity="1" stroke-linecap="round" stroke-linejoin="round" stroke-miterlimit="10" stroke-opacity="1" fill-opacity="0" font-weight="normal" font-style="normal">
      <g id="layout.1" class="viewport">
        <g id="layout.2" class="forcedgrob gtable gTree grob gDesc">
          <defs>
            <clipPath id="layout::background.1-11-12-1.1.clipPath">
              <rect x="0" y="19.86" width="504" height="464.28" fill="none" stroke="none"/>
            </clipPath>
          </defs>
          <g id="layout::background.1-11-12-1.1" clip-path="url(#layout::background.1-11-12-1.1.clipPath)" class="viewport">
            <g id="background.1-11-12-1.1" class="forcedgrob gTableChild rect grob gDesc">
              <rect id="background.1-11-12-1.1.1" x="0" y="19.86" width="504" height="464.28" transform="" stroke-width="1.07" stroke="rgb(255,255,255)" fill="rgb(255,255,255)" stroke-dasharray="none" stroke-opacity="1" fill-opacity="1"/>
            </g>
          </g>
          <defs>
            <clipPath id="layout::panel.7-5-7-5.1.clipPath">
              <rect x="8.22" y="28.08" width="433.12" height="433.12" fill="none" stroke="none"/>
            </clipPath>
          </defs>
          <g id="layout::panel.7-5-7-5.1" clip-path="url(#layout::panel.7-5-7-5.1.clipPath)" class="viewport">
            <g id="panel.7-5-7-5.1" class="forcedgrob gTableChild gTree grob gDesc">
              <g id="grill.gTree.1219.1" class="gTree grob gDesc">
                <g id="panel.background..rect.1215.1" class="rect grob gDesc">
                  <rect id="panel.background..rect.1215.1.1" x="8.22" y="28.08" width="433.12" height="433.12" transform="" stroke-width="1.07" stroke="none" fill="rgb(255,255,255)" stroke-dasharray="none" stroke-opacity="0" fill-opacity="1"/>
                </g>
              </g>
              <g id="bar.gTree.1208.1" class="gTree grob gDesc">
                <g id="geom_polygon.polygon.1204.1" class="polygon grob gDesc">
                  <polygon id="geom_polygon.polygon.1204.1.1" points="224.78,244.64 221.79,239.47 218.81,234.3 215.82,229.12 212.83,223.95 209.85,218.77 206.86,213.6 203.87,208.43 200.88,203.25 197.9,198.08 194.91,192.91 191.92,187.73 188.94,182.56 185.95,177.38 182.96,172.21 179.97,167.04 176.99,161.86 174,156.69 171.01,151.52 168.03,146.34 165.04,141.17 162.05,135.99 159.07,130.82 156.08,125.65 153.09,120.47 150.1,115.3 147.12,110.13 144.13,104.95 141.14,99.78 138.16,94.6 143.3,91.75 148.53,89.08 153.85,86.58 159.26,84.26 164.74,82.13 170.29,80.19 175.9,78.43 181.57,76.87 187.28,75.5 193.04,74.33 198.84,73.35 204.67,72.57 210.52,71.98 216.38,71.6 222.26,71.41 228.14,71.43 234.02,71.64 239.88,72.05 245.73,72.66 251.55,73.47 257.34,74.48 263.1,75.68 268.81,77.08 274.47,78.67 280.07,80.45 285.61,82.42 291.08,84.58 296.47,86.92 301.78,89.45 307,92.15 312.13,95.03 317.16,98.08 322.08,101.3 326.89,104.68 331.58,108.22 336.14,111.93 340.58,115.78 344.89,119.78 349.06,123.93 353.08,128.22 356.96,132.64 360.68,137.19 364.25,141.86 367.66,146.65 370.9,151.56 373.97,156.57 376.87,161.68 379.6,166.89 382.15,172.19 384.52,177.57 386.7,183.03 388.7,188.56 390.51,194.15 392.13,199.8 393.55,205.51 394.78,211.26 395.82,217.04 396.66,222.86 397.3,228.71 397.74,234.57 397.98,240.44 398.02,246.32 397.87,252.2 397.51,258.07 396.95,263.92 396.2,269.75 395.25,275.55 394.1,281.32 392.76,287.04 391.23,292.72 389.5,298.34 387.58,303.9 385.48,309.39 383.19,314.8 380.72,320.14 378.07,325.38 375.24,330.54 372.24,335.59 369.07,340.55 365.73,345.39 362.23,350.11 358.57,354.71 354.76,359.19 350.8,363.53 346.69,367.74 342.44,371.81 338.06,375.73 333.55,379.49 328.91,383.11 324.15,386.56 319.28,389.85 314.3,392.97 309.21,395.93 304.03,398.7 298.76,401.3 293.4,403.72 287.96,405.96 282.45,408.01 276.88,409.87 271.24,411.55 265.55,413.03 259.81,414.31 254.04,415.4 248.23,416.3 242.39,417 236.53,417.49 230.66,417.79 224.78,417.89 224.78,411.92 224.78,405.94 224.78,399.97 224.78,394 224.78,388.02 224.78,382.05 224.78,376.07 224.78,370.1 224.78,364.13 224.78,358.15 224.78,352.18 224.78,346.2 224.78,340.23 224.78,334.25 224.78,328.28 224.78,322.31 224.78,316.33 224.78,310.36 224.78,304.38 224.78,298.41 224.78,292.44 224.78,286.46 224.78,280.49 224.78,274.51 224.78,268.54 224.78,262.57 224.78,256.59 224.78,250.62 224.78,244.64 224.78,244.64" stroke="none" fill="rgb(0,191,196)" stroke-width="1.07" stroke-dasharray="none" stroke-opacity="0" fill-opacity="1"/>
                </g>
                <g id="geom_polygon.polygon.1206.1" class="polygon grob gDesc">
                  <polygon id="geom_polygon.polygon.1206.1.1" points="224.78,244.64 224.78,250.62 224.78,256.59 224.78,262.57 224.78,268.54 224.78,274.51 224.78,280.49 224.78,286.46 224.78,292.44 224.78,298.41 224.78,304.38 224.78,310.36 224.78,316.33 224.78,322.31 224.78,328.28 224.78,334.25 224.78,340.23 224.78,346.2 224.78,352.18 224.78,358.15 224.78,364.13 224.78,370.1 224.78,376.07 224.78,382.05 224.78,388.02 224.78,394 224.78,399.97 224.78,405.94 224.78,411.92 224.78,417.89 218.89,417.79 213.01,417.49 207.14,416.99 201.29,416.29 195.47,415.39 189.68,414.3 183.94,413.01 178.24,411.52 172.59,409.84 167,407.97 161.49,405.92 156.04,403.67 150.67,401.24 145.39,398.63 140.2,395.85 135.11,392.88 130.13,389.75 125.25,386.45 120.49,382.98 115.84,379.36 111.33,375.58 106.94,371.64 102.69,367.56 98.58,363.34 94.62,358.98 90.81,354.49 87.15,349.88 83.66,345.14 80.32,340.28 77.15,335.32 74.16,330.25 71.33,325.08 68.69,319.81 66.22,314.46 63.94,309.03 61.85,303.53 59.94,297.96 58.22,292.32 56.7,286.63 55.37,280.89 54.23,275.11 53.29,269.3 52.56,263.46 52.02,257.59 51.68,251.71 51.54,245.82 51.6,239.93 51.86,234.05 52.32,228.17 52.98,222.32 53.83,216.49 54.89,210.7 56.14,204.94 57.59,199.23 59.23,193.58 61.06,187.98 63.08,182.45 65.29,176.99 67.68,171.6 70.25,166.3 73.01,161.1 75.93,155.99 79.03,150.98 82.3,146.08 85.74,141.29 89.33,136.62 93.08,132.08 96.98,127.67 101.03,123.39 105.23,119.26 109.56,115.27 114.02,111.42 118.61,107.73 123.33,104.21 128.16,100.84 133.11,97.64 138.16,94.6 141.14,99.78 144.13,104.95 147.12,110.13 150.1,115.3 153.09,120.47 156.08,125.65 159.07,130.82 162.05,135.99 165.04,141.17 168.03,146.34 171.01,151.52 174,156.69 176.99,161.86 179.97,167.04 182.96,172.21 185.95,177.38 188.94,182.56 191.92,187.73 194.91,192.91 197.9,198.08 200.88,203.25 203.87,208.43 206.86,213.6 209.85,218.77 212.83,223.95 215.82,229.12 218.81,234.3 221.79,239.47 224.78,244.64 224.78,244.64" stroke="none" fill="rgb(248,118,109)" stroke-width="1.07" stroke-dasharray="none" stroke-opacity="0" fill-opacity="1"/>
                </g>
              </g>
              <g id="GRID.text.1209.1" class="text grob gDesc">
                <g id="GRID.text.1209.1.1" transform="translate(308.45, 222.22)" stroke-width="0.1">
                  <g id="GRID.text.1209.1.1.scale" transform="scale(1, -1)">
                    <text x="0" y="0" id="GRID.text.1209.1.1.text" text-anchor="middle" stroke="rgb(0,0,0)" font-size="11.04" font-family="Helvetica, Arial, FreeSans, Liberation Sans, Nimbus Sans L, sans-serif" fill="rgb(0,0,0)" stroke-opacity="1" fill-opacity="1" font-weight="normal" font-style="normal">
                      <tspan id="GRID.text.1209.1.1.tspan.1" dy="3.95" x="0">28</tspan>
                    </text>
                  </g>
                </g>
                <g id="GRID.text.1209.1.2" transform="translate(141.11, 267.06)" stroke-width="0.1">
                  <g id="GRID.text.1209.1.2.scale" transform="scale(1, -1)">
                    <text x="0" y="0" id="GRID.text.1209.1.2.text" text-anchor="middle" stroke="rgb(0,0,0)" font-size="11.04" font-family="Helvetica, Arial, FreeSans, Liberation Sans, Nimbus Sans L, sans-serif" fill="rgb(0,0,0)" stroke-opacity="1" fill-opacity="1" font-weight="normal" font-style="normal">
                      <tspan id="GRID.text.1209.1.2.tspan.1" dy="3.95" x="0">20</tspan>
                    </text>
                  </g>
                </g>
              </g>
              <g id="GRID.gTree.1210.1" class="gTree grob gDesc"/>
            </g>
          </g>
          <g id="layout::spacer.8-6-8-6.1" class="viewport"/>
          <g id="layout::spacer.8-4-8-4.1" class="viewport"/>
          <g id="layout::spacer.6-6-6-6.1" class="viewport"/>
          <g id="layout::spacer.6-4-6-4.1" class="viewport"/>
          <g id="layout::axis-t.6-5-6-5.1" class="viewport"/>
          <g id="layout::axis-l.7-4-7-4.1" class="viewport">
            <g id="layout::axis-l.7-4-7-4::GRID.VP.293.1" class="viewport">
              <g id="axis-l.7-4-7-4.1" class="forcedgrob gTableChild absoluteGrob gTree grob gDesc">
                <g id="layout::axis-l.7-4-7-4::GRID.VP.293::axis.1" class="viewport">
                  <g id="axis.1" class="forcedgrob gtable gTree grob gDesc">
                    <g id="layout::axis-l.7-4-7-4::GRID.VP.293::axis::axis.1-1-1-1.1" class="viewport"/>
                    <g id="layout::axis-l.7-4-7-4::GRID.VP.293::axis::axis.1-2-1-2.1" class="viewport"/>
                  </g>
                </g>
              </g>
            </g>
          </g>
          <g id="layout::axis-r.7-6-7-6.1" class="viewport"/>
          <g id="layout::axis-b.8-5-8-5.1" class="viewport">
            <g id="layout::axis-b.8-5-8-5::GRID.VP.292.1" class="viewport">
              <g id="axis-b.8-5-8-5.1" class="forcedgrob gTableChild absoluteGrob gTree grob gDesc">
                <g id="layout::axis-b.8-5-8-5::GRID.VP.292::axis.1" class="viewport">
                  <g id="axis.2" class="forcedgrob gtable gTree grob gDesc">
                    <g id="layout::axis-b.8-5-8-5::GRID.VP.292::axis::axis.1-1-1-1.1" class="viewport"/>
                    <g id="layout::axis-b.8-5-8-5::GRID.VP.292::axis::axis.2-1-2-1.1" class="viewport"/>
                  </g>
                </g>
              </g>
            </g>
          </g>
          <g id="layout::xlab-t.5-5-5-5.1" class="viewport"/>
          <g id="layout::xlab-b.9-5-9-5.1" class="viewport"/>
          <g id="layout::ylab-l.7-3-7-3.1" class="viewport"/>
          <g id="layout::ylab-r.7-7-7-7.1" class="viewport"/>
          <g id="layout::guide-box.7-9-7-9.1" class="viewport">
            <g id="layout::guide-box.7-9-7-9::GRID.VP.301.1" class="viewport">
              <g id="layout::guide-box.7-9-7-9::GRID.VP.301::guide-box.7-9-7-9.1" class="viewport">
                <g id="guide-box.7-9-7-9.1" class="forcedgrob gTableChild gtable gTree grob gDesc">
                  <g id="layout::guide-box.7-9-7-9::GRID.VP.301::guide-box.7-9-7-9::legend.box.background.2-4-4-2.1" class="viewport"/>
                  <g id="layout::guide-box.7-9-7-9::GRID.VP.301::guide-box.7-9-7-9::guides.3-3-3-3.1" class="viewport">
                    <g id="layout::guide-box.7-9-7-9::GRID.VP.301::guide-box.7-9-7-9::guides.3-3-3-3::GRID.VP.300.1" class="viewport">
                      <g id="layout::guide-box.7-9-7-9::GRID.VP.301::guide-box.7-9-7-9::guides.3-3-3-3::GRID.VP.300::guides.3-3-3-3.1" class="viewport">
                        <g id="guides.3-3-3-3.1" class="forcedgrob gTableChild gtable gTree grob gDesc">
                          <g id="layout::guide-box.7-9-7-9::GRID.VP.301::guide-box.7-9-7-9::guides.3-3-3-3::GRID.VP.300::guides.3-3-3-3::background.1-6-6-1.1" class="viewport">
                            <g id="background.1-6-6-1.1" class="forcedgrob gTableChild rect grob gDesc">
                              <rect id="background.1-6-6-1.1.1" x="452.3" y="219.14" width="46.22" height="51" transform="" stroke-width="1.07" stroke="none" fill="rgb(255,255,255)" stroke-dasharray="none" stroke-opacity="0" fill-opacity="1"/>
                            </g>
                          </g>
                          <g id="layout::guide-box.7-9-7-9::GRID.VP.301::guide-box.7-9-7-9::guides.3-3-3-3::GRID.VP.300::guides.3-3-3-3::title.2-5-2-2.1" class="viewport"/>
                          <g id="layout::guide-box.7-9-7-9::GRID.VP.301::guide-box.7-9-7-9::guides.3-3-3-3::GRID.VP.300::guides.3-3-3-3::key-3-1-bg.4-2-4-2.1" class="viewport"/>
                          <g id="layout::guide-box.7-9-7-9::GRID.VP.301::guide-box.7-9-7-9::guides.3-3-3-3::GRID.VP.300::guides.3-3-3-3::key-3-1-1.4-2-4-2.1" class="viewport">
                            <g id="key-3-1-1.4-2-4-2.1" class="forcedgrob gTableChild rect grob gDesc">
                              <rect id="key-3-1-1.4-2-4-2.1.1" x="458.49" y="242.61" width="15.86" height="15.86" transform="" stroke="none" fill="rgb(248,118,109)" stroke-dasharray="none" stroke-width="1.07" stroke-linejoin="miter" stroke-opacity="0" fill-opacity="1"/>
                            </g>
                          </g>
                          <g id="layout::guide-box.7-9-7-9::GRID.VP.301::guide-box.7-9-7-9::guides.3-3-3-3::GRID.VP.300::guides.3-3-3-3::key-4-1-bg.5-2-5-2.1" class="viewport"/>
                          <g id="layout::guide-box.7-9-7-9::GRID.VP.301::guide-box.7-9-7-9::guides.3-3-3-3::GRID.VP.300::guides.3-3-3-3::key-4-1-1.5-2-5-2.1" class="viewport">
                            <g id="key-4-1-1.5-2-5-2.1" class="forcedgrob gTableChild rect grob gDesc">
                              <rect id="key-4-1-1.5-2-5-2.1.1" x="458.49" y="225.33" width="15.86" height="15.86" transform="" stroke="none" fill="rgb(0,191,196)" stroke-dasharray="none" stroke-width="1.07" stroke-linejoin="miter" stroke-opacity="0" fill-opacity="1"/>
                            </g>
                          </g>
                          <g id="layout::guide-box.7-9-7-9::GRID.VP.301::guide-box.7-9-7-9::guides.3-3-3-3::GRID.VP.300::guides.3-3-3-3::label-3-3.4-4-4-4.1" class="viewport">
                            <g id="layout::guide-box.7-9-7-9::GRID.VP.301::guide-box.7-9-7-9::guides.3-3-3-3::GRID.VP.300::guides.3-3-3-3::label-3-3.4-4-4-4::GRID.VP.298.1" class="viewport">
                              <g id="label-3-3.4-4-4-4.1" class="forcedgrob gTableChild gTree grob gDesc">
                                <g id="layout::guide-box.7-9-7-9::GRID.VP.301::guide-box.7-9-7-9::guides.3-3-3-3::GRID.VP.300::guides.3-3-3-3::label-3-3.4-4-4-4::GRID.VP.298::GRID.VP.294.1" font-size="8.8" stroke="rgb(0,0,0)" font-family="Helvetica, Arial, FreeSans, Liberation Sans, Nimbus Sans L, sans-serif" stroke-opacity="1" font-weight="normal" font-style="normal" class="viewport">
                                  <g id="layout::guide-box.7-9-7-9::GRID.VP.301::guide-box.7-9-7-9::guides.3-3-3-3::GRID.VP.300::guides.3-3-3-3::label-3-3.4-4-4-4::GRID.VP.298::GRID.VP.294::GRID.VP.295.1" class="viewport">
                                    <g id="guide.label.titleGrob.1233.1" class="titleGrob gTree grob gDesc">
                                      <g id="GRID.text.1231.1" class="text grob gDesc">
                                        <g id="GRID.text.1231.1.1" transform="translate(480.54, 250.54)" stroke-width="0.1">
                                          <g id="GRID.text.1231.1.1.scale" transform="scale(1, -1)">
                                            <text x="0" y="0" id="GRID.text.1231.1.1.text" text-anchor="start" font-size="8.8" stroke="rgb(0,0,0)" font-family="Helvetica, Arial, FreeSans, Liberation Sans, Nimbus Sans L, sans-serif" fill="rgb(0,0,0)" stroke-opacity="1" fill-opacity="1" font-weight="normal" font-style="normal">
                                              <tspan id="GRID.text.1231.1.1.tspan.1" dy="3.23" x="0">LT</tspan>
                                            </text>
                                          </g>
                                        </g>
                                      </g>
                                    </g>
                                  </g>
                                </g>
                              </g>
                            </g>
                          </g>
                          <g id="layout::guide-box.7-9-7-9::GRID.VP.301::guide-box.7-9-7-9::guides.3-3-3-3::GRID.VP.300::guides.3-3-3-3::label-4-3.5-4-5-4.1" class="viewport">
                            <g id="layout::guide-box.7-9-7-9::GRID.VP.301::guide-box.7-9-7-9::guides.3-3-3-3::GRID.VP.300::guides.3-3-3-3::label-4-3.5-4-5-4::GRID.VP.299.1" class="viewport">
                              <g id="label-4-3.5-4-5-4.1" class="forcedgrob gTableChild gTree grob gDesc">
                                <g id="layout::guide-box.7-9-7-9::GRID.VP.301::guide-box.7-9-7-9::guides.3-3-3-3::GRID.VP.300::guides.3-3-3-3::label-4-3.5-4-5-4::GRID.VP.299::GRID.VP.296.1" font-size="8.8" stroke="rgb(0,0,0)" font-family="Helvetica, Arial, FreeSans, Liberation Sans, Nimbus Sans L, sans-serif" stroke-opacity="1" font-weight="normal" font-style="normal" class="viewport">
                                  <g id="layout::guide-box.7-9-7-9::GRID.VP.301::guide-box.7-9-7-9::guides.3-3-3-3::GRID.VP.300::guides.3-3-3-3::label-4-3.5-4-5-4::GRID.VP.299::GRID.VP.296::GRID.VP.297.1" class="viewport">
                                    <g id="guide.label.titleGrob.1236.1" class="titleGrob gTree grob gDesc">
                                      <g id="GRID.text.1234.1" class="text grob gDesc">
                                        <g id="GRID.text.1234.1.1" transform="translate(480.54, 233.26)" stroke-width="0.1">
                                          <g id="GRID.text.1234.1.1.scale" transform="scale(1, -1)">
                                            <text x="0" y="0" id="GRID.text.1234.1.1.text" text-anchor="start" font-size="8.8" stroke="rgb(0,0,0)" font-family="Helvetica, Arial, FreeSans, Liberation Sans, Nimbus Sans L, sans-serif" fill="rgb(0,0,0)" stroke-opacity="1" fill-opacity="1" font-weight="normal" font-style="normal">
                                              <tspan id="GRID.text.1234.1.1.tspan.1" dy="3.23" x="0">LM</tspan>
                                            </text>
                                          </g>
                                        </g>
                                      </g>
                                    </g>
                                  </g>
                                </g>
                              </g>
                            </g>
                          </g>
                        </g>
                      </g>
                    </g>
                  </g>
                </g>
              </g>
            </g>
          </g>
          <g id="layout::subtitle.4-5-4-5.1" class="viewport"/>
          <g id="layout::title.3-5-3-5.1" class="viewport">
            <g id="layout::title.3-5-3-5::GRID.VP.302.1" font-size="13.2" stroke="rgb(102,102,102)" font-family="Helvetica, Arial, FreeSans, Liberation Sans, Nimbus Sans L, sans-serif" stroke-opacity="1" font-weight="normal" font-style="normal" class="viewport">
              <g id="layout::title.3-5-3-5::GRID.VP.302::GRID.VP.303.1" class="viewport">
                <g id="title.3-5-3-5.1" class="forcedgrob gTableChild titleGrob gTree grob gDesc">
                  <g id="GRID.text.1245.1" class="text grob gDesc">
                    <g id="GRID.text.1245.1.1" transform="translate(224.78, 478.66)" stroke-width="0.1">
                      <g id="GRID.text.1245.1.1.scale" transform="scale(1, -1)">
                        <text x="0" y="0" id="GRID.text.1245.1.1.text" text-anchor="middle" font-size="13.2" stroke="rgb(102,102,102)" font-family="Helvetica, Arial, FreeSans, Liberation Sans, Nimbus Sans L, sans-serif" fill="rgb(102,102,102)" stroke-opacity="1" fill-opacity="1" font-weight="normal" font-style="normal">
                          <tspan id="GRID.text.1245.1.1.tspan.1" dy="9.33" x="0">anagrafica totali-cdl</tspan>
                        </text>
                      </g>
                    </g>
                  </g>
                </g>
              </g>
            </g>
          </g>
          <g id="layout::caption.10-5-10-5.1" class="viewport"/>
          <g id="layout::tag.2-2-2-2.1" class="viewport"/>
        </g>
      </g>
    </g>
  </g>
</svg>