<?xml version="1.0" encoding="UTF-8"?>
<svg xmlns="http://www.w3.org/2000/svg" xmlns:xlink="http://www.w3.org/1999/xlink" width="504px" height="504px" viewBox="0 0 504 504" version="1.1">
  <metadata xmlns:gridsvg="http://www.stat.auckland.ac.nz/~paul/R/gridSVG/">
    <gridsvg:generator name="gridSVG" version="1.6-0" time="2019-01-15 00:32:51"/>
    <gridsvg:argument name="name" value="./latest_informaggio_csv/anziani/risultati/svg/anagrafica-corsoit.svg"/>
    <gridsvg:argument name="exportCoords" value="none"/>
    <gridsvg:argument name="exportMappings" value="none"/>
    <gridsvg:argument name="exportJS" value="none"/>
    <gridsvg:argument name="res" value="72"/>
    <gridsvg:argument name="prefix" value=""/>
    <gridsvg:argument name="addClasses" value="TRUE"/>
    <gridsvg:argument name="indent" value="TRUE"/>
    <gridsvg:argument name="htmlWrapper" value="FALSE"/>
    <gridsvg:argument name="usePaths" value="vpPaths"/>
    <gridsvg:argument name="uniqueNames" value="TRUE"/>
    <gridsvg:separator name="id.sep" value="."/>
    <gridsvg:separator name="gPath.sep" value="::"/>
    <gridsvg:separator name="vpPath.sep" value="::"/>
  </metadata>
  <g transform="translate(0, 504) scale(1, -1)">
    <g id="gridSVG" fill="none" stroke="rgb(0,0,0)" stroke-dasharray="none" stroke-width="0.75" font-size="12" font-family="Helvetica, Arial, FreeSans, Liberation Sans, Nimbus Sans L, sans-serif" opacity="1" stroke-linecap="round" stroke-linejoin="round" stroke-miterlimit="10" stroke-opacity="1" fill-opacity="0" font-weight="normal" font-style="normal">
      <g id="layout.1" class="viewport">
        <g id="layout.2" class="forcedgrob gtable gTree grob gDesc">
          <defs>
            <clipPath id="layout::background.1-11-12-1.1.clipPath">
              <rect x="0" y="26.11" width="504" height="451.77" fill="none" stroke="none"/>
            </clipPath>
          </defs>
          <g id="layout::background.1-11-12-1.1" clip-path="url(#layout::background.1-11-12-1.1.clipPath)" class="viewport">
            <g id="background.1-11-12-1.1" class="forcedgrob gTableChild rect grob gDesc">
              <rect id="background.1-11-12-1.1.1" x="0" y="26.11" width="504" height="451.77" transform="" stroke-width="1.07" stroke="rgb(255,255,255)" fill="rgb(255,255,255)" stroke-dasharray="none" stroke-opacity="1" fill-opacity="1"/>
            </g>
          </g>
          <defs>
            <clipPath id="layout::panel.7-5-7-5.1.clipPath">
              <rect x="8.22" y="34.33" width="420.62" height="420.62" fill="none" stroke="none"/>
            </clipPath>
          </defs>
          <g id="layout::panel.7-5-7-5.1" clip-path="url(#layout::panel.7-5-7-5.1.clipPath)" class="viewport">
            <g id="panel.7-5-7-5.1" class="forcedgrob gTableChild gTree grob gDesc">
              <g id="grill.gTree.1334.1" class="gTree grob gDesc">
                <g id="panel.background..rect.1330.1" class="rect grob gDesc">
                  <rect id="panel.background..rect.1330.1.1" x="8.22" y="34.33" width="420.62" height="420.62" transform="" stroke-width="1.07" stroke="none" fill="rgb(255,255,255)" stroke-dasharray="none" stroke-opacity="0" fill-opacity="1"/>
                </g>
              </g>
              <g id="bar.gTree.1323.1" class="gTree grob gDesc">
                <g id="geom_polygon.polygon.1319.1" class="polygon grob gDesc">
                  <polygon id="geom_polygon.polygon.1319.1.1" points="218.53,244.64 215.74,239.56 212.94,234.48 210.15,229.39 207.35,224.31 204.56,219.22 201.76,214.14 198.97,209.05 196.17,203.97 193.38,198.89 190.58,193.8 187.79,188.72 184.99,183.63 182.2,178.55 179.4,173.47 176.61,168.38 173.81,163.3 171.02,158.21 168.22,153.13 165.43,148.05 162.63,142.96 159.84,137.88 157.04,132.79 154.25,127.71 151.45,122.63 148.66,117.54 145.86,112.46 143.07,107.37 140.27,102.29 137.48,97.21 142.54,94.53 147.7,92.03 152.94,89.71 158.25,87.56 163.63,85.6 169.08,83.82 174.59,82.23 180.14,80.83 185.74,79.62 191.38,78.6 197.05,77.77 202.75,77.14 208.46,76.7 214.18,76.45 219.91,76.4 225.64,76.54 231.36,76.88 237.07,77.42 242.75,78.15 248.41,79.07 254.03,80.18 259.61,81.49 265.14,82.98 270.62,84.66 276.03,86.53 281.38,88.58 286.66,90.81 291.86,93.22 296.97,95.8 302,98.56 306.92,101.49 311.75,104.58 316.46,107.83 321.06,111.25 325.55,114.82 329.91,118.54 334.14,122.4 338.23,126.41 342.19,130.55 346,134.83 349.67,139.23 353.18,143.76 356.54,148.41 359.73,153.16 362.77,158.02 365.63,162.98 368.33,168.04 370.85,173.19 373.2,178.41 375.36,183.72 377.34,189.09 379.14,194.53 380.76,200.03 382.18,205.58 383.42,211.18 384.46,216.81 385.31,222.48 385.97,228.17 386.43,233.88 386.7,239.61 386.78,245.33 386.66,251.06 386.34,256.78 385.83,262.49 385.12,268.18 384.23,273.84 383.14,279.46 381.86,285.05 380.38,290.59 378.73,296.07 376.88,301.5 374.85,306.86 372.65,312.14 370.26,317.35 367.69,322.48 364.96,327.51 362.05,332.45 358.98,337.28 355.74,342.01 352.35,346.63 348.8,351.13 345.09,355.5 341.25,359.75 337.26,363.86 333.13,367.83 328.87,371.66 324.48,375.35 319.96,378.88 315.33,382.25 310.59,385.47 305.74,388.52 300.79,391.41 295.75,394.13 290.61,396.67 285.4,399.03 280.1,401.22 274.73,403.23 269.3,405.05 263.81,406.69 258.26,408.13 252.67,409.39 247.04,410.46 241.38,411.33 235.69,412.01 229.98,412.5 224.26,412.79 218.53,412.89 218.53,407.09 218.53,401.29 218.53,395.49 218.53,389.69 218.53,383.88 218.53,378.08 218.53,372.28 218.53,366.48 218.53,360.68 218.53,354.88 218.53,349.07 218.53,343.27 218.53,337.47 218.53,331.67 218.53,325.87 218.53,320.07 218.53,314.26 218.53,308.46 218.53,302.66 218.53,296.86 218.53,291.06 218.53,285.25 218.53,279.45 218.53,273.65 218.53,267.85 218.53,262.05 218.53,256.25 218.53,250.44 218.53,244.64 218.53,244.64" stroke="none" fill="rgb(0,191,196)" stroke-width="1.07" stroke-dasharray="none" stroke-opacity="0" fill-opacity="1"/>
                </g>
                <g id="geom_polygon.polygon.1321.1" class="polygon grob gDesc">
                  <polygon id="geom_polygon.polygon.1321.1.1" points="218.53,244.64 218.53,250.44 218.53,256.25 218.53,262.05 218.53,267.85 218.53,273.65 218.53,279.45 218.53,285.25 218.53,291.06 218.53,296.86 218.53,302.66 218.53,308.46 218.53,314.26 218.53,320.07 218.53,325.87 218.53,331.67 218.53,337.47 218.53,343.27 218.53,349.07 218.53,354.88 218.53,360.68 218.53,366.48 218.53,372.28 218.53,378.08 218.53,383.88 218.53,389.69 218.53,395.49 218.53,401.29 218.53,407.09 218.53,412.89 212.84,412.8 207.15,412.51 201.48,412.03 195.83,411.35 190.2,410.49 184.61,409.44 179.06,408.2 173.55,406.77 168.09,405.15 162.69,403.35 157.35,401.37 152.08,399.22 146.89,396.88 141.78,394.37 136.76,391.69 131.84,388.84 127.01,385.82 122.29,382.65 117.67,379.31 113.18,375.82 108.8,372.18 104.55,368.4 100.43,364.47 96.44,360.41 92.59,356.21 88.89,351.89 85.34,347.44 81.94,342.88 78.69,338.2 75.61,333.42 72.69,328.53 69.93,323.55 67.35,318.48 64.94,313.32 62.7,308.09 60.65,302.78 58.77,297.41 57.08,291.97 55.57,286.48 54.25,280.95 53.11,275.37 52.17,269.76 51.41,264.12 50.85,258.45 50.48,252.77 50.3,247.08 50.31,241.39 50.52,235.7 50.92,230.02 51.51,224.36 52.29,218.72 53.26,213.12 54.42,207.54 55.77,202.01 57.31,196.53 59.03,191.11 60.93,185.74 63.01,180.44 65.27,175.22 67.71,170.08 70.32,165.02 73.09,160.05 76.04,155.18 79.15,150.41 82.41,145.75 85.84,141.2 89.41,136.77 93.13,132.47 97,128.29 101.01,124.24 105.15,120.34 109.42,116.57 113.81,112.96 118.32,109.49 122.95,106.18 127.69,103.02 132.53,100.03 137.48,97.21 140.27,102.29 143.07,107.37 145.86,112.46 148.66,117.54 151.45,122.63 154.25,127.71 157.04,132.79 159.84,137.88 162.63,142.96 165.43,148.05 168.22,153.13 171.02,158.21 173.81,163.3 176.61,168.38 179.4,173.47 182.2,178.55 184.99,183.63 187.79,188.72 190.58,193.8 193.38,198.89 196.17,203.97 198.97,209.05 201.76,214.14 204.56,219.22 207.35,224.31 210.15,229.39 212.94,234.48 215.74,239.56 218.53,244.64 218.53,244.64" stroke="none" fill="rgb(248,118,109)" stroke-width="1.07" stroke-dasharray="none" stroke-opacity="0" fill-opacity="1"/>
                </g>
              </g>
              <g id="GRID.text.1324.1" class="text grob gDesc">
                <g id="GRID.text.1324.1.1" transform="translate(300.01, 223.72)" stroke-width="0.1">
                  <g id="GRID.text.1324.1.1.scale" transform="scale(1, -1)">
                    <text x="0" y="0" id="GRID.text.1324.1.1.text" text-anchor="middle" stroke="rgb(0,0,0)" font-size="11.04" font-family="Helvetica, Arial, FreeSans, Liberation Sans, Nimbus Sans L, sans-serif" fill="rgb(0,0,0)" stroke-opacity="1" fill-opacity="1" font-weight="normal" font-style="normal">
                      <tspan id="GRID.text.1324.1.1.tspan.1" dy="3.95" x="0">29</tspan>
                    </text>
                  </g>
                </g>
                <g id="GRID.text.1324.1.2" transform="translate(137.05, 265.56)" stroke-width="0.1">
                  <g id="GRID.text.1324.1.2.scale" transform="scale(1, -1)">
                    <text x="0" y="0" id="GRID.text.1324.1.2.text" text-anchor="middle" stroke="rgb(0,0,0)" font-size="11.04" font-family="Helvetica, Arial, FreeSans, Liberation Sans, Nimbus Sans L, sans-serif" fill="rgb(0,0,0)" stroke-opacity="1" fill-opacity="1" font-weight="normal" font-style="normal">
                      <tspan id="GRID.text.1324.1.2.tspan.1" dy="3.95" x="0">21</tspan>
                    </text>
                  </g>
                </g>
              </g>
              <g id="GRID.gTree.1325.1" class="gTree grob gDesc"/>
            </g>
          </g>
          <g id="layout::spacer.8-6-8-6.1" class="viewport"/>
          <g id="layout::spacer.8-4-8-4.1" class="viewport"/>
          <g id="layout::spacer.6-6-6-6.1" class="viewport"/>
          <g id="layout::spacer.6-4-6-4.1" class="viewport"/>
          <g id="layout::axis-t.6-5-6-5.1" class="viewport"/>
          <g id="layout::axis-l.7-4-7-4.1" class="viewport">
            <g id="layout::axis-l.7-4-7-4::GRID.VP.308.1" class="viewport">
              <g id="axis-l.7-4-7-4.1" class="forcedgrob gTableChild absoluteGrob gTree grob gDesc">
                <g id="layout::axis-l.7-4-7-4::GRID.VP.308::axis.1" class="viewport">
                  <g id="axis.1" class="forcedgrob gtable gTree grob gDesc">
                    <g id="layout::axis-l.7-4-7-4::GRID.VP.308::axis::axis.1-1-1-1.1" class="viewport"/>
                    <g id="layout::axis-l.7-4-7-4::GRID.VP.308::axis::axis.1-2-1-2.1" class="viewport"/>
                  </g>
                </g>
              </g>
            </g>
          </g>
          <g id="layout::axis-r.7-6-7-6.1" class="viewport"/>
          <g id="layout::axis-b.8-5-8-5.1" class="viewport">
            <g id="layout::axis-b.8-5-8-5::GRID.VP.307.1" class="viewport">
              <g id="axis-b.8-5-8-5.1" class="forcedgrob gTableChild absoluteGrob gTree grob gDesc">
                <g id="layout::axis-b.8-5-8-5::GRID.VP.307::axis.1" class="viewport">
                  <g id="axis.2" class="forcedgrob gtable gTree grob gDesc">
                    <g id="layout::axis-b.8-5-8-5::GRID.VP.307::axis::axis.1-1-1-1.1" class="viewport"/>
                    <g id="layout::axis-b.8-5-8-5::GRID.VP.307::axis::axis.2-1-2-1.1" class="viewport"/>
                  </g>
                </g>
              </g>
            </g>
          </g>
          <g id="layout::xlab-t.5-5-5-5.1" class="viewport"/>
          <g id="layout::xlab-b.9-5-9-5.1" class="viewport"/>
          <g id="layout::ylab-l.7-3-7-3.1" class="viewport"/>
          <g id="layout::ylab-r.7-7-7-7.1" class="viewport"/>
          <g id="layout::guide-box.7-9-7-9.1" class="viewport">
            <g id="layout::guide-box.7-9-7-9::GRID.VP.316.1" class="viewport">
              <g id="layout::guide-box.7-9-7-9::GRID.VP.316::guide-box.7-9-7-9.1" class="viewport">
                <g id="guide-box.7-9-7-9.1" class="forcedgrob gTableChild gtable gTree grob gDesc">
                  <g id="layout::guide-box.7-9-7-9::GRID.VP.316::guide-box.7-9-7-9::legend.box.background.2-4-4-2.1" class="viewport"/>
                  <g id="layout::guide-box.7-9-7-9::GRID.VP.316::guide-box.7-9-7-9::guides.3-3-3-3.1" class="viewport">
                    <g id="layout::guide-box.7-9-7-9::GRID.VP.316::guide-box.7-9-7-9::guides.3-3-3-3::GRID.VP.315.1" class="viewport">
                      <g id="layout::guide-box.7-9-7-9::GRID.VP.316::guide-box.7-9-7-9::guides.3-3-3-3::GRID.VP.315::guides.3-3-3-3.1" class="viewport">
                        <g id="guides.3-3-3-3.1" class="forcedgrob gTableChild gtable gTree grob gDesc">
                          <g id="layout::guide-box.7-9-7-9::GRID.VP.316::guide-box.7-9-7-9::guides.3-3-3-3::GRID.VP.315::guides.3-3-3-3::background.1-6-6-1.1" class="viewport">
                            <g id="background.1-6-6-1.1" class="forcedgrob gTableChild rect grob gDesc">
                              <rect id="background.1-6-6-1.1.1" x="439.8" y="219.14" width="58.72" height="51" transform="" stroke-width="1.07" stroke="none" fill="rgb(255,255,255)" stroke-dasharray="none" stroke-opacity="0" fill-opacity="1"/>
                            </g>
                          </g>
                          <g id="layout::guide-box.7-9-7-9::GRID.VP.316::guide-box.7-9-7-9::guides.3-3-3-3::GRID.VP.315::guides.3-3-3-3::title.2-5-2-2.1" class="viewport"/>
                          <g id="layout::guide-box.7-9-7-9::GRID.VP.316::guide-box.7-9-7-9::guides.3-3-3-3::GRID.VP.315::guides.3-3-3-3::key-3-1-bg.4-2-4-2.1" class="viewport"/>
                          <g id="layout::guide-box.7-9-7-9::GRID.VP.316::guide-box.7-9-7-9::guides.3-3-3-3::GRID.VP.315::guides.3-3-3-3::key-3-1-1.4-2-4-2.1" class="viewport">
                            <g id="key-3-1-1.4-2-4-2.1" class="forcedgrob gTableChild rect grob gDesc">
                              <rect id="key-3-1-1.4-2-4-2.1.1" x="445.99" y="242.61" width="15.86" height="15.86" transform="" stroke="none" fill="rgb(248,118,109)" stroke-dasharray="none" stroke-width="1.07" stroke-linejoin="miter" stroke-opacity="0" fill-opacity="1"/>
                            </g>
                          </g>
                          <g id="layout::guide-box.7-9-7-9::GRID.VP.316::guide-box.7-9-7-9::guides.3-3-3-3::GRID.VP.315::guides.3-3-3-3::key-4-1-bg.5-2-5-2.1" class="viewport"/>
                          <g id="layout::guide-box.7-9-7-9::GRID.VP.316::guide-box.7-9-7-9::guides.3-3-3-3::GRID.VP.315::guides.3-3-3-3::key-4-1-1.5-2-5-2.1" class="viewport">
                            <g id="key-4-1-1.5-2-5-2.1" class="forcedgrob gTableChild rect grob gDesc">
                              <rect id="key-4-1-1.5-2-5-2.1.1" x="445.99" y="225.33" width="15.86" height="15.86" transform="" stroke="none" fill="rgb(0,191,196)" stroke-dasharray="none" stroke-width="1.07" stroke-linejoin="miter" stroke-opacity="0" fill-opacity="1"/>
                            </g>
                          </g>
                          <g id="layout::guide-box.7-9-7-9::GRID.VP.316::guide-box.7-9-7-9::guides.3-3-3-3::GRID.VP.315::guides.3-3-3-3::label-3-3.4-4-4-4.1" class="viewport">
                            <g id="layout::guide-box.7-9-7-9::GRID.VP.316::guide-box.7-9-7-9::guides.3-3-3-3::GRID.VP.315::guides.3-3-3-3::label-3-3.4-4-4-4::GRID.VP.313.1" class="viewport">
                              <g id="label-3-3.4-4-4-4.1" class="forcedgrob gTableChild gTree grob gDesc">
                                <g id="layout::guide-box.7-9-7-9::GRID.VP.316::guide-box.7-9-7-9::guides.3-3-3-3::GRID.VP.315::guides.3-3-3-3::label-3-3.4-4-4-4::GRID.VP.313::GRID.VP.309.1" font-size="8.8" stroke="rgb(0,0,0)" font-family="Helvetica, Arial, FreeSans, Liberation Sans, Nimbus Sans L, sans-serif" stroke-opacity="1" font-weight="normal" font-style="normal" class="viewport">
                                  <g id="layout::guide-box.7-9-7-9::GRID.VP.316::guide-box.7-9-7-9::guides.3-3-3-3::GRID.VP.315::guides.3-3-3-3::label-3-3.4-4-4-4::GRID.VP.313::GRID.VP.309::GRID.VP.310.1" class="viewport">
                                    <g id="guide.label.titleGrob.1348.1" class="titleGrob gTree grob gDesc">
                                      <g id="GRID.text.1346.1" class="text grob gDesc">
                                        <g id="GRID.text.1346.1.1" transform="translate(468.04, 250.54)" stroke-width="0.1">
                                          <g id="GRID.text.1346.1.1.scale" transform="scale(1, -1)">
                                            <text x="0" y="0" id="GRID.text.1346.1.1.text" text-anchor="start" font-size="8.8" stroke="rgb(0,0,0)" font-family="Helvetica, Arial, FreeSans, Liberation Sans, Nimbus Sans L, sans-serif" fill="rgb(0,0,0)" stroke-opacity="1" fill-opacity="1" font-weight="normal" font-style="normal">
                                              <tspan id="GRID.text.1346.1.1.tspan.1" dy="3.23" x="0">N (21)</tspan>
                                            </text>
                                          </g>
                                        </g>
                                      </g>
                                    </g>
                                  </g>
                                </g>
                              </g>
                            </g>
                          </g>
                          <g id="layout::guide-box.7-9-7-9::GRID.VP.316::guide-box.7-9-7-9::guides.3-3-3-3::GRID.VP.315::guides.3-3-3-3::label-4-3.5-4-5-4.1" class="viewport">
                            <g id="layout::guide-box.7-9-7-9::GRID.VP.316::guide-box.7-9-7-9::guides.3-3-3-3::GRID.VP.315::guides.3-3-3-3::label-4-3.5-4-5-4::GRID.VP.314.1" class="viewport">
                              <g id="label-4-3.5-4-5-4.1" class="forcedgrob gTableChild gTree grob gDesc">
                                <g id="layout::guide-box.7-9-7-9::GRID.VP.316::guide-box.7-9-7-9::guides.3-3-3-3::GRID.VP.315::guides.3-3-3-3::label-4-3.5-4-5-4::GRID.VP.314::GRID.VP.311.1" font-size="8.8" stroke="rgb(0,0,0)" font-family="Helvetica, Arial, FreeSans, Liberation Sans, Nimbus Sans L, sans-serif" stroke-opacity="1" font-weight="normal" font-style="normal" class="viewport">
                                  <g id="layout::guide-box.7-9-7-9::GRID.VP.316::guide-box.7-9-7-9::guides.3-3-3-3::GRID.VP.315::guides.3-3-3-3::label-4-3.5-4-5-4::GRID.VP.314::GRID.VP.311::GRID.VP.312.1" class="viewport">
                                    <g id="guide.label.titleGrob.1351.1" class="titleGrob gTree grob gDesc">
                                      <g id="GRID.text.1349.1" class="text grob gDesc">
                                        <g id="GRID.text.1349.1.1" transform="translate(468.04, 233.26)" stroke-width="0.1">
                                          <g id="GRID.text.1349.1.1.scale" transform="scale(1, -1)">
                                            <text x="0" y="0" id="GRID.text.1349.1.1.text" text-anchor="start" font-size="8.8" stroke="rgb(0,0,0)" font-family="Helvetica, Arial, FreeSans, Liberation Sans, Nimbus Sans L, sans-serif" fill="rgb(0,0,0)" stroke-opacity="1" fill-opacity="1" font-weight="normal" font-style="normal">
                                              <tspan id="GRID.text.1349.1.1.tspan.1" dy="3.23" x="0">S (29)</tspan>
                                            </text>
                                          </g>
                                        </g>
                                      </g>
                                    </g>
                                  </g>
                                </g>
                              </g>
                            </g>
                          </g>
                        </g>
                      </g>
                    </g>
                  </g>
                </g>
              </g>
            </g>
          </g>
          <g id="layout::subtitle.4-5-4-5.1" class="viewport"/>
          <g id="layout::title.3-5-3-5.1" class="viewport">
            <g id="layout::title.3-5-3-5::GRID.VP.317.1" font-size="13.2" stroke="rgb(102,102,102)" font-family="Helvetica, Arial, FreeSans, Liberation Sans, Nimbus Sans L, sans-serif" stroke-opacity="1" font-weight="normal" font-style="normal" class="viewport">
              <g id="layout::title.3-5-3-5::GRID.VP.317::GRID.VP.318.1" class="viewport">
                <g id="title.3-5-3-5.1" class="forcedgrob gTableChild titleGrob gTree grob gDesc">
                  <g id="GRID.text.1360.1" class="text grob gDesc">
                    <g id="GRID.text.1360.1.1" transform="translate(218.53, 472.41)" stroke-width="0.1">
                      <g id="GRID.text.1360.1.1.scale" transform="scale(1, -1)">
                        <text x="0" y="0" id="GRID.text.1360.1.1.text" text-anchor="middle" font-size="13.2" stroke="rgb(102,102,102)" font-family="Helvetica, Arial, FreeSans, Liberation Sans, Nimbus Sans L, sans-serif" fill="rgb(102,102,102)" stroke-opacity="1" fill-opacity="1" font-weight="normal" font-style="normal">
                          <tspan id="GRID.text.1360.1.1.tspan.1" dy="9.33" x="0">anagrafica corsoit</tspan>
                        </text>
                      </g>
                    </g>
                  </g>
                </g>
              </g>
            </g>
          </g>
          <g id="layout::caption.10-5-10-5.1" class="viewport"/>
          <g id="layout::tag.2-2-2-2.1" class="viewport"/>
        </g>
      </g>
    </g>
  </g>
</svg>