<?xml version="1.0" encoding="UTF-8"?>
<svg xmlns="http://www.w3.org/2000/svg" xmlns:xlink="http://www.w3.org/1999/xlink" width="504px" height="504px" viewBox="0 0 504 504" version="1.1">
  <metadata xmlns:gridsvg="http://www.stat.auckland.ac.nz/~paul/R/gridSVG/">
    <gridsvg:generator name="gridSVG" version="1.6-0" time="2019-01-14 19:41:01"/>
    <gridsvg:argument name="name" value="./latest_informaggio_csv/anziani/risultati/svg/anagrafica-creazionecontenuti.svg"/>
    <gridsvg:argument name="exportCoords" value="none"/>
    <gridsvg:argument name="exportMappings" value="none"/>
    <gridsvg:argument name="exportJS" value="none"/>
    <gridsvg:argument name="res" value="72"/>
    <gridsvg:argument name="prefix" value=""/>
    <gridsvg:argument name="addClasses" value="TRUE"/>
    <gridsvg:argument name="indent" value="TRUE"/>
    <gridsvg:argument name="htmlWrapper" value="FALSE"/>
    <gridsvg:argument name="usePaths" value="vpPaths"/>
    <gridsvg:argument name="uniqueNames" value="TRUE"/>
    <gridsvg:separator name="id.sep" value="."/>
    <gridsvg:separator name="gPath.sep" value="::"/>
    <gridsvg:separator name="vpPath.sep" value="::"/>
  </metadata>
  <g transform="translate(0, 504) scale(1, -1)">
    <g id="gridSVG" fill="none" stroke="rgb(0,0,0)" stroke-dasharray="none" stroke-width="0.75" font-size="12" font-family="Helvetica, Arial, FreeSans, Liberation Sans, Nimbus Sans L, sans-serif" opacity="1" stroke-linecap="round" stroke-linejoin="round" stroke-miterlimit="10" stroke-opacity="1" fill-opacity="0" font-weight="normal" font-style="normal">
      <g id="layout.1" class="viewport">
        <g id="layout.2" class="forcedgrob gtable gTree grob gDesc">
          <defs>
            <clipPath id="layout::background.1-11-12-1.1.clipPath">
              <rect x="0" y="38.42" width="504" height="427.16" fill="none" stroke="none"/>
            </clipPath>
          </defs>
          <g id="layout::background.1-11-12-1.1" clip-path="url(#layout::background.1-11-12-1.1.clipPath)" class="viewport">
            <g id="background.1-11-12-1.1" class="forcedgrob gTableChild rect grob gDesc">
              <rect id="background.1-11-12-1.1.1" x="0" y="38.42" width="504" height="427.16" transform="" stroke-width="1.07" stroke="rgb(255,255,255)" fill="rgb(255,255,255)" stroke-dasharray="none" stroke-opacity="1" fill-opacity="1"/>
            </g>
          </g>
          <defs>
            <clipPath id="layout::panel.7-5-7-5.1.clipPath">
              <rect x="8.22" y="46.64" width="396.01" height="396.01" fill="none" stroke="none"/>
            </clipPath>
          </defs>
          <g id="layout::panel.7-5-7-5.1" clip-path="url(#layout::panel.7-5-7-5.1.clipPath)" class="viewport">
            <g id="panel.7-5-7-5.1" class="forcedgrob gTableChild gTree grob gDesc">
              <g id="grill.gTree.1498.1" class="gTree grob gDesc">
                <g id="panel.background..rect.1494.1" class="rect grob gDesc">
                  <rect id="panel.background..rect.1494.1.1" x="8.22" y="46.64" width="396.01" height="396.01" transform="" stroke-width="1.07" stroke="none" fill="rgb(255,255,255)" stroke-dasharray="none" stroke-opacity="0" fill-opacity="1"/>
                </g>
              </g>
              <g id="bar.gTree.1487.1" class="gTree grob gDesc">
                <g id="geom_polygon.polygon.1477.1" class="polygon grob gDesc">
                  <polygon id="geom_polygon.polygon.1477.1.1" points="206.22,244.64 205.51,239.23 204.8,233.81 204.08,228.4 203.37,222.98 202.66,217.57 201.94,212.15 201.23,206.74 200.52,201.32 199.81,195.9 199.09,190.49 198.38,185.07 197.67,179.66 196.95,174.24 196.24,168.83 195.53,163.41 194.82,158 194.1,152.58 193.39,147.17 192.68,141.75 191.96,136.33 191.25,130.92 190.54,125.5 189.82,120.09 189.11,114.67 188.4,109.26 187.69,103.84 186.97,98.43 186.26,93.01 185.55,87.6 190.91,86.98 196.29,86.55 201.69,86.31 207.09,86.24 212.48,86.36 217.88,86.67 223.25,87.16 228.61,87.83 233.94,88.68 239.24,89.72 244.5,90.94 249.72,92.33 254.88,93.9 259.99,95.65 265.04,97.57 270.02,99.66 274.92,101.91 279.75,104.34 284.49,106.93 289.14,109.67 293.69,112.58 298.14,115.63 302.48,118.84 306.71,122.2 310.83,125.69 314.82,129.33 318.69,133.09 322.42,136.99 326.03,141.02 329.49,145.16 332.81,149.42 335.98,153.79 339,158.26 341.87,162.84 344.58,167.51 347.12,172.27 349.51,177.11 351.73,182.04 353.78,187.03 355.65,192.09 357.36,197.22 358.89,202.4 360.24,207.62 361.41,212.89 362.4,218.2 363.21,223.54 363.84,228.9 364.29,234.28 364.55,239.68 364.62,245.08 364.52,250.47 364.23,255.87 363.75,261.24 363.1,266.6 362.26,271.94 361.24,277.24 360.03,282.5 358.65,287.72 357.1,292.89 355.37,298.01 353.46,303.06 351.38,308.04 349.14,312.95 346.73,317.79 344.15,322.53 341.42,327.19 338.53,331.75 335.48,336.21 332.29,340.56 328.94,344.8 325.46,348.92 321.84,352.93 318.08,356.8 314.19,360.55 310.18,364.16 306.04,367.64 301.79,370.97 297.43,374.15 292.97,377.18 288.4,380.06 283.73,382.79 278.98,385.35 274.14,387.75 269.23,389.98 264.24,392.04 259.18,393.93 254.06,395.65 248.89,397.19 243.66,398.56 238.4,399.74 233.09,400.75 227.75,401.58 222.39,402.22 217.01,402.68 211.62,402.95 206.22,403.05 206.22,397.58 206.22,392.12 206.22,386.66 206.22,381.2 206.22,375.74 206.22,370.27 206.22,364.81 206.22,359.35 206.22,353.89 206.22,348.42 206.22,342.96 206.22,337.5 206.22,332.04 206.22,326.58 206.22,321.11 206.22,315.65 206.22,310.19 206.22,304.73 206.22,299.26 206.22,293.8 206.22,288.34 206.22,282.88 206.22,277.42 206.22,271.95 206.22,266.49 206.22,261.03 206.22,255.57 206.22,250.11 206.22,244.64 206.22,244.64" stroke="none" fill="rgb(231,107,243)" stroke-width="1.07" stroke-dasharray="none" stroke-opacity="0" fill-opacity="1"/>
                </g>
                <g id="geom_polygon.polygon.1479.1" class="polygon grob gDesc">
                  <polygon id="geom_polygon.polygon.1479.1.1" points="206.22,244.64 201.89,247.97 197.56,251.29 193.22,254.62 188.89,257.94 184.56,261.27 180.22,264.59 175.89,267.92 171.56,271.24 167.22,274.57 162.89,277.89 158.56,281.22 154.22,284.55 149.89,287.87 145.55,291.2 141.22,294.52 136.89,297.85 132.55,301.17 128.22,304.5 123.89,307.82 119.55,311.15 115.22,314.47 110.89,317.8 106.55,321.12 102.22,324.45 97.89,327.77 93.55,331.1 89.22,334.42 84.89,337.75 80.55,341.07 77.32,336.7 74.23,332.22 71.3,327.64 68.53,322.96 65.93,318.19 63.49,313.33 61.21,308.39 59.11,303.37 57.18,298.29 55.43,293.14 53.85,287.93 52.45,282.68 51.24,277.38 50.21,272.04 49.36,266.67 48.69,261.27 48.22,255.85 47.93,250.42 47.82,244.98 47.9,239.55 48.17,234.11 48.62,228.69 49.27,223.29 50.09,217.92 51.1,212.57 52.29,207.27 53.67,202.01 55.22,196.79 56.95,191.64 58.86,186.55 60.94,181.52 63.19,176.57 65.61,171.7 68.2,166.92 70.95,162.23 73.86,157.63 76.92,153.14 80.14,148.75 83.51,144.48 87.02,140.33 90.67,136.3 94.46,132.4 98.37,128.62 102.42,124.99 106.59,121.5 110.88,118.15 115.27,114.95 119.78,111.91 124.39,109.02 129.09,106.29 133.89,103.72 138.77,101.32 143.73,99.09 148.76,97.03 153.86,95.15 159.02,93.44 164.24,91.9 169.51,90.55 174.82,89.38 180.17,88.4 185.55,87.6 186.26,93.01 186.97,98.43 187.69,103.84 188.4,109.26 189.11,114.67 189.82,120.09 190.54,125.5 191.25,130.92 191.96,136.33 192.68,141.75 193.39,147.17 194.1,152.58 194.82,158 195.53,163.41 196.24,168.83 196.95,174.24 197.67,179.66 198.38,185.07 199.09,190.49 199.81,195.9 200.52,201.32 201.23,206.74 201.94,212.15 202.66,217.57 203.37,222.98 204.08,228.4 204.8,233.81 205.51,239.23 206.22,244.64 206.22,244.64" stroke="none" fill="rgb(0,176,246)" stroke-width="1.07" stroke-dasharray="none" stroke-opacity="0" fill-opacity="1"/>
                </g>
                <g id="geom_polygon.polygon.1481.1" class="polygon grob gDesc">
                  <polygon id="geom_polygon.polygon.1481.1.1" points="206.22,244.64 203.49,249.37 200.76,254.1 198.03,258.83 195.3,263.56 192.57,268.3 189.84,273.03 187.11,277.76 184.37,282.49 181.64,287.22 178.91,291.95 176.18,296.68 173.45,301.41 170.72,306.14 167.99,310.87 165.26,315.6 162.53,320.33 159.79,325.06 157.06,329.79 154.33,334.52 151.6,339.25 148.87,343.98 146.14,348.71 143.41,353.44 140.68,358.17 137.95,362.9 135.21,367.63 132.48,372.36 129.75,377.09 127.02,381.82 122.18,378.91 117.44,375.82 112.81,372.57 108.3,369.16 103.92,365.58 99.67,361.85 95.56,357.98 91.58,353.95 87.75,349.79 84.08,345.5 80.55,341.07 84.89,337.75 89.22,334.42 93.55,331.1 97.89,327.77 102.22,324.45 106.55,321.12 110.89,317.8 115.22,314.47 119.55,311.15 123.89,307.82 128.22,304.5 132.55,301.17 136.89,297.85 141.22,294.52 145.55,291.2 149.89,287.87 154.22,284.55 158.56,281.22 162.89,277.89 167.22,274.57 171.56,271.24 175.89,267.92 180.22,264.59 184.56,261.27 188.89,257.94 193.22,254.62 197.56,251.29 201.89,247.97 206.22,244.64 206.22,244.64" stroke="none" fill="rgb(0,191,125)" stroke-width="1.07" stroke-dasharray="none" stroke-opacity="0" fill-opacity="1"/>
                </g>
                <g id="geom_polygon.polygon.1483.1" class="polygon grob gDesc">
                  <polygon id="geom_polygon.polygon.1483.1.1" points="206.22,244.64 204.81,249.92 203.4,255.2 201.98,260.47 200.57,265.75 199.15,271.02 197.74,276.3 196.33,281.58 194.91,286.85 193.5,292.13 192.09,297.4 190.67,302.68 189.26,307.96 187.84,313.23 186.43,318.51 185.02,323.78 183.6,329.06 182.19,334.34 180.78,339.61 179.36,344.89 177.95,350.16 176.53,355.44 175.12,360.72 173.71,365.99 172.29,371.27 170.88,376.54 169.47,381.82 168.05,387.1 166.64,392.37 165.23,397.65 159.53,396.01 153.91,394.16 148.35,392.1 142.88,389.83 137.49,387.36 132.21,384.69 127.02,381.82 129.75,377.09 132.48,372.36 135.21,367.63 137.95,362.9 140.68,358.17 143.41,353.44 146.14,348.71 148.87,343.98 151.6,339.25 154.33,334.52 157.06,329.79 159.79,325.06 162.53,320.33 165.26,315.6 167.99,310.87 170.72,306.14 173.45,301.41 176.18,296.68 178.91,291.95 181.64,287.22 184.37,282.49 187.11,277.76 189.84,273.03 192.57,268.3 195.3,263.56 198.03,258.83 200.76,254.1 203.49,249.37 206.22,244.64 206.22,244.64" stroke="none" fill="rgb(163,165,0)" stroke-width="1.07" stroke-dasharray="none" stroke-opacity="0" fill-opacity="1"/>
                </g>
                <g id="geom_polygon.polygon.1485.1" class="polygon grob gDesc">
                  <polygon id="geom_polygon.polygon.1485.1.1" points="206.22,244.64 206.22,250.11 206.22,255.57 206.22,261.03 206.22,266.49 206.22,271.95 206.22,277.42 206.22,282.88 206.22,288.34 206.22,293.8 206.22,299.26 206.22,304.73 206.22,310.19 206.22,315.65 206.22,321.11 206.22,326.58 206.22,332.04 206.22,337.5 206.22,342.96 206.22,348.42 206.22,353.89 206.22,359.35 206.22,364.81 206.22,370.27 206.22,375.74 206.22,381.2 206.22,386.66 206.22,392.12 206.22,397.58 206.22,403.05 200.3,402.94 194.39,402.6 188.49,402.05 182.61,401.28 176.77,400.28 170.97,399.07 165.23,397.65 166.64,392.37 168.05,387.1 169.47,381.82 170.88,376.54 172.29,371.27 173.71,365.99 175.12,360.72 176.53,355.44 177.95,350.16 179.36,344.89 180.78,339.61 182.19,334.34 183.6,329.06 185.02,323.78 186.43,318.51 187.84,313.23 189.26,307.96 190.67,302.68 192.09,297.4 193.5,292.13 194.91,286.85 196.33,281.58 197.74,276.3 199.15,271.02 200.57,265.75 201.98,260.47 203.4,255.2 204.81,249.92 206.22,244.64 206.22,244.64" stroke="none" fill="rgb(248,118,109)" stroke-width="1.07" stroke-dasharray="none" stroke-opacity="0" fill-opacity="1"/>
                </g>
              </g>
              <g id="GRID.text.1488.1" class="text grob gDesc">
                <g id="GRID.text.1488.1.1" transform="translate(285.25, 239.46)" stroke-width="0.1">
                  <g id="GRID.text.1488.1.1.scale" transform="scale(1, -1)">
                    <text x="0" y="0" id="GRID.text.1488.1.1.text" text-anchor="middle" stroke="rgb(0,0,0)" font-size="11.04" font-family="Helvetica, Arial, FreeSans, Liberation Sans, Nimbus Sans L, sans-serif" fill="rgb(0,0,0)" stroke-opacity="1" fill-opacity="1" font-weight="normal" font-style="normal">
                      <tspan id="GRID.text.1488.1.1.tspan.1" dy="3.95" x="0">25</tspan>
                    </text>
                  </g>
                </g>
                <g id="GRID.text.1488.1.2" transform="translate(133.05, 214.33)" stroke-width="0.1">
                  <g id="GRID.text.1488.1.2.scale" transform="scale(1, -1)">
                    <text x="0" y="0" id="GRID.text.1488.1.2.text" text-anchor="middle" stroke="rgb(0,0,0)" font-size="11.04" font-family="Helvetica, Arial, FreeSans, Liberation Sans, Nimbus Sans L, sans-serif" fill="rgb(0,0,0)" stroke-opacity="1" fill-opacity="1" font-weight="normal" font-style="normal">
                      <tspan id="GRID.text.1488.1.2.tspan.1" dy="3.95" x="0">16</tspan>
                    </text>
                  </g>
                </g>
                <g id="GRID.text.1488.1.3" transform="translate(154, 304.19)" stroke-width="0.1">
                  <g id="GRID.text.1488.1.3.scale" transform="scale(1, -1)">
                    <text x="0" y="0" id="GRID.text.1488.1.3.text" text-anchor="middle" stroke="rgb(0,0,0)" font-size="11.04" font-family="Helvetica, Arial, FreeSans, Liberation Sans, Nimbus Sans L, sans-serif" fill="rgb(0,0,0)" stroke-opacity="1" fill-opacity="1" font-weight="normal" font-style="normal">
                      <tspan id="GRID.text.1488.1.3.tspan.1" dy="3.95" x="0">3</tspan>
                    </text>
                  </g>
                </g>
                <g id="GRID.text.1488.1.4" transform="translate(175.91, 317.82)" stroke-width="0.1">
                  <g id="GRID.text.1488.1.4.scale" transform="scale(1, -1)">
                    <text x="0" y="0" id="GRID.text.1488.1.4.text" text-anchor="middle" stroke="rgb(0,0,0)" font-size="11.04" font-family="Helvetica, Arial, FreeSans, Liberation Sans, Nimbus Sans L, sans-serif" fill="rgb(0,0,0)" stroke-opacity="1" fill-opacity="1" font-weight="normal" font-style="normal">
                      <tspan id="GRID.text.1488.1.4.tspan.1" dy="3.95" x="0">2</tspan>
                    </text>
                  </g>
                </g>
                <g id="GRID.text.1488.1.5" transform="translate(195.88, 323.17)" stroke-width="0.1">
                  <g id="GRID.text.1488.1.5.scale" transform="scale(1, -1)">
                    <text x="0" y="0" id="GRID.text.1488.1.5.text" text-anchor="middle" stroke="rgb(0,0,0)" font-size="11.04" font-family="Helvetica, Arial, FreeSans, Liberation Sans, Nimbus Sans L, sans-serif" fill="rgb(0,0,0)" stroke-opacity="1" fill-opacity="1" font-weight="normal" font-style="normal">
                      <tspan id="GRID.text.1488.1.5.tspan.1" dy="3.95" x="0">2</tspan>
                    </text>
                  </g>
                </g>
              </g>
              <g id="GRID.gTree.1489.1" class="gTree grob gDesc"/>
            </g>
          </g>
          <g id="layout::spacer.8-6-8-6.1" class="viewport"/>
          <g id="layout::spacer.8-4-8-4.1" class="viewport"/>
          <g id="layout::spacer.6-6-6-6.1" class="viewport"/>
          <g id="layout::spacer.6-4-6-4.1" class="viewport"/>
          <g id="layout::axis-t.6-5-6-5.1" class="viewport"/>
          <g id="layout::axis-l.7-4-7-4.1" class="viewport">
            <g id="layout::axis-l.7-4-7-4::GRID.VP.347.1" class="viewport">
              <g id="axis-l.7-4-7-4.1" class="forcedgrob gTableChild absoluteGrob gTree grob gDesc">
                <g id="layout::axis-l.7-4-7-4::GRID.VP.347::axis.1" class="viewport">
                  <g id="axis.1" class="forcedgrob gtable gTree grob gDesc">
                    <g id="layout::axis-l.7-4-7-4::GRID.VP.347::axis::axis.1-1-1-1.1" class="viewport"/>
                    <g id="layout::axis-l.7-4-7-4::GRID.VP.347::axis::axis.1-2-1-2.1" class="viewport"/>
                  </g>
                </g>
              </g>
            </g>
          </g>
          <g id="layout::axis-r.7-6-7-6.1" class="viewport"/>
          <g id="layout::axis-b.8-5-8-5.1" class="viewport">
            <g id="layout::axis-b.8-5-8-5::GRID.VP.346.1" class="viewport">
              <g id="axis-b.8-5-8-5.1" class="forcedgrob gTableChild absoluteGrob gTree grob gDesc">
                <g id="layout::axis-b.8-5-8-5::GRID.VP.346::axis.1" class="viewport">
                  <g id="axis.2" class="forcedgrob gtable gTree grob gDesc">
                    <g id="layout::axis-b.8-5-8-5::GRID.VP.346::axis::axis.1-1-1-1.1" class="viewport"/>
                    <g id="layout::axis-b.8-5-8-5::GRID.VP.346::axis::axis.2-1-2-1.1" class="viewport"/>
                  </g>
                </g>
              </g>
            </g>
          </g>
          <g id="layout::xlab-t.5-5-5-5.1" class="viewport"/>
          <g id="layout::xlab-b.9-5-9-5.1" class="viewport"/>
          <g id="layout::ylab-l.7-3-7-3.1" class="viewport"/>
          <g id="layout::ylab-r.7-7-7-7.1" class="viewport"/>
          <g id="layout::guide-box.7-9-7-9.1" class="viewport">
            <g id="layout::guide-box.7-9-7-9::GRID.VP.364.1" class="viewport">
              <g id="layout::guide-box.7-9-7-9::GRID.VP.364::guide-box.7-9-7-9.1" class="viewport">
                <g id="guide-box.7-9-7-9.1" class="forcedgrob gTableChild gtable gTree grob gDesc">
                  <g id="layout::guide-box.7-9-7-9::GRID.VP.364::guide-box.7-9-7-9::legend.box.background.2-4-4-2.1" class="viewport"/>
                  <g id="layout::guide-box.7-9-7-9::GRID.VP.364::guide-box.7-9-7-9::guides.3-3-3-3.1" class="viewport">
                    <g id="layout::guide-box.7-9-7-9::GRID.VP.364::guide-box.7-9-7-9::guides.3-3-3-3::GRID.VP.363.1" class="viewport">
                      <g id="layout::guide-box.7-9-7-9::GRID.VP.364::guide-box.7-9-7-9::guides.3-3-3-3::GRID.VP.363::guides.3-3-3-3.1" class="viewport">
                        <g id="guides.3-3-3-3.1" class="forcedgrob gTableChild gtable gTree grob gDesc">
                          <g id="layout::guide-box.7-9-7-9::GRID.VP.364::guide-box.7-9-7-9::guides.3-3-3-3::GRID.VP.363::guides.3-3-3-3::background.1-6-9-1.1" class="viewport">
                            <g id="background.1-6-9-1.1" class="forcedgrob gTableChild rect grob gDesc">
                              <rect id="background.1-6-9-1.1.1" x="415.19" y="193.22" width="83.34" height="102.84" transform="" stroke-width="1.07" stroke="none" fill="rgb(255,255,255)" stroke-dasharray="none" stroke-opacity="0" fill-opacity="1"/>
                            </g>
                          </g>
                          <g id="layout::guide-box.7-9-7-9::GRID.VP.364::guide-box.7-9-7-9::guides.3-3-3-3::GRID.VP.363::guides.3-3-3-3::title.2-5-2-2.1" class="viewport"/>
                          <g id="layout::guide-box.7-9-7-9::GRID.VP.364::guide-box.7-9-7-9::guides.3-3-3-3::GRID.VP.363::guides.3-3-3-3::key-3-1-bg.4-2-4-2.1" class="viewport"/>
                          <g id="layout::guide-box.7-9-7-9::GRID.VP.364::guide-box.7-9-7-9::guides.3-3-3-3::GRID.VP.363::guides.3-3-3-3::key-3-1-1.4-2-4-2.1" class="viewport">
                            <g id="key-3-1-1.4-2-4-2.1" class="forcedgrob gTableChild rect grob gDesc">
                              <rect id="key-3-1-1.4-2-4-2.1.1" x="421.37" y="268.53" width="15.86" height="15.86" transform="" stroke="none" fill="rgb(248,118,109)" stroke-dasharray="none" stroke-width="1.07" stroke-linejoin="miter" stroke-opacity="0" fill-opacity="1"/>
                            </g>
                          </g>
                          <g id="layout::guide-box.7-9-7-9::GRID.VP.364::guide-box.7-9-7-9::guides.3-3-3-3::GRID.VP.363::guides.3-3-3-3::key-4-1-bg.5-2-5-2.1" class="viewport"/>
                          <g id="layout::guide-box.7-9-7-9::GRID.VP.364::guide-box.7-9-7-9::guides.3-3-3-3::GRID.VP.363::guides.3-3-3-3::key-4-1-1.5-2-5-2.1" class="viewport">
                            <g id="key-4-1-1.5-2-5-2.1" class="forcedgrob gTableChild rect grob gDesc">
                              <rect id="key-4-1-1.5-2-5-2.1.1" x="421.37" y="251.25" width="15.86" height="15.86" transform="" stroke="none" fill="rgb(163,165,0)" stroke-dasharray="none" stroke-width="1.07" stroke-linejoin="miter" stroke-opacity="0" fill-opacity="1"/>
                            </g>
                          </g>
                          <g id="layout::guide-box.7-9-7-9::GRID.VP.364::guide-box.7-9-7-9::guides.3-3-3-3::GRID.VP.363::guides.3-3-3-3::key-5-1-bg.6-2-6-2.1" class="viewport"/>
                          <g id="layout::guide-box.7-9-7-9::GRID.VP.364::guide-box.7-9-7-9::guides.3-3-3-3::GRID.VP.363::guides.3-3-3-3::key-5-1-1.6-2-6-2.1" class="viewport">
                            <g id="key-5-1-1.6-2-6-2.1" class="forcedgrob gTableChild rect grob gDesc">
                              <rect id="key-5-1-1.6-2-6-2.1.1" x="421.37" y="233.97" width="15.86" height="15.86" transform="" stroke="none" fill="rgb(0,191,125)" stroke-dasharray="none" stroke-width="1.07" stroke-linejoin="miter" stroke-opacity="0" fill-opacity="1"/>
                            </g>
                          </g>
                          <g id="layout::guide-box.7-9-7-9::GRID.VP.364::guide-box.7-9-7-9::guides.3-3-3-3::GRID.VP.363::guides.3-3-3-3::key-6-1-bg.7-2-7-2.1" class="viewport"/>
                          <g id="layout::guide-box.7-9-7-9::GRID.VP.364::guide-box.7-9-7-9::guides.3-3-3-3::GRID.VP.363::guides.3-3-3-3::key-6-1-1.7-2-7-2.1" class="viewport">
                            <g id="key-6-1-1.7-2-7-2.1" class="forcedgrob gTableChild rect grob gDesc">
                              <rect id="key-6-1-1.7-2-7-2.1.1" x="421.37" y="216.69" width="15.86" height="15.86" transform="" stroke="none" fill="rgb(0,176,246)" stroke-dasharray="none" stroke-width="1.07" stroke-linejoin="miter" stroke-opacity="0" fill-opacity="1"/>
                            </g>
                          </g>
                          <g id="layout::guide-box.7-9-7-9::GRID.VP.364::guide-box.7-9-7-9::guides.3-3-3-3::GRID.VP.363::guides.3-3-3-3::key-7-1-bg.8-2-8-2.1" class="viewport"/>
                          <g id="layout::guide-box.7-9-7-9::GRID.VP.364::guide-box.7-9-7-9::guides.3-3-3-3::GRID.VP.363::guides.3-3-3-3::key-7-1-1.8-2-8-2.1" class="viewport">
                            <g id="key-7-1-1.8-2-8-2.1" class="forcedgrob gTableChild rect grob gDesc">
                              <rect id="key-7-1-1.8-2-8-2.1.1" x="421.37" y="199.41" width="15.86" height="15.86" transform="" stroke="none" fill="rgb(231,107,243)" stroke-dasharray="none" stroke-width="1.07" stroke-linejoin="miter" stroke-opacity="0" fill-opacity="1"/>
                            </g>
                          </g>
                          <g id="layout::guide-box.7-9-7-9::GRID.VP.364::guide-box.7-9-7-9::guides.3-3-3-3::GRID.VP.363::guides.3-3-3-3::label-3-3.4-4-4-4.1" class="viewport">
                            <g id="layout::guide-box.7-9-7-9::GRID.VP.364::guide-box.7-9-7-9::guides.3-3-3-3::GRID.VP.363::guides.3-3-3-3::label-3-3.4-4-4-4::GRID.VP.358.1" class="viewport">
                              <g id="label-3-3.4-4-4-4.1" class="forcedgrob gTableChild gTree grob gDesc">
                                <g id="layout::guide-box.7-9-7-9::GRID.VP.364::guide-box.7-9-7-9::guides.3-3-3-3::GRID.VP.363::guides.3-3-3-3::label-3-3.4-4-4-4::GRID.VP.358::GRID.VP.348.1" font-size="8.8" stroke="rgb(0,0,0)" font-family="Helvetica, Arial, FreeSans, Liberation Sans, Nimbus Sans L, sans-serif" stroke-opacity="1" font-weight="normal" font-style="normal" class="viewport">
                                  <g id="layout::guide-box.7-9-7-9::GRID.VP.364::guide-box.7-9-7-9::guides.3-3-3-3::GRID.VP.363::guides.3-3-3-3::label-3-3.4-4-4-4::GRID.VP.358::GRID.VP.348::GRID.VP.349.1" class="viewport">
                                    <g id="guide.label.titleGrob.1512.1" class="titleGrob gTree grob gDesc">
                                      <g id="GRID.text.1510.1" class="text grob gDesc">
                                        <g id="GRID.text.1510.1.1" transform="translate(443.42, 276.46)" stroke-width="0.1">
                                          <g id="GRID.text.1510.1.1.scale" transform="scale(1, -1)">
                                            <text x="0" y="0" id="GRID.text.1510.1.1.text" text-anchor="start" font-size="8.8" stroke="rgb(0,0,0)" font-family="Helvetica, Arial, FreeSans, Liberation Sans, Nimbus Sans L, sans-serif" fill="rgb(0,0,0)" stroke-opacity="1" fill-opacity="1" font-weight="normal" font-style="normal">
                                              <tspan id="GRID.text.1510.1.1.tspan.1" dy="3.23" x="0">nessuno (2)</tspan>
                                            </text>
                                          </g>
                                        </g>
                                      </g>
                                    </g>
                                  </g>
                                </g>
                              </g>
                            </g>
                          </g>
                          <g id="layout::guide-box.7-9-7-9::GRID.VP.364::guide-box.7-9-7-9::guides.3-3-3-3::GRID.VP.363::guides.3-3-3-3::label-4-3.5-4-5-4.1" class="viewport">
                            <g id="layout::guide-box.7-9-7-9::GRID.VP.364::guide-box.7-9-7-9::guides.3-3-3-3::GRID.VP.363::guides.3-3-3-3::label-4-3.5-4-5-4::GRID.VP.359.1" class="viewport">
                              <g id="label-4-3.5-4-5-4.1" class="forcedgrob gTableChild gTree grob gDesc">
                                <g id="layout::guide-box.7-9-7-9::GRID.VP.364::guide-box.7-9-7-9::guides.3-3-3-3::GRID.VP.363::guides.3-3-3-3::label-4-3.5-4-5-4::GRID.VP.359::GRID.VP.350.1" font-size="8.8" stroke="rgb(0,0,0)" font-family="Helvetica, Arial, FreeSans, Liberation Sans, Nimbus Sans L, sans-serif" stroke-opacity="1" font-weight="normal" font-style="normal" class="viewport">
                                  <g id="layout::guide-box.7-9-7-9::GRID.VP.364::guide-box.7-9-7-9::guides.3-3-3-3::GRID.VP.363::guides.3-3-3-3::label-4-3.5-4-5-4::GRID.VP.359::GRID.VP.350::GRID.VP.351.1" class="viewport">
                                    <g id="guide.label.titleGrob.1515.1" class="titleGrob gTree grob gDesc">
                                      <g id="GRID.text.1513.1" class="text grob gDesc">
                                        <g id="GRID.text.1513.1.1" transform="translate(443.42, 259.18)" stroke-width="0.1">
                                          <g id="GRID.text.1513.1.1.scale" transform="scale(1, -1)">
                                            <text x="0" y="0" id="GRID.text.1513.1.1.text" text-anchor="start" font-size="8.8" stroke="rgb(0,0,0)" font-family="Helvetica, Arial, FreeSans, Liberation Sans, Nimbus Sans L, sans-serif" fill="rgb(0,0,0)" stroke-opacity="1" fill-opacity="1" font-weight="normal" font-style="normal">
                                              <tspan id="GRID.text.1513.1.1.tspan.1" dy="3.23" x="0">avanzato (2)</tspan>
                                            </text>
                                          </g>
                                        </g>
                                      </g>
                                    </g>
                                  </g>
                                </g>
                              </g>
                            </g>
                          </g>
                          <g id="layout::guide-box.7-9-7-9::GRID.VP.364::guide-box.7-9-7-9::guides.3-3-3-3::GRID.VP.363::guides.3-3-3-3::label-5-3.6-4-6-4.1" class="viewport">
                            <g id="layout::guide-box.7-9-7-9::GRID.VP.364::guide-box.7-9-7-9::guides.3-3-3-3::GRID.VP.363::guides.3-3-3-3::label-5-3.6-4-6-4::GRID.VP.360.1" class="viewport">
                              <g id="label-5-3.6-4-6-4.1" class="forcedgrob gTableChild gTree grob gDesc">
                                <g id="layout::guide-box.7-9-7-9::GRID.VP.364::guide-box.7-9-7-9::guides.3-3-3-3::GRID.VP.363::guides.3-3-3-3::label-5-3.6-4-6-4::GRID.VP.360::GRID.VP.352.1" font-size="8.8" stroke="rgb(0,0,0)" font-family="Helvetica, Arial, FreeSans, Liberation Sans, Nimbus Sans L, sans-serif" stroke-opacity="1" font-weight="normal" font-style="normal" class="viewport">
                                  <g id="layout::guide-box.7-9-7-9::GRID.VP.364::guide-box.7-9-7-9::guides.3-3-3-3::GRID.VP.363::guides.3-3-3-3::label-5-3.6-4-6-4::GRID.VP.360::GRID.VP.352::GRID.VP.353.1" class="viewport">
                                    <g id="guide.label.titleGrob.1518.1" class="titleGrob gTree grob gDesc">
                                      <g id="GRID.text.1516.1" class="text grob gDesc">
                                        <g id="GRID.text.1516.1.1" transform="translate(443.42, 241.9)" stroke-width="0.1">
                                          <g id="GRID.text.1516.1.1.scale" transform="scale(1, -1)">
                                            <text x="0" y="0" id="GRID.text.1516.1.1.text" text-anchor="start" font-size="8.8" stroke="rgb(0,0,0)" font-family="Helvetica, Arial, FreeSans, Liberation Sans, Nimbus Sans L, sans-serif" fill="rgb(0,0,0)" stroke-opacity="1" fill-opacity="1" font-weight="normal" font-style="normal">
                                              <tspan id="GRID.text.1516.1.1.tspan.1" dy="3.23" x="0">tutto (3)</tspan>
                                            </text>
                                          </g>
                                        </g>
                                      </g>
                                    </g>
                                  </g>
                                </g>
                              </g>
                            </g>
                          </g>
                          <g id="layout::guide-box.7-9-7-9::GRID.VP.364::guide-box.7-9-7-9::guides.3-3-3-3::GRID.VP.363::guides.3-3-3-3::label-6-3.7-4-7-4.1" class="viewport">
                            <g id="layout::guide-box.7-9-7-9::GRID.VP.364::guide-box.7-9-7-9::guides.3-3-3-3::GRID.VP.363::guides.3-3-3-3::label-6-3.7-4-7-4::GRID.VP.361.1" class="viewport">
                              <g id="label-6-3.7-4-7-4.1" class="forcedgrob gTableChild gTree grob gDesc">
                                <g id="layout::guide-box.7-9-7-9::GRID.VP.364::guide-box.7-9-7-9::guides.3-3-3-3::GRID.VP.363::guides.3-3-3-3::label-6-3.7-4-7-4::GRID.VP.361::GRID.VP.354.1" font-size="8.8" stroke="rgb(0,0,0)" font-family="Helvetica, Arial, FreeSans, Liberation Sans, Nimbus Sans L, sans-serif" stroke-opacity="1" font-weight="normal" font-style="normal" class="viewport">
                                  <g id="layout::guide-box.7-9-7-9::GRID.VP.364::guide-box.7-9-7-9::guides.3-3-3-3::GRID.VP.363::guides.3-3-3-3::label-6-3.7-4-7-4::GRID.VP.361::GRID.VP.354::GRID.VP.355.1" class="viewport">
                                    <g id="guide.label.titleGrob.1521.1" class="titleGrob gTree grob gDesc">
                                      <g id="GRID.text.1519.1" class="text grob gDesc">
                                        <g id="GRID.text.1519.1.1" transform="translate(443.42, 224.62)" stroke-width="0.1">
                                          <g id="GRID.text.1519.1.1.scale" transform="scale(1, -1)">
                                            <text x="0" y="0" id="GRID.text.1519.1.1.text" text-anchor="start" font-size="8.8" stroke="rgb(0,0,0)" font-family="Helvetica, Arial, FreeSans, Liberation Sans, Nimbus Sans L, sans-serif" fill="rgb(0,0,0)" stroke-opacity="1" fill-opacity="1" font-weight="normal" font-style="normal">
                                              <tspan id="GRID.text.1519.1.1.tspan.1" dy="3.23" x="0">base (16)</tspan>
                                            </text>
                                          </g>
                                        </g>
                                      </g>
                                    </g>
                                  </g>
                                </g>
                              </g>
                            </g>
                          </g>
                          <g id="layout::guide-box.7-9-7-9::GRID.VP.364::guide-box.7-9-7-9::guides.3-3-3-3::GRID.VP.363::guides.3-3-3-3::label-7-3.8-4-8-4.1" class="viewport">
                            <g id="layout::guide-box.7-9-7-9::GRID.VP.364::guide-box.7-9-7-9::guides.3-3-3-3::GRID.VP.363::guides.3-3-3-3::label-7-3.8-4-8-4::GRID.VP.362.1" class="viewport">
                              <g id="label-7-3.8-4-8-4.1" class="forcedgrob gTableChild gTree grob gDesc">
                                <g id="layout::guide-box.7-9-7-9::GRID.VP.364::guide-box.7-9-7-9::guides.3-3-3-3::GRID.VP.363::guides.3-3-3-3::label-7-3.8-4-8-4::GRID.VP.362::GRID.VP.356.1" font-size="8.8" stroke="rgb(0,0,0)" font-family="Helvetica, Arial, FreeSans, Liberation Sans, Nimbus Sans L, sans-serif" stroke-opacity="1" font-weight="normal" font-style="normal" class="viewport">
                                  <g id="layout::guide-box.7-9-7-9::GRID.VP.364::guide-box.7-9-7-9::guides.3-3-3-3::GRID.VP.363::guides.3-3-3-3::label-7-3.8-4-8-4::GRID.VP.362::GRID.VP.356::GRID.VP.357.1" class="viewport">
                                    <g id="guide.label.titleGrob.1524.1" class="titleGrob gTree grob gDesc">
                                      <g id="GRID.text.1522.1" class="text grob gDesc">
                                        <g id="GRID.text.1522.1.1" transform="translate(443.42, 207.34)" stroke-width="0.1">
                                          <g id="GRID.text.1522.1.1.scale" transform="scale(1, -1)">
                                            <text x="0" y="0" id="GRID.text.1522.1.1.text" text-anchor="start" font-size="8.8" stroke="rgb(0,0,0)" font-family="Helvetica, Arial, FreeSans, Liberation Sans, Nimbus Sans L, sans-serif" fill="rgb(0,0,0)" stroke-opacity="1" fill-opacity="1" font-weight="normal" font-style="normal">
                                              <tspan id="GRID.text.1522.1.1.tspan.1" dy="3.23" x="0">medio (25)</tspan>
                                            </text>
                                          </g>
                                        </g>
                                      </g>
                                    </g>
                                  </g>
                                </g>
                              </g>
                            </g>
                          </g>
                        </g>
                      </g>
                    </g>
                  </g>
                </g>
              </g>
            </g>
          </g>
          <g id="layout::subtitle.4-5-4-5.1" class="viewport"/>
          <g id="layout::title.3-5-3-5.1" class="viewport">
            <g id="layout::title.3-5-3-5::GRID.VP.365.1" font-size="13.2" stroke="rgb(102,102,102)" font-family="Helvetica, Arial, FreeSans, Liberation Sans, Nimbus Sans L, sans-serif" stroke-opacity="1" font-weight="normal" font-style="normal" class="viewport">
              <g id="layout::title.3-5-3-5::GRID.VP.365::GRID.VP.366.1" class="viewport">
                <g id="title.3-5-3-5.1" class="forcedgrob gTableChild titleGrob gTree grob gDesc">
                  <g id="GRID.text.1542.1" class="text grob gDesc">
                    <g id="GRID.text.1542.1.1" transform="translate(206.22, 460.1)" stroke-width="0.1">
                      <g id="GRID.text.1542.1.1.scale" transform="scale(1, -1)">
                        <text x="0" y="0" id="GRID.text.1542.1.1.text" text-anchor="middle" font-size="13.2" stroke="rgb(102,102,102)" font-family="Helvetica, Arial, FreeSans, Liberation Sans, Nimbus Sans L, sans-serif" fill="rgb(102,102,102)" stroke-opacity="1" fill-opacity="1" font-weight="normal" font-style="normal">
                          <tspan id="GRID.text.1542.1.1.tspan.1" dy="9.33" x="0">anagrafica creazionecontenuti</tspan>
                        </text>
                      </g>
                    </g>
                  </g>
                </g>
              </g>
            </g>
          </g>
          <g id="layout::caption.10-5-10-5.1" class="viewport"/>
          <g id="layout::tag.2-2-2-2.1" class="viewport"/>
        </g>
      </g>
    </g>
  </g>
</svg>