<?xml version="1.0" encoding="UTF-8"?>
<svg xmlns="http://www.w3.org/2000/svg" xmlns:xlink="http://www.w3.org/1999/xlink" width="504px" height="504px" viewBox="0 0 504 504" version="1.1">
  <metadata xmlns:gridsvg="http://www.stat.auckland.ac.nz/~paul/R/gridSVG/">
    <gridsvg:generator name="gridSVG" version="1.6-0" time="2019-01-18 19:06:56"/>
    <gridsvg:argument name="name" value="./latest_informaggio_csv/anziani/risultati/svg/anagrafica-competenza.svg"/>
    <gridsvg:argument name="exportCoords" value="none"/>
    <gridsvg:argument name="exportMappings" value="none"/>
    <gridsvg:argument name="exportJS" value="none"/>
    <gridsvg:argument name="res" value="72"/>
    <gridsvg:argument name="prefix" value=""/>
    <gridsvg:argument name="addClasses" value="TRUE"/>
    <gridsvg:argument name="indent" value="TRUE"/>
    <gridsvg:argument name="htmlWrapper" value="FALSE"/>
    <gridsvg:argument name="usePaths" value="vpPaths"/>
    <gridsvg:argument name="uniqueNames" value="TRUE"/>
    <gridsvg:separator name="id.sep" value="."/>
    <gridsvg:separator name="gPath.sep" value="::"/>
    <gridsvg:separator name="vpPath.sep" value="::"/>
  </metadata>
  <g transform="translate(0, 504) scale(1, -1)">
    <g id="gridSVG" fill="none" stroke="rgb(0,0,0)" stroke-dasharray="none" stroke-width="0.75" font-size="12" font-family="Helvetica, Arial, FreeSans, Liberation Sans, Nimbus Sans L, sans-serif" opacity="1" stroke-linecap="round" stroke-linejoin="round" stroke-miterlimit="10" stroke-opacity="1" fill-opacity="0" font-weight="normal" font-style="normal">
      <g id="layout.1" class="viewport">
        <g id="layout.2" class="forcedgrob gtable gTree grob gDesc">
          <defs>
            <clipPath id="layout::background.1-11-12-1.1.clipPath">
              <rect x="0" y="43.12" width="504" height="417.75" fill="none" stroke="none"/>
            </clipPath>
          </defs>
          <g id="layout::background.1-11-12-1.1" clip-path="url(#layout::background.1-11-12-1.1.clipPath)" class="viewport">
            <g id="background.1-11-12-1.1" class="forcedgrob gTableChild rect grob gDesc">
              <rect id="background.1-11-12-1.1.1" x="0" y="43.12" width="504" height="417.75" transform="" stroke-width="1.07" stroke="rgb(255,255,255)" fill="rgb(255,255,255)" stroke-dasharray="none" stroke-opacity="1" fill-opacity="1"/>
            </g>
          </g>
          <defs>
            <clipPath id="layout::panel.7-5-7-5.1.clipPath">
              <rect x="8.22" y="51.34" width="386.6" height="386.6" fill="none" stroke="none"/>
            </clipPath>
          </defs>
          <g id="layout::panel.7-5-7-5.1" clip-path="url(#layout::panel.7-5-7-5.1.clipPath)" class="viewport">
            <g id="panel.7-5-7-5.1" class="forcedgrob gTableChild gTree grob gDesc">
              <g id="grill.gTree.1106.1" class="gTree grob gDesc">
                <g id="panel.background..rect.1102.1" class="rect grob gDesc">
                  <rect id="panel.background..rect.1102.1.1" x="8.22" y="51.34" width="386.6" height="386.6" transform="" stroke-width="1.07" stroke="none" fill="rgb(255,255,255)" stroke-dasharray="none" stroke-opacity="0" fill-opacity="1"/>
                </g>
              </g>
              <g id="bar.gTree.1095.1" class="gTree grob gDesc">
                <g id="geom_polygon.polygon.1087.1" class="polygon grob gDesc">
                  <polygon id="geom_polygon.polygon.1087.1.1" points="201.52,244.64 200.19,239.48 198.87,234.31 197.54,229.15 196.22,223.98 194.89,218.82 193.56,213.65 192.24,208.49 190.91,203.32 189.59,198.16 188.26,192.99 186.93,187.83 185.61,182.66 184.28,177.5 182.95,172.33 181.63,167.17 180.3,162 178.98,156.84 177.65,151.67 176.32,146.51 175,141.34 173.67,136.18 172.35,131.02 171.02,125.85 169.69,120.69 168.37,115.52 167.04,110.36 165.71,105.19 164.39,100.03 163.06,94.86 168.17,93.64 173.31,92.6 178.48,91.73 183.68,91.03 188.9,90.52 194.14,90.18 199.38,90.02 204.63,90.03 209.87,90.23 215.11,90.6 220.32,91.15 225.52,91.88 230.69,92.78 235.82,93.85 240.92,95.11 245.97,96.53 250.97,98.12 255.91,99.88 260.79,101.81 265.6,103.9 270.34,106.16 275,108.57 279.57,111.14 284.05,113.87 288.44,116.74 292.73,119.76 296.91,122.93 300.99,126.24 304.95,129.68 308.79,133.25 312.5,136.96 316.09,140.78 319.55,144.73 322.87,148.79 326.05,152.96 329.09,157.24 331.98,161.62 334.72,166.09 337.31,170.66 339.74,175.3 342.02,180.03 344.13,184.84 346.07,189.71 347.86,194.64 349.47,199.64 350.91,204.68 352.18,209.77 353.27,214.9 354.2,220.07 354.94,225.26 355.51,230.48 355.9,235.71 356.12,240.95 356.15,246.2 356.01,251.44 355.69,256.68 355.19,261.9 354.52,267.11 353.67,272.28 352.65,277.43 351.45,282.54 350.07,287.6 348.53,292.61 346.82,297.57 344.94,302.47 342.9,307.3 340.69,312.06 338.32,316.75 335.8,321.35 333.12,325.86 330.29,330.27 327.31,334.59 324.19,338.81 320.92,342.92 317.52,346.91 313.98,350.79 310.32,354.54 306.53,358.17 302.61,361.66 298.59,365.03 294.45,368.25 290.2,371.33 285.85,374.27 281.41,377.05 276.87,379.69 272.24,382.16 267.54,384.48 262.76,386.64 257.9,388.64 252.99,390.47 248.01,392.13 242.98,393.62 237.9,394.94 232.78,396.09 227.63,397.06 222.44,397.86 217.23,398.48 212.01,398.93 206.77,399.19 201.52,399.28 201.52,393.95 201.52,388.62 201.52,383.29 201.52,377.95 201.52,372.62 201.52,367.29 201.52,361.96 201.52,356.62 201.52,351.29 201.52,345.96 201.52,340.63 201.52,335.29 201.52,329.96 201.52,324.63 201.52,319.3 201.52,313.96 201.52,308.63 201.52,303.3 201.52,297.97 201.52,292.64 201.52,287.3 201.52,281.97 201.52,276.64 201.52,271.31 201.52,265.97 201.52,260.64 201.52,255.31 201.52,249.98 201.52,244.64 201.52,244.64" stroke="none" fill="rgb(199,124,255)" stroke-width="1.07" stroke-dasharray="none" stroke-opacity="0" fill-opacity="1"/>
                </g>
                <g id="geom_polygon.polygon.1089.1" class="polygon grob gDesc">
                  <polygon id="geom_polygon.polygon.1089.1.1" points="201.52,244.64 196.28,245.64 191.04,246.64 185.81,247.64 180.57,248.64 175.33,249.64 170.09,250.64 164.85,251.64 159.62,252.64 154.38,253.64 149.14,254.64 143.9,255.63 138.66,256.63 133.43,257.63 128.19,258.63 122.95,259.63 117.71,260.63 112.47,261.63 107.24,262.63 102,263.63 96.76,264.63 91.52,265.63 86.28,266.63 81.05,267.62 75.81,268.62 70.57,269.62 65.33,270.62 60.09,271.62 54.86,272.62 49.62,273.62 48.71,268.4 47.99,263.15 47.45,257.88 47.08,252.59 46.9,247.29 46.9,241.99 47.08,236.7 47.45,231.41 47.99,226.14 48.71,220.89 49.62,215.67 50.7,210.48 51.96,205.33 53.39,200.23 55,195.18 56.78,190.19 58.74,185.26 60.85,180.4 63.14,175.62 65.58,170.92 68.19,166.31 70.95,161.78 73.87,157.36 76.93,153.03 80.15,148.82 83.5,144.72 86.99,140.73 90.62,136.87 94.38,133.13 98.26,129.53 102.27,126.06 106.39,122.72 110.62,119.54 114.96,116.49 119.41,113.6 123.94,110.87 128.57,108.29 133.29,105.87 138.08,103.61 142.95,101.52 147.89,99.6 152.89,97.85 157.95,96.27 163.06,94.86 164.39,100.03 165.71,105.19 167.04,110.36 168.37,115.52 169.69,120.69 171.02,125.85 172.35,131.02 173.67,136.18 175,141.34 176.32,146.51 177.65,151.67 178.98,156.84 180.3,162 181.63,167.17 182.95,172.33 184.28,177.5 185.61,182.66 186.93,187.83 188.26,192.99 189.59,198.16 190.91,203.32 192.24,208.49 193.56,213.65 194.89,218.82 196.22,223.98 197.54,229.15 198.87,234.31 200.19,239.48 201.52,244.64 201.52,244.64" stroke="none" fill="rgb(0,191,196)" stroke-width="1.07" stroke-dasharray="none" stroke-opacity="0" fill-opacity="1"/>
                </g>
                <g id="geom_polygon.polygon.1091.1" class="polygon grob gDesc">
                  <polygon id="geom_polygon.polygon.1091.1.1" points="201.52,244.64 198.39,248.96 195.25,253.27 192.12,257.59 188.98,261.9 185.85,266.21 182.71,270.53 179.58,274.84 176.45,279.16 173.31,283.47 170.18,287.78 167.04,292.1 163.91,296.41 160.77,300.73 157.64,305.04 154.51,309.35 151.37,313.67 148.24,317.98 145.1,322.3 141.97,326.61 138.83,330.92 135.7,335.24 132.56,339.55 129.43,343.87 126.3,348.18 123.16,352.49 120.03,356.81 116.89,361.12 113.76,365.44 110.62,369.75 106.39,366.56 102.27,363.23 98.26,359.76 94.38,356.15 90.62,352.42 86.99,348.55 83.5,344.57 80.15,340.47 76.93,336.25 73.87,331.93 70.95,327.5 68.19,322.98 65.58,318.37 63.14,313.67 60.85,308.88 58.74,304.03 56.78,299.1 55,294.11 53.39,289.06 51.96,283.96 50.7,278.81 49.62,273.62 54.86,272.62 60.09,271.62 65.33,270.62 70.57,269.62 75.81,268.62 81.05,267.62 86.28,266.63 91.52,265.63 96.76,264.63 102,263.63 107.24,262.63 112.47,261.63 117.71,260.63 122.95,259.63 128.19,258.63 133.43,257.63 138.66,256.63 143.9,255.63 149.14,254.64 154.38,253.64 159.62,252.64 164.85,251.64 170.09,250.64 175.33,249.64 180.57,248.64 185.81,247.64 191.04,246.64 196.28,245.64 201.52,244.64 201.52,244.64" stroke="none" fill="rgb(124,174,0)" stroke-width="1.07" stroke-dasharray="none" stroke-opacity="0" fill-opacity="1"/>
                </g>
                <g id="geom_polygon.polygon.1093.1" class="polygon grob gDesc">
                  <polygon id="geom_polygon.polygon.1093.1.1" points="201.52,244.64 201.52,249.98 201.52,255.31 201.52,260.64 201.52,265.97 201.52,271.31 201.52,276.64 201.52,281.97 201.52,287.3 201.52,292.64 201.52,297.97 201.52,303.3 201.52,308.63 201.52,313.96 201.52,319.3 201.52,324.63 201.52,329.96 201.52,335.29 201.52,340.63 201.52,345.96 201.52,351.29 201.52,356.62 201.52,361.96 201.52,367.29 201.52,372.62 201.52,377.95 201.52,383.29 201.52,388.62 201.52,393.95 201.52,399.28 196.12,399.19 190.73,398.91 185.36,398.44 180,397.78 174.67,396.93 169.37,395.9 164.11,394.69 158.9,393.29 153.73,391.72 148.63,389.96 143.59,388.02 138.62,385.91 133.73,383.63 128.92,381.18 124.2,378.57 119.57,375.79 115.05,372.85 110.62,369.75 113.76,365.44 116.89,361.12 120.03,356.81 123.16,352.49 126.3,348.18 129.43,343.87 132.56,339.55 135.7,335.24 138.83,330.92 141.97,326.61 145.1,322.3 148.24,317.98 151.37,313.67 154.51,309.35 157.64,305.04 160.77,300.73 163.91,296.41 167.04,292.1 170.18,287.78 173.31,283.47 176.45,279.16 179.58,274.84 182.71,270.53 185.85,266.21 188.98,261.9 192.12,257.59 195.25,253.27 198.39,248.96 201.52,244.64 201.52,244.64" stroke="none" fill="rgb(248,118,109)" stroke-width="1.07" stroke-dasharray="none" stroke-opacity="0" fill-opacity="1"/>
                </g>
              </g>
              <g id="GRID.text.1096.1" class="text grob gDesc">
                <g id="GRID.text.1096.1.1" transform="translate(278.23, 234.95)" stroke-width="0.1">
                  <g id="GRID.text.1096.1.1.scale" transform="scale(1, -1)">
                    <text x="0" y="0" id="GRID.text.1096.1.1.text" text-anchor="middle" stroke="rgb(0,0,0)" font-size="11.04" font-family="Helvetica, Arial, FreeSans, Liberation Sans, Nimbus Sans L, sans-serif" fill="rgb(0,0,0)" stroke-opacity="1" fill-opacity="1" font-weight="normal" font-style="normal">
                      <tspan id="GRID.text.1096.1.1.tspan.1" dy="3.95" x="0">27</tspan>
                    </text>
                  </g>
                </g>
                <g id="GRID.text.1096.1.2" transform="translate(136.24, 203.21)" stroke-width="0.1">
                  <g id="GRID.text.1096.1.2.scale" transform="scale(1, -1)">
                    <text x="0" y="0" id="GRID.text.1096.1.2.text" text-anchor="middle" stroke="rgb(0,0,0)" font-size="11.04" font-family="Helvetica, Arial, FreeSans, Liberation Sans, Nimbus Sans L, sans-serif" fill="rgb(0,0,0)" stroke-opacity="1" fill-opacity="1" font-weight="normal" font-style="normal">
                      <tspan id="GRID.text.1096.1.2.tspan.1" dy="3.95" x="0">12</tspan>
                    </text>
                  </g>
                </g>
                <g id="GRID.text.1096.1.3" transform="translate(136.24, 286.07)" stroke-width="0.1">
                  <g id="GRID.text.1096.1.3.scale" transform="scale(1, -1)">
                    <text x="0" y="0" id="GRID.text.1096.1.3.text" text-anchor="middle" stroke="rgb(0,0,0)" font-size="11.04" font-family="Helvetica, Arial, FreeSans, Liberation Sans, Nimbus Sans L, sans-serif" fill="rgb(0,0,0)" stroke-opacity="1" fill-opacity="1" font-weight="normal" font-style="normal">
                      <tspan id="GRID.text.1096.1.3.tspan.1" dy="3.95" x="0">6</tspan>
                    </text>
                  </g>
                </g>
                <g id="GRID.text.1096.1.4" transform="translate(177.63, 318.18)" stroke-width="0.1">
                  <g id="GRID.text.1096.1.4.scale" transform="scale(1, -1)">
                    <text x="0" y="0" id="GRID.text.1096.1.4.text" text-anchor="middle" stroke="rgb(0,0,0)" font-size="11.04" font-family="Helvetica, Arial, FreeSans, Liberation Sans, Nimbus Sans L, sans-serif" fill="rgb(0,0,0)" stroke-opacity="1" fill-opacity="1" font-weight="normal" font-style="normal">
                      <tspan id="GRID.text.1096.1.4.tspan.1" dy="3.95" x="0">5</tspan>
                    </text>
                  </g>
                </g>
              </g>
              <g id="GRID.gTree.1097.1" class="gTree grob gDesc"/>
            </g>
          </g>
          <g id="layout::spacer.8-6-8-6.1" class="viewport"/>
          <g id="layout::spacer.8-4-8-4.1" class="viewport"/>
          <g id="layout::spacer.6-6-6-6.1" class="viewport"/>
          <g id="layout::spacer.6-4-6-4.1" class="viewport"/>
          <g id="layout::axis-t.6-5-6-5.1" class="viewport"/>
          <g id="layout::axis-l.7-4-7-4.1" class="viewport">
            <g id="layout::axis-l.7-4-7-4::GRID.VP.257.1" class="viewport">
              <g id="axis-l.7-4-7-4.1" class="forcedgrob gTableChild absoluteGrob gTree grob gDesc">
                <g id="layout::axis-l.7-4-7-4::GRID.VP.257::axis.1" class="viewport">
                  <g id="axis.1" class="forcedgrob gtable gTree grob gDesc">
                    <g id="layout::axis-l.7-4-7-4::GRID.VP.257::axis::axis.1-1-1-1.1" class="viewport"/>
                    <g id="layout::axis-l.7-4-7-4::GRID.VP.257::axis::axis.1-2-1-2.1" class="viewport"/>
                  </g>
                </g>
              </g>
            </g>
          </g>
          <g id="layout::axis-r.7-6-7-6.1" class="viewport"/>
          <g id="layout::axis-b.8-5-8-5.1" class="viewport">
            <g id="layout::axis-b.8-5-8-5::GRID.VP.256.1" class="viewport">
              <g id="axis-b.8-5-8-5.1" class="forcedgrob gTableChild absoluteGrob gTree grob gDesc">
                <g id="layout::axis-b.8-5-8-5::GRID.VP.256::axis.1" class="viewport">
                  <g id="axis.2" class="forcedgrob gtable gTree grob gDesc">
                    <g id="layout::axis-b.8-5-8-5::GRID.VP.256::axis::axis.1-1-1-1.1" class="viewport"/>
                    <g id="layout::axis-b.8-5-8-5::GRID.VP.256::axis::axis.2-1-2-1.1" class="viewport"/>
                  </g>
                </g>
              </g>
            </g>
          </g>
          <g id="layout::xlab-t.5-5-5-5.1" class="viewport"/>
          <g id="layout::xlab-b.9-5-9-5.1" class="viewport"/>
          <g id="layout::ylab-l.7-3-7-3.1" class="viewport"/>
          <g id="layout::ylab-r.7-7-7-7.1" class="viewport"/>
          <g id="layout::guide-box.7-9-7-9.1" class="viewport">
            <g id="layout::guide-box.7-9-7-9::GRID.VP.271.1" class="viewport">
              <g id="layout::guide-box.7-9-7-9::GRID.VP.271::guide-box.7-9-7-9.1" class="viewport">
                <g id="guide-box.7-9-7-9.1" class="forcedgrob gTableChild gtable gTree grob gDesc">
                  <g id="layout::guide-box.7-9-7-9::GRID.VP.271::guide-box.7-9-7-9::legend.box.background.2-4-4-2.1" class="viewport"/>
                  <g id="layout::guide-box.7-9-7-9::GRID.VP.271::guide-box.7-9-7-9::guides.3-3-3-3.1" class="viewport">
                    <g id="layout::guide-box.7-9-7-9::GRID.VP.271::guide-box.7-9-7-9::guides.3-3-3-3::GRID.VP.270.1" class="viewport">
                      <g id="layout::guide-box.7-9-7-9::GRID.VP.271::guide-box.7-9-7-9::guides.3-3-3-3::GRID.VP.270::guides.3-3-3-3.1" class="viewport">
                        <g id="guides.3-3-3-3.1" class="forcedgrob gTableChild gtable gTree grob gDesc">
                          <g id="layout::guide-box.7-9-7-9::GRID.VP.271::guide-box.7-9-7-9::guides.3-3-3-3::GRID.VP.270::guides.3-3-3-3::background.1-6-8-1.1" class="viewport">
                            <g id="background.1-6-8-1.1" class="forcedgrob gTableChild rect grob gDesc">
                              <rect id="background.1-6-8-1.1.1" x="405.78" y="201.86" width="92.74" height="85.56" transform="" stroke-width="1.07" stroke="none" fill="rgb(255,255,255)" stroke-dasharray="none" stroke-opacity="0" fill-opacity="1"/>
                            </g>
                          </g>
                          <g id="layout::guide-box.7-9-7-9::GRID.VP.271::guide-box.7-9-7-9::guides.3-3-3-3::GRID.VP.270::guides.3-3-3-3::title.2-5-2-2.1" class="viewport"/>
                          <g id="layout::guide-box.7-9-7-9::GRID.VP.271::guide-box.7-9-7-9::guides.3-3-3-3::GRID.VP.270::guides.3-3-3-3::key-3-1-bg.4-2-4-2.1" class="viewport"/>
                          <g id="layout::guide-box.7-9-7-9::GRID.VP.271::guide-box.7-9-7-9::guides.3-3-3-3::GRID.VP.270::guides.3-3-3-3::key-3-1-1.4-2-4-2.1" class="viewport">
                            <g id="key-3-1-1.4-2-4-2.1" class="forcedgrob gTableChild rect grob gDesc">
                              <rect id="key-3-1-1.4-2-4-2.1.1" x="411.97" y="259.89" width="15.86" height="15.86" transform="" stroke="none" fill="rgb(248,118,109)" stroke-dasharray="none" stroke-width="1.07" stroke-linejoin="miter" stroke-opacity="0" fill-opacity="1"/>
                            </g>
                          </g>
                          <g id="layout::guide-box.7-9-7-9::GRID.VP.271::guide-box.7-9-7-9::guides.3-3-3-3::GRID.VP.270::guides.3-3-3-3::key-4-1-bg.5-2-5-2.1" class="viewport"/>
                          <g id="layout::guide-box.7-9-7-9::GRID.VP.271::guide-box.7-9-7-9::guides.3-3-3-3::GRID.VP.270::guides.3-3-3-3::key-4-1-1.5-2-5-2.1" class="viewport">
                            <g id="key-4-1-1.5-2-5-2.1" class="forcedgrob gTableChild rect grob gDesc">
                              <rect id="key-4-1-1.5-2-5-2.1.1" x="411.97" y="242.61" width="15.86" height="15.86" transform="" stroke="none" fill="rgb(124,174,0)" stroke-dasharray="none" stroke-width="1.07" stroke-linejoin="miter" stroke-opacity="0" fill-opacity="1"/>
                            </g>
                          </g>
                          <g id="layout::guide-box.7-9-7-9::GRID.VP.271::guide-box.7-9-7-9::guides.3-3-3-3::GRID.VP.270::guides.3-3-3-3::key-5-1-bg.6-2-6-2.1" class="viewport"/>
                          <g id="layout::guide-box.7-9-7-9::GRID.VP.271::guide-box.7-9-7-9::guides.3-3-3-3::GRID.VP.270::guides.3-3-3-3::key-5-1-1.6-2-6-2.1" class="viewport">
                            <g id="key-5-1-1.6-2-6-2.1" class="forcedgrob gTableChild rect grob gDesc">
                              <rect id="key-5-1-1.6-2-6-2.1.1" x="411.97" y="225.33" width="15.86" height="15.86" transform="" stroke="none" fill="rgb(0,191,196)" stroke-dasharray="none" stroke-width="1.07" stroke-linejoin="miter" stroke-opacity="0" fill-opacity="1"/>
                            </g>
                          </g>
                          <g id="layout::guide-box.7-9-7-9::GRID.VP.271::guide-box.7-9-7-9::guides.3-3-3-3::GRID.VP.270::guides.3-3-3-3::key-6-1-bg.7-2-7-2.1" class="viewport"/>
                          <g id="layout::guide-box.7-9-7-9::GRID.VP.271::guide-box.7-9-7-9::guides.3-3-3-3::GRID.VP.270::guides.3-3-3-3::key-6-1-1.7-2-7-2.1" class="viewport">
                            <g id="key-6-1-1.7-2-7-2.1" class="forcedgrob gTableChild rect grob gDesc">
                              <rect id="key-6-1-1.7-2-7-2.1.1" x="411.97" y="208.05" width="15.86" height="15.86" transform="" stroke="none" fill="rgb(199,124,255)" stroke-dasharray="none" stroke-width="1.07" stroke-linejoin="miter" stroke-opacity="0" fill-opacity="1"/>
                            </g>
                          </g>
                          <g id="layout::guide-box.7-9-7-9::GRID.VP.271::guide-box.7-9-7-9::guides.3-3-3-3::GRID.VP.270::guides.3-3-3-3::label-3-3.4-4-4-4.1" class="viewport">
                            <g id="layout::guide-box.7-9-7-9::GRID.VP.271::guide-box.7-9-7-9::guides.3-3-3-3::GRID.VP.270::guides.3-3-3-3::label-3-3.4-4-4-4::GRID.VP.266.1" class="viewport">
                              <g id="label-3-3.4-4-4-4.1" class="forcedgrob gTableChild gTree grob gDesc">
                                <g id="layout::guide-box.7-9-7-9::GRID.VP.271::guide-box.7-9-7-9::guides.3-3-3-3::GRID.VP.270::guides.3-3-3-3::label-3-3.4-4-4-4::GRID.VP.266::GRID.VP.258.1" font-size="8.8" stroke="rgb(0,0,0)" font-family="Helvetica, Arial, FreeSans, Liberation Sans, Nimbus Sans L, sans-serif" stroke-opacity="1" font-weight="normal" font-style="normal" class="viewport">
                                  <g id="layout::guide-box.7-9-7-9::GRID.VP.271::guide-box.7-9-7-9::guides.3-3-3-3::GRID.VP.270::guides.3-3-3-3::label-3-3.4-4-4-4::GRID.VP.266::GRID.VP.258::GRID.VP.259.1" class="viewport">
                                    <g id="guide.label.titleGrob.1120.1" class="titleGrob gTree grob gDesc">
                                      <g id="GRID.text.1118.1" class="text grob gDesc">
                                        <g id="GRID.text.1118.1.1" transform="translate(434.02, 267.82)" stroke-width="0.1">
                                          <g id="GRID.text.1118.1.1.scale" transform="scale(1, -1)">
                                            <text x="0" y="0" id="GRID.text.1118.1.1.text" text-anchor="start" font-size="8.8" stroke="rgb(0,0,0)" font-family="Helvetica, Arial, FreeSans, Liberation Sans, Nimbus Sans L, sans-serif" fill="rgb(0,0,0)" stroke-opacity="1" fill-opacity="1" font-weight="normal" font-style="normal">
                                              <tspan id="GRID.text.1118.1.1.tspan.1" dy="3.23" x="0">scarsa (5)</tspan>
                                            </text>
                                          </g>
                                        </g>
                                      </g>
                                    </g>
                                  </g>
                                </g>
                              </g>
                            </g>
                          </g>
                          <g id="layout::guide-box.7-9-7-9::GRID.VP.271::guide-box.7-9-7-9::guides.3-3-3-3::GRID.VP.270::guides.3-3-3-3::label-4-3.5-4-5-4.1" class="viewport">
                            <g id="layout::guide-box.7-9-7-9::GRID.VP.271::guide-box.7-9-7-9::guides.3-3-3-3::GRID.VP.270::guides.3-3-3-3::label-4-3.5-4-5-4::GRID.VP.267.1" class="viewport">
                              <g id="label-4-3.5-4-5-4.1" class="forcedgrob gTableChild gTree grob gDesc">
                                <g id="layout::guide-box.7-9-7-9::GRID.VP.271::guide-box.7-9-7-9::guides.3-3-3-3::GRID.VP.270::guides.3-3-3-3::label-4-3.5-4-5-4::GRID.VP.267::GRID.VP.260.1" font-size="8.8" stroke="rgb(0,0,0)" font-family="Helvetica, Arial, FreeSans, Liberation Sans, Nimbus Sans L, sans-serif" stroke-opacity="1" font-weight="normal" font-style="normal" class="viewport">
                                  <g id="layout::guide-box.7-9-7-9::GRID.VP.271::guide-box.7-9-7-9::guides.3-3-3-3::GRID.VP.270::guides.3-3-3-3::label-4-3.5-4-5-4::GRID.VP.267::GRID.VP.260::GRID.VP.261.1" class="viewport">
                                    <g id="guide.label.titleGrob.1123.1" class="titleGrob gTree grob gDesc">
                                      <g id="GRID.text.1121.1" class="text grob gDesc">
                                        <g id="GRID.text.1121.1.1" transform="translate(434.02, 250.54)" stroke-width="0.1">
                                          <g id="GRID.text.1121.1.1.scale" transform="scale(1, -1)">
                                            <text x="0" y="0" id="GRID.text.1121.1.1.text" text-anchor="start" font-size="8.8" stroke="rgb(0,0,0)" font-family="Helvetica, Arial, FreeSans, Liberation Sans, Nimbus Sans L, sans-serif" fill="rgb(0,0,0)" stroke-opacity="1" fill-opacity="1" font-weight="normal" font-style="normal">
                                              <tspan id="GRID.text.1121.1.1.tspan.1" dy="3.23" x="0">ottima (6)</tspan>
                                            </text>
                                          </g>
                                        </g>
                                      </g>
                                    </g>
                                  </g>
                                </g>
                              </g>
                            </g>
                          </g>
                          <g id="layout::guide-box.7-9-7-9::GRID.VP.271::guide-box.7-9-7-9::guides.3-3-3-3::GRID.VP.270::guides.3-3-3-3::label-5-3.6-4-6-4.1" class="viewport">
                            <g id="layout::guide-box.7-9-7-9::GRID.VP.271::guide-box.7-9-7-9::guides.3-3-3-3::GRID.VP.270::guides.3-3-3-3::label-5-3.6-4-6-4::GRID.VP.268.1" class="viewport">
                              <g id="label-5-3.6-4-6-4.1" class="forcedgrob gTableChild gTree grob gDesc">
                                <g id="layout::guide-box.7-9-7-9::GRID.VP.271::guide-box.7-9-7-9::guides.3-3-3-3::GRID.VP.270::guides.3-3-3-3::label-5-3.6-4-6-4::GRID.VP.268::GRID.VP.262.1" font-size="8.8" stroke="rgb(0,0,0)" font-family="Helvetica, Arial, FreeSans, Liberation Sans, Nimbus Sans L, sans-serif" stroke-opacity="1" font-weight="normal" font-style="normal" class="viewport">
                                  <g id="layout::guide-box.7-9-7-9::GRID.VP.271::guide-box.7-9-7-9::guides.3-3-3-3::GRID.VP.270::guides.3-3-3-3::label-5-3.6-4-6-4::GRID.VP.268::GRID.VP.262::GRID.VP.263.1" class="viewport">
                                    <g id="guide.label.titleGrob.1126.1" class="titleGrob gTree grob gDesc">
                                      <g id="GRID.text.1124.1" class="text grob gDesc">
                                        <g id="GRID.text.1124.1.1" transform="translate(434.02, 233.26)" stroke-width="0.1">
                                          <g id="GRID.text.1124.1.1.scale" transform="scale(1, -1)">
                                            <text x="0" y="0" id="GRID.text.1124.1.1.text" text-anchor="start" font-size="8.8" stroke="rgb(0,0,0)" font-family="Helvetica, Arial, FreeSans, Liberation Sans, Nimbus Sans L, sans-serif" fill="rgb(0,0,0)" stroke-opacity="1" fill-opacity="1" font-weight="normal" font-style="normal">
                                              <tspan id="GRID.text.1124.1.1.tspan.1" dy="3.23" x="0">sufficiente (12)</tspan>
                                            </text>
                                          </g>
                                        </g>
                                      </g>
                                    </g>
                                  </g>
                                </g>
                              </g>
                            </g>
                          </g>
                          <g id="layout::guide-box.7-9-7-9::GRID.VP.271::guide-box.7-9-7-9::guides.3-3-3-3::GRID.VP.270::guides.3-3-3-3::label-6-3.7-4-7-4.1" class="viewport">
                            <g id="layout::guide-box.7-9-7-9::GRID.VP.271::guide-box.7-9-7-9::guides.3-3-3-3::GRID.VP.270::guides.3-3-3-3::label-6-3.7-4-7-4::GRID.VP.269.1" class="viewport">
                              <g id="label-6-3.7-4-7-4.1" class="forcedgrob gTableChild gTree grob gDesc">
                                <g id="layout::guide-box.7-9-7-9::GRID.VP.271::guide-box.7-9-7-9::guides.3-3-3-3::GRID.VP.270::guides.3-3-3-3::label-6-3.7-4-7-4::GRID.VP.269::GRID.VP.264.1" font-size="8.8" stroke="rgb(0,0,0)" font-family="Helvetica, Arial, FreeSans, Liberation Sans, Nimbus Sans L, sans-serif" stroke-opacity="1" font-weight="normal" font-style="normal" class="viewport">
                                  <g id="layout::guide-box.7-9-7-9::GRID.VP.271::guide-box.7-9-7-9::guides.3-3-3-3::GRID.VP.270::guides.3-3-3-3::label-6-3.7-4-7-4::GRID.VP.269::GRID.VP.264::GRID.VP.265.1" class="viewport">
                                    <g id="guide.label.titleGrob.1129.1" class="titleGrob gTree grob gDesc">
                                      <g id="GRID.text.1127.1" class="text grob gDesc">
                                        <g id="GRID.text.1127.1.1" transform="translate(434.02, 215.98)" stroke-width="0.1">
                                          <g id="GRID.text.1127.1.1.scale" transform="scale(1, -1)">
                                            <text x="0" y="0" id="GRID.text.1127.1.1.text" text-anchor="start" font-size="8.8" stroke="rgb(0,0,0)" font-family="Helvetica, Arial, FreeSans, Liberation Sans, Nimbus Sans L, sans-serif" fill="rgb(0,0,0)" stroke-opacity="1" fill-opacity="1" font-weight="normal" font-style="normal">
                                              <tspan id="GRID.text.1127.1.1.tspan.1" dy="3.23" x="0">buona (27)</tspan>
                                            </text>
                                          </g>
                                        </g>
                                      </g>
                                    </g>
                                  </g>
                                </g>
                              </g>
                            </g>
                          </g>
                        </g>
                      </g>
                    </g>
                  </g>
                </g>
              </g>
            </g>
          </g>
          <g id="layout::subtitle.4-5-4-5.1" class="viewport"/>
          <g id="layout::title.3-5-3-5.1" class="viewport">
            <g id="layout::title.3-5-3-5::GRID.VP.272.1" font-size="13.2" stroke="rgb(102,102,102)" font-family="Helvetica, Arial, FreeSans, Liberation Sans, Nimbus Sans L, sans-serif" stroke-opacity="1" font-weight="normal" font-style="normal" class="viewport">
              <g id="layout::title.3-5-3-5::GRID.VP.272::GRID.VP.273.1" class="viewport">
                <g id="title.3-5-3-5.1" class="forcedgrob gTableChild titleGrob gTree grob gDesc">
                  <g id="GRID.text.1144.1" class="text grob gDesc">
                    <g id="GRID.text.1144.1.1" transform="translate(201.52, 455.4)" stroke-width="0.1">
                      <g id="GRID.text.1144.1.1.scale" transform="scale(1, -1)">
                        <text x="0" y="0" id="GRID.text.1144.1.1.text" text-anchor="middle" font-size="13.2" stroke="rgb(102,102,102)" font-family="Helvetica, Arial, FreeSans, Liberation Sans, Nimbus Sans L, sans-serif" fill="rgb(102,102,102)" stroke-opacity="1" fill-opacity="1" font-weight="normal" font-style="normal">
                          <tspan id="GRID.text.1144.1.1.tspan.1" dy="9.33" x="0">anagrafica competenza</tspan>
                        </text>
                      </g>
                    </g>
                  </g>
                </g>
              </g>
            </g>
          </g>
          <g id="layout::caption.10-5-10-5.1" class="viewport"/>
          <g id="layout::tag.2-2-2-2.1" class="viewport"/>
        </g>
      </g>
    </g>
  </g>
</svg>