<?xml version="1.0" encoding="UTF-8"?>
<svg xmlns="http://www.w3.org/2000/svg" xmlns:xlink="http://www.w3.org/1999/xlink" width="504px" height="504px" viewBox="0 0 504 504" version="1.1">
  <metadata xmlns:gridsvg="http://www.stat.auckland.ac.nz/~paul/R/gridSVG/">
    <gridsvg:generator name="gridSVG" version="1.6-0" time="2019-01-18 19:06:59"/>
    <gridsvg:argument name="name" value="./latest_informaggio_csv/anziani/risultati/svg/anagrafica-creazionecontenuti.svg"/>
    <gridsvg:argument name="exportCoords" value="none"/>
    <gridsvg:argument name="exportMappings" value="none"/>
    <gridsvg:argument name="exportJS" value="none"/>
    <gridsvg:argument name="res" value="72"/>
    <gridsvg:argument name="prefix" value=""/>
    <gridsvg:argument name="addClasses" value="TRUE"/>
    <gridsvg:argument name="indent" value="TRUE"/>
    <gridsvg:argument name="htmlWrapper" value="FALSE"/>
    <gridsvg:argument name="usePaths" value="vpPaths"/>
    <gridsvg:argument name="uniqueNames" value="TRUE"/>
    <gridsvg:separator name="id.sep" value="."/>
    <gridsvg:separator name="gPath.sep" value="::"/>
    <gridsvg:separator name="vpPath.sep" value="::"/>
  </metadata>
  <g transform="translate(0, 504) scale(1, -1)">
    <g id="gridSVG" fill="none" stroke="rgb(0,0,0)" stroke-dasharray="none" stroke-width="0.75" font-size="12" font-family="Helvetica, Arial, FreeSans, Liberation Sans, Nimbus Sans L, sans-serif" opacity="1" stroke-linecap="round" stroke-linejoin="round" stroke-miterlimit="10" stroke-opacity="1" fill-opacity="0" font-weight="normal" font-style="normal">
      <g id="layout.1" class="viewport">
        <g id="layout.2" class="forcedgrob gtable gTree grob gDesc">
          <defs>
            <clipPath id="layout::background.1-11-12-1.1.clipPath">
              <rect x="0" y="38.42" width="504" height="427.16" fill="none" stroke="none"/>
            </clipPath>
          </defs>
          <g id="layout::background.1-11-12-1.1" clip-path="url(#layout::background.1-11-12-1.1.clipPath)" class="viewport">
            <g id="background.1-11-12-1.1" class="forcedgrob gTableChild rect grob gDesc">
              <rect id="background.1-11-12-1.1.1" x="0" y="38.42" width="504" height="427.16" transform="" stroke-width="1.07" stroke="rgb(255,255,255)" fill="rgb(255,255,255)" stroke-dasharray="none" stroke-opacity="1" fill-opacity="1"/>
            </g>
          </g>
          <defs>
            <clipPath id="layout::panel.7-5-7-5.1.clipPath">
              <rect x="8.22" y="46.64" width="396.01" height="396.01" fill="none" stroke="none"/>
            </clipPath>
          </defs>
          <g id="layout::panel.7-5-7-5.1" clip-path="url(#layout::panel.7-5-7-5.1.clipPath)" class="viewport">
            <g id="panel.7-5-7-5.1" class="forcedgrob gTableChild gTree grob gDesc">
              <g id="grill.gTree.1399.1" class="gTree grob gDesc">
                <g id="panel.background..rect.1395.1" class="rect grob gDesc">
                  <rect id="panel.background..rect.1395.1.1" x="8.22" y="46.64" width="396.01" height="396.01" transform="" stroke-width="1.07" stroke="none" fill="rgb(255,255,255)" stroke-dasharray="none" stroke-opacity="0" fill-opacity="1"/>
                </g>
              </g>
              <g id="bar.gTree.1388.1" class="gTree grob gDesc">
                <g id="geom_polygon.polygon.1378.1" class="polygon grob gDesc">
                  <polygon id="geom_polygon.polygon.1378.1.1" points="206.22,244.64 206.22,239.18 206.22,233.72 206.22,228.26 206.22,222.79 206.22,217.33 206.22,211.87 206.22,206.41 206.22,200.95 206.22,195.48 206.22,190.02 206.22,184.56 206.22,179.1 206.22,173.63 206.22,168.17 206.22,162.71 206.22,157.25 206.22,151.79 206.22,146.32 206.22,140.86 206.22,135.4 206.22,129.94 206.22,124.48 206.22,119.01 206.22,113.55 206.22,108.09 206.22,102.63 206.22,97.16 206.22,91.7 206.22,86.24 211.63,86.33 217.03,86.61 222.42,87.07 227.79,87.72 233.14,88.54 238.45,89.55 243.73,90.74 248.96,92.11 254.14,93.66 259.27,95.39 264.33,97.28 269.33,99.35 274.25,101.59 279.1,104 283.86,106.57 288.53,109.3 293.1,112.19 297.57,115.23 301.94,118.43 306.19,121.77 310.33,125.25 314.34,128.88 318.23,132.64 321.99,136.52 325.61,140.54 329.1,144.68 332.44,148.93 335.63,153.3 338.68,157.77 341.57,162.34 344.3,167.01 346.87,171.77 349.27,176.61 351.51,181.54 353.58,186.53 355.48,191.6 357.2,196.72 358.75,201.91 360.12,207.14 361.31,212.42 362.32,217.73 363.15,223.07 363.8,228.44 364.26,233.83 364.53,239.24 364.63,244.64 364.53,250.05 364.26,255.45 363.8,260.84 363.15,266.21 362.32,271.56 361.31,276.87 360.12,282.15 358.75,287.38 357.2,292.56 355.48,297.69 353.58,302.75 351.51,307.75 349.27,312.67 346.87,317.52 344.3,322.28 341.57,326.95 338.68,331.52 335.63,335.99 332.44,340.36 329.1,344.61 325.61,348.75 321.99,352.76 318.23,356.65 314.34,360.41 310.33,364.03 306.19,367.52 301.94,370.86 297.57,374.05 293.1,377.1 288.53,379.99 283.86,382.72 279.1,385.29 274.25,387.69 269.33,389.93 264.33,392 259.27,393.9 254.14,395.62 248.96,397.17 243.73,398.54 238.45,399.73 233.14,400.74 227.79,401.57 222.42,402.22 217.03,402.68 211.63,402.95 206.22,403.05 206.22,397.58 206.22,392.12 206.22,386.66 206.22,381.2 206.22,375.74 206.22,370.27 206.22,364.81 206.22,359.35 206.22,353.89 206.22,348.42 206.22,342.96 206.22,337.5 206.22,332.04 206.22,326.58 206.22,321.11 206.22,315.65 206.22,310.19 206.22,304.73 206.22,299.26 206.22,293.8 206.22,288.34 206.22,282.88 206.22,277.42 206.22,271.95 206.22,266.49 206.22,261.03 206.22,255.57 206.22,250.11 206.22,244.64 206.22,244.64" stroke="none" fill="rgb(231,107,243)" stroke-width="1.07" stroke-dasharray="none" stroke-opacity="0" fill-opacity="1"/>
                </g>
                <g id="geom_polygon.polygon.1380.1" class="polygon grob gDesc">
                  <polygon id="geom_polygon.polygon.1380.1.1" points="206.22,244.64 202.01,248.12 197.81,251.61 193.6,255.09 189.39,258.57 185.18,262.05 180.97,265.53 176.76,269.02 172.55,272.5 168.34,275.98 164.14,279.46 159.93,282.94 155.72,286.42 151.51,289.91 147.3,293.39 143.09,296.87 138.88,300.35 134.68,303.83 130.47,307.31 126.26,310.8 122.05,314.28 117.84,317.76 113.63,321.24 109.42,324.72 105.21,328.2 101.01,331.69 96.8,335.17 92.59,338.65 88.38,342.13 84.17,345.61 80.78,341.37 77.54,337.02 74.45,332.55 71.52,327.99 68.74,323.32 66.13,318.56 63.68,313.72 61.39,308.8 59.28,303.8 57.34,298.73 55.57,293.59 53.98,288.4 52.57,283.16 51.34,277.87 50.3,272.55 49.43,267.19 48.75,261.8 48.26,256.39 47.95,250.98 47.82,245.55 47.88,240.12 48.13,234.7 48.57,229.29 49.18,223.89 49.99,218.52 50.97,213.19 52.14,207.88 53.49,202.63 55.02,197.42 56.73,192.26 58.61,187.17 60.67,182.15 62.9,177.2 65.29,172.33 67.85,167.54 70.57,162.84 73.46,158.24 76.5,153.75 79.69,149.35 83.03,145.07 86.51,140.91 90.13,136.87 93.9,132.96 97.79,129.17 101.81,125.52 105.95,122.02 110.21,118.65 114.59,115.44 119.07,112.37 123.65,109.46 128.33,106.71 133.1,104.13 137.96,101.7 142.9,99.45 147.91,97.36 152.99,95.45 158.13,93.72 163.33,92.16 168.58,90.78 173.88,89.58 179.21,88.56 184.58,87.73 189.97,87.08 195.37,86.61 200.8,86.33 206.22,86.24 206.22,91.7 206.22,97.16 206.22,102.63 206.22,108.09 206.22,113.55 206.22,119.01 206.22,124.48 206.22,129.94 206.22,135.4 206.22,140.86 206.22,146.32 206.22,151.79 206.22,157.25 206.22,162.71 206.22,168.17 206.22,173.63 206.22,179.1 206.22,184.56 206.22,190.02 206.22,195.48 206.22,200.95 206.22,206.41 206.22,211.87 206.22,217.33 206.22,222.79 206.22,228.26 206.22,233.72 206.22,239.18 206.22,244.64 206.22,244.64" stroke="none" fill="rgb(0,176,246)" stroke-width="1.07" stroke-dasharray="none" stroke-opacity="0" fill-opacity="1"/>
                </g>
                <g id="geom_polygon.polygon.1382.1" class="polygon grob gDesc">
                  <polygon id="geom_polygon.polygon.1382.1.1" points="206.22,244.64 203.59,249.43 200.96,254.22 198.33,259 195.7,263.79 193.07,268.58 190.43,273.36 187.8,278.15 185.17,282.94 182.54,287.72 179.91,292.51 177.28,297.3 174.65,302.08 172.01,306.87 169.38,311.65 166.75,316.44 164.12,321.23 161.49,326.01 158.86,330.8 156.23,335.59 153.59,340.37 150.96,345.16 148.33,349.95 145.7,354.73 143.07,359.52 140.44,364.31 137.81,369.09 135.17,373.88 132.54,378.67 129.91,383.45 125.2,380.76 120.58,377.9 116.07,374.89 111.66,371.72 107.36,368.41 103.18,364.95 99.11,361.35 95.18,357.61 91.37,353.74 87.7,349.74 84.17,345.61 88.38,342.13 92.59,338.65 96.8,335.17 101.01,331.69 105.21,328.2 109.42,324.72 113.63,321.24 117.84,317.76 122.05,314.28 126.26,310.8 130.47,307.31 134.68,303.83 138.88,300.35 143.09,296.87 147.3,293.39 151.51,289.91 155.72,286.42 159.93,282.94 164.14,279.46 168.34,275.98 172.55,272.5 176.76,269.02 180.97,265.53 185.18,262.05 189.39,258.57 193.6,255.09 197.81,251.61 202.01,248.12 206.22,244.64 206.22,244.64" stroke="none" fill="rgb(0,191,125)" stroke-width="1.07" stroke-dasharray="none" stroke-opacity="0" fill-opacity="1"/>
                </g>
                <g id="geom_polygon.polygon.1384.1" class="polygon grob gDesc">
                  <polygon id="geom_polygon.polygon.1384.1.1" points="206.22,244.64 204.86,249.93 203.51,255.22 202.15,260.51 200.79,265.81 199.43,271.1 198.07,276.39 196.71,281.68 195.36,286.97 194,292.26 192.64,297.55 191.28,302.84 189.92,308.13 188.56,313.42 187.21,318.71 185.85,324 184.49,329.29 183.13,334.58 181.77,339.87 180.41,345.16 179.06,350.45 177.7,355.74 176.34,361.04 174.98,366.33 173.62,371.62 172.26,376.91 170.9,382.2 169.55,387.49 168.19,392.78 166.83,398.07 161.35,396.56 155.92,394.85 150.56,392.95 145.28,390.85 140.07,388.57 134.94,386.1 129.91,383.45 132.54,378.67 135.17,373.88 137.81,369.09 140.44,364.31 143.07,359.52 145.7,354.73 148.33,349.95 150.96,345.16 153.59,340.37 156.23,335.59 158.86,330.8 161.49,326.01 164.12,321.23 166.75,316.44 169.38,311.65 172.01,306.87 174.65,302.08 177.28,297.3 179.91,292.51 182.54,287.72 185.17,282.94 187.8,278.15 190.43,273.36 193.07,268.58 195.7,263.79 198.33,259 200.96,254.22 203.59,249.43 206.22,244.64 206.22,244.64" stroke="none" fill="rgb(163,165,0)" stroke-width="1.07" stroke-dasharray="none" stroke-opacity="0" fill-opacity="1"/>
                </g>
                <g id="geom_polygon.polygon.1386.1" class="polygon grob gDesc">
                  <polygon id="geom_polygon.polygon.1386.1.1" points="206.22,244.64 206.22,250.11 206.22,255.57 206.22,261.03 206.22,266.49 206.22,271.95 206.22,277.42 206.22,282.88 206.22,288.34 206.22,293.8 206.22,299.26 206.22,304.73 206.22,310.19 206.22,315.65 206.22,321.11 206.22,326.58 206.22,332.04 206.22,337.5 206.22,342.96 206.22,348.42 206.22,353.89 206.22,359.35 206.22,364.81 206.22,370.27 206.22,375.74 206.22,381.2 206.22,386.66 206.22,392.12 206.22,397.58 206.22,403.05 200.54,402.94 194.86,402.64 189.19,402.13 183.55,401.42 177.94,400.5 172.36,399.38 166.83,398.07 168.19,392.78 169.55,387.49 170.9,382.2 172.26,376.91 173.62,371.62 174.98,366.33 176.34,361.04 177.7,355.74 179.06,350.45 180.41,345.16 181.77,339.87 183.13,334.58 184.49,329.29 185.85,324 187.21,318.71 188.56,313.42 189.92,308.13 191.28,302.84 192.64,297.55 194,292.26 195.36,286.97 196.71,281.68 198.07,276.39 199.43,271.1 200.79,265.81 202.15,260.51 203.51,255.22 204.86,249.93 206.22,244.64 206.22,244.64" stroke="none" fill="rgb(248,118,109)" stroke-width="1.07" stroke-dasharray="none" stroke-opacity="0" fill-opacity="1"/>
                </g>
              </g>
              <g id="GRID.text.1389.1" class="text grob gDesc">
                <g id="GRID.text.1389.1.1" transform="translate(285.42, 244.64)" stroke-width="0.1">
                  <g id="GRID.text.1389.1.1.scale" transform="scale(1, -1)">
                    <text x="0" y="0" id="GRID.text.1389.1.1.text" text-anchor="middle" stroke="rgb(0,0,0)" font-size="11.04" font-family="Helvetica, Arial, FreeSans, Liberation Sans, Nimbus Sans L, sans-serif" fill="rgb(0,0,0)" stroke-opacity="1" fill-opacity="1" font-weight="normal" font-style="normal">
                      <tspan id="GRID.text.1389.1.1.tspan.1" dy="3.95" x="0">25</tspan>
                    </text>
                  </g>
                </g>
                <g id="GRID.text.1389.1.2" transform="translate(134.56, 210.92)" stroke-width="0.1">
                  <g id="GRID.text.1389.1.2.scale" transform="scale(1, -1)">
                    <text x="0" y="0" id="GRID.text.1389.1.2.text" text-anchor="middle" stroke="rgb(0,0,0)" font-size="11.04" font-family="Helvetica, Arial, FreeSans, Liberation Sans, Nimbus Sans L, sans-serif" fill="rgb(0,0,0)" stroke-opacity="1" fill-opacity="1" font-weight="normal" font-style="normal">
                      <tspan id="GRID.text.1389.1.2.tspan.1" dy="3.95" x="0">18</tspan>
                    </text>
                  </g>
                </g>
                <g id="GRID.text.1389.1.3" transform="translate(155.74, 305.67)" stroke-width="0.1">
                  <g id="GRID.text.1389.1.3.scale" transform="scale(1, -1)">
                    <text x="0" y="0" id="GRID.text.1389.1.3.text" text-anchor="middle" stroke="rgb(0,0,0)" font-size="11.04" font-family="Helvetica, Arial, FreeSans, Liberation Sans, Nimbus Sans L, sans-serif" fill="rgb(0,0,0)" stroke-opacity="1" fill-opacity="1" font-weight="normal" font-style="normal">
                      <tspan id="GRID.text.1389.1.3.tspan.1" dy="3.95" x="0">3</tspan>
                    </text>
                  </g>
                </g>
                <g id="GRID.text.1389.1.4" transform="translate(177.07, 318.28)" stroke-width="0.1">
                  <g id="GRID.text.1389.1.4.scale" transform="scale(1, -1)">
                    <text x="0" y="0" id="GRID.text.1389.1.4.text" text-anchor="middle" stroke="rgb(0,0,0)" font-size="11.04" font-family="Helvetica, Arial, FreeSans, Liberation Sans, Nimbus Sans L, sans-serif" fill="rgb(0,0,0)" stroke-opacity="1" fill-opacity="1" font-weight="normal" font-style="normal">
                      <tspan id="GRID.text.1389.1.4.tspan.1" dy="3.95" x="0">2</tspan>
                    </text>
                  </g>
                </g>
                <g id="GRID.text.1389.1.5" transform="translate(196.3, 323.22)" stroke-width="0.1">
                  <g id="GRID.text.1389.1.5.scale" transform="scale(1, -1)">
                    <text x="0" y="0" id="GRID.text.1389.1.5.text" text-anchor="middle" stroke="rgb(0,0,0)" font-size="11.04" font-family="Helvetica, Arial, FreeSans, Liberation Sans, Nimbus Sans L, sans-serif" fill="rgb(0,0,0)" stroke-opacity="1" fill-opacity="1" font-weight="normal" font-style="normal">
                      <tspan id="GRID.text.1389.1.5.tspan.1" dy="3.95" x="0">2</tspan>
                    </text>
                  </g>
                </g>
              </g>
              <g id="GRID.gTree.1390.1" class="gTree grob gDesc"/>
            </g>
          </g>
          <g id="layout::spacer.8-6-8-6.1" class="viewport"/>
          <g id="layout::spacer.8-4-8-4.1" class="viewport"/>
          <g id="layout::spacer.6-6-6-6.1" class="viewport"/>
          <g id="layout::spacer.6-4-6-4.1" class="viewport"/>
          <g id="layout::axis-t.6-5-6-5.1" class="viewport"/>
          <g id="layout::axis-l.7-4-7-4.1" class="viewport">
            <g id="layout::axis-l.7-4-7-4::GRID.VP.320.1" class="viewport">
              <g id="axis-l.7-4-7-4.1" class="forcedgrob gTableChild absoluteGrob gTree grob gDesc">
                <g id="layout::axis-l.7-4-7-4::GRID.VP.320::axis.1" class="viewport">
                  <g id="axis.1" class="forcedgrob gtable gTree grob gDesc">
                    <g id="layout::axis-l.7-4-7-4::GRID.VP.320::axis::axis.1-1-1-1.1" class="viewport"/>
                    <g id="layout::axis-l.7-4-7-4::GRID.VP.320::axis::axis.1-2-1-2.1" class="viewport"/>
                  </g>
                </g>
              </g>
            </g>
          </g>
          <g id="layout::axis-r.7-6-7-6.1" class="viewport"/>
          <g id="layout::axis-b.8-5-8-5.1" class="viewport">
            <g id="layout::axis-b.8-5-8-5::GRID.VP.319.1" class="viewport">
              <g id="axis-b.8-5-8-5.1" class="forcedgrob gTableChild absoluteGrob gTree grob gDesc">
                <g id="layout::axis-b.8-5-8-5::GRID.VP.319::axis.1" class="viewport">
                  <g id="axis.2" class="forcedgrob gtable gTree grob gDesc">
                    <g id="layout::axis-b.8-5-8-5::GRID.VP.319::axis::axis.1-1-1-1.1" class="viewport"/>
                    <g id="layout::axis-b.8-5-8-5::GRID.VP.319::axis::axis.2-1-2-1.1" class="viewport"/>
                  </g>
                </g>
              </g>
            </g>
          </g>
          <g id="layout::xlab-t.5-5-5-5.1" class="viewport"/>
          <g id="layout::xlab-b.9-5-9-5.1" class="viewport"/>
          <g id="layout::ylab-l.7-3-7-3.1" class="viewport"/>
          <g id="layout::ylab-r.7-7-7-7.1" class="viewport"/>
          <g id="layout::guide-box.7-9-7-9.1" class="viewport">
            <g id="layout::guide-box.7-9-7-9::GRID.VP.337.1" class="viewport">
              <g id="layout::guide-box.7-9-7-9::GRID.VP.337::guide-box.7-9-7-9.1" class="viewport">
                <g id="guide-box.7-9-7-9.1" class="forcedgrob gTableChild gtable gTree grob gDesc">
                  <g id="layout::guide-box.7-9-7-9::GRID.VP.337::guide-box.7-9-7-9::legend.box.background.2-4-4-2.1" class="viewport"/>
                  <g id="layout::guide-box.7-9-7-9::GRID.VP.337::guide-box.7-9-7-9::guides.3-3-3-3.1" class="viewport">
                    <g id="layout::guide-box.7-9-7-9::GRID.VP.337::guide-box.7-9-7-9::guides.3-3-3-3::GRID.VP.336.1" class="viewport">
                      <g id="layout::guide-box.7-9-7-9::GRID.VP.337::guide-box.7-9-7-9::guides.3-3-3-3::GRID.VP.336::guides.3-3-3-3.1" class="viewport">
                        <g id="guides.3-3-3-3.1" class="forcedgrob gTableChild gtable gTree grob gDesc">
                          <g id="layout::guide-box.7-9-7-9::GRID.VP.337::guide-box.7-9-7-9::guides.3-3-3-3::GRID.VP.336::guides.3-3-3-3::background.1-6-9-1.1" class="viewport">
                            <g id="background.1-6-9-1.1" class="forcedgrob gTableChild rect grob gDesc">
                              <rect id="background.1-6-9-1.1.1" x="415.19" y="193.22" width="83.34" height="102.84" transform="" stroke-width="1.07" stroke="none" fill="rgb(255,255,255)" stroke-dasharray="none" stroke-opacity="0" fill-opacity="1"/>
                            </g>
                          </g>
                          <g id="layout::guide-box.7-9-7-9::GRID.VP.337::guide-box.7-9-7-9::guides.3-3-3-3::GRID.VP.336::guides.3-3-3-3::title.2-5-2-2.1" class="viewport"/>
                          <g id="layout::guide-box.7-9-7-9::GRID.VP.337::guide-box.7-9-7-9::guides.3-3-3-3::GRID.VP.336::guides.3-3-3-3::key-3-1-bg.4-2-4-2.1" class="viewport"/>
                          <g id="layout::guide-box.7-9-7-9::GRID.VP.337::guide-box.7-9-7-9::guides.3-3-3-3::GRID.VP.336::guides.3-3-3-3::key-3-1-1.4-2-4-2.1" class="viewport">
                            <g id="key-3-1-1.4-2-4-2.1" class="forcedgrob gTableChild rect grob gDesc">
                              <rect id="key-3-1-1.4-2-4-2.1.1" x="421.37" y="268.53" width="15.86" height="15.86" transform="" stroke="none" fill="rgb(248,118,109)" stroke-dasharray="none" stroke-width="1.07" stroke-linejoin="miter" stroke-opacity="0" fill-opacity="1"/>
                            </g>
                          </g>
                          <g id="layout::guide-box.7-9-7-9::GRID.VP.337::guide-box.7-9-7-9::guides.3-3-3-3::GRID.VP.336::guides.3-3-3-3::key-4-1-bg.5-2-5-2.1" class="viewport"/>
                          <g id="layout::guide-box.7-9-7-9::GRID.VP.337::guide-box.7-9-7-9::guides.3-3-3-3::GRID.VP.336::guides.3-3-3-3::key-4-1-1.5-2-5-2.1" class="viewport">
                            <g id="key-4-1-1.5-2-5-2.1" class="forcedgrob gTableChild rect grob gDesc">
                              <rect id="key-4-1-1.5-2-5-2.1.1" x="421.37" y="251.25" width="15.86" height="15.86" transform="" stroke="none" fill="rgb(163,165,0)" stroke-dasharray="none" stroke-width="1.07" stroke-linejoin="miter" stroke-opacity="0" fill-opacity="1"/>
                            </g>
                          </g>
                          <g id="layout::guide-box.7-9-7-9::GRID.VP.337::guide-box.7-9-7-9::guides.3-3-3-3::GRID.VP.336::guides.3-3-3-3::key-5-1-bg.6-2-6-2.1" class="viewport"/>
                          <g id="layout::guide-box.7-9-7-9::GRID.VP.337::guide-box.7-9-7-9::guides.3-3-3-3::GRID.VP.336::guides.3-3-3-3::key-5-1-1.6-2-6-2.1" class="viewport">
                            <g id="key-5-1-1.6-2-6-2.1" class="forcedgrob gTableChild rect grob gDesc">
                              <rect id="key-5-1-1.6-2-6-2.1.1" x="421.37" y="233.97" width="15.86" height="15.86" transform="" stroke="none" fill="rgb(0,191,125)" stroke-dasharray="none" stroke-width="1.07" stroke-linejoin="miter" stroke-opacity="0" fill-opacity="1"/>
                            </g>
                          </g>
                          <g id="layout::guide-box.7-9-7-9::GRID.VP.337::guide-box.7-9-7-9::guides.3-3-3-3::GRID.VP.336::guides.3-3-3-3::key-6-1-bg.7-2-7-2.1" class="viewport"/>
                          <g id="layout::guide-box.7-9-7-9::GRID.VP.337::guide-box.7-9-7-9::guides.3-3-3-3::GRID.VP.336::guides.3-3-3-3::key-6-1-1.7-2-7-2.1" class="viewport">
                            <g id="key-6-1-1.7-2-7-2.1" class="forcedgrob gTableChild rect grob gDesc">
                              <rect id="key-6-1-1.7-2-7-2.1.1" x="421.37" y="216.69" width="15.86" height="15.86" transform="" stroke="none" fill="rgb(0,176,246)" stroke-dasharray="none" stroke-width="1.07" stroke-linejoin="miter" stroke-opacity="0" fill-opacity="1"/>
                            </g>
                          </g>
                          <g id="layout::guide-box.7-9-7-9::GRID.VP.337::guide-box.7-9-7-9::guides.3-3-3-3::GRID.VP.336::guides.3-3-3-3::key-7-1-bg.8-2-8-2.1" class="viewport"/>
                          <g id="layout::guide-box.7-9-7-9::GRID.VP.337::guide-box.7-9-7-9::guides.3-3-3-3::GRID.VP.336::guides.3-3-3-3::key-7-1-1.8-2-8-2.1" class="viewport">
                            <g id="key-7-1-1.8-2-8-2.1" class="forcedgrob gTableChild rect grob gDesc">
                              <rect id="key-7-1-1.8-2-8-2.1.1" x="421.37" y="199.41" width="15.86" height="15.86" transform="" stroke="none" fill="rgb(231,107,243)" stroke-dasharray="none" stroke-width="1.07" stroke-linejoin="miter" stroke-opacity="0" fill-opacity="1"/>
                            </g>
                          </g>
                          <g id="layout::guide-box.7-9-7-9::GRID.VP.337::guide-box.7-9-7-9::guides.3-3-3-3::GRID.VP.336::guides.3-3-3-3::label-3-3.4-4-4-4.1" class="viewport">
                            <g id="layout::guide-box.7-9-7-9::GRID.VP.337::guide-box.7-9-7-9::guides.3-3-3-3::GRID.VP.336::guides.3-3-3-3::label-3-3.4-4-4-4::GRID.VP.331.1" class="viewport">
                              <g id="label-3-3.4-4-4-4.1" class="forcedgrob gTableChild gTree grob gDesc">
                                <g id="layout::guide-box.7-9-7-9::GRID.VP.337::guide-box.7-9-7-9::guides.3-3-3-3::GRID.VP.336::guides.3-3-3-3::label-3-3.4-4-4-4::GRID.VP.331::GRID.VP.321.1" font-size="8.8" stroke="rgb(0,0,0)" font-family="Helvetica, Arial, FreeSans, Liberation Sans, Nimbus Sans L, sans-serif" stroke-opacity="1" font-weight="normal" font-style="normal" class="viewport">
                                  <g id="layout::guide-box.7-9-7-9::GRID.VP.337::guide-box.7-9-7-9::guides.3-3-3-3::GRID.VP.336::guides.3-3-3-3::label-3-3.4-4-4-4::GRID.VP.331::GRID.VP.321::GRID.VP.322.1" class="viewport">
                                    <g id="guide.label.titleGrob.1413.1" class="titleGrob gTree grob gDesc">
                                      <g id="GRID.text.1411.1" class="text grob gDesc">
                                        <g id="GRID.text.1411.1.1" transform="translate(443.42, 276.46)" stroke-width="0.1">
                                          <g id="GRID.text.1411.1.1.scale" transform="scale(1, -1)">
                                            <text x="0" y="0" id="GRID.text.1411.1.1.text" text-anchor="start" font-size="8.8" stroke="rgb(0,0,0)" font-family="Helvetica, Arial, FreeSans, Liberation Sans, Nimbus Sans L, sans-serif" fill="rgb(0,0,0)" stroke-opacity="1" fill-opacity="1" font-weight="normal" font-style="normal">
                                              <tspan id="GRID.text.1411.1.1.tspan.1" dy="3.23" x="0">nessuno (2)</tspan>
                                            </text>
                                          </g>
                                        </g>
                                      </g>
                                    </g>
                                  </g>
                                </g>
                              </g>
                            </g>
                          </g>
                          <g id="layout::guide-box.7-9-7-9::GRID.VP.337::guide-box.7-9-7-9::guides.3-3-3-3::GRID.VP.336::guides.3-3-3-3::label-4-3.5-4-5-4.1" class="viewport">
                            <g id="layout::guide-box.7-9-7-9::GRID.VP.337::guide-box.7-9-7-9::guides.3-3-3-3::GRID.VP.336::guides.3-3-3-3::label-4-3.5-4-5-4::GRID.VP.332.1" class="viewport">
                              <g id="label-4-3.5-4-5-4.1" class="forcedgrob gTableChild gTree grob gDesc">
                                <g id="layout::guide-box.7-9-7-9::GRID.VP.337::guide-box.7-9-7-9::guides.3-3-3-3::GRID.VP.336::guides.3-3-3-3::label-4-3.5-4-5-4::GRID.VP.332::GRID.VP.323.1" font-size="8.8" stroke="rgb(0,0,0)" font-family="Helvetica, Arial, FreeSans, Liberation Sans, Nimbus Sans L, sans-serif" stroke-opacity="1" font-weight="normal" font-style="normal" class="viewport">
                                  <g id="layout::guide-box.7-9-7-9::GRID.VP.337::guide-box.7-9-7-9::guides.3-3-3-3::GRID.VP.336::guides.3-3-3-3::label-4-3.5-4-5-4::GRID.VP.332::GRID.VP.323::GRID.VP.324.1" class="viewport">
                                    <g id="guide.label.titleGrob.1416.1" class="titleGrob gTree grob gDesc">
                                      <g id="GRID.text.1414.1" class="text grob gDesc">
                                        <g id="GRID.text.1414.1.1" transform="translate(443.42, 259.18)" stroke-width="0.1">
                                          <g id="GRID.text.1414.1.1.scale" transform="scale(1, -1)">
                                            <text x="0" y="0" id="GRID.text.1414.1.1.text" text-anchor="start" font-size="8.8" stroke="rgb(0,0,0)" font-family="Helvetica, Arial, FreeSans, Liberation Sans, Nimbus Sans L, sans-serif" fill="rgb(0,0,0)" stroke-opacity="1" fill-opacity="1" font-weight="normal" font-style="normal">
                                              <tspan id="GRID.text.1414.1.1.tspan.1" dy="3.23" x="0">avanzato (2)</tspan>
                                            </text>
                                          </g>
                                        </g>
                                      </g>
                                    </g>
                                  </g>
                                </g>
                              </g>
                            </g>
                          </g>
                          <g id="layout::guide-box.7-9-7-9::GRID.VP.337::guide-box.7-9-7-9::guides.3-3-3-3::GRID.VP.336::guides.3-3-3-3::label-5-3.6-4-6-4.1" class="viewport">
                            <g id="layout::guide-box.7-9-7-9::GRID.VP.337::guide-box.7-9-7-9::guides.3-3-3-3::GRID.VP.336::guides.3-3-3-3::label-5-3.6-4-6-4::GRID.VP.333.1" class="viewport">
                              <g id="label-5-3.6-4-6-4.1" class="forcedgrob gTableChild gTree grob gDesc">
                                <g id="layout::guide-box.7-9-7-9::GRID.VP.337::guide-box.7-9-7-9::guides.3-3-3-3::GRID.VP.336::guides.3-3-3-3::label-5-3.6-4-6-4::GRID.VP.333::GRID.VP.325.1" font-size="8.8" stroke="rgb(0,0,0)" font-family="Helvetica, Arial, FreeSans, Liberation Sans, Nimbus Sans L, sans-serif" stroke-opacity="1" font-weight="normal" font-style="normal" class="viewport">
                                  <g id="layout::guide-box.7-9-7-9::GRID.VP.337::guide-box.7-9-7-9::guides.3-3-3-3::GRID.VP.336::guides.3-3-3-3::label-5-3.6-4-6-4::GRID.VP.333::GRID.VP.325::GRID.VP.326.1" class="viewport">
                                    <g id="guide.label.titleGrob.1419.1" class="titleGrob gTree grob gDesc">
                                      <g id="GRID.text.1417.1" class="text grob gDesc">
                                        <g id="GRID.text.1417.1.1" transform="translate(443.42, 241.9)" stroke-width="0.1">
                                          <g id="GRID.text.1417.1.1.scale" transform="scale(1, -1)">
                                            <text x="0" y="0" id="GRID.text.1417.1.1.text" text-anchor="start" font-size="8.8" stroke="rgb(0,0,0)" font-family="Helvetica, Arial, FreeSans, Liberation Sans, Nimbus Sans L, sans-serif" fill="rgb(0,0,0)" stroke-opacity="1" fill-opacity="1" font-weight="normal" font-style="normal">
                                              <tspan id="GRID.text.1417.1.1.tspan.1" dy="3.23" x="0">tutto (3)</tspan>
                                            </text>
                                          </g>
                                        </g>
                                      </g>
                                    </g>
                                  </g>
                                </g>
                              </g>
                            </g>
                          </g>
                          <g id="layout::guide-box.7-9-7-9::GRID.VP.337::guide-box.7-9-7-9::guides.3-3-3-3::GRID.VP.336::guides.3-3-3-3::label-6-3.7-4-7-4.1" class="viewport">
                            <g id="layout::guide-box.7-9-7-9::GRID.VP.337::guide-box.7-9-7-9::guides.3-3-3-3::GRID.VP.336::guides.3-3-3-3::label-6-3.7-4-7-4::GRID.VP.334.1" class="viewport">
                              <g id="label-6-3.7-4-7-4.1" class="forcedgrob gTableChild gTree grob gDesc">
                                <g id="layout::guide-box.7-9-7-9::GRID.VP.337::guide-box.7-9-7-9::guides.3-3-3-3::GRID.VP.336::guides.3-3-3-3::label-6-3.7-4-7-4::GRID.VP.334::GRID.VP.327.1" font-size="8.8" stroke="rgb(0,0,0)" font-family="Helvetica, Arial, FreeSans, Liberation Sans, Nimbus Sans L, sans-serif" stroke-opacity="1" font-weight="normal" font-style="normal" class="viewport">
                                  <g id="layout::guide-box.7-9-7-9::GRID.VP.337::guide-box.7-9-7-9::guides.3-3-3-3::GRID.VP.336::guides.3-3-3-3::label-6-3.7-4-7-4::GRID.VP.334::GRID.VP.327::GRID.VP.328.1" class="viewport">
                                    <g id="guide.label.titleGrob.1422.1" class="titleGrob gTree grob gDesc">
                                      <g id="GRID.text.1420.1" class="text grob gDesc">
                                        <g id="GRID.text.1420.1.1" transform="translate(443.42, 224.62)" stroke-width="0.1">
                                          <g id="GRID.text.1420.1.1.scale" transform="scale(1, -1)">
                                            <text x="0" y="0" id="GRID.text.1420.1.1.text" text-anchor="start" font-size="8.8" stroke="rgb(0,0,0)" font-family="Helvetica, Arial, FreeSans, Liberation Sans, Nimbus Sans L, sans-serif" fill="rgb(0,0,0)" stroke-opacity="1" fill-opacity="1" font-weight="normal" font-style="normal">
                                              <tspan id="GRID.text.1420.1.1.tspan.1" dy="3.23" x="0">base (18)</tspan>
                                            </text>
                                          </g>
                                        </g>
                                      </g>
                                    </g>
                                  </g>
                                </g>
                              </g>
                            </g>
                          </g>
                          <g id="layout::guide-box.7-9-7-9::GRID.VP.337::guide-box.7-9-7-9::guides.3-3-3-3::GRID.VP.336::guides.3-3-3-3::label-7-3.8-4-8-4.1" class="viewport">
                            <g id="layout::guide-box.7-9-7-9::GRID.VP.337::guide-box.7-9-7-9::guides.3-3-3-3::GRID.VP.336::guides.3-3-3-3::label-7-3.8-4-8-4::GRID.VP.335.1" class="viewport">
                              <g id="label-7-3.8-4-8-4.1" class="forcedgrob gTableChild gTree grob gDesc">
                                <g id="layout::guide-box.7-9-7-9::GRID.VP.337::guide-box.7-9-7-9::guides.3-3-3-3::GRID.VP.336::guides.3-3-3-3::label-7-3.8-4-8-4::GRID.VP.335::GRID.VP.329.1" font-size="8.8" stroke="rgb(0,0,0)" font-family="Helvetica, Arial, FreeSans, Liberation Sans, Nimbus Sans L, sans-serif" stroke-opacity="1" font-weight="normal" font-style="normal" class="viewport">
                                  <g id="layout::guide-box.7-9-7-9::GRID.VP.337::guide-box.7-9-7-9::guides.3-3-3-3::GRID.VP.336::guides.3-3-3-3::label-7-3.8-4-8-4::GRID.VP.335::GRID.VP.329::GRID.VP.330.1" class="viewport">
                                    <g id="guide.label.titleGrob.1425.1" class="titleGrob gTree grob gDesc">
                                      <g id="GRID.text.1423.1" class="text grob gDesc">
                                        <g id="GRID.text.1423.1.1" transform="translate(443.42, 207.34)" stroke-width="0.1">
                                          <g id="GRID.text.1423.1.1.scale" transform="scale(1, -1)">
                                            <text x="0" y="0" id="GRID.text.1423.1.1.text" text-anchor="start" font-size="8.8" stroke="rgb(0,0,0)" font-family="Helvetica, Arial, FreeSans, Liberation Sans, Nimbus Sans L, sans-serif" fill="rgb(0,0,0)" stroke-opacity="1" fill-opacity="1" font-weight="normal" font-style="normal">
                                              <tspan id="GRID.text.1423.1.1.tspan.1" dy="3.23" x="0">medio (25)</tspan>
                                            </text>
                                          </g>
                                        </g>
                                      </g>
                                    </g>
                                  </g>
                                </g>
                              </g>
                            </g>
                          </g>
                        </g>
                      </g>
                    </g>
                  </g>
                </g>
              </g>
            </g>
          </g>
          <g id="layout::subtitle.4-5-4-5.1" class="viewport"/>
          <g id="layout::title.3-5-3-5.1" class="viewport">
            <g id="layout::title.3-5-3-5::GRID.VP.338.1" font-size="13.2" stroke="rgb(102,102,102)" font-family="Helvetica, Arial, FreeSans, Liberation Sans, Nimbus Sans L, sans-serif" stroke-opacity="1" font-weight="normal" font-style="normal" class="viewport">
              <g id="layout::title.3-5-3-5::GRID.VP.338::GRID.VP.339.1" class="viewport">
                <g id="title.3-5-3-5.1" class="forcedgrob gTableChild titleGrob gTree grob gDesc">
                  <g id="GRID.text.1443.1" class="text grob gDesc">
                    <g id="GRID.text.1443.1.1" transform="translate(206.22, 460.1)" stroke-width="0.1">
                      <g id="GRID.text.1443.1.1.scale" transform="scale(1, -1)">
                        <text x="0" y="0" id="GRID.text.1443.1.1.text" text-anchor="middle" font-size="13.2" stroke="rgb(102,102,102)" font-family="Helvetica, Arial, FreeSans, Liberation Sans, Nimbus Sans L, sans-serif" fill="rgb(102,102,102)" stroke-opacity="1" fill-opacity="1" font-weight="normal" font-style="normal">
                          <tspan id="GRID.text.1443.1.1.tspan.1" dy="9.33" x="0">anagrafica creazionecontenuti</tspan>
                        </text>
                      </g>
                    </g>
                  </g>
                </g>
              </g>
            </g>
          </g>
          <g id="layout::caption.10-5-10-5.1" class="viewport"/>
          <g id="layout::tag.2-2-2-2.1" class="viewport"/>
        </g>
      </g>
    </g>
  </g>
</svg>