<?xml version="1.0" encoding="UTF-8"?>
<svg xmlns="http://www.w3.org/2000/svg" xmlns:xlink="http://www.w3.org/1999/xlink" width="504px" height="504px" viewBox="0 0 504 504" version="1.1">
  <metadata xmlns:gridsvg="http://www.stat.auckland.ac.nz/~paul/R/gridSVG/">
    <gridsvg:generator name="gridSVG" version="1.6-0" time="2019-01-18 19:06:45"/>
    <gridsvg:argument name="name" value="./latest_informaggio_csv/anziani/risultati/svg/anagrafica-altroattivita.svg"/>
    <gridsvg:argument name="exportCoords" value="none"/>
    <gridsvg:argument name="exportMappings" value="none"/>
    <gridsvg:argument name="exportJS" value="none"/>
    <gridsvg:argument name="res" value="72"/>
    <gridsvg:argument name="prefix" value=""/>
    <gridsvg:argument name="addClasses" value="TRUE"/>
    <gridsvg:argument name="indent" value="TRUE"/>
    <gridsvg:argument name="htmlWrapper" value="FALSE"/>
    <gridsvg:argument name="usePaths" value="vpPaths"/>
    <gridsvg:argument name="uniqueNames" value="TRUE"/>
    <gridsvg:separator name="id.sep" value="."/>
    <gridsvg:separator name="gPath.sep" value="::"/>
    <gridsvg:separator name="vpPath.sep" value="::"/>
  </metadata>
  <g transform="translate(0, 504) scale(1, -1)">
    <g id="gridSVG" fill="none" stroke="rgb(0,0,0)" stroke-dasharray="none" stroke-width="0.75" font-size="12" font-family="Helvetica, Arial, FreeSans, Liberation Sans, Nimbus Sans L, sans-serif" opacity="1" stroke-linecap="round" stroke-linejoin="round" stroke-miterlimit="10" stroke-opacity="1" fill-opacity="0" font-weight="normal" font-style="normal">
      <g id="layout.1" class="viewport">
        <g id="layout.2" class="forcedgrob gtable gTree grob gDesc">
          <defs>
            <clipPath id="layout::background.1-11-12-1.1.clipPath">
              <rect x="0" y="117.84" width="504" height="268.32" fill="none" stroke="none"/>
            </clipPath>
          </defs>
          <g id="layout::background.1-11-12-1.1" clip-path="url(#layout::background.1-11-12-1.1.clipPath)" class="viewport">
            <g id="background.1-11-12-1.1" class="forcedgrob gTableChild rect grob gDesc">
              <rect id="background.1-11-12-1.1.1" x="0" y="117.84" width="504" height="268.32" transform="" stroke-width="1.07" stroke="rgb(255,255,255)" fill="rgb(255,255,255)" stroke-dasharray="none" stroke-opacity="1" fill-opacity="1"/>
            </g>
          </g>
          <defs>
            <clipPath id="layout::panel.7-5-7-5.1.clipPath">
              <rect x="8.22" y="126.06" width="237.17" height="237.17" fill="none" stroke="none"/>
            </clipPath>
          </defs>
          <g id="layout::panel.7-5-7-5.1" clip-path="url(#layout::panel.7-5-7-5.1.clipPath)" class="viewport">
            <g id="panel.7-5-7-5.1" class="forcedgrob gTableChild gTree grob gDesc">
              <g id="grill.gTree.23.1" class="gTree grob gDesc">
                <g id="panel.background..rect.19.1" class="rect grob gDesc">
                  <rect id="panel.background..rect.19.1.1" x="8.22" y="126.06" width="237.17" height="237.17" transform="" stroke-width="1.07" stroke="none" fill="rgb(255,255,255)" stroke-dasharray="none" stroke-opacity="0" fill-opacity="1"/>
                </g>
              </g>
              <g id="bar.gTree.12.1" class="gTree grob gDesc">
                <g id="geom_polygon.polygon.2.1" class="polygon grob gDesc">
                  <polygon id="geom_polygon.polygon.2.1.1" points="126.8,244.64 125.23,247.51 123.65,250.38 122.07,253.24 120.5,256.11 118.92,258.98 117.35,261.84 115.77,264.71 114.19,267.58 112.62,270.44 111.04,273.31 109.47,276.18 107.89,279.04 106.32,281.91 104.74,284.78 103.16,287.64 101.59,290.51 100.01,293.38 98.44,296.24 96.86,299.11 95.28,301.98 93.71,304.84 92.13,307.71 90.56,310.58 88.98,313.44 87.4,316.31 85.83,319.18 84.25,322.04 82.68,324.91 81.1,327.78 78.3,326.17 75.56,324.48 72.87,322.69 70.25,320.81 67.69,318.84 65.2,316.79 62.79,314.66 60.44,312.44 58.18,310.14 55.99,307.77 53.89,305.33 51.86,302.82 49.93,300.23 48.08,297.59 46.33,294.88 44.67,292.12 43.1,289.3 41.63,286.43 40.26,283.51 38.99,280.54 37.82,277.54 36.75,274.49 35.79,271.41 34.93,268.3 34.18,265.17 33.54,262.01 33,258.83 32.57,255.63 32.25,252.42 32.05,249.2 31.95,245.98 31.95,242.75 32.07,239.53 32.3,236.31 32.64,233.1 33.09,229.91 33.64,226.73 34.31,223.57 35.08,220.44 35.95,217.34 36.93,214.26 38.02,211.23 39.2,208.23 40.49,205.27 41.88,202.36 43.37,199.49 44.95,196.68 46.63,193.93 48.4,191.23 50.26,188.6 52.21,186.03 54.25,183.53 56.37,181.1 58.57,178.74 60.85,176.46 63.2,174.25 65.63,172.13 68.13,170.09 70.7,168.14 73.33,166.28 76.03,164.51 78.78,162.83 81.59,161.24 84.45,159.75 87.36,158.36 90.32,157.07 93.32,155.88 96.36,154.8 99.43,153.81 102.53,152.93 105.66,152.16 108.82,151.5 112,150.94 115.19,150.49 118.4,150.15 121.62,149.92 124.84,149.8 128.06,149.79 131.29,149.88 134.51,150.09 137.72,150.41 140.91,150.83 144.1,151.37 147.26,152.01 150.39,152.76 153.5,153.61 156.58,154.57 159.63,155.64 162.64,156.8 165.6,158.07 168.52,159.44 171.39,160.91 174.22,162.47 176.98,164.13 179.69,165.89 182.34,167.73 184.92,169.66 187.43,171.68 189.88,173.79 192.25,175.97 194.55,178.24 196.77,180.58 198.91,182.99 200.96,185.48 202.93,188.03 204.81,190.66 206.6,193.34 208.3,196.08 209.9,198.88 211.41,201.73 212.82,204.63 214.13,207.58 215.34,210.57 216.45,213.6 217.45,216.66 218.35,219.76 219.14,222.89 219.83,226.04 220.41,229.21 220.88,232.41 221.24,235.61 221.49,238.83 221.63,242.05 221.67,245.27 221.59,248.5 221.4,251.72 221.11,254.93 220.7,258.13 220.19,261.32 219.57,264.48 218.84,267.62 218.01,270.74 217.07,273.83 216.02,276.88 214.88,279.89 213.63,282.87 212.28,285.8 210.83,288.68 209.28,291.51 207.64,294.29 205.91,297.01 204.08,299.66 202.17,302.26 200.17,304.79 198.08,307.25 195.91,309.63 193.66,311.95 191.33,314.18 188.93,316.33 186.46,318.4 183.92,320.39 181.31,322.29 178.64,324.1 175.91,325.81 173.12,327.44 170.28,328.96 167.38,330.39 164.45,331.72 161.46,332.95 158.44,334.08 155.38,335.1 152.29,336.02 149.17,336.83 146.02,337.54 142.85,338.14 139.67,338.63 136.46,339.02 133.25,339.29 130.03,339.45 126.8,339.51 126.8,336.24 126.8,332.97 126.8,329.7 126.8,326.42 126.8,323.15 126.8,319.88 126.8,316.61 126.8,313.34 126.8,310.07 126.8,306.8 126.8,303.53 126.8,300.25 126.8,296.98 126.8,293.71 126.8,290.44 126.8,287.17 126.8,283.9 126.8,280.63 126.8,277.36 126.8,274.08 126.8,270.81 126.8,267.54 126.8,264.27 126.8,261 126.8,257.73 126.8,254.46 126.8,251.19 126.8,247.91 126.8,244.64 126.8,244.64" stroke="none" fill="rgb(231,107,243)" stroke-width="1.07" stroke-dasharray="none" stroke-opacity="0" fill-opacity="1"/>
                </g>
                <g id="geom_polygon.polygon.4.1" class="polygon grob gDesc">
                  <polygon id="geom_polygon.polygon.4.1.1" points="126.8,244.64 125.6,247.68 124.39,250.73 123.19,253.77 121.99,256.81 120.78,259.85 119.58,262.89 118.37,265.93 117.17,268.98 115.96,272.02 114.76,275.06 113.56,278.1 112.35,281.14 111.15,284.18 109.94,287.22 108.74,290.27 107.53,293.31 106.33,296.35 105.13,299.39 103.92,302.43 102.72,305.47 101.51,308.52 100.31,311.56 99.1,314.6 97.9,317.64 96.7,320.68 95.49,323.72 94.29,326.76 93.08,329.81 91.88,332.85 88.22,331.31 84.62,329.62 81.1,327.78 82.68,324.91 84.25,322.04 85.83,319.18 87.4,316.31 88.98,313.44 90.56,310.58 92.13,307.71 93.71,304.84 95.28,301.98 96.86,299.11 98.44,296.24 100.01,293.38 101.59,290.51 103.16,287.64 104.74,284.78 106.32,281.91 107.89,279.04 109.47,276.18 111.04,273.31 112.62,270.44 114.19,267.58 115.77,264.71 117.35,261.84 118.92,258.98 120.5,256.11 122.07,253.24 123.65,250.38 125.23,247.51 126.8,244.64 126.8,244.64" stroke="none" fill="rgb(0,176,246)" stroke-width="1.07" stroke-dasharray="none" stroke-opacity="0" fill-opacity="1"/>
                </g>
                <g id="geom_polygon.polygon.6.1" class="polygon grob gDesc">
                  <polygon id="geom_polygon.polygon.6.1.1" points="126.8,244.64 125.99,247.81 125.18,250.98 124.36,254.15 123.55,257.32 122.73,260.49 121.92,263.65 121.11,266.82 120.29,269.99 119.48,273.16 118.67,276.33 117.85,279.5 117.04,282.66 116.23,285.83 115.41,289 114.6,292.17 113.79,295.34 112.97,298.51 112.16,301.68 111.35,304.84 110.53,308.01 109.72,311.18 108.9,314.35 108.09,317.52 107.28,320.69 106.46,323.86 105.65,327.02 104.84,330.19 104.02,333.36 103.21,336.53 99.38,335.46 95.6,334.23 91.88,332.85 93.08,329.81 94.29,326.76 95.49,323.72 96.7,320.68 97.9,317.64 99.1,314.6 100.31,311.56 101.51,308.52 102.72,305.47 103.92,302.43 105.13,299.39 106.33,296.35 107.53,293.31 108.74,290.27 109.94,287.22 111.15,284.18 112.35,281.14 113.56,278.1 114.76,275.06 115.96,272.02 117.17,268.98 118.37,265.93 119.58,262.89 120.78,259.85 121.99,256.81 123.19,253.77 124.39,250.73 125.6,247.68 126.8,244.64 126.8,244.64" stroke="none" fill="rgb(0,191,125)" stroke-width="1.07" stroke-dasharray="none" stroke-opacity="0" fill-opacity="1"/>
                </g>
                <g id="geom_polygon.polygon.8.1" class="polygon grob gDesc">
                  <polygon id="geom_polygon.polygon.8.1.1" points="126.8,244.64 126.39,247.89 125.98,251.13 125.57,254.38 125.16,257.62 124.75,260.87 124.34,264.12 123.93,267.36 123.52,270.61 123.11,273.85 122.7,277.1 122.29,280.34 121.88,283.59 121.47,286.83 121.06,290.08 120.65,293.33 120.24,296.57 119.83,299.82 119.42,303.06 119.01,306.31 118.6,309.55 118.19,312.8 117.78,316.04 117.37,319.29 116.96,322.53 116.55,325.78 116.14,329.03 115.73,332.27 115.32,335.52 114.91,338.76 110.98,338.18 107.08,337.44 103.21,336.53 104.02,333.36 104.84,330.19 105.65,327.02 106.46,323.86 107.28,320.69 108.09,317.52 108.9,314.35 109.72,311.18 110.53,308.01 111.35,304.84 112.16,301.68 112.97,298.51 113.79,295.34 114.6,292.17 115.41,289 116.23,285.83 117.04,282.66 117.85,279.5 118.67,276.33 119.48,273.16 120.29,269.99 121.11,266.82 121.92,263.65 122.73,260.49 123.55,257.32 124.36,254.15 125.18,250.98 125.99,247.81 126.8,244.64 126.8,244.64" stroke="none" fill="rgb(163,165,0)" stroke-width="1.07" stroke-dasharray="none" stroke-opacity="0" fill-opacity="1"/>
                </g>
                <g id="geom_polygon.polygon.10.1" class="polygon grob gDesc">
                  <polygon id="geom_polygon.polygon.10.1.1" points="126.8,244.64 126.8,247.91 126.8,251.19 126.8,254.46 126.8,257.73 126.8,261 126.8,264.27 126.8,267.54 126.8,270.81 126.8,274.08 126.8,277.36 126.8,280.63 126.8,283.9 126.8,287.17 126.8,290.44 126.8,293.71 126.8,296.98 126.8,300.25 126.8,303.53 126.8,306.8 126.8,310.07 126.8,313.34 126.8,316.61 126.8,319.88 126.8,323.15 126.8,326.42 126.8,329.7 126.8,332.97 126.8,336.24 126.8,339.51 122.83,339.43 118.86,339.18 114.91,338.76 115.32,335.52 115.73,332.27 116.14,329.03 116.55,325.78 116.96,322.53 117.37,319.29 117.78,316.04 118.19,312.8 118.6,309.55 119.01,306.31 119.42,303.06 119.83,299.82 120.24,296.57 120.65,293.33 121.06,290.08 121.47,286.83 121.88,283.59 122.29,280.34 122.7,277.1 123.11,273.85 123.52,270.61 123.93,267.36 124.34,264.12 124.75,260.87 125.16,257.62 125.57,254.38 125.98,251.13 126.39,247.89 126.8,244.64 126.8,244.64" stroke="none" fill="rgb(248,118,109)" stroke-width="1.07" stroke-dasharray="none" stroke-opacity="0" fill-opacity="1"/>
                </g>
              </g>
              <g id="GRID.text.13.1" class="text grob gDesc">
                <g id="GRID.text.13.1.1" transform="translate(138.6, 198.7)" stroke-width="0.1">
                  <g id="GRID.text.13.1.1.scale" transform="scale(1, -1)">
                    <text x="0" y="0" id="GRID.text.13.1.1.text" text-anchor="middle" stroke="rgb(0,0,0)" font-size="11.04" font-family="Helvetica, Arial, FreeSans, Liberation Sans, Nimbus Sans L, sans-serif" fill="rgb(0,0,0)" stroke-opacity="1" fill-opacity="1" font-weight="normal" font-style="normal">
                      <tspan id="GRID.text.13.1.1.tspan.1" dy="3.95" x="0">46</tspan>
                    </text>
                  </g>
                </g>
                <g id="GRID.text.13.1.2" transform="translate(106.61, 287.56)" stroke-width="0.1">
                  <g id="GRID.text.13.1.2.scale" transform="scale(1, -1)">
                    <text x="0" y="0" id="GRID.text.13.1.2.text" text-anchor="middle" stroke="rgb(0,0,0)" font-size="11.04" font-family="Helvetica, Arial, FreeSans, Liberation Sans, Nimbus Sans L, sans-serif" fill="rgb(0,0,0)" stroke-opacity="1" fill-opacity="1" font-weight="normal" font-style="normal">
                      <tspan id="GRID.text.13.1.2.tspan.1" dy="3.95" x="0">1</tspan>
                    </text>
                  </g>
                </g>
                <g id="GRID.text.13.1.3" transform="translate(112.14, 289.75)" stroke-width="0.1">
                  <g id="GRID.text.13.1.3.scale" transform="scale(1, -1)">
                    <text x="0" y="0" id="GRID.text.13.1.3.text" text-anchor="middle" stroke="rgb(0,0,0)" font-size="11.04" font-family="Helvetica, Arial, FreeSans, Liberation Sans, Nimbus Sans L, sans-serif" fill="rgb(0,0,0)" stroke-opacity="1" fill-opacity="1" font-weight="normal" font-style="normal">
                      <tspan id="GRID.text.13.1.3.tspan.1" dy="3.95" x="0">1</tspan>
                    </text>
                  </g>
                </g>
                <g id="GRID.text.13.1.4" transform="translate(117.91, 291.24)" stroke-width="0.1">
                  <g id="GRID.text.13.1.4.scale" transform="scale(1, -1)">
                    <text x="0" y="0" id="GRID.text.13.1.4.text" text-anchor="middle" stroke="rgb(0,0,0)" font-size="11.04" font-family="Helvetica, Arial, FreeSans, Liberation Sans, Nimbus Sans L, sans-serif" fill="rgb(0,0,0)" stroke-opacity="1" fill-opacity="1" font-weight="normal" font-style="normal">
                      <tspan id="GRID.text.13.1.4.tspan.1" dy="3.95" x="0">1</tspan>
                    </text>
                  </g>
                </g>
                <g id="GRID.text.13.1.5" transform="translate(123.82, 291.98)" stroke-width="0.1">
                  <g id="GRID.text.13.1.5.scale" transform="scale(1, -1)">
                    <text x="0" y="0" id="GRID.text.13.1.5.text" text-anchor="middle" stroke="rgb(0,0,0)" font-size="11.04" font-family="Helvetica, Arial, FreeSans, Liberation Sans, Nimbus Sans L, sans-serif" fill="rgb(0,0,0)" stroke-opacity="1" fill-opacity="1" font-weight="normal" font-style="normal">
                      <tspan id="GRID.text.13.1.5.tspan.1" dy="3.95" x="0">1</tspan>
                    </text>
                  </g>
                </g>
              </g>
              <g id="GRID.gTree.14.1" class="gTree grob gDesc"/>
            </g>
          </g>
          <g id="layout::spacer.8-6-8-6.1" class="viewport"/>
          <g id="layout::spacer.8-4-8-4.1" class="viewport"/>
          <g id="layout::spacer.6-6-6-6.1" class="viewport"/>
          <g id="layout::spacer.6-4-6-4.1" class="viewport"/>
          <g id="layout::axis-t.6-5-6-5.1" class="viewport"/>
          <g id="layout::axis-l.7-4-7-4.1" class="viewport">
            <g id="layout::axis-l.7-4-7-4::GRID.VP.2.1" class="viewport">
              <g id="axis-l.7-4-7-4.1" class="forcedgrob gTableChild absoluteGrob gTree grob gDesc">
                <g id="layout::axis-l.7-4-7-4::GRID.VP.2::axis.1" class="viewport">
                  <g id="axis.1" class="forcedgrob gtable gTree grob gDesc">
                    <g id="layout::axis-l.7-4-7-4::GRID.VP.2::axis::axis.1-1-1-1.1" class="viewport"/>
                    <g id="layout::axis-l.7-4-7-4::GRID.VP.2::axis::axis.1-2-1-2.1" class="viewport"/>
                  </g>
                </g>
              </g>
            </g>
          </g>
          <g id="layout::axis-r.7-6-7-6.1" class="viewport"/>
          <g id="layout::axis-b.8-5-8-5.1" class="viewport">
            <g id="layout::axis-b.8-5-8-5::GRID.VP.1.1" class="viewport">
              <g id="axis-b.8-5-8-5.1" class="forcedgrob gTableChild absoluteGrob gTree grob gDesc">
                <g id="layout::axis-b.8-5-8-5::GRID.VP.1::axis.1" class="viewport">
                  <g id="axis.2" class="forcedgrob gtable gTree grob gDesc">
                    <g id="layout::axis-b.8-5-8-5::GRID.VP.1::axis::axis.1-1-1-1.1" class="viewport"/>
                    <g id="layout::axis-b.8-5-8-5::GRID.VP.1::axis::axis.2-1-2-1.1" class="viewport"/>
                  </g>
                </g>
              </g>
            </g>
          </g>
          <g id="layout::xlab-t.5-5-5-5.1" class="viewport"/>
          <g id="layout::xlab-b.9-5-9-5.1" class="viewport"/>
          <g id="layout::ylab-l.7-3-7-3.1" class="viewport"/>
          <g id="layout::ylab-r.7-7-7-7.1" class="viewport"/>
          <g id="layout::guide-box.7-9-7-9.1" class="viewport">
            <g id="layout::guide-box.7-9-7-9::GRID.VP.19.1" class="viewport">
              <g id="layout::guide-box.7-9-7-9::GRID.VP.19::guide-box.7-9-7-9.1" class="viewport">
                <g id="guide-box.7-9-7-9.1" class="forcedgrob gTableChild gtable gTree grob gDesc">
                  <g id="layout::guide-box.7-9-7-9::GRID.VP.19::guide-box.7-9-7-9::legend.box.background.2-4-4-2.1" class="viewport"/>
                  <g id="layout::guide-box.7-9-7-9::GRID.VP.19::guide-box.7-9-7-9::guides.3-3-3-3.1" class="viewport">
                    <g id="layout::guide-box.7-9-7-9::GRID.VP.19::guide-box.7-9-7-9::guides.3-3-3-3::GRID.VP.18.1" class="viewport">
                      <g id="layout::guide-box.7-9-7-9::GRID.VP.19::guide-box.7-9-7-9::guides.3-3-3-3::GRID.VP.18::guides.3-3-3-3.1" class="viewport">
                        <g id="guides.3-3-3-3.1" class="forcedgrob gTableChild gtable gTree grob gDesc">
                          <g id="layout::guide-box.7-9-7-9::GRID.VP.19::guide-box.7-9-7-9::guides.3-3-3-3::GRID.VP.18::guides.3-3-3-3::background.1-6-9-1.1" class="viewport">
                            <g id="background.1-6-9-1.1" class="forcedgrob gTableChild rect grob gDesc">
                              <rect id="background.1-6-9-1.1.1" x="256.34" y="193.22" width="242.18" height="102.84" transform="" stroke-width="1.07" stroke="none" fill="rgb(255,255,255)" stroke-dasharray="none" stroke-opacity="0" fill-opacity="1"/>
                            </g>
                          </g>
                          <g id="layout::guide-box.7-9-7-9::GRID.VP.19::guide-box.7-9-7-9::guides.3-3-3-3::GRID.VP.18::guides.3-3-3-3::title.2-5-2-2.1" class="viewport"/>
                          <g id="layout::guide-box.7-9-7-9::GRID.VP.19::guide-box.7-9-7-9::guides.3-3-3-3::GRID.VP.18::guides.3-3-3-3::key-3-1-bg.4-2-4-2.1" class="viewport"/>
                          <g id="layout::guide-box.7-9-7-9::GRID.VP.19::guide-box.7-9-7-9::guides.3-3-3-3::GRID.VP.18::guides.3-3-3-3::key-3-1-1.4-2-4-2.1" class="viewport">
                            <g id="key-3-1-1.4-2-4-2.1" class="forcedgrob gTableChild rect grob gDesc">
                              <rect id="key-3-1-1.4-2-4-2.1.1" x="262.53" y="268.53" width="15.86" height="15.86" transform="" stroke="none" fill="rgb(248,118,109)" stroke-dasharray="none" stroke-width="1.07" stroke-linejoin="miter" stroke-opacity="0" fill-opacity="1"/>
                            </g>
                          </g>
                          <g id="layout::guide-box.7-9-7-9::GRID.VP.19::guide-box.7-9-7-9::guides.3-3-3-3::GRID.VP.18::guides.3-3-3-3::key-4-1-bg.5-2-5-2.1" class="viewport"/>
                          <g id="layout::guide-box.7-9-7-9::GRID.VP.19::guide-box.7-9-7-9::guides.3-3-3-3::GRID.VP.18::guides.3-3-3-3::key-4-1-1.5-2-5-2.1" class="viewport">
                            <g id="key-4-1-1.5-2-5-2.1" class="forcedgrob gTableChild rect grob gDesc">
                              <rect id="key-4-1-1.5-2-5-2.1.1" x="262.53" y="251.25" width="15.86" height="15.86" transform="" stroke="none" fill="rgb(163,165,0)" stroke-dasharray="none" stroke-width="1.07" stroke-linejoin="miter" stroke-opacity="0" fill-opacity="1"/>
                            </g>
                          </g>
                          <g id="layout::guide-box.7-9-7-9::GRID.VP.19::guide-box.7-9-7-9::guides.3-3-3-3::GRID.VP.18::guides.3-3-3-3::key-5-1-bg.6-2-6-2.1" class="viewport"/>
                          <g id="layout::guide-box.7-9-7-9::GRID.VP.19::guide-box.7-9-7-9::guides.3-3-3-3::GRID.VP.18::guides.3-3-3-3::key-5-1-1.6-2-6-2.1" class="viewport">
                            <g id="key-5-1-1.6-2-6-2.1" class="forcedgrob gTableChild rect grob gDesc">
                              <rect id="key-5-1-1.6-2-6-2.1.1" x="262.53" y="233.97" width="15.86" height="15.86" transform="" stroke="none" fill="rgb(0,191,125)" stroke-dasharray="none" stroke-width="1.07" stroke-linejoin="miter" stroke-opacity="0" fill-opacity="1"/>
                            </g>
                          </g>
                          <g id="layout::guide-box.7-9-7-9::GRID.VP.19::guide-box.7-9-7-9::guides.3-3-3-3::GRID.VP.18::guides.3-3-3-3::key-6-1-bg.7-2-7-2.1" class="viewport"/>
                          <g id="layout::guide-box.7-9-7-9::GRID.VP.19::guide-box.7-9-7-9::guides.3-3-3-3::GRID.VP.18::guides.3-3-3-3::key-6-1-1.7-2-7-2.1" class="viewport">
                            <g id="key-6-1-1.7-2-7-2.1" class="forcedgrob gTableChild rect grob gDesc">
                              <rect id="key-6-1-1.7-2-7-2.1.1" x="262.53" y="216.69" width="15.86" height="15.86" transform="" stroke="none" fill="rgb(0,176,246)" stroke-dasharray="none" stroke-width="1.07" stroke-linejoin="miter" stroke-opacity="0" fill-opacity="1"/>
                            </g>
                          </g>
                          <g id="layout::guide-box.7-9-7-9::GRID.VP.19::guide-box.7-9-7-9::guides.3-3-3-3::GRID.VP.18::guides.3-3-3-3::key-7-1-bg.8-2-8-2.1" class="viewport"/>
                          <g id="layout::guide-box.7-9-7-9::GRID.VP.19::guide-box.7-9-7-9::guides.3-3-3-3::GRID.VP.18::guides.3-3-3-3::key-7-1-1.8-2-8-2.1" class="viewport">
                            <g id="key-7-1-1.8-2-8-2.1" class="forcedgrob gTableChild rect grob gDesc">
                              <rect id="key-7-1-1.8-2-8-2.1.1" x="262.53" y="199.41" width="15.86" height="15.86" transform="" stroke="none" fill="rgb(231,107,243)" stroke-dasharray="none" stroke-width="1.07" stroke-linejoin="miter" stroke-opacity="0" fill-opacity="1"/>
                            </g>
                          </g>
                          <g id="layout::guide-box.7-9-7-9::GRID.VP.19::guide-box.7-9-7-9::guides.3-3-3-3::GRID.VP.18::guides.3-3-3-3::label-3-3.4-4-4-4.1" class="viewport">
                            <g id="layout::guide-box.7-9-7-9::GRID.VP.19::guide-box.7-9-7-9::guides.3-3-3-3::GRID.VP.18::guides.3-3-3-3::label-3-3.4-4-4-4::GRID.VP.13.1" class="viewport">
                              <g id="label-3-3.4-4-4-4.1" class="forcedgrob gTableChild gTree grob gDesc">
                                <g id="layout::guide-box.7-9-7-9::GRID.VP.19::guide-box.7-9-7-9::guides.3-3-3-3::GRID.VP.18::guides.3-3-3-3::label-3-3.4-4-4-4::GRID.VP.13::GRID.VP.3.1" font-size="8.8" stroke="rgb(0,0,0)" font-family="Helvetica, Arial, FreeSans, Liberation Sans, Nimbus Sans L, sans-serif" stroke-opacity="1" font-weight="normal" font-style="normal" class="viewport">
                                  <g id="layout::guide-box.7-9-7-9::GRID.VP.19::guide-box.7-9-7-9::guides.3-3-3-3::GRID.VP.18::guides.3-3-3-3::label-3-3.4-4-4-4::GRID.VP.13::GRID.VP.3::GRID.VP.4.1" class="viewport">
                                    <g id="guide.label.titleGrob.37.1" class="titleGrob gTree grob gDesc">
                                      <g id="GRID.text.35.1" class="text grob gDesc">
                                        <g id="GRID.text.35.1.1" transform="translate(284.58, 276.46)" stroke-width="0.1">
                                          <g id="GRID.text.35.1.1.scale" transform="scale(1, -1)">
                                            <text x="0" y="0" id="GRID.text.35.1.1.text" text-anchor="start" font-size="8.8" stroke="rgb(0,0,0)" font-family="Helvetica, Arial, FreeSans, Liberation Sans, Nimbus Sans L, sans-serif" fill="rgb(0,0,0)" stroke-opacity="1" fill-opacity="1" font-weight="normal" font-style="normal">
                                              <tspan id="GRID.text.35.1.1.tspan.1" dy="3.23" x="0">social network (1)</tspan>
                                            </text>
                                          </g>
                                        </g>
                                      </g>
                                    </g>
                                  </g>
                                </g>
                              </g>
                            </g>
                          </g>
                          <g id="layout::guide-box.7-9-7-9::GRID.VP.19::guide-box.7-9-7-9::guides.3-3-3-3::GRID.VP.18::guides.3-3-3-3::label-4-3.5-4-5-4.1" class="viewport">
                            <g id="layout::guide-box.7-9-7-9::GRID.VP.19::guide-box.7-9-7-9::guides.3-3-3-3::GRID.VP.18::guides.3-3-3-3::label-4-3.5-4-5-4::GRID.VP.14.1" class="viewport">
                              <g id="label-4-3.5-4-5-4.1" class="forcedgrob gTableChild gTree grob gDesc">
                                <g id="layout::guide-box.7-9-7-9::GRID.VP.19::guide-box.7-9-7-9::guides.3-3-3-3::GRID.VP.18::guides.3-3-3-3::label-4-3.5-4-5-4::GRID.VP.14::GRID.VP.5.1" font-size="8.8" stroke="rgb(0,0,0)" font-family="Helvetica, Arial, FreeSans, Liberation Sans, Nimbus Sans L, sans-serif" stroke-opacity="1" font-weight="normal" font-style="normal" class="viewport">
                                  <g id="layout::guide-box.7-9-7-9::GRID.VP.19::guide-box.7-9-7-9::guides.3-3-3-3::GRID.VP.18::guides.3-3-3-3::label-4-3.5-4-5-4::GRID.VP.14::GRID.VP.5::GRID.VP.6.1" class="viewport">
                                    <g id="guide.label.titleGrob.40.1" class="titleGrob gTree grob gDesc">
                                      <g id="GRID.text.38.1" class="text grob gDesc">
                                        <g id="GRID.text.38.1.1" transform="translate(284.58, 259.18)" stroke-width="0.1">
                                          <g id="GRID.text.38.1.1.scale" transform="scale(1, -1)">
                                            <text x="0" y="0" id="GRID.text.38.1.1.text" text-anchor="start" font-size="8.8" stroke="rgb(0,0,0)" font-family="Helvetica, Arial, FreeSans, Liberation Sans, Nimbus Sans L, sans-serif" fill="rgb(0,0,0)" stroke-opacity="1" fill-opacity="1" font-weight="normal" font-style="normal">
                                              <tspan id="GRID.text.38.1.1.tspan.1" dy="3.23" x="0">Utilizzo principalmente i vari dispositivi per studio (1)</tspan>
                                            </text>
                                          </g>
                                        </g>
                                      </g>
                                    </g>
                                  </g>
                                </g>
                              </g>
                            </g>
                          </g>
                          <g id="layout::guide-box.7-9-7-9::GRID.VP.19::guide-box.7-9-7-9::guides.3-3-3-3::GRID.VP.18::guides.3-3-3-3::label-5-3.6-4-6-4.1" class="viewport">
                            <g id="layout::guide-box.7-9-7-9::GRID.VP.19::guide-box.7-9-7-9::guides.3-3-3-3::GRID.VP.18::guides.3-3-3-3::label-5-3.6-4-6-4::GRID.VP.15.1" class="viewport">
                              <g id="label-5-3.6-4-6-4.1" class="forcedgrob gTableChild gTree grob gDesc">
                                <g id="layout::guide-box.7-9-7-9::GRID.VP.19::guide-box.7-9-7-9::guides.3-3-3-3::GRID.VP.18::guides.3-3-3-3::label-5-3.6-4-6-4::GRID.VP.15::GRID.VP.7.1" font-size="8.8" stroke="rgb(0,0,0)" font-family="Helvetica, Arial, FreeSans, Liberation Sans, Nimbus Sans L, sans-serif" stroke-opacity="1" font-weight="normal" font-style="normal" class="viewport">
                                  <g id="layout::guide-box.7-9-7-9::GRID.VP.19::guide-box.7-9-7-9::guides.3-3-3-3::GRID.VP.18::guides.3-3-3-3::label-5-3.6-4-6-4::GRID.VP.15::GRID.VP.7::GRID.VP.8.1" class="viewport">
                                    <g id="guide.label.titleGrob.43.1" class="titleGrob gTree grob gDesc">
                                      <g id="GRID.text.41.1" class="text grob gDesc">
                                        <g id="GRID.text.41.1.1" transform="translate(284.58, 241.9)" stroke-width="0.1">
                                          <g id="GRID.text.41.1.1.scale" transform="scale(1, -1)">
                                            <text x="0" y="0" id="GRID.text.41.1.1.text" text-anchor="start" font-size="8.8" stroke="rgb(0,0,0)" font-family="Helvetica, Arial, FreeSans, Liberation Sans, Nimbus Sans L, sans-serif" fill="rgb(0,0,0)" stroke-opacity="1" fill-opacity="1" font-weight="normal" font-style="normal">
                                              <tspan id="GRID.text.41.1.1.tspan.1" dy="3.23" x="0">Shopping  (1)</tspan>
                                            </text>
                                          </g>
                                        </g>
                                      </g>
                                    </g>
                                  </g>
                                </g>
                              </g>
                            </g>
                          </g>
                          <g id="layout::guide-box.7-9-7-9::GRID.VP.19::guide-box.7-9-7-9::guides.3-3-3-3::GRID.VP.18::guides.3-3-3-3::label-6-3.7-4-7-4.1" class="viewport">
                            <g id="layout::guide-box.7-9-7-9::GRID.VP.19::guide-box.7-9-7-9::guides.3-3-3-3::GRID.VP.18::guides.3-3-3-3::label-6-3.7-4-7-4::GRID.VP.16.1" class="viewport">
                              <g id="label-6-3.7-4-7-4.1" class="forcedgrob gTableChild gTree grob gDesc">
                                <g id="layout::guide-box.7-9-7-9::GRID.VP.19::guide-box.7-9-7-9::guides.3-3-3-3::GRID.VP.18::guides.3-3-3-3::label-6-3.7-4-7-4::GRID.VP.16::GRID.VP.9.1" font-size="8.8" stroke="rgb(0,0,0)" font-family="Helvetica, Arial, FreeSans, Liberation Sans, Nimbus Sans L, sans-serif" stroke-opacity="1" font-weight="normal" font-style="normal" class="viewport">
                                  <g id="layout::guide-box.7-9-7-9::GRID.VP.19::guide-box.7-9-7-9::guides.3-3-3-3::GRID.VP.18::guides.3-3-3-3::label-6-3.7-4-7-4::GRID.VP.16::GRID.VP.9::GRID.VP.10.1" class="viewport">
                                    <g id="guide.label.titleGrob.46.1" class="titleGrob gTree grob gDesc">
                                      <g id="GRID.text.44.1" class="text grob gDesc">
                                        <g id="GRID.text.44.1.1" transform="translate(284.58, 224.62)" stroke-width="0.1">
                                          <g id="GRID.text.44.1.1.scale" transform="scale(1, -1)">
                                            <text x="0" y="0" id="GRID.text.44.1.1.text" text-anchor="start" font-size="8.8" stroke="rgb(0,0,0)" font-family="Helvetica, Arial, FreeSans, Liberation Sans, Nimbus Sans L, sans-serif" fill="rgb(0,0,0)" stroke-opacity="1" fill-opacity="1" font-weight="normal" font-style="normal">
                                              <tspan id="GRID.text.44.1.1.tspan.1" dy="3.23" x="0">Leggere (1)</tspan>
                                            </text>
                                          </g>
                                        </g>
                                      </g>
                                    </g>
                                  </g>
                                </g>
                              </g>
                            </g>
                          </g>
                          <g id="layout::guide-box.7-9-7-9::GRID.VP.19::guide-box.7-9-7-9::guides.3-3-3-3::GRID.VP.18::guides.3-3-3-3::label-7-3.8-4-8-4.1" class="viewport">
                            <g id="layout::guide-box.7-9-7-9::GRID.VP.19::guide-box.7-9-7-9::guides.3-3-3-3::GRID.VP.18::guides.3-3-3-3::label-7-3.8-4-8-4::GRID.VP.17.1" class="viewport">
                              <g id="label-7-3.8-4-8-4.1" class="forcedgrob gTableChild gTree grob gDesc">
                                <g id="layout::guide-box.7-9-7-9::GRID.VP.19::guide-box.7-9-7-9::guides.3-3-3-3::GRID.VP.18::guides.3-3-3-3::label-7-3.8-4-8-4::GRID.VP.17::GRID.VP.11.1" font-size="8.8" stroke="rgb(0,0,0)" font-family="Helvetica, Arial, FreeSans, Liberation Sans, Nimbus Sans L, sans-serif" stroke-opacity="1" font-weight="normal" font-style="normal" class="viewport">
                                  <g id="layout::guide-box.7-9-7-9::GRID.VP.19::guide-box.7-9-7-9::guides.3-3-3-3::GRID.VP.18::guides.3-3-3-3::label-7-3.8-4-8-4::GRID.VP.17::GRID.VP.11::GRID.VP.12.1" class="viewport">
                                    <g id="guide.label.titleGrob.49.1" class="titleGrob gTree grob gDesc">
                                      <g id="GRID.text.47.1" class="text grob gDesc">
                                        <g id="GRID.text.47.1.1" transform="translate(284.58, 207.34)" stroke-width="0.1">
                                          <g id="GRID.text.47.1.1.scale" transform="scale(1, -1)">
                                            <text x="0" y="0" id="GRID.text.47.1.1.text" text-anchor="start" font-size="8.8" stroke="rgb(0,0,0)" font-family="Helvetica, Arial, FreeSans, Liberation Sans, Nimbus Sans L, sans-serif" fill="rgb(0,0,0)" stroke-opacity="1" fill-opacity="1" font-weight="normal" font-style="normal">
                                              <tspan id="GRID.text.47.1.1.tspan.1" dy="3.23" x="0">NA (46)</tspan>
                                            </text>
                                          </g>
                                        </g>
                                      </g>
                                    </g>
                                  </g>
                                </g>
                              </g>
                            </g>
                          </g>
                        </g>
                      </g>
                    </g>
                  </g>
                </g>
              </g>
            </g>
          </g>
          <g id="layout::subtitle.4-5-4-5.1" class="viewport"/>
          <g id="layout::title.3-5-3-5.1" class="viewport">
            <g id="layout::title.3-5-3-5::GRID.VP.20.1" font-size="13.2" stroke="rgb(102,102,102)" font-family="Helvetica, Arial, FreeSans, Liberation Sans, Nimbus Sans L, sans-serif" stroke-opacity="1" font-weight="normal" font-style="normal" class="viewport">
              <g id="layout::title.3-5-3-5::GRID.VP.20::GRID.VP.21.1" class="viewport">
                <g id="title.3-5-3-5.1" class="forcedgrob gTableChild titleGrob gTree grob gDesc">
                  <g id="GRID.text.67.1" class="text grob gDesc">
                    <g id="GRID.text.67.1.1" transform="translate(126.8, 380.68)" stroke-width="0.1">
                      <g id="GRID.text.67.1.1.scale" transform="scale(1, -1)">
                        <text x="0" y="0" id="GRID.text.67.1.1.text" text-anchor="middle" font-size="13.2" stroke="rgb(102,102,102)" font-family="Helvetica, Arial, FreeSans, Liberation Sans, Nimbus Sans L, sans-serif" fill="rgb(102,102,102)" stroke-opacity="1" fill-opacity="1" font-weight="normal" font-style="normal">
                          <tspan id="GRID.text.67.1.1.tspan.1" dy="9.33" x="0">anagrafica altroattivita</tspan>
                        </text>
                      </g>
                    </g>
                  </g>
                </g>
              </g>
            </g>
          </g>
          <g id="layout::caption.10-5-10-5.1" class="viewport"/>
          <g id="layout::tag.2-2-2-2.1" class="viewport"/>
        </g>
      </g>
    </g>
  </g>
</svg>