<?xml version="1.0" encoding="UTF-8"?>
<svg xmlns="http://www.w3.org/2000/svg" xmlns:xlink="http://www.w3.org/1999/xlink" width="504px" height="504px" viewBox="0 0 504 504" version="1.1">
  <metadata xmlns:gridsvg="http://www.stat.auckland.ac.nz/~paul/R/gridSVG/">
    <gridsvg:generator name="gridSVG" version="1.6-0" time="2019-01-18 23:17:13"/>
    <gridsvg:argument name="name" value="./latest_informaggio_csv/anziani/risultati/svg/anagrafica-altroos.svg"/>
    <gridsvg:argument name="exportCoords" value="none"/>
    <gridsvg:argument name="exportMappings" value="none"/>
    <gridsvg:argument name="exportJS" value="none"/>
    <gridsvg:argument name="res" value="72"/>
    <gridsvg:argument name="prefix" value=""/>
    <gridsvg:argument name="addClasses" value="TRUE"/>
    <gridsvg:argument name="indent" value="TRUE"/>
    <gridsvg:argument name="htmlWrapper" value="FALSE"/>
    <gridsvg:argument name="usePaths" value="vpPaths"/>
    <gridsvg:argument name="uniqueNames" value="TRUE"/>
    <gridsvg:separator name="id.sep" value="."/>
    <gridsvg:separator name="gPath.sep" value="::"/>
    <gridsvg:separator name="vpPath.sep" value="::"/>
  </metadata>
  <g transform="translate(0, 504) scale(1, -1)">
    <g id="gridSVG" fill="none" stroke="rgb(0,0,0)" stroke-dasharray="none" stroke-width="0.75" font-size="12" font-family="Helvetica, Arial, FreeSans, Liberation Sans, Nimbus Sans L, sans-serif" opacity="1" stroke-linecap="round" stroke-linejoin="round" stroke-miterlimit="10" stroke-opacity="1" fill-opacity="0" font-weight="normal" font-style="normal">
      <g id="layout.1" class="viewport">
        <g id="layout.2" class="forcedgrob gtable gTree grob gDesc">
          <defs>
            <clipPath id="layout::background.1-11-12-1.1.clipPath">
              <rect x="0" y="35.36" width="504" height="433.27" fill="none" stroke="none"/>
            </clipPath>
          </defs>
          <g id="layout::background.1-11-12-1.1" clip-path="url(#layout::background.1-11-12-1.1.clipPath)" class="viewport">
            <g id="background.1-11-12-1.1" class="forcedgrob gTableChild rect grob gDesc">
              <rect id="background.1-11-12-1.1.1" x="0" y="35.36" width="504" height="433.27" transform="" stroke-width="1.07" stroke="rgb(255,255,255)" fill="rgb(255,255,255)" stroke-dasharray="none" stroke-opacity="1" fill-opacity="1"/>
            </g>
          </g>
          <defs>
            <clipPath id="layout::panel.7-5-7-5.1.clipPath">
              <rect x="8.22" y="43.58" width="402.12" height="402.12" fill="none" stroke="none"/>
            </clipPath>
          </defs>
          <g id="layout::panel.7-5-7-5.1" clip-path="url(#layout::panel.7-5-7-5.1.clipPath)" class="viewport">
            <g id="panel.7-5-7-5.1" class="forcedgrob gTableChild gTree grob gDesc">
              <g id="grill.gTree.157.1" class="gTree grob gDesc">
                <g id="panel.background..rect.153.1" class="rect grob gDesc">
                  <rect id="panel.background..rect.153.1.1" x="8.22" y="43.58" width="402.12" height="402.12" transform="" stroke-width="1.07" stroke="none" fill="rgb(255,255,255)" stroke-dasharray="none" stroke-opacity="0" fill-opacity="1"/>
                </g>
              </g>
              <g id="bar.gTree.146.1" class="gTree grob gDesc">
                <g id="geom_polygon.polygon.142.1" class="polygon grob gDesc">
                  <polygon id="geom_polygon.polygon.142.1.1" points="209.28,244.64 208.58,250.15 207.89,255.65 207.19,261.15 206.5,266.65 205.8,272.16 205.11,277.66 204.41,283.16 203.72,288.66 203.02,294.17 202.33,299.67 201.63,305.17 200.94,310.68 200.24,316.18 199.55,321.68 198.85,327.18 198.16,332.69 197.46,338.19 196.77,343.69 196.07,349.19 195.38,354.7 194.68,360.2 193.98,365.7 193.29,371.21 192.59,376.71 191.9,382.21 191.2,387.71 190.51,393.22 189.81,398.72 189.12,404.22 183.73,403.45 178.38,402.49 173.05,401.36 167.77,400.04 162.54,398.55 157.36,396.88 152.24,395.04 147.19,393.02 142.2,390.84 137.3,388.48 132.47,385.97 127.74,383.29 123.09,380.45 118.55,377.46 114.11,374.31 109.78,371.02 105.56,367.58 101.46,364 97.48,360.29 93.63,356.44 89.92,352.46 86.34,348.36 82.9,344.15 79.61,339.81 76.46,335.37 73.47,330.83 70.63,326.19 67.95,321.45 65.44,316.63 63.08,311.72 60.9,306.73 58.88,301.68 57.04,296.56 55.37,291.38 53.88,286.15 52.56,280.87 51.43,275.55 50.47,270.19 49.7,264.8 49.11,259.39 48.7,253.97 48.48,248.53 48.44,243.09 48.58,237.65 48.91,232.22 49.42,226.8 50.12,221.4 51,216.03 52.05,210.69 53.29,205.4 54.71,200.14 56.3,194.94 58.07,189.79 60.01,184.71 62.13,179.69 64.41,174.75 66.86,169.89 69.47,165.12 72.24,160.44 75.16,155.85 78.24,151.36 81.47,146.98 84.85,142.72 88.37,138.56 92.03,134.54 95.82,130.63 99.74,126.86 103.79,123.22 107.95,119.72 112.24,116.37 116.63,113.16 121.13,110.1 125.73,107.19 130.43,104.45 135.22,101.86 140.09,99.44 145.04,97.18 150.07,95.09 155.16,93.17 160.31,91.43 165.52,89.86 170.78,88.47 176.09,87.26 181.43,86.22 186.81,85.37 192.21,84.7 197.63,84.22 203.06,83.92 208.5,83.8 213.94,83.86 219.38,84.11 224.8,84.55 230.21,85.16 235.59,85.96 240.94,86.94 246.26,88.11 251.53,89.45 256.76,90.96 261.93,92.66 267.04,94.53 272.09,96.57 277.06,98.77 281.95,101.15 286.77,103.69 291.49,106.39 296.12,109.25 300.65,112.27 305.08,115.43 309.39,118.75 313.59,122.21 317.67,125.81 321.63,129.54 325.46,133.41 329.16,137.4 332.72,141.52 336.13,145.75 339.41,150.1 342.53,154.56 345.5,159.11 348.32,163.77 350.97,168.52 353.47,173.36 355.79,178.28 357.96,183.27 359.95,188.33 361.77,193.46 363.41,198.65 364.88,203.89 366.17,209.18 367.28,214.5 368.21,219.87 368.95,225.26 369.52,230.67 369.9,236.1 370.1,241.53 370.11,246.98 369.94,252.41 369.58,257.84 369.04,263.26 368.32,268.65 367.42,274.02 366.34,279.35 365.07,284.64 363.63,289.89 362.01,295.09 360.22,300.22 358.25,305.3 356.11,310.3 353.81,315.23 351.34,320.08 348.71,324.84 345.91,329.51 342.96,334.09 339.86,338.56 336.61,342.92 333.21,347.17 329.67,351.3 326,355.32 322.19,359.2 318.25,362.95 314.18,366.57 310,370.05 305.7,373.39 301.29,376.57 296.77,379.61 292.16,382.49 287.45,385.22 282.65,387.78 277.76,390.18 272.8,392.42 267.77,394.48 262.66,396.37 257.5,398.09 252.28,399.63 247.02,401 241.71,402.19 236.36,403.19 230.98,404.02 225.58,404.66 220.15,405.12 214.72,405.4 209.28,405.49 209.28,399.94 209.28,394.4 209.28,388.85 209.28,383.3 209.28,377.76 209.28,372.21 209.28,366.67 209.28,361.12 209.28,355.57 209.28,350.03 209.28,344.48 209.28,338.93 209.28,333.39 209.28,327.84 209.28,322.29 209.28,316.75 209.28,311.2 209.28,305.65 209.28,300.11 209.28,294.56 209.28,289.01 209.28,283.47 209.28,277.92 209.28,272.38 209.28,266.83 209.28,261.28 209.28,255.74 209.28,250.19 209.28,244.64 209.28,244.64" stroke="none" fill="rgb(0,191,196)" stroke-width="1.07" stroke-dasharray="none" stroke-opacity="0" fill-opacity="1"/>
                </g>
                <g id="geom_polygon.polygon.144.1" class="polygon grob gDesc">
                  <polygon id="geom_polygon.polygon.144.1.1" points="209.28,244.64 209.28,250.19 209.28,255.74 209.28,261.28 209.28,266.83 209.28,272.38 209.28,277.92 209.28,283.47 209.28,289.01 209.28,294.56 209.28,300.11 209.28,305.65 209.28,311.2 209.28,316.75 209.28,322.29 209.28,327.84 209.28,333.39 209.28,338.93 209.28,344.48 209.28,350.03 209.28,355.57 209.28,361.12 209.28,366.67 209.28,372.21 209.28,377.76 209.28,383.3 209.28,388.85 209.28,394.4 209.28,399.94 209.28,405.49 202.54,405.35 195.82,404.93 189.12,404.22 189.81,398.72 190.51,393.22 191.2,387.71 191.9,382.21 192.59,376.71 193.29,371.21 193.98,365.7 194.68,360.2 195.38,354.7 196.07,349.19 196.77,343.69 197.46,338.19 198.16,332.69 198.85,327.18 199.55,321.68 200.24,316.18 200.94,310.68 201.63,305.17 202.33,299.67 203.02,294.17 203.72,288.66 204.41,283.16 205.11,277.66 205.8,272.16 206.5,266.65 207.19,261.15 207.89,255.65 208.58,250.15 209.28,244.64 209.28,244.64" stroke="none" fill="rgb(248,118,109)" stroke-width="1.07" stroke-dasharray="none" stroke-opacity="0" fill-opacity="1"/>
                </g>
              </g>
              <g id="GRID.text.147.1" class="text grob gDesc">
                <g id="GRID.text.147.1.1" transform="translate(214.33, 164.38)" stroke-width="0.1">
                  <g id="GRID.text.147.1.1.scale" transform="scale(1, -1)">
                    <text x="0" y="0" id="GRID.text.147.1.1.text" text-anchor="middle" stroke="rgb(0,0,0)" font-size="11.04" font-family="Helvetica, Arial, FreeSans, Liberation Sans, Nimbus Sans L, sans-serif" fill="rgb(0,0,0)" stroke-opacity="1" fill-opacity="1" font-weight="normal" font-style="normal">
                      <tspan id="GRID.text.147.1.1.tspan.1" dy="3.95" x="0">49</tspan>
                    </text>
                  </g>
                </g>
                <g id="GRID.text.147.1.2" transform="translate(204.23, 324.91)" stroke-width="0.1">
                  <g id="GRID.text.147.1.2.scale" transform="scale(1, -1)">
                    <text x="0" y="0" id="GRID.text.147.1.2.text" text-anchor="middle" stroke="rgb(0,0,0)" font-size="11.04" font-family="Helvetica, Arial, FreeSans, Liberation Sans, Nimbus Sans L, sans-serif" fill="rgb(0,0,0)" stroke-opacity="1" fill-opacity="1" font-weight="normal" font-style="normal">
                      <tspan id="GRID.text.147.1.2.tspan.1" dy="3.95" x="0">1</tspan>
                    </text>
                  </g>
                </g>
              </g>
              <g id="GRID.gTree.148.1" class="gTree grob gDesc"/>
            </g>
          </g>
          <g id="layout::spacer.8-6-8-6.1" class="viewport"/>
          <g id="layout::spacer.8-4-8-4.1" class="viewport"/>
          <g id="layout::spacer.6-6-6-6.1" class="viewport"/>
          <g id="layout::spacer.6-4-6-4.1" class="viewport"/>
          <g id="layout::axis-t.6-5-6-5.1" class="viewport"/>
          <g id="layout::axis-l.7-4-7-4.1" class="viewport">
            <g id="layout::axis-l.7-4-7-4::GRID.VP.32.1" class="viewport">
              <g id="axis-l.7-4-7-4.1" class="forcedgrob gTableChild absoluteGrob gTree grob gDesc">
                <g id="layout::axis-l.7-4-7-4::GRID.VP.32::axis.1" class="viewport">
                  <g id="axis.1" class="forcedgrob gtable gTree grob gDesc">
                    <g id="layout::axis-l.7-4-7-4::GRID.VP.32::axis::axis.1-1-1-1.1" class="viewport"/>
                    <g id="layout::axis-l.7-4-7-4::GRID.VP.32::axis::axis.1-2-1-2.1" class="viewport"/>
                  </g>
                </g>
              </g>
            </g>
          </g>
          <g id="layout::axis-r.7-6-7-6.1" class="viewport"/>
          <g id="layout::axis-b.8-5-8-5.1" class="viewport">
            <g id="layout::axis-b.8-5-8-5::GRID.VP.31.1" class="viewport">
              <g id="axis-b.8-5-8-5.1" class="forcedgrob gTableChild absoluteGrob gTree grob gDesc">
                <g id="layout::axis-b.8-5-8-5::GRID.VP.31::axis.1" class="viewport">
                  <g id="axis.2" class="forcedgrob gtable gTree grob gDesc">
                    <g id="layout::axis-b.8-5-8-5::GRID.VP.31::axis::axis.1-1-1-1.1" class="viewport"/>
                    <g id="layout::axis-b.8-5-8-5::GRID.VP.31::axis::axis.2-1-2-1.1" class="viewport"/>
                  </g>
                </g>
              </g>
            </g>
          </g>
          <g id="layout::xlab-t.5-5-5-5.1" class="viewport"/>
          <g id="layout::xlab-b.9-5-9-5.1" class="viewport"/>
          <g id="layout::ylab-l.7-3-7-3.1" class="viewport"/>
          <g id="layout::ylab-r.7-7-7-7.1" class="viewport"/>
          <g id="layout::guide-box.7-9-7-9.1" class="viewport">
            <g id="layout::guide-box.7-9-7-9::GRID.VP.40.1" class="viewport">
              <g id="layout::guide-box.7-9-7-9::GRID.VP.40::guide-box.7-9-7-9.1" class="viewport">
                <g id="guide-box.7-9-7-9.1" class="forcedgrob gTableChild gtable gTree grob gDesc">
                  <g id="layout::guide-box.7-9-7-9::GRID.VP.40::guide-box.7-9-7-9::legend.box.background.2-4-4-2.1" class="viewport"/>
                  <g id="layout::guide-box.7-9-7-9::GRID.VP.40::guide-box.7-9-7-9::guides.3-3-3-3.1" class="viewport">
                    <g id="layout::guide-box.7-9-7-9::GRID.VP.40::guide-box.7-9-7-9::guides.3-3-3-3::GRID.VP.39.1" class="viewport">
                      <g id="layout::guide-box.7-9-7-9::GRID.VP.40::guide-box.7-9-7-9::guides.3-3-3-3::GRID.VP.39::guides.3-3-3-3.1" class="viewport">
                        <g id="guides.3-3-3-3.1" class="forcedgrob gTableChild gtable gTree grob gDesc">
                          <g id="layout::guide-box.7-9-7-9::GRID.VP.40::guide-box.7-9-7-9::guides.3-3-3-3::GRID.VP.39::guides.3-3-3-3::background.1-6-6-1.1" class="viewport">
                            <g id="background.1-6-6-1.1" class="forcedgrob gTableChild rect grob gDesc">
                              <rect id="background.1-6-6-1.1.1" x="421.3" y="219.14" width="77.22" height="51" transform="" stroke-width="1.07" stroke="none" fill="rgb(255,255,255)" stroke-dasharray="none" stroke-opacity="0" fill-opacity="1"/>
                            </g>
                          </g>
                          <g id="layout::guide-box.7-9-7-9::GRID.VP.40::guide-box.7-9-7-9::guides.3-3-3-3::GRID.VP.39::guides.3-3-3-3::title.2-5-2-2.1" class="viewport"/>
                          <g id="layout::guide-box.7-9-7-9::GRID.VP.40::guide-box.7-9-7-9::guides.3-3-3-3::GRID.VP.39::guides.3-3-3-3::key-3-1-bg.4-2-4-2.1" class="viewport"/>
                          <g id="layout::guide-box.7-9-7-9::GRID.VP.40::guide-box.7-9-7-9::guides.3-3-3-3::GRID.VP.39::guides.3-3-3-3::key-3-1-1.4-2-4-2.1" class="viewport">
                            <g id="key-3-1-1.4-2-4-2.1" class="forcedgrob gTableChild rect grob gDesc">
                              <rect id="key-3-1-1.4-2-4-2.1.1" x="427.48" y="242.61" width="15.86" height="15.86" transform="" stroke="none" fill="rgb(248,118,109)" stroke-dasharray="none" stroke-width="1.07" stroke-linejoin="miter" stroke-opacity="0" fill-opacity="1"/>
                            </g>
                          </g>
                          <g id="layout::guide-box.7-9-7-9::GRID.VP.40::guide-box.7-9-7-9::guides.3-3-3-3::GRID.VP.39::guides.3-3-3-3::key-4-1-bg.5-2-5-2.1" class="viewport"/>
                          <g id="layout::guide-box.7-9-7-9::GRID.VP.40::guide-box.7-9-7-9::guides.3-3-3-3::GRID.VP.39::guides.3-3-3-3::key-4-1-1.5-2-5-2.1" class="viewport">
                            <g id="key-4-1-1.5-2-5-2.1" class="forcedgrob gTableChild rect grob gDesc">
                              <rect id="key-4-1-1.5-2-5-2.1.1" x="427.48" y="225.33" width="15.86" height="15.86" transform="" stroke="none" fill="rgb(0,191,196)" stroke-dasharray="none" stroke-width="1.07" stroke-linejoin="miter" stroke-opacity="0" fill-opacity="1"/>
                            </g>
                          </g>
                          <g id="layout::guide-box.7-9-7-9::GRID.VP.40::guide-box.7-9-7-9::guides.3-3-3-3::GRID.VP.39::guides.3-3-3-3::label-3-3.4-4-4-4.1" class="viewport">
                            <g id="layout::guide-box.7-9-7-9::GRID.VP.40::guide-box.7-9-7-9::guides.3-3-3-3::GRID.VP.39::guides.3-3-3-3::label-3-3.4-4-4-4::GRID.VP.37.1" class="viewport">
                              <g id="label-3-3.4-4-4-4.1" class="forcedgrob gTableChild gTree grob gDesc">
                                <g id="layout::guide-box.7-9-7-9::GRID.VP.40::guide-box.7-9-7-9::guides.3-3-3-3::GRID.VP.39::guides.3-3-3-3::label-3-3.4-4-4-4::GRID.VP.37::GRID.VP.33.1" font-size="8.8" stroke="rgb(0,0,0)" font-family="Helvetica, Arial, FreeSans, Liberation Sans, Nimbus Sans L, sans-serif" stroke-opacity="1" font-weight="normal" font-style="normal" class="viewport">
                                  <g id="layout::guide-box.7-9-7-9::GRID.VP.40::guide-box.7-9-7-9::guides.3-3-3-3::GRID.VP.39::guides.3-3-3-3::label-3-3.4-4-4-4::GRID.VP.37::GRID.VP.33::GRID.VP.34.1" class="viewport">
                                    <g id="guide.label.titleGrob.171.1" class="titleGrob gTree grob gDesc">
                                      <g id="GRID.text.169.1" class="text grob gDesc">
                                        <g id="GRID.text.169.1.1" transform="translate(449.54, 250.54)" stroke-width="0.1">
                                          <g id="GRID.text.169.1.1.scale" transform="scale(1, -1)">
                                            <text x="0" y="0" id="GRID.text.169.1.1.text" text-anchor="start" font-size="8.8" stroke="rgb(0,0,0)" font-family="Helvetica, Arial, FreeSans, Liberation Sans, Nimbus Sans L, sans-serif" fill="rgb(0,0,0)" stroke-opacity="1" fill-opacity="1" font-weight="normal" font-style="normal">
                                              <tspan id="GRID.text.169.1.1.tspan.1" dy="3.23" x="0">MacOS (1)</tspan>
                                            </text>
                                          </g>
                                        </g>
                                      </g>
                                    </g>
                                  </g>
                                </g>
                              </g>
                            </g>
                          </g>
                          <g id="layout::guide-box.7-9-7-9::GRID.VP.40::guide-box.7-9-7-9::guides.3-3-3-3::GRID.VP.39::guides.3-3-3-3::label-4-3.5-4-5-4.1" class="viewport">
                            <g id="layout::guide-box.7-9-7-9::GRID.VP.40::guide-box.7-9-7-9::guides.3-3-3-3::GRID.VP.39::guides.3-3-3-3::label-4-3.5-4-5-4::GRID.VP.38.1" class="viewport">
                              <g id="label-4-3.5-4-5-4.1" class="forcedgrob gTableChild gTree grob gDesc">
                                <g id="layout::guide-box.7-9-7-9::GRID.VP.40::guide-box.7-9-7-9::guides.3-3-3-3::GRID.VP.39::guides.3-3-3-3::label-4-3.5-4-5-4::GRID.VP.38::GRID.VP.35.1" font-size="8.8" stroke="rgb(0,0,0)" font-family="Helvetica, Arial, FreeSans, Liberation Sans, Nimbus Sans L, sans-serif" stroke-opacity="1" font-weight="normal" font-style="normal" class="viewport">
                                  <g id="layout::guide-box.7-9-7-9::GRID.VP.40::guide-box.7-9-7-9::guides.3-3-3-3::GRID.VP.39::guides.3-3-3-3::label-4-3.5-4-5-4::GRID.VP.38::GRID.VP.35::GRID.VP.36.1" class="viewport">
                                    <g id="guide.label.titleGrob.174.1" class="titleGrob gTree grob gDesc">
                                      <g id="GRID.text.172.1" class="text grob gDesc">
                                        <g id="GRID.text.172.1.1" transform="translate(449.54, 233.26)" stroke-width="0.1">
                                          <g id="GRID.text.172.1.1.scale" transform="scale(1, -1)">
                                            <text x="0" y="0" id="GRID.text.172.1.1.text" text-anchor="start" font-size="8.8" stroke="rgb(0,0,0)" font-family="Helvetica, Arial, FreeSans, Liberation Sans, Nimbus Sans L, sans-serif" fill="rgb(0,0,0)" stroke-opacity="1" fill-opacity="1" font-weight="normal" font-style="normal">
                                              <tspan id="GRID.text.172.1.1.tspan.1" dy="3.23" x="0">NA (49)</tspan>
                                            </text>
                                          </g>
                                        </g>
                                      </g>
                                    </g>
                                  </g>
                                </g>
                              </g>
                            </g>
                          </g>
                        </g>
                      </g>
                    </g>
                  </g>
                </g>
              </g>
            </g>
          </g>
          <g id="layout::subtitle.4-5-4-5.1" class="viewport"/>
          <g id="layout::title.3-5-3-5.1" class="viewport">
            <g id="layout::title.3-5-3-5::GRID.VP.41.1" font-size="13.2" stroke="rgb(102,102,102)" font-family="Helvetica, Arial, FreeSans, Liberation Sans, Nimbus Sans L, sans-serif" stroke-opacity="1" font-weight="normal" font-style="normal" class="viewport">
              <g id="layout::title.3-5-3-5::GRID.VP.41::GRID.VP.42.1" class="viewport">
                <g id="title.3-5-3-5.1" class="forcedgrob gTableChild titleGrob gTree grob gDesc">
                  <g id="GRID.text.183.1" class="text grob gDesc">
                    <g id="GRID.text.183.1.1" transform="translate(209.28, 463.16)" stroke-width="0.1">
                      <g id="GRID.text.183.1.1.scale" transform="scale(1, -1)">
                        <text x="0" y="0" id="GRID.text.183.1.1.text" text-anchor="middle" font-size="13.2" stroke="rgb(102,102,102)" font-family="Helvetica, Arial, FreeSans, Liberation Sans, Nimbus Sans L, sans-serif" fill="rgb(102,102,102)" stroke-opacity="1" fill-opacity="1" font-weight="normal" font-style="normal">
                          <tspan id="GRID.text.183.1.1.tspan.1" dy="9.33" x="0">anagrafica altroos</tspan>
                        </text>
                      </g>
                    </g>
                  </g>
                </g>
              </g>
            </g>
          </g>
          <g id="layout::caption.10-5-10-5.1" class="viewport"/>
          <g id="layout::tag.2-2-2-2.1" class="viewport"/>
        </g>
      </g>
    </g>
  </g>
</svg>