<?xml version="1.0" encoding="UTF-8"?>
<svg xmlns="http://www.w3.org/2000/svg" xmlns:xlink="http://www.w3.org/1999/xlink" width="504px" height="504px" viewBox="0 0 504 504" version="1.1">
  <metadata xmlns:gridsvg="http://www.stat.auckland.ac.nz/~paul/R/gridSVG/">
    <gridsvg:generator name="gridSVG" version="1.6-0" time="2019-01-18 19:07:02"/>
    <gridsvg:argument name="name" value="./latest_informaggio_csv/anziani/risultati/svg/anagrafica-elaborazioneinformazioni.svg"/>
    <gridsvg:argument name="exportCoords" value="none"/>
    <gridsvg:argument name="exportMappings" value="none"/>
    <gridsvg:argument name="exportJS" value="none"/>
    <gridsvg:argument name="res" value="72"/>
    <gridsvg:argument name="prefix" value=""/>
    <gridsvg:argument name="addClasses" value="TRUE"/>
    <gridsvg:argument name="indent" value="TRUE"/>
    <gridsvg:argument name="htmlWrapper" value="FALSE"/>
    <gridsvg:argument name="usePaths" value="vpPaths"/>
    <gridsvg:argument name="uniqueNames" value="TRUE"/>
    <gridsvg:separator name="id.sep" value="."/>
    <gridsvg:separator name="gPath.sep" value="::"/>
    <gridsvg:separator name="vpPath.sep" value="::"/>
  </metadata>
  <g transform="translate(0, 504) scale(1, -1)">
    <g id="gridSVG" fill="none" stroke="rgb(0,0,0)" stroke-dasharray="none" stroke-width="0.75" font-size="12" font-family="Helvetica, Arial, FreeSans, Liberation Sans, Nimbus Sans L, sans-serif" opacity="1" stroke-linecap="round" stroke-linejoin="round" stroke-miterlimit="10" stroke-opacity="1" fill-opacity="0" font-weight="normal" font-style="normal">
      <g id="layout.1" class="viewport">
        <g id="layout.2" class="forcedgrob gtable gTree grob gDesc">
          <defs>
            <clipPath id="layout::background.1-11-12-1.1.clipPath">
              <rect x="0" y="40.92" width="504" height="422.16" fill="none" stroke="none"/>
            </clipPath>
          </defs>
          <g id="layout::background.1-11-12-1.1" clip-path="url(#layout::background.1-11-12-1.1.clipPath)" class="viewport">
            <g id="background.1-11-12-1.1" class="forcedgrob gTableChild rect grob gDesc">
              <rect id="background.1-11-12-1.1.1" x="0" y="40.92" width="504" height="422.16" transform="" stroke-width="1.07" stroke="rgb(255,255,255)" fill="rgb(255,255,255)" stroke-dasharray="none" stroke-opacity="1" fill-opacity="1"/>
            </g>
          </g>
          <defs>
            <clipPath id="layout::panel.7-5-7-5.1.clipPath">
              <rect x="8.22" y="49.14" width="391" height="391" fill="none" stroke="none"/>
            </clipPath>
          </defs>
          <g id="layout::panel.7-5-7-5.1" clip-path="url(#layout::panel.7-5-7-5.1.clipPath)" class="viewport">
            <g id="panel.7-5-7-5.1" class="forcedgrob gTableChild gTree grob gDesc">
              <g id="grill.gTree.1699.1" class="gTree grob gDesc">
                <g id="panel.background..rect.1695.1" class="rect grob gDesc">
                  <rect id="panel.background..rect.1695.1.1" x="8.22" y="49.14" width="391" height="391" transform="" stroke-width="1.07" stroke="none" fill="rgb(255,255,255)" stroke-dasharray="none" stroke-opacity="0" fill-opacity="1"/>
                </g>
              </g>
              <g id="bar.gTree.1688.1" class="gTree grob gDesc">
                <g id="geom_polygon.polygon.1680.1" class="polygon grob gDesc">
                  <polygon id="geom_polygon.polygon.1680.1.1" points="203.72,244.64 206.32,239.92 208.92,235.19 211.52,230.46 214.11,225.74 216.71,221.01 219.31,216.29 221.91,211.56 224.51,206.83 227.1,202.11 229.7,197.38 232.3,192.66 234.9,187.93 237.5,183.2 240.1,178.48 242.69,173.75 245.29,169.03 247.89,164.3 250.49,159.57 253.09,154.85 255.68,150.12 258.28,145.4 260.88,140.67 263.48,135.94 266.08,131.22 268.67,126.49 271.27,121.77 273.87,117.04 276.47,112.31 279.07,107.59 283.66,110.21 288.16,113 292.57,115.93 296.87,119.01 301.07,122.23 305.15,125.59 309.12,129.09 312.97,132.72 316.69,136.48 320.29,140.37 323.75,144.37 327.07,148.49 330.25,152.71 333.29,157.05 336.18,161.48 338.92,166.01 341.5,170.62 343.92,175.33 346.19,180.11 348.29,184.97 350.22,189.89 351.99,194.88 353.59,199.92 355.02,205.02 356.27,210.16 357.35,215.34 358.26,220.55 358.98,225.79 359.53,231.05 359.9,236.33 360.09,241.62 360.11,246.91 359.94,252.2 359.59,257.48 359.07,262.74 358.37,267.99 357.49,273.21 356.44,278.39 355.21,283.54 353.81,288.64 352.23,293.69 350.49,298.69 348.58,303.62 346.5,308.49 344.26,313.28 341.85,317.99 339.29,322.63 336.58,327.17 333.71,331.61 330.69,335.96 327.53,340.2 324.23,344.34 320.79,348.36 317.21,352.26 313.51,356.03 309.68,359.68 305.73,363.2 301.66,366.59 297.48,369.83 293.19,372.93 288.8,375.88 284.31,378.68 279.73,381.33 275.06,383.83 270.31,386.16 265.49,388.33 260.59,390.34 255.63,392.18 250.61,393.85 245.54,395.35 240.42,396.68 235.25,397.83 230.05,398.81 224.82,399.61 219.57,400.24 214.3,400.69 209.01,400.95 203.72,401.04 203.72,395.65 203.72,390.26 203.72,384.86 203.72,379.47 203.72,374.08 203.72,368.69 203.72,363.29 203.72,357.9 203.72,352.51 203.72,347.11 203.72,341.72 203.72,336.33 203.72,330.93 203.72,325.54 203.72,320.15 203.72,314.75 203.72,309.36 203.72,303.97 203.72,298.57 203.72,293.18 203.72,287.79 203.72,282.4 203.72,277 203.72,271.61 203.72,266.22 203.72,260.82 203.72,255.43 203.72,250.04 203.72,244.64 203.72,244.64" stroke="none" fill="rgb(199,124,255)" stroke-width="1.07" stroke-dasharray="none" stroke-opacity="0" fill-opacity="1"/>
                </g>
                <g id="geom_polygon.polygon.1682.1" class="polygon grob gDesc">
                  <polygon id="geom_polygon.polygon.1682.1.1" points="203.72,244.64 198.42,243.63 193.13,242.62 187.83,241.61 182.53,240.6 177.23,239.59 171.94,238.58 166.64,237.57 161.34,236.56 156.04,235.55 150.74,234.54 145.45,233.53 140.15,232.52 134.85,231.51 129.55,230.5 124.26,229.48 118.96,228.47 113.66,227.46 108.36,226.45 103.07,225.44 97.77,224.43 92.47,223.42 87.17,222.41 81.88,221.4 76.58,220.39 71.28,219.38 65.98,218.37 60.69,217.36 55.39,216.35 50.09,215.34 51.18,210.09 52.46,204.88 53.91,199.72 55.54,194.62 57.34,189.57 59.31,184.58 61.45,179.67 63.76,174.84 66.24,170.08 68.87,165.41 71.67,160.84 74.62,156.36 77.72,151.99 80.97,147.73 84.36,143.58 87.89,139.55 91.56,135.64 95.36,131.86 99.29,128.22 103.34,124.71 107.51,121.34 111.79,118.11 116.18,115.04 120.67,112.11 125.26,109.34 129.94,106.74 134.71,104.29 139.56,102.01 144.49,99.89 149.48,97.95 154.54,96.18 159.66,94.58 164.83,93.16 170.04,91.91 175.29,90.85 180.58,89.96 185.89,89.26 191.23,88.74 196.58,88.41 201.93,88.25 207.29,88.28 212.65,88.5 217.99,88.89 223.32,89.48 228.63,90.24 233.9,91.18 239.15,92.31 244.34,93.61 249.5,95.09 254.59,96.75 259.63,98.58 264.6,100.58 269.5,102.75 274.33,105.09 279.07,107.59 276.47,112.31 273.87,117.04 271.27,121.77 268.67,126.49 266.08,131.22 263.48,135.94 260.88,140.67 258.28,145.4 255.68,150.12 253.09,154.85 250.49,159.57 247.89,164.3 245.29,169.03 242.69,173.75 240.1,178.48 237.5,183.2 234.9,187.93 232.3,192.66 229.7,197.38 227.1,202.11 224.51,206.83 221.91,211.56 219.31,216.29 216.71,221.01 214.11,225.74 211.52,230.46 208.92,235.19 206.32,239.92 203.72,244.64 203.72,244.64" stroke="none" fill="rgb(0,191,196)" stroke-width="1.07" stroke-dasharray="none" stroke-opacity="0" fill-opacity="1"/>
                </g>
                <g id="geom_polygon.polygon.1684.1" class="polygon grob gDesc">
                  <polygon id="geom_polygon.polygon.1684.1.1" points="203.72,244.64 200.55,249.01 197.38,253.37 194.21,257.73 191.04,262.1 187.87,266.46 184.7,270.82 181.53,275.19 178.36,279.55 175.19,283.91 172.02,288.27 168.85,292.64 165.68,297 162.51,301.36 159.34,305.73 156.17,310.09 153,314.45 149.83,318.82 146.66,323.18 143.49,327.54 140.32,331.91 137.15,336.27 133.98,340.63 130.81,345 127.64,349.36 124.47,353.72 121.3,358.08 118.13,362.45 114.96,366.81 111.79,371.17 107.51,367.95 103.34,364.58 99.29,361.07 95.36,357.42 91.56,353.65 87.89,349.74 84.36,345.71 80.97,341.56 77.72,337.29 74.62,332.92 71.67,328.45 68.87,323.87 66.24,319.21 63.76,314.45 61.45,309.61 59.31,304.7 57.34,299.72 55.54,294.67 53.91,289.56 52.46,284.4 51.18,279.2 50.09,273.95 49.18,268.67 48.44,263.36 47.89,258.03 47.53,252.68 47.34,247.32 47.34,241.96 47.53,236.61 47.89,231.26 48.44,225.93 49.18,220.62 50.09,215.34 55.39,216.35 60.69,217.36 65.98,218.37 71.28,219.38 76.58,220.39 81.88,221.4 87.17,222.41 92.47,223.42 97.77,224.43 103.07,225.44 108.36,226.45 113.66,227.46 118.96,228.47 124.26,229.48 129.55,230.5 134.85,231.51 140.15,232.52 145.45,233.53 150.74,234.54 156.04,235.55 161.34,236.56 166.64,237.57 171.94,238.58 177.23,239.59 182.53,240.6 187.83,241.61 193.13,242.62 198.42,243.63 203.72,244.64 203.72,244.64" stroke="none" fill="rgb(124,174,0)" stroke-width="1.07" stroke-dasharray="none" stroke-opacity="0" fill-opacity="1"/>
                </g>
                <g id="geom_polygon.polygon.1686.1" class="polygon grob gDesc">
                  <polygon id="geom_polygon.polygon.1686.1.1" points="203.72,244.64 203.72,250.04 203.72,255.43 203.72,260.82 203.72,266.22 203.72,271.61 203.72,277 203.72,282.4 203.72,287.79 203.72,293.18 203.72,298.57 203.72,303.97 203.72,309.36 203.72,314.75 203.72,320.15 203.72,325.54 203.72,330.93 203.72,336.33 203.72,341.72 203.72,347.11 203.72,352.51 203.72,357.9 203.72,363.29 203.72,368.69 203.72,374.08 203.72,379.47 203.72,384.86 203.72,390.26 203.72,395.65 203.72,401.04 198.26,400.95 192.81,400.66 187.37,400.19 181.95,399.52 176.56,398.67 171.2,397.63 165.88,396.4 160.61,394.99 155.39,393.39 150.23,391.61 145.13,389.66 140.11,387.52 135.16,385.22 130.29,382.74 125.52,380.09 120.84,377.28 116.26,374.31 111.79,371.17 114.96,366.81 118.13,362.45 121.3,358.08 124.47,353.72 127.64,349.36 130.81,345 133.98,340.63 137.15,336.27 140.32,331.91 143.49,327.54 146.66,323.18 149.83,318.82 153,314.45 156.17,310.09 159.34,305.73 162.51,301.36 165.68,297 168.85,292.64 172.02,288.27 175.19,283.91 178.36,279.55 181.53,275.19 184.7,270.82 187.87,266.46 191.04,262.1 194.21,257.73 197.38,253.37 200.55,249.01 203.72,244.64 203.72,244.64" stroke="none" fill="rgb(248,118,109)" stroke-width="1.07" stroke-dasharray="none" stroke-opacity="0" fill-opacity="1"/>
                </g>
              </g>
              <g id="GRID.text.1689.1" class="text grob gDesc">
                <g id="GRID.text.1689.1.1" transform="translate(279.46, 264.09)" stroke-width="0.1">
                  <g id="GRID.text.1689.1.1.scale" transform="scale(1, -1)">
                    <text x="0" y="0" id="GRID.text.1689.1.1.text" text-anchor="middle" stroke="rgb(0,0,0)" font-size="11.04" font-family="Helvetica, Arial, FreeSans, Liberation Sans, Nimbus Sans L, sans-serif" fill="rgb(0,0,0)" stroke-opacity="1" fill-opacity="1" font-weight="normal" font-style="normal">
                      <tspan id="GRID.text.1689.1.1.tspan.1" dy="3.95" x="0">21</tspan>
                    </text>
                  </g>
                </g>
                <g id="GRID.text.1689.1.2" transform="translate(170.42, 173.89)" stroke-width="0.1">
                  <g id="GRID.text.1689.1.2.scale" transform="scale(1, -1)">
                    <text x="0" y="0" id="GRID.text.1689.1.2.text" text-anchor="middle" stroke="rgb(0,0,0)" font-size="11.04" font-family="Helvetica, Arial, FreeSans, Liberation Sans, Nimbus Sans L, sans-serif" fill="rgb(0,0,0)" stroke-opacity="1" fill-opacity="1" font-weight="normal" font-style="normal">
                      <tspan id="GRID.text.1689.1.2.tspan.1" dy="3.95" x="0">15</tspan>
                    </text>
                  </g>
                </g>
                <g id="GRID.text.1689.1.3" transform="translate(131.01, 273.43)" stroke-width="0.1">
                  <g id="GRID.text.1689.1.3.scale" transform="scale(1, -1)">
                    <text x="0" y="0" id="GRID.text.1689.1.3.text" text-anchor="middle" stroke="rgb(0,0,0)" font-size="11.04" font-family="Helvetica, Arial, FreeSans, Liberation Sans, Nimbus Sans L, sans-serif" fill="rgb(0,0,0)" stroke-opacity="1" fill-opacity="1" font-weight="normal" font-style="normal">
                      <tspan id="GRID.text.1689.1.3.tspan.1" dy="3.95" x="0">9</tspan>
                    </text>
                  </g>
                </g>
                <g id="GRID.text.1689.1.4" transform="translate(179.56, 319.02)" stroke-width="0.1">
                  <g id="GRID.text.1689.1.4.scale" transform="scale(1, -1)">
                    <text x="0" y="0" id="GRID.text.1689.1.4.text" text-anchor="middle" stroke="rgb(0,0,0)" font-size="11.04" font-family="Helvetica, Arial, FreeSans, Liberation Sans, Nimbus Sans L, sans-serif" fill="rgb(0,0,0)" stroke-opacity="1" fill-opacity="1" font-weight="normal" font-style="normal">
                      <tspan id="GRID.text.1689.1.4.tspan.1" dy="3.95" x="0">5</tspan>
                    </text>
                  </g>
                </g>
              </g>
              <g id="GRID.gTree.1690.1" class="gTree grob gDesc"/>
            </g>
          </g>
          <g id="layout::spacer.8-6-8-6.1" class="viewport"/>
          <g id="layout::spacer.8-4-8-4.1" class="viewport"/>
          <g id="layout::spacer.6-6-6-6.1" class="viewport"/>
          <g id="layout::spacer.6-4-6-4.1" class="viewport"/>
          <g id="layout::axis-t.6-5-6-5.1" class="viewport"/>
          <g id="layout::axis-l.7-4-7-4.1" class="viewport">
            <g id="layout::axis-l.7-4-7-4::GRID.VP.386.1" class="viewport">
              <g id="axis-l.7-4-7-4.1" class="forcedgrob gTableChild absoluteGrob gTree grob gDesc">
                <g id="layout::axis-l.7-4-7-4::GRID.VP.386::axis.1" class="viewport">
                  <g id="axis.1" class="forcedgrob gtable gTree grob gDesc">
                    <g id="layout::axis-l.7-4-7-4::GRID.VP.386::axis::axis.1-1-1-1.1" class="viewport"/>
                    <g id="layout::axis-l.7-4-7-4::GRID.VP.386::axis::axis.1-2-1-2.1" class="viewport"/>
                  </g>
                </g>
              </g>
            </g>
          </g>
          <g id="layout::axis-r.7-6-7-6.1" class="viewport"/>
          <g id="layout::axis-b.8-5-8-5.1" class="viewport">
            <g id="layout::axis-b.8-5-8-5::GRID.VP.385.1" class="viewport">
              <g id="axis-b.8-5-8-5.1" class="forcedgrob gTableChild absoluteGrob gTree grob gDesc">
                <g id="layout::axis-b.8-5-8-5::GRID.VP.385::axis.1" class="viewport">
                  <g id="axis.2" class="forcedgrob gtable gTree grob gDesc">
                    <g id="layout::axis-b.8-5-8-5::GRID.VP.385::axis::axis.1-1-1-1.1" class="viewport"/>
                    <g id="layout::axis-b.8-5-8-5::GRID.VP.385::axis::axis.2-1-2-1.1" class="viewport"/>
                  </g>
                </g>
              </g>
            </g>
          </g>
          <g id="layout::xlab-t.5-5-5-5.1" class="viewport"/>
          <g id="layout::xlab-b.9-5-9-5.1" class="viewport"/>
          <g id="layout::ylab-l.7-3-7-3.1" class="viewport"/>
          <g id="layout::ylab-r.7-7-7-7.1" class="viewport"/>
          <g id="layout::guide-box.7-9-7-9.1" class="viewport">
            <g id="layout::guide-box.7-9-7-9::GRID.VP.400.1" class="viewport">
              <g id="layout::guide-box.7-9-7-9::GRID.VP.400::guide-box.7-9-7-9.1" class="viewport">
                <g id="guide-box.7-9-7-9.1" class="forcedgrob gTableChild gtable gTree grob gDesc">
                  <g id="layout::guide-box.7-9-7-9::GRID.VP.400::guide-box.7-9-7-9::legend.box.background.2-4-4-2.1" class="viewport"/>
                  <g id="layout::guide-box.7-9-7-9::GRID.VP.400::guide-box.7-9-7-9::guides.3-3-3-3.1" class="viewport">
                    <g id="layout::guide-box.7-9-7-9::GRID.VP.400::guide-box.7-9-7-9::guides.3-3-3-3::GRID.VP.399.1" class="viewport">
                      <g id="layout::guide-box.7-9-7-9::GRID.VP.400::guide-box.7-9-7-9::guides.3-3-3-3::GRID.VP.399::guides.3-3-3-3.1" class="viewport">
                        <g id="guides.3-3-3-3.1" class="forcedgrob gTableChild gtable gTree grob gDesc">
                          <g id="layout::guide-box.7-9-7-9::GRID.VP.400::guide-box.7-9-7-9::guides.3-3-3-3::GRID.VP.399::guides.3-3-3-3::background.1-6-8-1.1" class="viewport">
                            <g id="background.1-6-8-1.1" class="forcedgrob gTableChild rect grob gDesc">
                              <rect id="background.1-6-8-1.1.1" x="410.18" y="201.86" width="88.34" height="85.56" transform="" stroke-width="1.07" stroke="none" fill="rgb(255,255,255)" stroke-dasharray="none" stroke-opacity="0" fill-opacity="1"/>
                            </g>
                          </g>
                          <g id="layout::guide-box.7-9-7-9::GRID.VP.400::guide-box.7-9-7-9::guides.3-3-3-3::GRID.VP.399::guides.3-3-3-3::title.2-5-2-2.1" class="viewport"/>
                          <g id="layout::guide-box.7-9-7-9::GRID.VP.400::guide-box.7-9-7-9::guides.3-3-3-3::GRID.VP.399::guides.3-3-3-3::key-3-1-bg.4-2-4-2.1" class="viewport"/>
                          <g id="layout::guide-box.7-9-7-9::GRID.VP.400::guide-box.7-9-7-9::guides.3-3-3-3::GRID.VP.399::guides.3-3-3-3::key-3-1-1.4-2-4-2.1" class="viewport">
                            <g id="key-3-1-1.4-2-4-2.1" class="forcedgrob gTableChild rect grob gDesc">
                              <rect id="key-3-1-1.4-2-4-2.1.1" x="416.37" y="259.89" width="15.86" height="15.86" transform="" stroke="none" fill="rgb(248,118,109)" stroke-dasharray="none" stroke-width="1.07" stroke-linejoin="miter" stroke-opacity="0" fill-opacity="1"/>
                            </g>
                          </g>
                          <g id="layout::guide-box.7-9-7-9::GRID.VP.400::guide-box.7-9-7-9::guides.3-3-3-3::GRID.VP.399::guides.3-3-3-3::key-4-1-bg.5-2-5-2.1" class="viewport"/>
                          <g id="layout::guide-box.7-9-7-9::GRID.VP.400::guide-box.7-9-7-9::guides.3-3-3-3::GRID.VP.399::guides.3-3-3-3::key-4-1-1.5-2-5-2.1" class="viewport">
                            <g id="key-4-1-1.5-2-5-2.1" class="forcedgrob gTableChild rect grob gDesc">
                              <rect id="key-4-1-1.5-2-5-2.1.1" x="416.37" y="242.61" width="15.86" height="15.86" transform="" stroke="none" fill="rgb(124,174,0)" stroke-dasharray="none" stroke-width="1.07" stroke-linejoin="miter" stroke-opacity="0" fill-opacity="1"/>
                            </g>
                          </g>
                          <g id="layout::guide-box.7-9-7-9::GRID.VP.400::guide-box.7-9-7-9::guides.3-3-3-3::GRID.VP.399::guides.3-3-3-3::key-5-1-bg.6-2-6-2.1" class="viewport"/>
                          <g id="layout::guide-box.7-9-7-9::GRID.VP.400::guide-box.7-9-7-9::guides.3-3-3-3::GRID.VP.399::guides.3-3-3-3::key-5-1-1.6-2-6-2.1" class="viewport">
                            <g id="key-5-1-1.6-2-6-2.1" class="forcedgrob gTableChild rect grob gDesc">
                              <rect id="key-5-1-1.6-2-6-2.1.1" x="416.37" y="225.33" width="15.86" height="15.86" transform="" stroke="none" fill="rgb(0,191,196)" stroke-dasharray="none" stroke-width="1.07" stroke-linejoin="miter" stroke-opacity="0" fill-opacity="1"/>
                            </g>
                          </g>
                          <g id="layout::guide-box.7-9-7-9::GRID.VP.400::guide-box.7-9-7-9::guides.3-3-3-3::GRID.VP.399::guides.3-3-3-3::key-6-1-bg.7-2-7-2.1" class="viewport"/>
                          <g id="layout::guide-box.7-9-7-9::GRID.VP.400::guide-box.7-9-7-9::guides.3-3-3-3::GRID.VP.399::guides.3-3-3-3::key-6-1-1.7-2-7-2.1" class="viewport">
                            <g id="key-6-1-1.7-2-7-2.1" class="forcedgrob gTableChild rect grob gDesc">
                              <rect id="key-6-1-1.7-2-7-2.1.1" x="416.37" y="208.05" width="15.86" height="15.86" transform="" stroke="none" fill="rgb(199,124,255)" stroke-dasharray="none" stroke-width="1.07" stroke-linejoin="miter" stroke-opacity="0" fill-opacity="1"/>
                            </g>
                          </g>
                          <g id="layout::guide-box.7-9-7-9::GRID.VP.400::guide-box.7-9-7-9::guides.3-3-3-3::GRID.VP.399::guides.3-3-3-3::label-3-3.4-4-4-4.1" class="viewport">
                            <g id="layout::guide-box.7-9-7-9::GRID.VP.400::guide-box.7-9-7-9::guides.3-3-3-3::GRID.VP.399::guides.3-3-3-3::label-3-3.4-4-4-4::GRID.VP.395.1" class="viewport">
                              <g id="label-3-3.4-4-4-4.1" class="forcedgrob gTableChild gTree grob gDesc">
                                <g id="layout::guide-box.7-9-7-9::GRID.VP.400::guide-box.7-9-7-9::guides.3-3-3-3::GRID.VP.399::guides.3-3-3-3::label-3-3.4-4-4-4::GRID.VP.395::GRID.VP.387.1" font-size="8.8" stroke="rgb(0,0,0)" font-family="Helvetica, Arial, FreeSans, Liberation Sans, Nimbus Sans L, sans-serif" stroke-opacity="1" font-weight="normal" font-style="normal" class="viewport">
                                  <g id="layout::guide-box.7-9-7-9::GRID.VP.400::guide-box.7-9-7-9::guides.3-3-3-3::GRID.VP.399::guides.3-3-3-3::label-3-3.4-4-4-4::GRID.VP.395::GRID.VP.387::GRID.VP.388.1" class="viewport">
                                    <g id="guide.label.titleGrob.1713.1" class="titleGrob gTree grob gDesc">
                                      <g id="GRID.text.1711.1" class="text grob gDesc">
                                        <g id="GRID.text.1711.1.1" transform="translate(438.42, 267.82)" stroke-width="0.1">
                                          <g id="GRID.text.1711.1.1.scale" transform="scale(1, -1)">
                                            <text x="0" y="0" id="GRID.text.1711.1.1.text" text-anchor="start" font-size="8.8" stroke="rgb(0,0,0)" font-family="Helvetica, Arial, FreeSans, Liberation Sans, Nimbus Sans L, sans-serif" fill="rgb(0,0,0)" stroke-opacity="1" fill-opacity="1" font-weight="normal" font-style="normal">
                                              <tspan id="GRID.text.1711.1.1.tspan.1" dy="3.23" x="0">tutto (5)</tspan>
                                            </text>
                                          </g>
                                        </g>
                                      </g>
                                    </g>
                                  </g>
                                </g>
                              </g>
                            </g>
                          </g>
                          <g id="layout::guide-box.7-9-7-9::GRID.VP.400::guide-box.7-9-7-9::guides.3-3-3-3::GRID.VP.399::guides.3-3-3-3::label-4-3.5-4-5-4.1" class="viewport">
                            <g id="layout::guide-box.7-9-7-9::GRID.VP.400::guide-box.7-9-7-9::guides.3-3-3-3::GRID.VP.399::guides.3-3-3-3::label-4-3.5-4-5-4::GRID.VP.396.1" class="viewport">
                              <g id="label-4-3.5-4-5-4.1" class="forcedgrob gTableChild gTree grob gDesc">
                                <g id="layout::guide-box.7-9-7-9::GRID.VP.400::guide-box.7-9-7-9::guides.3-3-3-3::GRID.VP.399::guides.3-3-3-3::label-4-3.5-4-5-4::GRID.VP.396::GRID.VP.389.1" font-size="8.8" stroke="rgb(0,0,0)" font-family="Helvetica, Arial, FreeSans, Liberation Sans, Nimbus Sans L, sans-serif" stroke-opacity="1" font-weight="normal" font-style="normal" class="viewport">
                                  <g id="layout::guide-box.7-9-7-9::GRID.VP.400::guide-box.7-9-7-9::guides.3-3-3-3::GRID.VP.399::guides.3-3-3-3::label-4-3.5-4-5-4::GRID.VP.396::GRID.VP.389::GRID.VP.390.1" class="viewport">
                                    <g id="guide.label.titleGrob.1716.1" class="titleGrob gTree grob gDesc">
                                      <g id="GRID.text.1714.1" class="text grob gDesc">
                                        <g id="GRID.text.1714.1.1" transform="translate(438.42, 250.54)" stroke-width="0.1">
                                          <g id="GRID.text.1714.1.1.scale" transform="scale(1, -1)">
                                            <text x="0" y="0" id="GRID.text.1714.1.1.text" text-anchor="start" font-size="8.8" stroke="rgb(0,0,0)" font-family="Helvetica, Arial, FreeSans, Liberation Sans, Nimbus Sans L, sans-serif" fill="rgb(0,0,0)" stroke-opacity="1" fill-opacity="1" font-weight="normal" font-style="normal">
                                              <tspan id="GRID.text.1714.1.1.tspan.1" dy="3.23" x="0">base (9)</tspan>
                                            </text>
                                          </g>
                                        </g>
                                      </g>
                                    </g>
                                  </g>
                                </g>
                              </g>
                            </g>
                          </g>
                          <g id="layout::guide-box.7-9-7-9::GRID.VP.400::guide-box.7-9-7-9::guides.3-3-3-3::GRID.VP.399::guides.3-3-3-3::label-5-3.6-4-6-4.1" class="viewport">
                            <g id="layout::guide-box.7-9-7-9::GRID.VP.400::guide-box.7-9-7-9::guides.3-3-3-3::GRID.VP.399::guides.3-3-3-3::label-5-3.6-4-6-4::GRID.VP.397.1" class="viewport">
                              <g id="label-5-3.6-4-6-4.1" class="forcedgrob gTableChild gTree grob gDesc">
                                <g id="layout::guide-box.7-9-7-9::GRID.VP.400::guide-box.7-9-7-9::guides.3-3-3-3::GRID.VP.399::guides.3-3-3-3::label-5-3.6-4-6-4::GRID.VP.397::GRID.VP.391.1" font-size="8.8" stroke="rgb(0,0,0)" font-family="Helvetica, Arial, FreeSans, Liberation Sans, Nimbus Sans L, sans-serif" stroke-opacity="1" font-weight="normal" font-style="normal" class="viewport">
                                  <g id="layout::guide-box.7-9-7-9::GRID.VP.400::guide-box.7-9-7-9::guides.3-3-3-3::GRID.VP.399::guides.3-3-3-3::label-5-3.6-4-6-4::GRID.VP.397::GRID.VP.391::GRID.VP.392.1" class="viewport">
                                    <g id="guide.label.titleGrob.1719.1" class="titleGrob gTree grob gDesc">
                                      <g id="GRID.text.1717.1" class="text grob gDesc">
                                        <g id="GRID.text.1717.1.1" transform="translate(438.42, 233.26)" stroke-width="0.1">
                                          <g id="GRID.text.1717.1.1.scale" transform="scale(1, -1)">
                                            <text x="0" y="0" id="GRID.text.1717.1.1.text" text-anchor="start" font-size="8.8" stroke="rgb(0,0,0)" font-family="Helvetica, Arial, FreeSans, Liberation Sans, Nimbus Sans L, sans-serif" fill="rgb(0,0,0)" stroke-opacity="1" fill-opacity="1" font-weight="normal" font-style="normal">
                                              <tspan id="GRID.text.1717.1.1.tspan.1" dy="3.23" x="0">avanzato (15)</tspan>
                                            </text>
                                          </g>
                                        </g>
                                      </g>
                                    </g>
                                  </g>
                                </g>
                              </g>
                            </g>
                          </g>
                          <g id="layout::guide-box.7-9-7-9::GRID.VP.400::guide-box.7-9-7-9::guides.3-3-3-3::GRID.VP.399::guides.3-3-3-3::label-6-3.7-4-7-4.1" class="viewport">
                            <g id="layout::guide-box.7-9-7-9::GRID.VP.400::guide-box.7-9-7-9::guides.3-3-3-3::GRID.VP.399::guides.3-3-3-3::label-6-3.7-4-7-4::GRID.VP.398.1" class="viewport">
                              <g id="label-6-3.7-4-7-4.1" class="forcedgrob gTableChild gTree grob gDesc">
                                <g id="layout::guide-box.7-9-7-9::GRID.VP.400::guide-box.7-9-7-9::guides.3-3-3-3::GRID.VP.399::guides.3-3-3-3::label-6-3.7-4-7-4::GRID.VP.398::GRID.VP.393.1" font-size="8.8" stroke="rgb(0,0,0)" font-family="Helvetica, Arial, FreeSans, Liberation Sans, Nimbus Sans L, sans-serif" stroke-opacity="1" font-weight="normal" font-style="normal" class="viewport">
                                  <g id="layout::guide-box.7-9-7-9::GRID.VP.400::guide-box.7-9-7-9::guides.3-3-3-3::GRID.VP.399::guides.3-3-3-3::label-6-3.7-4-7-4::GRID.VP.398::GRID.VP.393::GRID.VP.394.1" class="viewport">
                                    <g id="guide.label.titleGrob.1722.1" class="titleGrob gTree grob gDesc">
                                      <g id="GRID.text.1720.1" class="text grob gDesc">
                                        <g id="GRID.text.1720.1.1" transform="translate(438.42, 215.98)" stroke-width="0.1">
                                          <g id="GRID.text.1720.1.1.scale" transform="scale(1, -1)">
                                            <text x="0" y="0" id="GRID.text.1720.1.1.text" text-anchor="start" font-size="8.8" stroke="rgb(0,0,0)" font-family="Helvetica, Arial, FreeSans, Liberation Sans, Nimbus Sans L, sans-serif" fill="rgb(0,0,0)" stroke-opacity="1" fill-opacity="1" font-weight="normal" font-style="normal">
                                              <tspan id="GRID.text.1720.1.1.tspan.1" dy="3.23" x="0">medio (21)</tspan>
                                            </text>
                                          </g>
                                        </g>
                                      </g>
                                    </g>
                                  </g>
                                </g>
                              </g>
                            </g>
                          </g>
                        </g>
                      </g>
                    </g>
                  </g>
                </g>
              </g>
            </g>
          </g>
          <g id="layout::subtitle.4-5-4-5.1" class="viewport"/>
          <g id="layout::title.3-5-3-5.1" class="viewport">
            <g id="layout::title.3-5-3-5::GRID.VP.401.1" font-size="13.2" stroke="rgb(102,102,102)" font-family="Helvetica, Arial, FreeSans, Liberation Sans, Nimbus Sans L, sans-serif" stroke-opacity="1" font-weight="normal" font-style="normal" class="viewport">
              <g id="layout::title.3-5-3-5::GRID.VP.401::GRID.VP.402.1" class="viewport">
                <g id="title.3-5-3-5.1" class="forcedgrob gTableChild titleGrob gTree grob gDesc">
                  <g id="GRID.text.1737.1" class="text grob gDesc">
                    <g id="GRID.text.1737.1.1" transform="translate(203.72, 457.6)" stroke-width="0.1">
                      <g id="GRID.text.1737.1.1.scale" transform="scale(1, -1)">
                        <text x="0" y="0" id="GRID.text.1737.1.1.text" text-anchor="middle" font-size="13.2" stroke="rgb(102,102,102)" font-family="Helvetica, Arial, FreeSans, Liberation Sans, Nimbus Sans L, sans-serif" fill="rgb(102,102,102)" stroke-opacity="1" fill-opacity="1" font-weight="normal" font-style="normal">
                          <tspan id="GRID.text.1737.1.1.tspan.1" dy="9.33" x="0">anagrafica elaborazioneinformazioni</tspan>
                        </text>
                      </g>
                    </g>
                  </g>
                </g>
              </g>
            </g>
          </g>
          <g id="layout::caption.10-5-10-5.1" class="viewport"/>
          <g id="layout::tag.2-2-2-2.1" class="viewport"/>
        </g>
      </g>
    </g>
  </g>
</svg>