<?xml version="1.0" encoding="UTF-8"?>
<svg xmlns="http://www.w3.org/2000/svg" xmlns:xlink="http://www.w3.org/1999/xlink" width="504px" height="504px" viewBox="0 0 504 504" version="1.1">
  <metadata xmlns:gridsvg="http://www.stat.auckland.ac.nz/~paul/R/gridSVG/">
    <gridsvg:generator name="gridSVG" version="1.6-0" time="2019-01-18 23:17:30"/>
    <gridsvg:argument name="name" value="./latest_informaggio_csv/anziani/risultati/svg/anagrafica-disclaimer.svg"/>
    <gridsvg:argument name="exportCoords" value="none"/>
    <gridsvg:argument name="exportMappings" value="none"/>
    <gridsvg:argument name="exportJS" value="none"/>
    <gridsvg:argument name="res" value="72"/>
    <gridsvg:argument name="prefix" value=""/>
    <gridsvg:argument name="addClasses" value="TRUE"/>
    <gridsvg:argument name="indent" value="TRUE"/>
    <gridsvg:argument name="htmlWrapper" value="FALSE"/>
    <gridsvg:argument name="usePaths" value="vpPaths"/>
    <gridsvg:argument name="uniqueNames" value="TRUE"/>
    <gridsvg:separator name="id.sep" value="."/>
    <gridsvg:separator name="gPath.sep" value="::"/>
    <gridsvg:separator name="vpPath.sep" value="::"/>
  </metadata>
  <g transform="translate(0, 504) scale(1, -1)">
    <g id="gridSVG" fill="none" stroke="rgb(0,0,0)" stroke-dasharray="none" stroke-width="0.75" font-size="12" font-family="Helvetica, Arial, FreeSans, Liberation Sans, Nimbus Sans L, sans-serif" opacity="1" stroke-linecap="round" stroke-linejoin="round" stroke-miterlimit="10" stroke-opacity="1" fill-opacity="0" font-weight="normal" font-style="normal">
      <g id="layout.1" class="viewport">
        <g id="layout.2" class="forcedgrob gtable gTree grob gDesc">
          <defs>
            <clipPath id="layout::background.1-11-12-1.1.clipPath">
              <rect x="0" y="37.87" width="504" height="428.26" fill="none" stroke="none"/>
            </clipPath>
          </defs>
          <g id="layout::background.1-11-12-1.1" clip-path="url(#layout::background.1-11-12-1.1.clipPath)" class="viewport">
            <g id="background.1-11-12-1.1" class="forcedgrob gTableChild rect grob gDesc">
              <rect id="background.1-11-12-1.1.1" x="0" y="37.87" width="504" height="428.26" transform="" stroke-width="1.07" stroke="rgb(255,255,255)" fill="rgb(255,255,255)" stroke-dasharray="none" stroke-opacity="1" fill-opacity="1"/>
            </g>
          </g>
          <defs>
            <clipPath id="layout::panel.7-5-7-5.1.clipPath">
              <rect x="8.22" y="46.09" width="397.11" height="397.11" fill="none" stroke="none"/>
            </clipPath>
          </defs>
          <g id="layout::panel.7-5-7-5.1" clip-path="url(#layout::panel.7-5-7-5.1.clipPath)" class="viewport">
            <g id="panel.7-5-7-5.1" class="forcedgrob gTableChild gTree grob gDesc">
              <g id="grill.gTree.1489.1" class="gTree grob gDesc">
                <g id="panel.background..rect.1485.1" class="rect grob gDesc">
                  <rect id="panel.background..rect.1485.1.1" x="8.22" y="46.09" width="397.11" height="397.11" transform="" stroke-width="1.07" stroke="none" fill="rgb(255,255,255)" stroke-dasharray="none" stroke-opacity="0" fill-opacity="1"/>
                </g>
              </g>
              <g id="bar.gTree.1478.1" class="gTree grob gDesc">
                <g id="geom_polygon.polygon.1470.1" class="polygon grob gDesc">
                  <polygon id="geom_polygon.polygon.1470.1.1" points="206.77,244.64 204.13,239.84 201.49,235.04 198.86,230.24 196.22,225.44 193.58,220.64 190.94,215.84 188.3,211.04 185.66,206.24 183.02,201.44 180.38,196.65 177.75,191.85 175.11,187.05 172.47,182.25 169.83,177.45 167.19,172.65 164.55,167.85 161.91,163.05 159.27,158.25 156.64,153.45 154,148.65 151.36,143.85 148.72,139.05 146.08,134.25 143.44,129.45 140.8,124.65 138.17,119.85 135.53,115.05 132.89,110.25 130.25,105.45 135.03,102.92 139.9,100.56 144.85,98.37 149.86,96.35 154.95,94.49 160.09,92.82 165.29,91.31 170.53,89.99 175.82,88.85 181.14,87.88 186.49,87.1 191.87,86.5 197.26,86.09 202.67,85.85 208.08,85.81 213.49,85.94 218.89,86.26 224.27,86.77 229.64,87.46 234.98,88.33 240.28,89.38 245.55,90.61 250.77,92.02 255.95,93.6 261.06,95.37 266.11,97.3 271.09,99.41 276,101.68 280.83,104.12 285.57,106.73 290.22,109.49 294.78,112.41 299.23,115.48 303.57,118.71 307.81,122.08 311.92,125.59 315.91,129.24 319.78,133.02 323.52,136.93 327.12,140.97 330.58,145.13 333.89,149.4 337.06,153.79 340.08,158.28 342.94,162.86 345.65,167.55 348.2,172.32 350.58,177.18 352.79,182.12 354.83,187.12 356.71,192.2 358.41,197.34 359.93,202.53 361.27,207.77 362.44,213.05 363.43,218.37 364.23,223.72 364.85,229.09 365.29,234.48 365.54,239.89 365.61,245.3 365.5,250.7 365.2,256.11 364.72,261.49 364.05,266.86 363.2,272.21 362.17,277.52 360.97,282.79 359.58,288.02 358.01,293.2 356.27,298.32 354.36,303.38 352.27,308.37 350.02,313.29 347.6,318.12 345.01,322.88 342.27,327.54 339.37,332.1 336.31,336.57 333.11,340.93 329.75,345.17 326.26,349.3 322.63,353.31 318.86,357.19 314.96,360.94 310.94,364.56 306.79,368.04 302.53,371.37 298.16,374.56 293.69,377.6 289.11,380.48 284.44,383.2 279.67,385.77 274.83,388.17 269.9,390.4 264.9,392.47 259.83,394.36 254.7,396.08 249.52,397.63 244.28,398.99 239.01,400.18 233.69,401.19 228.34,402.01 222.97,402.66 217.58,403.12 212.18,403.39 206.77,403.49 206.77,398.01 206.77,392.53 206.77,387.05 206.77,381.58 206.77,376.1 206.77,370.62 206.77,365.14 206.77,359.67 206.77,354.19 206.77,348.71 206.77,343.23 206.77,337.76 206.77,332.28 206.77,326.8 206.77,321.33 206.77,315.85 206.77,310.37 206.77,304.89 206.77,299.42 206.77,293.94 206.77,288.46 206.77,282.98 206.77,277.51 206.77,272.03 206.77,266.55 206.77,261.08 206.77,255.6 206.77,250.12 206.77,244.64 206.77,244.64" stroke="none" fill="rgb(199,124,255)" stroke-width="1.07" stroke-dasharray="none" stroke-opacity="0" fill-opacity="1"/>
                </g>
                <g id="geom_polygon.polygon.1472.1" class="polygon grob gDesc">
                  <polygon id="geom_polygon.polygon.1472.1.1" points="206.77,244.64 204.76,249.74 202.74,254.83 200.72,259.92 198.71,265.01 196.69,270.11 194.67,275.2 192.66,280.29 190.64,285.38 188.62,290.48 186.61,295.57 184.59,300.66 182.58,305.76 180.56,310.85 178.54,315.94 176.53,321.03 174.51,326.13 172.49,331.22 170.48,336.31 168.46,341.4 166.45,346.5 164.43,351.59 162.41,356.68 160.4,361.77 158.38,366.87 156.36,371.96 154.35,377.05 152.33,382.15 150.31,387.24 148.3,392.33 143.27,390.24 138.32,387.98 133.45,385.55 128.66,382.95 123.97,380.2 119.37,377.28 114.88,374.21 110.5,370.98 106.22,367.61 102.07,364.09 98.04,360.43 94.13,356.64 90.36,352.71 86.73,348.66 83.23,344.49 79.88,340.2 76.68,335.79 73.64,331.28 70.75,326.67 68.02,321.96 65.45,317.16 63.05,312.27 60.81,307.31 58.75,302.27 56.86,297.17 55.15,292 53.62,286.78 52.27,281.5 51.09,276.19 50.1,270.83 49.3,265.45 48.68,260.04 48.24,254.62 47.99,249.18 47.93,243.74 48.06,238.29 48.37,232.86 48.86,227.44 49.55,222.04 50.41,216.66 51.46,211.32 52.7,206.02 54.11,200.76 55.7,195.56 57.47,190.41 59.42,185.33 61.54,180.31 63.83,175.37 66.29,170.52 68.91,165.75 71.69,161.07 74.64,156.49 77.73,152.01 80.98,147.65 84.38,143.39 87.92,139.26 91.6,135.25 95.42,131.37 99.37,127.62 103.44,124.01 107.63,120.54 111.94,117.21 116.37,114.04 120.9,111.02 125.52,108.15 130.25,105.45 132.89,110.25 135.53,115.05 138.17,119.85 140.8,124.65 143.44,129.45 146.08,134.25 148.72,139.05 151.36,143.85 154,148.65 156.64,153.45 159.27,158.25 161.91,163.05 164.55,167.85 167.19,172.65 169.83,177.45 172.47,182.25 175.11,187.05 177.75,191.85 180.38,196.65 183.02,201.44 185.66,206.24 188.3,211.04 190.94,215.84 193.58,220.64 196.22,225.44 198.86,230.24 201.49,235.04 204.13,239.84 206.77,244.64 206.77,244.64" stroke="none" fill="rgb(0,191,196)" stroke-width="1.07" stroke-dasharray="none" stroke-opacity="0" fill-opacity="1"/>
                </g>
                <g id="geom_polygon.polygon.1474.1" class="polygon grob gDesc">
                  <polygon id="geom_polygon.polygon.1474.1.1" points="206.77,244.64 206.09,250.08 205.4,255.51 204.71,260.95 204.03,266.38 203.34,271.81 202.65,277.25 201.97,282.68 201.28,288.12 200.59,293.55 199.91,298.98 199.22,304.42 198.53,309.85 197.85,315.29 197.16,320.72 196.47,326.15 195.79,331.59 195.1,337.02 194.41,342.46 193.73,347.89 193.04,353.33 192.36,358.76 191.67,364.19 190.98,369.63 190.3,375.06 189.61,380.5 188.92,385.93 188.24,391.36 187.55,396.8 186.86,402.23 181.22,401.42 175.61,400.4 170.04,399.18 164.51,397.76 159.04,396.15 153.64,394.33 148.3,392.33 150.31,387.24 152.33,382.15 154.35,377.05 156.36,371.96 158.38,366.87 160.4,361.77 162.41,356.68 164.43,351.59 166.45,346.5 168.46,341.4 170.48,336.31 172.49,331.22 174.51,326.13 176.53,321.03 178.54,315.94 180.56,310.85 182.58,305.76 184.59,300.66 186.61,295.57 188.62,290.48 190.64,285.38 192.66,280.29 194.67,275.2 196.69,270.11 198.71,265.01 200.72,259.92 202.74,254.83 204.76,249.74 206.77,244.64 206.77,244.64" stroke="none" fill="rgb(124,174,0)" stroke-width="1.07" stroke-dasharray="none" stroke-opacity="0" fill-opacity="1"/>
                </g>
                <g id="geom_polygon.polygon.1476.1" class="polygon grob gDesc">
                  <polygon id="geom_polygon.polygon.1476.1.1" points="206.77,244.64 206.77,250.12 206.77,255.6 206.77,261.08 206.77,266.55 206.77,272.03 206.77,277.51 206.77,282.98 206.77,288.46 206.77,293.94 206.77,299.42 206.77,304.89 206.77,310.37 206.77,315.85 206.77,321.33 206.77,326.8 206.77,332.28 206.77,337.76 206.77,343.23 206.77,348.71 206.77,354.19 206.77,359.67 206.77,365.14 206.77,370.62 206.77,376.1 206.77,381.58 206.77,387.05 206.77,392.53 206.77,398.01 206.77,403.49 200.12,403.35 193.48,402.93 186.86,402.23 187.55,396.8 188.24,391.36 188.92,385.93 189.61,380.5 190.3,375.06 190.98,369.63 191.67,364.19 192.36,358.76 193.04,353.33 193.73,347.89 194.41,342.46 195.1,337.02 195.79,331.59 196.47,326.15 197.16,320.72 197.85,315.29 198.53,309.85 199.22,304.42 199.91,298.98 200.59,293.55 201.28,288.12 201.97,282.68 202.65,277.25 203.34,271.81 204.03,266.38 204.71,260.95 205.4,255.51 206.09,250.08 206.77,244.64 206.77,244.64" stroke="none" fill="rgb(248,118,109)" stroke-width="1.07" stroke-dasharray="none" stroke-opacity="0" fill-opacity="1"/>
                </g>
              </g>
              <g id="GRID.text.1479.1" class="text grob gDesc">
                <g id="GRID.text.1479.1.1" transform="translate(283.7, 224.89)" stroke-width="0.1">
                  <g id="GRID.text.1479.1.1.scale" transform="scale(1, -1)">
                    <text x="0" y="0" id="GRID.text.1479.1.1.text" text-anchor="middle" stroke="rgb(0,0,0)" font-size="11.04" font-family="Helvetica, Arial, FreeSans, Liberation Sans, Nimbus Sans L, sans-serif" fill="rgb(0,0,0)" stroke-opacity="1" fill-opacity="1" font-weight="normal" font-style="normal">
                      <tspan id="GRID.text.1479.1.1.tspan.1" dy="3.95" x="0">29</tspan>
                    </text>
                  </g>
                </g>
                <g id="GRID.text.1479.1.2" transform="translate(127.51, 249.63)" stroke-width="0.1">
                  <g id="GRID.text.1479.1.2.scale" transform="scale(1, -1)">
                    <text x="0" y="0" id="GRID.text.1479.1.2.text" text-anchor="middle" stroke="rgb(0,0,0)" font-size="11.04" font-family="Helvetica, Arial, FreeSans, Liberation Sans, Nimbus Sans L, sans-serif" fill="rgb(0,0,0)" stroke-opacity="1" fill-opacity="1" font-weight="normal" font-style="normal">
                      <tspan id="GRID.text.1479.1.2.tspan.1" dy="3.95" x="0">18</tspan>
                    </text>
                  </g>
                </g>
                <g id="GRID.text.1479.1.3" transform="translate(187.02, 321.57)" stroke-width="0.1">
                  <g id="GRID.text.1479.1.3.scale" transform="scale(1, -1)">
                    <text x="0" y="0" id="GRID.text.1479.1.3.text" text-anchor="middle" stroke="rgb(0,0,0)" font-size="11.04" font-family="Helvetica, Arial, FreeSans, Liberation Sans, Nimbus Sans L, sans-serif" fill="rgb(0,0,0)" stroke-opacity="1" fill-opacity="1" font-weight="normal" font-style="normal">
                      <tspan id="GRID.text.1479.1.3.tspan.1" dy="3.95" x="0">2</tspan>
                    </text>
                  </g>
                </g>
                <g id="GRID.text.1479.1.4" transform="translate(201.78, 323.91)" stroke-width="0.1">
                  <g id="GRID.text.1479.1.4.scale" transform="scale(1, -1)">
                    <text x="0" y="0" id="GRID.text.1479.1.4.text" text-anchor="middle" stroke="rgb(0,0,0)" font-size="11.04" font-family="Helvetica, Arial, FreeSans, Liberation Sans, Nimbus Sans L, sans-serif" fill="rgb(0,0,0)" stroke-opacity="1" fill-opacity="1" font-weight="normal" font-style="normal">
                      <tspan id="GRID.text.1479.1.4.tspan.1" dy="3.95" x="0">1</tspan>
                    </text>
                  </g>
                </g>
              </g>
              <g id="GRID.gTree.1480.1" class="gTree grob gDesc"/>
            </g>
          </g>
          <g id="layout::spacer.8-6-8-6.1" class="viewport"/>
          <g id="layout::spacer.8-4-8-4.1" class="viewport"/>
          <g id="layout::spacer.6-6-6-6.1" class="viewport"/>
          <g id="layout::spacer.6-4-6-4.1" class="viewport"/>
          <g id="layout::axis-t.6-5-6-5.1" class="viewport"/>
          <g id="layout::axis-l.7-4-7-4.1" class="viewport">
            <g id="layout::axis-l.7-4-7-4::GRID.VP.341.1" class="viewport">
              <g id="axis-l.7-4-7-4.1" class="forcedgrob gTableChild absoluteGrob gTree grob gDesc">
                <g id="layout::axis-l.7-4-7-4::GRID.VP.341::axis.1" class="viewport">
                  <g id="axis.1" class="forcedgrob gtable gTree grob gDesc">
                    <g id="layout::axis-l.7-4-7-4::GRID.VP.341::axis::axis.1-1-1-1.1" class="viewport"/>
                    <g id="layout::axis-l.7-4-7-4::GRID.VP.341::axis::axis.1-2-1-2.1" class="viewport"/>
                  </g>
                </g>
              </g>
            </g>
          </g>
          <g id="layout::axis-r.7-6-7-6.1" class="viewport"/>
          <g id="layout::axis-b.8-5-8-5.1" class="viewport">
            <g id="layout::axis-b.8-5-8-5::GRID.VP.340.1" class="viewport">
              <g id="axis-b.8-5-8-5.1" class="forcedgrob gTableChild absoluteGrob gTree grob gDesc">
                <g id="layout::axis-b.8-5-8-5::GRID.VP.340::axis.1" class="viewport">
                  <g id="axis.2" class="forcedgrob gtable gTree grob gDesc">
                    <g id="layout::axis-b.8-5-8-5::GRID.VP.340::axis::axis.1-1-1-1.1" class="viewport"/>
                    <g id="layout::axis-b.8-5-8-5::GRID.VP.340::axis::axis.2-1-2-1.1" class="viewport"/>
                  </g>
                </g>
              </g>
            </g>
          </g>
          <g id="layout::xlab-t.5-5-5-5.1" class="viewport"/>
          <g id="layout::xlab-b.9-5-9-5.1" class="viewport"/>
          <g id="layout::ylab-l.7-3-7-3.1" class="viewport"/>
          <g id="layout::ylab-r.7-7-7-7.1" class="viewport"/>
          <g id="layout::guide-box.7-9-7-9.1" class="viewport">
            <g id="layout::guide-box.7-9-7-9::GRID.VP.355.1" class="viewport">
              <g id="layout::guide-box.7-9-7-9::GRID.VP.355::guide-box.7-9-7-9.1" class="viewport">
                <g id="guide-box.7-9-7-9.1" class="forcedgrob gTableChild gtable gTree grob gDesc">
                  <g id="layout::guide-box.7-9-7-9::GRID.VP.355::guide-box.7-9-7-9::legend.box.background.2-4-4-2.1" class="viewport"/>
                  <g id="layout::guide-box.7-9-7-9::GRID.VP.355::guide-box.7-9-7-9::guides.3-3-3-3.1" class="viewport">
                    <g id="layout::guide-box.7-9-7-9::GRID.VP.355::guide-box.7-9-7-9::guides.3-3-3-3::GRID.VP.354.1" class="viewport">
                      <g id="layout::guide-box.7-9-7-9::GRID.VP.355::guide-box.7-9-7-9::guides.3-3-3-3::GRID.VP.354::guides.3-3-3-3.1" class="viewport">
                        <g id="guides.3-3-3-3.1" class="forcedgrob gTableChild gtable gTree grob gDesc">
                          <g id="layout::guide-box.7-9-7-9::GRID.VP.355::guide-box.7-9-7-9::guides.3-3-3-3::GRID.VP.354::guides.3-3-3-3::background.1-6-8-1.1" class="viewport">
                            <g id="background.1-6-8-1.1" class="forcedgrob gTableChild rect grob gDesc">
                              <rect id="background.1-6-8-1.1.1" x="416.28" y="201.86" width="82.24" height="85.56" transform="" stroke-width="1.07" stroke="none" fill="rgb(255,255,255)" stroke-dasharray="none" stroke-opacity="0" fill-opacity="1"/>
                            </g>
                          </g>
                          <g id="layout::guide-box.7-9-7-9::GRID.VP.355::guide-box.7-9-7-9::guides.3-3-3-3::GRID.VP.354::guides.3-3-3-3::title.2-5-2-2.1" class="viewport"/>
                          <g id="layout::guide-box.7-9-7-9::GRID.VP.355::guide-box.7-9-7-9::guides.3-3-3-3::GRID.VP.354::guides.3-3-3-3::key-3-1-bg.4-2-4-2.1" class="viewport"/>
                          <g id="layout::guide-box.7-9-7-9::GRID.VP.355::guide-box.7-9-7-9::guides.3-3-3-3::GRID.VP.354::guides.3-3-3-3::key-3-1-1.4-2-4-2.1" class="viewport">
                            <g id="key-3-1-1.4-2-4-2.1" class="forcedgrob gTableChild rect grob gDesc">
                              <rect id="key-3-1-1.4-2-4-2.1.1" x="422.47" y="259.89" width="15.86" height="15.86" transform="" stroke="none" fill="rgb(248,118,109)" stroke-dasharray="none" stroke-width="1.07" stroke-linejoin="miter" stroke-opacity="0" fill-opacity="1"/>
                            </g>
                          </g>
                          <g id="layout::guide-box.7-9-7-9::GRID.VP.355::guide-box.7-9-7-9::guides.3-3-3-3::GRID.VP.354::guides.3-3-3-3::key-4-1-bg.5-2-5-2.1" class="viewport"/>
                          <g id="layout::guide-box.7-9-7-9::GRID.VP.355::guide-box.7-9-7-9::guides.3-3-3-3::GRID.VP.354::guides.3-3-3-3::key-4-1-1.5-2-5-2.1" class="viewport">
                            <g id="key-4-1-1.5-2-5-2.1" class="forcedgrob gTableChild rect grob gDesc">
                              <rect id="key-4-1-1.5-2-5-2.1.1" x="422.47" y="242.61" width="15.86" height="15.86" transform="" stroke="none" fill="rgb(124,174,0)" stroke-dasharray="none" stroke-width="1.07" stroke-linejoin="miter" stroke-opacity="0" fill-opacity="1"/>
                            </g>
                          </g>
                          <g id="layout::guide-box.7-9-7-9::GRID.VP.355::guide-box.7-9-7-9::guides.3-3-3-3::GRID.VP.354::guides.3-3-3-3::key-5-1-bg.6-2-6-2.1" class="viewport"/>
                          <g id="layout::guide-box.7-9-7-9::GRID.VP.355::guide-box.7-9-7-9::guides.3-3-3-3::GRID.VP.354::guides.3-3-3-3::key-5-1-1.6-2-6-2.1" class="viewport">
                            <g id="key-5-1-1.6-2-6-2.1" class="forcedgrob gTableChild rect grob gDesc">
                              <rect id="key-5-1-1.6-2-6-2.1.1" x="422.47" y="225.33" width="15.86" height="15.86" transform="" stroke="none" fill="rgb(0,191,196)" stroke-dasharray="none" stroke-width="1.07" stroke-linejoin="miter" stroke-opacity="0" fill-opacity="1"/>
                            </g>
                          </g>
                          <g id="layout::guide-box.7-9-7-9::GRID.VP.355::guide-box.7-9-7-9::guides.3-3-3-3::GRID.VP.354::guides.3-3-3-3::key-6-1-bg.7-2-7-2.1" class="viewport"/>
                          <g id="layout::guide-box.7-9-7-9::GRID.VP.355::guide-box.7-9-7-9::guides.3-3-3-3::GRID.VP.354::guides.3-3-3-3::key-6-1-1.7-2-7-2.1" class="viewport">
                            <g id="key-6-1-1.7-2-7-2.1" class="forcedgrob gTableChild rect grob gDesc">
                              <rect id="key-6-1-1.7-2-7-2.1.1" x="422.47" y="208.05" width="15.86" height="15.86" transform="" stroke="none" fill="rgb(199,124,255)" stroke-dasharray="none" stroke-width="1.07" stroke-linejoin="miter" stroke-opacity="0" fill-opacity="1"/>
                            </g>
                          </g>
                          <g id="layout::guide-box.7-9-7-9::GRID.VP.355::guide-box.7-9-7-9::guides.3-3-3-3::GRID.VP.354::guides.3-3-3-3::label-3-3.4-4-4-4.1" class="viewport">
                            <g id="layout::guide-box.7-9-7-9::GRID.VP.355::guide-box.7-9-7-9::guides.3-3-3-3::GRID.VP.354::guides.3-3-3-3::label-3-3.4-4-4-4::GRID.VP.350.1" class="viewport">
                              <g id="label-3-3.4-4-4-4.1" class="forcedgrob gTableChild gTree grob gDesc">
                                <g id="layout::guide-box.7-9-7-9::GRID.VP.355::guide-box.7-9-7-9::guides.3-3-3-3::GRID.VP.354::guides.3-3-3-3::label-3-3.4-4-4-4::GRID.VP.350::GRID.VP.342.1" font-size="8.8" stroke="rgb(0,0,0)" font-family="Helvetica, Arial, FreeSans, Liberation Sans, Nimbus Sans L, sans-serif" stroke-opacity="1" font-weight="normal" font-style="normal" class="viewport">
                                  <g id="layout::guide-box.7-9-7-9::GRID.VP.355::guide-box.7-9-7-9::guides.3-3-3-3::GRID.VP.354::guides.3-3-3-3::label-3-3.4-4-4-4::GRID.VP.350::GRID.VP.342::GRID.VP.343.1" class="viewport">
                                    <g id="guide.label.titleGrob.1503.1" class="titleGrob gTree grob gDesc">
                                      <g id="GRID.text.1501.1" class="text grob gDesc">
                                        <g id="GRID.text.1501.1.1" transform="translate(444.52, 267.82)" stroke-width="0.1">
                                          <g id="GRID.text.1501.1.1.scale" transform="scale(1, -1)">
                                            <text x="0" y="0" id="GRID.text.1501.1.1.text" text-anchor="start" font-size="8.8" stroke="rgb(0,0,0)" font-family="Helvetica, Arial, FreeSans, Liberation Sans, Nimbus Sans L, sans-serif" fill="rgb(0,0,0)" stroke-opacity="1" fill-opacity="1" font-weight="normal" font-style="normal">
                                              <tspan id="GRID.text.1501.1.1.tspan.1" dy="3.23" x="0">Fra (1)</tspan>
                                            </text>
                                          </g>
                                        </g>
                                      </g>
                                    </g>
                                  </g>
                                </g>
                              </g>
                            </g>
                          </g>
                          <g id="layout::guide-box.7-9-7-9::GRID.VP.355::guide-box.7-9-7-9::guides.3-3-3-3::GRID.VP.354::guides.3-3-3-3::label-4-3.5-4-5-4.1" class="viewport">
                            <g id="layout::guide-box.7-9-7-9::GRID.VP.355::guide-box.7-9-7-9::guides.3-3-3-3::GRID.VP.354::guides.3-3-3-3::label-4-3.5-4-5-4::GRID.VP.351.1" class="viewport">
                              <g id="label-4-3.5-4-5-4.1" class="forcedgrob gTableChild gTree grob gDesc">
                                <g id="layout::guide-box.7-9-7-9::GRID.VP.355::guide-box.7-9-7-9::guides.3-3-3-3::GRID.VP.354::guides.3-3-3-3::label-4-3.5-4-5-4::GRID.VP.351::GRID.VP.344.1" font-size="8.8" stroke="rgb(0,0,0)" font-family="Helvetica, Arial, FreeSans, Liberation Sans, Nimbus Sans L, sans-serif" stroke-opacity="1" font-weight="normal" font-style="normal" class="viewport">
                                  <g id="layout::guide-box.7-9-7-9::GRID.VP.355::guide-box.7-9-7-9::guides.3-3-3-3::GRID.VP.354::guides.3-3-3-3::label-4-3.5-4-5-4::GRID.VP.351::GRID.VP.344::GRID.VP.345.1" class="viewport">
                                    <g id="guide.label.titleGrob.1506.1" class="titleGrob gTree grob gDesc">
                                      <g id="GRID.text.1504.1" class="text grob gDesc">
                                        <g id="GRID.text.1504.1.1" transform="translate(444.52, 250.54)" stroke-width="0.1">
                                          <g id="GRID.text.1504.1.1.scale" transform="scale(1, -1)">
                                            <text x="0" y="0" id="GRID.text.1504.1.1.text" text-anchor="start" font-size="8.8" stroke="rgb(0,0,0)" font-family="Helvetica, Arial, FreeSans, Liberation Sans, Nimbus Sans L, sans-serif" fill="rgb(0,0,0)" stroke-opacity="1" fill-opacity="1" font-weight="normal" font-style="normal">
                                              <tspan id="GRID.text.1504.1.1.tspan.1" dy="3.23" x="0">accetto (2)</tspan>
                                            </text>
                                          </g>
                                        </g>
                                      </g>
                                    </g>
                                  </g>
                                </g>
                              </g>
                            </g>
                          </g>
                          <g id="layout::guide-box.7-9-7-9::GRID.VP.355::guide-box.7-9-7-9::guides.3-3-3-3::GRID.VP.354::guides.3-3-3-3::label-5-3.6-4-6-4.1" class="viewport">
                            <g id="layout::guide-box.7-9-7-9::GRID.VP.355::guide-box.7-9-7-9::guides.3-3-3-3::GRID.VP.354::guides.3-3-3-3::label-5-3.6-4-6-4::GRID.VP.352.1" class="viewport">
                              <g id="label-5-3.6-4-6-4.1" class="forcedgrob gTableChild gTree grob gDesc">
                                <g id="layout::guide-box.7-9-7-9::GRID.VP.355::guide-box.7-9-7-9::guides.3-3-3-3::GRID.VP.354::guides.3-3-3-3::label-5-3.6-4-6-4::GRID.VP.352::GRID.VP.346.1" font-size="8.8" stroke="rgb(0,0,0)" font-family="Helvetica, Arial, FreeSans, Liberation Sans, Nimbus Sans L, sans-serif" stroke-opacity="1" font-weight="normal" font-style="normal" class="viewport">
                                  <g id="layout::guide-box.7-9-7-9::GRID.VP.355::guide-box.7-9-7-9::guides.3-3-3-3::GRID.VP.354::guides.3-3-3-3::label-5-3.6-4-6-4::GRID.VP.352::GRID.VP.346::GRID.VP.347.1" class="viewport">
                                    <g id="guide.label.titleGrob.1509.1" class="titleGrob gTree grob gDesc">
                                      <g id="GRID.text.1507.1" class="text grob gDesc">
                                        <g id="GRID.text.1507.1.1" transform="translate(444.52, 233.26)" stroke-width="0.1">
                                          <g id="GRID.text.1507.1.1.scale" transform="scale(1, -1)">
                                            <text x="0" y="0" id="GRID.text.1507.1.1.text" text-anchor="start" font-size="8.8" stroke="rgb(0,0,0)" font-family="Helvetica, Arial, FreeSans, Liberation Sans, Nimbus Sans L, sans-serif" fill="rgb(0,0,0)" stroke-opacity="1" fill-opacity="1" font-weight="normal" font-style="normal">
                                              <tspan id="GRID.text.1507.1.1.tspan.1" dy="3.23" x="0">Accetto (18)</tspan>
                                            </text>
                                          </g>
                                        </g>
                                      </g>
                                    </g>
                                  </g>
                                </g>
                              </g>
                            </g>
                          </g>
                          <g id="layout::guide-box.7-9-7-9::GRID.VP.355::guide-box.7-9-7-9::guides.3-3-3-3::GRID.VP.354::guides.3-3-3-3::label-6-3.7-4-7-4.1" class="viewport">
                            <g id="layout::guide-box.7-9-7-9::GRID.VP.355::guide-box.7-9-7-9::guides.3-3-3-3::GRID.VP.354::guides.3-3-3-3::label-6-3.7-4-7-4::GRID.VP.353.1" class="viewport">
                              <g id="label-6-3.7-4-7-4.1" class="forcedgrob gTableChild gTree grob gDesc">
                                <g id="layout::guide-box.7-9-7-9::GRID.VP.355::guide-box.7-9-7-9::guides.3-3-3-3::GRID.VP.354::guides.3-3-3-3::label-6-3.7-4-7-4::GRID.VP.353::GRID.VP.348.1" font-size="8.8" stroke="rgb(0,0,0)" font-family="Helvetica, Arial, FreeSans, Liberation Sans, Nimbus Sans L, sans-serif" stroke-opacity="1" font-weight="normal" font-style="normal" class="viewport">
                                  <g id="layout::guide-box.7-9-7-9::GRID.VP.355::guide-box.7-9-7-9::guides.3-3-3-3::GRID.VP.354::guides.3-3-3-3::label-6-3.7-4-7-4::GRID.VP.353::GRID.VP.348::GRID.VP.349.1" class="viewport">
                                    <g id="guide.label.titleGrob.1512.1" class="titleGrob gTree grob gDesc">
                                      <g id="GRID.text.1510.1" class="text grob gDesc">
                                        <g id="GRID.text.1510.1.1" transform="translate(444.52, 215.98)" stroke-width="0.1">
                                          <g id="GRID.text.1510.1.1.scale" transform="scale(1, -1)">
                                            <text x="0" y="0" id="GRID.text.1510.1.1.text" text-anchor="start" font-size="8.8" stroke="rgb(0,0,0)" font-family="Helvetica, Arial, FreeSans, Liberation Sans, Nimbus Sans L, sans-serif" fill="rgb(0,0,0)" stroke-opacity="1" fill-opacity="1" font-weight="normal" font-style="normal">
                                              <tspan id="GRID.text.1510.1.1.tspan.1" dy="3.23" x="0">NA (29)</tspan>
                                            </text>
                                          </g>
                                        </g>
                                      </g>
                                    </g>
                                  </g>
                                </g>
                              </g>
                            </g>
                          </g>
                        </g>
                      </g>
                    </g>
                  </g>
                </g>
              </g>
            </g>
          </g>
          <g id="layout::subtitle.4-5-4-5.1" class="viewport"/>
          <g id="layout::title.3-5-3-5.1" class="viewport">
            <g id="layout::title.3-5-3-5::GRID.VP.356.1" font-size="13.2" stroke="rgb(102,102,102)" font-family="Helvetica, Arial, FreeSans, Liberation Sans, Nimbus Sans L, sans-serif" stroke-opacity="1" font-weight="normal" font-style="normal" class="viewport">
              <g id="layout::title.3-5-3-5::GRID.VP.356::GRID.VP.357.1" class="viewport">
                <g id="title.3-5-3-5.1" class="forcedgrob gTableChild titleGrob gTree grob gDesc">
                  <g id="GRID.text.1527.1" class="text grob gDesc">
                    <g id="GRID.text.1527.1.1" transform="translate(206.77, 460.65)" stroke-width="0.1">
                      <g id="GRID.text.1527.1.1.scale" transform="scale(1, -1)">
                        <text x="0" y="0" id="GRID.text.1527.1.1.text" text-anchor="middle" font-size="13.2" stroke="rgb(102,102,102)" font-family="Helvetica, Arial, FreeSans, Liberation Sans, Nimbus Sans L, sans-serif" fill="rgb(102,102,102)" stroke-opacity="1" fill-opacity="1" font-weight="normal" font-style="normal">
                          <tspan id="GRID.text.1527.1.1.tspan.1" dy="9.33" x="0">anagrafica disclaimer</tspan>
                        </text>
                      </g>
                    </g>
                  </g>
                </g>
              </g>
            </g>
          </g>
          <g id="layout::caption.10-5-10-5.1" class="viewport"/>
          <g id="layout::tag.2-2-2-2.1" class="viewport"/>
        </g>
      </g>
    </g>
  </g>
</svg>