<?xml version="1.0" encoding="UTF-8"?>
<svg xmlns="http://www.w3.org/2000/svg" xmlns:xlink="http://www.w3.org/1999/xlink" width="504px" height="504px" viewBox="0 0 504 504" version="1.1">
  <metadata xmlns:gridsvg="http://www.stat.auckland.ac.nz/~paul/R/gridSVG/">
    <gridsvg:generator name="gridSVG" version="1.6-0" time="2019-01-14 19:41:02"/>
    <gridsvg:argument name="name" value="./latest_informaggio_csv/anziani/risultati/svg/anagrafica-disclaimer.svg"/>
    <gridsvg:argument name="exportCoords" value="none"/>
    <gridsvg:argument name="exportMappings" value="none"/>
    <gridsvg:argument name="exportJS" value="none"/>
    <gridsvg:argument name="res" value="72"/>
    <gridsvg:argument name="prefix" value=""/>
    <gridsvg:argument name="addClasses" value="TRUE"/>
    <gridsvg:argument name="indent" value="TRUE"/>
    <gridsvg:argument name="htmlWrapper" value="FALSE"/>
    <gridsvg:argument name="usePaths" value="vpPaths"/>
    <gridsvg:argument name="uniqueNames" value="TRUE"/>
    <gridsvg:separator name="id.sep" value="."/>
    <gridsvg:separator name="gPath.sep" value="::"/>
    <gridsvg:separator name="vpPath.sep" value="::"/>
  </metadata>
  <g transform="translate(0, 504) scale(1, -1)">
    <g id="gridSVG" fill="none" stroke="rgb(0,0,0)" stroke-dasharray="none" stroke-width="0.75" font-size="12" font-family="Helvetica, Arial, FreeSans, Liberation Sans, Nimbus Sans L, sans-serif" opacity="1" stroke-linecap="round" stroke-linejoin="round" stroke-miterlimit="10" stroke-opacity="1" fill-opacity="0" font-weight="normal" font-style="normal">
      <g id="layout.1" class="viewport">
        <g id="layout.2" class="forcedgrob gtable gTree grob gDesc">
          <defs>
            <clipPath id="layout::background.1-11-12-1.1.clipPath">
              <rect x="0" y="37.87" width="504" height="428.26" fill="none" stroke="none"/>
            </clipPath>
          </defs>
          <g id="layout::background.1-11-12-1.1" clip-path="url(#layout::background.1-11-12-1.1.clipPath)" class="viewport">
            <g id="background.1-11-12-1.1" class="forcedgrob gTableChild rect grob gDesc">
              <rect id="background.1-11-12-1.1.1" x="0" y="37.87" width="504" height="428.26" transform="" stroke-width="1.07" stroke="rgb(255,255,255)" fill="rgb(255,255,255)" stroke-dasharray="none" stroke-opacity="1" fill-opacity="1"/>
            </g>
          </g>
          <defs>
            <clipPath id="layout::panel.7-5-7-5.1.clipPath">
              <rect x="8.22" y="46.09" width="397.11" height="397.11" fill="none" stroke="none"/>
            </clipPath>
          </defs>
          <g id="layout::panel.7-5-7-5.1" clip-path="url(#layout::panel.7-5-7-5.1.clipPath)" class="viewport">
            <g id="panel.7-5-7-5.1" class="forcedgrob gTableChild gTree grob gDesc">
              <g id="grill.gTree.1588.1" class="gTree grob gDesc">
                <g id="panel.background..rect.1584.1" class="rect grob gDesc">
                  <rect id="panel.background..rect.1584.1.1" x="8.22" y="46.09" width="397.11" height="397.11" transform="" stroke-width="1.07" stroke="none" fill="rgb(255,255,255)" stroke-dasharray="none" stroke-opacity="0" fill-opacity="1"/>
                </g>
              </g>
              <g id="bar.gTree.1577.1" class="gTree grob gDesc">
                <g id="geom_polygon.polygon.1569.1" class="polygon grob gDesc">
                  <polygon id="geom_polygon.polygon.1569.1.1" points="206.77,244.64 204.68,239.58 202.58,234.52 200.48,229.46 198.39,224.4 196.29,219.34 194.2,214.28 192.1,209.22 190,204.16 187.91,199.1 185.81,194.04 183.71,188.98 181.62,183.92 179.52,178.86 177.43,173.8 175.33,168.74 173.23,163.68 171.14,158.62 169.04,153.56 166.95,148.5 164.85,143.44 162.75,138.38 160.66,133.31 158.56,128.25 156.47,123.19 154.37,118.13 152.27,113.07 150.18,108.01 148.08,102.95 145.99,97.89 151.01,95.91 156.09,94.1 161.24,92.47 166.43,91.01 171.68,89.73 176.96,88.62 182.28,87.7 187.63,86.96 192.99,86.4 198.38,86.02 203.77,85.83 209.17,85.82 214.57,85.99 219.95,86.35 225.32,86.89 230.67,87.61 235.99,88.51 241.28,89.6 246.53,90.86 251.73,92.3 256.88,93.91 261.97,95.7 267,97.66 271.96,99.8 276.85,102.09 281.65,104.56 286.37,107.18 290.99,109.97 295.52,112.9 299.94,116 304.26,119.24 308.46,122.62 312.55,126.15 316.52,129.81 320.36,133.6 324.06,137.53 327.63,141.57 331.07,145.74 334.35,150.02 337.5,154.41 340.49,158.9 343.32,163.5 346,168.18 348.52,172.96 350.87,177.82 353.06,182.75 355.08,187.76 356.93,192.83 358.6,197.96 360.1,203.15 361.42,208.38 362.56,213.65 363.52,218.97 364.31,224.31 364.91,229.67 365.32,235.05 365.56,240.45 365.61,245.84 365.48,251.24 365.16,256.63 364.66,262 363.98,267.36 363.12,272.69 362.08,277.98 360.85,283.24 359.45,288.45 357.88,293.61 356.13,298.72 354.2,303.76 352.11,308.74 349.85,313.64 347.42,318.46 344.83,323.2 342.08,327.84 339.18,332.39 336.12,336.84 332.91,341.18 329.56,345.41 326.06,349.53 322.43,353.52 318.67,357.38 314.77,361.12 310.75,364.72 306.61,368.19 302.35,371.51 297.99,374.68 293.52,377.71 288.95,380.58 284.28,383.29 279.53,385.84 274.69,388.23 269.77,390.46 264.78,392.52 259.72,394.4 254.6,396.11 249.43,397.65 244.2,399.01 238.94,400.19 233.63,401.2 228.3,402.02 222.94,402.66 217.56,403.12 212.17,403.39 206.77,403.49 206.77,398.01 206.77,392.53 206.77,387.05 206.77,381.58 206.77,376.1 206.77,370.62 206.77,365.14 206.77,359.67 206.77,354.19 206.77,348.71 206.77,343.23 206.77,337.76 206.77,332.28 206.77,326.8 206.77,321.33 206.77,315.85 206.77,310.37 206.77,304.89 206.77,299.42 206.77,293.94 206.77,288.46 206.77,282.98 206.77,277.51 206.77,272.03 206.77,266.55 206.77,261.08 206.77,255.6 206.77,250.12 206.77,244.64 206.77,244.64" stroke="none" fill="rgb(199,124,255)" stroke-width="1.07" stroke-dasharray="none" stroke-opacity="0" fill-opacity="1"/>
                </g>
                <g id="geom_polygon.polygon.1571.1" class="polygon grob gDesc">
                  <polygon id="geom_polygon.polygon.1571.1.1" points="206.77,244.64 204.68,249.7 202.58,254.76 200.48,259.82 198.39,264.88 196.29,269.95 194.2,275.01 192.1,280.07 190,285.13 187.91,290.19 185.81,295.25 183.71,300.31 181.62,305.37 179.52,310.43 177.43,315.49 175.33,320.55 173.23,325.61 171.14,330.67 169.04,335.73 166.95,340.79 164.85,345.85 162.75,350.91 160.66,355.97 158.56,361.03 156.47,366.09 154.37,371.15 152.27,376.21 150.18,381.27 148.08,386.33 145.99,391.39 141.01,389.23 136.11,386.9 131.3,384.41 126.57,381.75 121.93,378.93 117.4,375.96 112.97,372.83 108.65,369.55 104.44,366.13 100.35,362.56 96.39,358.86 92.55,355.03 88.85,351.06 85.29,346.98 81.86,342.77 78.59,338.45 75.46,334.02 72.48,329.48 69.66,324.85 67.01,320.12 64.51,315.3 62.18,310.4 60.02,305.43 58.03,300.38 56.21,295.27 54.57,290.1 53.11,284.88 51.83,279.61 50.72,274.3 49.8,268.96 49.06,263.58 48.51,258.19 48.14,252.78 47.95,247.36 47.95,241.93 48.14,236.51 48.51,231.1 49.06,225.7 49.8,220.33 50.72,214.99 51.83,209.68 53.11,204.41 54.57,199.18 56.21,194.01 58.03,188.9 60.02,183.86 62.18,178.88 64.51,173.98 67.01,169.17 69.66,164.44 72.48,159.81 75.46,155.27 78.59,150.84 81.86,146.52 85.29,142.31 88.85,138.22 92.55,134.26 96.39,130.42 100.35,126.72 104.44,123.16 108.65,119.73 112.97,116.46 117.4,113.33 121.93,110.35 126.57,107.54 131.3,104.88 136.11,102.38 141.01,100.05 145.99,97.89 148.08,102.95 150.18,108.01 152.27,113.07 154.37,118.13 156.47,123.19 158.56,128.25 160.66,133.31 162.75,138.38 164.85,143.44 166.95,148.5 169.04,153.56 171.14,158.62 173.23,163.68 175.33,168.74 177.43,173.8 179.52,178.86 181.62,183.92 183.71,188.98 185.81,194.04 187.91,199.1 190,204.16 192.1,209.22 194.2,214.28 196.29,219.34 198.39,224.4 200.48,229.46 202.58,234.52 204.68,239.58 206.77,244.64 206.77,244.64" stroke="none" fill="rgb(0,191,196)" stroke-width="1.07" stroke-dasharray="none" stroke-opacity="0" fill-opacity="1"/>
                </g>
                <g id="geom_polygon.polygon.1573.1" class="polygon grob gDesc">
                  <polygon id="geom_polygon.polygon.1573.1.1" points="206.77,244.64 206.06,250.07 205.34,255.5 204.63,260.93 203.91,266.36 203.2,271.8 202.48,277.23 201.77,282.66 201.05,288.09 200.34,293.52 199.62,298.95 198.91,304.38 198.19,309.81 197.48,315.24 196.76,320.67 196.05,326.1 195.33,331.53 194.62,336.96 193.9,342.39 193.19,347.82 192.47,353.25 191.76,358.68 191.04,364.11 190.33,369.54 189.61,374.97 188.9,380.4 188.18,385.83 187.47,391.27 186.75,396.7 186.04,402.13 180.16,401.24 174.33,400.14 168.54,398.81 162.8,397.28 157.12,395.53 151.52,393.56 145.99,391.39 148.08,386.33 150.18,381.27 152.27,376.21 154.37,371.15 156.47,366.09 158.56,361.03 160.66,355.97 162.75,350.91 164.85,345.85 166.95,340.79 169.04,335.73 171.14,330.67 173.23,325.61 175.33,320.55 177.43,315.49 179.52,310.43 181.62,305.37 183.71,300.31 185.81,295.25 187.91,290.19 190,285.13 192.1,280.07 194.2,275.01 196.29,269.95 198.39,264.88 200.48,259.82 202.58,254.76 204.68,249.7 206.77,244.64 206.77,244.64" stroke="none" fill="rgb(124,174,0)" stroke-width="1.07" stroke-dasharray="none" stroke-opacity="0" fill-opacity="1"/>
                </g>
                <g id="geom_polygon.polygon.1575.1" class="polygon grob gDesc">
                  <polygon id="geom_polygon.polygon.1575.1.1" points="206.77,244.64 206.77,250.12 206.77,255.6 206.77,261.08 206.77,266.55 206.77,272.03 206.77,277.51 206.77,282.98 206.77,288.46 206.77,293.94 206.77,299.42 206.77,304.89 206.77,310.37 206.77,315.85 206.77,321.33 206.77,326.8 206.77,332.28 206.77,337.76 206.77,343.23 206.77,348.71 206.77,354.19 206.77,359.67 206.77,365.14 206.77,370.62 206.77,376.1 206.77,381.58 206.77,387.05 206.77,392.53 206.77,398.01 206.77,403.49 199.84,403.33 192.93,402.88 186.04,402.13 186.75,396.7 187.47,391.27 188.18,385.83 188.9,380.4 189.61,374.97 190.33,369.54 191.04,364.11 191.76,358.68 192.47,353.25 193.19,347.82 193.9,342.39 194.62,336.96 195.33,331.53 196.05,326.1 196.76,320.67 197.48,315.24 198.19,309.81 198.91,304.38 199.62,298.95 200.34,293.52 201.05,288.09 201.77,282.66 202.48,277.23 203.2,271.8 203.91,266.36 204.63,260.93 205.34,255.5 206.06,250.07 206.77,244.64 206.77,244.64" stroke="none" fill="rgb(248,118,109)" stroke-width="1.07" stroke-dasharray="none" stroke-opacity="0" fill-opacity="1"/>
                </g>
              </g>
              <g id="GRID.text.1578.1" class="text grob gDesc">
                <g id="GRID.text.1578.1.1" transform="translate(284.67, 229.15)" stroke-width="0.1">
                  <g id="GRID.text.1578.1.1.scale" transform="scale(1, -1)">
                    <text x="0" y="0" id="GRID.text.1578.1.1.text" text-anchor="middle" stroke="rgb(0,0,0)" font-size="11.04" font-family="Helvetica, Arial, FreeSans, Liberation Sans, Nimbus Sans L, sans-serif" fill="rgb(0,0,0)" stroke-opacity="1" fill-opacity="1" font-weight="normal" font-style="normal">
                      <tspan id="GRID.text.1578.1.1.tspan.1" dy="3.95" x="0">27</tspan>
                    </text>
                  </g>
                </g>
                <g id="GRID.text.1578.1.2" transform="translate(127.35, 244.64)" stroke-width="0.1">
                  <g id="GRID.text.1578.1.2.scale" transform="scale(1, -1)">
                    <text x="0" y="0" id="GRID.text.1578.1.2.text" text-anchor="middle" stroke="rgb(0,0,0)" font-size="11.04" font-family="Helvetica, Arial, FreeSans, Liberation Sans, Nimbus Sans L, sans-serif" fill="rgb(0,0,0)" stroke-opacity="1" fill-opacity="1" font-weight="normal" font-style="normal">
                      <tspan id="GRID.text.1578.1.2.tspan.1" dy="3.95" x="0">18</tspan>
                    </text>
                  </g>
                </g>
                <g id="GRID.text.1578.1.3" transform="translate(186.22, 321.36)" stroke-width="0.1">
                  <g id="GRID.text.1578.1.3.scale" transform="scale(1, -1)">
                    <text x="0" y="0" id="GRID.text.1578.1.3.text" text-anchor="middle" stroke="rgb(0,0,0)" font-size="11.04" font-family="Helvetica, Arial, FreeSans, Liberation Sans, Nimbus Sans L, sans-serif" fill="rgb(0,0,0)" stroke-opacity="1" fill-opacity="1" font-weight="normal" font-style="normal">
                      <tspan id="GRID.text.1578.1.3.tspan.1" dy="3.95" x="0">2</tspan>
                    </text>
                  </g>
                </g>
                <g id="GRID.text.1578.1.4" transform="translate(201.58, 323.89)" stroke-width="0.1">
                  <g id="GRID.text.1578.1.4.scale" transform="scale(1, -1)">
                    <text x="0" y="0" id="GRID.text.1578.1.4.text" text-anchor="middle" stroke="rgb(0,0,0)" font-size="11.04" font-family="Helvetica, Arial, FreeSans, Liberation Sans, Nimbus Sans L, sans-serif" fill="rgb(0,0,0)" stroke-opacity="1" fill-opacity="1" font-weight="normal" font-style="normal">
                      <tspan id="GRID.text.1578.1.4.tspan.1" dy="3.95" x="0">1</tspan>
                    </text>
                  </g>
                </g>
              </g>
              <g id="GRID.gTree.1579.1" class="gTree grob gDesc"/>
            </g>
          </g>
          <g id="layout::spacer.8-6-8-6.1" class="viewport"/>
          <g id="layout::spacer.8-4-8-4.1" class="viewport"/>
          <g id="layout::spacer.6-6-6-6.1" class="viewport"/>
          <g id="layout::spacer.6-4-6-4.1" class="viewport"/>
          <g id="layout::axis-t.6-5-6-5.1" class="viewport"/>
          <g id="layout::axis-l.7-4-7-4.1" class="viewport">
            <g id="layout::axis-l.7-4-7-4::GRID.VP.368.1" class="viewport">
              <g id="axis-l.7-4-7-4.1" class="forcedgrob gTableChild absoluteGrob gTree grob gDesc">
                <g id="layout::axis-l.7-4-7-4::GRID.VP.368::axis.1" class="viewport">
                  <g id="axis.1" class="forcedgrob gtable gTree grob gDesc">
                    <g id="layout::axis-l.7-4-7-4::GRID.VP.368::axis::axis.1-1-1-1.1" class="viewport"/>
                    <g id="layout::axis-l.7-4-7-4::GRID.VP.368::axis::axis.1-2-1-2.1" class="viewport"/>
                  </g>
                </g>
              </g>
            </g>
          </g>
          <g id="layout::axis-r.7-6-7-6.1" class="viewport"/>
          <g id="layout::axis-b.8-5-8-5.1" class="viewport">
            <g id="layout::axis-b.8-5-8-5::GRID.VP.367.1" class="viewport">
              <g id="axis-b.8-5-8-5.1" class="forcedgrob gTableChild absoluteGrob gTree grob gDesc">
                <g id="layout::axis-b.8-5-8-5::GRID.VP.367::axis.1" class="viewport">
                  <g id="axis.2" class="forcedgrob gtable gTree grob gDesc">
                    <g id="layout::axis-b.8-5-8-5::GRID.VP.367::axis::axis.1-1-1-1.1" class="viewport"/>
                    <g id="layout::axis-b.8-5-8-5::GRID.VP.367::axis::axis.2-1-2-1.1" class="viewport"/>
                  </g>
                </g>
              </g>
            </g>
          </g>
          <g id="layout::xlab-t.5-5-5-5.1" class="viewport"/>
          <g id="layout::xlab-b.9-5-9-5.1" class="viewport"/>
          <g id="layout::ylab-l.7-3-7-3.1" class="viewport"/>
          <g id="layout::ylab-r.7-7-7-7.1" class="viewport"/>
          <g id="layout::guide-box.7-9-7-9.1" class="viewport">
            <g id="layout::guide-box.7-9-7-9::GRID.VP.382.1" class="viewport">
              <g id="layout::guide-box.7-9-7-9::GRID.VP.382::guide-box.7-9-7-9.1" class="viewport">
                <g id="guide-box.7-9-7-9.1" class="forcedgrob gTableChild gtable gTree grob gDesc">
                  <g id="layout::guide-box.7-9-7-9::GRID.VP.382::guide-box.7-9-7-9::legend.box.background.2-4-4-2.1" class="viewport"/>
                  <g id="layout::guide-box.7-9-7-9::GRID.VP.382::guide-box.7-9-7-9::guides.3-3-3-3.1" class="viewport">
                    <g id="layout::guide-box.7-9-7-9::GRID.VP.382::guide-box.7-9-7-9::guides.3-3-3-3::GRID.VP.381.1" class="viewport">
                      <g id="layout::guide-box.7-9-7-9::GRID.VP.382::guide-box.7-9-7-9::guides.3-3-3-3::GRID.VP.381::guides.3-3-3-3.1" class="viewport">
                        <g id="guides.3-3-3-3.1" class="forcedgrob gTableChild gtable gTree grob gDesc">
                          <g id="layout::guide-box.7-9-7-9::GRID.VP.382::guide-box.7-9-7-9::guides.3-3-3-3::GRID.VP.381::guides.3-3-3-3::background.1-6-8-1.1" class="viewport">
                            <g id="background.1-6-8-1.1" class="forcedgrob gTableChild rect grob gDesc">
                              <rect id="background.1-6-8-1.1.1" x="416.28" y="201.86" width="82.24" height="85.56" transform="" stroke-width="1.07" stroke="none" fill="rgb(255,255,255)" stroke-dasharray="none" stroke-opacity="0" fill-opacity="1"/>
                            </g>
                          </g>
                          <g id="layout::guide-box.7-9-7-9::GRID.VP.382::guide-box.7-9-7-9::guides.3-3-3-3::GRID.VP.381::guides.3-3-3-3::title.2-5-2-2.1" class="viewport"/>
                          <g id="layout::guide-box.7-9-7-9::GRID.VP.382::guide-box.7-9-7-9::guides.3-3-3-3::GRID.VP.381::guides.3-3-3-3::key-3-1-bg.4-2-4-2.1" class="viewport"/>
                          <g id="layout::guide-box.7-9-7-9::GRID.VP.382::guide-box.7-9-7-9::guides.3-3-3-3::GRID.VP.381::guides.3-3-3-3::key-3-1-1.4-2-4-2.1" class="viewport">
                            <g id="key-3-1-1.4-2-4-2.1" class="forcedgrob gTableChild rect grob gDesc">
                              <rect id="key-3-1-1.4-2-4-2.1.1" x="422.47" y="259.89" width="15.86" height="15.86" transform="" stroke="none" fill="rgb(248,118,109)" stroke-dasharray="none" stroke-width="1.07" stroke-linejoin="miter" stroke-opacity="0" fill-opacity="1"/>
                            </g>
                          </g>
                          <g id="layout::guide-box.7-9-7-9::GRID.VP.382::guide-box.7-9-7-9::guides.3-3-3-3::GRID.VP.381::guides.3-3-3-3::key-4-1-bg.5-2-5-2.1" class="viewport"/>
                          <g id="layout::guide-box.7-9-7-9::GRID.VP.382::guide-box.7-9-7-9::guides.3-3-3-3::GRID.VP.381::guides.3-3-3-3::key-4-1-1.5-2-5-2.1" class="viewport">
                            <g id="key-4-1-1.5-2-5-2.1" class="forcedgrob gTableChild rect grob gDesc">
                              <rect id="key-4-1-1.5-2-5-2.1.1" x="422.47" y="242.61" width="15.86" height="15.86" transform="" stroke="none" fill="rgb(124,174,0)" stroke-dasharray="none" stroke-width="1.07" stroke-linejoin="miter" stroke-opacity="0" fill-opacity="1"/>
                            </g>
                          </g>
                          <g id="layout::guide-box.7-9-7-9::GRID.VP.382::guide-box.7-9-7-9::guides.3-3-3-3::GRID.VP.381::guides.3-3-3-3::key-5-1-bg.6-2-6-2.1" class="viewport"/>
                          <g id="layout::guide-box.7-9-7-9::GRID.VP.382::guide-box.7-9-7-9::guides.3-3-3-3::GRID.VP.381::guides.3-3-3-3::key-5-1-1.6-2-6-2.1" class="viewport">
                            <g id="key-5-1-1.6-2-6-2.1" class="forcedgrob gTableChild rect grob gDesc">
                              <rect id="key-5-1-1.6-2-6-2.1.1" x="422.47" y="225.33" width="15.86" height="15.86" transform="" stroke="none" fill="rgb(0,191,196)" stroke-dasharray="none" stroke-width="1.07" stroke-linejoin="miter" stroke-opacity="0" fill-opacity="1"/>
                            </g>
                          </g>
                          <g id="layout::guide-box.7-9-7-9::GRID.VP.382::guide-box.7-9-7-9::guides.3-3-3-3::GRID.VP.381::guides.3-3-3-3::key-6-1-bg.7-2-7-2.1" class="viewport"/>
                          <g id="layout::guide-box.7-9-7-9::GRID.VP.382::guide-box.7-9-7-9::guides.3-3-3-3::GRID.VP.381::guides.3-3-3-3::key-6-1-1.7-2-7-2.1" class="viewport">
                            <g id="key-6-1-1.7-2-7-2.1" class="forcedgrob gTableChild rect grob gDesc">
                              <rect id="key-6-1-1.7-2-7-2.1.1" x="422.47" y="208.05" width="15.86" height="15.86" transform="" stroke="none" fill="rgb(199,124,255)" stroke-dasharray="none" stroke-width="1.07" stroke-linejoin="miter" stroke-opacity="0" fill-opacity="1"/>
                            </g>
                          </g>
                          <g id="layout::guide-box.7-9-7-9::GRID.VP.382::guide-box.7-9-7-9::guides.3-3-3-3::GRID.VP.381::guides.3-3-3-3::label-3-3.4-4-4-4.1" class="viewport">
                            <g id="layout::guide-box.7-9-7-9::GRID.VP.382::guide-box.7-9-7-9::guides.3-3-3-3::GRID.VP.381::guides.3-3-3-3::label-3-3.4-4-4-4::GRID.VP.377.1" class="viewport">
                              <g id="label-3-3.4-4-4-4.1" class="forcedgrob gTableChild gTree grob gDesc">
                                <g id="layout::guide-box.7-9-7-9::GRID.VP.382::guide-box.7-9-7-9::guides.3-3-3-3::GRID.VP.381::guides.3-3-3-3::label-3-3.4-4-4-4::GRID.VP.377::GRID.VP.369.1" font-size="8.8" stroke="rgb(0,0,0)" font-family="Helvetica, Arial, FreeSans, Liberation Sans, Nimbus Sans L, sans-serif" stroke-opacity="1" font-weight="normal" font-style="normal" class="viewport">
                                  <g id="layout::guide-box.7-9-7-9::GRID.VP.382::guide-box.7-9-7-9::guides.3-3-3-3::GRID.VP.381::guides.3-3-3-3::label-3-3.4-4-4-4::GRID.VP.377::GRID.VP.369::GRID.VP.370.1" class="viewport">
                                    <g id="guide.label.titleGrob.1602.1" class="titleGrob gTree grob gDesc">
                                      <g id="GRID.text.1600.1" class="text grob gDesc">
                                        <g id="GRID.text.1600.1.1" transform="translate(444.52, 267.82)" stroke-width="0.1">
                                          <g id="GRID.text.1600.1.1.scale" transform="scale(1, -1)">
                                            <text x="0" y="0" id="GRID.text.1600.1.1.text" text-anchor="start" font-size="8.8" stroke="rgb(0,0,0)" font-family="Helvetica, Arial, FreeSans, Liberation Sans, Nimbus Sans L, sans-serif" fill="rgb(0,0,0)" stroke-opacity="1" fill-opacity="1" font-weight="normal" font-style="normal">
                                              <tspan id="GRID.text.1600.1.1.tspan.1" dy="3.23" x="0">Fra (1)</tspan>
                                            </text>
                                          </g>
                                        </g>
                                      </g>
                                    </g>
                                  </g>
                                </g>
                              </g>
                            </g>
                          </g>
                          <g id="layout::guide-box.7-9-7-9::GRID.VP.382::guide-box.7-9-7-9::guides.3-3-3-3::GRID.VP.381::guides.3-3-3-3::label-4-3.5-4-5-4.1" class="viewport">
                            <g id="layout::guide-box.7-9-7-9::GRID.VP.382::guide-box.7-9-7-9::guides.3-3-3-3::GRID.VP.381::guides.3-3-3-3::label-4-3.5-4-5-4::GRID.VP.378.1" class="viewport">
                              <g id="label-4-3.5-4-5-4.1" class="forcedgrob gTableChild gTree grob gDesc">
                                <g id="layout::guide-box.7-9-7-9::GRID.VP.382::guide-box.7-9-7-9::guides.3-3-3-3::GRID.VP.381::guides.3-3-3-3::label-4-3.5-4-5-4::GRID.VP.378::GRID.VP.371.1" font-size="8.8" stroke="rgb(0,0,0)" font-family="Helvetica, Arial, FreeSans, Liberation Sans, Nimbus Sans L, sans-serif" stroke-opacity="1" font-weight="normal" font-style="normal" class="viewport">
                                  <g id="layout::guide-box.7-9-7-9::GRID.VP.382::guide-box.7-9-7-9::guides.3-3-3-3::GRID.VP.381::guides.3-3-3-3::label-4-3.5-4-5-4::GRID.VP.378::GRID.VP.371::GRID.VP.372.1" class="viewport">
                                    <g id="guide.label.titleGrob.1605.1" class="titleGrob gTree grob gDesc">
                                      <g id="GRID.text.1603.1" class="text grob gDesc">
                                        <g id="GRID.text.1603.1.1" transform="translate(444.52, 250.54)" stroke-width="0.1">
                                          <g id="GRID.text.1603.1.1.scale" transform="scale(1, -1)">
                                            <text x="0" y="0" id="GRID.text.1603.1.1.text" text-anchor="start" font-size="8.8" stroke="rgb(0,0,0)" font-family="Helvetica, Arial, FreeSans, Liberation Sans, Nimbus Sans L, sans-serif" fill="rgb(0,0,0)" stroke-opacity="1" fill-opacity="1" font-weight="normal" font-style="normal">
                                              <tspan id="GRID.text.1603.1.1.tspan.1" dy="3.23" x="0">accetto (2)</tspan>
                                            </text>
                                          </g>
                                        </g>
                                      </g>
                                    </g>
                                  </g>
                                </g>
                              </g>
                            </g>
                          </g>
                          <g id="layout::guide-box.7-9-7-9::GRID.VP.382::guide-box.7-9-7-9::guides.3-3-3-3::GRID.VP.381::guides.3-3-3-3::label-5-3.6-4-6-4.1" class="viewport">
                            <g id="layout::guide-box.7-9-7-9::GRID.VP.382::guide-box.7-9-7-9::guides.3-3-3-3::GRID.VP.381::guides.3-3-3-3::label-5-3.6-4-6-4::GRID.VP.379.1" class="viewport">
                              <g id="label-5-3.6-4-6-4.1" class="forcedgrob gTableChild gTree grob gDesc">
                                <g id="layout::guide-box.7-9-7-9::GRID.VP.382::guide-box.7-9-7-9::guides.3-3-3-3::GRID.VP.381::guides.3-3-3-3::label-5-3.6-4-6-4::GRID.VP.379::GRID.VP.373.1" font-size="8.8" stroke="rgb(0,0,0)" font-family="Helvetica, Arial, FreeSans, Liberation Sans, Nimbus Sans L, sans-serif" stroke-opacity="1" font-weight="normal" font-style="normal" class="viewport">
                                  <g id="layout::guide-box.7-9-7-9::GRID.VP.382::guide-box.7-9-7-9::guides.3-3-3-3::GRID.VP.381::guides.3-3-3-3::label-5-3.6-4-6-4::GRID.VP.379::GRID.VP.373::GRID.VP.374.1" class="viewport">
                                    <g id="guide.label.titleGrob.1608.1" class="titleGrob gTree grob gDesc">
                                      <g id="GRID.text.1606.1" class="text grob gDesc">
                                        <g id="GRID.text.1606.1.1" transform="translate(444.52, 233.26)" stroke-width="0.1">
                                          <g id="GRID.text.1606.1.1.scale" transform="scale(1, -1)">
                                            <text x="0" y="0" id="GRID.text.1606.1.1.text" text-anchor="start" font-size="8.8" stroke="rgb(0,0,0)" font-family="Helvetica, Arial, FreeSans, Liberation Sans, Nimbus Sans L, sans-serif" fill="rgb(0,0,0)" stroke-opacity="1" fill-opacity="1" font-weight="normal" font-style="normal">
                                              <tspan id="GRID.text.1606.1.1.tspan.1" dy="3.23" x="0">Accetto (18)</tspan>
                                            </text>
                                          </g>
                                        </g>
                                      </g>
                                    </g>
                                  </g>
                                </g>
                              </g>
                            </g>
                          </g>
                          <g id="layout::guide-box.7-9-7-9::GRID.VP.382::guide-box.7-9-7-9::guides.3-3-3-3::GRID.VP.381::guides.3-3-3-3::label-6-3.7-4-7-4.1" class="viewport">
                            <g id="layout::guide-box.7-9-7-9::GRID.VP.382::guide-box.7-9-7-9::guides.3-3-3-3::GRID.VP.381::guides.3-3-3-3::label-6-3.7-4-7-4::GRID.VP.380.1" class="viewport">
                              <g id="label-6-3.7-4-7-4.1" class="forcedgrob gTableChild gTree grob gDesc">
                                <g id="layout::guide-box.7-9-7-9::GRID.VP.382::guide-box.7-9-7-9::guides.3-3-3-3::GRID.VP.381::guides.3-3-3-3::label-6-3.7-4-7-4::GRID.VP.380::GRID.VP.375.1" font-size="8.8" stroke="rgb(0,0,0)" font-family="Helvetica, Arial, FreeSans, Liberation Sans, Nimbus Sans L, sans-serif" stroke-opacity="1" font-weight="normal" font-style="normal" class="viewport">
                                  <g id="layout::guide-box.7-9-7-9::GRID.VP.382::guide-box.7-9-7-9::guides.3-3-3-3::GRID.VP.381::guides.3-3-3-3::label-6-3.7-4-7-4::GRID.VP.380::GRID.VP.375::GRID.VP.376.1" class="viewport">
                                    <g id="guide.label.titleGrob.1611.1" class="titleGrob gTree grob gDesc">
                                      <g id="GRID.text.1609.1" class="text grob gDesc">
                                        <g id="GRID.text.1609.1.1" transform="translate(444.52, 215.98)" stroke-width="0.1">
                                          <g id="GRID.text.1609.1.1.scale" transform="scale(1, -1)">
                                            <text x="0" y="0" id="GRID.text.1609.1.1.text" text-anchor="start" font-size="8.8" stroke="rgb(0,0,0)" font-family="Helvetica, Arial, FreeSans, Liberation Sans, Nimbus Sans L, sans-serif" fill="rgb(0,0,0)" stroke-opacity="1" fill-opacity="1" font-weight="normal" font-style="normal">
                                              <tspan id="GRID.text.1609.1.1.tspan.1" dy="3.23" x="0">NA (27)</tspan>
                                            </text>
                                          </g>
                                        </g>
                                      </g>
                                    </g>
                                  </g>
                                </g>
                              </g>
                            </g>
                          </g>
                        </g>
                      </g>
                    </g>
                  </g>
                </g>
              </g>
            </g>
          </g>
          <g id="layout::subtitle.4-5-4-5.1" class="viewport"/>
          <g id="layout::title.3-5-3-5.1" class="viewport">
            <g id="layout::title.3-5-3-5::GRID.VP.383.1" font-size="13.2" stroke="rgb(102,102,102)" font-family="Helvetica, Arial, FreeSans, Liberation Sans, Nimbus Sans L, sans-serif" stroke-opacity="1" font-weight="normal" font-style="normal" class="viewport">
              <g id="layout::title.3-5-3-5::GRID.VP.383::GRID.VP.384.1" class="viewport">
                <g id="title.3-5-3-5.1" class="forcedgrob gTableChild titleGrob gTree grob gDesc">
                  <g id="GRID.text.1626.1" class="text grob gDesc">
                    <g id="GRID.text.1626.1.1" transform="translate(206.77, 460.65)" stroke-width="0.1">
                      <g id="GRID.text.1626.1.1.scale" transform="scale(1, -1)">
                        <text x="0" y="0" id="GRID.text.1626.1.1.text" text-anchor="middle" font-size="13.2" stroke="rgb(102,102,102)" font-family="Helvetica, Arial, FreeSans, Liberation Sans, Nimbus Sans L, sans-serif" fill="rgb(102,102,102)" stroke-opacity="1" fill-opacity="1" font-weight="normal" font-style="normal">
                          <tspan id="GRID.text.1626.1.1.tspan.1" dy="9.33" x="0">anagrafica disclaimer</tspan>
                        </text>
                      </g>
                    </g>
                  </g>
                </g>
              </g>
            </g>
          </g>
          <g id="layout::caption.10-5-10-5.1" class="viewport"/>
          <g id="layout::tag.2-2-2-2.1" class="viewport"/>
        </g>
      </g>
    </g>
  </g>
</svg>