<?xml version="1.0" encoding="UTF-8"?>
<svg xmlns="http://www.w3.org/2000/svg" xmlns:xlink="http://www.w3.org/1999/xlink" width="504px" height="504px" viewBox="0 0 504 504" version="1.1">
  <metadata xmlns:gridsvg="http://www.stat.auckland.ac.nz/~paul/R/gridSVG/">
    <gridsvg:generator name="gridSVG" version="1.6-0" time="2019-01-08 22:40:38"/>
    <gridsvg:argument name="name" value="./latest_informaggio_csv/anziani/risultati/svg/anagrafica-totali-elaborazioneinformazioni.svg"/>
    <gridsvg:argument name="exportCoords" value="none"/>
    <gridsvg:argument name="exportMappings" value="none"/>
    <gridsvg:argument name="exportJS" value="none"/>
    <gridsvg:argument name="res" value="72"/>
    <gridsvg:argument name="prefix" value=""/>
    <gridsvg:argument name="addClasses" value="TRUE"/>
    <gridsvg:argument name="indent" value="TRUE"/>
    <gridsvg:argument name="htmlWrapper" value="FALSE"/>
    <gridsvg:argument name="usePaths" value="vpPaths"/>
    <gridsvg:argument name="uniqueNames" value="TRUE"/>
    <gridsvg:separator name="id.sep" value="."/>
    <gridsvg:separator name="gPath.sep" value="::"/>
    <gridsvg:separator name="vpPath.sep" value="::"/>
  </metadata>
  <g transform="translate(0, 504) scale(1, -1)">
    <g id="gridSVG" fill="none" stroke="rgb(0,0,0)" stroke-dasharray="none" stroke-width="0.75" font-size="12" font-family="Helvetica, Arial, FreeSans, Liberation Sans, Nimbus Sans L, sans-serif" opacity="1" stroke-linecap="round" stroke-linejoin="round" stroke-miterlimit="10" stroke-opacity="1" fill-opacity="0" font-weight="normal" font-style="normal">
      <g id="layout.1" class="viewport">
        <g id="layout.2" class="forcedgrob gtable gTree grob gDesc">
          <defs>
            <clipPath id="layout::background.1-11-12-1.1.clipPath">
              <rect x="0" y="31.67" width="504" height="440.66" fill="none" stroke="none"/>
            </clipPath>
          </defs>
          <g id="layout::background.1-11-12-1.1" clip-path="url(#layout::background.1-11-12-1.1.clipPath)" class="viewport">
            <g id="background.1-11-12-1.1" class="forcedgrob gTableChild rect grob gDesc">
              <rect id="background.1-11-12-1.1.1" x="0" y="31.67" width="504" height="440.66" transform="" stroke-width="1.07" stroke="rgb(255,255,255)" fill="rgb(255,255,255)" stroke-dasharray="none" stroke-opacity="1" fill-opacity="1"/>
            </g>
          </g>
          <defs>
            <clipPath id="layout::panel.7-5-7-5.1.clipPath">
              <rect x="8.22" y="39.89" width="409.51" height="409.51" fill="none" stroke="none"/>
            </clipPath>
          </defs>
          <g id="layout::panel.7-5-7-5.1" clip-path="url(#layout::panel.7-5-7-5.1.clipPath)" class="viewport">
            <g id="panel.7-5-7-5.1" class="forcedgrob gTableChild gTree grob gDesc">
              <g id="grill.gTree.1864.1" class="gTree grob gDesc">
                <g id="panel.background..rect.1860.1" class="rect grob gDesc">
                  <rect id="panel.background..rect.1860.1.1" x="8.22" y="39.89" width="409.51" height="409.51" transform="" stroke-width="1.07" stroke="none" fill="rgb(255,255,255)" stroke-dasharray="none" stroke-opacity="0" fill-opacity="1"/>
                </g>
              </g>
              <g id="bar.gTree.1853.1" class="gTree grob gDesc">
                <g id="geom_polygon.polygon.1845.1" class="polygon grob gDesc">
                  <polygon id="geom_polygon.polygon.1845.1.1" points="212.97,244.64 215.8,239.75 218.62,234.86 221.45,229.97 224.27,225.08 227.09,220.18 229.92,215.29 232.74,210.4 235.57,205.51 238.39,200.62 241.21,195.73 244.04,190.84 246.86,185.94 249.69,181.05 252.51,176.16 255.34,171.27 258.16,166.38 260.98,161.49 263.81,156.59 266.63,151.7 269.46,146.81 272.28,141.92 275.1,137.03 277.93,132.14 280.75,127.24 283.58,122.35 286.4,117.46 289.23,112.57 292.05,107.68 294.87,102.79 299.65,105.65 304.32,108.68 308.89,111.86 313.35,115.2 317.69,118.69 321.91,122.32 326.01,126.09 329.97,130 333.8,134.05 337.49,138.22 341.04,142.51 344.44,146.93 347.68,151.45 350.77,156.08 353.7,160.82 356.47,165.65 359.07,170.58 361.51,175.59 363.77,180.67 365.86,185.84 367.77,191.07 369.5,196.36 371.05,201.71 372.42,207.11 373.6,212.55 374.6,218.03 375.41,223.54 376.03,229.07 376.47,234.62 376.71,240.19 376.77,245.76 376.64,251.32 376.32,256.88 375.81,262.43 375.11,267.95 374.22,273.45 373.15,278.92 371.89,284.34 370.45,289.72 368.83,295.05 367.02,300.32 365.04,305.52 362.88,310.66 360.55,315.71 358.05,320.69 355.38,325.58 352.55,330.37 349.56,335.07 346.4,339.66 343.1,344.14 339.64,348.5 336.03,352.75 332.29,356.87 328.4,360.86 324.39,364.72 320.24,368.44 315.97,372.01 311.58,375.44 307.08,378.72 302.47,381.84 297.75,384.8 292.94,387.6 288.03,390.24 283.04,392.7 277.97,395 272.82,397.12 267.6,399.07 262.32,400.84 256.98,402.42 251.59,403.83 246.16,405.05 240.69,406.08 235.18,406.93 229.65,407.59 224.1,408.07 218.54,408.35 212.97,408.45 212.97,402.8 212.97,397.15 212.97,391.5 212.97,385.85 212.97,380.2 212.97,374.56 212.97,368.91 212.97,363.26 212.97,357.61 212.97,351.96 212.97,346.31 212.97,340.67 212.97,335.02 212.97,329.37 212.97,323.72 212.97,318.07 212.97,312.42 212.97,306.78 212.97,301.13 212.97,295.48 212.97,289.83 212.97,284.18 212.97,278.53 212.97,272.89 212.97,267.24 212.97,261.59 212.97,255.94 212.97,250.29 212.97,244.64 212.97,244.64" stroke="none" fill="rgb(199,124,255)" stroke-width="1.07" stroke-dasharray="none" stroke-opacity="0" fill-opacity="1"/>
                </g>
                <g id="geom_polygon.polygon.1847.1" class="polygon grob gDesc">
                  <polygon id="geom_polygon.polygon.1847.1.1" points="212.97,244.64 207.52,243.18 202.06,241.72 196.61,240.26 191.15,238.8 185.69,237.33 180.24,235.87 174.78,234.41 169.33,232.95 163.87,231.49 158.41,230.02 152.96,228.56 147.5,227.1 142.05,225.64 136.59,224.18 131.13,222.71 125.68,221.25 120.22,219.79 114.77,218.33 109.31,216.87 103.85,215.41 98.4,213.94 92.94,212.48 87.49,211.02 82.03,209.56 76.57,208.1 71.12,206.63 65.66,205.17 60.21,203.71 54.75,202.25 56.28,196.9 57.99,191.61 59.88,186.39 61.94,181.23 64.18,176.14 66.59,171.13 69.17,166.2 71.92,161.37 74.82,156.63 77.89,152 81.11,147.47 84.48,143.05 88,138.75 91.67,134.57 95.47,130.51 99.41,126.59 103.49,122.81 107.68,119.16 112,115.66 116.44,112.31 120.98,109.11 125.63,106.07 130.38,103.18 135.23,100.46 140.17,97.91 145.19,95.52 150.29,93.31 155.46,91.27 160.7,89.41 165.99,87.72 171.35,86.22 176.74,84.9 182.19,83.76 187.66,82.81 193.17,82.04 198.7,81.46 204.24,81.07 209.8,80.87 215.36,80.86 220.91,81.03 226.46,81.4 231.99,81.95 237.5,82.69 242.98,83.61 248.43,84.72 253.83,86.02 259.19,87.5 264.5,89.15 269.74,90.99 274.92,93.01 280.03,95.2 285.06,97.56 290.01,100.09 294.87,102.79 292.05,107.68 289.23,112.57 286.4,117.46 283.58,122.35 280.75,127.24 277.93,132.14 275.1,137.03 272.28,141.92 269.46,146.81 266.63,151.7 263.81,156.59 260.98,161.49 258.16,166.38 255.34,171.27 252.51,176.16 249.69,181.05 246.86,185.94 244.04,190.84 241.21,195.73 238.39,200.62 235.57,205.51 232.74,210.4 229.92,215.29 227.09,220.18 224.27,225.08 221.45,229.97 218.62,234.86 215.8,239.75 212.97,244.64 212.97,244.64" stroke="none" fill="rgb(0,191,196)" stroke-width="1.07" stroke-dasharray="none" stroke-opacity="0" fill-opacity="1"/>
                </g>
                <g id="geom_polygon.polygon.1849.1" class="polygon grob gDesc">
                  <polygon id="geom_polygon.polygon.1849.1.1" points="212.97,244.64 209.53,249.12 206.1,253.61 202.66,258.09 199.22,262.57 195.78,267.05 192.34,271.53 188.9,276.01 185.46,280.49 182.03,284.97 178.59,289.45 175.15,293.94 171.71,298.42 168.27,302.9 164.83,307.38 161.4,311.86 157.96,316.34 154.52,320.82 151.08,325.3 147.64,329.79 144.2,334.27 140.76,338.75 137.33,343.23 133.89,347.71 130.45,352.19 127.01,356.67 123.57,361.15 120.13,365.63 116.69,370.12 113.26,374.6 108.81,371.06 104.5,367.38 100.31,363.55 96.26,359.57 92.35,355.46 88.58,351.22 84.96,346.84 81.5,342.35 78.19,337.73 75.05,333.01 72.07,328.18 69.26,323.25 66.62,318.22 64.16,313.11 61.88,307.91 59.78,302.64 57.86,297.3 56.13,291.89 54.59,286.43 53.24,280.92 52.08,275.36 51.11,269.77 50.34,264.15 49.76,258.5 49.38,252.84 49.19,247.17 49.2,241.49 49.41,235.82 49.81,230.16 50.41,224.51 51.21,218.89 52.2,213.31 53.38,207.75 54.75,202.25 60.21,203.71 65.66,205.17 71.12,206.63 76.57,208.1 82.03,209.56 87.49,211.02 92.94,212.48 98.4,213.94 103.85,215.41 109.31,216.87 114.77,218.33 120.22,219.79 125.68,221.25 131.13,222.71 136.59,224.18 142.05,225.64 147.5,227.1 152.96,228.56 158.41,230.02 163.87,231.49 169.33,232.95 174.78,234.41 180.24,235.87 185.69,237.33 191.15,238.8 196.61,240.26 202.06,241.72 207.52,243.18 212.97,244.64 212.97,244.64" stroke="none" fill="rgb(124,174,0)" stroke-width="1.07" stroke-dasharray="none" stroke-opacity="0" fill-opacity="1"/>
                </g>
                <g id="geom_polygon.polygon.1851.1" class="polygon grob gDesc">
                  <polygon id="geom_polygon.polygon.1851.1.1" points="212.97,244.64 212.97,250.29 212.97,255.94 212.97,261.59 212.97,267.24 212.97,272.89 212.97,278.53 212.97,284.18 212.97,289.83 212.97,295.48 212.97,301.13 212.97,306.78 212.97,312.42 212.97,318.07 212.97,323.72 212.97,329.37 212.97,335.02 212.97,340.67 212.97,346.31 212.97,351.96 212.97,357.61 212.97,363.26 212.97,368.91 212.97,374.56 212.97,380.2 212.97,385.85 212.97,391.5 212.97,397.15 212.97,402.8 212.97,408.45 207.33,408.35 201.7,408.06 196.08,407.57 190.47,406.89 184.9,406.02 179.36,404.96 173.86,403.71 168.4,402.27 163,400.64 157.66,398.82 152.38,396.83 147.17,394.65 142.05,392.29 137,389.76 132.05,387.06 127.19,384.19 122.44,381.15 117.79,377.95 113.26,374.6 116.69,370.12 120.13,365.63 123.57,361.15 127.01,356.67 130.45,352.19 133.89,347.71 137.33,343.23 140.76,338.75 144.2,334.27 147.64,329.79 151.08,325.3 154.52,320.82 157.96,316.34 161.4,311.86 164.83,307.38 168.27,302.9 171.71,298.42 175.15,293.94 178.59,289.45 182.03,284.97 185.46,280.49 188.9,276.01 192.34,271.53 195.78,267.05 199.22,262.57 202.66,258.09 206.1,253.61 209.53,249.12 212.97,244.64 212.97,244.64" stroke="none" fill="rgb(248,118,109)" stroke-width="1.07" stroke-dasharray="none" stroke-opacity="0" fill-opacity="1"/>
                </g>
              </g>
              <g id="GRID.text.1854.1" class="text grob gDesc">
                <g id="GRID.text.1854.1.1" transform="translate(292.08, 265.84)" stroke-width="0.1">
                  <g id="GRID.text.1854.1.1.scale" transform="scale(1, -1)">
                    <text x="0" y="0" id="GRID.text.1854.1.1.text" text-anchor="middle" stroke="rgb(0,0,0)" font-size="11.04" font-family="Helvetica, Arial, FreeSans, Liberation Sans, Nimbus Sans L, sans-serif" fill="rgb(0,0,0)" stroke-opacity="1" fill-opacity="1" font-weight="normal" font-style="normal">
                      <tspan id="GRID.text.1854.1.1.tspan.1" dy="3.95" x="0">20</tspan>
                    </text>
                  </g>
                </g>
                <g id="GRID.text.1854.1.2" transform="translate(181.63, 168.98)" stroke-width="0.1">
                  <g id="GRID.text.1854.1.2.scale" transform="scale(1, -1)">
                    <text x="0" y="0" id="GRID.text.1854.1.2.text" text-anchor="middle" stroke="rgb(0,0,0)" font-size="11.04" font-family="Helvetica, Arial, FreeSans, Liberation Sans, Nimbus Sans L, sans-serif" fill="rgb(0,0,0)" stroke-opacity="1" fill-opacity="1" font-weight="normal" font-style="normal">
                      <tspan id="GRID.text.1854.1.2.tspan.1" dy="3.95" x="0">14</tspan>
                    </text>
                  </g>
                </g>
                <g id="GRID.text.1854.1.3" transform="translate(135.42, 270.97)" stroke-width="0.1">
                  <g id="GRID.text.1854.1.3.scale" transform="scale(1, -1)">
                    <text x="0" y="0" id="GRID.text.1854.1.3.text" text-anchor="middle" stroke="rgb(0,0,0)" font-size="11.04" font-family="Helvetica, Arial, FreeSans, Liberation Sans, Nimbus Sans L, sans-serif" fill="rgb(0,0,0)" stroke-opacity="1" fill-opacity="1" font-weight="normal" font-style="normal">
                      <tspan id="GRID.text.1854.1.3.tspan.1" dy="3.95" x="0">9</tspan>
                    </text>
                  </g>
                </g>
                <g id="GRID.text.1854.1.4" transform="translate(186.65, 322.2)" stroke-width="0.1">
                  <g id="GRID.text.1854.1.4.scale" transform="scale(1, -1)">
                    <text x="0" y="0" id="GRID.text.1854.1.4.text" text-anchor="middle" stroke="rgb(0,0,0)" font-size="11.04" font-family="Helvetica, Arial, FreeSans, Liberation Sans, Nimbus Sans L, sans-serif" fill="rgb(0,0,0)" stroke-opacity="1" fill-opacity="1" font-weight="normal" font-style="normal">
                      <tspan id="GRID.text.1854.1.4.tspan.1" dy="3.95" x="0">5</tspan>
                    </text>
                  </g>
                </g>
              </g>
              <g id="GRID.gTree.1855.1" class="gTree grob gDesc"/>
            </g>
          </g>
          <g id="layout::spacer.8-6-8-6.1" class="viewport"/>
          <g id="layout::spacer.8-4-8-4.1" class="viewport"/>
          <g id="layout::spacer.6-6-6-6.1" class="viewport"/>
          <g id="layout::spacer.6-4-6-4.1" class="viewport"/>
          <g id="layout::axis-t.6-5-6-5.1" class="viewport"/>
          <g id="layout::axis-l.7-4-7-4.1" class="viewport">
            <g id="layout::axis-l.7-4-7-4::GRID.VP.431.1" class="viewport">
              <g id="axis-l.7-4-7-4.1" class="forcedgrob gTableChild absoluteGrob gTree grob gDesc">
                <g id="layout::axis-l.7-4-7-4::GRID.VP.431::axis.1" class="viewport">
                  <g id="axis.1" class="forcedgrob gtable gTree grob gDesc">
                    <g id="layout::axis-l.7-4-7-4::GRID.VP.431::axis::axis.1-1-1-1.1" class="viewport"/>
                    <g id="layout::axis-l.7-4-7-4::GRID.VP.431::axis::axis.1-2-1-2.1" class="viewport"/>
                  </g>
                </g>
              </g>
            </g>
          </g>
          <g id="layout::axis-r.7-6-7-6.1" class="viewport"/>
          <g id="layout::axis-b.8-5-8-5.1" class="viewport">
            <g id="layout::axis-b.8-5-8-5::GRID.VP.430.1" class="viewport">
              <g id="axis-b.8-5-8-5.1" class="forcedgrob gTableChild absoluteGrob gTree grob gDesc">
                <g id="layout::axis-b.8-5-8-5::GRID.VP.430::axis.1" class="viewport">
                  <g id="axis.2" class="forcedgrob gtable gTree grob gDesc">
                    <g id="layout::axis-b.8-5-8-5::GRID.VP.430::axis::axis.1-1-1-1.1" class="viewport"/>
                    <g id="layout::axis-b.8-5-8-5::GRID.VP.430::axis::axis.2-1-2-1.1" class="viewport"/>
                  </g>
                </g>
              </g>
            </g>
          </g>
          <g id="layout::xlab-t.5-5-5-5.1" class="viewport"/>
          <g id="layout::xlab-b.9-5-9-5.1" class="viewport"/>
          <g id="layout::ylab-l.7-3-7-3.1" class="viewport"/>
          <g id="layout::ylab-r.7-7-7-7.1" class="viewport"/>
          <g id="layout::guide-box.7-9-7-9.1" class="viewport">
            <g id="layout::guide-box.7-9-7-9::GRID.VP.445.1" class="viewport">
              <g id="layout::guide-box.7-9-7-9::GRID.VP.445::guide-box.7-9-7-9.1" class="viewport">
                <g id="guide-box.7-9-7-9.1" class="forcedgrob gTableChild gtable gTree grob gDesc">
                  <g id="layout::guide-box.7-9-7-9::GRID.VP.445::guide-box.7-9-7-9::legend.box.background.2-4-4-2.1" class="viewport"/>
                  <g id="layout::guide-box.7-9-7-9::GRID.VP.445::guide-box.7-9-7-9::guides.3-3-3-3.1" class="viewport">
                    <g id="layout::guide-box.7-9-7-9::GRID.VP.445::guide-box.7-9-7-9::guides.3-3-3-3::GRID.VP.444.1" class="viewport">
                      <g id="layout::guide-box.7-9-7-9::GRID.VP.445::guide-box.7-9-7-9::guides.3-3-3-3::GRID.VP.444::guides.3-3-3-3.1" class="viewport">
                        <g id="guides.3-3-3-3.1" class="forcedgrob gTableChild gtable gTree grob gDesc">
                          <g id="layout::guide-box.7-9-7-9::GRID.VP.445::guide-box.7-9-7-9::guides.3-3-3-3::GRID.VP.444::guides.3-3-3-3::background.1-6-8-1.1" class="viewport">
                            <g id="background.1-6-8-1.1" class="forcedgrob gTableChild rect grob gDesc">
                              <rect id="background.1-6-8-1.1.1" x="428.69" y="201.86" width="69.84" height="85.56" transform="" stroke-width="1.07" stroke="none" fill="rgb(255,255,255)" stroke-dasharray="none" stroke-opacity="0" fill-opacity="1"/>
                            </g>
                          </g>
                          <g id="layout::guide-box.7-9-7-9::GRID.VP.445::guide-box.7-9-7-9::guides.3-3-3-3::GRID.VP.444::guides.3-3-3-3::title.2-5-2-2.1" class="viewport"/>
                          <g id="layout::guide-box.7-9-7-9::GRID.VP.445::guide-box.7-9-7-9::guides.3-3-3-3::GRID.VP.444::guides.3-3-3-3::key-3-1-bg.4-2-4-2.1" class="viewport"/>
                          <g id="layout::guide-box.7-9-7-9::GRID.VP.445::guide-box.7-9-7-9::guides.3-3-3-3::GRID.VP.444::guides.3-3-3-3::key-3-1-1.4-2-4-2.1" class="viewport">
                            <g id="key-3-1-1.4-2-4-2.1" class="forcedgrob gTableChild rect grob gDesc">
                              <rect id="key-3-1-1.4-2-4-2.1.1" x="434.87" y="259.89" width="15.86" height="15.86" transform="" stroke="none" fill="rgb(248,118,109)" stroke-dasharray="none" stroke-width="1.07" stroke-linejoin="miter" stroke-opacity="0" fill-opacity="1"/>
                            </g>
                          </g>
                          <g id="layout::guide-box.7-9-7-9::GRID.VP.445::guide-box.7-9-7-9::guides.3-3-3-3::GRID.VP.444::guides.3-3-3-3::key-4-1-bg.5-2-5-2.1" class="viewport"/>
                          <g id="layout::guide-box.7-9-7-9::GRID.VP.445::guide-box.7-9-7-9::guides.3-3-3-3::GRID.VP.444::guides.3-3-3-3::key-4-1-1.5-2-5-2.1" class="viewport">
                            <g id="key-4-1-1.5-2-5-2.1" class="forcedgrob gTableChild rect grob gDesc">
                              <rect id="key-4-1-1.5-2-5-2.1.1" x="434.87" y="242.61" width="15.86" height="15.86" transform="" stroke="none" fill="rgb(124,174,0)" stroke-dasharray="none" stroke-width="1.07" stroke-linejoin="miter" stroke-opacity="0" fill-opacity="1"/>
                            </g>
                          </g>
                          <g id="layout::guide-box.7-9-7-9::GRID.VP.445::guide-box.7-9-7-9::guides.3-3-3-3::GRID.VP.444::guides.3-3-3-3::key-5-1-bg.6-2-6-2.1" class="viewport"/>
                          <g id="layout::guide-box.7-9-7-9::GRID.VP.445::guide-box.7-9-7-9::guides.3-3-3-3::GRID.VP.444::guides.3-3-3-3::key-5-1-1.6-2-6-2.1" class="viewport">
                            <g id="key-5-1-1.6-2-6-2.1" class="forcedgrob gTableChild rect grob gDesc">
                              <rect id="key-5-1-1.6-2-6-2.1.1" x="434.87" y="225.33" width="15.86" height="15.86" transform="" stroke="none" fill="rgb(0,191,196)" stroke-dasharray="none" stroke-width="1.07" stroke-linejoin="miter" stroke-opacity="0" fill-opacity="1"/>
                            </g>
                          </g>
                          <g id="layout::guide-box.7-9-7-9::GRID.VP.445::guide-box.7-9-7-9::guides.3-3-3-3::GRID.VP.444::guides.3-3-3-3::key-6-1-bg.7-2-7-2.1" class="viewport"/>
                          <g id="layout::guide-box.7-9-7-9::GRID.VP.445::guide-box.7-9-7-9::guides.3-3-3-3::GRID.VP.444::guides.3-3-3-3::key-6-1-1.7-2-7-2.1" class="viewport">
                            <g id="key-6-1-1.7-2-7-2.1" class="forcedgrob gTableChild rect grob gDesc">
                              <rect id="key-6-1-1.7-2-7-2.1.1" x="434.87" y="208.05" width="15.86" height="15.86" transform="" stroke="none" fill="rgb(199,124,255)" stroke-dasharray="none" stroke-width="1.07" stroke-linejoin="miter" stroke-opacity="0" fill-opacity="1"/>
                            </g>
                          </g>
                          <g id="layout::guide-box.7-9-7-9::GRID.VP.445::guide-box.7-9-7-9::guides.3-3-3-3::GRID.VP.444::guides.3-3-3-3::label-3-3.4-4-4-4.1" class="viewport">
                            <g id="layout::guide-box.7-9-7-9::GRID.VP.445::guide-box.7-9-7-9::guides.3-3-3-3::GRID.VP.444::guides.3-3-3-3::label-3-3.4-4-4-4::GRID.VP.440.1" class="viewport">
                              <g id="label-3-3.4-4-4-4.1" class="forcedgrob gTableChild gTree grob gDesc">
                                <g id="layout::guide-box.7-9-7-9::GRID.VP.445::guide-box.7-9-7-9::guides.3-3-3-3::GRID.VP.444::guides.3-3-3-3::label-3-3.4-4-4-4::GRID.VP.440::GRID.VP.432.1" font-size="8.8" stroke="rgb(0,0,0)" font-family="Helvetica, Arial, FreeSans, Liberation Sans, Nimbus Sans L, sans-serif" stroke-opacity="1" font-weight="normal" font-style="normal" class="viewport">
                                  <g id="layout::guide-box.7-9-7-9::GRID.VP.445::guide-box.7-9-7-9::guides.3-3-3-3::GRID.VP.444::guides.3-3-3-3::label-3-3.4-4-4-4::GRID.VP.440::GRID.VP.432::GRID.VP.433.1" class="viewport">
                                    <g id="guide.label.titleGrob.1878.1" class="titleGrob gTree grob gDesc">
                                      <g id="GRID.text.1876.1" class="text grob gDesc">
                                        <g id="GRID.text.1876.1.1" transform="translate(456.92, 267.82)" stroke-width="0.1">
                                          <g id="GRID.text.1876.1.1.scale" transform="scale(1, -1)">
                                            <text x="0" y="0" id="GRID.text.1876.1.1.text" text-anchor="start" font-size="8.8" stroke="rgb(0,0,0)" font-family="Helvetica, Arial, FreeSans, Liberation Sans, Nimbus Sans L, sans-serif" fill="rgb(0,0,0)" stroke-opacity="1" fill-opacity="1" font-weight="normal" font-style="normal">
                                              <tspan id="GRID.text.1876.1.1.tspan.1" dy="3.23" x="0">tutto</tspan>
                                            </text>
                                          </g>
                                        </g>
                                      </g>
                                    </g>
                                  </g>
                                </g>
                              </g>
                            </g>
                          </g>
                          <g id="layout::guide-box.7-9-7-9::GRID.VP.445::guide-box.7-9-7-9::guides.3-3-3-3::GRID.VP.444::guides.3-3-3-3::label-4-3.5-4-5-4.1" class="viewport">
                            <g id="layout::guide-box.7-9-7-9::GRID.VP.445::guide-box.7-9-7-9::guides.3-3-3-3::GRID.VP.444::guides.3-3-3-3::label-4-3.5-4-5-4::GRID.VP.441.1" class="viewport">
                              <g id="label-4-3.5-4-5-4.1" class="forcedgrob gTableChild gTree grob gDesc">
                                <g id="layout::guide-box.7-9-7-9::GRID.VP.445::guide-box.7-9-7-9::guides.3-3-3-3::GRID.VP.444::guides.3-3-3-3::label-4-3.5-4-5-4::GRID.VP.441::GRID.VP.434.1" font-size="8.8" stroke="rgb(0,0,0)" font-family="Helvetica, Arial, FreeSans, Liberation Sans, Nimbus Sans L, sans-serif" stroke-opacity="1" font-weight="normal" font-style="normal" class="viewport">
                                  <g id="layout::guide-box.7-9-7-9::GRID.VP.445::guide-box.7-9-7-9::guides.3-3-3-3::GRID.VP.444::guides.3-3-3-3::label-4-3.5-4-5-4::GRID.VP.441::GRID.VP.434::GRID.VP.435.1" class="viewport">
                                    <g id="guide.label.titleGrob.1881.1" class="titleGrob gTree grob gDesc">
                                      <g id="GRID.text.1879.1" class="text grob gDesc">
                                        <g id="GRID.text.1879.1.1" transform="translate(456.92, 250.54)" stroke-width="0.1">
                                          <g id="GRID.text.1879.1.1.scale" transform="scale(1, -1)">
                                            <text x="0" y="0" id="GRID.text.1879.1.1.text" text-anchor="start" font-size="8.8" stroke="rgb(0,0,0)" font-family="Helvetica, Arial, FreeSans, Liberation Sans, Nimbus Sans L, sans-serif" fill="rgb(0,0,0)" stroke-opacity="1" fill-opacity="1" font-weight="normal" font-style="normal">
                                              <tspan id="GRID.text.1879.1.1.tspan.1" dy="3.23" x="0">base</tspan>
                                            </text>
                                          </g>
                                        </g>
                                      </g>
                                    </g>
                                  </g>
                                </g>
                              </g>
                            </g>
                          </g>
                          <g id="layout::guide-box.7-9-7-9::GRID.VP.445::guide-box.7-9-7-9::guides.3-3-3-3::GRID.VP.444::guides.3-3-3-3::label-5-3.6-4-6-4.1" class="viewport">
                            <g id="layout::guide-box.7-9-7-9::GRID.VP.445::guide-box.7-9-7-9::guides.3-3-3-3::GRID.VP.444::guides.3-3-3-3::label-5-3.6-4-6-4::GRID.VP.442.1" class="viewport">
                              <g id="label-5-3.6-4-6-4.1" class="forcedgrob gTableChild gTree grob gDesc">
                                <g id="layout::guide-box.7-9-7-9::GRID.VP.445::guide-box.7-9-7-9::guides.3-3-3-3::GRID.VP.444::guides.3-3-3-3::label-5-3.6-4-6-4::GRID.VP.442::GRID.VP.436.1" font-size="8.8" stroke="rgb(0,0,0)" font-family="Helvetica, Arial, FreeSans, Liberation Sans, Nimbus Sans L, sans-serif" stroke-opacity="1" font-weight="normal" font-style="normal" class="viewport">
                                  <g id="layout::guide-box.7-9-7-9::GRID.VP.445::guide-box.7-9-7-9::guides.3-3-3-3::GRID.VP.444::guides.3-3-3-3::label-5-3.6-4-6-4::GRID.VP.442::GRID.VP.436::GRID.VP.437.1" class="viewport">
                                    <g id="guide.label.titleGrob.1884.1" class="titleGrob gTree grob gDesc">
                                      <g id="GRID.text.1882.1" class="text grob gDesc">
                                        <g id="GRID.text.1882.1.1" transform="translate(456.92, 233.26)" stroke-width="0.1">
                                          <g id="GRID.text.1882.1.1.scale" transform="scale(1, -1)">
                                            <text x="0" y="0" id="GRID.text.1882.1.1.text" text-anchor="start" font-size="8.8" stroke="rgb(0,0,0)" font-family="Helvetica, Arial, FreeSans, Liberation Sans, Nimbus Sans L, sans-serif" fill="rgb(0,0,0)" stroke-opacity="1" fill-opacity="1" font-weight="normal" font-style="normal">
                                              <tspan id="GRID.text.1882.1.1.tspan.1" dy="3.23" x="0">avanzato</tspan>
                                            </text>
                                          </g>
                                        </g>
                                      </g>
                                    </g>
                                  </g>
                                </g>
                              </g>
                            </g>
                          </g>
                          <g id="layout::guide-box.7-9-7-9::GRID.VP.445::guide-box.7-9-7-9::guides.3-3-3-3::GRID.VP.444::guides.3-3-3-3::label-6-3.7-4-7-4.1" class="viewport">
                            <g id="layout::guide-box.7-9-7-9::GRID.VP.445::guide-box.7-9-7-9::guides.3-3-3-3::GRID.VP.444::guides.3-3-3-3::label-6-3.7-4-7-4::GRID.VP.443.1" class="viewport">
                              <g id="label-6-3.7-4-7-4.1" class="forcedgrob gTableChild gTree grob gDesc">
                                <g id="layout::guide-box.7-9-7-9::GRID.VP.445::guide-box.7-9-7-9::guides.3-3-3-3::GRID.VP.444::guides.3-3-3-3::label-6-3.7-4-7-4::GRID.VP.443::GRID.VP.438.1" font-size="8.8" stroke="rgb(0,0,0)" font-family="Helvetica, Arial, FreeSans, Liberation Sans, Nimbus Sans L, sans-serif" stroke-opacity="1" font-weight="normal" font-style="normal" class="viewport">
                                  <g id="layout::guide-box.7-9-7-9::GRID.VP.445::guide-box.7-9-7-9::guides.3-3-3-3::GRID.VP.444::guides.3-3-3-3::label-6-3.7-4-7-4::GRID.VP.443::GRID.VP.438::GRID.VP.439.1" class="viewport">
                                    <g id="guide.label.titleGrob.1887.1" class="titleGrob gTree grob gDesc">
                                      <g id="GRID.text.1885.1" class="text grob gDesc">
                                        <g id="GRID.text.1885.1.1" transform="translate(456.92, 215.98)" stroke-width="0.1">
                                          <g id="GRID.text.1885.1.1.scale" transform="scale(1, -1)">
                                            <text x="0" y="0" id="GRID.text.1885.1.1.text" text-anchor="start" font-size="8.8" stroke="rgb(0,0,0)" font-family="Helvetica, Arial, FreeSans, Liberation Sans, Nimbus Sans L, sans-serif" fill="rgb(0,0,0)" stroke-opacity="1" fill-opacity="1" font-weight="normal" font-style="normal">
                                              <tspan id="GRID.text.1885.1.1.tspan.1" dy="3.23" x="0">medio</tspan>
                                            </text>
                                          </g>
                                        </g>
                                      </g>
                                    </g>
                                  </g>
                                </g>
                              </g>
                            </g>
                          </g>
                        </g>
                      </g>
                    </g>
                  </g>
                </g>
              </g>
            </g>
          </g>
          <g id="layout::subtitle.4-5-4-5.1" class="viewport"/>
          <g id="layout::title.3-5-3-5.1" class="viewport">
            <g id="layout::title.3-5-3-5::GRID.VP.446.1" font-size="13.2" stroke="rgb(102,102,102)" font-family="Helvetica, Arial, FreeSans, Liberation Sans, Nimbus Sans L, sans-serif" stroke-opacity="1" font-weight="normal" font-style="normal" class="viewport">
              <g id="layout::title.3-5-3-5::GRID.VP.446::GRID.VP.447.1" class="viewport">
                <g id="title.3-5-3-5.1" class="forcedgrob gTableChild titleGrob gTree grob gDesc">
                  <g id="GRID.text.1902.1" class="text grob gDesc">
                    <g id="GRID.text.1902.1.1" transform="translate(212.97, 466.85)" stroke-width="0.1">
                      <g id="GRID.text.1902.1.1.scale" transform="scale(1, -1)">
                        <text x="0" y="0" id="GRID.text.1902.1.1.text" text-anchor="middle" font-size="13.2" stroke="rgb(102,102,102)" font-family="Helvetica, Arial, FreeSans, Liberation Sans, Nimbus Sans L, sans-serif" fill="rgb(102,102,102)" stroke-opacity="1" fill-opacity="1" font-weight="normal" font-style="normal">
                          <tspan id="GRID.text.1902.1.1.tspan.1" dy="9.33" x="0">anagrafica totali-elaborazioneinformazioni</tspan>
                        </text>
                      </g>
                    </g>
                  </g>
                </g>
              </g>
            </g>
          </g>
          <g id="layout::caption.10-5-10-5.1" class="viewport"/>
          <g id="layout::tag.2-2-2-2.1" class="viewport"/>
        </g>
      </g>
    </g>
  </g>
</svg>