<?xml version="1.0" encoding="UTF-8"?>
<svg xmlns="http://www.w3.org/2000/svg" xmlns:xlink="http://www.w3.org/1999/xlink" width="504px" height="504px" viewBox="0 0 504 504" version="1.1">
  <metadata xmlns:gridsvg="http://www.stat.auckland.ac.nz/~paul/R/gridSVG/">
    <gridsvg:generator name="gridSVG" version="1.6-0" time="2019-01-08 22:40:29"/>
    <gridsvg:argument name="name" value="./latest_informaggio_csv/anziani/risultati/svg/anagrafica-totali-comunicazione.svg"/>
    <gridsvg:argument name="exportCoords" value="none"/>
    <gridsvg:argument name="exportMappings" value="none"/>
    <gridsvg:argument name="exportJS" value="none"/>
    <gridsvg:argument name="res" value="72"/>
    <gridsvg:argument name="prefix" value=""/>
    <gridsvg:argument name="addClasses" value="TRUE"/>
    <gridsvg:argument name="indent" value="TRUE"/>
    <gridsvg:argument name="htmlWrapper" value="FALSE"/>
    <gridsvg:argument name="usePaths" value="vpPaths"/>
    <gridsvg:argument name="uniqueNames" value="TRUE"/>
    <gridsvg:separator name="id.sep" value="."/>
    <gridsvg:separator name="gPath.sep" value="::"/>
    <gridsvg:separator name="vpPath.sep" value="::"/>
  </metadata>
  <g transform="translate(0, 504) scale(1, -1)">
    <g id="gridSVG" fill="none" stroke="rgb(0,0,0)" stroke-dasharray="none" stroke-width="0.75" font-size="12" font-family="Helvetica, Arial, FreeSans, Liberation Sans, Nimbus Sans L, sans-serif" opacity="1" stroke-linecap="round" stroke-linejoin="round" stroke-miterlimit="10" stroke-opacity="1" fill-opacity="0" font-weight="normal" font-style="normal">
      <g id="layout.1" class="viewport">
        <g id="layout.2" class="forcedgrob gtable gTree grob gDesc">
          <defs>
            <clipPath id="layout::background.1-11-12-1.1.clipPath">
              <rect x="0" y="31.67" width="504" height="440.66" fill="none" stroke="none"/>
            </clipPath>
          </defs>
          <g id="layout::background.1-11-12-1.1" clip-path="url(#layout::background.1-11-12-1.1.clipPath)" class="viewport">
            <g id="background.1-11-12-1.1" class="forcedgrob gTableChild rect grob gDesc">
              <rect id="background.1-11-12-1.1.1" x="0" y="31.67" width="504" height="440.66" transform="" stroke-width="1.07" stroke="rgb(255,255,255)" fill="rgb(255,255,255)" stroke-dasharray="none" stroke-opacity="1" fill-opacity="1"/>
            </g>
          </g>
          <defs>
            <clipPath id="layout::panel.7-5-7-5.1.clipPath">
              <rect x="8.22" y="39.89" width="409.51" height="409.51" fill="none" stroke="none"/>
            </clipPath>
          </defs>
          <g id="layout::panel.7-5-7-5.1" clip-path="url(#layout::panel.7-5-7-5.1.clipPath)" class="viewport">
            <g id="panel.7-5-7-5.1" class="forcedgrob gTableChild gTree grob gDesc">
              <g id="grill.gTree.1422.1" class="gTree grob gDesc">
                <g id="panel.background..rect.1418.1" class="rect grob gDesc">
                  <rect id="panel.background..rect.1418.1.1" x="8.22" y="39.89" width="409.51" height="409.51" transform="" stroke-width="1.07" stroke="none" fill="rgb(255,255,255)" stroke-dasharray="none" stroke-opacity="0" fill-opacity="1"/>
                </g>
              </g>
              <g id="bar.gTree.1411.1" class="gTree grob gDesc">
                <g id="geom_polygon.polygon.1403.1" class="polygon grob gDesc">
                  <polygon id="geom_polygon.polygon.1403.1.1" points="212.97,244.64 212.97,238.99 212.97,233.35 212.97,227.7 212.97,222.05 212.97,216.4 212.97,210.75 212.97,205.1 212.97,199.46 212.97,193.81 212.97,188.16 212.97,182.51 212.97,176.86 212.97,171.21 212.97,165.57 212.97,159.92 212.97,154.27 212.97,148.62 212.97,142.97 212.97,137.32 212.97,131.68 212.97,126.03 212.97,120.38 212.97,114.73 212.97,109.08 212.97,103.43 212.97,97.79 212.97,92.14 212.97,86.49 212.97,80.84 218.57,80.94 224.15,81.22 229.72,81.7 235.28,82.37 240.8,83.22 246.3,84.27 251.76,85.5 257.17,86.91 262.53,88.52 267.83,90.3 273.06,92.26 278.23,94.4 283.32,96.72 288.33,99.21 293.25,101.86 298.08,104.69 302.81,107.67 307.43,110.82 311.95,114.12 316.35,117.58 320.62,121.18 324.78,124.93 328.8,128.82 332.69,132.84 336.43,136.99 340.04,141.27 343.49,145.67 346.79,150.18 349.94,154.81 352.93,159.53 355.75,164.36 358.41,169.28 360.9,174.29 363.21,179.38 365.35,184.55 367.32,189.79 369.1,195.09 370.7,200.45 372.12,205.86 373.35,211.32 374.39,216.81 375.25,222.34 375.92,227.89 376.39,233.46 376.68,239.05 376.78,244.64 376.68,250.24 376.39,255.82 375.92,261.39 375.25,266.95 374.39,272.47 373.35,277.97 372.12,283.43 370.7,288.84 369.1,294.2 367.32,299.5 365.35,304.73 363.21,309.9 360.9,314.99 358.41,320 355.75,324.92 352.93,329.75 349.94,334.48 346.79,339.11 343.49,343.62 340.04,348.02 336.43,352.29 332.69,356.45 328.8,360.47 324.78,364.36 320.62,368.1 316.35,371.71 311.95,375.16 307.43,378.47 302.81,381.61 298.08,384.6 293.25,387.42 288.33,390.08 283.32,392.57 278.23,394.88 273.06,397.03 267.83,398.99 262.53,400.77 257.17,402.37 251.76,403.79 246.3,405.02 240.8,406.06 235.28,406.92 229.72,407.59 224.15,408.06 218.57,408.35 212.97,408.45 212.97,402.8 212.97,397.15 212.97,391.5 212.97,385.85 212.97,380.2 212.97,374.56 212.97,368.91 212.97,363.26 212.97,357.61 212.97,351.96 212.97,346.31 212.97,340.67 212.97,335.02 212.97,329.37 212.97,323.72 212.97,318.07 212.97,312.42 212.97,306.78 212.97,301.13 212.97,295.48 212.97,289.83 212.97,284.18 212.97,278.53 212.97,272.89 212.97,267.24 212.97,261.59 212.97,255.94 212.97,250.29 212.97,244.64 212.97,244.64" stroke="none" fill="rgb(199,124,255)" stroke-width="1.07" stroke-dasharray="none" stroke-opacity="0" fill-opacity="1"/>
                </g>
                <g id="geom_polygon.polygon.1405.1" class="polygon grob gDesc">
                  <polygon id="geom_polygon.polygon.1405.1.1" points="212.97,244.64 207.32,244.64 201.68,244.64 196.03,244.64 190.38,244.64 184.73,244.64 179.08,244.64 173.43,244.64 167.79,244.64 162.14,244.64 156.49,244.64 150.84,244.64 145.19,244.64 139.54,244.64 133.9,244.64 128.25,244.64 122.6,244.64 116.95,244.64 111.3,244.64 105.65,244.64 100.01,244.64 94.36,244.64 88.71,244.64 83.06,244.64 77.41,244.64 71.76,244.64 66.12,244.64 60.47,244.64 54.82,244.64 49.17,244.64 49.27,239.05 49.55,233.46 50.03,227.89 50.7,222.34 51.55,216.81 52.6,211.32 53.83,205.86 55.24,200.45 56.84,195.09 58.63,189.79 60.59,184.55 62.73,179.38 65.05,174.29 67.53,169.28 70.19,164.36 73.02,159.53 76,154.81 79.15,150.18 82.45,145.67 85.91,141.27 89.51,136.99 93.26,132.84 97.15,128.82 101.17,124.93 105.32,121.18 109.6,117.58 114,114.12 118.51,110.82 123.13,107.67 127.86,104.69 132.69,101.86 137.61,99.21 142.62,96.72 147.71,94.4 152.88,92.26 158.12,90.3 163.42,88.52 168.78,86.91 174.19,85.5 179.65,84.27 185.14,83.22 190.67,82.37 196.22,81.7 201.79,81.22 207.38,80.94 212.97,80.84 212.97,86.49 212.97,92.14 212.97,97.79 212.97,103.43 212.97,109.08 212.97,114.73 212.97,120.38 212.97,126.03 212.97,131.68 212.97,137.32 212.97,142.97 212.97,148.62 212.97,154.27 212.97,159.92 212.97,165.57 212.97,171.21 212.97,176.86 212.97,182.51 212.97,188.16 212.97,193.81 212.97,199.46 212.97,205.1 212.97,210.75 212.97,216.4 212.97,222.05 212.97,227.7 212.97,233.35 212.97,238.99 212.97,244.64 212.97,244.64" stroke="none" fill="rgb(0,191,196)" stroke-width="1.07" stroke-dasharray="none" stroke-opacity="0" fill-opacity="1"/>
                </g>
                <g id="geom_polygon.polygon.1407.1" class="polygon grob gDesc">
                  <polygon id="geom_polygon.polygon.1407.1.1" points="212.97,244.64 210.15,249.53 207.32,254.43 204.5,259.32 201.68,264.21 198.85,269.1 196.03,273.99 193.2,278.88 190.38,283.78 187.56,288.67 184.73,293.56 181.91,298.45 179.08,303.34 176.26,308.23 173.43,313.13 170.61,318.02 167.79,322.91 164.96,327.8 162.14,332.69 159.31,337.58 156.49,342.48 153.66,347.37 150.84,352.26 148.02,357.15 145.19,362.04 142.37,366.93 139.54,371.83 136.72,376.72 133.9,381.61 131.07,386.5 126.17,383.56 121.38,380.44 116.69,377.16 112.13,373.72 107.68,370.12 103.37,366.37 99.19,362.47 95.14,358.43 91.24,354.25 87.49,349.93 83.89,345.49 80.45,340.92 77.17,336.24 74.06,331.45 71.12,326.54 68.34,321.54 65.75,316.45 63.33,311.27 61.1,306 59.05,300.67 57.19,295.26 55.52,289.79 54.04,284.27 52.75,278.7 51.66,273.09 50.76,267.44 50.07,261.77 49.57,256.07 49.27,250.36 49.17,244.64 54.82,244.64 60.47,244.64 66.12,244.64 71.76,244.64 77.41,244.64 83.06,244.64 88.71,244.64 94.36,244.64 100.01,244.64 105.65,244.64 111.3,244.64 116.95,244.64 122.6,244.64 128.25,244.64 133.9,244.64 139.54,244.64 145.19,244.64 150.84,244.64 156.49,244.64 162.14,244.64 167.79,244.64 173.43,244.64 179.08,244.64 184.73,244.64 190.38,244.64 196.03,244.64 201.68,244.64 207.32,244.64 212.97,244.64 212.97,244.64" stroke="none" fill="rgb(124,174,0)" stroke-width="1.07" stroke-dasharray="none" stroke-opacity="0" fill-opacity="1"/>
                </g>
                <g id="geom_polygon.polygon.1409.1" class="polygon grob gDesc">
                  <polygon id="geom_polygon.polygon.1409.1.1" points="212.97,244.64 212.97,250.29 212.97,255.94 212.97,261.59 212.97,267.24 212.97,272.89 212.97,278.53 212.97,284.18 212.97,289.83 212.97,295.48 212.97,301.13 212.97,306.78 212.97,312.42 212.97,318.07 212.97,323.72 212.97,329.37 212.97,335.02 212.97,340.67 212.97,346.31 212.97,351.96 212.97,357.61 212.97,363.26 212.97,368.91 212.97,374.56 212.97,380.2 212.97,385.85 212.97,391.5 212.97,397.15 212.97,402.8 212.97,408.45 207.26,408.35 201.55,408.05 195.85,407.55 190.18,406.85 184.53,405.96 178.92,404.87 173.35,403.58 167.82,402.1 162.35,400.43 156.95,398.57 151.61,396.52 146.35,394.28 141.17,391.87 136.07,389.27 131.07,386.5 133.9,381.61 136.72,376.72 139.54,371.83 142.37,366.93 145.19,362.04 148.02,357.15 150.84,352.26 153.66,347.37 156.49,342.48 159.31,337.58 162.14,332.69 164.96,327.8 167.79,322.91 170.61,318.02 173.43,313.13 176.26,308.23 179.08,303.34 181.91,298.45 184.73,293.56 187.56,288.67 190.38,283.78 193.2,278.88 196.03,273.99 198.85,269.1 201.68,264.21 204.5,259.32 207.32,254.43 210.15,249.53 212.97,244.64 212.97,244.64" stroke="none" fill="rgb(248,118,109)" stroke-width="1.07" stroke-dasharray="none" stroke-opacity="0" fill-opacity="1"/>
                </g>
              </g>
              <g id="GRID.text.1412.1" class="text grob gDesc">
                <g id="GRID.text.1412.1.1" transform="translate(294.87, 244.64)" stroke-width="0.1">
                  <g id="GRID.text.1412.1.1.scale" transform="scale(1, -1)">
                    <text x="0" y="0" id="GRID.text.1412.1.1.text" text-anchor="middle" stroke="rgb(0,0,0)" font-size="11.04" font-family="Helvetica, Arial, FreeSans, Liberation Sans, Nimbus Sans L, sans-serif" fill="rgb(0,0,0)" stroke-opacity="1" fill-opacity="1" font-weight="normal" font-style="normal">
                      <tspan id="GRID.text.1412.1.1.tspan.1" dy="3.95" x="0">24</tspan>
                    </text>
                  </g>
                </g>
                <g id="GRID.text.1412.1.2" transform="translate(155.06, 186.73)" stroke-width="0.1">
                  <g id="GRID.text.1412.1.2.scale" transform="scale(1, -1)">
                    <text x="0" y="0" id="GRID.text.1412.1.2.text" text-anchor="middle" stroke="rgb(0,0,0)" font-size="11.04" font-family="Helvetica, Arial, FreeSans, Liberation Sans, Nimbus Sans L, sans-serif" fill="rgb(0,0,0)" stroke-opacity="1" fill-opacity="1" font-weight="normal" font-style="normal">
                      <tspan id="GRID.text.1412.1.2.tspan.1" dy="3.95" x="0">12</tspan>
                    </text>
                  </g>
                </g>
                <g id="GRID.text.1412.1.3" transform="translate(142.04, 285.59)" stroke-width="0.1">
                  <g id="GRID.text.1412.1.3.scale" transform="scale(1, -1)">
                    <text x="0" y="0" id="GRID.text.1412.1.3.text" text-anchor="middle" stroke="rgb(0,0,0)" font-size="11.04" font-family="Helvetica, Arial, FreeSans, Liberation Sans, Nimbus Sans L, sans-serif" fill="rgb(0,0,0)" stroke-opacity="1" fill-opacity="1" font-weight="normal" font-style="normal">
                      <tspan id="GRID.text.1412.1.3.tspan.1" dy="3.95" x="0">8</tspan>
                    </text>
                  </g>
                </g>
                <g id="GRID.text.1412.1.4" transform="translate(191.78, 323.75)" stroke-width="0.1">
                  <g id="GRID.text.1412.1.4.scale" transform="scale(1, -1)">
                    <text x="0" y="0" id="GRID.text.1412.1.4.text" text-anchor="middle" stroke="rgb(0,0,0)" font-size="11.04" font-family="Helvetica, Arial, FreeSans, Liberation Sans, Nimbus Sans L, sans-serif" fill="rgb(0,0,0)" stroke-opacity="1" fill-opacity="1" font-weight="normal" font-style="normal">
                      <tspan id="GRID.text.1412.1.4.tspan.1" dy="3.95" x="0">4</tspan>
                    </text>
                  </g>
                </g>
              </g>
              <g id="GRID.gTree.1413.1" class="gTree grob gDesc"/>
            </g>
          </g>
          <g id="layout::spacer.8-6-8-6.1" class="viewport"/>
          <g id="layout::spacer.8-4-8-4.1" class="viewport"/>
          <g id="layout::spacer.6-6-6-6.1" class="viewport"/>
          <g id="layout::spacer.6-4-6-4.1" class="viewport"/>
          <g id="layout::axis-t.6-5-6-5.1" class="viewport"/>
          <g id="layout::axis-l.7-4-7-4.1" class="viewport">
            <g id="layout::axis-l.7-4-7-4::GRID.VP.335.1" class="viewport">
              <g id="axis-l.7-4-7-4.1" class="forcedgrob gTableChild absoluteGrob gTree grob gDesc">
                <g id="layout::axis-l.7-4-7-4::GRID.VP.335::axis.1" class="viewport">
                  <g id="axis.1" class="forcedgrob gtable gTree grob gDesc">
                    <g id="layout::axis-l.7-4-7-4::GRID.VP.335::axis::axis.1-1-1-1.1" class="viewport"/>
                    <g id="layout::axis-l.7-4-7-4::GRID.VP.335::axis::axis.1-2-1-2.1" class="viewport"/>
                  </g>
                </g>
              </g>
            </g>
          </g>
          <g id="layout::axis-r.7-6-7-6.1" class="viewport"/>
          <g id="layout::axis-b.8-5-8-5.1" class="viewport">
            <g id="layout::axis-b.8-5-8-5::GRID.VP.334.1" class="viewport">
              <g id="axis-b.8-5-8-5.1" class="forcedgrob gTableChild absoluteGrob gTree grob gDesc">
                <g id="layout::axis-b.8-5-8-5::GRID.VP.334::axis.1" class="viewport">
                  <g id="axis.2" class="forcedgrob gtable gTree grob gDesc">
                    <g id="layout::axis-b.8-5-8-5::GRID.VP.334::axis::axis.1-1-1-1.1" class="viewport"/>
                    <g id="layout::axis-b.8-5-8-5::GRID.VP.334::axis::axis.2-1-2-1.1" class="viewport"/>
                  </g>
                </g>
              </g>
            </g>
          </g>
          <g id="layout::xlab-t.5-5-5-5.1" class="viewport"/>
          <g id="layout::xlab-b.9-5-9-5.1" class="viewport"/>
          <g id="layout::ylab-l.7-3-7-3.1" class="viewport"/>
          <g id="layout::ylab-r.7-7-7-7.1" class="viewport"/>
          <g id="layout::guide-box.7-9-7-9.1" class="viewport">
            <g id="layout::guide-box.7-9-7-9::GRID.VP.349.1" class="viewport">
              <g id="layout::guide-box.7-9-7-9::GRID.VP.349::guide-box.7-9-7-9.1" class="viewport">
                <g id="guide-box.7-9-7-9.1" class="forcedgrob gTableChild gtable gTree grob gDesc">
                  <g id="layout::guide-box.7-9-7-9::GRID.VP.349::guide-box.7-9-7-9::legend.box.background.2-4-4-2.1" class="viewport"/>
                  <g id="layout::guide-box.7-9-7-9::GRID.VP.349::guide-box.7-9-7-9::guides.3-3-3-3.1" class="viewport">
                    <g id="layout::guide-box.7-9-7-9::GRID.VP.349::guide-box.7-9-7-9::guides.3-3-3-3::GRID.VP.348.1" class="viewport">
                      <g id="layout::guide-box.7-9-7-9::GRID.VP.349::guide-box.7-9-7-9::guides.3-3-3-3::GRID.VP.348::guides.3-3-3-3.1" class="viewport">
                        <g id="guides.3-3-3-3.1" class="forcedgrob gTableChild gtable gTree grob gDesc">
                          <g id="layout::guide-box.7-9-7-9::GRID.VP.349::guide-box.7-9-7-9::guides.3-3-3-3::GRID.VP.348::guides.3-3-3-3::background.1-6-8-1.1" class="viewport">
                            <g id="background.1-6-8-1.1" class="forcedgrob gTableChild rect grob gDesc">
                              <rect id="background.1-6-8-1.1.1" x="428.69" y="201.86" width="69.84" height="85.56" transform="" stroke-width="1.07" stroke="none" fill="rgb(255,255,255)" stroke-dasharray="none" stroke-opacity="0" fill-opacity="1"/>
                            </g>
                          </g>
                          <g id="layout::guide-box.7-9-7-9::GRID.VP.349::guide-box.7-9-7-9::guides.3-3-3-3::GRID.VP.348::guides.3-3-3-3::title.2-5-2-2.1" class="viewport"/>
                          <g id="layout::guide-box.7-9-7-9::GRID.VP.349::guide-box.7-9-7-9::guides.3-3-3-3::GRID.VP.348::guides.3-3-3-3::key-3-1-bg.4-2-4-2.1" class="viewport"/>
                          <g id="layout::guide-box.7-9-7-9::GRID.VP.349::guide-box.7-9-7-9::guides.3-3-3-3::GRID.VP.348::guides.3-3-3-3::key-3-1-1.4-2-4-2.1" class="viewport">
                            <g id="key-3-1-1.4-2-4-2.1" class="forcedgrob gTableChild rect grob gDesc">
                              <rect id="key-3-1-1.4-2-4-2.1.1" x="434.87" y="259.89" width="15.86" height="15.86" transform="" stroke="none" fill="rgb(248,118,109)" stroke-dasharray="none" stroke-width="1.07" stroke-linejoin="miter" stroke-opacity="0" fill-opacity="1"/>
                            </g>
                          </g>
                          <g id="layout::guide-box.7-9-7-9::GRID.VP.349::guide-box.7-9-7-9::guides.3-3-3-3::GRID.VP.348::guides.3-3-3-3::key-4-1-bg.5-2-5-2.1" class="viewport"/>
                          <g id="layout::guide-box.7-9-7-9::GRID.VP.349::guide-box.7-9-7-9::guides.3-3-3-3::GRID.VP.348::guides.3-3-3-3::key-4-1-1.5-2-5-2.1" class="viewport">
                            <g id="key-4-1-1.5-2-5-2.1" class="forcedgrob gTableChild rect grob gDesc">
                              <rect id="key-4-1-1.5-2-5-2.1.1" x="434.87" y="242.61" width="15.86" height="15.86" transform="" stroke="none" fill="rgb(124,174,0)" stroke-dasharray="none" stroke-width="1.07" stroke-linejoin="miter" stroke-opacity="0" fill-opacity="1"/>
                            </g>
                          </g>
                          <g id="layout::guide-box.7-9-7-9::GRID.VP.349::guide-box.7-9-7-9::guides.3-3-3-3::GRID.VP.348::guides.3-3-3-3::key-5-1-bg.6-2-6-2.1" class="viewport"/>
                          <g id="layout::guide-box.7-9-7-9::GRID.VP.349::guide-box.7-9-7-9::guides.3-3-3-3::GRID.VP.348::guides.3-3-3-3::key-5-1-1.6-2-6-2.1" class="viewport">
                            <g id="key-5-1-1.6-2-6-2.1" class="forcedgrob gTableChild rect grob gDesc">
                              <rect id="key-5-1-1.6-2-6-2.1.1" x="434.87" y="225.33" width="15.86" height="15.86" transform="" stroke="none" fill="rgb(0,191,196)" stroke-dasharray="none" stroke-width="1.07" stroke-linejoin="miter" stroke-opacity="0" fill-opacity="1"/>
                            </g>
                          </g>
                          <g id="layout::guide-box.7-9-7-9::GRID.VP.349::guide-box.7-9-7-9::guides.3-3-3-3::GRID.VP.348::guides.3-3-3-3::key-6-1-bg.7-2-7-2.1" class="viewport"/>
                          <g id="layout::guide-box.7-9-7-9::GRID.VP.349::guide-box.7-9-7-9::guides.3-3-3-3::GRID.VP.348::guides.3-3-3-3::key-6-1-1.7-2-7-2.1" class="viewport">
                            <g id="key-6-1-1.7-2-7-2.1" class="forcedgrob gTableChild rect grob gDesc">
                              <rect id="key-6-1-1.7-2-7-2.1.1" x="434.87" y="208.05" width="15.86" height="15.86" transform="" stroke="none" fill="rgb(199,124,255)" stroke-dasharray="none" stroke-width="1.07" stroke-linejoin="miter" stroke-opacity="0" fill-opacity="1"/>
                            </g>
                          </g>
                          <g id="layout::guide-box.7-9-7-9::GRID.VP.349::guide-box.7-9-7-9::guides.3-3-3-3::GRID.VP.348::guides.3-3-3-3::label-3-3.4-4-4-4.1" class="viewport">
                            <g id="layout::guide-box.7-9-7-9::GRID.VP.349::guide-box.7-9-7-9::guides.3-3-3-3::GRID.VP.348::guides.3-3-3-3::label-3-3.4-4-4-4::GRID.VP.344.1" class="viewport">
                              <g id="label-3-3.4-4-4-4.1" class="forcedgrob gTableChild gTree grob gDesc">
                                <g id="layout::guide-box.7-9-7-9::GRID.VP.349::guide-box.7-9-7-9::guides.3-3-3-3::GRID.VP.348::guides.3-3-3-3::label-3-3.4-4-4-4::GRID.VP.344::GRID.VP.336.1" font-size="8.8" stroke="rgb(0,0,0)" font-family="Helvetica, Arial, FreeSans, Liberation Sans, Nimbus Sans L, sans-serif" stroke-opacity="1" font-weight="normal" font-style="normal" class="viewport">
                                  <g id="layout::guide-box.7-9-7-9::GRID.VP.349::guide-box.7-9-7-9::guides.3-3-3-3::GRID.VP.348::guides.3-3-3-3::label-3-3.4-4-4-4::GRID.VP.344::GRID.VP.336::GRID.VP.337.1" class="viewport">
                                    <g id="guide.label.titleGrob.1436.1" class="titleGrob gTree grob gDesc">
                                      <g id="GRID.text.1434.1" class="text grob gDesc">
                                        <g id="GRID.text.1434.1.1" transform="translate(456.92, 267.82)" stroke-width="0.1">
                                          <g id="GRID.text.1434.1.1.scale" transform="scale(1, -1)">
                                            <text x="0" y="0" id="GRID.text.1434.1.1.text" text-anchor="start" font-size="8.8" stroke="rgb(0,0,0)" font-family="Helvetica, Arial, FreeSans, Liberation Sans, Nimbus Sans L, sans-serif" fill="rgb(0,0,0)" stroke-opacity="1" fill-opacity="1" font-weight="normal" font-style="normal">
                                              <tspan id="GRID.text.1434.1.1.tspan.1" dy="3.23" x="0">tutto</tspan>
                                            </text>
                                          </g>
                                        </g>
                                      </g>
                                    </g>
                                  </g>
                                </g>
                              </g>
                            </g>
                          </g>
                          <g id="layout::guide-box.7-9-7-9::GRID.VP.349::guide-box.7-9-7-9::guides.3-3-3-3::GRID.VP.348::guides.3-3-3-3::label-4-3.5-4-5-4.1" class="viewport">
                            <g id="layout::guide-box.7-9-7-9::GRID.VP.349::guide-box.7-9-7-9::guides.3-3-3-3::GRID.VP.348::guides.3-3-3-3::label-4-3.5-4-5-4::GRID.VP.345.1" class="viewport">
                              <g id="label-4-3.5-4-5-4.1" class="forcedgrob gTableChild gTree grob gDesc">
                                <g id="layout::guide-box.7-9-7-9::GRID.VP.349::guide-box.7-9-7-9::guides.3-3-3-3::GRID.VP.348::guides.3-3-3-3::label-4-3.5-4-5-4::GRID.VP.345::GRID.VP.338.1" font-size="8.8" stroke="rgb(0,0,0)" font-family="Helvetica, Arial, FreeSans, Liberation Sans, Nimbus Sans L, sans-serif" stroke-opacity="1" font-weight="normal" font-style="normal" class="viewport">
                                  <g id="layout::guide-box.7-9-7-9::GRID.VP.349::guide-box.7-9-7-9::guides.3-3-3-3::GRID.VP.348::guides.3-3-3-3::label-4-3.5-4-5-4::GRID.VP.345::GRID.VP.338::GRID.VP.339.1" class="viewport">
                                    <g id="guide.label.titleGrob.1439.1" class="titleGrob gTree grob gDesc">
                                      <g id="GRID.text.1437.1" class="text grob gDesc">
                                        <g id="GRID.text.1437.1.1" transform="translate(456.92, 250.54)" stroke-width="0.1">
                                          <g id="GRID.text.1437.1.1.scale" transform="scale(1, -1)">
                                            <text x="0" y="0" id="GRID.text.1437.1.1.text" text-anchor="start" font-size="8.8" stroke="rgb(0,0,0)" font-family="Helvetica, Arial, FreeSans, Liberation Sans, Nimbus Sans L, sans-serif" fill="rgb(0,0,0)" stroke-opacity="1" fill-opacity="1" font-weight="normal" font-style="normal">
                                              <tspan id="GRID.text.1437.1.1.tspan.1" dy="3.23" x="0">base</tspan>
                                            </text>
                                          </g>
                                        </g>
                                      </g>
                                    </g>
                                  </g>
                                </g>
                              </g>
                            </g>
                          </g>
                          <g id="layout::guide-box.7-9-7-9::GRID.VP.349::guide-box.7-9-7-9::guides.3-3-3-3::GRID.VP.348::guides.3-3-3-3::label-5-3.6-4-6-4.1" class="viewport">
                            <g id="layout::guide-box.7-9-7-9::GRID.VP.349::guide-box.7-9-7-9::guides.3-3-3-3::GRID.VP.348::guides.3-3-3-3::label-5-3.6-4-6-4::GRID.VP.346.1" class="viewport">
                              <g id="label-5-3.6-4-6-4.1" class="forcedgrob gTableChild gTree grob gDesc">
                                <g id="layout::guide-box.7-9-7-9::GRID.VP.349::guide-box.7-9-7-9::guides.3-3-3-3::GRID.VP.348::guides.3-3-3-3::label-5-3.6-4-6-4::GRID.VP.346::GRID.VP.340.1" font-size="8.8" stroke="rgb(0,0,0)" font-family="Helvetica, Arial, FreeSans, Liberation Sans, Nimbus Sans L, sans-serif" stroke-opacity="1" font-weight="normal" font-style="normal" class="viewport">
                                  <g id="layout::guide-box.7-9-7-9::GRID.VP.349::guide-box.7-9-7-9::guides.3-3-3-3::GRID.VP.348::guides.3-3-3-3::label-5-3.6-4-6-4::GRID.VP.346::GRID.VP.340::GRID.VP.341.1" class="viewport">
                                    <g id="guide.label.titleGrob.1442.1" class="titleGrob gTree grob gDesc">
                                      <g id="GRID.text.1440.1" class="text grob gDesc">
                                        <g id="GRID.text.1440.1.1" transform="translate(456.92, 233.26)" stroke-width="0.1">
                                          <g id="GRID.text.1440.1.1.scale" transform="scale(1, -1)">
                                            <text x="0" y="0" id="GRID.text.1440.1.1.text" text-anchor="start" font-size="8.8" stroke="rgb(0,0,0)" font-family="Helvetica, Arial, FreeSans, Liberation Sans, Nimbus Sans L, sans-serif" fill="rgb(0,0,0)" stroke-opacity="1" fill-opacity="1" font-weight="normal" font-style="normal">
                                              <tspan id="GRID.text.1440.1.1.tspan.1" dy="3.23" x="0">medio</tspan>
                                            </text>
                                          </g>
                                        </g>
                                      </g>
                                    </g>
                                  </g>
                                </g>
                              </g>
                            </g>
                          </g>
                          <g id="layout::guide-box.7-9-7-9::GRID.VP.349::guide-box.7-9-7-9::guides.3-3-3-3::GRID.VP.348::guides.3-3-3-3::label-6-3.7-4-7-4.1" class="viewport">
                            <g id="layout::guide-box.7-9-7-9::GRID.VP.349::guide-box.7-9-7-9::guides.3-3-3-3::GRID.VP.348::guides.3-3-3-3::label-6-3.7-4-7-4::GRID.VP.347.1" class="viewport">
                              <g id="label-6-3.7-4-7-4.1" class="forcedgrob gTableChild gTree grob gDesc">
                                <g id="layout::guide-box.7-9-7-9::GRID.VP.349::guide-box.7-9-7-9::guides.3-3-3-3::GRID.VP.348::guides.3-3-3-3::label-6-3.7-4-7-4::GRID.VP.347::GRID.VP.342.1" font-size="8.8" stroke="rgb(0,0,0)" font-family="Helvetica, Arial, FreeSans, Liberation Sans, Nimbus Sans L, sans-serif" stroke-opacity="1" font-weight="normal" font-style="normal" class="viewport">
                                  <g id="layout::guide-box.7-9-7-9::GRID.VP.349::guide-box.7-9-7-9::guides.3-3-3-3::GRID.VP.348::guides.3-3-3-3::label-6-3.7-4-7-4::GRID.VP.347::GRID.VP.342::GRID.VP.343.1" class="viewport">
                                    <g id="guide.label.titleGrob.1445.1" class="titleGrob gTree grob gDesc">
                                      <g id="GRID.text.1443.1" class="text grob gDesc">
                                        <g id="GRID.text.1443.1.1" transform="translate(456.92, 215.98)" stroke-width="0.1">
                                          <g id="GRID.text.1443.1.1.scale" transform="scale(1, -1)">
                                            <text x="0" y="0" id="GRID.text.1443.1.1.text" text-anchor="start" font-size="8.8" stroke="rgb(0,0,0)" font-family="Helvetica, Arial, FreeSans, Liberation Sans, Nimbus Sans L, sans-serif" fill="rgb(0,0,0)" stroke-opacity="1" fill-opacity="1" font-weight="normal" font-style="normal">
                                              <tspan id="GRID.text.1443.1.1.tspan.1" dy="3.23" x="0">avanzato</tspan>
                                            </text>
                                          </g>
                                        </g>
                                      </g>
                                    </g>
                                  </g>
                                </g>
                              </g>
                            </g>
                          </g>
                        </g>
                      </g>
                    </g>
                  </g>
                </g>
              </g>
            </g>
          </g>
          <g id="layout::subtitle.4-5-4-5.1" class="viewport"/>
          <g id="layout::title.3-5-3-5.1" class="viewport">
            <g id="layout::title.3-5-3-5::GRID.VP.350.1" font-size="13.2" stroke="rgb(102,102,102)" font-family="Helvetica, Arial, FreeSans, Liberation Sans, Nimbus Sans L, sans-serif" stroke-opacity="1" font-weight="normal" font-style="normal" class="viewport">
              <g id="layout::title.3-5-3-5::GRID.VP.350::GRID.VP.351.1" class="viewport">
                <g id="title.3-5-3-5.1" class="forcedgrob gTableChild titleGrob gTree grob gDesc">
                  <g id="GRID.text.1460.1" class="text grob gDesc">
                    <g id="GRID.text.1460.1.1" transform="translate(212.97, 466.85)" stroke-width="0.1">
                      <g id="GRID.text.1460.1.1.scale" transform="scale(1, -1)">
                        <text x="0" y="0" id="GRID.text.1460.1.1.text" text-anchor="middle" font-size="13.2" stroke="rgb(102,102,102)" font-family="Helvetica, Arial, FreeSans, Liberation Sans, Nimbus Sans L, sans-serif" fill="rgb(102,102,102)" stroke-opacity="1" fill-opacity="1" font-weight="normal" font-style="normal">
                          <tspan id="GRID.text.1460.1.1.tspan.1" dy="9.33" x="0">anagrafica totali-comunicazione</tspan>
                        </text>
                      </g>
                    </g>
                  </g>
                </g>
              </g>
            </g>
          </g>
          <g id="layout::caption.10-5-10-5.1" class="viewport"/>
          <g id="layout::tag.2-2-2-2.1" class="viewport"/>
        </g>
      </g>
    </g>
  </g>
</svg>