<?xml version="1.0" encoding="UTF-8"?>
<svg xmlns="http://www.w3.org/2000/svg" xmlns:xlink="http://www.w3.org/1999/xlink" width="504px" height="504px" viewBox="0 0 504 504" version="1.1">
  <metadata xmlns:gridsvg="http://www.stat.auckland.ac.nz/~paul/R/gridSVG/">
    <gridsvg:generator name="gridSVG" version="1.6-0" time="2019-01-08 22:40:32"/>
    <gridsvg:argument name="name" value="./latest_informaggio_csv/anziani/risultati/svg/anagrafica-totali-creazionecontenuti.svg"/>
    <gridsvg:argument name="exportCoords" value="none"/>
    <gridsvg:argument name="exportMappings" value="none"/>
    <gridsvg:argument name="exportJS" value="none"/>
    <gridsvg:argument name="res" value="72"/>
    <gridsvg:argument name="prefix" value=""/>
    <gridsvg:argument name="addClasses" value="TRUE"/>
    <gridsvg:argument name="indent" value="TRUE"/>
    <gridsvg:argument name="htmlWrapper" value="FALSE"/>
    <gridsvg:argument name="usePaths" value="vpPaths"/>
    <gridsvg:argument name="uniqueNames" value="TRUE"/>
    <gridsvg:separator name="id.sep" value="."/>
    <gridsvg:separator name="gPath.sep" value="::"/>
    <gridsvg:separator name="vpPath.sep" value="::"/>
  </metadata>
  <g transform="translate(0, 504) scale(1, -1)">
    <g id="gridSVG" fill="none" stroke="rgb(0,0,0)" stroke-dasharray="none" stroke-width="0.75" font-size="12" font-family="Helvetica, Arial, FreeSans, Liberation Sans, Nimbus Sans L, sans-serif" opacity="1" stroke-linecap="round" stroke-linejoin="round" stroke-miterlimit="10" stroke-opacity="1" fill-opacity="0" font-weight="normal" font-style="normal">
      <g id="layout.1" class="viewport">
        <g id="layout.2" class="forcedgrob gtable gTree grob gDesc">
          <defs>
            <clipPath id="layout::background.1-11-12-1.1.clipPath">
              <rect x="0" y="31.67" width="504" height="440.66" fill="none" stroke="none"/>
            </clipPath>
          </defs>
          <g id="layout::background.1-11-12-1.1" clip-path="url(#layout::background.1-11-12-1.1.clipPath)" class="viewport">
            <g id="background.1-11-12-1.1" class="forcedgrob gTableChild rect grob gDesc">
              <rect id="background.1-11-12-1.1.1" x="0" y="31.67" width="504" height="440.66" transform="" stroke-width="1.07" stroke="rgb(255,255,255)" fill="rgb(255,255,255)" stroke-dasharray="none" stroke-opacity="1" fill-opacity="1"/>
            </g>
          </g>
          <defs>
            <clipPath id="layout::panel.7-5-7-5.1.clipPath">
              <rect x="8.22" y="39.89" width="409.51" height="409.51" fill="none" stroke="none"/>
            </clipPath>
          </defs>
          <g id="layout::panel.7-5-7-5.1" clip-path="url(#layout::panel.7-5-7-5.1.clipPath)" class="viewport">
            <g id="panel.7-5-7-5.1" class="forcedgrob gTableChild gTree grob gDesc">
              <g id="grill.gTree.1564.1" class="gTree grob gDesc">
                <g id="panel.background..rect.1560.1" class="rect grob gDesc">
                  <rect id="panel.background..rect.1560.1.1" x="8.22" y="39.89" width="409.51" height="409.51" transform="" stroke-width="1.07" stroke="none" fill="rgb(255,255,255)" stroke-dasharray="none" stroke-opacity="0" fill-opacity="1"/>
                </g>
              </g>
              <g id="bar.gTree.1553.1" class="gTree grob gDesc">
                <g id="geom_polygon.polygon.1543.1" class="polygon grob gDesc">
                  <polygon id="geom_polygon.polygon.1543.1.1" points="212.97,244.64 212.24,239.04 211.5,233.44 210.76,227.84 210.02,222.24 209.29,216.64 208.55,211.04 207.81,205.44 207.07,199.84 206.34,194.24 205.6,188.64 204.86,183.04 204.13,177.44 203.39,171.84 202.65,166.24 201.91,160.64 201.18,155.04 200.44,149.44 199.7,143.84 198.96,138.24 198.23,132.64 197.49,127.04 196.75,121.44 196.02,115.84 195.28,110.24 194.54,104.64 193.8,99.04 193.07,93.44 192.33,87.84 191.59,82.24 197.14,81.61 202.71,81.16 208.28,80.91 213.87,80.84 219.45,80.97 225.02,81.28 230.58,81.79 236.12,82.48 241.64,83.37 247.12,84.44 252.56,85.7 257.95,87.14 263.29,88.76 268.58,90.57 273.8,92.55 278.94,94.71 284.02,97.05 289,99.56 293.91,102.23 298.71,105.07 303.42,108.07 308.02,111.24 312.51,114.55 316.89,118.02 321.14,121.64 325.27,125.4 329.27,129.29 333.14,133.32 336.86,137.48 340.44,141.77 343.87,146.17 347.15,150.69 350.28,155.32 353.24,160.05 356.04,164.88 358.68,169.8 361.14,174.81 363.44,179.9 365.56,185.07 367.5,190.3 369.26,195.6 370.84,200.95 372.24,206.36 373.45,211.81 374.48,217.3 375.32,222.82 375.96,228.37 376.42,233.93 376.7,239.51 376.77,245.09 376.66,250.67 376.36,256.25 375.87,261.81 375.19,267.35 374.33,272.87 373.27,278.35 372.03,283.79 370.6,289.19 368.99,294.54 367.2,299.83 365.23,305.05 363.08,310.21 360.76,315.28 358.27,320.28 355.61,325.19 352.78,330 349.79,334.72 346.64,339.33 343.33,343.83 339.88,348.21 336.27,352.48 332.53,356.62 328.64,360.63 324.62,364.5 320.47,368.24 316.2,371.83 311.8,375.27 307.29,378.57 302.67,381.7 297.95,384.68 293.13,387.49 288.21,390.14 283.21,392.62 278.13,394.93 272.97,397.06 267.74,399.02 262.44,400.8 257.09,402.39 251.69,403.8 246.24,405.03 240.76,406.07 235.24,406.93 229.69,407.59 224.13,408.07 218.56,408.35 212.97,408.45 212.97,402.8 212.97,397.15 212.97,391.5 212.97,385.85 212.97,380.2 212.97,374.56 212.97,368.91 212.97,363.26 212.97,357.61 212.97,351.96 212.97,346.31 212.97,340.67 212.97,335.02 212.97,329.37 212.97,323.72 212.97,318.07 212.97,312.42 212.97,306.78 212.97,301.13 212.97,295.48 212.97,289.83 212.97,284.18 212.97,278.53 212.97,272.89 212.97,267.24 212.97,261.59 212.97,255.94 212.97,250.29 212.97,244.64 212.97,244.64" stroke="none" fill="rgb(231,107,243)" stroke-width="1.07" stroke-dasharray="none" stroke-opacity="0" fill-opacity="1"/>
                </g>
                <g id="geom_polygon.polygon.1545.1" class="polygon grob gDesc">
                  <polygon id="geom_polygon.polygon.1545.1.1" points="212.97,244.64 208.49,248.08 204.01,251.52 199.53,254.96 195.05,258.4 190.57,261.84 186.09,265.27 181.6,268.71 177.12,272.15 172.64,275.59 168.16,279.03 163.68,282.47 159.2,285.91 154.72,289.34 150.24,292.78 145.76,296.22 141.27,299.66 136.79,303.1 132.31,306.54 127.83,309.97 123.35,313.41 118.87,316.85 114.39,320.29 109.91,323.73 105.42,327.17 100.94,330.61 96.46,334.04 91.98,337.48 87.5,340.92 83.02,344.36 79.67,339.84 76.48,335.21 73.45,330.47 70.59,325.63 67.89,320.69 65.37,315.67 63.02,310.56 60.84,305.37 58.85,300.12 57.04,294.79 55.41,289.41 53.96,283.97 52.71,278.49 51.64,272.97 50.76,267.42 50.07,261.84 49.58,256.23 49.28,250.62 49.17,244.99 49.25,239.37 49.53,233.75 50,228.15 50.66,222.57 51.52,217.01 52.56,211.48 53.79,205.99 55.22,200.55 56.82,195.16 58.61,189.83 60.58,184.57 62.74,179.37 65.07,174.25 67.57,169.22 70.24,164.27 73.09,159.42 76.1,154.66 79.27,150.02 82.59,145.48 86.07,141.07 89.7,136.77 93.48,132.6 97.4,128.57 101.45,124.67 105.63,120.91 109.94,117.3 114.38,113.84 118.92,110.53 123.58,107.38 128.35,104.39 133.21,101.57 138.17,98.92 143.22,96.44 148.34,94.13 153.55,92 158.82,90.05 164.16,88.28 169.56,86.7 175.01,85.3 180.5,84.09 186.03,83.07 191.59,82.24 192.33,87.84 193.07,93.44 193.8,99.04 194.54,104.64 195.28,110.24 196.02,115.84 196.75,121.44 197.49,127.04 198.23,132.64 198.96,138.24 199.7,143.84 200.44,149.44 201.18,155.04 201.91,160.64 202.65,166.24 203.39,171.84 204.13,177.44 204.86,183.04 205.6,188.64 206.34,194.24 207.07,199.84 207.81,205.44 208.55,211.04 209.29,216.64 210.02,222.24 210.76,227.84 211.5,233.44 212.24,239.04 212.97,244.64 212.97,244.64" stroke="none" fill="rgb(0,176,246)" stroke-width="1.07" stroke-dasharray="none" stroke-opacity="0" fill-opacity="1"/>
                </g>
                <g id="geom_polygon.polygon.1547.1" class="polygon grob gDesc">
                  <polygon id="geom_polygon.polygon.1547.1.1" points="212.97,244.64 210.15,249.53 207.32,254.43 204.5,259.32 201.68,264.21 198.85,269.1 196.03,273.99 193.2,278.88 190.38,283.78 187.56,288.67 184.73,293.56 181.91,298.45 179.08,303.34 176.26,308.23 173.43,313.13 170.61,318.02 167.79,322.91 164.96,327.8 162.14,332.69 159.31,337.58 156.49,342.48 153.66,347.37 150.84,352.26 148.02,357.15 145.19,362.04 142.37,366.93 139.54,371.83 136.72,376.72 133.9,381.61 131.07,386.5 126.06,383.49 121.16,380.3 116.38,376.93 111.72,373.4 107.19,369.7 102.79,365.85 98.53,361.84 94.42,357.68 90.46,353.38 86.66,348.93 83.02,344.36 87.5,340.92 91.98,337.48 96.46,334.04 100.94,330.61 105.42,327.17 109.91,323.73 114.39,320.29 118.87,316.85 123.35,313.41 127.83,309.97 132.31,306.54 136.79,303.1 141.27,299.66 145.76,296.22 150.24,292.78 154.72,289.34 159.2,285.91 163.68,282.47 168.16,279.03 172.64,275.59 177.12,272.15 181.6,268.71 186.09,265.27 190.57,261.84 195.05,258.4 199.53,254.96 204.01,251.52 208.49,248.08 212.97,244.64 212.97,244.64" stroke="none" fill="rgb(0,191,125)" stroke-width="1.07" stroke-dasharray="none" stroke-opacity="0" fill-opacity="1"/>
                </g>
                <g id="geom_polygon.polygon.1549.1" class="polygon grob gDesc">
                  <polygon id="geom_polygon.polygon.1549.1.1" points="212.97,244.64 211.51,250.1 210.05,255.55 208.59,261.01 207.13,266.47 205.66,271.92 204.2,277.38 202.74,282.83 201.28,288.29 199.82,293.75 198.35,299.2 196.89,304.66 195.43,310.11 193.97,315.57 192.51,321.03 191.04,326.48 189.58,331.94 188.12,337.39 186.66,342.85 185.2,348.31 183.73,353.76 182.27,359.22 180.81,364.67 179.35,370.13 177.89,375.58 176.43,381.04 174.96,386.5 173.5,391.95 172.04,397.41 170.58,402.86 164.69,401.17 158.87,399.25 153.13,397.12 147.47,394.78 141.9,392.22 136.43,389.46 131.07,386.5 133.9,381.61 136.72,376.72 139.54,371.83 142.37,366.93 145.19,362.04 148.02,357.15 150.84,352.26 153.66,347.37 156.49,342.48 159.31,337.58 162.14,332.69 164.96,327.8 167.79,322.91 170.61,318.02 173.43,313.13 176.26,308.23 179.08,303.34 181.91,298.45 184.73,293.56 187.56,288.67 190.38,283.78 193.2,278.88 196.03,273.99 198.85,269.1 201.68,264.21 204.5,259.32 207.32,254.43 210.15,249.53 212.97,244.64 212.97,244.64" stroke="none" fill="rgb(163,165,0)" stroke-width="1.07" stroke-dasharray="none" stroke-opacity="0" fill-opacity="1"/>
                </g>
                <g id="geom_polygon.polygon.1551.1" class="polygon grob gDesc">
                  <polygon id="geom_polygon.polygon.1551.1.1" points="212.97,244.64 212.97,250.29 212.97,255.94 212.97,261.59 212.97,267.24 212.97,272.89 212.97,278.53 212.97,284.18 212.97,289.83 212.97,295.48 212.97,301.13 212.97,306.78 212.97,312.42 212.97,318.07 212.97,323.72 212.97,329.37 212.97,335.02 212.97,340.67 212.97,346.31 212.97,351.96 212.97,357.61 212.97,363.26 212.97,368.91 212.97,374.56 212.97,380.2 212.97,385.85 212.97,391.5 212.97,397.15 212.97,402.8 212.97,408.45 206.85,408.33 200.73,407.99 194.63,407.42 188.56,406.62 182.52,405.59 176.52,404.34 170.58,402.86 172.04,397.41 173.5,391.95 174.96,386.5 176.43,381.04 177.89,375.58 179.35,370.13 180.81,364.67 182.27,359.22 183.73,353.76 185.2,348.31 186.66,342.85 188.12,337.39 189.58,331.94 191.04,326.48 192.51,321.03 193.97,315.57 195.43,310.11 196.89,304.66 198.35,299.2 199.82,293.75 201.28,288.29 202.74,282.83 204.2,277.38 205.66,271.92 207.13,266.47 208.59,261.01 210.05,255.55 211.51,250.1 212.97,244.64 212.97,244.64" stroke="none" fill="rgb(248,118,109)" stroke-width="1.07" stroke-dasharray="none" stroke-opacity="0" fill-opacity="1"/>
                </g>
              </g>
              <g id="GRID.text.1554.1" class="text grob gDesc">
                <g id="GRID.text.1554.1.1" transform="translate(294.7, 239.29)" stroke-width="0.1">
                  <g id="GRID.text.1554.1.1.scale" transform="scale(1, -1)">
                    <text x="0" y="0" id="GRID.text.1554.1.1.text" text-anchor="middle" stroke="rgb(0,0,0)" font-size="11.04" font-family="Helvetica, Arial, FreeSans, Liberation Sans, Nimbus Sans L, sans-serif" fill="rgb(0,0,0)" stroke-opacity="1" fill-opacity="1" font-weight="normal" font-style="normal">
                      <tspan id="GRID.text.1554.1.1.tspan.1" dy="3.95" x="0">25</tspan>
                    </text>
                  </g>
                </g>
                <g id="GRID.text.1554.1.2" transform="translate(137.31, 213.3)" stroke-width="0.1">
                  <g id="GRID.text.1554.1.2.scale" transform="scale(1, -1)">
                    <text x="0" y="0" id="GRID.text.1554.1.2.text" text-anchor="middle" stroke="rgb(0,0,0)" font-size="11.04" font-family="Helvetica, Arial, FreeSans, Liberation Sans, Nimbus Sans L, sans-serif" fill="rgb(0,0,0)" stroke-opacity="1" fill-opacity="1" font-weight="normal" font-style="normal">
                      <tspan id="GRID.text.1554.1.2.tspan.1" dy="3.95" x="0">16</tspan>
                    </text>
                  </g>
                </g>
                <g id="GRID.text.1554.1.3" transform="translate(158.97, 306.22)" stroke-width="0.1">
                  <g id="GRID.text.1554.1.3.scale" transform="scale(1, -1)">
                    <text x="0" y="0" id="GRID.text.1554.1.3.text" text-anchor="middle" stroke="rgb(0,0,0)" font-size="11.04" font-family="Helvetica, Arial, FreeSans, Liberation Sans, Nimbus Sans L, sans-serif" fill="rgb(0,0,0)" stroke-opacity="1" fill-opacity="1" font-weight="normal" font-style="normal">
                      <tspan id="GRID.text.1554.1.3.tspan.1" dy="3.95" x="0">3</tspan>
                    </text>
                  </g>
                </g>
                <g id="GRID.text.1554.1.4" transform="translate(181.63, 320.31)" stroke-width="0.1">
                  <g id="GRID.text.1554.1.4.scale" transform="scale(1, -1)">
                    <text x="0" y="0" id="GRID.text.1554.1.4.text" text-anchor="middle" stroke="rgb(0,0,0)" font-size="11.04" font-family="Helvetica, Arial, FreeSans, Liberation Sans, Nimbus Sans L, sans-serif" fill="rgb(0,0,0)" stroke-opacity="1" fill-opacity="1" font-weight="normal" font-style="normal">
                      <tspan id="GRID.text.1554.1.4.tspan.1" dy="3.95" x="0">2</tspan>
                    </text>
                  </g>
                </g>
                <g id="GRID.text.1554.1.5" transform="translate(202.28, 325.84)" stroke-width="0.1">
                  <g id="GRID.text.1554.1.5.scale" transform="scale(1, -1)">
                    <text x="0" y="0" id="GRID.text.1554.1.5.text" text-anchor="middle" stroke="rgb(0,0,0)" font-size="11.04" font-family="Helvetica, Arial, FreeSans, Liberation Sans, Nimbus Sans L, sans-serif" fill="rgb(0,0,0)" stroke-opacity="1" fill-opacity="1" font-weight="normal" font-style="normal">
                      <tspan id="GRID.text.1554.1.5.tspan.1" dy="3.95" x="0">2</tspan>
                    </text>
                  </g>
                </g>
              </g>
              <g id="GRID.gTree.1555.1" class="gTree grob gDesc"/>
            </g>
          </g>
          <g id="layout::spacer.8-6-8-6.1" class="viewport"/>
          <g id="layout::spacer.8-4-8-4.1" class="viewport"/>
          <g id="layout::spacer.6-6-6-6.1" class="viewport"/>
          <g id="layout::spacer.6-4-6-4.1" class="viewport"/>
          <g id="layout::axis-t.6-5-6-5.1" class="viewport"/>
          <g id="layout::axis-l.7-4-7-4.1" class="viewport">
            <g id="layout::axis-l.7-4-7-4::GRID.VP.365.1" class="viewport">
              <g id="axis-l.7-4-7-4.1" class="forcedgrob gTableChild absoluteGrob gTree grob gDesc">
                <g id="layout::axis-l.7-4-7-4::GRID.VP.365::axis.1" class="viewport">
                  <g id="axis.1" class="forcedgrob gtable gTree grob gDesc">
                    <g id="layout::axis-l.7-4-7-4::GRID.VP.365::axis::axis.1-1-1-1.1" class="viewport"/>
                    <g id="layout::axis-l.7-4-7-4::GRID.VP.365::axis::axis.1-2-1-2.1" class="viewport"/>
                  </g>
                </g>
              </g>
            </g>
          </g>
          <g id="layout::axis-r.7-6-7-6.1" class="viewport"/>
          <g id="layout::axis-b.8-5-8-5.1" class="viewport">
            <g id="layout::axis-b.8-5-8-5::GRID.VP.364.1" class="viewport">
              <g id="axis-b.8-5-8-5.1" class="forcedgrob gTableChild absoluteGrob gTree grob gDesc">
                <g id="layout::axis-b.8-5-8-5::GRID.VP.364::axis.1" class="viewport">
                  <g id="axis.2" class="forcedgrob gtable gTree grob gDesc">
                    <g id="layout::axis-b.8-5-8-5::GRID.VP.364::axis::axis.1-1-1-1.1" class="viewport"/>
                    <g id="layout::axis-b.8-5-8-5::GRID.VP.364::axis::axis.2-1-2-1.1" class="viewport"/>
                  </g>
                </g>
              </g>
            </g>
          </g>
          <g id="layout::xlab-t.5-5-5-5.1" class="viewport"/>
          <g id="layout::xlab-b.9-5-9-5.1" class="viewport"/>
          <g id="layout::ylab-l.7-3-7-3.1" class="viewport"/>
          <g id="layout::ylab-r.7-7-7-7.1" class="viewport"/>
          <g id="layout::guide-box.7-9-7-9.1" class="viewport">
            <g id="layout::guide-box.7-9-7-9::GRID.VP.382.1" class="viewport">
              <g id="layout::guide-box.7-9-7-9::GRID.VP.382::guide-box.7-9-7-9.1" class="viewport">
                <g id="guide-box.7-9-7-9.1" class="forcedgrob gTableChild gtable gTree grob gDesc">
                  <g id="layout::guide-box.7-9-7-9::GRID.VP.382::guide-box.7-9-7-9::legend.box.background.2-4-4-2.1" class="viewport"/>
                  <g id="layout::guide-box.7-9-7-9::GRID.VP.382::guide-box.7-9-7-9::guides.3-3-3-3.1" class="viewport">
                    <g id="layout::guide-box.7-9-7-9::GRID.VP.382::guide-box.7-9-7-9::guides.3-3-3-3::GRID.VP.381.1" class="viewport">
                      <g id="layout::guide-box.7-9-7-9::GRID.VP.382::guide-box.7-9-7-9::guides.3-3-3-3::GRID.VP.381::guides.3-3-3-3.1" class="viewport">
                        <g id="guides.3-3-3-3.1" class="forcedgrob gTableChild gtable gTree grob gDesc">
                          <g id="layout::guide-box.7-9-7-9::GRID.VP.382::guide-box.7-9-7-9::guides.3-3-3-3::GRID.VP.381::guides.3-3-3-3::background.1-6-9-1.1" class="viewport">
                            <g id="background.1-6-9-1.1" class="forcedgrob gTableChild rect grob gDesc">
                              <rect id="background.1-6-9-1.1.1" x="428.69" y="193.22" width="69.84" height="102.84" transform="" stroke-width="1.07" stroke="none" fill="rgb(255,255,255)" stroke-dasharray="none" stroke-opacity="0" fill-opacity="1"/>
                            </g>
                          </g>
                          <g id="layout::guide-box.7-9-7-9::GRID.VP.382::guide-box.7-9-7-9::guides.3-3-3-3::GRID.VP.381::guides.3-3-3-3::title.2-5-2-2.1" class="viewport"/>
                          <g id="layout::guide-box.7-9-7-9::GRID.VP.382::guide-box.7-9-7-9::guides.3-3-3-3::GRID.VP.381::guides.3-3-3-3::key-3-1-bg.4-2-4-2.1" class="viewport"/>
                          <g id="layout::guide-box.7-9-7-9::GRID.VP.382::guide-box.7-9-7-9::guides.3-3-3-3::GRID.VP.381::guides.3-3-3-3::key-3-1-1.4-2-4-2.1" class="viewport">
                            <g id="key-3-1-1.4-2-4-2.1" class="forcedgrob gTableChild rect grob gDesc">
                              <rect id="key-3-1-1.4-2-4-2.1.1" x="434.87" y="268.53" width="15.86" height="15.86" transform="" stroke="none" fill="rgb(248,118,109)" stroke-dasharray="none" stroke-width="1.07" stroke-linejoin="miter" stroke-opacity="0" fill-opacity="1"/>
                            </g>
                          </g>
                          <g id="layout::guide-box.7-9-7-9::GRID.VP.382::guide-box.7-9-7-9::guides.3-3-3-3::GRID.VP.381::guides.3-3-3-3::key-4-1-bg.5-2-5-2.1" class="viewport"/>
                          <g id="layout::guide-box.7-9-7-9::GRID.VP.382::guide-box.7-9-7-9::guides.3-3-3-3::GRID.VP.381::guides.3-3-3-3::key-4-1-1.5-2-5-2.1" class="viewport">
                            <g id="key-4-1-1.5-2-5-2.1" class="forcedgrob gTableChild rect grob gDesc">
                              <rect id="key-4-1-1.5-2-5-2.1.1" x="434.87" y="251.25" width="15.86" height="15.86" transform="" stroke="none" fill="rgb(163,165,0)" stroke-dasharray="none" stroke-width="1.07" stroke-linejoin="miter" stroke-opacity="0" fill-opacity="1"/>
                            </g>
                          </g>
                          <g id="layout::guide-box.7-9-7-9::GRID.VP.382::guide-box.7-9-7-9::guides.3-3-3-3::GRID.VP.381::guides.3-3-3-3::key-5-1-bg.6-2-6-2.1" class="viewport"/>
                          <g id="layout::guide-box.7-9-7-9::GRID.VP.382::guide-box.7-9-7-9::guides.3-3-3-3::GRID.VP.381::guides.3-3-3-3::key-5-1-1.6-2-6-2.1" class="viewport">
                            <g id="key-5-1-1.6-2-6-2.1" class="forcedgrob gTableChild rect grob gDesc">
                              <rect id="key-5-1-1.6-2-6-2.1.1" x="434.87" y="233.97" width="15.86" height="15.86" transform="" stroke="none" fill="rgb(0,191,125)" stroke-dasharray="none" stroke-width="1.07" stroke-linejoin="miter" stroke-opacity="0" fill-opacity="1"/>
                            </g>
                          </g>
                          <g id="layout::guide-box.7-9-7-9::GRID.VP.382::guide-box.7-9-7-9::guides.3-3-3-3::GRID.VP.381::guides.3-3-3-3::key-6-1-bg.7-2-7-2.1" class="viewport"/>
                          <g id="layout::guide-box.7-9-7-9::GRID.VP.382::guide-box.7-9-7-9::guides.3-3-3-3::GRID.VP.381::guides.3-3-3-3::key-6-1-1.7-2-7-2.1" class="viewport">
                            <g id="key-6-1-1.7-2-7-2.1" class="forcedgrob gTableChild rect grob gDesc">
                              <rect id="key-6-1-1.7-2-7-2.1.1" x="434.87" y="216.69" width="15.86" height="15.86" transform="" stroke="none" fill="rgb(0,176,246)" stroke-dasharray="none" stroke-width="1.07" stroke-linejoin="miter" stroke-opacity="0" fill-opacity="1"/>
                            </g>
                          </g>
                          <g id="layout::guide-box.7-9-7-9::GRID.VP.382::guide-box.7-9-7-9::guides.3-3-3-3::GRID.VP.381::guides.3-3-3-3::key-7-1-bg.8-2-8-2.1" class="viewport"/>
                          <g id="layout::guide-box.7-9-7-9::GRID.VP.382::guide-box.7-9-7-9::guides.3-3-3-3::GRID.VP.381::guides.3-3-3-3::key-7-1-1.8-2-8-2.1" class="viewport">
                            <g id="key-7-1-1.8-2-8-2.1" class="forcedgrob gTableChild rect grob gDesc">
                              <rect id="key-7-1-1.8-2-8-2.1.1" x="434.87" y="199.41" width="15.86" height="15.86" transform="" stroke="none" fill="rgb(231,107,243)" stroke-dasharray="none" stroke-width="1.07" stroke-linejoin="miter" stroke-opacity="0" fill-opacity="1"/>
                            </g>
                          </g>
                          <g id="layout::guide-box.7-9-7-9::GRID.VP.382::guide-box.7-9-7-9::guides.3-3-3-3::GRID.VP.381::guides.3-3-3-3::label-3-3.4-4-4-4.1" class="viewport">
                            <g id="layout::guide-box.7-9-7-9::GRID.VP.382::guide-box.7-9-7-9::guides.3-3-3-3::GRID.VP.381::guides.3-3-3-3::label-3-3.4-4-4-4::GRID.VP.376.1" class="viewport">
                              <g id="label-3-3.4-4-4-4.1" class="forcedgrob gTableChild gTree grob gDesc">
                                <g id="layout::guide-box.7-9-7-9::GRID.VP.382::guide-box.7-9-7-9::guides.3-3-3-3::GRID.VP.381::guides.3-3-3-3::label-3-3.4-4-4-4::GRID.VP.376::GRID.VP.366.1" font-size="8.8" stroke="rgb(0,0,0)" font-family="Helvetica, Arial, FreeSans, Liberation Sans, Nimbus Sans L, sans-serif" stroke-opacity="1" font-weight="normal" font-style="normal" class="viewport">
                                  <g id="layout::guide-box.7-9-7-9::GRID.VP.382::guide-box.7-9-7-9::guides.3-3-3-3::GRID.VP.381::guides.3-3-3-3::label-3-3.4-4-4-4::GRID.VP.376::GRID.VP.366::GRID.VP.367.1" class="viewport">
                                    <g id="guide.label.titleGrob.1578.1" class="titleGrob gTree grob gDesc">
                                      <g id="GRID.text.1576.1" class="text grob gDesc">
                                        <g id="GRID.text.1576.1.1" transform="translate(456.92, 276.46)" stroke-width="0.1">
                                          <g id="GRID.text.1576.1.1.scale" transform="scale(1, -1)">
                                            <text x="0" y="0" id="GRID.text.1576.1.1.text" text-anchor="start" font-size="8.8" stroke="rgb(0,0,0)" font-family="Helvetica, Arial, FreeSans, Liberation Sans, Nimbus Sans L, sans-serif" fill="rgb(0,0,0)" stroke-opacity="1" fill-opacity="1" font-weight="normal" font-style="normal">
                                              <tspan id="GRID.text.1576.1.1.tspan.1" dy="3.23" x="0">avanzato</tspan>
                                            </text>
                                          </g>
                                        </g>
                                      </g>
                                    </g>
                                  </g>
                                </g>
                              </g>
                            </g>
                          </g>
                          <g id="layout::guide-box.7-9-7-9::GRID.VP.382::guide-box.7-9-7-9::guides.3-3-3-3::GRID.VP.381::guides.3-3-3-3::label-4-3.5-4-5-4.1" class="viewport">
                            <g id="layout::guide-box.7-9-7-9::GRID.VP.382::guide-box.7-9-7-9::guides.3-3-3-3::GRID.VP.381::guides.3-3-3-3::label-4-3.5-4-5-4::GRID.VP.377.1" class="viewport">
                              <g id="label-4-3.5-4-5-4.1" class="forcedgrob gTableChild gTree grob gDesc">
                                <g id="layout::guide-box.7-9-7-9::GRID.VP.382::guide-box.7-9-7-9::guides.3-3-3-3::GRID.VP.381::guides.3-3-3-3::label-4-3.5-4-5-4::GRID.VP.377::GRID.VP.368.1" font-size="8.8" stroke="rgb(0,0,0)" font-family="Helvetica, Arial, FreeSans, Liberation Sans, Nimbus Sans L, sans-serif" stroke-opacity="1" font-weight="normal" font-style="normal" class="viewport">
                                  <g id="layout::guide-box.7-9-7-9::GRID.VP.382::guide-box.7-9-7-9::guides.3-3-3-3::GRID.VP.381::guides.3-3-3-3::label-4-3.5-4-5-4::GRID.VP.377::GRID.VP.368::GRID.VP.369.1" class="viewport">
                                    <g id="guide.label.titleGrob.1581.1" class="titleGrob gTree grob gDesc">
                                      <g id="GRID.text.1579.1" class="text grob gDesc">
                                        <g id="GRID.text.1579.1.1" transform="translate(456.92, 259.18)" stroke-width="0.1">
                                          <g id="GRID.text.1579.1.1.scale" transform="scale(1, -1)">
                                            <text x="0" y="0" id="GRID.text.1579.1.1.text" text-anchor="start" font-size="8.8" stroke="rgb(0,0,0)" font-family="Helvetica, Arial, FreeSans, Liberation Sans, Nimbus Sans L, sans-serif" fill="rgb(0,0,0)" stroke-opacity="1" fill-opacity="1" font-weight="normal" font-style="normal">
                                              <tspan id="GRID.text.1579.1.1.tspan.1" dy="3.23" x="0">nessuno</tspan>
                                            </text>
                                          </g>
                                        </g>
                                      </g>
                                    </g>
                                  </g>
                                </g>
                              </g>
                            </g>
                          </g>
                          <g id="layout::guide-box.7-9-7-9::GRID.VP.382::guide-box.7-9-7-9::guides.3-3-3-3::GRID.VP.381::guides.3-3-3-3::label-5-3.6-4-6-4.1" class="viewport">
                            <g id="layout::guide-box.7-9-7-9::GRID.VP.382::guide-box.7-9-7-9::guides.3-3-3-3::GRID.VP.381::guides.3-3-3-3::label-5-3.6-4-6-4::GRID.VP.378.1" class="viewport">
                              <g id="label-5-3.6-4-6-4.1" class="forcedgrob gTableChild gTree grob gDesc">
                                <g id="layout::guide-box.7-9-7-9::GRID.VP.382::guide-box.7-9-7-9::guides.3-3-3-3::GRID.VP.381::guides.3-3-3-3::label-5-3.6-4-6-4::GRID.VP.378::GRID.VP.370.1" font-size="8.8" stroke="rgb(0,0,0)" font-family="Helvetica, Arial, FreeSans, Liberation Sans, Nimbus Sans L, sans-serif" stroke-opacity="1" font-weight="normal" font-style="normal" class="viewport">
                                  <g id="layout::guide-box.7-9-7-9::GRID.VP.382::guide-box.7-9-7-9::guides.3-3-3-3::GRID.VP.381::guides.3-3-3-3::label-5-3.6-4-6-4::GRID.VP.378::GRID.VP.370::GRID.VP.371.1" class="viewport">
                                    <g id="guide.label.titleGrob.1584.1" class="titleGrob gTree grob gDesc">
                                      <g id="GRID.text.1582.1" class="text grob gDesc">
                                        <g id="GRID.text.1582.1.1" transform="translate(456.92, 241.9)" stroke-width="0.1">
                                          <g id="GRID.text.1582.1.1.scale" transform="scale(1, -1)">
                                            <text x="0" y="0" id="GRID.text.1582.1.1.text" text-anchor="start" font-size="8.8" stroke="rgb(0,0,0)" font-family="Helvetica, Arial, FreeSans, Liberation Sans, Nimbus Sans L, sans-serif" fill="rgb(0,0,0)" stroke-opacity="1" fill-opacity="1" font-weight="normal" font-style="normal">
                                              <tspan id="GRID.text.1582.1.1.tspan.1" dy="3.23" x="0">tutto</tspan>
                                            </text>
                                          </g>
                                        </g>
                                      </g>
                                    </g>
                                  </g>
                                </g>
                              </g>
                            </g>
                          </g>
                          <g id="layout::guide-box.7-9-7-9::GRID.VP.382::guide-box.7-9-7-9::guides.3-3-3-3::GRID.VP.381::guides.3-3-3-3::label-6-3.7-4-7-4.1" class="viewport">
                            <g id="layout::guide-box.7-9-7-9::GRID.VP.382::guide-box.7-9-7-9::guides.3-3-3-3::GRID.VP.381::guides.3-3-3-3::label-6-3.7-4-7-4::GRID.VP.379.1" class="viewport">
                              <g id="label-6-3.7-4-7-4.1" class="forcedgrob gTableChild gTree grob gDesc">
                                <g id="layout::guide-box.7-9-7-9::GRID.VP.382::guide-box.7-9-7-9::guides.3-3-3-3::GRID.VP.381::guides.3-3-3-3::label-6-3.7-4-7-4::GRID.VP.379::GRID.VP.372.1" font-size="8.8" stroke="rgb(0,0,0)" font-family="Helvetica, Arial, FreeSans, Liberation Sans, Nimbus Sans L, sans-serif" stroke-opacity="1" font-weight="normal" font-style="normal" class="viewport">
                                  <g id="layout::guide-box.7-9-7-9::GRID.VP.382::guide-box.7-9-7-9::guides.3-3-3-3::GRID.VP.381::guides.3-3-3-3::label-6-3.7-4-7-4::GRID.VP.379::GRID.VP.372::GRID.VP.373.1" class="viewport">
                                    <g id="guide.label.titleGrob.1587.1" class="titleGrob gTree grob gDesc">
                                      <g id="GRID.text.1585.1" class="text grob gDesc">
                                        <g id="GRID.text.1585.1.1" transform="translate(456.92, 224.62)" stroke-width="0.1">
                                          <g id="GRID.text.1585.1.1.scale" transform="scale(1, -1)">
                                            <text x="0" y="0" id="GRID.text.1585.1.1.text" text-anchor="start" font-size="8.8" stroke="rgb(0,0,0)" font-family="Helvetica, Arial, FreeSans, Liberation Sans, Nimbus Sans L, sans-serif" fill="rgb(0,0,0)" stroke-opacity="1" fill-opacity="1" font-weight="normal" font-style="normal">
                                              <tspan id="GRID.text.1585.1.1.tspan.1" dy="3.23" x="0">base</tspan>
                                            </text>
                                          </g>
                                        </g>
                                      </g>
                                    </g>
                                  </g>
                                </g>
                              </g>
                            </g>
                          </g>
                          <g id="layout::guide-box.7-9-7-9::GRID.VP.382::guide-box.7-9-7-9::guides.3-3-3-3::GRID.VP.381::guides.3-3-3-3::label-7-3.8-4-8-4.1" class="viewport">
                            <g id="layout::guide-box.7-9-7-9::GRID.VP.382::guide-box.7-9-7-9::guides.3-3-3-3::GRID.VP.381::guides.3-3-3-3::label-7-3.8-4-8-4::GRID.VP.380.1" class="viewport">
                              <g id="label-7-3.8-4-8-4.1" class="forcedgrob gTableChild gTree grob gDesc">
                                <g id="layout::guide-box.7-9-7-9::GRID.VP.382::guide-box.7-9-7-9::guides.3-3-3-3::GRID.VP.381::guides.3-3-3-3::label-7-3.8-4-8-4::GRID.VP.380::GRID.VP.374.1" font-size="8.8" stroke="rgb(0,0,0)" font-family="Helvetica, Arial, FreeSans, Liberation Sans, Nimbus Sans L, sans-serif" stroke-opacity="1" font-weight="normal" font-style="normal" class="viewport">
                                  <g id="layout::guide-box.7-9-7-9::GRID.VP.382::guide-box.7-9-7-9::guides.3-3-3-3::GRID.VP.381::guides.3-3-3-3::label-7-3.8-4-8-4::GRID.VP.380::GRID.VP.374::GRID.VP.375.1" class="viewport">
                                    <g id="guide.label.titleGrob.1590.1" class="titleGrob gTree grob gDesc">
                                      <g id="GRID.text.1588.1" class="text grob gDesc">
                                        <g id="GRID.text.1588.1.1" transform="translate(456.92, 207.34)" stroke-width="0.1">
                                          <g id="GRID.text.1588.1.1.scale" transform="scale(1, -1)">
                                            <text x="0" y="0" id="GRID.text.1588.1.1.text" text-anchor="start" font-size="8.8" stroke="rgb(0,0,0)" font-family="Helvetica, Arial, FreeSans, Liberation Sans, Nimbus Sans L, sans-serif" fill="rgb(0,0,0)" stroke-opacity="1" fill-opacity="1" font-weight="normal" font-style="normal">
                                              <tspan id="GRID.text.1588.1.1.tspan.1" dy="3.23" x="0">medio</tspan>
                                            </text>
                                          </g>
                                        </g>
                                      </g>
                                    </g>
                                  </g>
                                </g>
                              </g>
                            </g>
                          </g>
                        </g>
                      </g>
                    </g>
                  </g>
                </g>
              </g>
            </g>
          </g>
          <g id="layout::subtitle.4-5-4-5.1" class="viewport"/>
          <g id="layout::title.3-5-3-5.1" class="viewport">
            <g id="layout::title.3-5-3-5::GRID.VP.383.1" font-size="13.2" stroke="rgb(102,102,102)" font-family="Helvetica, Arial, FreeSans, Liberation Sans, Nimbus Sans L, sans-serif" stroke-opacity="1" font-weight="normal" font-style="normal" class="viewport">
              <g id="layout::title.3-5-3-5::GRID.VP.383::GRID.VP.384.1" class="viewport">
                <g id="title.3-5-3-5.1" class="forcedgrob gTableChild titleGrob gTree grob gDesc">
                  <g id="GRID.text.1608.1" class="text grob gDesc">
                    <g id="GRID.text.1608.1.1" transform="translate(212.97, 466.85)" stroke-width="0.1">
                      <g id="GRID.text.1608.1.1.scale" transform="scale(1, -1)">
                        <text x="0" y="0" id="GRID.text.1608.1.1.text" text-anchor="middle" font-size="13.2" stroke="rgb(102,102,102)" font-family="Helvetica, Arial, FreeSans, Liberation Sans, Nimbus Sans L, sans-serif" fill="rgb(102,102,102)" stroke-opacity="1" fill-opacity="1" font-weight="normal" font-style="normal">
                          <tspan id="GRID.text.1608.1.1.tspan.1" dy="9.33" x="0">anagrafica totali-creazionecontenuti</tspan>
                        </text>
                      </g>
                    </g>
                  </g>
                </g>
              </g>
            </g>
          </g>
          <g id="layout::caption.10-5-10-5.1" class="viewport"/>
          <g id="layout::tag.2-2-2-2.1" class="viewport"/>
        </g>
      </g>
    </g>
  </g>
</svg>