<?xml version="1.0" encoding="UTF-8"?>
<svg xmlns="http://www.w3.org/2000/svg" xmlns:xlink="http://www.w3.org/1999/xlink" width="504px" height="504px" viewBox="0 0 504 504" version="1.1">
  <metadata xmlns:gridsvg="http://www.stat.auckland.ac.nz/~paul/R/gridSVG/">
    <gridsvg:generator name="gridSVG" version="1.6-0" time="2019-01-14 19:40:57"/>
    <gridsvg:argument name="name" value="./latest_informaggio_csv/anziani/risultati/svg/anagrafica-cdl.svg"/>
    <gridsvg:argument name="exportCoords" value="none"/>
    <gridsvg:argument name="exportMappings" value="none"/>
    <gridsvg:argument name="exportJS" value="none"/>
    <gridsvg:argument name="res" value="72"/>
    <gridsvg:argument name="prefix" value=""/>
    <gridsvg:argument name="addClasses" value="TRUE"/>
    <gridsvg:argument name="indent" value="TRUE"/>
    <gridsvg:argument name="htmlWrapper" value="FALSE"/>
    <gridsvg:argument name="usePaths" value="vpPaths"/>
    <gridsvg:argument name="uniqueNames" value="TRUE"/>
    <gridsvg:separator name="id.sep" value="."/>
    <gridsvg:separator name="gPath.sep" value="::"/>
    <gridsvg:separator name="vpPath.sep" value="::"/>
  </metadata>
  <g transform="translate(0, 504) scale(1, -1)">
    <g id="gridSVG" fill="none" stroke="rgb(0,0,0)" stroke-dasharray="none" stroke-width="0.75" font-size="12" font-family="Helvetica, Arial, FreeSans, Liberation Sans, Nimbus Sans L, sans-serif" opacity="1" stroke-linecap="round" stroke-linejoin="round" stroke-miterlimit="10" stroke-opacity="1" fill-opacity="0" font-weight="normal" font-style="normal">
      <g id="layout.1" class="viewport">
        <g id="layout.2" class="forcedgrob gtable gTree grob gDesc">
          <defs>
            <clipPath id="layout::background.1-11-12-1.1.clipPath">
              <rect x="0" y="29.11" width="504" height="445.77" fill="none" stroke="none"/>
            </clipPath>
          </defs>
          <g id="layout::background.1-11-12-1.1" clip-path="url(#layout::background.1-11-12-1.1.clipPath)" class="viewport">
            <g id="background.1-11-12-1.1" class="forcedgrob gTableChild rect grob gDesc">
              <rect id="background.1-11-12-1.1.1" x="0" y="29.11" width="504" height="445.77" transform="" stroke-width="1.07" stroke="rgb(255,255,255)" fill="rgb(255,255,255)" stroke-dasharray="none" stroke-opacity="1" fill-opacity="1"/>
            </g>
          </g>
          <defs>
            <clipPath id="layout::panel.7-5-7-5.1.clipPath">
              <rect x="8.22" y="37.33" width="414.62" height="414.62" fill="none" stroke="none"/>
            </clipPath>
          </defs>
          <g id="layout::panel.7-5-7-5.1" clip-path="url(#layout::panel.7-5-7-5.1.clipPath)" class="viewport">
            <g id="panel.7-5-7-5.1" class="forcedgrob gTableChild gTree grob gDesc">
              <g id="grill.gTree.1153.1" class="gTree grob gDesc">
                <g id="panel.background..rect.1149.1" class="rect grob gDesc">
                  <rect id="panel.background..rect.1149.1.1" x="8.22" y="37.33" width="414.62" height="414.62" transform="" stroke-width="1.07" stroke="none" fill="rgb(255,255,255)" stroke-dasharray="none" stroke-opacity="0" fill-opacity="1"/>
                </g>
              </g>
              <g id="bar.gTree.1142.1" class="gTree grob gDesc">
                <g id="geom_polygon.polygon.1138.1" class="polygon grob gDesc">
                  <polygon id="geom_polygon.polygon.1138.1.1" points="215.53,244.64 212.67,239.69 209.81,234.74 206.95,229.79 204.09,224.83 201.23,219.88 198.37,214.93 195.51,209.97 192.65,205.02 189.79,200.07 186.93,195.12 184.07,190.16 181.22,185.21 178.36,180.26 175.5,175.31 172.64,170.35 169.78,165.4 166.92,160.45 164.06,155.49 161.2,150.54 158.34,145.59 155.48,140.64 152.62,135.68 149.76,130.73 146.9,125.78 144.04,120.83 141.18,115.87 138.32,110.92 135.46,105.97 132.6,101.01 137.53,98.28 142.54,95.72 147.63,93.33 152.81,91.11 158.05,89.07 163.36,87.21 168.73,85.53 174.16,84.04 179.63,82.73 185.15,81.6 190.7,80.67 196.27,79.92 201.88,79.36 207.49,78.99 213.12,78.81 218.74,78.83 224.37,79.03 229.98,79.43 235.58,80.01 241.16,80.79 246.7,81.75 252.21,82.9 257.68,84.24 263.09,85.76 268.46,87.47 273.76,89.35 279,91.42 284.16,93.66 289.24,96.08 294.24,98.66 299.15,101.42 303.96,104.34 308.67,107.42 313.27,110.66 317.76,114.05 322.13,117.6 326.38,121.29 330.5,125.12 334.49,129.09 338.35,133.19 342.06,137.42 345.62,141.78 349.04,146.25 352.3,150.84 355.4,155.53 358.35,160.33 361.12,165.22 363.74,170.21 366.18,175.28 368.44,180.43 370.53,185.66 372.45,190.95 374.18,196.31 375.73,201.72 377.09,207.18 378.27,212.68 379.26,218.22 380.06,223.79 380.67,229.39 381.1,235 381.33,240.62 381.37,246.25 381.22,251.88 380.88,257.5 380.35,263.1 379.63,268.68 378.72,274.23 377.62,279.75 376.33,285.23 374.86,290.67 373.21,296.05 371.37,301.37 369.36,306.62 367.17,311.81 364.8,316.91 362.26,321.94 359.56,326.87 356.68,331.71 353.65,336.45 350.45,341.08 347.1,345.6 343.6,350.01 339.95,354.3 336.16,358.45 332.23,362.48 328.17,366.37 323.97,370.13 319.65,373.73 315.21,377.19 310.66,380.5 305.99,383.65 301.22,386.64 296.35,389.46 291.39,392.12 286.35,394.61 281.22,396.93 276.01,399.07 270.74,401.03 265.4,402.81 260,404.42 254.56,405.83 249.07,407.06 243.54,408.11 237.97,408.97 232.38,409.63 226.78,410.11 221.16,410.4 215.53,410.49 215.53,404.77 215.53,399.05 215.53,393.33 215.53,387.62 215.53,381.9 215.53,376.18 215.53,370.46 215.53,364.74 215.53,359.02 215.53,353.3 215.53,347.58 215.53,341.86 215.53,336.15 215.53,330.43 215.53,324.71 215.53,318.99 215.53,313.27 215.53,307.55 215.53,301.83 215.53,296.11 215.53,290.39 215.53,284.68 215.53,278.96 215.53,273.24 215.53,267.52 215.53,261.8 215.53,256.08 215.53,250.36 215.53,244.64 215.53,244.64" stroke="none" fill="rgb(0,191,196)" stroke-width="1.07" stroke-dasharray="none" stroke-opacity="0" fill-opacity="1"/>
                </g>
                <g id="geom_polygon.polygon.1140.1" class="polygon grob gDesc">
                  <polygon id="geom_polygon.polygon.1140.1.1" points="215.53,244.64 215.53,250.36 215.53,256.08 215.53,261.8 215.53,267.52 215.53,273.24 215.53,278.96 215.53,284.68 215.53,290.39 215.53,296.11 215.53,301.83 215.53,307.55 215.53,313.27 215.53,318.99 215.53,324.71 215.53,330.43 215.53,336.15 215.53,341.86 215.53,347.58 215.53,353.3 215.53,359.02 215.53,364.74 215.53,370.46 215.53,376.18 215.53,381.9 215.53,387.62 215.53,393.33 215.53,399.05 215.53,404.77 215.53,410.49 209.89,410.39 204.26,410.11 198.64,409.63 193.04,408.96 187.47,408.1 181.93,407.05 176.43,405.82 170.97,404.39 165.57,402.79 160.22,401 154.94,399.03 149.72,396.88 144.59,394.55 139.53,392.05 134.57,389.39 129.69,386.55 124.92,383.55 120.25,380.39 115.69,377.07 111.25,373.6 106.92,369.98 102.72,366.22 98.66,362.31 94.72,358.27 90.93,354.1 87.28,349.8 83.78,345.38 80.43,340.84 77.24,336.2 74.21,331.44 71.34,326.59 68.64,321.64 66.11,316.6 63.75,311.48 61.56,306.28 59.55,301.01 57.73,295.68 56.09,290.28 54.63,284.84 53.35,279.35 52.27,273.81 51.37,268.25 50.66,262.65 50.14,257.04 49.82,251.41 49.68,245.77 49.74,240.13 49.99,234.5 50.43,228.88 51.06,223.28 51.88,217.7 52.9,212.15 54.09,206.64 55.48,201.17 57.05,195.76 58.8,190.4 60.74,185.1 62.85,179.88 65.14,174.72 67.6,169.65 70.24,164.67 73.04,159.77 76.01,154.98 79.14,150.29 82.42,145.71 85.86,141.24 89.45,136.89 93.19,132.67 97.07,128.57 101.08,124.61 105.23,120.79 109.5,117.11 113.9,113.58 118.41,110.2 123.04,106.98 127.77,103.92 132.6,101.01 135.46,105.97 138.32,110.92 141.18,115.87 144.04,120.83 146.9,125.78 149.76,130.73 152.62,135.68 155.48,140.64 158.34,145.59 161.2,150.54 164.06,155.49 166.92,160.45 169.78,165.4 172.64,170.35 175.5,175.31 178.36,180.26 181.22,185.21 184.07,190.16 186.93,195.12 189.79,200.07 192.65,205.02 195.51,209.97 198.37,214.93 201.23,219.88 204.09,224.83 206.95,229.79 209.81,234.74 212.67,239.69 215.53,244.64 215.53,244.64" stroke="none" fill="rgb(248,118,109)" stroke-width="1.07" stroke-dasharray="none" stroke-opacity="0" fill-opacity="1"/>
                </g>
              </g>
              <g id="GRID.text.1143.1" class="text grob gDesc">
                <g id="GRID.text.1143.1.1" transform="translate(295.63, 223.18)" stroke-width="0.1">
                  <g id="GRID.text.1143.1.1.scale" transform="scale(1, -1)">
                    <text x="0" y="0" id="GRID.text.1143.1.1.text" text-anchor="middle" stroke="rgb(0,0,0)" font-size="11.04" font-family="Helvetica, Arial, FreeSans, Liberation Sans, Nimbus Sans L, sans-serif" fill="rgb(0,0,0)" stroke-opacity="1" fill-opacity="1" font-weight="normal" font-style="normal">
                      <tspan id="GRID.text.1143.1.1.tspan.1" dy="3.95" x="0">28</tspan>
                    </text>
                  </g>
                </g>
                <g id="GRID.text.1143.1.2" transform="translate(135.43, 266.11)" stroke-width="0.1">
                  <g id="GRID.text.1143.1.2.scale" transform="scale(1, -1)">
                    <text x="0" y="0" id="GRID.text.1143.1.2.text" text-anchor="middle" stroke="rgb(0,0,0)" font-size="11.04" font-family="Helvetica, Arial, FreeSans, Liberation Sans, Nimbus Sans L, sans-serif" fill="rgb(0,0,0)" stroke-opacity="1" fill-opacity="1" font-weight="normal" font-style="normal">
                      <tspan id="GRID.text.1143.1.2.tspan.1" dy="3.95" x="0">20</tspan>
                    </text>
                  </g>
                </g>
              </g>
              <g id="GRID.gTree.1144.1" class="gTree grob gDesc"/>
            </g>
          </g>
          <g id="layout::spacer.8-6-8-6.1" class="viewport"/>
          <g id="layout::spacer.8-4-8-4.1" class="viewport"/>
          <g id="layout::spacer.6-6-6-6.1" class="viewport"/>
          <g id="layout::spacer.6-4-6-4.1" class="viewport"/>
          <g id="layout::axis-t.6-5-6-5.1" class="viewport"/>
          <g id="layout::axis-l.7-4-7-4.1" class="viewport">
            <g id="layout::axis-l.7-4-7-4::GRID.VP.275.1" class="viewport">
              <g id="axis-l.7-4-7-4.1" class="forcedgrob gTableChild absoluteGrob gTree grob gDesc">
                <g id="layout::axis-l.7-4-7-4::GRID.VP.275::axis.1" class="viewport">
                  <g id="axis.1" class="forcedgrob gtable gTree grob gDesc">
                    <g id="layout::axis-l.7-4-7-4::GRID.VP.275::axis::axis.1-1-1-1.1" class="viewport"/>
                    <g id="layout::axis-l.7-4-7-4::GRID.VP.275::axis::axis.1-2-1-2.1" class="viewport"/>
                  </g>
                </g>
              </g>
            </g>
          </g>
          <g id="layout::axis-r.7-6-7-6.1" class="viewport"/>
          <g id="layout::axis-b.8-5-8-5.1" class="viewport">
            <g id="layout::axis-b.8-5-8-5::GRID.VP.274.1" class="viewport">
              <g id="axis-b.8-5-8-5.1" class="forcedgrob gTableChild absoluteGrob gTree grob gDesc">
                <g id="layout::axis-b.8-5-8-5::GRID.VP.274::axis.1" class="viewport">
                  <g id="axis.2" class="forcedgrob gtable gTree grob gDesc">
                    <g id="layout::axis-b.8-5-8-5::GRID.VP.274::axis::axis.1-1-1-1.1" class="viewport"/>
                    <g id="layout::axis-b.8-5-8-5::GRID.VP.274::axis::axis.2-1-2-1.1" class="viewport"/>
                  </g>
                </g>
              </g>
            </g>
          </g>
          <g id="layout::xlab-t.5-5-5-5.1" class="viewport"/>
          <g id="layout::xlab-b.9-5-9-5.1" class="viewport"/>
          <g id="layout::ylab-l.7-3-7-3.1" class="viewport"/>
          <g id="layout::ylab-r.7-7-7-7.1" class="viewport"/>
          <g id="layout::guide-box.7-9-7-9.1" class="viewport">
            <g id="layout::guide-box.7-9-7-9::GRID.VP.283.1" class="viewport">
              <g id="layout::guide-box.7-9-7-9::GRID.VP.283::guide-box.7-9-7-9.1" class="viewport">
                <g id="guide-box.7-9-7-9.1" class="forcedgrob gTableChild gtable gTree grob gDesc">
                  <g id="layout::guide-box.7-9-7-9::GRID.VP.283::guide-box.7-9-7-9::legend.box.background.2-4-4-2.1" class="viewport"/>
                  <g id="layout::guide-box.7-9-7-9::GRID.VP.283::guide-box.7-9-7-9::guides.3-3-3-3.1" class="viewport">
                    <g id="layout::guide-box.7-9-7-9::GRID.VP.283::guide-box.7-9-7-9::guides.3-3-3-3::GRID.VP.282.1" class="viewport">
                      <g id="layout::guide-box.7-9-7-9::GRID.VP.283::guide-box.7-9-7-9::guides.3-3-3-3::GRID.VP.282::guides.3-3-3-3.1" class="viewport">
                        <g id="guides.3-3-3-3.1" class="forcedgrob gTableChild gtable gTree grob gDesc">
                          <g id="layout::guide-box.7-9-7-9::GRID.VP.283::guide-box.7-9-7-9::guides.3-3-3-3::GRID.VP.282::guides.3-3-3-3::background.1-6-6-1.1" class="viewport">
                            <g id="background.1-6-6-1.1" class="forcedgrob gTableChild rect grob gDesc">
                              <rect id="background.1-6-6-1.1.1" x="433.8" y="219.14" width="64.72" height="51" transform="" stroke-width="1.07" stroke="none" fill="rgb(255,255,255)" stroke-dasharray="none" stroke-opacity="0" fill-opacity="1"/>
                            </g>
                          </g>
                          <g id="layout::guide-box.7-9-7-9::GRID.VP.283::guide-box.7-9-7-9::guides.3-3-3-3::GRID.VP.282::guides.3-3-3-3::title.2-5-2-2.1" class="viewport"/>
                          <g id="layout::guide-box.7-9-7-9::GRID.VP.283::guide-box.7-9-7-9::guides.3-3-3-3::GRID.VP.282::guides.3-3-3-3::key-3-1-bg.4-2-4-2.1" class="viewport"/>
                          <g id="layout::guide-box.7-9-7-9::GRID.VP.283::guide-box.7-9-7-9::guides.3-3-3-3::GRID.VP.282::guides.3-3-3-3::key-3-1-1.4-2-4-2.1" class="viewport">
                            <g id="key-3-1-1.4-2-4-2.1" class="forcedgrob gTableChild rect grob gDesc">
                              <rect id="key-3-1-1.4-2-4-2.1.1" x="439.99" y="242.61" width="15.86" height="15.86" transform="" stroke="none" fill="rgb(248,118,109)" stroke-dasharray="none" stroke-width="1.07" stroke-linejoin="miter" stroke-opacity="0" fill-opacity="1"/>
                            </g>
                          </g>
                          <g id="layout::guide-box.7-9-7-9::GRID.VP.283::guide-box.7-9-7-9::guides.3-3-3-3::GRID.VP.282::guides.3-3-3-3::key-4-1-bg.5-2-5-2.1" class="viewport"/>
                          <g id="layout::guide-box.7-9-7-9::GRID.VP.283::guide-box.7-9-7-9::guides.3-3-3-3::GRID.VP.282::guides.3-3-3-3::key-4-1-1.5-2-5-2.1" class="viewport">
                            <g id="key-4-1-1.5-2-5-2.1" class="forcedgrob gTableChild rect grob gDesc">
                              <rect id="key-4-1-1.5-2-5-2.1.1" x="439.99" y="225.33" width="15.86" height="15.86" transform="" stroke="none" fill="rgb(0,191,196)" stroke-dasharray="none" stroke-width="1.07" stroke-linejoin="miter" stroke-opacity="0" fill-opacity="1"/>
                            </g>
                          </g>
                          <g id="layout::guide-box.7-9-7-9::GRID.VP.283::guide-box.7-9-7-9::guides.3-3-3-3::GRID.VP.282::guides.3-3-3-3::label-3-3.4-4-4-4.1" class="viewport">
                            <g id="layout::guide-box.7-9-7-9::GRID.VP.283::guide-box.7-9-7-9::guides.3-3-3-3::GRID.VP.282::guides.3-3-3-3::label-3-3.4-4-4-4::GRID.VP.280.1" class="viewport">
                              <g id="label-3-3.4-4-4-4.1" class="forcedgrob gTableChild gTree grob gDesc">
                                <g id="layout::guide-box.7-9-7-9::GRID.VP.283::guide-box.7-9-7-9::guides.3-3-3-3::GRID.VP.282::guides.3-3-3-3::label-3-3.4-4-4-4::GRID.VP.280::GRID.VP.276.1" font-size="8.8" stroke="rgb(0,0,0)" font-family="Helvetica, Arial, FreeSans, Liberation Sans, Nimbus Sans L, sans-serif" stroke-opacity="1" font-weight="normal" font-style="normal" class="viewport">
                                  <g id="layout::guide-box.7-9-7-9::GRID.VP.283::guide-box.7-9-7-9::guides.3-3-3-3::GRID.VP.282::guides.3-3-3-3::label-3-3.4-4-4-4::GRID.VP.280::GRID.VP.276::GRID.VP.277.1" class="viewport">
                                    <g id="guide.label.titleGrob.1167.1" class="titleGrob gTree grob gDesc">
                                      <g id="GRID.text.1165.1" class="text grob gDesc">
                                        <g id="GRID.text.1165.1.1" transform="translate(462.04, 250.54)" stroke-width="0.1">
                                          <g id="GRID.text.1165.1.1.scale" transform="scale(1, -1)">
                                            <text x="0" y="0" id="GRID.text.1165.1.1.text" text-anchor="start" font-size="8.8" stroke="rgb(0,0,0)" font-family="Helvetica, Arial, FreeSans, Liberation Sans, Nimbus Sans L, sans-serif" fill="rgb(0,0,0)" stroke-opacity="1" fill-opacity="1" font-weight="normal" font-style="normal">
                                              <tspan id="GRID.text.1165.1.1.tspan.1" dy="3.23" x="0">LT (20)</tspan>
                                            </text>
                                          </g>
                                        </g>
                                      </g>
                                    </g>
                                  </g>
                                </g>
                              </g>
                            </g>
                          </g>
                          <g id="layout::guide-box.7-9-7-9::GRID.VP.283::guide-box.7-9-7-9::guides.3-3-3-3::GRID.VP.282::guides.3-3-3-3::label-4-3.5-4-5-4.1" class="viewport">
                            <g id="layout::guide-box.7-9-7-9::GRID.VP.283::guide-box.7-9-7-9::guides.3-3-3-3::GRID.VP.282::guides.3-3-3-3::label-4-3.5-4-5-4::GRID.VP.281.1" class="viewport">
                              <g id="label-4-3.5-4-5-4.1" class="forcedgrob gTableChild gTree grob gDesc">
                                <g id="layout::guide-box.7-9-7-9::GRID.VP.283::guide-box.7-9-7-9::guides.3-3-3-3::GRID.VP.282::guides.3-3-3-3::label-4-3.5-4-5-4::GRID.VP.281::GRID.VP.278.1" font-size="8.8" stroke="rgb(0,0,0)" font-family="Helvetica, Arial, FreeSans, Liberation Sans, Nimbus Sans L, sans-serif" stroke-opacity="1" font-weight="normal" font-style="normal" class="viewport">
                                  <g id="layout::guide-box.7-9-7-9::GRID.VP.283::guide-box.7-9-7-9::guides.3-3-3-3::GRID.VP.282::guides.3-3-3-3::label-4-3.5-4-5-4::GRID.VP.281::GRID.VP.278::GRID.VP.279.1" class="viewport">
                                    <g id="guide.label.titleGrob.1170.1" class="titleGrob gTree grob gDesc">
                                      <g id="GRID.text.1168.1" class="text grob gDesc">
                                        <g id="GRID.text.1168.1.1" transform="translate(462.04, 233.26)" stroke-width="0.1">
                                          <g id="GRID.text.1168.1.1.scale" transform="scale(1, -1)">
                                            <text x="0" y="0" id="GRID.text.1168.1.1.text" text-anchor="start" font-size="8.8" stroke="rgb(0,0,0)" font-family="Helvetica, Arial, FreeSans, Liberation Sans, Nimbus Sans L, sans-serif" fill="rgb(0,0,0)" stroke-opacity="1" fill-opacity="1" font-weight="normal" font-style="normal">
                                              <tspan id="GRID.text.1168.1.1.tspan.1" dy="3.23" x="0">LM (28)</tspan>
                                            </text>
                                          </g>
                                        </g>
                                      </g>
                                    </g>
                                  </g>
                                </g>
                              </g>
                            </g>
                          </g>
                        </g>
                      </g>
                    </g>
                  </g>
                </g>
              </g>
            </g>
          </g>
          <g id="layout::subtitle.4-5-4-5.1" class="viewport"/>
          <g id="layout::title.3-5-3-5.1" class="viewport">
            <g id="layout::title.3-5-3-5::GRID.VP.284.1" font-size="13.2" stroke="rgb(102,102,102)" font-family="Helvetica, Arial, FreeSans, Liberation Sans, Nimbus Sans L, sans-serif" stroke-opacity="1" font-weight="normal" font-style="normal" class="viewport">
              <g id="layout::title.3-5-3-5::GRID.VP.284::GRID.VP.285.1" class="viewport">
                <g id="title.3-5-3-5.1" class="forcedgrob gTableChild titleGrob gTree grob gDesc">
                  <g id="GRID.text.1179.1" class="text grob gDesc">
                    <g id="GRID.text.1179.1.1" transform="translate(215.53, 469.41)" stroke-width="0.1">
                      <g id="GRID.text.1179.1.1.scale" transform="scale(1, -1)">
                        <text x="0" y="0" id="GRID.text.1179.1.1.text" text-anchor="middle" font-size="13.2" stroke="rgb(102,102,102)" font-family="Helvetica, Arial, FreeSans, Liberation Sans, Nimbus Sans L, sans-serif" fill="rgb(102,102,102)" stroke-opacity="1" fill-opacity="1" font-weight="normal" font-style="normal">
                          <tspan id="GRID.text.1179.1.1.tspan.1" dy="9.33" x="0">anagrafica cdl</tspan>
                        </text>
                      </g>
                    </g>
                  </g>
                </g>
              </g>
            </g>
          </g>
          <g id="layout::caption.10-5-10-5.1" class="viewport"/>
          <g id="layout::tag.2-2-2-2.1" class="viewport"/>
        </g>
      </g>
    </g>
  </g>
</svg>