<?xml version="1.0" encoding="UTF-8"?>
<svg xmlns="http://www.w3.org/2000/svg" xmlns:xlink="http://www.w3.org/1999/xlink" width="504px" height="504px" viewBox="0 0 504 504" version="1.1">
  <metadata xmlns:gridsvg="http://www.stat.auckland.ac.nz/~paul/R/gridSVG/">
    <gridsvg:generator name="gridSVG" version="1.6-0" time="2019-01-18 19:07:13"/>
    <gridsvg:argument name="name" value="./latest_informaggio_csv/anziani/risultati/svg/anagrafica-sicurezza.svg"/>
    <gridsvg:argument name="exportCoords" value="none"/>
    <gridsvg:argument name="exportMappings" value="none"/>
    <gridsvg:argument name="exportJS" value="none"/>
    <gridsvg:argument name="res" value="72"/>
    <gridsvg:argument name="prefix" value=""/>
    <gridsvg:argument name="addClasses" value="TRUE"/>
    <gridsvg:argument name="indent" value="TRUE"/>
    <gridsvg:argument name="htmlWrapper" value="FALSE"/>
    <gridsvg:argument name="usePaths" value="vpPaths"/>
    <gridsvg:argument name="uniqueNames" value="TRUE"/>
    <gridsvg:separator name="id.sep" value="."/>
    <gridsvg:separator name="gPath.sep" value="::"/>
    <gridsvg:separator name="vpPath.sep" value="::"/>
  </metadata>
  <g transform="translate(0, 504) scale(1, -1)">
    <g id="gridSVG" fill="none" stroke="rgb(0,0,0)" stroke-dasharray="none" stroke-width="0.75" font-size="12" font-family="Helvetica, Arial, FreeSans, Liberation Sans, Nimbus Sans L, sans-serif" opacity="1" stroke-linecap="round" stroke-linejoin="round" stroke-miterlimit="10" stroke-opacity="1" fill-opacity="0" font-weight="normal" font-style="normal">
      <g id="layout.1" class="viewport">
        <g id="layout.2" class="forcedgrob gtable gTree grob gDesc">
          <defs>
            <clipPath id="layout::background.1-11-12-1.1.clipPath">
              <rect x="0" y="38.42" width="504" height="427.16" fill="none" stroke="none"/>
            </clipPath>
          </defs>
          <g id="layout::background.1-11-12-1.1" clip-path="url(#layout::background.1-11-12-1.1.clipPath)" class="viewport">
            <g id="background.1-11-12-1.1" class="forcedgrob gTableChild rect grob gDesc">
              <rect id="background.1-11-12-1.1.1" x="0" y="38.42" width="504" height="427.16" transform="" stroke-width="1.07" stroke="rgb(255,255,255)" fill="rgb(255,255,255)" stroke-dasharray="none" stroke-opacity="1" fill-opacity="1"/>
            </g>
          </g>
          <defs>
            <clipPath id="layout::panel.7-5-7-5.1.clipPath">
              <rect x="8.22" y="46.64" width="396.01" height="396.01" fill="none" stroke="none"/>
            </clipPath>
          </defs>
          <g id="layout::panel.7-5-7-5.1" clip-path="url(#layout::panel.7-5-7-5.1.clipPath)" class="viewport">
            <g id="panel.7-5-7-5.1" class="forcedgrob gTableChild gTree grob gDesc">
              <g id="grill.gTree.2817.1" class="gTree grob gDesc">
                <g id="panel.background..rect.2813.1" class="rect grob gDesc">
                  <rect id="panel.background..rect.2813.1.1" x="8.22" y="46.64" width="396.01" height="396.01" transform="" stroke-width="1.07" stroke="none" fill="rgb(255,255,255)" stroke-dasharray="none" stroke-opacity="0" fill-opacity="1"/>
                </g>
              </g>
              <g id="bar.gTree.2806.1" class="gTree grob gDesc">
                <g id="geom_polygon.polygon.2798.1" class="polygon grob gDesc">
                  <polygon id="geom_polygon.polygon.2798.1.1" points="206.22,244.64 204.86,239.35 203.51,234.06 202.15,228.77 200.79,223.48 199.43,218.19 198.07,212.9 196.71,207.61 195.36,202.32 194,197.03 192.64,191.74 191.28,186.45 189.92,181.16 188.56,175.87 187.21,170.58 185.85,165.28 184.49,159.99 183.13,154.7 181.77,149.41 180.41,144.12 179.06,138.83 177.7,133.54 176.34,128.25 174.98,122.96 173.62,117.67 172.26,112.38 170.9,107.09 169.55,101.8 168.19,96.51 166.83,91.22 172.06,89.97 177.32,88.9 182.62,88.01 187.95,87.3 193.3,86.77 198.66,86.42 204.03,86.26 209.41,86.27 214.78,86.47 220.14,86.85 225.48,87.42 230.81,88.16 236.1,89.08 241.36,90.19 246.58,91.47 251.75,92.92 256.87,94.56 261.93,96.36 266.93,98.34 271.86,100.48 276.71,102.79 281.49,105.26 286.17,107.9 290.76,110.69 295.26,113.63 299.65,116.73 303.94,119.97 308.11,123.36 312.17,126.88 316.1,130.54 319.91,134.34 323.58,138.26 327.12,142.3 330.53,146.46 333.79,150.73 336.9,155.11 339.86,159.6 342.67,164.18 345.32,168.86 347.81,173.62 350.14,178.46 352.3,183.38 354.29,188.37 356.12,193.43 357.77,198.54 359.25,203.71 360.55,208.92 361.67,214.18 362.61,219.47 363.38,224.79 363.96,230.13 364.36,235.49 364.58,240.86 364.62,246.24 364.47,251.61 364.15,256.97 363.64,262.32 362.95,267.65 362.07,272.96 361.02,278.23 359.8,283.46 358.39,288.64 356.81,293.78 355.06,298.86 353.13,303.88 351.04,308.83 348.78,313.7 346.35,318.5 343.77,323.21 341.02,327.83 338.12,332.36 335.07,336.78 331.87,341.1 328.53,345.31 325.04,349.4 321.42,353.37 317.67,357.21 313.78,360.93 309.78,364.51 305.65,367.95 301.41,371.26 297.06,374.41 292.61,377.42 288.05,380.27 283.4,382.97 278.67,385.51 273.85,387.89 268.95,390.1 263.98,392.14 258.94,394.02 253.84,395.72 248.69,397.25 243.49,398.6 238.25,399.77 232.97,400.77 227.65,401.59 222.32,402.23 216.96,402.68 211.6,402.95 206.22,403.05 206.22,397.58 206.22,392.12 206.22,386.66 206.22,381.2 206.22,375.74 206.22,370.27 206.22,364.81 206.22,359.35 206.22,353.89 206.22,348.42 206.22,342.96 206.22,337.5 206.22,332.04 206.22,326.58 206.22,321.11 206.22,315.65 206.22,310.19 206.22,304.73 206.22,299.26 206.22,293.8 206.22,288.34 206.22,282.88 206.22,277.42 206.22,271.95 206.22,266.49 206.22,261.03 206.22,255.57 206.22,250.11 206.22,244.64 206.22,244.64" stroke="none" fill="rgb(199,124,255)" stroke-width="1.07" stroke-dasharray="none" stroke-opacity="0" fill-opacity="1"/>
                </g>
                <g id="geom_polygon.polygon.2800.1" class="polygon grob gDesc">
                  <polygon id="geom_polygon.polygon.2800.1.1" points="206.22,244.64 201.61,247.57 197,250.5 192.39,253.42 187.78,256.35 183.16,259.28 178.55,262.2 173.94,265.13 169.33,268.06 164.72,270.98 160.1,273.91 155.49,276.84 150.88,279.76 146.27,282.69 141.66,285.62 137.04,288.54 132.43,291.47 127.82,294.4 123.21,297.33 118.6,300.25 113.99,303.18 109.37,306.11 104.76,309.03 100.15,311.96 95.54,314.89 90.93,317.81 86.31,320.74 81.7,323.67 77.09,326.59 72.48,329.52 69.65,324.89 66.98,320.16 64.47,315.34 62.13,310.45 59.96,305.47 57.97,300.42 56.14,295.31 54.49,290.14 53.02,284.91 51.73,279.64 50.63,274.32 49.7,268.98 48.96,263.6 48.4,258.2 48.03,252.78 47.84,247.36 47.84,241.93 48.03,236.5 48.4,231.09 48.96,225.69 49.7,220.31 50.63,214.96 51.73,209.65 53.02,204.37 54.49,199.15 56.14,193.98 57.97,188.86 59.96,183.82 62.13,178.84 64.47,173.94 66.98,169.13 69.65,164.4 72.48,159.77 75.47,155.23 78.61,150.81 81.9,146.49 85.33,142.29 88.91,138.2 92.63,134.25 96.48,130.42 100.45,126.73 104.56,123.17 108.78,119.76 113.12,116.49 117.56,113.38 122.11,110.42 126.76,107.61 131.5,104.97 136.33,102.49 141.24,100.18 146.23,98.04 151.29,96.07 156.41,94.28 161.6,92.66 166.83,91.22 168.19,96.51 169.55,101.8 170.9,107.09 172.26,112.38 173.62,117.67 174.98,122.96 176.34,128.25 177.7,133.54 179.06,138.83 180.41,144.12 181.77,149.41 183.13,154.7 184.49,159.99 185.85,165.28 187.21,170.58 188.56,175.87 189.92,181.16 191.28,186.45 192.64,191.74 194,197.03 195.36,202.32 196.71,207.61 198.07,212.9 199.43,218.19 200.79,223.48 202.15,228.77 203.51,234.06 204.86,239.35 206.22,244.64 206.22,244.64" stroke="none" fill="rgb(0,191,196)" stroke-width="1.07" stroke-dasharray="none" stroke-opacity="0" fill-opacity="1"/>
                </g>
                <g id="geom_polygon.polygon.2802.1" class="polygon grob gDesc">
                  <polygon id="geom_polygon.polygon.2802.1.1" points="206.22,244.64 204.21,249.72 202.2,254.8 200.19,259.88 198.18,264.96 196.17,270.04 194.16,275.11 192.15,280.19 190.14,285.27 188.13,290.35 186.12,295.43 184.1,300.51 182.09,305.59 180.08,310.66 178.07,315.74 176.06,320.82 174.05,325.9 172.04,330.98 170.03,336.06 168.02,341.14 166.01,346.22 164,351.29 161.99,356.37 159.98,361.45 157.96,366.53 155.95,371.61 153.94,376.69 151.93,381.77 149.92,386.84 147.91,391.92 142.81,389.8 137.78,387.5 132.84,385.02 127.98,382.37 123.22,379.56 118.56,376.58 114.01,373.44 109.57,370.14 105.25,366.69 101.05,363.1 96.99,359.35 93.05,355.47 89.25,351.45 85.59,347.31 82.08,343.03 78.73,338.64 75.52,334.14 72.48,329.52 77.09,326.59 81.7,323.67 86.31,320.74 90.93,317.81 95.54,314.89 100.15,311.96 104.76,309.03 109.37,306.11 113.99,303.18 118.6,300.25 123.21,297.33 127.82,294.4 132.43,291.47 137.04,288.54 141.66,285.62 146.27,282.69 150.88,279.76 155.49,276.84 160.1,273.91 164.72,270.98 169.33,268.06 173.94,265.13 178.55,262.2 183.16,259.28 187.78,256.35 192.39,253.42 197,250.5 201.61,247.57 206.22,244.64 206.22,244.64" stroke="none" fill="rgb(124,174,0)" stroke-width="1.07" stroke-dasharray="none" stroke-opacity="0" fill-opacity="1"/>
                </g>
                <g id="geom_polygon.polygon.2804.1" class="polygon grob gDesc">
                  <polygon id="geom_polygon.polygon.2804.1.1" points="206.22,244.64 206.22,250.11 206.22,255.57 206.22,261.03 206.22,266.49 206.22,271.95 206.22,277.42 206.22,282.88 206.22,288.34 206.22,293.8 206.22,299.26 206.22,304.73 206.22,310.19 206.22,315.65 206.22,321.11 206.22,326.58 206.22,332.04 206.22,337.5 206.22,342.96 206.22,348.42 206.22,353.89 206.22,359.35 206.22,364.81 206.22,370.27 206.22,375.74 206.22,381.2 206.22,386.66 206.22,392.12 206.22,397.58 206.22,403.05 200.8,402.95 195.37,402.67 189.97,402.21 184.58,401.56 179.21,400.73 173.88,399.71 168.58,398.51 163.33,397.13 158.13,395.57 152.99,393.83 147.91,391.92 149.92,386.84 151.93,381.77 153.94,376.69 155.95,371.61 157.96,366.53 159.98,361.45 161.99,356.37 164,351.29 166.01,346.22 168.02,341.14 170.03,336.06 172.04,330.98 174.05,325.9 176.06,320.82 178.07,315.74 180.08,310.66 182.09,305.59 184.1,300.51 186.12,295.43 188.13,290.35 190.14,285.27 192.15,280.19 194.16,275.11 196.17,270.04 198.18,264.96 200.19,259.88 202.2,254.8 204.21,249.72 206.22,244.64 206.22,244.64" stroke="none" fill="rgb(248,118,109)" stroke-width="1.07" stroke-dasharray="none" stroke-opacity="0" fill-opacity="1"/>
                </g>
              </g>
              <g id="GRID.text.2807.1" class="text grob gDesc">
                <g id="GRID.text.2807.1.1" transform="translate(284.8, 234.72)" stroke-width="0.1">
                  <g id="GRID.text.2807.1.1.scale" transform="scale(1, -1)">
                    <text x="0" y="0" id="GRID.text.2807.1.1.text" text-anchor="middle" stroke="rgb(0,0,0)" font-size="11.04" font-family="Helvetica, Arial, FreeSans, Liberation Sans, Nimbus Sans L, sans-serif" fill="rgb(0,0,0)" stroke-opacity="1" fill-opacity="1" font-weight="normal" font-style="normal">
                      <tspan id="GRID.text.2807.1.1.tspan.1" dy="3.95" x="0">27</tspan>
                    </text>
                  </g>
                </g>
                <g id="GRID.text.2807.1.2" transform="translate(132.58, 215.49)" stroke-width="0.1">
                  <g id="GRID.text.2807.1.2.scale" transform="scale(1, -1)">
                    <text x="0" y="0" id="GRID.text.2807.1.2.text" text-anchor="middle" stroke="rgb(0,0,0)" font-size="11.04" font-family="Helvetica, Arial, FreeSans, Liberation Sans, Nimbus Sans L, sans-serif" fill="rgb(0,0,0)" stroke-opacity="1" fill-opacity="1" font-weight="normal" font-style="normal">
                      <tspan id="GRID.text.2807.1.2.tspan.1" dy="3.95" x="0">15</tspan>
                    </text>
                  </g>
                </g>
                <g id="GRID.text.2807.1.3" transform="translate(155.74, 305.67)" stroke-width="0.1">
                  <g id="GRID.text.2807.1.3.scale" transform="scale(1, -1)">
                    <text x="0" y="0" id="GRID.text.2807.1.3.text" text-anchor="middle" stroke="rgb(0,0,0)" font-size="11.04" font-family="Helvetica, Arial, FreeSans, Liberation Sans, Nimbus Sans L, sans-serif" fill="rgb(0,0,0)" stroke-opacity="1" fill-opacity="1" font-weight="normal" font-style="normal">
                      <tspan id="GRID.text.2807.1.3.tspan.1" dy="3.95" x="0">5</tspan>
                    </text>
                  </g>
                </g>
                <g id="GRID.text.2807.1.4" transform="translate(191.38, 322.44)" stroke-width="0.1">
                  <g id="GRID.text.2807.1.4.scale" transform="scale(1, -1)">
                    <text x="0" y="0" id="GRID.text.2807.1.4.text" text-anchor="middle" stroke="rgb(0,0,0)" font-size="11.04" font-family="Helvetica, Arial, FreeSans, Liberation Sans, Nimbus Sans L, sans-serif" fill="rgb(0,0,0)" stroke-opacity="1" fill-opacity="1" font-weight="normal" font-style="normal">
                      <tspan id="GRID.text.2807.1.4.tspan.1" dy="3.95" x="0">3</tspan>
                    </text>
                  </g>
                </g>
              </g>
              <g id="GRID.gTree.2808.1" class="gTree grob gDesc"/>
            </g>
          </g>
          <g id="layout::spacer.8-6-8-6.1" class="viewport"/>
          <g id="layout::spacer.8-4-8-4.1" class="viewport"/>
          <g id="layout::spacer.6-6-6-6.1" class="viewport"/>
          <g id="layout::spacer.6-4-6-4.1" class="viewport"/>
          <g id="layout::axis-t.6-5-6-5.1" class="viewport"/>
          <g id="layout::axis-l.7-4-7-4.1" class="viewport">
            <g id="layout::axis-l.7-4-7-4::GRID.VP.650.1" class="viewport">
              <g id="axis-l.7-4-7-4.1" class="forcedgrob gTableChild absoluteGrob gTree grob gDesc">
                <g id="layout::axis-l.7-4-7-4::GRID.VP.650::axis.1" class="viewport">
                  <g id="axis.1" class="forcedgrob gtable gTree grob gDesc">
                    <g id="layout::axis-l.7-4-7-4::GRID.VP.650::axis::axis.1-1-1-1.1" class="viewport"/>
                    <g id="layout::axis-l.7-4-7-4::GRID.VP.650::axis::axis.1-2-1-2.1" class="viewport"/>
                  </g>
                </g>
              </g>
            </g>
          </g>
          <g id="layout::axis-r.7-6-7-6.1" class="viewport"/>
          <g id="layout::axis-b.8-5-8-5.1" class="viewport">
            <g id="layout::axis-b.8-5-8-5::GRID.VP.649.1" class="viewport">
              <g id="axis-b.8-5-8-5.1" class="forcedgrob gTableChild absoluteGrob gTree grob gDesc">
                <g id="layout::axis-b.8-5-8-5::GRID.VP.649::axis.1" class="viewport">
                  <g id="axis.2" class="forcedgrob gtable gTree grob gDesc">
                    <g id="layout::axis-b.8-5-8-5::GRID.VP.649::axis::axis.1-1-1-1.1" class="viewport"/>
                    <g id="layout::axis-b.8-5-8-5::GRID.VP.649::axis::axis.2-1-2-1.1" class="viewport"/>
                  </g>
                </g>
              </g>
            </g>
          </g>
          <g id="layout::xlab-t.5-5-5-5.1" class="viewport"/>
          <g id="layout::xlab-b.9-5-9-5.1" class="viewport"/>
          <g id="layout::ylab-l.7-3-7-3.1" class="viewport"/>
          <g id="layout::ylab-r.7-7-7-7.1" class="viewport"/>
          <g id="layout::guide-box.7-9-7-9.1" class="viewport">
            <g id="layout::guide-box.7-9-7-9::GRID.VP.664.1" class="viewport">
              <g id="layout::guide-box.7-9-7-9::GRID.VP.664::guide-box.7-9-7-9.1" class="viewport">
                <g id="guide-box.7-9-7-9.1" class="forcedgrob gTableChild gtable gTree grob gDesc">
                  <g id="layout::guide-box.7-9-7-9::GRID.VP.664::guide-box.7-9-7-9::legend.box.background.2-4-4-2.1" class="viewport"/>
                  <g id="layout::guide-box.7-9-7-9::GRID.VP.664::guide-box.7-9-7-9::guides.3-3-3-3.1" class="viewport">
                    <g id="layout::guide-box.7-9-7-9::GRID.VP.664::guide-box.7-9-7-9::guides.3-3-3-3::GRID.VP.663.1" class="viewport">
                      <g id="layout::guide-box.7-9-7-9::GRID.VP.664::guide-box.7-9-7-9::guides.3-3-3-3::GRID.VP.663::guides.3-3-3-3.1" class="viewport">
                        <g id="guides.3-3-3-3.1" class="forcedgrob gTableChild gtable gTree grob gDesc">
                          <g id="layout::guide-box.7-9-7-9::GRID.VP.664::guide-box.7-9-7-9::guides.3-3-3-3::GRID.VP.663::guides.3-3-3-3::background.1-6-8-1.1" class="viewport">
                            <g id="background.1-6-8-1.1" class="forcedgrob gTableChild rect grob gDesc">
                              <rect id="background.1-6-8-1.1.1" x="415.19" y="201.86" width="83.34" height="85.56" transform="" stroke-width="1.07" stroke="none" fill="rgb(255,255,255)" stroke-dasharray="none" stroke-opacity="0" fill-opacity="1"/>
                            </g>
                          </g>
                          <g id="layout::guide-box.7-9-7-9::GRID.VP.664::guide-box.7-9-7-9::guides.3-3-3-3::GRID.VP.663::guides.3-3-3-3::title.2-5-2-2.1" class="viewport"/>
                          <g id="layout::guide-box.7-9-7-9::GRID.VP.664::guide-box.7-9-7-9::guides.3-3-3-3::GRID.VP.663::guides.3-3-3-3::key-3-1-bg.4-2-4-2.1" class="viewport"/>
                          <g id="layout::guide-box.7-9-7-9::GRID.VP.664::guide-box.7-9-7-9::guides.3-3-3-3::GRID.VP.663::guides.3-3-3-3::key-3-1-1.4-2-4-2.1" class="viewport">
                            <g id="key-3-1-1.4-2-4-2.1" class="forcedgrob gTableChild rect grob gDesc">
                              <rect id="key-3-1-1.4-2-4-2.1.1" x="421.37" y="259.89" width="15.86" height="15.86" transform="" stroke="none" fill="rgb(248,118,109)" stroke-dasharray="none" stroke-width="1.07" stroke-linejoin="miter" stroke-opacity="0" fill-opacity="1"/>
                            </g>
                          </g>
                          <g id="layout::guide-box.7-9-7-9::GRID.VP.664::guide-box.7-9-7-9::guides.3-3-3-3::GRID.VP.663::guides.3-3-3-3::key-4-1-bg.5-2-5-2.1" class="viewport"/>
                          <g id="layout::guide-box.7-9-7-9::GRID.VP.664::guide-box.7-9-7-9::guides.3-3-3-3::GRID.VP.663::guides.3-3-3-3::key-4-1-1.5-2-5-2.1" class="viewport">
                            <g id="key-4-1-1.5-2-5-2.1" class="forcedgrob gTableChild rect grob gDesc">
                              <rect id="key-4-1-1.5-2-5-2.1.1" x="421.37" y="242.61" width="15.86" height="15.86" transform="" stroke="none" fill="rgb(124,174,0)" stroke-dasharray="none" stroke-width="1.07" stroke-linejoin="miter" stroke-opacity="0" fill-opacity="1"/>
                            </g>
                          </g>
                          <g id="layout::guide-box.7-9-7-9::GRID.VP.664::guide-box.7-9-7-9::guides.3-3-3-3::GRID.VP.663::guides.3-3-3-3::key-5-1-bg.6-2-6-2.1" class="viewport"/>
                          <g id="layout::guide-box.7-9-7-9::GRID.VP.664::guide-box.7-9-7-9::guides.3-3-3-3::GRID.VP.663::guides.3-3-3-3::key-5-1-1.6-2-6-2.1" class="viewport">
                            <g id="key-5-1-1.6-2-6-2.1" class="forcedgrob gTableChild rect grob gDesc">
                              <rect id="key-5-1-1.6-2-6-2.1.1" x="421.37" y="225.33" width="15.86" height="15.86" transform="" stroke="none" fill="rgb(0,191,196)" stroke-dasharray="none" stroke-width="1.07" stroke-linejoin="miter" stroke-opacity="0" fill-opacity="1"/>
                            </g>
                          </g>
                          <g id="layout::guide-box.7-9-7-9::GRID.VP.664::guide-box.7-9-7-9::guides.3-3-3-3::GRID.VP.663::guides.3-3-3-3::key-6-1-bg.7-2-7-2.1" class="viewport"/>
                          <g id="layout::guide-box.7-9-7-9::GRID.VP.664::guide-box.7-9-7-9::guides.3-3-3-3::GRID.VP.663::guides.3-3-3-3::key-6-1-1.7-2-7-2.1" class="viewport">
                            <g id="key-6-1-1.7-2-7-2.1" class="forcedgrob gTableChild rect grob gDesc">
                              <rect id="key-6-1-1.7-2-7-2.1.1" x="421.37" y="208.05" width="15.86" height="15.86" transform="" stroke="none" fill="rgb(199,124,255)" stroke-dasharray="none" stroke-width="1.07" stroke-linejoin="miter" stroke-opacity="0" fill-opacity="1"/>
                            </g>
                          </g>
                          <g id="layout::guide-box.7-9-7-9::GRID.VP.664::guide-box.7-9-7-9::guides.3-3-3-3::GRID.VP.663::guides.3-3-3-3::label-3-3.4-4-4-4.1" class="viewport">
                            <g id="layout::guide-box.7-9-7-9::GRID.VP.664::guide-box.7-9-7-9::guides.3-3-3-3::GRID.VP.663::guides.3-3-3-3::label-3-3.4-4-4-4::GRID.VP.659.1" class="viewport">
                              <g id="label-3-3.4-4-4-4.1" class="forcedgrob gTableChild gTree grob gDesc">
                                <g id="layout::guide-box.7-9-7-9::GRID.VP.664::guide-box.7-9-7-9::guides.3-3-3-3::GRID.VP.663::guides.3-3-3-3::label-3-3.4-4-4-4::GRID.VP.659::GRID.VP.651.1" font-size="8.8" stroke="rgb(0,0,0)" font-family="Helvetica, Arial, FreeSans, Liberation Sans, Nimbus Sans L, sans-serif" stroke-opacity="1" font-weight="normal" font-style="normal" class="viewport">
                                  <g id="layout::guide-box.7-9-7-9::GRID.VP.664::guide-box.7-9-7-9::guides.3-3-3-3::GRID.VP.663::guides.3-3-3-3::label-3-3.4-4-4-4::GRID.VP.659::GRID.VP.651::GRID.VP.652.1" class="viewport">
                                    <g id="guide.label.titleGrob.2831.1" class="titleGrob gTree grob gDesc">
                                      <g id="GRID.text.2829.1" class="text grob gDesc">
                                        <g id="GRID.text.2829.1.1" transform="translate(443.42, 267.82)" stroke-width="0.1">
                                          <g id="GRID.text.2829.1.1.scale" transform="scale(1, -1)">
                                            <text x="0" y="0" id="GRID.text.2829.1.1.text" text-anchor="start" font-size="8.8" stroke="rgb(0,0,0)" font-family="Helvetica, Arial, FreeSans, Liberation Sans, Nimbus Sans L, sans-serif" fill="rgb(0,0,0)" stroke-opacity="1" fill-opacity="1" font-weight="normal" font-style="normal">
                                              <tspan id="GRID.text.2829.1.1.tspan.1" dy="3.23" x="0">tutto (3)</tspan>
                                            </text>
                                          </g>
                                        </g>
                                      </g>
                                    </g>
                                  </g>
                                </g>
                              </g>
                            </g>
                          </g>
                          <g id="layout::guide-box.7-9-7-9::GRID.VP.664::guide-box.7-9-7-9::guides.3-3-3-3::GRID.VP.663::guides.3-3-3-3::label-4-3.5-4-5-4.1" class="viewport">
                            <g id="layout::guide-box.7-9-7-9::GRID.VP.664::guide-box.7-9-7-9::guides.3-3-3-3::GRID.VP.663::guides.3-3-3-3::label-4-3.5-4-5-4::GRID.VP.660.1" class="viewport">
                              <g id="label-4-3.5-4-5-4.1" class="forcedgrob gTableChild gTree grob gDesc">
                                <g id="layout::guide-box.7-9-7-9::GRID.VP.664::guide-box.7-9-7-9::guides.3-3-3-3::GRID.VP.663::guides.3-3-3-3::label-4-3.5-4-5-4::GRID.VP.660::GRID.VP.653.1" font-size="8.8" stroke="rgb(0,0,0)" font-family="Helvetica, Arial, FreeSans, Liberation Sans, Nimbus Sans L, sans-serif" stroke-opacity="1" font-weight="normal" font-style="normal" class="viewport">
                                  <g id="layout::guide-box.7-9-7-9::GRID.VP.664::guide-box.7-9-7-9::guides.3-3-3-3::GRID.VP.663::guides.3-3-3-3::label-4-3.5-4-5-4::GRID.VP.660::GRID.VP.653::GRID.VP.654.1" class="viewport">
                                    <g id="guide.label.titleGrob.2834.1" class="titleGrob gTree grob gDesc">
                                      <g id="GRID.text.2832.1" class="text grob gDesc">
                                        <g id="GRID.text.2832.1.1" transform="translate(443.42, 250.54)" stroke-width="0.1">
                                          <g id="GRID.text.2832.1.1.scale" transform="scale(1, -1)">
                                            <text x="0" y="0" id="GRID.text.2832.1.1.text" text-anchor="start" font-size="8.8" stroke="rgb(0,0,0)" font-family="Helvetica, Arial, FreeSans, Liberation Sans, Nimbus Sans L, sans-serif" fill="rgb(0,0,0)" stroke-opacity="1" fill-opacity="1" font-weight="normal" font-style="normal">
                                              <tspan id="GRID.text.2832.1.1.tspan.1" dy="3.23" x="0">avanzato (5)</tspan>
                                            </text>
                                          </g>
                                        </g>
                                      </g>
                                    </g>
                                  </g>
                                </g>
                              </g>
                            </g>
                          </g>
                          <g id="layout::guide-box.7-9-7-9::GRID.VP.664::guide-box.7-9-7-9::guides.3-3-3-3::GRID.VP.663::guides.3-3-3-3::label-5-3.6-4-6-4.1" class="viewport">
                            <g id="layout::guide-box.7-9-7-9::GRID.VP.664::guide-box.7-9-7-9::guides.3-3-3-3::GRID.VP.663::guides.3-3-3-3::label-5-3.6-4-6-4::GRID.VP.661.1" class="viewport">
                              <g id="label-5-3.6-4-6-4.1" class="forcedgrob gTableChild gTree grob gDesc">
                                <g id="layout::guide-box.7-9-7-9::GRID.VP.664::guide-box.7-9-7-9::guides.3-3-3-3::GRID.VP.663::guides.3-3-3-3::label-5-3.6-4-6-4::GRID.VP.661::GRID.VP.655.1" font-size="8.8" stroke="rgb(0,0,0)" font-family="Helvetica, Arial, FreeSans, Liberation Sans, Nimbus Sans L, sans-serif" stroke-opacity="1" font-weight="normal" font-style="normal" class="viewport">
                                  <g id="layout::guide-box.7-9-7-9::GRID.VP.664::guide-box.7-9-7-9::guides.3-3-3-3::GRID.VP.663::guides.3-3-3-3::label-5-3.6-4-6-4::GRID.VP.661::GRID.VP.655::GRID.VP.656.1" class="viewport">
                                    <g id="guide.label.titleGrob.2837.1" class="titleGrob gTree grob gDesc">
                                      <g id="GRID.text.2835.1" class="text grob gDesc">
                                        <g id="GRID.text.2835.1.1" transform="translate(443.42, 233.26)" stroke-width="0.1">
                                          <g id="GRID.text.2835.1.1.scale" transform="scale(1, -1)">
                                            <text x="0" y="0" id="GRID.text.2835.1.1.text" text-anchor="start" font-size="8.8" stroke="rgb(0,0,0)" font-family="Helvetica, Arial, FreeSans, Liberation Sans, Nimbus Sans L, sans-serif" fill="rgb(0,0,0)" stroke-opacity="1" fill-opacity="1" font-weight="normal" font-style="normal">
                                              <tspan id="GRID.text.2835.1.1.tspan.1" dy="3.23" x="0">base (15)</tspan>
                                            </text>
                                          </g>
                                        </g>
                                      </g>
                                    </g>
                                  </g>
                                </g>
                              </g>
                            </g>
                          </g>
                          <g id="layout::guide-box.7-9-7-9::GRID.VP.664::guide-box.7-9-7-9::guides.3-3-3-3::GRID.VP.663::guides.3-3-3-3::label-6-3.7-4-7-4.1" class="viewport">
                            <g id="layout::guide-box.7-9-7-9::GRID.VP.664::guide-box.7-9-7-9::guides.3-3-3-3::GRID.VP.663::guides.3-3-3-3::label-6-3.7-4-7-4::GRID.VP.662.1" class="viewport">
                              <g id="label-6-3.7-4-7-4.1" class="forcedgrob gTableChild gTree grob gDesc">
                                <g id="layout::guide-box.7-9-7-9::GRID.VP.664::guide-box.7-9-7-9::guides.3-3-3-3::GRID.VP.663::guides.3-3-3-3::label-6-3.7-4-7-4::GRID.VP.662::GRID.VP.657.1" font-size="8.8" stroke="rgb(0,0,0)" font-family="Helvetica, Arial, FreeSans, Liberation Sans, Nimbus Sans L, sans-serif" stroke-opacity="1" font-weight="normal" font-style="normal" class="viewport">
                                  <g id="layout::guide-box.7-9-7-9::GRID.VP.664::guide-box.7-9-7-9::guides.3-3-3-3::GRID.VP.663::guides.3-3-3-3::label-6-3.7-4-7-4::GRID.VP.662::GRID.VP.657::GRID.VP.658.1" class="viewport">
                                    <g id="guide.label.titleGrob.2840.1" class="titleGrob gTree grob gDesc">
                                      <g id="GRID.text.2838.1" class="text grob gDesc">
                                        <g id="GRID.text.2838.1.1" transform="translate(443.42, 215.98)" stroke-width="0.1">
                                          <g id="GRID.text.2838.1.1.scale" transform="scale(1, -1)">
                                            <text x="0" y="0" id="GRID.text.2838.1.1.text" text-anchor="start" font-size="8.8" stroke="rgb(0,0,0)" font-family="Helvetica, Arial, FreeSans, Liberation Sans, Nimbus Sans L, sans-serif" fill="rgb(0,0,0)" stroke-opacity="1" fill-opacity="1" font-weight="normal" font-style="normal">
                                              <tspan id="GRID.text.2838.1.1.tspan.1" dy="3.23" x="0">medio (27)</tspan>
                                            </text>
                                          </g>
                                        </g>
                                      </g>
                                    </g>
                                  </g>
                                </g>
                              </g>
                            </g>
                          </g>
                        </g>
                      </g>
                    </g>
                  </g>
                </g>
              </g>
            </g>
          </g>
          <g id="layout::subtitle.4-5-4-5.1" class="viewport"/>
          <g id="layout::title.3-5-3-5.1" class="viewport">
            <g id="layout::title.3-5-3-5::GRID.VP.665.1" font-size="13.2" stroke="rgb(102,102,102)" font-family="Helvetica, Arial, FreeSans, Liberation Sans, Nimbus Sans L, sans-serif" stroke-opacity="1" font-weight="normal" font-style="normal" class="viewport">
              <g id="layout::title.3-5-3-5::GRID.VP.665::GRID.VP.666.1" class="viewport">
                <g id="title.3-5-3-5.1" class="forcedgrob gTableChild titleGrob gTree grob gDesc">
                  <g id="GRID.text.2855.1" class="text grob gDesc">
                    <g id="GRID.text.2855.1.1" transform="translate(206.22, 460.1)" stroke-width="0.1">
                      <g id="GRID.text.2855.1.1.scale" transform="scale(1, -1)">
                        <text x="0" y="0" id="GRID.text.2855.1.1.text" text-anchor="middle" font-size="13.2" stroke="rgb(102,102,102)" font-family="Helvetica, Arial, FreeSans, Liberation Sans, Nimbus Sans L, sans-serif" fill="rgb(102,102,102)" stroke-opacity="1" fill-opacity="1" font-weight="normal" font-style="normal">
                          <tspan id="GRID.text.2855.1.1.tspan.1" dy="9.33" x="0">anagrafica sicurezza</tspan>
                        </text>
                      </g>
                    </g>
                  </g>
                </g>
              </g>
            </g>
          </g>
          <g id="layout::caption.10-5-10-5.1" class="viewport"/>
          <g id="layout::tag.2-2-2-2.1" class="viewport"/>
        </g>
      </g>
    </g>
  </g>
</svg>