<?xml version="1.0" encoding="UTF-8"?>
<svg xmlns="http://www.w3.org/2000/svg" xmlns:xlink="http://www.w3.org/1999/xlink" width="504px" height="504px" viewBox="0 0 504 504" version="1.1">
  <metadata xmlns:gridsvg="http://www.stat.auckland.ac.nz/~paul/R/gridSVG/">
    <gridsvg:generator name="gridSVG" version="1.6-0" time="2019-01-18 23:17:46"/>
    <gridsvg:argument name="name" value="./latest_informaggio_csv/anziani/risultati/svg/anagrafica-sostituzionehardware.svg"/>
    <gridsvg:argument name="exportCoords" value="none"/>
    <gridsvg:argument name="exportMappings" value="none"/>
    <gridsvg:argument name="exportJS" value="none"/>
    <gridsvg:argument name="res" value="72"/>
    <gridsvg:argument name="prefix" value=""/>
    <gridsvg:argument name="addClasses" value="TRUE"/>
    <gridsvg:argument name="indent" value="TRUE"/>
    <gridsvg:argument name="htmlWrapper" value="FALSE"/>
    <gridsvg:argument name="usePaths" value="vpPaths"/>
    <gridsvg:argument name="uniqueNames" value="TRUE"/>
    <gridsvg:separator name="id.sep" value="."/>
    <gridsvg:separator name="gPath.sep" value="::"/>
    <gridsvg:separator name="vpPath.sep" value="::"/>
  </metadata>
  <g transform="translate(0, 504) scale(1, -1)">
    <g id="gridSVG" fill="none" stroke="rgb(0,0,0)" stroke-dasharray="none" stroke-width="0.75" font-size="12" font-family="Helvetica, Arial, FreeSans, Liberation Sans, Nimbus Sans L, sans-serif" opacity="1" stroke-linecap="round" stroke-linejoin="round" stroke-miterlimit="10" stroke-opacity="1" fill-opacity="0" font-weight="normal" font-style="normal">
      <g id="layout.1" class="viewport">
        <g id="layout.2" class="forcedgrob gtable gTree grob gDesc">
          <defs>
            <clipPath id="layout::background.1-11-12-1.1.clipPath">
              <rect x="0" y="26.11" width="504" height="451.77" fill="none" stroke="none"/>
            </clipPath>
          </defs>
          <g id="layout::background.1-11-12-1.1" clip-path="url(#layout::background.1-11-12-1.1.clipPath)" class="viewport">
            <g id="background.1-11-12-1.1" class="forcedgrob gTableChild rect grob gDesc">
              <rect id="background.1-11-12-1.1.1" x="0" y="26.11" width="504" height="451.77" transform="" stroke-width="1.07" stroke="rgb(255,255,255)" fill="rgb(255,255,255)" stroke-dasharray="none" stroke-opacity="1" fill-opacity="1"/>
            </g>
          </g>
          <defs>
            <clipPath id="layout::panel.7-5-7-5.1.clipPath">
              <rect x="8.22" y="34.33" width="420.62" height="420.62" fill="none" stroke="none"/>
            </clipPath>
          </defs>
          <g id="layout::panel.7-5-7-5.1" clip-path="url(#layout::panel.7-5-7-5.1.clipPath)" class="viewport">
            <g id="panel.7-5-7-5.1" class="forcedgrob gTableChild gTree grob gDesc">
              <g id="grill.gTree.2894.1" class="gTree grob gDesc">
                <g id="panel.background..rect.2890.1" class="rect grob gDesc">
                  <rect id="panel.background..rect.2890.1.1" x="8.22" y="34.33" width="420.62" height="420.62" transform="" stroke-width="1.07" stroke="none" fill="rgb(255,255,255)" stroke-dasharray="none" stroke-opacity="0" fill-opacity="1"/>
                </g>
              </g>
              <g id="bar.gTree.2883.1" class="gTree grob gDesc">
                <g id="geom_polygon.polygon.2879.1" class="polygon grob gDesc">
                  <polygon id="geom_polygon.polygon.2879.1.1" points="218.53,244.64 217.8,238.89 217.08,233.13 216.35,227.38 215.62,221.62 214.89,215.86 214.17,210.11 213.44,204.35 212.71,198.6 211.99,192.84 211.26,187.08 210.53,181.33 209.8,175.57 209.08,169.82 208.35,164.06 207.62,158.3 206.9,152.55 206.17,146.79 205.44,141.04 204.71,135.28 203.99,129.52 203.26,123.77 202.53,118.01 201.81,112.26 201.08,106.5 200.35,100.74 199.62,94.99 198.9,89.23 198.17,83.48 197.44,77.72 203.14,77.1 208.85,76.67 214.57,76.44 220.29,76.4 226.02,76.56 231.73,76.91 237.43,77.46 243.11,78.2 248.76,79.13 254.37,80.26 259.95,81.57 265.47,83.07 270.94,84.77 276.35,86.64 281.69,88.7 286.96,90.94 292.15,93.36 297.26,95.95 302.27,98.72 307.19,101.65 312,104.75 316.71,108.01 321.3,111.43 325.78,115.01 330.13,118.73 334.35,122.6 338.43,126.61 342.38,130.76 346.18,135.04 349.84,139.45 353.34,143.98 356.69,148.62 359.88,153.38 362.9,158.24 365.76,163.2 368.44,168.26 370.95,173.41 373.29,178.63 375.45,183.94 377.42,189.31 379.21,194.75 380.82,200.25 382.23,205.79 383.46,211.39 384.5,217.02 385.34,222.68 385.99,228.37 386.45,234.08 386.71,239.8 386.78,245.52 386.65,251.25 386.33,256.97 385.81,262.67 385.1,268.35 384.2,274 383.1,279.62 381.82,285.2 380.34,290.74 378.68,296.22 376.83,301.64 374.8,306.99 372.59,312.27 370.2,317.47 367.63,322.59 364.89,327.62 361.99,332.55 358.91,337.38 355.67,342.11 352.28,346.72 348.73,351.21 345.03,355.58 341.18,359.82 337.19,363.92 333.06,367.89 328.8,371.72 324.41,375.4 319.9,378.92 315.27,382.3 310.53,385.51 305.69,388.56 300.74,391.44 295.7,394.15 290.57,396.69 285.35,399.05 280.06,401.24 274.69,403.24 269.26,405.06 263.78,406.69 258.24,408.14 252.65,409.4 247.02,410.46 241.36,411.34 235.68,412.02 229.97,412.5 224.26,412.79 218.53,412.89 218.53,407.09 218.53,401.29 218.53,395.49 218.53,389.69 218.53,383.88 218.53,378.08 218.53,372.28 218.53,366.48 218.53,360.68 218.53,354.88 218.53,349.07 218.53,343.27 218.53,337.47 218.53,331.67 218.53,325.87 218.53,320.07 218.53,314.26 218.53,308.46 218.53,302.66 218.53,296.86 218.53,291.06 218.53,285.25 218.53,279.45 218.53,273.65 218.53,267.85 218.53,262.05 218.53,256.25 218.53,250.44 218.53,244.64 218.53,244.64" stroke="none" fill="rgb(0,191,196)" stroke-width="1.07" stroke-dasharray="none" stroke-opacity="0" fill-opacity="1"/>
                </g>
                <g id="geom_polygon.polygon.2881.1" class="polygon grob gDesc">
                  <polygon id="geom_polygon.polygon.2881.1.1" points="218.53,244.64 218.53,250.44 218.53,256.25 218.53,262.05 218.53,267.85 218.53,273.65 218.53,279.45 218.53,285.25 218.53,291.06 218.53,296.86 218.53,302.66 218.53,308.46 218.53,314.26 218.53,320.07 218.53,325.87 218.53,331.67 218.53,337.47 218.53,343.27 218.53,349.07 218.53,354.88 218.53,360.68 218.53,366.48 218.53,372.28 218.53,378.08 218.53,383.88 218.53,389.69 218.53,395.49 218.53,401.29 218.53,407.09 218.53,412.89 212.83,412.8 207.14,412.51 201.46,412.02 195.79,411.35 190.16,410.48 184.56,409.43 178.99,408.18 173.48,406.75 168.01,405.13 162.6,403.32 157.26,401.34 151.98,399.17 146.79,396.83 141.67,394.31 136.64,391.62 131.71,388.76 126.88,385.74 122.15,382.55 117.53,379.21 113.03,375.71 108.65,372.06 104.4,368.26 100.28,364.32 96.29,360.25 92.44,356.04 88.74,351.71 85.19,347.25 81.79,342.67 78.55,337.98 75.46,333.19 72.55,328.29 69.8,323.29 67.22,318.21 64.81,313.04 62.58,307.79 60.53,302.47 58.66,297.09 56.98,291.64 55.48,286.14 54.17,280.59 53.04,275 52.11,269.38 51.37,263.73 50.82,258.05 50.46,252.36 50.29,246.66 50.32,240.96 50.54,235.26 50.96,229.58 51.56,223.91 52.36,218.26 53.35,212.65 54.53,207.07 55.9,201.54 57.45,196.05 59.19,190.62 61.11,185.25 63.21,179.96 65.49,174.73 67.95,169.59 70.58,164.53 73.38,159.56 76.35,154.69 79.48,149.93 82.76,145.27 86.21,140.73 89.81,136.3 93.55,132 97.44,127.83 101.47,123.8 105.63,119.9 109.92,116.15 114.33,112.54 118.87,109.09 123.52,105.79 128.28,102.65 133.14,99.67 138.1,96.86 143.15,94.22 148.29,91.76 153.51,89.46 158.81,87.35 164.17,85.42 169.6,83.67 175.08,82.1 180.61,80.72 186.19,79.53 191.8,78.53 197.44,77.72 198.17,83.48 198.9,89.23 199.62,94.99 200.35,100.74 201.08,106.5 201.81,112.26 202.53,118.01 203.26,123.77 203.99,129.52 204.71,135.28 205.44,141.04 206.17,146.79 206.9,152.55 207.62,158.3 208.35,164.06 209.08,169.82 209.8,175.57 210.53,181.33 211.26,187.08 211.99,192.84 212.71,198.6 213.44,204.35 214.17,210.11 214.89,215.86 215.62,221.62 216.35,227.38 217.08,233.13 217.8,238.89 218.53,244.64 218.53,244.64" stroke="none" fill="rgb(248,118,109)" stroke-width="1.07" stroke-dasharray="none" stroke-opacity="0" fill-opacity="1"/>
                </g>
              </g>
              <g id="GRID.text.2884.1" class="text grob gDesc">
                <g id="GRID.text.2884.1.1" transform="translate(302.49, 239.36)" stroke-width="0.1">
                  <g id="GRID.text.2884.1.1.scale" transform="scale(1, -1)">
                    <text x="0" y="0" id="GRID.text.2884.1.1.text" text-anchor="middle" stroke="rgb(0,0,0)" font-size="11.04" font-family="Helvetica, Arial, FreeSans, Liberation Sans, Nimbus Sans L, sans-serif" fill="rgb(0,0,0)" stroke-opacity="1" fill-opacity="1" font-weight="normal" font-style="normal">
                      <tspan id="GRID.text.2884.1.1.tspan.1" dy="3.95" x="0">26</tspan>
                    </text>
                  </g>
                </g>
                <g id="GRID.text.2884.1.2" transform="translate(134.57, 249.93)" stroke-width="0.1">
                  <g id="GRID.text.2884.1.2.scale" transform="scale(1, -1)">
                    <text x="0" y="0" id="GRID.text.2884.1.2.text" text-anchor="middle" stroke="rgb(0,0,0)" font-size="11.04" font-family="Helvetica, Arial, FreeSans, Liberation Sans, Nimbus Sans L, sans-serif" fill="rgb(0,0,0)" stroke-opacity="1" fill-opacity="1" font-weight="normal" font-style="normal">
                      <tspan id="GRID.text.2884.1.2.tspan.1" dy="3.95" x="0">24</tspan>
                    </text>
                  </g>
                </g>
              </g>
              <g id="GRID.gTree.2885.1" class="gTree grob gDesc"/>
            </g>
          </g>
          <g id="layout::spacer.8-6-8-6.1" class="viewport"/>
          <g id="layout::spacer.8-4-8-4.1" class="viewport"/>
          <g id="layout::spacer.6-6-6-6.1" class="viewport"/>
          <g id="layout::spacer.6-4-6-4.1" class="viewport"/>
          <g id="layout::axis-t.6-5-6-5.1" class="viewport"/>
          <g id="layout::axis-l.7-4-7-4.1" class="viewport">
            <g id="layout::axis-l.7-4-7-4::GRID.VP.668.1" class="viewport">
              <g id="axis-l.7-4-7-4.1" class="forcedgrob gTableChild absoluteGrob gTree grob gDesc">
                <g id="layout::axis-l.7-4-7-4::GRID.VP.668::axis.1" class="viewport">
                  <g id="axis.1" class="forcedgrob gtable gTree grob gDesc">
                    <g id="layout::axis-l.7-4-7-4::GRID.VP.668::axis::axis.1-1-1-1.1" class="viewport"/>
                    <g id="layout::axis-l.7-4-7-4::GRID.VP.668::axis::axis.1-2-1-2.1" class="viewport"/>
                  </g>
                </g>
              </g>
            </g>
          </g>
          <g id="layout::axis-r.7-6-7-6.1" class="viewport"/>
          <g id="layout::axis-b.8-5-8-5.1" class="viewport">
            <g id="layout::axis-b.8-5-8-5::GRID.VP.667.1" class="viewport">
              <g id="axis-b.8-5-8-5.1" class="forcedgrob gTableChild absoluteGrob gTree grob gDesc">
                <g id="layout::axis-b.8-5-8-5::GRID.VP.667::axis.1" class="viewport">
                  <g id="axis.2" class="forcedgrob gtable gTree grob gDesc">
                    <g id="layout::axis-b.8-5-8-5::GRID.VP.667::axis::axis.1-1-1-1.1" class="viewport"/>
                    <g id="layout::axis-b.8-5-8-5::GRID.VP.667::axis::axis.2-1-2-1.1" class="viewport"/>
                  </g>
                </g>
              </g>
            </g>
          </g>
          <g id="layout::xlab-t.5-5-5-5.1" class="viewport"/>
          <g id="layout::xlab-b.9-5-9-5.1" class="viewport"/>
          <g id="layout::ylab-l.7-3-7-3.1" class="viewport"/>
          <g id="layout::ylab-r.7-7-7-7.1" class="viewport"/>
          <g id="layout::guide-box.7-9-7-9.1" class="viewport">
            <g id="layout::guide-box.7-9-7-9::GRID.VP.676.1" class="viewport">
              <g id="layout::guide-box.7-9-7-9::GRID.VP.676::guide-box.7-9-7-9.1" class="viewport">
                <g id="guide-box.7-9-7-9.1" class="forcedgrob gTableChild gtable gTree grob gDesc">
                  <g id="layout::guide-box.7-9-7-9::GRID.VP.676::guide-box.7-9-7-9::legend.box.background.2-4-4-2.1" class="viewport"/>
                  <g id="layout::guide-box.7-9-7-9::GRID.VP.676::guide-box.7-9-7-9::guides.3-3-3-3.1" class="viewport">
                    <g id="layout::guide-box.7-9-7-9::GRID.VP.676::guide-box.7-9-7-9::guides.3-3-3-3::GRID.VP.675.1" class="viewport">
                      <g id="layout::guide-box.7-9-7-9::GRID.VP.676::guide-box.7-9-7-9::guides.3-3-3-3::GRID.VP.675::guides.3-3-3-3.1" class="viewport">
                        <g id="guides.3-3-3-3.1" class="forcedgrob gTableChild gtable gTree grob gDesc">
                          <g id="layout::guide-box.7-9-7-9::GRID.VP.676::guide-box.7-9-7-9::guides.3-3-3-3::GRID.VP.675::guides.3-3-3-3::background.1-6-6-1.1" class="viewport">
                            <g id="background.1-6-6-1.1" class="forcedgrob gTableChild rect grob gDesc">
                              <rect id="background.1-6-6-1.1.1" x="439.8" y="219.14" width="58.72" height="51" transform="" stroke-width="1.07" stroke="none" fill="rgb(255,255,255)" stroke-dasharray="none" stroke-opacity="0" fill-opacity="1"/>
                            </g>
                          </g>
                          <g id="layout::guide-box.7-9-7-9::GRID.VP.676::guide-box.7-9-7-9::guides.3-3-3-3::GRID.VP.675::guides.3-3-3-3::title.2-5-2-2.1" class="viewport"/>
                          <g id="layout::guide-box.7-9-7-9::GRID.VP.676::guide-box.7-9-7-9::guides.3-3-3-3::GRID.VP.675::guides.3-3-3-3::key-3-1-bg.4-2-4-2.1" class="viewport"/>
                          <g id="layout::guide-box.7-9-7-9::GRID.VP.676::guide-box.7-9-7-9::guides.3-3-3-3::GRID.VP.675::guides.3-3-3-3::key-3-1-1.4-2-4-2.1" class="viewport">
                            <g id="key-3-1-1.4-2-4-2.1" class="forcedgrob gTableChild rect grob gDesc">
                              <rect id="key-3-1-1.4-2-4-2.1.1" x="445.99" y="242.61" width="15.86" height="15.86" transform="" stroke="none" fill="rgb(248,118,109)" stroke-dasharray="none" stroke-width="1.07" stroke-linejoin="miter" stroke-opacity="0" fill-opacity="1"/>
                            </g>
                          </g>
                          <g id="layout::guide-box.7-9-7-9::GRID.VP.676::guide-box.7-9-7-9::guides.3-3-3-3::GRID.VP.675::guides.3-3-3-3::key-4-1-bg.5-2-5-2.1" class="viewport"/>
                          <g id="layout::guide-box.7-9-7-9::GRID.VP.676::guide-box.7-9-7-9::guides.3-3-3-3::GRID.VP.675::guides.3-3-3-3::key-4-1-1.5-2-5-2.1" class="viewport">
                            <g id="key-4-1-1.5-2-5-2.1" class="forcedgrob gTableChild rect grob gDesc">
                              <rect id="key-4-1-1.5-2-5-2.1.1" x="445.99" y="225.33" width="15.86" height="15.86" transform="" stroke="none" fill="rgb(0,191,196)" stroke-dasharray="none" stroke-width="1.07" stroke-linejoin="miter" stroke-opacity="0" fill-opacity="1"/>
                            </g>
                          </g>
                          <g id="layout::guide-box.7-9-7-9::GRID.VP.676::guide-box.7-9-7-9::guides.3-3-3-3::GRID.VP.675::guides.3-3-3-3::label-3-3.4-4-4-4.1" class="viewport">
                            <g id="layout::guide-box.7-9-7-9::GRID.VP.676::guide-box.7-9-7-9::guides.3-3-3-3::GRID.VP.675::guides.3-3-3-3::label-3-3.4-4-4-4::GRID.VP.673.1" class="viewport">
                              <g id="label-3-3.4-4-4-4.1" class="forcedgrob gTableChild gTree grob gDesc">
                                <g id="layout::guide-box.7-9-7-9::GRID.VP.676::guide-box.7-9-7-9::guides.3-3-3-3::GRID.VP.675::guides.3-3-3-3::label-3-3.4-4-4-4::GRID.VP.673::GRID.VP.669.1" font-size="8.8" stroke="rgb(0,0,0)" font-family="Helvetica, Arial, FreeSans, Liberation Sans, Nimbus Sans L, sans-serif" stroke-opacity="1" font-weight="normal" font-style="normal" class="viewport">
                                  <g id="layout::guide-box.7-9-7-9::GRID.VP.676::guide-box.7-9-7-9::guides.3-3-3-3::GRID.VP.675::guides.3-3-3-3::label-3-3.4-4-4-4::GRID.VP.673::GRID.VP.669::GRID.VP.670.1" class="viewport">
                                    <g id="guide.label.titleGrob.2908.1" class="titleGrob gTree grob gDesc">
                                      <g id="GRID.text.2906.1" class="text grob gDesc">
                                        <g id="GRID.text.2906.1.1" transform="translate(468.04, 250.54)" stroke-width="0.1">
                                          <g id="GRID.text.2906.1.1.scale" transform="scale(1, -1)">
                                            <text x="0" y="0" id="GRID.text.2906.1.1.text" text-anchor="start" font-size="8.8" stroke="rgb(0,0,0)" font-family="Helvetica, Arial, FreeSans, Liberation Sans, Nimbus Sans L, sans-serif" fill="rgb(0,0,0)" stroke-opacity="1" fill-opacity="1" font-weight="normal" font-style="normal">
                                              <tspan id="GRID.text.2906.1.1.tspan.1" dy="3.23" x="0">N (24)</tspan>
                                            </text>
                                          </g>
                                        </g>
                                      </g>
                                    </g>
                                  </g>
                                </g>
                              </g>
                            </g>
                          </g>
                          <g id="layout::guide-box.7-9-7-9::GRID.VP.676::guide-box.7-9-7-9::guides.3-3-3-3::GRID.VP.675::guides.3-3-3-3::label-4-3.5-4-5-4.1" class="viewport">
                            <g id="layout::guide-box.7-9-7-9::GRID.VP.676::guide-box.7-9-7-9::guides.3-3-3-3::GRID.VP.675::guides.3-3-3-3::label-4-3.5-4-5-4::GRID.VP.674.1" class="viewport">
                              <g id="label-4-3.5-4-5-4.1" class="forcedgrob gTableChild gTree grob gDesc">
                                <g id="layout::guide-box.7-9-7-9::GRID.VP.676::guide-box.7-9-7-9::guides.3-3-3-3::GRID.VP.675::guides.3-3-3-3::label-4-3.5-4-5-4::GRID.VP.674::GRID.VP.671.1" font-size="8.8" stroke="rgb(0,0,0)" font-family="Helvetica, Arial, FreeSans, Liberation Sans, Nimbus Sans L, sans-serif" stroke-opacity="1" font-weight="normal" font-style="normal" class="viewport">
                                  <g id="layout::guide-box.7-9-7-9::GRID.VP.676::guide-box.7-9-7-9::guides.3-3-3-3::GRID.VP.675::guides.3-3-3-3::label-4-3.5-4-5-4::GRID.VP.674::GRID.VP.671::GRID.VP.672.1" class="viewport">
                                    <g id="guide.label.titleGrob.2911.1" class="titleGrob gTree grob gDesc">
                                      <g id="GRID.text.2909.1" class="text grob gDesc">
                                        <g id="GRID.text.2909.1.1" transform="translate(468.04, 233.26)" stroke-width="0.1">
                                          <g id="GRID.text.2909.1.1.scale" transform="scale(1, -1)">
                                            <text x="0" y="0" id="GRID.text.2909.1.1.text" text-anchor="start" font-size="8.8" stroke="rgb(0,0,0)" font-family="Helvetica, Arial, FreeSans, Liberation Sans, Nimbus Sans L, sans-serif" fill="rgb(0,0,0)" stroke-opacity="1" fill-opacity="1" font-weight="normal" font-style="normal">
                                              <tspan id="GRID.text.2909.1.1.tspan.1" dy="3.23" x="0">S (26)</tspan>
                                            </text>
                                          </g>
                                        </g>
                                      </g>
                                    </g>
                                  </g>
                                </g>
                              </g>
                            </g>
                          </g>
                        </g>
                      </g>
                    </g>
                  </g>
                </g>
              </g>
            </g>
          </g>
          <g id="layout::subtitle.4-5-4-5.1" class="viewport"/>
          <g id="layout::title.3-5-3-5.1" class="viewport">
            <g id="layout::title.3-5-3-5::GRID.VP.677.1" font-size="13.2" stroke="rgb(102,102,102)" font-family="Helvetica, Arial, FreeSans, Liberation Sans, Nimbus Sans L, sans-serif" stroke-opacity="1" font-weight="normal" font-style="normal" class="viewport">
              <g id="layout::title.3-5-3-5::GRID.VP.677::GRID.VP.678.1" class="viewport">
                <g id="title.3-5-3-5.1" class="forcedgrob gTableChild titleGrob gTree grob gDesc">
                  <g id="GRID.text.2920.1" class="text grob gDesc">
                    <g id="GRID.text.2920.1.1" transform="translate(218.53, 472.41)" stroke-width="0.1">
                      <g id="GRID.text.2920.1.1.scale" transform="scale(1, -1)">
                        <text x="0" y="0" id="GRID.text.2920.1.1.text" text-anchor="middle" font-size="13.2" stroke="rgb(102,102,102)" font-family="Helvetica, Arial, FreeSans, Liberation Sans, Nimbus Sans L, sans-serif" fill="rgb(102,102,102)" stroke-opacity="1" fill-opacity="1" font-weight="normal" font-style="normal">
                          <tspan id="GRID.text.2920.1.1.tspan.1" dy="9.33" x="0">anagrafica sostituzionehardware</tspan>
                        </text>
                      </g>
                    </g>
                  </g>
                </g>
              </g>
            </g>
          </g>
          <g id="layout::caption.10-5-10-5.1" class="viewport"/>
          <g id="layout::tag.2-2-2-2.1" class="viewport"/>
        </g>
      </g>
    </g>
  </g>
</svg>