<?xml version="1.0" encoding="UTF-8"?>
<svg xmlns="http://www.w3.org/2000/svg" xmlns:xlink="http://www.w3.org/1999/xlink" width="504px" height="504px" viewBox="0 0 504 504" version="1.1">
  <metadata xmlns:gridsvg="http://www.stat.auckland.ac.nz/~paul/R/gridSVG/">
    <gridsvg:generator name="gridSVG" version="1.6-0" time="2019-01-15 00:33:00"/>
    <gridsvg:argument name="name" value="./latest_informaggio_csv/anziani/risultati/svg/anagrafica-interesse.svg"/>
    <gridsvg:argument name="exportCoords" value="none"/>
    <gridsvg:argument name="exportMappings" value="none"/>
    <gridsvg:argument name="exportJS" value="none"/>
    <gridsvg:argument name="res" value="72"/>
    <gridsvg:argument name="prefix" value=""/>
    <gridsvg:argument name="addClasses" value="TRUE"/>
    <gridsvg:argument name="indent" value="TRUE"/>
    <gridsvg:argument name="htmlWrapper" value="FALSE"/>
    <gridsvg:argument name="usePaths" value="vpPaths"/>
    <gridsvg:argument name="uniqueNames" value="TRUE"/>
    <gridsvg:separator name="id.sep" value="."/>
    <gridsvg:separator name="gPath.sep" value="::"/>
    <gridsvg:separator name="vpPath.sep" value="::"/>
  </metadata>
  <g transform="translate(0, 504) scale(1, -1)">
    <g id="gridSVG" fill="none" stroke="rgb(0,0,0)" stroke-dasharray="none" stroke-width="0.75" font-size="12" font-family="Helvetica, Arial, FreeSans, Liberation Sans, Nimbus Sans L, sans-serif" opacity="1" stroke-linecap="round" stroke-linejoin="round" stroke-miterlimit="10" stroke-opacity="1" fill-opacity="0" font-weight="normal" font-style="normal">
      <g id="layout.1" class="viewport">
        <g id="layout.2" class="forcedgrob gtable gTree grob gDesc">
          <defs>
            <clipPath id="layout::background.1-11-12-1.1.clipPath">
              <rect x="0" y="26.11" width="504" height="451.77" fill="none" stroke="none"/>
            </clipPath>
          </defs>
          <g id="layout::background.1-11-12-1.1" clip-path="url(#layout::background.1-11-12-1.1.clipPath)" class="viewport">
            <g id="background.1-11-12-1.1" class="forcedgrob gTableChild rect grob gDesc">
              <rect id="background.1-11-12-1.1.1" x="0" y="26.11" width="504" height="451.77" transform="" stroke-width="1.07" stroke="rgb(255,255,255)" fill="rgb(255,255,255)" stroke-dasharray="none" stroke-opacity="1" fill-opacity="1"/>
            </g>
          </g>
          <defs>
            <clipPath id="layout::panel.7-5-7-5.1.clipPath">
              <rect x="8.22" y="34.33" width="420.62" height="420.62" fill="none" stroke="none"/>
            </clipPath>
          </defs>
          <g id="layout::panel.7-5-7-5.1" clip-path="url(#layout::panel.7-5-7-5.1.clipPath)" class="viewport">
            <g id="panel.7-5-7-5.1" class="forcedgrob gTableChild gTree grob gDesc">
              <g id="grill.gTree.1894.1" class="gTree grob gDesc">
                <g id="panel.background..rect.1890.1" class="rect grob gDesc">
                  <rect id="panel.background..rect.1890.1.1" x="8.22" y="34.33" width="420.62" height="420.62" transform="" stroke-width="1.07" stroke="none" fill="rgb(255,255,255)" stroke-dasharray="none" stroke-opacity="0" fill-opacity="1"/>
                </g>
              </g>
              <g id="bar.gTree.1883.1" class="gTree grob gDesc">
                <g id="geom_polygon.polygon.1879.1" class="polygon grob gDesc">
                  <polygon id="geom_polygon.polygon.1879.1.1" points="218.53,244.64 218.53,238.84 218.53,233.04 218.53,227.24 218.53,221.44 218.53,215.63 218.53,209.83 218.53,204.03 218.53,198.23 218.53,192.43 218.53,186.63 218.53,180.82 218.53,175.02 218.53,169.22 218.53,163.42 218.53,157.62 218.53,151.82 218.53,146.01 218.53,140.21 218.53,134.41 218.53,128.61 218.53,122.81 218.53,117.01 218.53,111.2 218.53,105.4 218.53,99.6 218.53,93.8 218.53,88 218.53,82.2 218.53,76.39 224.27,76.49 230.01,76.79 235.74,77.28 241.44,77.96 247.12,78.84 252.76,79.91 258.37,81.18 263.92,82.63 269.43,84.28 274.87,86.11 280.25,88.12 285.56,90.32 290.79,92.7 295.94,95.26 300.99,97.99 305.95,100.89 310.81,103.96 315.56,107.19 320.19,110.58 324.71,114.13 329.1,117.83 333.37,121.68 337.5,125.67 341.49,129.8 345.34,134.07 349.04,138.46 352.59,142.98 355.98,147.62 359.22,152.37 362.29,157.22 365.19,162.18 367.92,167.24 370.47,172.38 372.85,177.61 375.05,182.92 377.06,188.3 378.9,193.75 380.54,199.25 382,204.81 383.26,210.41 384.33,216.06 385.21,221.73 385.9,227.44 386.39,233.16 386.68,238.9 386.78,244.64 386.68,250.39 386.39,256.12 385.9,261.85 385.21,267.55 384.33,273.23 383.26,278.87 382,284.48 380.54,290.04 378.9,295.54 377.06,300.99 375.05,306.37 372.85,311.67 370.47,316.9 367.92,322.05 365.19,327.1 362.29,332.06 359.22,336.92 355.98,341.67 352.59,346.31 349.04,350.82 345.34,355.22 341.49,359.48 337.5,363.61 333.37,367.61 329.1,371.45 324.71,375.16 320.19,378.7 315.56,382.1 310.81,385.33 305.95,388.4 300.99,391.3 295.94,394.03 290.79,396.58 285.56,398.96 280.25,401.16 274.87,403.18 269.43,405.01 263.92,406.65 258.37,408.11 252.76,409.37 247.12,410.45 241.44,411.32 235.74,412.01 230.01,412.5 224.27,412.79 218.53,412.89 218.53,407.09 218.53,401.29 218.53,395.49 218.53,389.69 218.53,383.88 218.53,378.08 218.53,372.28 218.53,366.48 218.53,360.68 218.53,354.88 218.53,349.07 218.53,343.27 218.53,337.47 218.53,331.67 218.53,325.87 218.53,320.07 218.53,314.26 218.53,308.46 218.53,302.66 218.53,296.86 218.53,291.06 218.53,285.25 218.53,279.45 218.53,273.65 218.53,267.85 218.53,262.05 218.53,256.25 218.53,250.44 218.53,244.64 218.53,244.64" stroke="none" fill="rgb(0,191,196)" stroke-width="1.07" stroke-dasharray="none" stroke-opacity="0" fill-opacity="1"/>
                </g>
                <g id="geom_polygon.polygon.1881.1" class="polygon grob gDesc">
                  <polygon id="geom_polygon.polygon.1881.1.1" points="218.53,244.64 218.53,250.44 218.53,256.25 218.53,262.05 218.53,267.85 218.53,273.65 218.53,279.45 218.53,285.25 218.53,291.06 218.53,296.86 218.53,302.66 218.53,308.46 218.53,314.26 218.53,320.07 218.53,325.87 218.53,331.67 218.53,337.47 218.53,343.27 218.53,349.07 218.53,354.88 218.53,360.68 218.53,366.48 218.53,372.28 218.53,378.08 218.53,383.88 218.53,389.69 218.53,395.49 218.53,401.29 218.53,407.09 218.53,412.89 212.79,412.79 207.05,412.5 201.32,412.01 195.62,411.32 189.94,410.45 184.3,409.37 178.69,408.11 173.14,406.65 167.63,405.01 162.19,403.18 156.81,401.16 151.5,398.96 146.27,396.58 141.12,394.03 136.07,391.3 131.11,388.4 126.25,385.33 121.5,382.1 116.87,378.7 112.35,375.16 107.96,371.45 103.69,367.61 99.56,363.61 95.57,359.48 91.72,355.22 88.02,350.82 84.47,346.31 81.08,341.67 77.84,336.92 74.78,332.06 71.87,327.1 69.14,322.05 66.59,316.9 64.21,311.67 62.01,306.37 60,300.99 58.16,295.54 56.52,290.04 55.07,284.48 53.8,278.87 52.73,273.23 51.85,267.55 51.16,261.85 50.67,256.12 50.38,250.39 50.28,244.64 50.38,238.9 50.67,233.16 51.16,227.44 51.85,221.73 52.73,216.06 53.8,210.41 55.07,204.81 56.52,199.25 58.16,193.75 60,188.3 62.01,182.92 64.21,177.61 66.59,172.38 69.14,167.24 71.87,162.18 74.78,157.22 77.84,152.37 81.08,147.62 84.47,142.98 88.02,138.46 91.72,134.07 95.57,129.8 99.56,125.67 103.69,121.68 107.96,117.83 112.35,114.13 116.87,110.58 121.5,107.19 126.25,103.96 131.11,100.89 136.07,97.99 141.12,95.26 146.27,92.7 151.5,90.32 156.81,88.12 162.19,86.11 167.63,84.28 173.14,82.63 178.69,81.18 184.3,79.91 189.94,78.84 195.62,77.96 201.32,77.28 207.05,76.79 212.79,76.49 218.53,76.39 218.53,82.2 218.53,88 218.53,93.8 218.53,99.6 218.53,105.4 218.53,111.2 218.53,117.01 218.53,122.81 218.53,128.61 218.53,134.41 218.53,140.21 218.53,146.01 218.53,151.82 218.53,157.62 218.53,163.42 218.53,169.22 218.53,175.02 218.53,180.82 218.53,186.63 218.53,192.43 218.53,198.23 218.53,204.03 218.53,209.83 218.53,215.63 218.53,221.44 218.53,227.24 218.53,233.04 218.53,238.84 218.53,244.64 218.53,244.64" stroke="none" fill="rgb(248,118,109)" stroke-width="1.07" stroke-dasharray="none" stroke-opacity="0" fill-opacity="1"/>
                </g>
              </g>
              <g id="GRID.text.1884.1" class="text grob gDesc">
                <g id="GRID.text.1884.1.1" transform="translate(302.65, 244.64)" stroke-width="0.1">
                  <g id="GRID.text.1884.1.1.scale" transform="scale(1, -1)">
                    <text x="0" y="0" id="GRID.text.1884.1.1.text" text-anchor="middle" stroke="rgb(0,0,0)" font-size="11.04" font-family="Helvetica, Arial, FreeSans, Liberation Sans, Nimbus Sans L, sans-serif" fill="rgb(0,0,0)" stroke-opacity="1" fill-opacity="1" font-weight="normal" font-style="normal">
                      <tspan id="GRID.text.1884.1.1.tspan.1" dy="3.95" x="0">25</tspan>
                    </text>
                  </g>
                </g>
                <g id="GRID.text.1884.1.2" transform="translate(134.41, 244.64)" stroke-width="0.1">
                  <g id="GRID.text.1884.1.2.scale" transform="scale(1, -1)">
                    <text x="0" y="0" id="GRID.text.1884.1.2.text" text-anchor="middle" stroke="rgb(0,0,0)" font-size="11.04" font-family="Helvetica, Arial, FreeSans, Liberation Sans, Nimbus Sans L, sans-serif" fill="rgb(0,0,0)" stroke-opacity="1" fill-opacity="1" font-weight="normal" font-style="normal">
                      <tspan id="GRID.text.1884.1.2.tspan.1" dy="3.95" x="0">25</tspan>
                    </text>
                  </g>
                </g>
              </g>
              <g id="GRID.gTree.1885.1" class="gTree grob gDesc"/>
            </g>
          </g>
          <g id="layout::spacer.8-6-8-6.1" class="viewport"/>
          <g id="layout::spacer.8-4-8-4.1" class="viewport"/>
          <g id="layout::spacer.6-6-6-6.1" class="viewport"/>
          <g id="layout::spacer.6-4-6-4.1" class="viewport"/>
          <g id="layout::axis-t.6-5-6-5.1" class="viewport"/>
          <g id="layout::axis-l.7-4-7-4.1" class="viewport">
            <g id="layout::axis-l.7-4-7-4::GRID.VP.428.1" class="viewport">
              <g id="axis-l.7-4-7-4.1" class="forcedgrob gTableChild absoluteGrob gTree grob gDesc">
                <g id="layout::axis-l.7-4-7-4::GRID.VP.428::axis.1" class="viewport">
                  <g id="axis.1" class="forcedgrob gtable gTree grob gDesc">
                    <g id="layout::axis-l.7-4-7-4::GRID.VP.428::axis::axis.1-1-1-1.1" class="viewport"/>
                    <g id="layout::axis-l.7-4-7-4::GRID.VP.428::axis::axis.1-2-1-2.1" class="viewport"/>
                  </g>
                </g>
              </g>
            </g>
          </g>
          <g id="layout::axis-r.7-6-7-6.1" class="viewport"/>
          <g id="layout::axis-b.8-5-8-5.1" class="viewport">
            <g id="layout::axis-b.8-5-8-5::GRID.VP.427.1" class="viewport">
              <g id="axis-b.8-5-8-5.1" class="forcedgrob gTableChild absoluteGrob gTree grob gDesc">
                <g id="layout::axis-b.8-5-8-5::GRID.VP.427::axis.1" class="viewport">
                  <g id="axis.2" class="forcedgrob gtable gTree grob gDesc">
                    <g id="layout::axis-b.8-5-8-5::GRID.VP.427::axis::axis.1-1-1-1.1" class="viewport"/>
                    <g id="layout::axis-b.8-5-8-5::GRID.VP.427::axis::axis.2-1-2-1.1" class="viewport"/>
                  </g>
                </g>
              </g>
            </g>
          </g>
          <g id="layout::xlab-t.5-5-5-5.1" class="viewport"/>
          <g id="layout::xlab-b.9-5-9-5.1" class="viewport"/>
          <g id="layout::ylab-l.7-3-7-3.1" class="viewport"/>
          <g id="layout::ylab-r.7-7-7-7.1" class="viewport"/>
          <g id="layout::guide-box.7-9-7-9.1" class="viewport">
            <g id="layout::guide-box.7-9-7-9::GRID.VP.436.1" class="viewport">
              <g id="layout::guide-box.7-9-7-9::GRID.VP.436::guide-box.7-9-7-9.1" class="viewport">
                <g id="guide-box.7-9-7-9.1" class="forcedgrob gTableChild gtable gTree grob gDesc">
                  <g id="layout::guide-box.7-9-7-9::GRID.VP.436::guide-box.7-9-7-9::legend.box.background.2-4-4-2.1" class="viewport"/>
                  <g id="layout::guide-box.7-9-7-9::GRID.VP.436::guide-box.7-9-7-9::guides.3-3-3-3.1" class="viewport">
                    <g id="layout::guide-box.7-9-7-9::GRID.VP.436::guide-box.7-9-7-9::guides.3-3-3-3::GRID.VP.435.1" class="viewport">
                      <g id="layout::guide-box.7-9-7-9::GRID.VP.436::guide-box.7-9-7-9::guides.3-3-3-3::GRID.VP.435::guides.3-3-3-3.1" class="viewport">
                        <g id="guides.3-3-3-3.1" class="forcedgrob gTableChild gtable gTree grob gDesc">
                          <g id="layout::guide-box.7-9-7-9::GRID.VP.436::guide-box.7-9-7-9::guides.3-3-3-3::GRID.VP.435::guides.3-3-3-3::background.1-6-6-1.1" class="viewport">
                            <g id="background.1-6-6-1.1" class="forcedgrob gTableChild rect grob gDesc">
                              <rect id="background.1-6-6-1.1.1" x="439.8" y="219.14" width="58.72" height="51" transform="" stroke-width="1.07" stroke="none" fill="rgb(255,255,255)" stroke-dasharray="none" stroke-opacity="0" fill-opacity="1"/>
                            </g>
                          </g>
                          <g id="layout::guide-box.7-9-7-9::GRID.VP.436::guide-box.7-9-7-9::guides.3-3-3-3::GRID.VP.435::guides.3-3-3-3::title.2-5-2-2.1" class="viewport"/>
                          <g id="layout::guide-box.7-9-7-9::GRID.VP.436::guide-box.7-9-7-9::guides.3-3-3-3::GRID.VP.435::guides.3-3-3-3::key-3-1-bg.4-2-4-2.1" class="viewport"/>
                          <g id="layout::guide-box.7-9-7-9::GRID.VP.436::guide-box.7-9-7-9::guides.3-3-3-3::GRID.VP.435::guides.3-3-3-3::key-3-1-1.4-2-4-2.1" class="viewport">
                            <g id="key-3-1-1.4-2-4-2.1" class="forcedgrob gTableChild rect grob gDesc">
                              <rect id="key-3-1-1.4-2-4-2.1.1" x="445.99" y="242.61" width="15.86" height="15.86" transform="" stroke="none" fill="rgb(248,118,109)" stroke-dasharray="none" stroke-width="1.07" stroke-linejoin="miter" stroke-opacity="0" fill-opacity="1"/>
                            </g>
                          </g>
                          <g id="layout::guide-box.7-9-7-9::GRID.VP.436::guide-box.7-9-7-9::guides.3-3-3-3::GRID.VP.435::guides.3-3-3-3::key-4-1-bg.5-2-5-2.1" class="viewport"/>
                          <g id="layout::guide-box.7-9-7-9::GRID.VP.436::guide-box.7-9-7-9::guides.3-3-3-3::GRID.VP.435::guides.3-3-3-3::key-4-1-1.5-2-5-2.1" class="viewport">
                            <g id="key-4-1-1.5-2-5-2.1" class="forcedgrob gTableChild rect grob gDesc">
                              <rect id="key-4-1-1.5-2-5-2.1.1" x="445.99" y="225.33" width="15.86" height="15.86" transform="" stroke="none" fill="rgb(0,191,196)" stroke-dasharray="none" stroke-width="1.07" stroke-linejoin="miter" stroke-opacity="0" fill-opacity="1"/>
                            </g>
                          </g>
                          <g id="layout::guide-box.7-9-7-9::GRID.VP.436::guide-box.7-9-7-9::guides.3-3-3-3::GRID.VP.435::guides.3-3-3-3::label-3-3.4-4-4-4.1" class="viewport">
                            <g id="layout::guide-box.7-9-7-9::GRID.VP.436::guide-box.7-9-7-9::guides.3-3-3-3::GRID.VP.435::guides.3-3-3-3::label-3-3.4-4-4-4::GRID.VP.433.1" class="viewport">
                              <g id="label-3-3.4-4-4-4.1" class="forcedgrob gTableChild gTree grob gDesc">
                                <g id="layout::guide-box.7-9-7-9::GRID.VP.436::guide-box.7-9-7-9::guides.3-3-3-3::GRID.VP.435::guides.3-3-3-3::label-3-3.4-4-4-4::GRID.VP.433::GRID.VP.429.1" font-size="8.8" stroke="rgb(0,0,0)" font-family="Helvetica, Arial, FreeSans, Liberation Sans, Nimbus Sans L, sans-serif" stroke-opacity="1" font-weight="normal" font-style="normal" class="viewport">
                                  <g id="layout::guide-box.7-9-7-9::GRID.VP.436::guide-box.7-9-7-9::guides.3-3-3-3::GRID.VP.435::guides.3-3-3-3::label-3-3.4-4-4-4::GRID.VP.433::GRID.VP.429::GRID.VP.430.1" class="viewport">
                                    <g id="guide.label.titleGrob.1908.1" class="titleGrob gTree grob gDesc">
                                      <g id="GRID.text.1906.1" class="text grob gDesc">
                                        <g id="GRID.text.1906.1.1" transform="translate(468.04, 250.54)" stroke-width="0.1">
                                          <g id="GRID.text.1906.1.1.scale" transform="scale(1, -1)">
                                            <text x="0" y="0" id="GRID.text.1906.1.1.text" text-anchor="start" font-size="8.8" stroke="rgb(0,0,0)" font-family="Helvetica, Arial, FreeSans, Liberation Sans, Nimbus Sans L, sans-serif" fill="rgb(0,0,0)" stroke-opacity="1" fill-opacity="1" font-weight="normal" font-style="normal">
                                              <tspan id="GRID.text.1906.1.1.tspan.1" dy="3.23" x="0">S (25)</tspan>
                                            </text>
                                          </g>
                                        </g>
                                      </g>
                                    </g>
                                  </g>
                                </g>
                              </g>
                            </g>
                          </g>
                          <g id="layout::guide-box.7-9-7-9::GRID.VP.436::guide-box.7-9-7-9::guides.3-3-3-3::GRID.VP.435::guides.3-3-3-3::label-4-3.5-4-5-4.1" class="viewport">
                            <g id="layout::guide-box.7-9-7-9::GRID.VP.436::guide-box.7-9-7-9::guides.3-3-3-3::GRID.VP.435::guides.3-3-3-3::label-4-3.5-4-5-4::GRID.VP.434.1" class="viewport">
                              <g id="label-4-3.5-4-5-4.1" class="forcedgrob gTableChild gTree grob gDesc">
                                <g id="layout::guide-box.7-9-7-9::GRID.VP.436::guide-box.7-9-7-9::guides.3-3-3-3::GRID.VP.435::guides.3-3-3-3::label-4-3.5-4-5-4::GRID.VP.434::GRID.VP.431.1" font-size="8.8" stroke="rgb(0,0,0)" font-family="Helvetica, Arial, FreeSans, Liberation Sans, Nimbus Sans L, sans-serif" stroke-opacity="1" font-weight="normal" font-style="normal" class="viewport">
                                  <g id="layout::guide-box.7-9-7-9::GRID.VP.436::guide-box.7-9-7-9::guides.3-3-3-3::GRID.VP.435::guides.3-3-3-3::label-4-3.5-4-5-4::GRID.VP.434::GRID.VP.431::GRID.VP.432.1" class="viewport">
                                    <g id="guide.label.titleGrob.1911.1" class="titleGrob gTree grob gDesc">
                                      <g id="GRID.text.1909.1" class="text grob gDesc">
                                        <g id="GRID.text.1909.1.1" transform="translate(468.04, 233.26)" stroke-width="0.1">
                                          <g id="GRID.text.1909.1.1.scale" transform="scale(1, -1)">
                                            <text x="0" y="0" id="GRID.text.1909.1.1.text" text-anchor="start" font-size="8.8" stroke="rgb(0,0,0)" font-family="Helvetica, Arial, FreeSans, Liberation Sans, Nimbus Sans L, sans-serif" fill="rgb(0,0,0)" stroke-opacity="1" fill-opacity="1" font-weight="normal" font-style="normal">
                                              <tspan id="GRID.text.1909.1.1.tspan.1" dy="3.23" x="0">N (25)</tspan>
                                            </text>
                                          </g>
                                        </g>
                                      </g>
                                    </g>
                                  </g>
                                </g>
                              </g>
                            </g>
                          </g>
                        </g>
                      </g>
                    </g>
                  </g>
                </g>
              </g>
            </g>
          </g>
          <g id="layout::subtitle.4-5-4-5.1" class="viewport"/>
          <g id="layout::title.3-5-3-5.1" class="viewport">
            <g id="layout::title.3-5-3-5::GRID.VP.437.1" font-size="13.2" stroke="rgb(102,102,102)" font-family="Helvetica, Arial, FreeSans, Liberation Sans, Nimbus Sans L, sans-serif" stroke-opacity="1" font-weight="normal" font-style="normal" class="viewport">
              <g id="layout::title.3-5-3-5::GRID.VP.437::GRID.VP.438.1" class="viewport">
                <g id="title.3-5-3-5.1" class="forcedgrob gTableChild titleGrob gTree grob gDesc">
                  <g id="GRID.text.1920.1" class="text grob gDesc">
                    <g id="GRID.text.1920.1.1" transform="translate(218.53, 472.41)" stroke-width="0.1">
                      <g id="GRID.text.1920.1.1.scale" transform="scale(1, -1)">
                        <text x="0" y="0" id="GRID.text.1920.1.1.text" text-anchor="middle" font-size="13.2" stroke="rgb(102,102,102)" font-family="Helvetica, Arial, FreeSans, Liberation Sans, Nimbus Sans L, sans-serif" fill="rgb(102,102,102)" stroke-opacity="1" fill-opacity="1" font-weight="normal" font-style="normal">
                          <tspan id="GRID.text.1920.1.1.tspan.1" dy="9.33" x="0">anagrafica interesse</tspan>
                        </text>
                      </g>
                    </g>
                  </g>
                </g>
              </g>
            </g>
          </g>
          <g id="layout::caption.10-5-10-5.1" class="viewport"/>
          <g id="layout::tag.2-2-2-2.1" class="viewport"/>
        </g>
      </g>
    </g>
  </g>
</svg>