<?xml version="1.0" encoding="UTF-8"?>
<svg xmlns="http://www.w3.org/2000/svg" xmlns:xlink="http://www.w3.org/1999/xlink" width="504px" height="504px" viewBox="0 0 504 504" version="1.1">
  <metadata xmlns:gridsvg="http://www.stat.auckland.ac.nz/~paul/R/gridSVG/">
    <gridsvg:generator name="gridSVG" version="1.6-0" time="2019-01-18 19:07:03"/>
    <gridsvg:argument name="name" value="./latest_informaggio_csv/anziani/risultati/svg/anagrafica-espertouniversita.svg"/>
    <gridsvg:argument name="exportCoords" value="none"/>
    <gridsvg:argument name="exportMappings" value="none"/>
    <gridsvg:argument name="exportJS" value="none"/>
    <gridsvg:argument name="res" value="72"/>
    <gridsvg:argument name="prefix" value=""/>
    <gridsvg:argument name="addClasses" value="TRUE"/>
    <gridsvg:argument name="indent" value="TRUE"/>
    <gridsvg:argument name="htmlWrapper" value="FALSE"/>
    <gridsvg:argument name="usePaths" value="vpPaths"/>
    <gridsvg:argument name="uniqueNames" value="TRUE"/>
    <gridsvg:separator name="id.sep" value="."/>
    <gridsvg:separator name="gPath.sep" value="::"/>
    <gridsvg:separator name="vpPath.sep" value="::"/>
  </metadata>
  <g transform="translate(0, 504) scale(1, -1)">
    <g id="gridSVG" fill="none" stroke="rgb(0,0,0)" stroke-dasharray="none" stroke-width="0.75" font-size="12" font-family="Helvetica, Arial, FreeSans, Liberation Sans, Nimbus Sans L, sans-serif" opacity="1" stroke-linecap="round" stroke-linejoin="round" stroke-miterlimit="10" stroke-opacity="1" fill-opacity="0" font-weight="normal" font-style="normal">
      <g id="layout.1" class="viewport">
        <g id="layout.2" class="forcedgrob gtable gTree grob gDesc">
          <defs>
            <clipPath id="layout::background.1-11-12-1.1.clipPath">
              <rect x="0" y="26.11" width="504" height="451.77" fill="none" stroke="none"/>
            </clipPath>
          </defs>
          <g id="layout::background.1-11-12-1.1" clip-path="url(#layout::background.1-11-12-1.1.clipPath)" class="viewport">
            <g id="background.1-11-12-1.1" class="forcedgrob gTableChild rect grob gDesc">
              <rect id="background.1-11-12-1.1.1" x="0" y="26.11" width="504" height="451.77" transform="" stroke-width="1.07" stroke="rgb(255,255,255)" fill="rgb(255,255,255)" stroke-dasharray="none" stroke-opacity="1" fill-opacity="1"/>
            </g>
          </g>
          <defs>
            <clipPath id="layout::panel.7-5-7-5.1.clipPath">
              <rect x="8.22" y="34.33" width="420.62" height="420.62" fill="none" stroke="none"/>
            </clipPath>
          </defs>
          <g id="layout::panel.7-5-7-5.1" clip-path="url(#layout::panel.7-5-7-5.1.clipPath)" class="viewport">
            <g id="panel.7-5-7-5.1" class="forcedgrob gTableChild gTree grob gDesc">
              <g id="grill.gTree.1835.1" class="gTree grob gDesc">
                <g id="panel.background..rect.1831.1" class="rect grob gDesc">
                  <rect id="panel.background..rect.1831.1.1" x="8.22" y="34.33" width="420.62" height="420.62" transform="" stroke-width="1.07" stroke="none" fill="rgb(255,255,255)" stroke-dasharray="none" stroke-opacity="0" fill-opacity="1"/>
                </g>
              </g>
              <g id="bar.gTree.1824.1" class="gTree grob gDesc">
                <g id="geom_polygon.polygon.1820.1" class="polygon grob gDesc">
                  <polygon id="geom_polygon.polygon.1820.1.1" points="218.53,244.64 216.39,239.25 214.26,233.85 212.12,228.46 209.99,223.07 207.85,217.67 205.72,212.28 203.58,206.88 201.44,201.49 199.31,196.09 197.17,190.7 195.04,185.31 192.9,179.91 190.77,174.52 188.63,169.12 186.49,163.73 184.36,158.33 182.22,152.94 180.09,147.55 177.95,142.15 175.82,136.76 173.68,131.36 171.54,125.97 169.41,120.57 167.27,115.18 165.14,109.79 163,104.39 160.87,99 158.73,93.6 156.59,88.21 161.92,86.2 167.31,84.38 172.76,82.74 178.27,81.28 183.81,80.01 189.4,78.93 195.03,78.04 200.67,77.34 206.34,76.84 212.03,76.52 217.72,76.4 223.41,76.47 229.09,76.73 234.77,77.18 240.42,77.82 246.05,78.66 251.65,79.69 257.21,80.9 262.73,82.3 268.2,83.89 273.61,85.66 278.95,87.62 284.23,89.75 289.43,92.06 294.55,94.55 299.58,97.21 304.53,100.03 309.37,103.02 314.11,106.18 318.74,109.49 323.25,112.96 327.64,116.57 331.91,120.34 336.05,124.24 340.06,128.29 343.93,132.47 347.65,136.77 351.22,141.2 354.65,145.75 357.91,150.41 361.02,155.18 363.97,160.05 366.74,165.02 369.35,170.08 371.79,175.22 374.05,180.44 376.13,185.74 378.03,191.11 379.75,196.53 381.29,202.01 382.64,207.54 383.8,213.12 384.77,218.72 385.55,224.36 386.14,230.02 386.54,235.7 386.75,241.39 386.76,247.08 386.58,252.77 386.21,258.45 385.65,264.12 384.89,269.76 383.95,275.37 382.82,280.95 381.49,286.48 379.98,291.97 378.29,297.41 376.41,302.78 374.36,308.09 372.12,313.32 369.71,318.48 367.13,323.55 364.37,328.53 361.45,333.42 358.37,338.2 355.12,342.88 351.72,347.44 348.17,351.89 344.47,356.21 340.62,360.41 336.63,364.47 332.51,368.4 328.26,372.18 323.89,375.82 319.39,379.31 314.77,382.65 310.05,385.82 305.22,388.84 300.3,391.69 295.28,394.37 290.17,396.88 284.98,399.22 279.71,401.37 274.37,403.35 268.97,405.15 263.51,406.77 258,408.2 252.45,409.44 246.86,410.49 241.23,411.35 235.58,412.03 229.91,412.51 224.22,412.8 218.53,412.89 218.53,407.09 218.53,401.29 218.53,395.49 218.53,389.69 218.53,383.88 218.53,378.08 218.53,372.28 218.53,366.48 218.53,360.68 218.53,354.88 218.53,349.07 218.53,343.27 218.53,337.47 218.53,331.67 218.53,325.87 218.53,320.07 218.53,314.26 218.53,308.46 218.53,302.66 218.53,296.86 218.53,291.06 218.53,285.25 218.53,279.45 218.53,273.65 218.53,267.85 218.53,262.05 218.53,256.25 218.53,250.44 218.53,244.64 218.53,244.64" stroke="none" fill="rgb(0,191,196)" stroke-width="1.07" stroke-dasharray="none" stroke-opacity="0" fill-opacity="1"/>
                </g>
                <g id="geom_polygon.polygon.1822.1" class="polygon grob gDesc">
                  <polygon id="geom_polygon.polygon.1822.1.1" points="218.53,244.64 218.53,250.44 218.53,256.25 218.53,262.05 218.53,267.85 218.53,273.65 218.53,279.45 218.53,285.25 218.53,291.06 218.53,296.86 218.53,302.66 218.53,308.46 218.53,314.26 218.53,320.07 218.53,325.87 218.53,331.67 218.53,337.47 218.53,343.27 218.53,349.07 218.53,354.88 218.53,360.68 218.53,366.48 218.53,372.28 218.53,378.08 218.53,383.88 218.53,389.69 218.53,395.49 218.53,401.29 218.53,407.09 218.53,412.89 212.79,412.79 207.05,412.5 201.33,412.01 195.63,411.33 189.96,410.45 184.32,409.38 178.71,408.11 173.16,406.66 167.66,405.02 162.21,403.19 156.84,401.17 151.53,398.98 146.3,396.6 141.16,394.05 136.11,391.32 131.15,388.42 126.29,385.36 121.55,382.13 116.91,378.74 112.39,375.19 108,371.49 103.74,367.65 99.61,363.66 95.61,359.53 91.77,355.27 88.06,350.88 84.51,346.37 81.12,341.73 77.89,336.99 74.82,332.14 71.92,327.18 69.19,322.13 66.63,316.99 64.25,311.76 62.05,306.46 60.03,301.08 58.2,295.64 56.55,290.14 55.09,284.59 53.82,278.99 52.75,273.34 51.86,267.67 51.18,261.97 50.68,256.25 50.38,250.51 50.28,244.77 50.37,239.03 50.66,233.3 51.15,227.58 51.83,221.87 52.7,216.2 53.77,210.56 55.03,204.95 56.48,199.4 58.12,193.89 59.94,188.45 61.95,183.07 64.15,177.76 66.52,172.53 69.07,167.39 71.79,162.33 74.68,157.37 77.75,152.52 80.97,147.77 84.36,143.13 87.9,138.61 91.59,134.21 95.44,129.95 99.42,125.81 103.55,121.82 107.8,117.96 112.19,114.26 116.7,110.71 121.33,107.31 126.08,104.07 130.93,101 135.88,98.09 140.93,95.36 146.07,92.8 151.29,90.41 156.59,88.21 158.73,93.6 160.87,99 163,104.39 165.14,109.79 167.27,115.18 169.41,120.57 171.54,125.97 173.68,131.36 175.82,136.76 177.95,142.15 180.09,147.55 182.22,152.94 184.36,158.33 186.49,163.73 188.63,169.12 190.77,174.52 192.9,179.91 195.04,185.31 197.17,190.7 199.31,196.09 201.44,201.49 203.58,206.88 205.72,212.28 207.85,217.67 209.99,223.07 212.12,228.46 214.26,233.85 216.39,239.25 218.53,244.64 218.53,244.64" stroke="none" fill="rgb(248,118,109)" stroke-width="1.07" stroke-dasharray="none" stroke-opacity="0" fill-opacity="1"/>
                </g>
              </g>
              <g id="GRID.text.1825.1" class="text grob gDesc">
                <g id="GRID.text.1825.1.1" transform="translate(301.16, 228.88)" stroke-width="0.1">
                  <g id="GRID.text.1825.1.1.scale" transform="scale(1, -1)">
                    <text x="0" y="0" id="GRID.text.1825.1.1.text" text-anchor="middle" stroke="rgb(0,0,0)" font-size="11.04" font-family="Helvetica, Arial, FreeSans, Liberation Sans, Nimbus Sans L, sans-serif" fill="rgb(0,0,0)" stroke-opacity="1" fill-opacity="1" font-weight="normal" font-style="normal">
                      <tspan id="GRID.text.1825.1.1.tspan.1" dy="3.95" x="0">28</tspan>
                    </text>
                  </g>
                </g>
                <g id="GRID.text.1825.1.2" transform="translate(135.9, 260.41)" stroke-width="0.1">
                  <g id="GRID.text.1825.1.2.scale" transform="scale(1, -1)">
                    <text x="0" y="0" id="GRID.text.1825.1.2.text" text-anchor="middle" stroke="rgb(0,0,0)" font-size="11.04" font-family="Helvetica, Arial, FreeSans, Liberation Sans, Nimbus Sans L, sans-serif" fill="rgb(0,0,0)" stroke-opacity="1" fill-opacity="1" font-weight="normal" font-style="normal">
                      <tspan id="GRID.text.1825.1.2.tspan.1" dy="3.95" x="0">22</tspan>
                    </text>
                  </g>
                </g>
              </g>
              <g id="GRID.gTree.1826.1" class="gTree grob gDesc"/>
            </g>
          </g>
          <g id="layout::spacer.8-6-8-6.1" class="viewport"/>
          <g id="layout::spacer.8-4-8-4.1" class="viewport"/>
          <g id="layout::spacer.6-6-6-6.1" class="viewport"/>
          <g id="layout::spacer.6-4-6-4.1" class="viewport"/>
          <g id="layout::axis-t.6-5-6-5.1" class="viewport"/>
          <g id="layout::axis-l.7-4-7-4.1" class="viewport">
            <g id="layout::axis-l.7-4-7-4::GRID.VP.416.1" class="viewport">
              <g id="axis-l.7-4-7-4.1" class="forcedgrob gTableChild absoluteGrob gTree grob gDesc">
                <g id="layout::axis-l.7-4-7-4::GRID.VP.416::axis.1" class="viewport">
                  <g id="axis.1" class="forcedgrob gtable gTree grob gDesc">
                    <g id="layout::axis-l.7-4-7-4::GRID.VP.416::axis::axis.1-1-1-1.1" class="viewport"/>
                    <g id="layout::axis-l.7-4-7-4::GRID.VP.416::axis::axis.1-2-1-2.1" class="viewport"/>
                  </g>
                </g>
              </g>
            </g>
          </g>
          <g id="layout::axis-r.7-6-7-6.1" class="viewport"/>
          <g id="layout::axis-b.8-5-8-5.1" class="viewport">
            <g id="layout::axis-b.8-5-8-5::GRID.VP.415.1" class="viewport">
              <g id="axis-b.8-5-8-5.1" class="forcedgrob gTableChild absoluteGrob gTree grob gDesc">
                <g id="layout::axis-b.8-5-8-5::GRID.VP.415::axis.1" class="viewport">
                  <g id="axis.2" class="forcedgrob gtable gTree grob gDesc">
                    <g id="layout::axis-b.8-5-8-5::GRID.VP.415::axis::axis.1-1-1-1.1" class="viewport"/>
                    <g id="layout::axis-b.8-5-8-5::GRID.VP.415::axis::axis.2-1-2-1.1" class="viewport"/>
                  </g>
                </g>
              </g>
            </g>
          </g>
          <g id="layout::xlab-t.5-5-5-5.1" class="viewport"/>
          <g id="layout::xlab-b.9-5-9-5.1" class="viewport"/>
          <g id="layout::ylab-l.7-3-7-3.1" class="viewport"/>
          <g id="layout::ylab-r.7-7-7-7.1" class="viewport"/>
          <g id="layout::guide-box.7-9-7-9.1" class="viewport">
            <g id="layout::guide-box.7-9-7-9::GRID.VP.424.1" class="viewport">
              <g id="layout::guide-box.7-9-7-9::GRID.VP.424::guide-box.7-9-7-9.1" class="viewport">
                <g id="guide-box.7-9-7-9.1" class="forcedgrob gTableChild gtable gTree grob gDesc">
                  <g id="layout::guide-box.7-9-7-9::GRID.VP.424::guide-box.7-9-7-9::legend.box.background.2-4-4-2.1" class="viewport"/>
                  <g id="layout::guide-box.7-9-7-9::GRID.VP.424::guide-box.7-9-7-9::guides.3-3-3-3.1" class="viewport">
                    <g id="layout::guide-box.7-9-7-9::GRID.VP.424::guide-box.7-9-7-9::guides.3-3-3-3::GRID.VP.423.1" class="viewport">
                      <g id="layout::guide-box.7-9-7-9::GRID.VP.424::guide-box.7-9-7-9::guides.3-3-3-3::GRID.VP.423::guides.3-3-3-3.1" class="viewport">
                        <g id="guides.3-3-3-3.1" class="forcedgrob gTableChild gtable gTree grob gDesc">
                          <g id="layout::guide-box.7-9-7-9::GRID.VP.424::guide-box.7-9-7-9::guides.3-3-3-3::GRID.VP.423::guides.3-3-3-3::background.1-6-6-1.1" class="viewport">
                            <g id="background.1-6-6-1.1" class="forcedgrob gTableChild rect grob gDesc">
                              <rect id="background.1-6-6-1.1.1" x="439.8" y="219.14" width="58.72" height="51" transform="" stroke-width="1.07" stroke="none" fill="rgb(255,255,255)" stroke-dasharray="none" stroke-opacity="0" fill-opacity="1"/>
                            </g>
                          </g>
                          <g id="layout::guide-box.7-9-7-9::GRID.VP.424::guide-box.7-9-7-9::guides.3-3-3-3::GRID.VP.423::guides.3-3-3-3::title.2-5-2-2.1" class="viewport"/>
                          <g id="layout::guide-box.7-9-7-9::GRID.VP.424::guide-box.7-9-7-9::guides.3-3-3-3::GRID.VP.423::guides.3-3-3-3::key-3-1-bg.4-2-4-2.1" class="viewport"/>
                          <g id="layout::guide-box.7-9-7-9::GRID.VP.424::guide-box.7-9-7-9::guides.3-3-3-3::GRID.VP.423::guides.3-3-3-3::key-3-1-1.4-2-4-2.1" class="viewport">
                            <g id="key-3-1-1.4-2-4-2.1" class="forcedgrob gTableChild rect grob gDesc">
                              <rect id="key-3-1-1.4-2-4-2.1.1" x="445.99" y="242.61" width="15.86" height="15.86" transform="" stroke="none" fill="rgb(248,118,109)" stroke-dasharray="none" stroke-width="1.07" stroke-linejoin="miter" stroke-opacity="0" fill-opacity="1"/>
                            </g>
                          </g>
                          <g id="layout::guide-box.7-9-7-9::GRID.VP.424::guide-box.7-9-7-9::guides.3-3-3-3::GRID.VP.423::guides.3-3-3-3::key-4-1-bg.5-2-5-2.1" class="viewport"/>
                          <g id="layout::guide-box.7-9-7-9::GRID.VP.424::guide-box.7-9-7-9::guides.3-3-3-3::GRID.VP.423::guides.3-3-3-3::key-4-1-1.5-2-5-2.1" class="viewport">
                            <g id="key-4-1-1.5-2-5-2.1" class="forcedgrob gTableChild rect grob gDesc">
                              <rect id="key-4-1-1.5-2-5-2.1.1" x="445.99" y="225.33" width="15.86" height="15.86" transform="" stroke="none" fill="rgb(0,191,196)" stroke-dasharray="none" stroke-width="1.07" stroke-linejoin="miter" stroke-opacity="0" fill-opacity="1"/>
                            </g>
                          </g>
                          <g id="layout::guide-box.7-9-7-9::GRID.VP.424::guide-box.7-9-7-9::guides.3-3-3-3::GRID.VP.423::guides.3-3-3-3::label-3-3.4-4-4-4.1" class="viewport">
                            <g id="layout::guide-box.7-9-7-9::GRID.VP.424::guide-box.7-9-7-9::guides.3-3-3-3::GRID.VP.423::guides.3-3-3-3::label-3-3.4-4-4-4::GRID.VP.421.1" class="viewport">
                              <g id="label-3-3.4-4-4-4.1" class="forcedgrob gTableChild gTree grob gDesc">
                                <g id="layout::guide-box.7-9-7-9::GRID.VP.424::guide-box.7-9-7-9::guides.3-3-3-3::GRID.VP.423::guides.3-3-3-3::label-3-3.4-4-4-4::GRID.VP.421::GRID.VP.417.1" font-size="8.8" stroke="rgb(0,0,0)" font-family="Helvetica, Arial, FreeSans, Liberation Sans, Nimbus Sans L, sans-serif" stroke-opacity="1" font-weight="normal" font-style="normal" class="viewport">
                                  <g id="layout::guide-box.7-9-7-9::GRID.VP.424::guide-box.7-9-7-9::guides.3-3-3-3::GRID.VP.423::guides.3-3-3-3::label-3-3.4-4-4-4::GRID.VP.421::GRID.VP.417::GRID.VP.418.1" class="viewport">
                                    <g id="guide.label.titleGrob.1849.1" class="titleGrob gTree grob gDesc">
                                      <g id="GRID.text.1847.1" class="text grob gDesc">
                                        <g id="GRID.text.1847.1.1" transform="translate(468.04, 250.54)" stroke-width="0.1">
                                          <g id="GRID.text.1847.1.1.scale" transform="scale(1, -1)">
                                            <text x="0" y="0" id="GRID.text.1847.1.1.text" text-anchor="start" font-size="8.8" stroke="rgb(0,0,0)" font-family="Helvetica, Arial, FreeSans, Liberation Sans, Nimbus Sans L, sans-serif" fill="rgb(0,0,0)" stroke-opacity="1" fill-opacity="1" font-weight="normal" font-style="normal">
                                              <tspan id="GRID.text.1847.1.1.tspan.1" dy="3.23" x="0">N (22)</tspan>
                                            </text>
                                          </g>
                                        </g>
                                      </g>
                                    </g>
                                  </g>
                                </g>
                              </g>
                            </g>
                          </g>
                          <g id="layout::guide-box.7-9-7-9::GRID.VP.424::guide-box.7-9-7-9::guides.3-3-3-3::GRID.VP.423::guides.3-3-3-3::label-4-3.5-4-5-4.1" class="viewport">
                            <g id="layout::guide-box.7-9-7-9::GRID.VP.424::guide-box.7-9-7-9::guides.3-3-3-3::GRID.VP.423::guides.3-3-3-3::label-4-3.5-4-5-4::GRID.VP.422.1" class="viewport">
                              <g id="label-4-3.5-4-5-4.1" class="forcedgrob gTableChild gTree grob gDesc">
                                <g id="layout::guide-box.7-9-7-9::GRID.VP.424::guide-box.7-9-7-9::guides.3-3-3-3::GRID.VP.423::guides.3-3-3-3::label-4-3.5-4-5-4::GRID.VP.422::GRID.VP.419.1" font-size="8.8" stroke="rgb(0,0,0)" font-family="Helvetica, Arial, FreeSans, Liberation Sans, Nimbus Sans L, sans-serif" stroke-opacity="1" font-weight="normal" font-style="normal" class="viewport">
                                  <g id="layout::guide-box.7-9-7-9::GRID.VP.424::guide-box.7-9-7-9::guides.3-3-3-3::GRID.VP.423::guides.3-3-3-3::label-4-3.5-4-5-4::GRID.VP.422::GRID.VP.419::GRID.VP.420.1" class="viewport">
                                    <g id="guide.label.titleGrob.1852.1" class="titleGrob gTree grob gDesc">
                                      <g id="GRID.text.1850.1" class="text grob gDesc">
                                        <g id="GRID.text.1850.1.1" transform="translate(468.04, 233.26)" stroke-width="0.1">
                                          <g id="GRID.text.1850.1.1.scale" transform="scale(1, -1)">
                                            <text x="0" y="0" id="GRID.text.1850.1.1.text" text-anchor="start" font-size="8.8" stroke="rgb(0,0,0)" font-family="Helvetica, Arial, FreeSans, Liberation Sans, Nimbus Sans L, sans-serif" fill="rgb(0,0,0)" stroke-opacity="1" fill-opacity="1" font-weight="normal" font-style="normal">
                                              <tspan id="GRID.text.1850.1.1.tspan.1" dy="3.23" x="0">S (28)</tspan>
                                            </text>
                                          </g>
                                        </g>
                                      </g>
                                    </g>
                                  </g>
                                </g>
                              </g>
                            </g>
                          </g>
                        </g>
                      </g>
                    </g>
                  </g>
                </g>
              </g>
            </g>
          </g>
          <g id="layout::subtitle.4-5-4-5.1" class="viewport"/>
          <g id="layout::title.3-5-3-5.1" class="viewport">
            <g id="layout::title.3-5-3-5::GRID.VP.425.1" font-size="13.2" stroke="rgb(102,102,102)" font-family="Helvetica, Arial, FreeSans, Liberation Sans, Nimbus Sans L, sans-serif" stroke-opacity="1" font-weight="normal" font-style="normal" class="viewport">
              <g id="layout::title.3-5-3-5::GRID.VP.425::GRID.VP.426.1" class="viewport">
                <g id="title.3-5-3-5.1" class="forcedgrob gTableChild titleGrob gTree grob gDesc">
                  <g id="GRID.text.1861.1" class="text grob gDesc">
                    <g id="GRID.text.1861.1.1" transform="translate(218.53, 472.41)" stroke-width="0.1">
                      <g id="GRID.text.1861.1.1.scale" transform="scale(1, -1)">
                        <text x="0" y="0" id="GRID.text.1861.1.1.text" text-anchor="middle" font-size="13.2" stroke="rgb(102,102,102)" font-family="Helvetica, Arial, FreeSans, Liberation Sans, Nimbus Sans L, sans-serif" fill="rgb(102,102,102)" stroke-opacity="1" fill-opacity="1" font-weight="normal" font-style="normal">
                          <tspan id="GRID.text.1861.1.1.tspan.1" dy="9.33" x="0">anagrafica espertouniversita</tspan>
                        </text>
                      </g>
                    </g>
                  </g>
                </g>
              </g>
            </g>
          </g>
          <g id="layout::caption.10-5-10-5.1" class="viewport"/>
          <g id="layout::tag.2-2-2-2.1" class="viewport"/>
        </g>
      </g>
    </g>
  </g>
</svg>