<?xml version="1.0" encoding="UTF-8"?>
<svg xmlns="http://www.w3.org/2000/svg" xmlns:xlink="http://www.w3.org/1999/xlink" width="504px" height="504px" viewBox="0 0 504 504" version="1.1">
  <metadata xmlns:gridsvg="http://www.stat.auckland.ac.nz/~paul/R/gridSVG/">
    <gridsvg:generator name="gridSVG" version="1.6-0" time="2019-01-14 15:48:13"/>
    <gridsvg:argument name="name" value="./latest_informaggio_csv/anziani/risultati/svg/anagrafica-totali-espertoliceo.svg"/>
    <gridsvg:argument name="exportCoords" value="none"/>
    <gridsvg:argument name="exportMappings" value="none"/>
    <gridsvg:argument name="exportJS" value="none"/>
    <gridsvg:argument name="res" value="72"/>
    <gridsvg:argument name="prefix" value=""/>
    <gridsvg:argument name="addClasses" value="TRUE"/>
    <gridsvg:argument name="indent" value="TRUE"/>
    <gridsvg:argument name="htmlWrapper" value="FALSE"/>
    <gridsvg:argument name="usePaths" value="vpPaths"/>
    <gridsvg:argument name="uniqueNames" value="TRUE"/>
    <gridsvg:separator name="id.sep" value="."/>
    <gridsvg:separator name="gPath.sep" value="::"/>
    <gridsvg:separator name="vpPath.sep" value="::"/>
  </metadata>
  <g transform="translate(0, 504) scale(1, -1)">
    <g id="gridSVG" fill="none" stroke="rgb(0,0,0)" stroke-dasharray="none" stroke-width="0.75" font-size="12" font-family="Helvetica, Arial, FreeSans, Liberation Sans, Nimbus Sans L, sans-serif" opacity="1" stroke-linecap="round" stroke-linejoin="round" stroke-miterlimit="10" stroke-opacity="1" fill-opacity="0" font-weight="normal" font-style="normal">
      <g id="layout.1" class="viewport">
        <g id="layout.2" class="forcedgrob gtable gTree grob gDesc">
          <defs>
            <clipPath id="layout::background.1-11-12-1.1.clipPath">
              <rect x="0" y="16.86" width="504" height="470.28" fill="none" stroke="none"/>
            </clipPath>
          </defs>
          <g id="layout::background.1-11-12-1.1" clip-path="url(#layout::background.1-11-12-1.1.clipPath)" class="viewport">
            <g id="background.1-11-12-1.1" class="forcedgrob gTableChild rect grob gDesc">
              <rect id="background.1-11-12-1.1.1" x="0" y="16.86" width="504" height="470.28" transform="" stroke-width="1.07" stroke="rgb(255,255,255)" fill="rgb(255,255,255)" stroke-dasharray="none" stroke-opacity="1" fill-opacity="1"/>
            </g>
          </g>
          <defs>
            <clipPath id="layout::panel.7-5-7-5.1.clipPath">
              <rect x="8.22" y="25.08" width="439.13" height="439.13" fill="none" stroke="none"/>
            </clipPath>
          </defs>
          <g id="layout::panel.7-5-7-5.1" clip-path="url(#layout::panel.7-5-7-5.1.clipPath)" class="viewport">
            <g id="panel.7-5-7-5.1" class="forcedgrob gTableChild gTree grob gDesc">
              <g id="grill.gTree.1875.1" class="gTree grob gDesc">
                <g id="panel.background..rect.1871.1" class="rect grob gDesc">
                  <rect id="panel.background..rect.1871.1.1" x="8.22" y="25.08" width="439.13" height="439.13" transform="" stroke-width="1.07" stroke="none" fill="rgb(255,255,255)" stroke-dasharray="none" stroke-opacity="0" fill-opacity="1"/>
                </g>
              </g>
              <g id="bar.gTree.1864.1" class="gTree grob gDesc">
                <g id="geom_polygon.polygon.1860.1" class="polygon grob gDesc">
                  <polygon id="geom_polygon.polygon.1860.1.1" points="227.78,244.64 222.54,241.61 217.29,238.59 212.05,235.56 206.8,232.53 201.56,229.5 196.31,226.47 191.06,223.44 185.82,220.42 180.57,217.39 175.33,214.36 170.08,211.33 164.84,208.3 159.59,205.27 154.35,202.24 149.1,199.22 143.86,196.19 138.61,193.16 133.36,190.13 128.12,187.1 122.87,184.07 117.63,181.05 112.38,178.02 107.14,174.99 101.89,171.96 96.65,168.93 91.4,165.9 86.16,162.87 80.91,159.85 75.66,156.82 78.74,151.69 81.99,146.67 85.41,141.76 89,136.97 92.75,132.31 96.65,127.78 100.7,123.38 104.91,119.12 109.25,115.01 113.73,111.05 118.35,107.25 123.09,103.6 127.95,100.12 132.93,96.8 138.02,93.66 143.21,90.69 148.51,87.9 153.89,85.29 159.36,82.87 164.9,80.63 170.53,78.59 176.21,76.73 181.96,75.07 187.76,73.61 193.61,72.35 199.49,71.29 205.41,70.42 211.36,69.76 217.32,69.3 223.3,69.05 229.28,69 235.26,69.15 241.23,69.51 247.18,70.07 253.12,70.83 259.02,71.79 264.89,72.96 270.71,74.32 276.49,75.88 282.2,77.64 287.86,79.59 293.44,81.73 298.95,84.06 304.38,86.57 309.72,89.27 314.96,92.15 320.1,95.21 325.14,98.44 330.06,101.84 334.86,105.4 339.54,109.13 344.09,113.01 348.5,117.05 352.78,121.24 356.91,125.56 360.89,130.03 364.71,134.63 368.38,139.35 371.88,144.2 375.22,149.17 378.38,154.24 381.37,159.42 384.19,164.7 386.82,170.07 389.26,175.53 391.52,181.07 393.59,186.68 395.47,192.36 397.15,198.1 398.64,203.89 399.93,209.73 401.02,215.62 401.91,221.53 402.59,227.47 403.07,233.43 403.35,239.41 403.43,245.39 403.3,251.37 402.97,257.34 402.44,263.3 401.7,269.24 400.76,275.14 399.63,281.02 398.29,286.85 396.75,292.63 395.02,298.35 393.09,304.02 390.98,309.61 388.67,315.13 386.18,320.57 383.5,325.92 380.64,331.17 377.61,336.32 374.4,341.37 371.02,346.31 367.48,351.13 363.77,355.82 359.9,360.39 355.89,364.82 351.72,369.11 347.41,373.26 342.96,377.26 338.38,381.1 333.67,384.79 328.84,388.31 323.89,391.67 318.83,394.86 313.66,397.87 308.39,400.71 303.03,403.36 297.58,405.83 292.05,408.11 286.45,410.21 280.78,412.11 275.05,413.82 269.26,415.33 263.42,416.64 257.55,417.75 251.64,418.67 245.7,419.38 239.74,419.89 233.76,420.19 227.78,420.29 227.78,414.24 227.78,408.18 227.78,402.12 227.78,396.07 227.78,390.01 227.78,383.95 227.78,377.9 227.78,371.84 227.78,365.78 227.78,359.72 227.78,353.67 227.78,347.61 227.78,341.55 227.78,335.5 227.78,329.44 227.78,323.38 227.78,317.33 227.78,311.27 227.78,305.21 227.78,299.16 227.78,293.1 227.78,287.04 227.78,280.98 227.78,274.93 227.78,268.87 227.78,262.81 227.78,256.76 227.78,250.7 227.78,244.64 227.78,244.64" stroke="none" fill="rgb(0,191,196)" stroke-width="1.07" stroke-dasharray="none" stroke-opacity="0" fill-opacity="1"/>
                </g>
                <g id="geom_polygon.polygon.1862.1" class="polygon grob gDesc">
                  <polygon id="geom_polygon.polygon.1862.1.1" points="227.78,244.64 227.78,250.7 227.78,256.76 227.78,262.81 227.78,268.87 227.78,274.93 227.78,280.98 227.78,287.04 227.78,293.1 227.78,299.16 227.78,305.21 227.78,311.27 227.78,317.33 227.78,323.38 227.78,329.44 227.78,335.5 227.78,341.55 227.78,347.61 227.78,353.67 227.78,359.72 227.78,365.78 227.78,371.84 227.78,377.9 227.78,383.95 227.78,390.01 227.78,396.07 227.78,402.12 227.78,408.18 227.78,414.24 227.78,420.29 221.75,420.19 215.73,419.88 209.72,419.36 203.73,418.64 197.78,417.71 191.85,416.58 185.97,415.24 180.14,413.71 174.36,411.97 168.65,410.04 163.01,407.91 157.44,405.59 151.96,403.09 146.56,400.39 141.27,397.51 136.07,394.45 130.98,391.21 126.01,387.8 121.15,384.23 116.42,380.48 111.83,376.58 107.37,372.52 103.05,368.31 98.87,363.96 94.86,359.46 90.99,354.83 87.29,350.07 83.75,345.19 80.39,340.18 77.19,335.07 74.18,329.84 71.35,324.52 68.7,319.1 66.23,313.6 63.96,308.01 61.88,302.35 60,296.62 58.31,290.83 56.83,284.99 55.54,279.1 54.46,273.16 53.59,267.2 52.91,261.2 52.45,255.19 52.19,249.17 52.14,243.14 52.29,237.11 52.66,231.09 53.22,225.08 54,219.1 54.98,213.15 56.16,207.24 57.55,201.37 59.13,195.55 60.92,189.79 62.9,184.1 65.07,178.47 67.44,172.92 70,167.46 72.74,162.09 75.66,156.82 80.91,159.85 86.16,162.87 91.4,165.9 96.65,168.93 101.89,171.96 107.14,174.99 112.38,178.02 117.63,181.05 122.87,184.07 128.12,187.1 133.36,190.13 138.61,193.16 143.86,196.19 149.1,199.22 154.35,202.24 159.59,205.27 164.84,208.3 170.08,211.33 175.33,214.36 180.57,217.39 185.82,220.42 191.06,223.44 196.31,226.47 201.56,229.5 206.8,232.53 212.05,235.56 217.29,238.59 222.54,241.61 227.78,244.64 227.78,244.64" stroke="none" fill="rgb(248,118,109)" stroke-width="1.07" stroke-dasharray="none" stroke-opacity="0" fill-opacity="1"/>
                </g>
              </g>
              <g id="GRID.text.1865.1" class="text grob gDesc">
                <g id="GRID.text.1865.1.1" transform="translate(303.84, 200.73)" stroke-width="0.1">
                  <g id="GRID.text.1865.1.1.scale" transform="scale(1, -1)">
                    <text x="0" y="0" id="GRID.text.1865.1.1.text" text-anchor="middle" stroke="rgb(0,0,0)" font-size="11.04" font-family="Helvetica, Arial, FreeSans, Liberation Sans, Nimbus Sans L, sans-serif" fill="rgb(0,0,0)" stroke-opacity="1" fill-opacity="1" font-weight="normal" font-style="normal">
                      <tspan id="GRID.text.1865.1.1.tspan.1" dy="3.95" x="0">32</tspan>
                    </text>
                  </g>
                </g>
                <g id="GRID.text.1865.1.2" transform="translate(151.72, 288.56)" stroke-width="0.1">
                  <g id="GRID.text.1865.1.2.scale" transform="scale(1, -1)">
                    <text x="0" y="0" id="GRID.text.1865.1.2.text" text-anchor="middle" stroke="rgb(0,0,0)" font-size="11.04" font-family="Helvetica, Arial, FreeSans, Liberation Sans, Nimbus Sans L, sans-serif" fill="rgb(0,0,0)" stroke-opacity="1" fill-opacity="1" font-weight="normal" font-style="normal">
                      <tspan id="GRID.text.1865.1.2.tspan.1" dy="3.95" x="0">16</tspan>
                    </text>
                  </g>
                </g>
              </g>
              <g id="GRID.gTree.1866.1" class="gTree grob gDesc"/>
            </g>
          </g>
          <g id="layout::spacer.8-6-8-6.1" class="viewport"/>
          <g id="layout::spacer.8-4-8-4.1" class="viewport"/>
          <g id="layout::spacer.6-6-6-6.1" class="viewport"/>
          <g id="layout::spacer.6-4-6-4.1" class="viewport"/>
          <g id="layout::axis-t.6-5-6-5.1" class="viewport"/>
          <g id="layout::axis-l.7-4-7-4.1" class="viewport">
            <g id="layout::axis-l.7-4-7-4::GRID.VP.431.1" class="viewport">
              <g id="axis-l.7-4-7-4.1" class="forcedgrob gTableChild absoluteGrob gTree grob gDesc">
                <g id="layout::axis-l.7-4-7-4::GRID.VP.431::axis.1" class="viewport">
                  <g id="axis.1" class="forcedgrob gtable gTree grob gDesc">
                    <g id="layout::axis-l.7-4-7-4::GRID.VP.431::axis::axis.1-1-1-1.1" class="viewport"/>
                    <g id="layout::axis-l.7-4-7-4::GRID.VP.431::axis::axis.1-2-1-2.1" class="viewport"/>
                  </g>
                </g>
              </g>
            </g>
          </g>
          <g id="layout::axis-r.7-6-7-6.1" class="viewport"/>
          <g id="layout::axis-b.8-5-8-5.1" class="viewport">
            <g id="layout::axis-b.8-5-8-5::GRID.VP.430.1" class="viewport">
              <g id="axis-b.8-5-8-5.1" class="forcedgrob gTableChild absoluteGrob gTree grob gDesc">
                <g id="layout::axis-b.8-5-8-5::GRID.VP.430::axis.1" class="viewport">
                  <g id="axis.2" class="forcedgrob gtable gTree grob gDesc">
                    <g id="layout::axis-b.8-5-8-5::GRID.VP.430::axis::axis.1-1-1-1.1" class="viewport"/>
                    <g id="layout::axis-b.8-5-8-5::GRID.VP.430::axis::axis.2-1-2-1.1" class="viewport"/>
                  </g>
                </g>
              </g>
            </g>
          </g>
          <g id="layout::xlab-t.5-5-5-5.1" class="viewport"/>
          <g id="layout::xlab-b.9-5-9-5.1" class="viewport"/>
          <g id="layout::ylab-l.7-3-7-3.1" class="viewport"/>
          <g id="layout::ylab-r.7-7-7-7.1" class="viewport"/>
          <g id="layout::guide-box.7-9-7-9.1" class="viewport">
            <g id="layout::guide-box.7-9-7-9::GRID.VP.439.1" class="viewport">
              <g id="layout::guide-box.7-9-7-9::GRID.VP.439::guide-box.7-9-7-9.1" class="viewport">
                <g id="guide-box.7-9-7-9.1" class="forcedgrob gTableChild gtable gTree grob gDesc">
                  <g id="layout::guide-box.7-9-7-9::GRID.VP.439::guide-box.7-9-7-9::legend.box.background.2-4-4-2.1" class="viewport"/>
                  <g id="layout::guide-box.7-9-7-9::GRID.VP.439::guide-box.7-9-7-9::guides.3-3-3-3.1" class="viewport">
                    <g id="layout::guide-box.7-9-7-9::GRID.VP.439::guide-box.7-9-7-9::guides.3-3-3-3::GRID.VP.438.1" class="viewport">
                      <g id="layout::guide-box.7-9-7-9::GRID.VP.439::guide-box.7-9-7-9::guides.3-3-3-3::GRID.VP.438::guides.3-3-3-3.1" class="viewport">
                        <g id="guides.3-3-3-3.1" class="forcedgrob gTableChild gtable gTree grob gDesc">
                          <g id="layout::guide-box.7-9-7-9::GRID.VP.439::guide-box.7-9-7-9::guides.3-3-3-3::GRID.VP.438::guides.3-3-3-3::background.1-6-6-1.1" class="viewport">
                            <g id="background.1-6-6-1.1" class="forcedgrob gTableChild rect grob gDesc">
                              <rect id="background.1-6-6-1.1.1" x="458.3" y="219.14" width="40.22" height="51" transform="" stroke-width="1.07" stroke="none" fill="rgb(255,255,255)" stroke-dasharray="none" stroke-opacity="0" fill-opacity="1"/>
                            </g>
                          </g>
                          <g id="layout::guide-box.7-9-7-9::GRID.VP.439::guide-box.7-9-7-9::guides.3-3-3-3::GRID.VP.438::guides.3-3-3-3::title.2-5-2-2.1" class="viewport"/>
                          <g id="layout::guide-box.7-9-7-9::GRID.VP.439::guide-box.7-9-7-9::guides.3-3-3-3::GRID.VP.438::guides.3-3-3-3::key-3-1-bg.4-2-4-2.1" class="viewport"/>
                          <g id="layout::guide-box.7-9-7-9::GRID.VP.439::guide-box.7-9-7-9::guides.3-3-3-3::GRID.VP.438::guides.3-3-3-3::key-3-1-1.4-2-4-2.1" class="viewport">
                            <g id="key-3-1-1.4-2-4-2.1" class="forcedgrob gTableChild rect grob gDesc">
                              <rect id="key-3-1-1.4-2-4-2.1.1" x="464.49" y="242.61" width="15.86" height="15.86" transform="" stroke="none" fill="rgb(248,118,109)" stroke-dasharray="none" stroke-width="1.07" stroke-linejoin="miter" stroke-opacity="0" fill-opacity="1"/>
                            </g>
                          </g>
                          <g id="layout::guide-box.7-9-7-9::GRID.VP.439::guide-box.7-9-7-9::guides.3-3-3-3::GRID.VP.438::guides.3-3-3-3::key-4-1-bg.5-2-5-2.1" class="viewport"/>
                          <g id="layout::guide-box.7-9-7-9::GRID.VP.439::guide-box.7-9-7-9::guides.3-3-3-3::GRID.VP.438::guides.3-3-3-3::key-4-1-1.5-2-5-2.1" class="viewport">
                            <g id="key-4-1-1.5-2-5-2.1" class="forcedgrob gTableChild rect grob gDesc">
                              <rect id="key-4-1-1.5-2-5-2.1.1" x="464.49" y="225.33" width="15.86" height="15.86" transform="" stroke="none" fill="rgb(0,191,196)" stroke-dasharray="none" stroke-width="1.07" stroke-linejoin="miter" stroke-opacity="0" fill-opacity="1"/>
                            </g>
                          </g>
                          <g id="layout::guide-box.7-9-7-9::GRID.VP.439::guide-box.7-9-7-9::guides.3-3-3-3::GRID.VP.438::guides.3-3-3-3::label-3-3.4-4-4-4.1" class="viewport">
                            <g id="layout::guide-box.7-9-7-9::GRID.VP.439::guide-box.7-9-7-9::guides.3-3-3-3::GRID.VP.438::guides.3-3-3-3::label-3-3.4-4-4-4::GRID.VP.436.1" class="viewport">
                              <g id="label-3-3.4-4-4-4.1" class="forcedgrob gTableChild gTree grob gDesc">
                                <g id="layout::guide-box.7-9-7-9::GRID.VP.439::guide-box.7-9-7-9::guides.3-3-3-3::GRID.VP.438::guides.3-3-3-3::label-3-3.4-4-4-4::GRID.VP.436::GRID.VP.432.1" font-size="8.8" stroke="rgb(0,0,0)" font-family="Helvetica, Arial, FreeSans, Liberation Sans, Nimbus Sans L, sans-serif" stroke-opacity="1" font-weight="normal" font-style="normal" class="viewport">
                                  <g id="layout::guide-box.7-9-7-9::GRID.VP.439::guide-box.7-9-7-9::guides.3-3-3-3::GRID.VP.438::guides.3-3-3-3::label-3-3.4-4-4-4::GRID.VP.436::GRID.VP.432::GRID.VP.433.1" class="viewport">
                                    <g id="guide.label.titleGrob.1889.1" class="titleGrob gTree grob gDesc">
                                      <g id="GRID.text.1887.1" class="text grob gDesc">
                                        <g id="GRID.text.1887.1.1" transform="translate(486.54, 250.54)" stroke-width="0.1">
                                          <g id="GRID.text.1887.1.1.scale" transform="scale(1, -1)">
                                            <text x="0" y="0" id="GRID.text.1887.1.1.text" text-anchor="start" font-size="8.8" stroke="rgb(0,0,0)" font-family="Helvetica, Arial, FreeSans, Liberation Sans, Nimbus Sans L, sans-serif" fill="rgb(0,0,0)" stroke-opacity="1" fill-opacity="1" font-weight="normal" font-style="normal">
                                              <tspan id="GRID.text.1887.1.1.tspan.1" dy="3.23" x="0">N</tspan>
                                            </text>
                                          </g>
                                        </g>
                                      </g>
                                    </g>
                                  </g>
                                </g>
                              </g>
                            </g>
                          </g>
                          <g id="layout::guide-box.7-9-7-9::GRID.VP.439::guide-box.7-9-7-9::guides.3-3-3-3::GRID.VP.438::guides.3-3-3-3::label-4-3.5-4-5-4.1" class="viewport">
                            <g id="layout::guide-box.7-9-7-9::GRID.VP.439::guide-box.7-9-7-9::guides.3-3-3-3::GRID.VP.438::guides.3-3-3-3::label-4-3.5-4-5-4::GRID.VP.437.1" class="viewport">
                              <g id="label-4-3.5-4-5-4.1" class="forcedgrob gTableChild gTree grob gDesc">
                                <g id="layout::guide-box.7-9-7-9::GRID.VP.439::guide-box.7-9-7-9::guides.3-3-3-3::GRID.VP.438::guides.3-3-3-3::label-4-3.5-4-5-4::GRID.VP.437::GRID.VP.434.1" font-size="8.8" stroke="rgb(0,0,0)" font-family="Helvetica, Arial, FreeSans, Liberation Sans, Nimbus Sans L, sans-serif" stroke-opacity="1" font-weight="normal" font-style="normal" class="viewport">
                                  <g id="layout::guide-box.7-9-7-9::GRID.VP.439::guide-box.7-9-7-9::guides.3-3-3-3::GRID.VP.438::guides.3-3-3-3::label-4-3.5-4-5-4::GRID.VP.437::GRID.VP.434::GRID.VP.435.1" class="viewport">
                                    <g id="guide.label.titleGrob.1892.1" class="titleGrob gTree grob gDesc">
                                      <g id="GRID.text.1890.1" class="text grob gDesc">
                                        <g id="GRID.text.1890.1.1" transform="translate(486.54, 233.26)" stroke-width="0.1">
                                          <g id="GRID.text.1890.1.1.scale" transform="scale(1, -1)">
                                            <text x="0" y="0" id="GRID.text.1890.1.1.text" text-anchor="start" font-size="8.8" stroke="rgb(0,0,0)" font-family="Helvetica, Arial, FreeSans, Liberation Sans, Nimbus Sans L, sans-serif" fill="rgb(0,0,0)" stroke-opacity="1" fill-opacity="1" font-weight="normal" font-style="normal">
                                              <tspan id="GRID.text.1890.1.1.tspan.1" dy="3.23" x="0">S</tspan>
                                            </text>
                                          </g>
                                        </g>
                                      </g>
                                    </g>
                                  </g>
                                </g>
                              </g>
                            </g>
                          </g>
                        </g>
                      </g>
                    </g>
                  </g>
                </g>
              </g>
            </g>
          </g>
          <g id="layout::subtitle.4-5-4-5.1" class="viewport"/>
          <g id="layout::title.3-5-3-5.1" class="viewport">
            <g id="layout::title.3-5-3-5::GRID.VP.440.1" font-size="13.2" stroke="rgb(102,102,102)" font-family="Helvetica, Arial, FreeSans, Liberation Sans, Nimbus Sans L, sans-serif" stroke-opacity="1" font-weight="normal" font-style="normal" class="viewport">
              <g id="layout::title.3-5-3-5::GRID.VP.440::GRID.VP.441.1" class="viewport">
                <g id="title.3-5-3-5.1" class="forcedgrob gTableChild titleGrob gTree grob gDesc">
                  <g id="GRID.text.1901.1" class="text grob gDesc">
                    <g id="GRID.text.1901.1.1" transform="translate(227.78, 481.66)" stroke-width="0.1">
                      <g id="GRID.text.1901.1.1.scale" transform="scale(1, -1)">
                        <text x="0" y="0" id="GRID.text.1901.1.1.text" text-anchor="middle" font-size="13.2" stroke="rgb(102,102,102)" font-family="Helvetica, Arial, FreeSans, Liberation Sans, Nimbus Sans L, sans-serif" fill="rgb(102,102,102)" stroke-opacity="1" fill-opacity="1" font-weight="normal" font-style="normal">
                          <tspan id="GRID.text.1901.1.1.tspan.1" dy="9.33" x="0">anagrafica totali-espertoliceo</tspan>
                        </text>
                      </g>
                    </g>
                  </g>
                </g>
              </g>
            </g>
          </g>
          <g id="layout::caption.10-5-10-5.1" class="viewport"/>
          <g id="layout::tag.2-2-2-2.1" class="viewport"/>
        </g>
      </g>
    </g>
  </g>
</svg>