<?xml version="1.0" encoding="UTF-8"?>
<svg xmlns="http://www.w3.org/2000/svg" xmlns:xlink="http://www.w3.org/1999/xlink" width="504px" height="504px" viewBox="0 0 504 504" version="1.1">
  <metadata xmlns:gridsvg="http://www.stat.auckland.ac.nz/~paul/R/gridSVG/">
    <gridsvg:generator name="gridSVG" version="1.6-0" time="2019-01-14 19:41:11"/>
    <gridsvg:argument name="name" value="./latest_informaggio_csv/anziani/risultati/svg/anagrafica-problemi.svg"/>
    <gridsvg:argument name="exportCoords" value="none"/>
    <gridsvg:argument name="exportMappings" value="none"/>
    <gridsvg:argument name="exportJS" value="none"/>
    <gridsvg:argument name="res" value="72"/>
    <gridsvg:argument name="prefix" value=""/>
    <gridsvg:argument name="addClasses" value="TRUE"/>
    <gridsvg:argument name="indent" value="TRUE"/>
    <gridsvg:argument name="htmlWrapper" value="FALSE"/>
    <gridsvg:argument name="usePaths" value="vpPaths"/>
    <gridsvg:argument name="uniqueNames" value="TRUE"/>
    <gridsvg:separator name="id.sep" value="."/>
    <gridsvg:separator name="gPath.sep" value="::"/>
    <gridsvg:separator name="vpPath.sep" value="::"/>
  </metadata>
  <g transform="translate(0, 504) scale(1, -1)">
    <g id="gridSVG" fill="none" stroke="rgb(0,0,0)" stroke-dasharray="none" stroke-width="0.75" font-size="12" font-family="Helvetica, Arial, FreeSans, Liberation Sans, Nimbus Sans L, sans-serif" opacity="1" stroke-linecap="round" stroke-linejoin="round" stroke-miterlimit="10" stroke-opacity="1" fill-opacity="0" font-weight="normal" font-style="normal">
      <g id="layout.1" class="viewport">
        <g id="layout.2" class="forcedgrob gtable gTree grob gDesc">
          <defs>
            <clipPath id="layout::background.1-11-12-1.1.clipPath">
              <rect x="0" y="25.87" width="504" height="452.27" fill="none" stroke="none"/>
            </clipPath>
          </defs>
          <g id="layout::background.1-11-12-1.1" clip-path="url(#layout::background.1-11-12-1.1.clipPath)" class="viewport">
            <g id="background.1-11-12-1.1" class="forcedgrob gTableChild rect grob gDesc">
              <rect id="background.1-11-12-1.1.1" x="0" y="25.87" width="504" height="452.27" transform="" stroke-width="1.07" stroke="rgb(255,255,255)" fill="rgb(255,255,255)" stroke-dasharray="none" stroke-opacity="1" fill-opacity="1"/>
            </g>
          </g>
          <defs>
            <clipPath id="layout::panel.7-5-7-5.1.clipPath">
              <rect x="8.22" y="34.08" width="421.12" height="421.12" fill="none" stroke="none"/>
            </clipPath>
          </defs>
          <g id="layout::panel.7-5-7-5.1" clip-path="url(#layout::panel.7-5-7-5.1.clipPath)" class="viewport">
            <g id="panel.7-5-7-5.1" class="forcedgrob gTableChild gTree grob gDesc">
              <g id="grill.gTree.2489.1" class="gTree grob gDesc">
                <g id="panel.background..rect.2485.1" class="rect grob gDesc">
                  <rect id="panel.background..rect.2485.1.1" x="8.22" y="34.08" width="421.12" height="421.12" transform="" stroke-width="1.07" stroke="none" fill="rgb(255,255,255)" stroke-dasharray="none" stroke-opacity="0" fill-opacity="1"/>
                </g>
              </g>
              <g id="bar.gTree.2478.1" class="gTree grob gDesc">
                <g id="geom_polygon.polygon.2474.1" class="polygon grob gDesc">
                  <polygon id="geom_polygon.polygon.2474.1.1" points="218.78,244.64 213.41,246.87 208.05,249.09 202.68,251.31 197.31,253.53 191.95,255.76 186.58,257.98 181.21,260.2 175.85,262.43 170.48,264.65 165.11,266.87 159.75,269.09 154.38,271.32 149.01,273.54 143.65,275.76 138.28,277.99 132.92,280.21 127.55,282.43 122.18,284.65 116.82,286.88 111.45,289.1 106.08,291.32 100.72,293.55 95.35,295.77 89.98,297.99 84.62,300.21 79.25,302.44 73.89,304.66 68.52,306.88 63.15,309.1 61.05,303.77 59.13,298.37 57.39,292.91 55.84,287.39 54.48,281.82 53.31,276.21 52.34,270.56 51.55,264.88 50.96,259.18 50.56,253.46 50.36,247.73 50.35,242 50.54,236.27 50.92,230.55 51.5,224.84 52.27,219.16 53.23,213.51 54.39,207.9 55.73,202.33 57.27,196.8 58.99,191.33 60.9,185.93 62.98,180.59 65.25,175.32 67.7,170.14 70.32,165.04 73.12,160.04 76.08,155.13 79.21,150.33 82.5,145.63 85.95,141.05 89.55,136.59 93.3,132.26 97.2,128.05 101.24,123.98 105.41,120.05 109.72,116.27 114.15,112.63 118.7,109.15 123.37,105.82 128.15,102.66 133.03,99.65 138.01,96.82 143.09,94.16 148.26,91.67 153.5,89.36 158.82,87.23 164.21,85.28 169.67,83.51 175.18,81.94 180.74,80.55 186.35,79.35 191.99,78.34 197.67,77.52 203.36,76.9 209.08,76.48 214.81,76.24 220.54,76.21 226.27,76.36 231.99,76.72 237.7,77.26 243.38,78 249.04,78.94 254.66,80.06 260.24,81.38 265.77,82.88 271.25,84.58 276.67,86.46 282.02,88.52 287.29,90.76 292.49,93.18 297.6,95.78 302.62,98.54 307.54,101.48 312.36,104.58 317.07,107.85 321.67,111.27 326.15,114.85 330.5,118.58 334.73,122.46 338.82,126.47 342.77,130.63 346.58,134.91 350.24,139.32 353.75,143.86 357.1,148.51 360.29,153.27 363.32,158.14 366.18,163.11 368.86,168.17 371.38,173.32 373.72,178.56 375.88,183.87 377.85,189.25 379.65,194.69 381.25,200.19 382.67,205.75 383.9,211.35 384.94,216.99 385.78,222.66 386.43,228.35 386.89,234.07 387.15,239.79 387.22,245.53 387.09,251.26 386.77,256.98 386.26,262.69 385.54,268.38 384.64,274.04 383.54,279.67 382.26,285.25 380.78,290.79 379.12,296.28 377.27,301.7 375.23,307.06 373.02,312.35 370.63,317.56 368.06,322.68 365.31,327.72 362.4,332.66 359.32,337.49 356.08,342.22 352.68,346.84 349.13,351.33 345.42,355.71 341.57,359.95 337.58,364.06 333.44,368.04 329.18,371.87 324.78,375.55 320.27,379.08 315.64,382.46 310.89,385.67 306.04,388.73 301.08,391.61 296.04,394.33 290.9,396.87 285.68,399.24 280.38,401.42 275.01,403.43 269.57,405.25 264.08,406.88 258.53,408.33 252.94,409.59 247.3,410.66 241.64,411.53 235.95,412.21 230.23,412.7 224.51,412.99 218.78,413.09 218.78,407.28 218.78,401.47 218.78,395.66 218.78,389.86 218.78,384.05 218.78,378.24 218.78,372.43 218.78,366.62 218.78,360.81 218.78,355 218.78,349.2 218.78,343.39 218.78,337.58 218.78,331.77 218.78,325.96 218.78,320.15 218.78,314.35 218.78,308.54 218.78,302.73 218.78,296.92 218.78,291.11 218.78,285.3 218.78,279.49 218.78,273.69 218.78,267.88 218.78,262.07 218.78,256.26 218.78,250.45 218.78,244.64 218.78,244.64" stroke="none" fill="rgb(0,191,196)" stroke-width="1.07" stroke-dasharray="none" stroke-opacity="0" fill-opacity="1"/>
                </g>
                <g id="geom_polygon.polygon.2476.1" class="polygon grob gDesc">
                  <polygon id="geom_polygon.polygon.2476.1.1" points="218.78,244.64 218.78,250.45 218.78,256.26 218.78,262.07 218.78,267.88 218.78,273.69 218.78,279.49 218.78,285.3 218.78,291.11 218.78,296.92 218.78,302.73 218.78,308.54 218.78,314.35 218.78,320.15 218.78,325.96 218.78,331.77 218.78,337.58 218.78,343.39 218.78,349.2 218.78,355 218.78,360.81 218.78,366.62 218.78,372.43 218.78,378.24 218.78,384.05 218.78,389.86 218.78,395.66 218.78,401.47 218.78,407.28 218.78,413.09 212.94,412.99 207.11,412.69 201.3,412.18 195.51,411.47 189.74,410.57 184.01,409.46 178.32,408.16 172.68,406.66 167.1,404.97 161.57,403.08 156.12,401 150.74,398.74 145.44,396.29 140.23,393.66 135.12,390.85 130.1,387.86 125.19,384.7 120.4,381.38 115.72,377.89 111.17,374.24 106.74,370.43 102.45,366.47 98.3,362.37 94.29,358.13 90.44,353.74 86.73,349.23 83.19,344.6 79.81,339.84 76.6,334.97 73.55,329.99 70.68,324.91 67.99,319.73 65.48,314.46 63.15,309.1 68.52,306.88 73.89,304.66 79.25,302.44 84.62,300.21 89.98,297.99 95.35,295.77 100.72,293.55 106.08,291.32 111.45,289.1 116.82,286.88 122.18,284.65 127.55,282.43 132.92,280.21 138.28,277.99 143.65,275.76 149.01,273.54 154.38,271.32 159.75,269.09 165.11,266.87 170.48,264.65 175.85,262.43 181.21,260.2 186.58,257.98 191.95,255.76 197.31,253.53 202.68,251.31 208.05,249.09 213.41,246.87 218.78,244.64 218.78,244.64" stroke="none" fill="rgb(248,118,109)" stroke-width="1.07" stroke-dasharray="none" stroke-opacity="0" fill-opacity="1"/>
                </g>
              </g>
              <g id="GRID.text.2479.1" class="text grob gDesc">
                <g id="GRID.text.2479.1.1" transform="translate(265.57, 174.61)" stroke-width="0.1">
                  <g id="GRID.text.2479.1.1.scale" transform="scale(1, -1)">
                    <text x="0" y="0" id="GRID.text.2479.1.1.text" text-anchor="middle" stroke="rgb(0,0,0)" font-size="11.04" font-family="Helvetica, Arial, FreeSans, Liberation Sans, Nimbus Sans L, sans-serif" fill="rgb(0,0,0)" stroke-opacity="1" fill-opacity="1" font-weight="normal" font-style="normal">
                      <tspan id="GRID.text.2479.1.1.tspan.1" dy="3.95" x="0">39</tspan>
                    </text>
                  </g>
                </g>
                <g id="GRID.text.2479.1.2" transform="translate(171.99, 314.67)" stroke-width="0.1">
                  <g id="GRID.text.2479.1.2.scale" transform="scale(1, -1)">
                    <text x="0" y="0" id="GRID.text.2479.1.2.text" text-anchor="middle" stroke="rgb(0,0,0)" font-size="11.04" font-family="Helvetica, Arial, FreeSans, Liberation Sans, Nimbus Sans L, sans-serif" fill="rgb(0,0,0)" stroke-opacity="1" fill-opacity="1" font-weight="normal" font-style="normal">
                      <tspan id="GRID.text.2479.1.2.tspan.1" dy="3.95" x="0">9</tspan>
                    </text>
                  </g>
                </g>
              </g>
              <g id="GRID.gTree.2480.1" class="gTree grob gDesc"/>
            </g>
          </g>
          <g id="layout::spacer.8-6-8-6.1" class="viewport"/>
          <g id="layout::spacer.8-4-8-4.1" class="viewport"/>
          <g id="layout::spacer.6-6-6-6.1" class="viewport"/>
          <g id="layout::spacer.6-4-6-4.1" class="viewport"/>
          <g id="layout::axis-t.6-5-6-5.1" class="viewport"/>
          <g id="layout::axis-l.7-4-7-4.1" class="viewport">
            <g id="layout::axis-l.7-4-7-4::GRID.VP.578.1" class="viewport">
              <g id="axis-l.7-4-7-4.1" class="forcedgrob gTableChild absoluteGrob gTree grob gDesc">
                <g id="layout::axis-l.7-4-7-4::GRID.VP.578::axis.1" class="viewport">
                  <g id="axis.1" class="forcedgrob gtable gTree grob gDesc">
                    <g id="layout::axis-l.7-4-7-4::GRID.VP.578::axis::axis.1-1-1-1.1" class="viewport"/>
                    <g id="layout::axis-l.7-4-7-4::GRID.VP.578::axis::axis.1-2-1-2.1" class="viewport"/>
                  </g>
                </g>
              </g>
            </g>
          </g>
          <g id="layout::axis-r.7-6-7-6.1" class="viewport"/>
          <g id="layout::axis-b.8-5-8-5.1" class="viewport">
            <g id="layout::axis-b.8-5-8-5::GRID.VP.577.1" class="viewport">
              <g id="axis-b.8-5-8-5.1" class="forcedgrob gTableChild absoluteGrob gTree grob gDesc">
                <g id="layout::axis-b.8-5-8-5::GRID.VP.577::axis.1" class="viewport">
                  <g id="axis.2" class="forcedgrob gtable gTree grob gDesc">
                    <g id="layout::axis-b.8-5-8-5::GRID.VP.577::axis::axis.1-1-1-1.1" class="viewport"/>
                    <g id="layout::axis-b.8-5-8-5::GRID.VP.577::axis::axis.2-1-2-1.1" class="viewport"/>
                  </g>
                </g>
              </g>
            </g>
          </g>
          <g id="layout::xlab-t.5-5-5-5.1" class="viewport"/>
          <g id="layout::xlab-b.9-5-9-5.1" class="viewport"/>
          <g id="layout::ylab-l.7-3-7-3.1" class="viewport"/>
          <g id="layout::ylab-r.7-7-7-7.1" class="viewport"/>
          <g id="layout::guide-box.7-9-7-9.1" class="viewport">
            <g id="layout::guide-box.7-9-7-9::GRID.VP.586.1" class="viewport">
              <g id="layout::guide-box.7-9-7-9::GRID.VP.586::guide-box.7-9-7-9.1" class="viewport">
                <g id="guide-box.7-9-7-9.1" class="forcedgrob gTableChild gtable gTree grob gDesc">
                  <g id="layout::guide-box.7-9-7-9::GRID.VP.586::guide-box.7-9-7-9::legend.box.background.2-4-4-2.1" class="viewport"/>
                  <g id="layout::guide-box.7-9-7-9::GRID.VP.586::guide-box.7-9-7-9::guides.3-3-3-3.1" class="viewport">
                    <g id="layout::guide-box.7-9-7-9::GRID.VP.586::guide-box.7-9-7-9::guides.3-3-3-3::GRID.VP.585.1" class="viewport">
                      <g id="layout::guide-box.7-9-7-9::GRID.VP.586::guide-box.7-9-7-9::guides.3-3-3-3::GRID.VP.585::guides.3-3-3-3.1" class="viewport">
                        <g id="guides.3-3-3-3.1" class="forcedgrob gTableChild gtable gTree grob gDesc">
                          <g id="layout::guide-box.7-9-7-9::GRID.VP.586::guide-box.7-9-7-9::guides.3-3-3-3::GRID.VP.585::guides.3-3-3-3::background.1-6-6-1.1" class="viewport">
                            <g id="background.1-6-6-1.1" class="forcedgrob gTableChild rect grob gDesc">
                              <rect id="background.1-6-6-1.1.1" x="440.3" y="219.14" width="58.23" height="51" transform="" stroke-width="1.07" stroke="none" fill="rgb(255,255,255)" stroke-dasharray="none" stroke-opacity="0" fill-opacity="1"/>
                            </g>
                          </g>
                          <g id="layout::guide-box.7-9-7-9::GRID.VP.586::guide-box.7-9-7-9::guides.3-3-3-3::GRID.VP.585::guides.3-3-3-3::title.2-5-2-2.1" class="viewport"/>
                          <g id="layout::guide-box.7-9-7-9::GRID.VP.586::guide-box.7-9-7-9::guides.3-3-3-3::GRID.VP.585::guides.3-3-3-3::key-3-1-bg.4-2-4-2.1" class="viewport"/>
                          <g id="layout::guide-box.7-9-7-9::GRID.VP.586::guide-box.7-9-7-9::guides.3-3-3-3::GRID.VP.585::guides.3-3-3-3::key-3-1-1.4-2-4-2.1" class="viewport">
                            <g id="key-3-1-1.4-2-4-2.1" class="forcedgrob gTableChild rect grob gDesc">
                              <rect id="key-3-1-1.4-2-4-2.1.1" x="446.48" y="242.61" width="15.86" height="15.86" transform="" stroke="none" fill="rgb(248,118,109)" stroke-dasharray="none" stroke-width="1.07" stroke-linejoin="miter" stroke-opacity="0" fill-opacity="1"/>
                            </g>
                          </g>
                          <g id="layout::guide-box.7-9-7-9::GRID.VP.586::guide-box.7-9-7-9::guides.3-3-3-3::GRID.VP.585::guides.3-3-3-3::key-4-1-bg.5-2-5-2.1" class="viewport"/>
                          <g id="layout::guide-box.7-9-7-9::GRID.VP.586::guide-box.7-9-7-9::guides.3-3-3-3::GRID.VP.585::guides.3-3-3-3::key-4-1-1.5-2-5-2.1" class="viewport">
                            <g id="key-4-1-1.5-2-5-2.1" class="forcedgrob gTableChild rect grob gDesc">
                              <rect id="key-4-1-1.5-2-5-2.1.1" x="446.48" y="225.33" width="15.86" height="15.86" transform="" stroke="none" fill="rgb(0,191,196)" stroke-dasharray="none" stroke-width="1.07" stroke-linejoin="miter" stroke-opacity="0" fill-opacity="1"/>
                            </g>
                          </g>
                          <g id="layout::guide-box.7-9-7-9::GRID.VP.586::guide-box.7-9-7-9::guides.3-3-3-3::GRID.VP.585::guides.3-3-3-3::label-3-3.4-4-4-4.1" class="viewport">
                            <g id="layout::guide-box.7-9-7-9::GRID.VP.586::guide-box.7-9-7-9::guides.3-3-3-3::GRID.VP.585::guides.3-3-3-3::label-3-3.4-4-4-4::GRID.VP.583.1" class="viewport">
                              <g id="label-3-3.4-4-4-4.1" class="forcedgrob gTableChild gTree grob gDesc">
                                <g id="layout::guide-box.7-9-7-9::GRID.VP.586::guide-box.7-9-7-9::guides.3-3-3-3::GRID.VP.585::guides.3-3-3-3::label-3-3.4-4-4-4::GRID.VP.583::GRID.VP.579.1" font-size="8.8" stroke="rgb(0,0,0)" font-family="Helvetica, Arial, FreeSans, Liberation Sans, Nimbus Sans L, sans-serif" stroke-opacity="1" font-weight="normal" font-style="normal" class="viewport">
                                  <g id="layout::guide-box.7-9-7-9::GRID.VP.586::guide-box.7-9-7-9::guides.3-3-3-3::GRID.VP.585::guides.3-3-3-3::label-3-3.4-4-4-4::GRID.VP.583::GRID.VP.579::GRID.VP.580.1" class="viewport">
                                    <g id="guide.label.titleGrob.2503.1" class="titleGrob gTree grob gDesc">
                                      <g id="GRID.text.2501.1" class="text grob gDesc">
                                        <g id="GRID.text.2501.1.1" transform="translate(468.53, 250.54)" stroke-width="0.1">
                                          <g id="GRID.text.2501.1.1.scale" transform="scale(1, -1)">
                                            <text x="0" y="0" id="GRID.text.2501.1.1.text" text-anchor="start" font-size="8.8" stroke="rgb(0,0,0)" font-family="Helvetica, Arial, FreeSans, Liberation Sans, Nimbus Sans L, sans-serif" fill="rgb(0,0,0)" stroke-opacity="1" fill-opacity="1" font-weight="normal" font-style="normal">
                                              <tspan id="GRID.text.2501.1.1.tspan.1" dy="3.23" x="0">N (9)</tspan>
                                            </text>
                                          </g>
                                        </g>
                                      </g>
                                    </g>
                                  </g>
                                </g>
                              </g>
                            </g>
                          </g>
                          <g id="layout::guide-box.7-9-7-9::GRID.VP.586::guide-box.7-9-7-9::guides.3-3-3-3::GRID.VP.585::guides.3-3-3-3::label-4-3.5-4-5-4.1" class="viewport">
                            <g id="layout::guide-box.7-9-7-9::GRID.VP.586::guide-box.7-9-7-9::guides.3-3-3-3::GRID.VP.585::guides.3-3-3-3::label-4-3.5-4-5-4::GRID.VP.584.1" class="viewport">
                              <g id="label-4-3.5-4-5-4.1" class="forcedgrob gTableChild gTree grob gDesc">
                                <g id="layout::guide-box.7-9-7-9::GRID.VP.586::guide-box.7-9-7-9::guides.3-3-3-3::GRID.VP.585::guides.3-3-3-3::label-4-3.5-4-5-4::GRID.VP.584::GRID.VP.581.1" font-size="8.8" stroke="rgb(0,0,0)" font-family="Helvetica, Arial, FreeSans, Liberation Sans, Nimbus Sans L, sans-serif" stroke-opacity="1" font-weight="normal" font-style="normal" class="viewport">
                                  <g id="layout::guide-box.7-9-7-9::GRID.VP.586::guide-box.7-9-7-9::guides.3-3-3-3::GRID.VP.585::guides.3-3-3-3::label-4-3.5-4-5-4::GRID.VP.584::GRID.VP.581::GRID.VP.582.1" class="viewport">
                                    <g id="guide.label.titleGrob.2506.1" class="titleGrob gTree grob gDesc">
                                      <g id="GRID.text.2504.1" class="text grob gDesc">
                                        <g id="GRID.text.2504.1.1" transform="translate(468.53, 233.26)" stroke-width="0.1">
                                          <g id="GRID.text.2504.1.1.scale" transform="scale(1, -1)">
                                            <text x="0" y="0" id="GRID.text.2504.1.1.text" text-anchor="start" font-size="8.8" stroke="rgb(0,0,0)" font-family="Helvetica, Arial, FreeSans, Liberation Sans, Nimbus Sans L, sans-serif" fill="rgb(0,0,0)" stroke-opacity="1" fill-opacity="1" font-weight="normal" font-style="normal">
                                              <tspan id="GRID.text.2504.1.1.tspan.1" dy="3.23" x="0">S (39)</tspan>
                                            </text>
                                          </g>
                                        </g>
                                      </g>
                                    </g>
                                  </g>
                                </g>
                              </g>
                            </g>
                          </g>
                        </g>
                      </g>
                    </g>
                  </g>
                </g>
              </g>
            </g>
          </g>
          <g id="layout::subtitle.4-5-4-5.1" class="viewport"/>
          <g id="layout::title.3-5-3-5.1" class="viewport">
            <g id="layout::title.3-5-3-5::GRID.VP.587.1" font-size="13.2" stroke="rgb(102,102,102)" font-family="Helvetica, Arial, FreeSans, Liberation Sans, Nimbus Sans L, sans-serif" stroke-opacity="1" font-weight="normal" font-style="normal" class="viewport">
              <g id="layout::title.3-5-3-5::GRID.VP.587::GRID.VP.588.1" class="viewport">
                <g id="title.3-5-3-5.1" class="forcedgrob gTableChild titleGrob gTree grob gDesc">
                  <g id="GRID.text.2515.1" class="text grob gDesc">
                    <g id="GRID.text.2515.1.1" transform="translate(218.78, 472.66)" stroke-width="0.1">
                      <g id="GRID.text.2515.1.1.scale" transform="scale(1, -1)">
                        <text x="0" y="0" id="GRID.text.2515.1.1.text" text-anchor="middle" font-size="13.2" stroke="rgb(102,102,102)" font-family="Helvetica, Arial, FreeSans, Liberation Sans, Nimbus Sans L, sans-serif" fill="rgb(102,102,102)" stroke-opacity="1" fill-opacity="1" font-weight="normal" font-style="normal">
                          <tspan id="GRID.text.2515.1.1.tspan.1" dy="9.33" x="0">anagrafica problemi</tspan>
                        </text>
                      </g>
                    </g>
                  </g>
                </g>
              </g>
            </g>
          </g>
          <g id="layout::caption.10-5-10-5.1" class="viewport"/>
          <g id="layout::tag.2-2-2-2.1" class="viewport"/>
        </g>
      </g>
    </g>
  </g>
</svg>