<?xml version="1.0" encoding="UTF-8"?>
<svg xmlns="http://www.w3.org/2000/svg" xmlns:xlink="http://www.w3.org/1999/xlink" width="504px" height="504px" viewBox="0 0 504 504" version="1.1">
  <metadata xmlns:gridsvg="http://www.stat.auckland.ac.nz/~paul/R/gridSVG/">
    <gridsvg:generator name="gridSVG" version="1.6-0" time="2019-01-18 19:07:09"/>
    <gridsvg:argument name="name" value="./latest_informaggio_csv/anziani/risultati/svg/anagrafica-problemi.svg"/>
    <gridsvg:argument name="exportCoords" value="none"/>
    <gridsvg:argument name="exportMappings" value="none"/>
    <gridsvg:argument name="exportJS" value="none"/>
    <gridsvg:argument name="res" value="72"/>
    <gridsvg:argument name="prefix" value=""/>
    <gridsvg:argument name="addClasses" value="TRUE"/>
    <gridsvg:argument name="indent" value="TRUE"/>
    <gridsvg:argument name="htmlWrapper" value="FALSE"/>
    <gridsvg:argument name="usePaths" value="vpPaths"/>
    <gridsvg:argument name="uniqueNames" value="TRUE"/>
    <gridsvg:separator name="id.sep" value="."/>
    <gridsvg:separator name="gPath.sep" value="::"/>
    <gridsvg:separator name="vpPath.sep" value="::"/>
  </metadata>
  <g transform="translate(0, 504) scale(1, -1)">
    <g id="gridSVG" fill="none" stroke="rgb(0,0,0)" stroke-dasharray="none" stroke-width="0.75" font-size="12" font-family="Helvetica, Arial, FreeSans, Liberation Sans, Nimbus Sans L, sans-serif" opacity="1" stroke-linecap="round" stroke-linejoin="round" stroke-miterlimit="10" stroke-opacity="1" fill-opacity="0" font-weight="normal" font-style="normal">
      <g id="layout.1" class="viewport">
        <g id="layout.2" class="forcedgrob gtable gTree grob gDesc">
          <defs>
            <clipPath id="layout::background.1-11-12-1.1.clipPath">
              <rect x="0" y="26.11" width="504" height="451.77" fill="none" stroke="none"/>
            </clipPath>
          </defs>
          <g id="layout::background.1-11-12-1.1" clip-path="url(#layout::background.1-11-12-1.1.clipPath)" class="viewport">
            <g id="background.1-11-12-1.1" class="forcedgrob gTableChild rect grob gDesc">
              <rect id="background.1-11-12-1.1.1" x="0" y="26.11" width="504" height="451.77" transform="" stroke-width="1.07" stroke="rgb(255,255,255)" fill="rgb(255,255,255)" stroke-dasharray="none" stroke-opacity="1" fill-opacity="1"/>
            </g>
          </g>
          <defs>
            <clipPath id="layout::panel.7-5-7-5.1.clipPath">
              <rect x="8.22" y="34.33" width="420.62" height="420.62" fill="none" stroke="none"/>
            </clipPath>
          </defs>
          <g id="layout::panel.7-5-7-5.1" clip-path="url(#layout::panel.7-5-7-5.1.clipPath)" class="viewport">
            <g id="panel.7-5-7-5.1" class="forcedgrob gTableChild gTree grob gDesc">
              <g id="grill.gTree.2401.1" class="gTree grob gDesc">
                <g id="panel.background..rect.2397.1" class="rect grob gDesc">
                  <rect id="panel.background..rect.2397.1.1" x="8.22" y="34.33" width="420.62" height="420.62" transform="" stroke-width="1.07" stroke="none" fill="rgb(255,255,255)" stroke-dasharray="none" stroke-opacity="0" fill-opacity="1"/>
                </g>
              </g>
              <g id="bar.gTree.2390.1" class="gTree grob gDesc">
                <g id="geom_polygon.polygon.2386.1" class="polygon grob gDesc">
                  <polygon id="geom_polygon.polygon.2386.1.1" points="218.53,244.64 213.01,246.44 207.49,248.23 201.98,250.02 196.46,251.81 190.94,253.61 185.42,255.4 179.91,257.19 174.39,258.99 168.87,260.78 163.35,262.57 157.84,264.36 152.32,266.16 146.8,267.95 141.28,269.74 135.76,271.54 130.25,273.33 124.73,275.12 119.21,276.91 113.69,278.71 108.18,280.5 102.66,282.29 97.14,284.09 91.62,285.88 86.1,287.67 80.59,289.46 75.07,291.26 69.55,293.05 64.03,294.84 58.52,296.63 56.84,291.17 55.36,285.65 54.06,280.09 52.95,274.48 52.03,268.84 51.31,263.18 50.77,257.49 50.43,251.78 50.29,246.07 50.34,240.36 50.58,234.65 51.01,228.95 51.64,223.27 52.47,217.62 53.48,211.99 54.68,206.41 56.08,200.87 57.66,195.38 59.42,189.94 61.37,184.57 63.5,179.27 65.81,174.04 68.3,168.9 70.96,163.84 73.78,158.87 76.78,154.01 79.94,149.25 83.26,144.6 86.73,140.06 90.36,135.65 94.14,131.36 98.05,127.2 102.11,123.17 106.3,119.29 110.63,115.55 115.07,111.96 119.64,108.53 124.32,105.25 129.1,102.13 133.99,99.17 138.98,96.39 144.06,93.77 149.23,91.33 154.47,89.07 159.79,86.98 165.18,85.08 170.63,83.36 176.14,81.82 181.69,80.48 187.28,79.32 192.92,78.36 198.58,77.58 204.26,77 209.96,76.61 215.67,76.42 221.39,76.42 227.1,76.61 232.8,77 238.48,77.58 244.14,78.36 249.78,79.32 255.37,80.48 260.93,81.82 266.43,83.36 271.88,85.08 277.27,86.98 282.59,89.07 287.83,91.33 293,93.77 298.08,96.39 303.07,99.17 307.96,102.13 312.75,105.25 317.42,108.53 321.99,111.96 326.44,115.55 330.76,119.29 334.95,123.17 339.01,127.2 342.92,131.36 346.7,135.65 350.33,140.06 353.8,144.6 357.12,149.25 360.28,154.01 363.28,158.87 366.11,163.84 368.76,168.9 371.25,174.04 373.56,179.27 375.69,184.57 377.64,189.94 379.4,195.38 380.98,200.87 382.38,206.41 383.58,211.99 384.59,217.62 385.42,223.27 386.05,228.95 386.48,234.65 386.72,240.36 386.77,246.07 386.63,251.78 386.29,257.49 385.76,263.18 385.03,268.84 384.11,274.48 383,280.09 381.7,285.65 380.22,291.17 378.54,296.63 376.69,302.04 374.65,307.38 372.43,312.64 370.03,317.83 367.46,322.93 364.71,327.94 361.8,332.86 358.72,337.67 355.48,342.38 352.08,346.97 348.53,351.45 344.83,355.8 340.98,360.03 336.99,364.12 332.87,368.07 328.61,371.88 324.23,375.55 319.72,379.06 315.1,382.42 310.36,385.62 305.52,388.66 300.58,391.53 295.55,394.23 290.43,396.76 285.22,399.11 279.94,401.29 274.58,403.28 269.16,405.09 263.68,406.72 258.15,408.16 252.58,409.41 246.96,410.47 241.32,411.34 235.64,412.02 229.95,412.5 224.24,412.79 218.53,412.89 218.53,407.09 218.53,401.29 218.53,395.49 218.53,389.69 218.53,383.88 218.53,378.08 218.53,372.28 218.53,366.48 218.53,360.68 218.53,354.88 218.53,349.07 218.53,343.27 218.53,337.47 218.53,331.67 218.53,325.87 218.53,320.07 218.53,314.26 218.53,308.46 218.53,302.66 218.53,296.86 218.53,291.06 218.53,285.25 218.53,279.45 218.53,273.65 218.53,267.85 218.53,262.05 218.53,256.25 218.53,250.44 218.53,244.64 218.53,244.64" stroke="none" fill="rgb(0,191,196)" stroke-width="1.07" stroke-dasharray="none" stroke-opacity="0" fill-opacity="1"/>
                </g>
                <g id="geom_polygon.polygon.2388.1" class="polygon grob gDesc">
                  <polygon id="geom_polygon.polygon.2388.1.1" points="218.53,244.64 218.53,250.44 218.53,256.25 218.53,262.05 218.53,267.85 218.53,273.65 218.53,279.45 218.53,285.25 218.53,291.06 218.53,296.86 218.53,302.66 218.53,308.46 218.53,314.26 218.53,320.07 218.53,325.87 218.53,331.67 218.53,337.47 218.53,343.27 218.53,349.07 218.53,354.88 218.53,360.68 218.53,366.48 218.53,372.28 218.53,378.08 218.53,383.88 218.53,389.69 218.53,395.49 218.53,401.29 218.53,407.09 218.53,412.89 212.82,412.79 207.11,412.5 201.42,412.02 195.74,411.34 190.1,410.47 184.48,409.41 178.91,408.16 173.38,406.72 167.9,405.09 162.48,403.28 157.13,401.29 151.84,399.11 146.63,396.76 141.51,394.23 136.48,391.53 131.54,388.66 126.7,385.62 121.96,382.42 117.34,379.06 112.83,375.55 108.45,371.88 104.19,368.07 100.07,364.12 96.08,360.03 92.23,355.8 88.53,351.45 84.98,346.97 81.58,342.38 78.34,337.67 75.26,332.86 72.35,327.94 69.6,322.93 67.03,317.83 64.63,312.64 62.41,307.38 60.37,302.04 58.52,296.63 64.03,294.84 69.55,293.05 75.07,291.26 80.59,289.46 86.1,287.67 91.62,285.88 97.14,284.09 102.66,282.29 108.18,280.5 113.69,278.71 119.21,276.91 124.73,275.12 130.25,273.33 135.76,271.54 141.28,269.74 146.8,267.95 152.32,266.16 157.84,264.36 163.35,262.57 168.87,260.78 174.39,258.99 179.91,257.19 185.42,255.4 190.94,253.61 196.46,251.81 201.98,250.02 207.49,248.23 213.01,246.44 218.53,244.64 218.53,244.64" stroke="none" fill="rgb(248,118,109)" stroke-width="1.07" stroke-dasharray="none" stroke-opacity="0" fill-opacity="1"/>
                </g>
              </g>
              <g id="GRID.text.2391.1" class="text grob gDesc">
                <g id="GRID.text.2391.1.1" transform="translate(267.98, 176.59)" stroke-width="0.1">
                  <g id="GRID.text.2391.1.1.scale" transform="scale(1, -1)">
                    <text x="0" y="0" id="GRID.text.2391.1.1.text" text-anchor="middle" stroke="rgb(0,0,0)" font-size="11.04" font-family="Helvetica, Arial, FreeSans, Liberation Sans, Nimbus Sans L, sans-serif" fill="rgb(0,0,0)" stroke-opacity="1" fill-opacity="1" font-weight="normal" font-style="normal">
                      <tspan id="GRID.text.2391.1.1.tspan.1" dy="3.95" x="0">40</tspan>
                    </text>
                  </g>
                </g>
                <g id="GRID.text.2391.1.2" transform="translate(169.08, 312.7)" stroke-width="0.1">
                  <g id="GRID.text.2391.1.2.scale" transform="scale(1, -1)">
                    <text x="0" y="0" id="GRID.text.2391.1.2.text" text-anchor="middle" stroke="rgb(0,0,0)" font-size="11.04" font-family="Helvetica, Arial, FreeSans, Liberation Sans, Nimbus Sans L, sans-serif" fill="rgb(0,0,0)" stroke-opacity="1" fill-opacity="1" font-weight="normal" font-style="normal">
                      <tspan id="GRID.text.2391.1.2.tspan.1" dy="3.95" x="0">10</tspan>
                    </text>
                  </g>
                </g>
              </g>
              <g id="GRID.gTree.2392.1" class="gTree grob gDesc"/>
            </g>
          </g>
          <g id="layout::spacer.8-6-8-6.1" class="viewport"/>
          <g id="layout::spacer.8-4-8-4.1" class="viewport"/>
          <g id="layout::spacer.6-6-6-6.1" class="viewport"/>
          <g id="layout::spacer.6-4-6-4.1" class="viewport"/>
          <g id="layout::axis-t.6-5-6-5.1" class="viewport"/>
          <g id="layout::axis-l.7-4-7-4.1" class="viewport">
            <g id="layout::axis-l.7-4-7-4::GRID.VP.554.1" class="viewport">
              <g id="axis-l.7-4-7-4.1" class="forcedgrob gTableChild absoluteGrob gTree grob gDesc">
                <g id="layout::axis-l.7-4-7-4::GRID.VP.554::axis.1" class="viewport">
                  <g id="axis.1" class="forcedgrob gtable gTree grob gDesc">
                    <g id="layout::axis-l.7-4-7-4::GRID.VP.554::axis::axis.1-1-1-1.1" class="viewport"/>
                    <g id="layout::axis-l.7-4-7-4::GRID.VP.554::axis::axis.1-2-1-2.1" class="viewport"/>
                  </g>
                </g>
              </g>
            </g>
          </g>
          <g id="layout::axis-r.7-6-7-6.1" class="viewport"/>
          <g id="layout::axis-b.8-5-8-5.1" class="viewport">
            <g id="layout::axis-b.8-5-8-5::GRID.VP.553.1" class="viewport">
              <g id="axis-b.8-5-8-5.1" class="forcedgrob gTableChild absoluteGrob gTree grob gDesc">
                <g id="layout::axis-b.8-5-8-5::GRID.VP.553::axis.1" class="viewport">
                  <g id="axis.2" class="forcedgrob gtable gTree grob gDesc">
                    <g id="layout::axis-b.8-5-8-5::GRID.VP.553::axis::axis.1-1-1-1.1" class="viewport"/>
                    <g id="layout::axis-b.8-5-8-5::GRID.VP.553::axis::axis.2-1-2-1.1" class="viewport"/>
                  </g>
                </g>
              </g>
            </g>
          </g>
          <g id="layout::xlab-t.5-5-5-5.1" class="viewport"/>
          <g id="layout::xlab-b.9-5-9-5.1" class="viewport"/>
          <g id="layout::ylab-l.7-3-7-3.1" class="viewport"/>
          <g id="layout::ylab-r.7-7-7-7.1" class="viewport"/>
          <g id="layout::guide-box.7-9-7-9.1" class="viewport">
            <g id="layout::guide-box.7-9-7-9::GRID.VP.562.1" class="viewport">
              <g id="layout::guide-box.7-9-7-9::GRID.VP.562::guide-box.7-9-7-9.1" class="viewport">
                <g id="guide-box.7-9-7-9.1" class="forcedgrob gTableChild gtable gTree grob gDesc">
                  <g id="layout::guide-box.7-9-7-9::GRID.VP.562::guide-box.7-9-7-9::legend.box.background.2-4-4-2.1" class="viewport"/>
                  <g id="layout::guide-box.7-9-7-9::GRID.VP.562::guide-box.7-9-7-9::guides.3-3-3-3.1" class="viewport">
                    <g id="layout::guide-box.7-9-7-9::GRID.VP.562::guide-box.7-9-7-9::guides.3-3-3-3::GRID.VP.561.1" class="viewport">
                      <g id="layout::guide-box.7-9-7-9::GRID.VP.562::guide-box.7-9-7-9::guides.3-3-3-3::GRID.VP.561::guides.3-3-3-3.1" class="viewport">
                        <g id="guides.3-3-3-3.1" class="forcedgrob gTableChild gtable gTree grob gDesc">
                          <g id="layout::guide-box.7-9-7-9::GRID.VP.562::guide-box.7-9-7-9::guides.3-3-3-3::GRID.VP.561::guides.3-3-3-3::background.1-6-6-1.1" class="viewport">
                            <g id="background.1-6-6-1.1" class="forcedgrob gTableChild rect grob gDesc">
                              <rect id="background.1-6-6-1.1.1" x="439.8" y="219.14" width="58.72" height="51" transform="" stroke-width="1.07" stroke="none" fill="rgb(255,255,255)" stroke-dasharray="none" stroke-opacity="0" fill-opacity="1"/>
                            </g>
                          </g>
                          <g id="layout::guide-box.7-9-7-9::GRID.VP.562::guide-box.7-9-7-9::guides.3-3-3-3::GRID.VP.561::guides.3-3-3-3::title.2-5-2-2.1" class="viewport"/>
                          <g id="layout::guide-box.7-9-7-9::GRID.VP.562::guide-box.7-9-7-9::guides.3-3-3-3::GRID.VP.561::guides.3-3-3-3::key-3-1-bg.4-2-4-2.1" class="viewport"/>
                          <g id="layout::guide-box.7-9-7-9::GRID.VP.562::guide-box.7-9-7-9::guides.3-3-3-3::GRID.VP.561::guides.3-3-3-3::key-3-1-1.4-2-4-2.1" class="viewport">
                            <g id="key-3-1-1.4-2-4-2.1" class="forcedgrob gTableChild rect grob gDesc">
                              <rect id="key-3-1-1.4-2-4-2.1.1" x="445.99" y="242.61" width="15.86" height="15.86" transform="" stroke="none" fill="rgb(248,118,109)" stroke-dasharray="none" stroke-width="1.07" stroke-linejoin="miter" stroke-opacity="0" fill-opacity="1"/>
                            </g>
                          </g>
                          <g id="layout::guide-box.7-9-7-9::GRID.VP.562::guide-box.7-9-7-9::guides.3-3-3-3::GRID.VP.561::guides.3-3-3-3::key-4-1-bg.5-2-5-2.1" class="viewport"/>
                          <g id="layout::guide-box.7-9-7-9::GRID.VP.562::guide-box.7-9-7-9::guides.3-3-3-3::GRID.VP.561::guides.3-3-3-3::key-4-1-1.5-2-5-2.1" class="viewport">
                            <g id="key-4-1-1.5-2-5-2.1" class="forcedgrob gTableChild rect grob gDesc">
                              <rect id="key-4-1-1.5-2-5-2.1.1" x="445.99" y="225.33" width="15.86" height="15.86" transform="" stroke="none" fill="rgb(0,191,196)" stroke-dasharray="none" stroke-width="1.07" stroke-linejoin="miter" stroke-opacity="0" fill-opacity="1"/>
                            </g>
                          </g>
                          <g id="layout::guide-box.7-9-7-9::GRID.VP.562::guide-box.7-9-7-9::guides.3-3-3-3::GRID.VP.561::guides.3-3-3-3::label-3-3.4-4-4-4.1" class="viewport">
                            <g id="layout::guide-box.7-9-7-9::GRID.VP.562::guide-box.7-9-7-9::guides.3-3-3-3::GRID.VP.561::guides.3-3-3-3::label-3-3.4-4-4-4::GRID.VP.559.1" class="viewport">
                              <g id="label-3-3.4-4-4-4.1" class="forcedgrob gTableChild gTree grob gDesc">
                                <g id="layout::guide-box.7-9-7-9::GRID.VP.562::guide-box.7-9-7-9::guides.3-3-3-3::GRID.VP.561::guides.3-3-3-3::label-3-3.4-4-4-4::GRID.VP.559::GRID.VP.555.1" font-size="8.8" stroke="rgb(0,0,0)" font-family="Helvetica, Arial, FreeSans, Liberation Sans, Nimbus Sans L, sans-serif" stroke-opacity="1" font-weight="normal" font-style="normal" class="viewport">
                                  <g id="layout::guide-box.7-9-7-9::GRID.VP.562::guide-box.7-9-7-9::guides.3-3-3-3::GRID.VP.561::guides.3-3-3-3::label-3-3.4-4-4-4::GRID.VP.559::GRID.VP.555::GRID.VP.556.1" class="viewport">
                                    <g id="guide.label.titleGrob.2415.1" class="titleGrob gTree grob gDesc">
                                      <g id="GRID.text.2413.1" class="text grob gDesc">
                                        <g id="GRID.text.2413.1.1" transform="translate(468.04, 250.54)" stroke-width="0.1">
                                          <g id="GRID.text.2413.1.1.scale" transform="scale(1, -1)">
                                            <text x="0" y="0" id="GRID.text.2413.1.1.text" text-anchor="start" font-size="8.8" stroke="rgb(0,0,0)" font-family="Helvetica, Arial, FreeSans, Liberation Sans, Nimbus Sans L, sans-serif" fill="rgb(0,0,0)" stroke-opacity="1" fill-opacity="1" font-weight="normal" font-style="normal">
                                              <tspan id="GRID.text.2413.1.1.tspan.1" dy="3.23" x="0">N (10)</tspan>
                                            </text>
                                          </g>
                                        </g>
                                      </g>
                                    </g>
                                  </g>
                                </g>
                              </g>
                            </g>
                          </g>
                          <g id="layout::guide-box.7-9-7-9::GRID.VP.562::guide-box.7-9-7-9::guides.3-3-3-3::GRID.VP.561::guides.3-3-3-3::label-4-3.5-4-5-4.1" class="viewport">
                            <g id="layout::guide-box.7-9-7-9::GRID.VP.562::guide-box.7-9-7-9::guides.3-3-3-3::GRID.VP.561::guides.3-3-3-3::label-4-3.5-4-5-4::GRID.VP.560.1" class="viewport">
                              <g id="label-4-3.5-4-5-4.1" class="forcedgrob gTableChild gTree grob gDesc">
                                <g id="layout::guide-box.7-9-7-9::GRID.VP.562::guide-box.7-9-7-9::guides.3-3-3-3::GRID.VP.561::guides.3-3-3-3::label-4-3.5-4-5-4::GRID.VP.560::GRID.VP.557.1" font-size="8.8" stroke="rgb(0,0,0)" font-family="Helvetica, Arial, FreeSans, Liberation Sans, Nimbus Sans L, sans-serif" stroke-opacity="1" font-weight="normal" font-style="normal" class="viewport">
                                  <g id="layout::guide-box.7-9-7-9::GRID.VP.562::guide-box.7-9-7-9::guides.3-3-3-3::GRID.VP.561::guides.3-3-3-3::label-4-3.5-4-5-4::GRID.VP.560::GRID.VP.557::GRID.VP.558.1" class="viewport">
                                    <g id="guide.label.titleGrob.2418.1" class="titleGrob gTree grob gDesc">
                                      <g id="GRID.text.2416.1" class="text grob gDesc">
                                        <g id="GRID.text.2416.1.1" transform="translate(468.04, 233.26)" stroke-width="0.1">
                                          <g id="GRID.text.2416.1.1.scale" transform="scale(1, -1)">
                                            <text x="0" y="0" id="GRID.text.2416.1.1.text" text-anchor="start" font-size="8.8" stroke="rgb(0,0,0)" font-family="Helvetica, Arial, FreeSans, Liberation Sans, Nimbus Sans L, sans-serif" fill="rgb(0,0,0)" stroke-opacity="1" fill-opacity="1" font-weight="normal" font-style="normal">
                                              <tspan id="GRID.text.2416.1.1.tspan.1" dy="3.23" x="0">S (40)</tspan>
                                            </text>
                                          </g>
                                        </g>
                                      </g>
                                    </g>
                                  </g>
                                </g>
                              </g>
                            </g>
                          </g>
                        </g>
                      </g>
                    </g>
                  </g>
                </g>
              </g>
            </g>
          </g>
          <g id="layout::subtitle.4-5-4-5.1" class="viewport"/>
          <g id="layout::title.3-5-3-5.1" class="viewport">
            <g id="layout::title.3-5-3-5::GRID.VP.563.1" font-size="13.2" stroke="rgb(102,102,102)" font-family="Helvetica, Arial, FreeSans, Liberation Sans, Nimbus Sans L, sans-serif" stroke-opacity="1" font-weight="normal" font-style="normal" class="viewport">
              <g id="layout::title.3-5-3-5::GRID.VP.563::GRID.VP.564.1" class="viewport">
                <g id="title.3-5-3-5.1" class="forcedgrob gTableChild titleGrob gTree grob gDesc">
                  <g id="GRID.text.2427.1" class="text grob gDesc">
                    <g id="GRID.text.2427.1.1" transform="translate(218.53, 472.41)" stroke-width="0.1">
                      <g id="GRID.text.2427.1.1.scale" transform="scale(1, -1)">
                        <text x="0" y="0" id="GRID.text.2427.1.1.text" text-anchor="middle" font-size="13.2" stroke="rgb(102,102,102)" font-family="Helvetica, Arial, FreeSans, Liberation Sans, Nimbus Sans L, sans-serif" fill="rgb(102,102,102)" stroke-opacity="1" fill-opacity="1" font-weight="normal" font-style="normal">
                          <tspan id="GRID.text.2427.1.1.tspan.1" dy="9.33" x="0">anagrafica problemi</tspan>
                        </text>
                      </g>
                    </g>
                  </g>
                </g>
              </g>
            </g>
          </g>
          <g id="layout::caption.10-5-10-5.1" class="viewport"/>
          <g id="layout::tag.2-2-2-2.1" class="viewport"/>
        </g>
      </g>
    </g>
  </g>
</svg>