<?xml version="1.0" encoding="UTF-8"?>
<svg xmlns="http://www.w3.org/2000/svg" xmlns:xlink="http://www.w3.org/1999/xlink" width="504px" height="504px" viewBox="0 0 504 504" version="1.1">
  <metadata xmlns:gridsvg="http://www.stat.auckland.ac.nz/~paul/R/gridSVG/">
    <gridsvg:generator name="gridSVG" version="1.6-0" time="2019-01-08 22:40:04"/>
    <gridsvg:argument name="name" value="./latest_informaggio_csv/anziani/risultati/svg/anagrafica-totali-altroos.svg"/>
    <gridsvg:argument name="exportCoords" value="none"/>
    <gridsvg:argument name="exportMappings" value="none"/>
    <gridsvg:argument name="exportJS" value="none"/>
    <gridsvg:argument name="res" value="72"/>
    <gridsvg:argument name="prefix" value=""/>
    <gridsvg:argument name="addClasses" value="TRUE"/>
    <gridsvg:argument name="indent" value="TRUE"/>
    <gridsvg:argument name="htmlWrapper" value="FALSE"/>
    <gridsvg:argument name="usePaths" value="vpPaths"/>
    <gridsvg:argument name="uniqueNames" value="TRUE"/>
    <gridsvg:separator name="id.sep" value="."/>
    <gridsvg:separator name="gPath.sep" value="::"/>
    <gridsvg:separator name="vpPath.sep" value="::"/>
  </metadata>
  <g transform="translate(0, 504) scale(1, -1)">
    <g id="gridSVG" fill="none" stroke="rgb(0,0,0)" stroke-dasharray="none" stroke-width="0.75" font-size="12" font-family="Helvetica, Arial, FreeSans, Liberation Sans, Nimbus Sans L, sans-serif" opacity="1" stroke-linecap="round" stroke-linejoin="round" stroke-miterlimit="10" stroke-opacity="1" fill-opacity="0" font-weight="normal" font-style="normal">
      <g id="layout.1" class="viewport">
        <g id="layout.2" class="forcedgrob gtable gTree grob gDesc">
          <defs>
            <clipPath id="layout::background.1-11-12-1.1.clipPath">
              <rect x="0" y="28.61" width="504" height="446.77" fill="none" stroke="none"/>
            </clipPath>
          </defs>
          <g id="layout::background.1-11-12-1.1" clip-path="url(#layout::background.1-11-12-1.1.clipPath)" class="viewport">
            <g id="background.1-11-12-1.1" class="forcedgrob gTableChild rect grob gDesc">
              <rect id="background.1-11-12-1.1.1" x="0" y="28.61" width="504" height="446.77" transform="" stroke-width="1.07" stroke="rgb(255,255,255)" fill="rgb(255,255,255)" stroke-dasharray="none" stroke-opacity="1" fill-opacity="1"/>
            </g>
          </g>
          <defs>
            <clipPath id="layout::panel.7-5-7-5.1.clipPath">
              <rect x="8.22" y="36.83" width="415.62" height="415.62" fill="none" stroke="none"/>
            </clipPath>
          </defs>
          <g id="layout::panel.7-5-7-5.1" clip-path="url(#layout::panel.7-5-7-5.1.clipPath)" class="viewport">
            <g id="panel.7-5-7-5.1" class="forcedgrob gTableChild gTree grob gDesc">
              <g id="grill.gTree.157.1" class="gTree grob gDesc">
                <g id="panel.background..rect.153.1" class="rect grob gDesc">
                  <rect id="panel.background..rect.153.1.1" x="8.22" y="36.83" width="415.62" height="415.62" transform="" stroke-width="1.07" stroke="none" fill="rgb(255,255,255)" stroke-dasharray="none" stroke-opacity="0" fill-opacity="1"/>
                </g>
              </g>
              <g id="bar.gTree.146.1" class="gTree grob gDesc">
                <g id="geom_polygon.polygon.142.1" class="polygon grob gDesc">
                  <polygon id="geom_polygon.polygon.142.1.1" points="216.03,244.64 215.28,250.33 214.53,256.01 213.78,261.69 213.04,267.38 212.29,273.06 211.54,278.74 210.79,284.43 210.04,290.11 209.29,295.8 208.55,301.48 207.8,307.16 207.05,312.85 206.3,318.53 205.55,324.21 204.8,329.9 204.06,335.58 203.31,341.26 202.56,346.95 201.81,352.63 201.06,358.32 200.31,364 199.57,369.68 198.82,375.37 198.07,381.05 197.32,386.73 196.57,392.42 195.83,398.1 195.08,403.78 194.33,409.47 188.74,408.64 183.18,407.61 177.66,406.4 172.19,405.01 166.76,403.42 161.4,401.66 156.09,399.71 150.86,397.58 145.7,395.28 140.62,392.8 135.63,390.15 130.73,387.34 125.93,384.36 121.23,381.21 116.65,377.91 112.17,374.46 107.82,370.86 103.6,367.11 99.5,363.21 95.54,359.18 91.71,355.02 88.03,350.74 84.5,346.32 81.12,341.8 77.9,337.16 74.83,332.41 71.93,327.56 69.2,322.61 66.63,317.58 64.24,312.46 62.02,307.26 59.99,301.99 58.13,296.66 56.45,291.26 54.96,285.81 53.65,280.31 52.53,274.77 51.6,269.2 50.87,263.6 50.32,257.97 49.96,252.34 49.79,246.69 49.82,241.04 50.04,235.39 50.45,229.75 51.05,224.14 51.84,218.54 52.82,212.98 54,207.45 55.35,201.96 56.9,196.53 58.62,191.15 60.53,185.83 62.62,180.58 64.89,175.4 67.33,170.31 69.94,165.3 72.72,160.38 75.67,155.56 78.77,150.84 82.04,146.23 85.46,141.73 89.04,137.35 92.76,133.1 96.62,128.97 100.62,124.98 104.75,121.13 109.01,117.42 113.4,113.86 117.9,110.44 122.52,107.19 127.25,104.09 132.07,101.15 137,98.38 142.01,95.78 147.12,93.35 152.3,91.1 157.55,89.02 162.87,87.12 168.26,85.41 173.7,83.88 179.19,82.53 184.72,81.37 190.28,80.4 195.88,79.62 201.5,79.03 207.14,78.63 212.78,78.43 218.43,78.41 224.08,78.59 229.72,78.96 235.34,79.52 240.94,80.27 246.51,81.21 252.05,82.35 257.54,83.66 262.99,85.17 268.38,86.86 273.72,88.73 278.98,90.78 284.17,93 289.29,95.41 294.32,97.98 299.26,100.73 304.1,103.64 308.84,106.71 313.47,109.95 317.99,113.34 322.4,116.88 326.68,120.57 330.83,124.4 334.85,128.37 338.73,132.48 342.47,136.71 346.07,141.07 349.51,145.55 352.8,150.14 355.94,154.85 358.91,159.65 361.71,164.56 364.35,169.55 366.82,174.64 369.11,179.8 371.22,185.04 373.16,190.35 374.91,195.72 376.49,201.15 377.87,206.63 379.07,212.15 380.08,217.71 380.9,223.3 381.53,228.92 381.97,234.55 382.22,240.2 382.27,245.85 382.13,251.49 381.81,257.14 381.29,262.76 380.57,268.37 379.67,273.95 378.58,279.49 377.3,284.99 375.84,290.45 374.19,295.86 372.36,301.2 370.35,306.48 368.16,311.69 365.79,316.82 363.25,321.87 360.54,326.83 357.66,331.69 354.62,336.45 351.42,341.11 348.07,345.66 344.56,350.09 340.9,354.39 337.1,358.57 333.16,362.62 329.08,366.53 324.87,370.31 320.54,373.93 316.08,377.41 311.52,380.73 306.83,383.9 302.05,386.9 297.17,389.75 292.19,392.42 287.12,394.92 281.97,397.25 276.75,399.4 271.45,401.38 266.1,403.17 260.68,404.78 255.21,406.21 249.7,407.45 244.15,408.5 238.56,409.36 232.95,410.03 227.32,410.51 221.68,410.79 216.03,410.89 216.03,405.16 216.03,399.43 216.03,393.69 216.03,387.96 216.03,382.23 216.03,376.49 216.03,370.76 216.03,365.03 216.03,359.3 216.03,353.56 216.03,347.83 216.03,342.1 216.03,336.37 216.03,330.63 216.03,324.9 216.03,319.17 216.03,313.44 216.03,307.7 216.03,301.97 216.03,296.24 216.03,290.5 216.03,284.77 216.03,279.04 216.03,273.31 216.03,267.57 216.03,261.84 216.03,256.11 216.03,250.38 216.03,244.64 216.03,244.64" stroke="none" fill="rgb(0,191,196)" stroke-width="1.07" stroke-dasharray="none" stroke-opacity="0" fill-opacity="1"/>
                </g>
                <g id="geom_polygon.polygon.144.1" class="polygon grob gDesc">
                  <polygon id="geom_polygon.polygon.144.1.1" points="216.03,244.64 216.03,250.38 216.03,256.11 216.03,261.84 216.03,267.57 216.03,273.31 216.03,279.04 216.03,284.77 216.03,290.5 216.03,296.24 216.03,301.97 216.03,307.7 216.03,313.44 216.03,319.17 216.03,324.9 216.03,330.63 216.03,336.37 216.03,342.1 216.03,347.83 216.03,353.56 216.03,359.3 216.03,365.03 216.03,370.76 216.03,376.49 216.03,382.23 216.03,387.96 216.03,393.69 216.03,399.43 216.03,405.16 216.03,410.89 208.78,410.73 201.54,410.26 194.33,409.47 195.08,403.78 195.83,398.1 196.57,392.42 197.32,386.73 198.07,381.05 198.82,375.37 199.57,369.68 200.31,364 201.06,358.32 201.81,352.63 202.56,346.95 203.31,341.26 204.06,335.58 204.8,329.9 205.55,324.21 206.3,318.53 207.05,312.85 207.8,307.16 208.55,301.48 209.29,295.8 210.04,290.11 210.79,284.43 211.54,278.74 212.29,273.06 213.04,267.38 213.78,261.69 214.53,256.01 215.28,250.33 216.03,244.64 216.03,244.64" stroke="none" fill="rgb(248,118,109)" stroke-width="1.07" stroke-dasharray="none" stroke-opacity="0" fill-opacity="1"/>
                </g>
              </g>
              <g id="GRID.text.147.1" class="text grob gDesc">
                <g id="GRID.text.147.1.1" transform="translate(221.46, 161.7)" stroke-width="0.1">
                  <g id="GRID.text.147.1.1.scale" transform="scale(1, -1)">
                    <text x="0" y="0" id="GRID.text.147.1.1.text" text-anchor="middle" stroke="rgb(0,0,0)" font-size="11.04" font-family="Helvetica, Arial, FreeSans, Liberation Sans, Nimbus Sans L, sans-serif" fill="rgb(0,0,0)" stroke-opacity="1" fill-opacity="1" font-weight="normal" font-style="normal">
                      <tspan id="GRID.text.147.1.1.tspan.1" dy="3.95" x="0">47</tspan>
                    </text>
                  </g>
                </g>
                <g id="GRID.text.147.1.2" transform="translate(210.59, 327.59)" stroke-width="0.1">
                  <g id="GRID.text.147.1.2.scale" transform="scale(1, -1)">
                    <text x="0" y="0" id="GRID.text.147.1.2.text" text-anchor="middle" stroke="rgb(0,0,0)" font-size="11.04" font-family="Helvetica, Arial, FreeSans, Liberation Sans, Nimbus Sans L, sans-serif" fill="rgb(0,0,0)" stroke-opacity="1" fill-opacity="1" font-weight="normal" font-style="normal">
                      <tspan id="GRID.text.147.1.2.tspan.1" dy="3.95" x="0">1</tspan>
                    </text>
                  </g>
                </g>
              </g>
              <g id="GRID.gTree.148.1" class="gTree grob gDesc"/>
            </g>
          </g>
          <g id="layout::spacer.8-6-8-6.1" class="viewport"/>
          <g id="layout::spacer.8-4-8-4.1" class="viewport"/>
          <g id="layout::spacer.6-6-6-6.1" class="viewport"/>
          <g id="layout::spacer.6-4-6-4.1" class="viewport"/>
          <g id="layout::axis-t.6-5-6-5.1" class="viewport"/>
          <g id="layout::axis-l.7-4-7-4.1" class="viewport">
            <g id="layout::axis-l.7-4-7-4::GRID.VP.32.1" class="viewport">
              <g id="axis-l.7-4-7-4.1" class="forcedgrob gTableChild absoluteGrob gTree grob gDesc">
                <g id="layout::axis-l.7-4-7-4::GRID.VP.32::axis.1" class="viewport">
                  <g id="axis.1" class="forcedgrob gtable gTree grob gDesc">
                    <g id="layout::axis-l.7-4-7-4::GRID.VP.32::axis::axis.1-1-1-1.1" class="viewport"/>
                    <g id="layout::axis-l.7-4-7-4::GRID.VP.32::axis::axis.1-2-1-2.1" class="viewport"/>
                  </g>
                </g>
              </g>
            </g>
          </g>
          <g id="layout::axis-r.7-6-7-6.1" class="viewport"/>
          <g id="layout::axis-b.8-5-8-5.1" class="viewport">
            <g id="layout::axis-b.8-5-8-5::GRID.VP.31.1" class="viewport">
              <g id="axis-b.8-5-8-5.1" class="forcedgrob gTableChild absoluteGrob gTree grob gDesc">
                <g id="layout::axis-b.8-5-8-5::GRID.VP.31::axis.1" class="viewport">
                  <g id="axis.2" class="forcedgrob gtable gTree grob gDesc">
                    <g id="layout::axis-b.8-5-8-5::GRID.VP.31::axis::axis.1-1-1-1.1" class="viewport"/>
                    <g id="layout::axis-b.8-5-8-5::GRID.VP.31::axis::axis.2-1-2-1.1" class="viewport"/>
                  </g>
                </g>
              </g>
            </g>
          </g>
          <g id="layout::xlab-t.5-5-5-5.1" class="viewport"/>
          <g id="layout::xlab-b.9-5-9-5.1" class="viewport"/>
          <g id="layout::ylab-l.7-3-7-3.1" class="viewport"/>
          <g id="layout::ylab-r.7-7-7-7.1" class="viewport"/>
          <g id="layout::guide-box.7-9-7-9.1" class="viewport">
            <g id="layout::guide-box.7-9-7-9::GRID.VP.40.1" class="viewport">
              <g id="layout::guide-box.7-9-7-9::GRID.VP.40::guide-box.7-9-7-9.1" class="viewport">
                <g id="guide-box.7-9-7-9.1" class="forcedgrob gTableChild gtable gTree grob gDesc">
                  <g id="layout::guide-box.7-9-7-9::GRID.VP.40::guide-box.7-9-7-9::legend.box.background.2-4-4-2.1" class="viewport"/>
                  <g id="layout::guide-box.7-9-7-9::GRID.VP.40::guide-box.7-9-7-9::guides.3-3-3-3.1" class="viewport">
                    <g id="layout::guide-box.7-9-7-9::GRID.VP.40::guide-box.7-9-7-9::guides.3-3-3-3::GRID.VP.39.1" class="viewport">
                      <g id="layout::guide-box.7-9-7-9::GRID.VP.40::guide-box.7-9-7-9::guides.3-3-3-3::GRID.VP.39::guides.3-3-3-3.1" class="viewport">
                        <g id="guides.3-3-3-3.1" class="forcedgrob gTableChild gtable gTree grob gDesc">
                          <g id="layout::guide-box.7-9-7-9::GRID.VP.40::guide-box.7-9-7-9::guides.3-3-3-3::GRID.VP.39::guides.3-3-3-3::background.1-6-6-1.1" class="viewport">
                            <g id="background.1-6-6-1.1" class="forcedgrob gTableChild rect grob gDesc">
                              <rect id="background.1-6-6-1.1.1" x="434.8" y="219.14" width="63.72" height="51" transform="" stroke-width="1.07" stroke="none" fill="rgb(255,255,255)" stroke-dasharray="none" stroke-opacity="0" fill-opacity="1"/>
                            </g>
                          </g>
                          <g id="layout::guide-box.7-9-7-9::GRID.VP.40::guide-box.7-9-7-9::guides.3-3-3-3::GRID.VP.39::guides.3-3-3-3::title.2-5-2-2.1" class="viewport"/>
                          <g id="layout::guide-box.7-9-7-9::GRID.VP.40::guide-box.7-9-7-9::guides.3-3-3-3::GRID.VP.39::guides.3-3-3-3::key-3-1-bg.4-2-4-2.1" class="viewport"/>
                          <g id="layout::guide-box.7-9-7-9::GRID.VP.40::guide-box.7-9-7-9::guides.3-3-3-3::GRID.VP.39::guides.3-3-3-3::key-3-1-1.4-2-4-2.1" class="viewport">
                            <g id="key-3-1-1.4-2-4-2.1" class="forcedgrob gTableChild rect grob gDesc">
                              <rect id="key-3-1-1.4-2-4-2.1.1" x="440.98" y="242.61" width="15.86" height="15.86" transform="" stroke="none" fill="rgb(248,118,109)" stroke-dasharray="none" stroke-width="1.07" stroke-linejoin="miter" stroke-opacity="0" fill-opacity="1"/>
                            </g>
                          </g>
                          <g id="layout::guide-box.7-9-7-9::GRID.VP.40::guide-box.7-9-7-9::guides.3-3-3-3::GRID.VP.39::guides.3-3-3-3::key-4-1-bg.5-2-5-2.1" class="viewport"/>
                          <g id="layout::guide-box.7-9-7-9::GRID.VP.40::guide-box.7-9-7-9::guides.3-3-3-3::GRID.VP.39::guides.3-3-3-3::key-4-1-1.5-2-5-2.1" class="viewport">
                            <g id="key-4-1-1.5-2-5-2.1" class="forcedgrob gTableChild rect grob gDesc">
                              <rect id="key-4-1-1.5-2-5-2.1.1" x="440.98" y="225.33" width="15.86" height="15.86" transform="" stroke="none" fill="rgb(0,191,196)" stroke-dasharray="none" stroke-width="1.07" stroke-linejoin="miter" stroke-opacity="0" fill-opacity="1"/>
                            </g>
                          </g>
                          <g id="layout::guide-box.7-9-7-9::GRID.VP.40::guide-box.7-9-7-9::guides.3-3-3-3::GRID.VP.39::guides.3-3-3-3::label-3-3.4-4-4-4.1" class="viewport">
                            <g id="layout::guide-box.7-9-7-9::GRID.VP.40::guide-box.7-9-7-9::guides.3-3-3-3::GRID.VP.39::guides.3-3-3-3::label-3-3.4-4-4-4::GRID.VP.37.1" class="viewport">
                              <g id="label-3-3.4-4-4-4.1" class="forcedgrob gTableChild gTree grob gDesc">
                                <g id="layout::guide-box.7-9-7-9::GRID.VP.40::guide-box.7-9-7-9::guides.3-3-3-3::GRID.VP.39::guides.3-3-3-3::label-3-3.4-4-4-4::GRID.VP.37::GRID.VP.33.1" font-size="8.8" stroke="rgb(0,0,0)" font-family="Helvetica, Arial, FreeSans, Liberation Sans, Nimbus Sans L, sans-serif" stroke-opacity="1" font-weight="normal" font-style="normal" class="viewport">
                                  <g id="layout::guide-box.7-9-7-9::GRID.VP.40::guide-box.7-9-7-9::guides.3-3-3-3::GRID.VP.39::guides.3-3-3-3::label-3-3.4-4-4-4::GRID.VP.37::GRID.VP.33::GRID.VP.34.1" class="viewport">
                                    <g id="guide.label.titleGrob.171.1" class="titleGrob gTree grob gDesc">
                                      <g id="GRID.text.169.1" class="text grob gDesc">
                                        <g id="GRID.text.169.1.1" transform="translate(463.04, 250.54)" stroke-width="0.1">
                                          <g id="GRID.text.169.1.1.scale" transform="scale(1, -1)">
                                            <text x="0" y="0" id="GRID.text.169.1.1.text" text-anchor="start" font-size="8.8" stroke="rgb(0,0,0)" font-family="Helvetica, Arial, FreeSans, Liberation Sans, Nimbus Sans L, sans-serif" fill="rgb(0,0,0)" stroke-opacity="1" fill-opacity="1" font-weight="normal" font-style="normal">
                                              <tspan id="GRID.text.169.1.1.tspan.1" dy="3.23" x="0">MacOS</tspan>
                                            </text>
                                          </g>
                                        </g>
                                      </g>
                                    </g>
                                  </g>
                                </g>
                              </g>
                            </g>
                          </g>
                          <g id="layout::guide-box.7-9-7-9::GRID.VP.40::guide-box.7-9-7-9::guides.3-3-3-3::GRID.VP.39::guides.3-3-3-3::label-4-3.5-4-5-4.1" class="viewport">
                            <g id="layout::guide-box.7-9-7-9::GRID.VP.40::guide-box.7-9-7-9::guides.3-3-3-3::GRID.VP.39::guides.3-3-3-3::label-4-3.5-4-5-4::GRID.VP.38.1" class="viewport">
                              <g id="label-4-3.5-4-5-4.1" class="forcedgrob gTableChild gTree grob gDesc">
                                <g id="layout::guide-box.7-9-7-9::GRID.VP.40::guide-box.7-9-7-9::guides.3-3-3-3::GRID.VP.39::guides.3-3-3-3::label-4-3.5-4-5-4::GRID.VP.38::GRID.VP.35.1" font-size="8.8" stroke="rgb(0,0,0)" font-family="Helvetica, Arial, FreeSans, Liberation Sans, Nimbus Sans L, sans-serif" stroke-opacity="1" font-weight="normal" font-style="normal" class="viewport">
                                  <g id="layout::guide-box.7-9-7-9::GRID.VP.40::guide-box.7-9-7-9::guides.3-3-3-3::GRID.VP.39::guides.3-3-3-3::label-4-3.5-4-5-4::GRID.VP.38::GRID.VP.35::GRID.VP.36.1" class="viewport">
                                    <g id="guide.label.titleGrob.174.1" class="titleGrob gTree grob gDesc">
                                      <g id="GRID.text.172.1" class="text grob gDesc">
                                        <g id="GRID.text.172.1.1" transform="translate(463.04, 233.26)" stroke-width="0.1">
                                          <g id="GRID.text.172.1.1.scale" transform="scale(1, -1)">
                                            <text x="0" y="0" id="GRID.text.172.1.1.text" text-anchor="start" font-size="8.8" stroke="rgb(0,0,0)" font-family="Helvetica, Arial, FreeSans, Liberation Sans, Nimbus Sans L, sans-serif" fill="rgb(0,0,0)" stroke-opacity="1" fill-opacity="1" font-weight="normal" font-style="normal">
                                              <tspan id="GRID.text.172.1.1.tspan.1" dy="3.23" x="0">NA</tspan>
                                            </text>
                                          </g>
                                        </g>
                                      </g>
                                    </g>
                                  </g>
                                </g>
                              </g>
                            </g>
                          </g>
                        </g>
                      </g>
                    </g>
                  </g>
                </g>
              </g>
            </g>
          </g>
          <g id="layout::subtitle.4-5-4-5.1" class="viewport"/>
          <g id="layout::title.3-5-3-5.1" class="viewport">
            <g id="layout::title.3-5-3-5::GRID.VP.41.1" font-size="13.2" stroke="rgb(102,102,102)" font-family="Helvetica, Arial, FreeSans, Liberation Sans, Nimbus Sans L, sans-serif" stroke-opacity="1" font-weight="normal" font-style="normal" class="viewport">
              <g id="layout::title.3-5-3-5::GRID.VP.41::GRID.VP.42.1" class="viewport">
                <g id="title.3-5-3-5.1" class="forcedgrob gTableChild titleGrob gTree grob gDesc">
                  <g id="GRID.text.183.1" class="text grob gDesc">
                    <g id="GRID.text.183.1.1" transform="translate(216.03, 469.91)" stroke-width="0.1">
                      <g id="GRID.text.183.1.1.scale" transform="scale(1, -1)">
                        <text x="0" y="0" id="GRID.text.183.1.1.text" text-anchor="middle" font-size="13.2" stroke="rgb(102,102,102)" font-family="Helvetica, Arial, FreeSans, Liberation Sans, Nimbus Sans L, sans-serif" fill="rgb(102,102,102)" stroke-opacity="1" fill-opacity="1" font-weight="normal" font-style="normal">
                          <tspan id="GRID.text.183.1.1.tspan.1" dy="9.33" x="0">anagrafica totali-altroos</tspan>
                        </text>
                      </g>
                    </g>
                  </g>
                </g>
              </g>
            </g>
          </g>
          <g id="layout::caption.10-5-10-5.1" class="viewport"/>
          <g id="layout::tag.2-2-2-2.1" class="viewport"/>
        </g>
      </g>
    </g>
  </g>
</svg>