<?xml version="1.0" encoding="UTF-8"?>
<svg xmlns="http://www.w3.org/2000/svg" xmlns:xlink="http://www.w3.org/1999/xlink" width="504px" height="504px" viewBox="0 0 504 504" version="1.1">
  <metadata xmlns:gridsvg="http://www.stat.auckland.ac.nz/~paul/R/gridSVG/">
    <gridsvg:generator name="gridSVG" version="1.6-0" time="2019-01-08 22:40:36"/>
    <gridsvg:argument name="name" value="./latest_informaggio_csv/anziani/risultati/svg/anagrafica-totali-dispositivo.svg"/>
    <gridsvg:argument name="exportCoords" value="none"/>
    <gridsvg:argument name="exportMappings" value="none"/>
    <gridsvg:argument name="exportJS" value="none"/>
    <gridsvg:argument name="res" value="72"/>
    <gridsvg:argument name="prefix" value=""/>
    <gridsvg:argument name="addClasses" value="TRUE"/>
    <gridsvg:argument name="indent" value="TRUE"/>
    <gridsvg:argument name="htmlWrapper" value="FALSE"/>
    <gridsvg:argument name="usePaths" value="vpPaths"/>
    <gridsvg:argument name="uniqueNames" value="TRUE"/>
    <gridsvg:separator name="id.sep" value="."/>
    <gridsvg:separator name="gPath.sep" value="::"/>
    <gridsvg:separator name="vpPath.sep" value="::"/>
  </metadata>
  <g transform="translate(0, 504) scale(1, -1)">
    <g id="gridSVG" fill="none" stroke="rgb(0,0,0)" stroke-dasharray="none" stroke-width="0.75" font-size="12" font-family="Helvetica, Arial, FreeSans, Liberation Sans, Nimbus Sans L, sans-serif" opacity="1" stroke-linecap="round" stroke-linejoin="round" stroke-miterlimit="10" stroke-opacity="1" fill-opacity="0" font-weight="normal" font-style="normal">
      <g id="layout.1" class="viewport">
        <g id="layout.2" class="forcedgrob gtable gTree grob gDesc">
          <defs>
            <clipPath id="layout::background.1-11-12-1.1.clipPath">
              <rect x="0" y="38.3" width="504" height="427.39" fill="none" stroke="none"/>
            </clipPath>
          </defs>
          <g id="layout::background.1-11-12-1.1" clip-path="url(#layout::background.1-11-12-1.1.clipPath)" class="viewport">
            <g id="background.1-11-12-1.1" class="forcedgrob gTableChild rect grob gDesc">
              <rect id="background.1-11-12-1.1.1" x="0" y="38.3" width="504" height="427.39" transform="" stroke-width="1.07" stroke="rgb(255,255,255)" fill="rgb(255,255,255)" stroke-dasharray="none" stroke-opacity="1" fill-opacity="1"/>
            </g>
          </g>
          <defs>
            <clipPath id="layout::panel.7-5-7-5.1.clipPath">
              <rect x="8.22" y="46.52" width="396.24" height="396.24" fill="none" stroke="none"/>
            </clipPath>
          </defs>
          <g id="layout::panel.7-5-7-5.1" clip-path="url(#layout::panel.7-5-7-5.1.clipPath)" class="viewport">
            <g id="panel.7-5-7-5.1" class="forcedgrob gTableChild gTree grob gDesc">
              <g id="grill.gTree.1733.1" class="gTree grob gDesc">
                <g id="panel.background..rect.1729.1" class="rect grob gDesc">
                  <rect id="panel.background..rect.1729.1.1" x="8.22" y="46.52" width="396.24" height="396.24" transform="" stroke-width="1.07" stroke="none" fill="rgb(255,255,255)" stroke-dasharray="none" stroke-opacity="0" fill-opacity="1"/>
                </g>
              </g>
              <g id="bar.gTree.1722.1" class="gTree grob gDesc">
                <g id="geom_polygon.polygon.1716.1" class="polygon grob gDesc">
                  <polygon id="geom_polygon.polygon.1716.1.1" points="206.34,244.64 200.87,244.64 195.41,244.64 189.94,244.64 184.48,244.64 179.01,244.64 173.55,244.64 168.08,244.64 162.62,244.64 157.15,244.64 151.69,244.64 146.22,244.64 140.75,244.64 135.29,244.64 129.82,244.64 124.36,244.64 118.89,244.64 113.43,244.64 107.96,244.64 102.5,244.64 97.03,244.64 91.57,244.64 86.1,244.64 80.64,244.64 75.17,244.64 69.7,244.64 64.24,244.64 58.77,244.64 53.31,244.64 47.84,244.64 47.93,239.27 48.21,233.9 48.66,228.55 49.3,223.22 50.11,217.9 51.11,212.62 52.29,207.38 53.64,202.18 55.16,197.03 56.86,191.93 58.74,186.9 60.78,181.93 62.99,177.03 65.36,172.21 67.9,167.47 70.59,162.82 73.45,158.27 76.45,153.81 79.6,149.46 82.9,145.22 86.34,141.1 89.92,137.09 93.63,133.2 97.48,129.45 101.44,125.82 105.53,122.34 109.73,118.99 114.05,115.79 118.47,112.73 122.99,109.83 127.61,107.08 132.32,104.49 137.11,102.07 141.98,99.8 146.93,97.7 151.94,95.77 157.02,94.02 162.16,92.43 167.34,91.02 172.57,89.79 177.84,88.73 183.14,87.85 188.47,87.16 193.81,86.64 199.18,86.31 204.55,86.16 209.92,86.19 215.29,86.4 220.65,86.79 225.99,87.37 231.31,88.13 236.6,89.06 241.86,90.18 247.07,91.47 252.24,92.94 257.36,94.58 262.41,96.4 267.41,98.38 272.33,100.54 277.18,102.86 281.94,105.34 286.62,107.98 291.21,110.78 295.69,113.74 300.08,116.84 304.36,120.09 308.52,123.48 312.57,127.02 316.5,130.69 320.3,134.49 323.97,138.41 327.5,142.46 330.89,146.62 334.14,150.9 337.25,155.29 340.2,159.78 343,164.36 345.64,169.04 348.13,173.81 350.45,178.65 352.6,183.58 354.59,188.57 356.4,193.63 358.04,198.74 359.51,203.91 360.81,209.12 361.92,214.38 362.86,219.67 363.61,224.99 364.19,230.33 364.58,235.69 364.8,241.06 364.83,246.43 364.67,251.81 364.34,257.17 363.83,262.52 363.13,267.84 362.25,273.15 361.2,278.41 359.96,283.64 358.55,288.83 356.97,293.96 355.21,299.04 353.28,304.05 351.18,309 348.92,313.87 346.49,318.67 343.9,323.37 341.15,327.99 338.25,332.51 335.19,336.93 331.99,341.25 328.65,345.45 325.16,349.54 321.53,353.51 317.78,357.35 313.89,361.06 309.89,364.64 305.76,368.08 301.52,371.38 297.17,374.53 292.71,377.54 288.16,380.39 283.51,383.08 278.77,385.62 273.95,387.99 269.06,390.2 264.09,392.25 259.05,394.12 253.95,395.82 248.8,397.35 243.6,398.7 238.36,399.87 233.08,400.87 227.77,401.68 222.43,402.32 217.08,402.78 211.71,403.05 206.34,403.14 206.34,397.67 206.34,392.21 206.34,386.74 206.34,381.28 206.34,375.81 206.34,370.35 206.34,364.88 206.34,359.42 206.34,353.95 206.34,348.49 206.34,343.02 206.34,337.55 206.34,332.09 206.34,326.62 206.34,321.16 206.34,315.69 206.34,310.23 206.34,304.76 206.34,299.3 206.34,293.83 206.34,288.37 206.34,282.9 206.34,277.44 206.34,271.97 206.34,266.5 206.34,261.04 206.34,255.57 206.34,250.11 206.34,244.64 206.34,244.64" stroke="none" fill="rgb(97,156,255)" stroke-width="1.07" stroke-dasharray="none" stroke-opacity="0" fill-opacity="1"/>
                </g>
                <g id="geom_polygon.polygon.1718.1" class="polygon grob gDesc">
                  <polygon id="geom_polygon.polygon.1718.1.1" points="206.34,244.64 203.61,249.38 200.87,254.11 198.14,258.84 195.41,263.58 192.68,268.31 189.94,273.04 187.21,277.78 184.48,282.51 181.75,287.24 179.01,291.97 176.28,296.71 173.55,301.44 170.81,306.17 168.08,310.91 165.35,315.64 162.62,320.37 159.88,325.11 157.15,329.84 154.42,334.57 151.69,339.31 148.95,344.04 146.22,348.77 143.49,353.51 140.75,358.24 138.02,362.97 135.29,367.71 132.56,372.44 129.82,377.17 127.09,381.91 122.35,379.06 117.71,376.04 113.18,372.87 108.76,369.54 104.46,366.06 100.28,362.43 96.24,358.66 92.33,354.74 88.55,350.7 84.92,346.52 81.44,342.22 78.11,337.81 74.94,333.27 71.93,328.63 69.08,323.89 66.4,319.05 63.88,314.12 61.55,309.11 59.38,304.02 57.4,298.85 55.6,293.62 53.98,288.33 52.55,282.99 51.31,277.6 50.25,272.17 49.39,266.7 48.71,261.21 48.23,255.7 47.94,250.17 47.84,244.64 53.31,244.64 58.77,244.64 64.24,244.64 69.7,244.64 75.17,244.64 80.64,244.64 86.1,244.64 91.57,244.64 97.03,244.64 102.5,244.64 107.96,244.64 113.43,244.64 118.89,244.64 124.36,244.64 129.82,244.64 135.29,244.64 140.75,244.64 146.22,244.64 151.69,244.64 157.15,244.64 162.62,244.64 168.08,244.64 173.55,244.64 179.01,244.64 184.48,244.64 189.94,244.64 195.41,244.64 200.87,244.64 206.34,244.64 206.34,244.64" stroke="none" fill="rgb(0,186,56)" stroke-width="1.07" stroke-dasharray="none" stroke-opacity="0" fill-opacity="1"/>
                </g>
                <g id="geom_polygon.polygon.1720.1" class="polygon grob gDesc">
                  <polygon id="geom_polygon.polygon.1720.1.1" points="206.34,244.64 206.34,250.11 206.34,255.57 206.34,261.04 206.34,266.5 206.34,271.97 206.34,277.44 206.34,282.9 206.34,288.37 206.34,293.83 206.34,299.3 206.34,304.76 206.34,310.23 206.34,315.69 206.34,321.16 206.34,326.62 206.34,332.09 206.34,337.55 206.34,343.02 206.34,348.49 206.34,353.95 206.34,359.42 206.34,364.88 206.34,370.35 206.34,375.81 206.34,381.28 206.34,386.74 206.34,392.21 206.34,397.67 206.34,403.14 200.81,403.04 195.28,402.75 189.77,402.27 184.28,401.6 178.82,400.73 173.39,399.68 168,398.43 162.65,397 157.36,395.38 152.13,393.58 146.97,391.6 141.87,389.44 136.86,387.1 131.93,384.59 127.09,381.91 129.82,377.17 132.56,372.44 135.29,367.71 138.02,362.97 140.75,358.24 143.49,353.51 146.22,348.77 148.95,344.04 151.69,339.31 154.42,334.57 157.15,329.84 159.88,325.11 162.62,320.37 165.35,315.64 168.08,310.91 170.81,306.17 173.55,301.44 176.28,296.71 179.01,291.97 181.75,287.24 184.48,282.51 187.21,277.78 189.94,273.04 192.68,268.31 195.41,263.58 198.14,258.84 200.87,254.11 203.61,249.38 206.34,244.64 206.34,244.64" stroke="none" fill="rgb(248,118,109)" stroke-width="1.07" stroke-dasharray="none" stroke-opacity="0" fill-opacity="1"/>
                </g>
              </g>
              <g id="GRID.text.1723.1" class="text grob gDesc">
                <g id="GRID.text.1723.1.1" transform="translate(262.38, 188.61)" stroke-width="0.1">
                  <g id="GRID.text.1723.1.1.scale" transform="scale(1, -1)">
                    <text x="0" y="0" id="GRID.text.1723.1.1.text" text-anchor="middle" stroke="rgb(0,0,0)" font-size="11.04" font-family="Helvetica, Arial, FreeSans, Liberation Sans, Nimbus Sans L, sans-serif" fill="rgb(0,0,0)" stroke-opacity="1" fill-opacity="1" font-weight="normal" font-style="normal">
                      <tspan id="GRID.text.1723.1.1.tspan.1" dy="3.95" x="0">36</tspan>
                    </text>
                  </g>
                </g>
                <g id="GRID.text.1723.1.2" transform="translate(137.71, 284.27)" stroke-width="0.1">
                  <g id="GRID.text.1723.1.2.scale" transform="scale(1, -1)">
                    <text x="0" y="0" id="GRID.text.1723.1.2.text" text-anchor="middle" stroke="rgb(0,0,0)" font-size="11.04" font-family="Helvetica, Arial, FreeSans, Liberation Sans, Nimbus Sans L, sans-serif" fill="rgb(0,0,0)" stroke-opacity="1" fill-opacity="1" font-weight="normal" font-style="normal">
                      <tspan id="GRID.text.1723.1.2.tspan.1" dy="3.95" x="0">8</tspan>
                    </text>
                  </g>
                </g>
                <g id="GRID.text.1723.1.3" transform="translate(185.83, 321.19)" stroke-width="0.1">
                  <g id="GRID.text.1723.1.3.scale" transform="scale(1, -1)">
                    <text x="0" y="0" id="GRID.text.1723.1.3.text" text-anchor="middle" stroke="rgb(0,0,0)" font-size="11.04" font-family="Helvetica, Arial, FreeSans, Liberation Sans, Nimbus Sans L, sans-serif" fill="rgb(0,0,0)" stroke-opacity="1" fill-opacity="1" font-weight="normal" font-style="normal">
                      <tspan id="GRID.text.1723.1.3.tspan.1" dy="3.95" x="0">4</tspan>
                    </text>
                  </g>
                </g>
              </g>
              <g id="GRID.gTree.1724.1" class="gTree grob gDesc"/>
            </g>
          </g>
          <g id="layout::spacer.8-6-8-6.1" class="viewport"/>
          <g id="layout::spacer.8-4-8-4.1" class="viewport"/>
          <g id="layout::spacer.6-6-6-6.1" class="viewport"/>
          <g id="layout::spacer.6-4-6-4.1" class="viewport"/>
          <g id="layout::axis-t.6-5-6-5.1" class="viewport"/>
          <g id="layout::axis-l.7-4-7-4.1" class="viewport">
            <g id="layout::axis-l.7-4-7-4::GRID.VP.404.1" class="viewport">
              <g id="axis-l.7-4-7-4.1" class="forcedgrob gTableChild absoluteGrob gTree grob gDesc">
                <g id="layout::axis-l.7-4-7-4::GRID.VP.404::axis.1" class="viewport">
                  <g id="axis.1" class="forcedgrob gtable gTree grob gDesc">
                    <g id="layout::axis-l.7-4-7-4::GRID.VP.404::axis::axis.1-1-1-1.1" class="viewport"/>
                    <g id="layout::axis-l.7-4-7-4::GRID.VP.404::axis::axis.1-2-1-2.1" class="viewport"/>
                  </g>
                </g>
              </g>
            </g>
          </g>
          <g id="layout::axis-r.7-6-7-6.1" class="viewport"/>
          <g id="layout::axis-b.8-5-8-5.1" class="viewport">
            <g id="layout::axis-b.8-5-8-5::GRID.VP.403.1" class="viewport">
              <g id="axis-b.8-5-8-5.1" class="forcedgrob gTableChild absoluteGrob gTree grob gDesc">
                <g id="layout::axis-b.8-5-8-5::GRID.VP.403::axis.1" class="viewport">
                  <g id="axis.2" class="forcedgrob gtable gTree grob gDesc">
                    <g id="layout::axis-b.8-5-8-5::GRID.VP.403::axis::axis.1-1-1-1.1" class="viewport"/>
                    <g id="layout::axis-b.8-5-8-5::GRID.VP.403::axis::axis.2-1-2-1.1" class="viewport"/>
                  </g>
                </g>
              </g>
            </g>
          </g>
          <g id="layout::xlab-t.5-5-5-5.1" class="viewport"/>
          <g id="layout::xlab-b.9-5-9-5.1" class="viewport"/>
          <g id="layout::ylab-l.7-3-7-3.1" class="viewport"/>
          <g id="layout::ylab-r.7-7-7-7.1" class="viewport"/>
          <g id="layout::guide-box.7-9-7-9.1" class="viewport">
            <g id="layout::guide-box.7-9-7-9::GRID.VP.415.1" class="viewport">
              <g id="layout::guide-box.7-9-7-9::GRID.VP.415::guide-box.7-9-7-9.1" class="viewport">
                <g id="guide-box.7-9-7-9.1" class="forcedgrob gTableChild gtable gTree grob gDesc">
                  <g id="layout::guide-box.7-9-7-9::GRID.VP.415::guide-box.7-9-7-9::legend.box.background.2-4-4-2.1" class="viewport"/>
                  <g id="layout::guide-box.7-9-7-9::GRID.VP.415::guide-box.7-9-7-9::guides.3-3-3-3.1" class="viewport">
                    <g id="layout::guide-box.7-9-7-9::GRID.VP.415::guide-box.7-9-7-9::guides.3-3-3-3::GRID.VP.414.1" class="viewport">
                      <g id="layout::guide-box.7-9-7-9::GRID.VP.415::guide-box.7-9-7-9::guides.3-3-3-3::GRID.VP.414::guides.3-3-3-3.1" class="viewport">
                        <g id="guides.3-3-3-3.1" class="forcedgrob gTableChild gtable gTree grob gDesc">
                          <g id="layout::guide-box.7-9-7-9::GRID.VP.415::guide-box.7-9-7-9::guides.3-3-3-3::GRID.VP.414::guides.3-3-3-3::background.1-6-7-1.1" class="viewport">
                            <g id="background.1-6-7-1.1" class="forcedgrob gTableChild rect grob gDesc">
                              <rect id="background.1-6-7-1.1.1" x="415.42" y="210.5" width="83.1" height="68.28" transform="" stroke-width="1.07" stroke="none" fill="rgb(255,255,255)" stroke-dasharray="none" stroke-opacity="0" fill-opacity="1"/>
                            </g>
                          </g>
                          <g id="layout::guide-box.7-9-7-9::GRID.VP.415::guide-box.7-9-7-9::guides.3-3-3-3::GRID.VP.414::guides.3-3-3-3::title.2-5-2-2.1" class="viewport"/>
                          <g id="layout::guide-box.7-9-7-9::GRID.VP.415::guide-box.7-9-7-9::guides.3-3-3-3::GRID.VP.414::guides.3-3-3-3::key-3-1-bg.4-2-4-2.1" class="viewport"/>
                          <g id="layout::guide-box.7-9-7-9::GRID.VP.415::guide-box.7-9-7-9::guides.3-3-3-3::GRID.VP.414::guides.3-3-3-3::key-3-1-1.4-2-4-2.1" class="viewport">
                            <g id="key-3-1-1.4-2-4-2.1" class="forcedgrob gTableChild rect grob gDesc">
                              <rect id="key-3-1-1.4-2-4-2.1.1" x="421.61" y="251.25" width="15.86" height="15.86" transform="" stroke="none" fill="rgb(248,118,109)" stroke-dasharray="none" stroke-width="1.07" stroke-linejoin="miter" stroke-opacity="0" fill-opacity="1"/>
                            </g>
                          </g>
                          <g id="layout::guide-box.7-9-7-9::GRID.VP.415::guide-box.7-9-7-9::guides.3-3-3-3::GRID.VP.414::guides.3-3-3-3::key-4-1-bg.5-2-5-2.1" class="viewport"/>
                          <g id="layout::guide-box.7-9-7-9::GRID.VP.415::guide-box.7-9-7-9::guides.3-3-3-3::GRID.VP.414::guides.3-3-3-3::key-4-1-1.5-2-5-2.1" class="viewport">
                            <g id="key-4-1-1.5-2-5-2.1" class="forcedgrob gTableChild rect grob gDesc">
                              <rect id="key-4-1-1.5-2-5-2.1.1" x="421.61" y="233.97" width="15.86" height="15.86" transform="" stroke="none" fill="rgb(0,186,56)" stroke-dasharray="none" stroke-width="1.07" stroke-linejoin="miter" stroke-opacity="0" fill-opacity="1"/>
                            </g>
                          </g>
                          <g id="layout::guide-box.7-9-7-9::GRID.VP.415::guide-box.7-9-7-9::guides.3-3-3-3::GRID.VP.414::guides.3-3-3-3::key-5-1-bg.6-2-6-2.1" class="viewport"/>
                          <g id="layout::guide-box.7-9-7-9::GRID.VP.415::guide-box.7-9-7-9::guides.3-3-3-3::GRID.VP.414::guides.3-3-3-3::key-5-1-1.6-2-6-2.1" class="viewport">
                            <g id="key-5-1-1.6-2-6-2.1" class="forcedgrob gTableChild rect grob gDesc">
                              <rect id="key-5-1-1.6-2-6-2.1.1" x="421.61" y="216.69" width="15.86" height="15.86" transform="" stroke="none" fill="rgb(97,156,255)" stroke-dasharray="none" stroke-width="1.07" stroke-linejoin="miter" stroke-opacity="0" fill-opacity="1"/>
                            </g>
                          </g>
                          <g id="layout::guide-box.7-9-7-9::GRID.VP.415::guide-box.7-9-7-9::guides.3-3-3-3::GRID.VP.414::guides.3-3-3-3::label-3-3.4-4-4-4.1" class="viewport">
                            <g id="layout::guide-box.7-9-7-9::GRID.VP.415::guide-box.7-9-7-9::guides.3-3-3-3::GRID.VP.414::guides.3-3-3-3::label-3-3.4-4-4-4::GRID.VP.411.1" class="viewport">
                              <g id="label-3-3.4-4-4-4.1" class="forcedgrob gTableChild gTree grob gDesc">
                                <g id="layout::guide-box.7-9-7-9::GRID.VP.415::guide-box.7-9-7-9::guides.3-3-3-3::GRID.VP.414::guides.3-3-3-3::label-3-3.4-4-4-4::GRID.VP.411::GRID.VP.405.1" font-size="8.8" stroke="rgb(0,0,0)" font-family="Helvetica, Arial, FreeSans, Liberation Sans, Nimbus Sans L, sans-serif" stroke-opacity="1" font-weight="normal" font-style="normal" class="viewport">
                                  <g id="layout::guide-box.7-9-7-9::GRID.VP.415::guide-box.7-9-7-9::guides.3-3-3-3::GRID.VP.414::guides.3-3-3-3::label-3-3.4-4-4-4::GRID.VP.411::GRID.VP.405::GRID.VP.406.1" class="viewport">
                                    <g id="guide.label.titleGrob.1747.1" class="titleGrob gTree grob gDesc">
                                      <g id="GRID.text.1745.1" class="text grob gDesc">
                                        <g id="GRID.text.1745.1.1" transform="translate(443.66, 259.18)" stroke-width="0.1">
                                          <g id="GRID.text.1745.1.1.scale" transform="scale(1, -1)">
                                            <text x="0" y="0" id="GRID.text.1745.1.1.text" text-anchor="start" font-size="8.8" stroke="rgb(0,0,0)" font-family="Helvetica, Arial, FreeSans, Liberation Sans, Nimbus Sans L, sans-serif" fill="rgb(0,0,0)" stroke-opacity="1" fill-opacity="1" font-weight="normal" font-style="normal">
                                              <tspan id="GRID.text.1745.1.1.tspan.1" dy="3.23" x="0">Fisso</tspan>
                                            </text>
                                          </g>
                                        </g>
                                      </g>
                                    </g>
                                  </g>
                                </g>
                              </g>
                            </g>
                          </g>
                          <g id="layout::guide-box.7-9-7-9::GRID.VP.415::guide-box.7-9-7-9::guides.3-3-3-3::GRID.VP.414::guides.3-3-3-3::label-4-3.5-4-5-4.1" class="viewport">
                            <g id="layout::guide-box.7-9-7-9::GRID.VP.415::guide-box.7-9-7-9::guides.3-3-3-3::GRID.VP.414::guides.3-3-3-3::label-4-3.5-4-5-4::GRID.VP.412.1" class="viewport">
                              <g id="label-4-3.5-4-5-4.1" class="forcedgrob gTableChild gTree grob gDesc">
                                <g id="layout::guide-box.7-9-7-9::GRID.VP.415::guide-box.7-9-7-9::guides.3-3-3-3::GRID.VP.414::guides.3-3-3-3::label-4-3.5-4-5-4::GRID.VP.412::GRID.VP.407.1" font-size="8.8" stroke="rgb(0,0,0)" font-family="Helvetica, Arial, FreeSans, Liberation Sans, Nimbus Sans L, sans-serif" stroke-opacity="1" font-weight="normal" font-style="normal" class="viewport">
                                  <g id="layout::guide-box.7-9-7-9::GRID.VP.415::guide-box.7-9-7-9::guides.3-3-3-3::GRID.VP.414::guides.3-3-3-3::label-4-3.5-4-5-4::GRID.VP.412::GRID.VP.407::GRID.VP.408.1" class="viewport">
                                    <g id="guide.label.titleGrob.1750.1" class="titleGrob gTree grob gDesc">
                                      <g id="GRID.text.1748.1" class="text grob gDesc">
                                        <g id="GRID.text.1748.1.1" transform="translate(443.66, 241.9)" stroke-width="0.1">
                                          <g id="GRID.text.1748.1.1.scale" transform="scale(1, -1)">
                                            <text x="0" y="0" id="GRID.text.1748.1.1.text" text-anchor="start" font-size="8.8" stroke="rgb(0,0,0)" font-family="Helvetica, Arial, FreeSans, Liberation Sans, Nimbus Sans L, sans-serif" fill="rgb(0,0,0)" stroke-opacity="1" fill-opacity="1" font-weight="normal" font-style="normal">
                                              <tspan id="GRID.text.1748.1.1.tspan.1" dy="3.23" x="0">Smartphone</tspan>
                                            </text>
                                          </g>
                                        </g>
                                      </g>
                                    </g>
                                  </g>
                                </g>
                              </g>
                            </g>
                          </g>
                          <g id="layout::guide-box.7-9-7-9::GRID.VP.415::guide-box.7-9-7-9::guides.3-3-3-3::GRID.VP.414::guides.3-3-3-3::label-5-3.6-4-6-4.1" class="viewport">
                            <g id="layout::guide-box.7-9-7-9::GRID.VP.415::guide-box.7-9-7-9::guides.3-3-3-3::GRID.VP.414::guides.3-3-3-3::label-5-3.6-4-6-4::GRID.VP.413.1" class="viewport">
                              <g id="label-5-3.6-4-6-4.1" class="forcedgrob gTableChild gTree grob gDesc">
                                <g id="layout::guide-box.7-9-7-9::GRID.VP.415::guide-box.7-9-7-9::guides.3-3-3-3::GRID.VP.414::guides.3-3-3-3::label-5-3.6-4-6-4::GRID.VP.413::GRID.VP.409.1" font-size="8.8" stroke="rgb(0,0,0)" font-family="Helvetica, Arial, FreeSans, Liberation Sans, Nimbus Sans L, sans-serif" stroke-opacity="1" font-weight="normal" font-style="normal" class="viewport">
                                  <g id="layout::guide-box.7-9-7-9::GRID.VP.415::guide-box.7-9-7-9::guides.3-3-3-3::GRID.VP.414::guides.3-3-3-3::label-5-3.6-4-6-4::GRID.VP.413::GRID.VP.409::GRID.VP.410.1" class="viewport">
                                    <g id="guide.label.titleGrob.1753.1" class="titleGrob gTree grob gDesc">
                                      <g id="GRID.text.1751.1" class="text grob gDesc">
                                        <g id="GRID.text.1751.1.1" transform="translate(443.66, 224.62)" stroke-width="0.1">
                                          <g id="GRID.text.1751.1.1.scale" transform="scale(1, -1)">
                                            <text x="0" y="0" id="GRID.text.1751.1.1.text" text-anchor="start" font-size="8.8" stroke="rgb(0,0,0)" font-family="Helvetica, Arial, FreeSans, Liberation Sans, Nimbus Sans L, sans-serif" fill="rgb(0,0,0)" stroke-opacity="1" fill-opacity="1" font-weight="normal" font-style="normal">
                                              <tspan id="GRID.text.1751.1.1.tspan.1" dy="3.23" x="0">Portatile</tspan>
                                            </text>
                                          </g>
                                        </g>
                                      </g>
                                    </g>
                                  </g>
                                </g>
                              </g>
                            </g>
                          </g>
                        </g>
                      </g>
                    </g>
                  </g>
                </g>
              </g>
            </g>
          </g>
          <g id="layout::subtitle.4-5-4-5.1" class="viewport"/>
          <g id="layout::title.3-5-3-5.1" class="viewport">
            <g id="layout::title.3-5-3-5::GRID.VP.416.1" font-size="13.2" stroke="rgb(102,102,102)" font-family="Helvetica, Arial, FreeSans, Liberation Sans, Nimbus Sans L, sans-serif" stroke-opacity="1" font-weight="normal" font-style="normal" class="viewport">
              <g id="layout::title.3-5-3-5::GRID.VP.416::GRID.VP.417.1" class="viewport">
                <g id="title.3-5-3-5.1" class="forcedgrob gTableChild titleGrob gTree grob gDesc">
                  <g id="GRID.text.1765.1" class="text grob gDesc">
                    <g id="GRID.text.1765.1.1" transform="translate(206.34, 460.22)" stroke-width="0.1">
                      <g id="GRID.text.1765.1.1.scale" transform="scale(1, -1)">
                        <text x="0" y="0" id="GRID.text.1765.1.1.text" text-anchor="middle" font-size="13.2" stroke="rgb(102,102,102)" font-family="Helvetica, Arial, FreeSans, Liberation Sans, Nimbus Sans L, sans-serif" fill="rgb(102,102,102)" stroke-opacity="1" fill-opacity="1" font-weight="normal" font-style="normal">
                          <tspan id="GRID.text.1765.1.1.tspan.1" dy="9.33" x="0">anagrafica totali-dispositivo</tspan>
                        </text>
                      </g>
                    </g>
                  </g>
                </g>
              </g>
            </g>
          </g>
          <g id="layout::caption.10-5-10-5.1" class="viewport"/>
          <g id="layout::tag.2-2-2-2.1" class="viewport"/>
        </g>
      </g>
    </g>
  </g>
</svg>