<?xml version="1.0" encoding="UTF-8"?>
<svg xmlns="http://www.w3.org/2000/svg" xmlns:xlink="http://www.w3.org/1999/xlink" width="504px" height="504px" viewBox="0 0 504 504" version="1.1">
  <metadata xmlns:gridsvg="http://www.stat.auckland.ac.nz/~paul/R/gridSVG/">
    <gridsvg:generator name="gridSVG" version="1.6-0" time="2019-01-14 15:47:54"/>
    <gridsvg:argument name="name" value="./latest_informaggio_csv/anziani/risultati/svg/anagrafica-totali-altrodispositivo.svg"/>
    <gridsvg:argument name="exportCoords" value="none"/>
    <gridsvg:argument name="exportMappings" value="none"/>
    <gridsvg:argument name="exportJS" value="none"/>
    <gridsvg:argument name="res" value="72"/>
    <gridsvg:argument name="prefix" value=""/>
    <gridsvg:argument name="addClasses" value="TRUE"/>
    <gridsvg:argument name="indent" value="TRUE"/>
    <gridsvg:argument name="htmlWrapper" value="FALSE"/>
    <gridsvg:argument name="usePaths" value="vpPaths"/>
    <gridsvg:argument name="uniqueNames" value="TRUE"/>
    <gridsvg:separator name="id.sep" value="."/>
    <gridsvg:separator name="gPath.sep" value="::"/>
    <gridsvg:separator name="vpPath.sep" value="::"/>
  </metadata>
  <g transform="translate(0, 504) scale(1, -1)">
    <g id="gridSVG" fill="none" stroke="rgb(0,0,0)" stroke-dasharray="none" stroke-width="0.75" font-size="12" font-family="Helvetica, Arial, FreeSans, Liberation Sans, Nimbus Sans L, sans-serif" opacity="1" stroke-linecap="round" stroke-linejoin="round" stroke-miterlimit="10" stroke-opacity="1" fill-opacity="0" font-weight="normal" font-style="normal">
      <g id="layout.1" class="viewport">
        <g id="layout.2" class="forcedgrob gtable gTree grob gDesc">
          <defs>
            <clipPath id="layout::background.1-11-12-1.1.clipPath">
              <rect x="0" y="19.86" width="504" height="464.28" fill="none" stroke="none"/>
            </clipPath>
          </defs>
          <g id="layout::background.1-11-12-1.1" clip-path="url(#layout::background.1-11-12-1.1.clipPath)" class="viewport">
            <g id="background.1-11-12-1.1" class="forcedgrob gTableChild rect grob gDesc">
              <rect id="background.1-11-12-1.1.1" x="0" y="19.86" width="504" height="464.28" transform="" stroke-width="1.07" stroke="rgb(255,255,255)" fill="rgb(255,255,255)" stroke-dasharray="none" stroke-opacity="1" fill-opacity="1"/>
            </g>
          </g>
          <defs>
            <clipPath id="layout::panel.7-5-7-5.1.clipPath">
              <rect x="8.22" y="28.08" width="433.12" height="433.12" fill="none" stroke="none"/>
            </clipPath>
          </defs>
          <g id="layout::panel.7-5-7-5.1" clip-path="url(#layout::panel.7-5-7-5.1.clipPath)" class="viewport">
            <g id="panel.7-5-7-5.1" class="forcedgrob gTableChild gTree grob gDesc">
              <g id="grill.gTree.107.1" class="gTree grob gDesc">
                <g id="panel.background..rect.103.1" class="rect grob gDesc">
                  <rect id="panel.background..rect.103.1.1" x="8.22" y="28.08" width="433.12" height="433.12" transform="" stroke-width="1.07" stroke="none" fill="rgb(255,255,255)" stroke-dasharray="none" stroke-opacity="0" fill-opacity="1"/>
                </g>
              </g>
              <g id="bar.gTree.96.1" class="gTree grob gDesc">
                <g id="geom_polygon.polygon.94.1" class="polygon grob gDesc">
                  <polygon id="geom_polygon.polygon.94.1.1" points="224.78,244.64 224.78,250.62 224.78,256.59 224.78,262.57 224.78,268.54 224.78,274.51 224.78,280.49 224.78,286.46 224.78,292.44 224.78,298.41 224.78,304.38 224.78,310.36 224.78,316.33 224.78,322.31 224.78,328.28 224.78,334.25 224.78,340.23 224.78,346.2 224.78,352.18 224.78,358.15 224.78,364.13 224.78,370.1 224.78,376.07 224.78,382.05 224.78,388.02 224.78,394 224.78,399.97 224.78,405.94 224.78,411.92 224.78,417.89 218.9,417.79 213.02,417.49 207.16,416.99 201.32,416.3 195.5,415.4 189.72,414.31 183.98,413.02 178.29,411.54 172.64,409.86 167.06,408 161.55,405.94 156.11,403.7 150.75,401.28 145.47,398.67 140.29,395.89 135.2,392.94 130.22,389.81 125.34,386.51 120.58,383.06 115.94,379.44 111.43,375.66 107.04,371.74 102.8,367.67 98.69,363.45 94.73,359.1 90.92,354.62 87.26,350.01 83.76,345.28 80.42,340.44 77.25,335.48 74.25,330.42 71.43,325.26 68.78,320 66.31,314.66 64.02,309.24 61.92,303.74 60.01,298.18 58.29,292.55 56.76,286.87 55.42,281.14 54.28,275.37 53.33,269.56 52.59,263.73 52.04,257.87 51.69,252 51.54,246.11 51.59,240.23 51.84,234.35 52.29,228.49 52.93,222.64 53.78,216.81 54.82,211.02 56.06,205.27 57.5,199.57 59.13,193.91 60.94,188.32 62.95,182.79 65.14,177.33 67.52,171.94 70.08,166.65 72.82,161.44 75.73,156.33 78.82,151.32 82.07,146.41 85.49,141.62 89.07,136.95 92.8,132.41 96.69,127.99 100.72,123.71 104.9,119.56 109.22,115.57 113.67,111.72 118.25,108.02 122.95,104.48 127.77,101.1 132.7,97.89 137.73,94.85 142.87,91.98 148.1,89.29 153.42,86.77 158.82,84.44 164.3,82.29 169.85,80.33 175.46,78.56 181.13,76.98 186.84,75.6 192.61,74.41 198.41,73.41 204.23,72.62 210.09,72.02 215.96,71.62 221.84,71.42 227.72,71.42 233.6,71.62 239.47,72.02 245.33,72.62 251.16,73.41 256.96,74.41 262.72,75.6 268.44,76.98 274.1,78.56 279.71,80.33 285.26,82.29 290.74,84.44 296.14,86.77 301.46,89.29 306.69,91.98 311.83,94.85 316.87,97.89 321.8,101.1 326.61,104.48 331.31,108.02 335.89,111.72 340.34,115.57 344.66,119.56 348.84,123.71 352.87,127.99 356.76,132.41 360.49,136.95 364.07,141.62 367.49,146.41 370.74,151.32 373.83,156.33 376.74,161.44 379.48,166.65 382.04,171.94 384.42,177.33 386.61,182.79 388.62,188.32 390.44,193.91 392.06,199.57 393.5,205.27 394.74,211.02 395.78,216.81 396.63,222.64 397.27,228.49 397.72,234.35 397.97,240.23 398.02,246.11 397.87,252 397.52,257.87 396.98,263.73 396.23,269.56 395.28,275.37 394.14,281.14 392.8,286.87 391.27,292.55 389.55,298.18 387.64,303.74 385.54,309.24 383.25,314.66 380.78,320 378.13,325.26 375.31,330.42 372.31,335.48 369.14,340.44 365.8,345.28 362.3,350.01 358.65,354.62 354.83,359.1 350.87,363.45 346.77,367.67 342.52,371.74 338.13,375.66 333.62,379.44 328.98,383.06 324.22,386.51 319.34,389.81 314.36,392.94 309.27,395.89 304.09,398.67 298.81,401.28 293.45,403.7 288.01,405.94 282.5,408 276.92,409.86 271.28,411.54 265.58,413.02 259.84,414.31 254.06,415.4 248.24,416.3 242.4,416.99 236.54,417.49 230.66,417.79 224.78,417.89 224.78,411.92 224.78,405.94 224.78,399.97 224.78,394 224.78,388.02 224.78,382.05 224.78,376.07 224.78,370.1 224.78,364.13 224.78,358.15 224.78,352.18 224.78,346.2 224.78,340.23 224.78,334.25 224.78,328.28 224.78,322.31 224.78,316.33 224.78,310.36 224.78,304.38 224.78,298.41 224.78,292.44 224.78,286.46 224.78,280.49 224.78,274.51 224.78,268.54 224.78,262.57 224.78,256.59 224.78,250.62 224.78,244.64 224.78,244.64" stroke="none" fill="rgb(248,118,109)" stroke-width="1.07" stroke-dasharray="none" stroke-opacity="0" fill-opacity="1"/>
                </g>
              </g>
              <g id="GRID.text.97.1" class="text grob gDesc">
                <g id="GRID.text.97.1.1" transform="translate(224.78, 158.02)" stroke-width="0.1">
                  <g id="GRID.text.97.1.1.scale" transform="scale(1, -1)">
                    <text x="0" y="0" id="GRID.text.97.1.1.text" text-anchor="middle" stroke="rgb(0,0,0)" font-size="11.04" font-family="Helvetica, Arial, FreeSans, Liberation Sans, Nimbus Sans L, sans-serif" fill="rgb(0,0,0)" stroke-opacity="1" fill-opacity="1" font-weight="normal" font-style="normal">
                      <tspan id="GRID.text.97.1.1.tspan.1" dy="3.95" x="0">48</tspan>
                    </text>
                  </g>
                </g>
              </g>
              <g id="GRID.gTree.98.1" class="gTree grob gDesc"/>
            </g>
          </g>
          <g id="layout::spacer.8-6-8-6.1" class="viewport"/>
          <g id="layout::spacer.8-4-8-4.1" class="viewport"/>
          <g id="layout::spacer.6-6-6-6.1" class="viewport"/>
          <g id="layout::spacer.6-4-6-4.1" class="viewport"/>
          <g id="layout::axis-t.6-5-6-5.1" class="viewport"/>
          <g id="layout::axis-l.7-4-7-4.1" class="viewport">
            <g id="layout::axis-l.7-4-7-4::GRID.VP.23.1" class="viewport">
              <g id="axis-l.7-4-7-4.1" class="forcedgrob gTableChild absoluteGrob gTree grob gDesc">
                <g id="layout::axis-l.7-4-7-4::GRID.VP.23::axis.1" class="viewport">
                  <g id="axis.1" class="forcedgrob gtable gTree grob gDesc">
                    <g id="layout::axis-l.7-4-7-4::GRID.VP.23::axis::axis.1-1-1-1.1" class="viewport"/>
                    <g id="layout::axis-l.7-4-7-4::GRID.VP.23::axis::axis.1-2-1-2.1" class="viewport"/>
                  </g>
                </g>
              </g>
            </g>
          </g>
          <g id="layout::axis-r.7-6-7-6.1" class="viewport"/>
          <g id="layout::axis-b.8-5-8-5.1" class="viewport">
            <g id="layout::axis-b.8-5-8-5::GRID.VP.22.1" class="viewport">
              <g id="axis-b.8-5-8-5.1" class="forcedgrob gTableChild absoluteGrob gTree grob gDesc">
                <g id="layout::axis-b.8-5-8-5::GRID.VP.22::axis.1" class="viewport">
                  <g id="axis.2" class="forcedgrob gtable gTree grob gDesc">
                    <g id="layout::axis-b.8-5-8-5::GRID.VP.22::axis::axis.1-1-1-1.1" class="viewport"/>
                    <g id="layout::axis-b.8-5-8-5::GRID.VP.22::axis::axis.2-1-2-1.1" class="viewport"/>
                  </g>
                </g>
              </g>
            </g>
          </g>
          <g id="layout::xlab-t.5-5-5-5.1" class="viewport"/>
          <g id="layout::xlab-b.9-5-9-5.1" class="viewport"/>
          <g id="layout::ylab-l.7-3-7-3.1" class="viewport"/>
          <g id="layout::ylab-r.7-7-7-7.1" class="viewport"/>
          <g id="layout::guide-box.7-9-7-9.1" class="viewport">
            <g id="layout::guide-box.7-9-7-9::GRID.VP.28.1" class="viewport">
              <g id="layout::guide-box.7-9-7-9::GRID.VP.28::guide-box.7-9-7-9.1" class="viewport">
                <g id="guide-box.7-9-7-9.1" class="forcedgrob gTableChild gtable gTree grob gDesc">
                  <g id="layout::guide-box.7-9-7-9::GRID.VP.28::guide-box.7-9-7-9::legend.box.background.2-4-4-2.1" class="viewport"/>
                  <g id="layout::guide-box.7-9-7-9::GRID.VP.28::guide-box.7-9-7-9::guides.3-3-3-3.1" class="viewport">
                    <g id="layout::guide-box.7-9-7-9::GRID.VP.28::guide-box.7-9-7-9::guides.3-3-3-3::GRID.VP.27.1" class="viewport">
                      <g id="layout::guide-box.7-9-7-9::GRID.VP.28::guide-box.7-9-7-9::guides.3-3-3-3::GRID.VP.27::guides.3-3-3-3.1" class="viewport">
                        <g id="guides.3-3-3-3.1" class="forcedgrob gTableChild gtable gTree grob gDesc">
                          <g id="layout::guide-box.7-9-7-9::GRID.VP.28::guide-box.7-9-7-9::guides.3-3-3-3::GRID.VP.27::guides.3-3-3-3::background.1-6-5-1.1" class="viewport">
                            <g id="background.1-6-5-1.1" class="forcedgrob gTableChild rect grob gDesc">
                              <rect id="background.1-6-5-1.1.1" x="452.3" y="227.78" width="46.22" height="33.72" transform="" stroke-width="1.07" stroke="none" fill="rgb(255,255,255)" stroke-dasharray="none" stroke-opacity="0" fill-opacity="1"/>
                            </g>
                          </g>
                          <g id="layout::guide-box.7-9-7-9::GRID.VP.28::guide-box.7-9-7-9::guides.3-3-3-3::GRID.VP.27::guides.3-3-3-3::title.2-5-2-2.1" class="viewport"/>
                          <g id="layout::guide-box.7-9-7-9::GRID.VP.28::guide-box.7-9-7-9::guides.3-3-3-3::GRID.VP.27::guides.3-3-3-3::key-3-1-bg.4-2-4-2.1" class="viewport"/>
                          <g id="layout::guide-box.7-9-7-9::GRID.VP.28::guide-box.7-9-7-9::guides.3-3-3-3::GRID.VP.27::guides.3-3-3-3::key-3-1-1.4-2-4-2.1" class="viewport">
                            <g id="key-3-1-1.4-2-4-2.1" class="forcedgrob gTableChild rect grob gDesc">
                              <rect id="key-3-1-1.4-2-4-2.1.1" x="458.49" y="233.97" width="15.86" height="15.86" transform="" stroke="none" fill="rgb(248,118,109)" stroke-dasharray="none" stroke-width="1.07" stroke-linejoin="miter" stroke-opacity="0" fill-opacity="1"/>
                            </g>
                          </g>
                          <g id="layout::guide-box.7-9-7-9::GRID.VP.28::guide-box.7-9-7-9::guides.3-3-3-3::GRID.VP.27::guides.3-3-3-3::label-3-3.4-4-4-4.1" class="viewport">
                            <g id="layout::guide-box.7-9-7-9::GRID.VP.28::guide-box.7-9-7-9::guides.3-3-3-3::GRID.VP.27::guides.3-3-3-3::label-3-3.4-4-4-4::GRID.VP.26.1" class="viewport">
                              <g id="label-3-3.4-4-4-4.1" class="forcedgrob gTableChild gTree grob gDesc">
                                <g id="layout::guide-box.7-9-7-9::GRID.VP.28::guide-box.7-9-7-9::guides.3-3-3-3::GRID.VP.27::guides.3-3-3-3::label-3-3.4-4-4-4::GRID.VP.26::GRID.VP.24.1" font-size="8.8" stroke="rgb(0,0,0)" font-family="Helvetica, Arial, FreeSans, Liberation Sans, Nimbus Sans L, sans-serif" stroke-opacity="1" font-weight="normal" font-style="normal" class="viewport">
                                  <g id="layout::guide-box.7-9-7-9::GRID.VP.28::guide-box.7-9-7-9::guides.3-3-3-3::GRID.VP.27::guides.3-3-3-3::label-3-3.4-4-4-4::GRID.VP.26::GRID.VP.24::GRID.VP.25.1" class="viewport">
                                    <g id="guide.label.titleGrob.121.1" class="titleGrob gTree grob gDesc">
                                      <g id="GRID.text.119.1" class="text grob gDesc">
                                        <g id="GRID.text.119.1.1" transform="translate(480.54, 241.9)" stroke-width="0.1">
                                          <g id="GRID.text.119.1.1.scale" transform="scale(1, -1)">
                                            <text x="0" y="0" id="GRID.text.119.1.1.text" text-anchor="start" font-size="8.8" stroke="rgb(0,0,0)" font-family="Helvetica, Arial, FreeSans, Liberation Sans, Nimbus Sans L, sans-serif" fill="rgb(0,0,0)" stroke-opacity="1" fill-opacity="1" font-weight="normal" font-style="normal">
                                              <tspan id="GRID.text.119.1.1.tspan.1" dy="3.23" x="0">NA</tspan>
                                            </text>
                                          </g>
                                        </g>
                                      </g>
                                    </g>
                                  </g>
                                </g>
                              </g>
                            </g>
                          </g>
                        </g>
                      </g>
                    </g>
                  </g>
                </g>
              </g>
            </g>
          </g>
          <g id="layout::subtitle.4-5-4-5.1" class="viewport"/>
          <g id="layout::title.3-5-3-5.1" class="viewport">
            <g id="layout::title.3-5-3-5::GRID.VP.29.1" font-size="13.2" stroke="rgb(102,102,102)" font-family="Helvetica, Arial, FreeSans, Liberation Sans, Nimbus Sans L, sans-serif" stroke-opacity="1" font-weight="normal" font-style="normal" class="viewport">
              <g id="layout::title.3-5-3-5::GRID.VP.29::GRID.VP.30.1" class="viewport">
                <g id="title.3-5-3-5.1" class="forcedgrob gTableChild titleGrob gTree grob gDesc">
                  <g id="GRID.text.127.1" class="text grob gDesc">
                    <g id="GRID.text.127.1.1" transform="translate(224.78, 478.66)" stroke-width="0.1">
                      <g id="GRID.text.127.1.1.scale" transform="scale(1, -1)">
                        <text x="0" y="0" id="GRID.text.127.1.1.text" text-anchor="middle" font-size="13.2" stroke="rgb(102,102,102)" font-family="Helvetica, Arial, FreeSans, Liberation Sans, Nimbus Sans L, sans-serif" fill="rgb(102,102,102)" stroke-opacity="1" fill-opacity="1" font-weight="normal" font-style="normal">
                          <tspan id="GRID.text.127.1.1.tspan.1" dy="9.33" x="0">anagrafica totali-altrodispositivo</tspan>
                        </text>
                      </g>
                    </g>
                  </g>
                </g>
              </g>
            </g>
          </g>
          <g id="layout::caption.10-5-10-5.1" class="viewport"/>
          <g id="layout::tag.2-2-2-2.1" class="viewport"/>
        </g>
      </g>
    </g>
  </g>
</svg>