<?xml version="1.0" encoding="UTF-8"?>
<svg xmlns="http://www.w3.org/2000/svg" xmlns:xlink="http://www.w3.org/1999/xlink" width="504px" height="504px" viewBox="0 0 504 504" version="1.1">
  <metadata xmlns:gridsvg="http://www.stat.auckland.ac.nz/~paul/R/gridSVG/">
    <gridsvg:generator name="gridSVG" version="1.6-0" time="2019-01-15 00:28:24"/>
    <gridsvg:argument name="name" value="./latest_informaggio_csv/risultati/svg/anagrafica-os.svg"/>
    <gridsvg:argument name="exportCoords" value="none"/>
    <gridsvg:argument name="exportMappings" value="none"/>
    <gridsvg:argument name="exportJS" value="none"/>
    <gridsvg:argument name="res" value="72"/>
    <gridsvg:argument name="prefix" value=""/>
    <gridsvg:argument name="addClasses" value="TRUE"/>
    <gridsvg:argument name="indent" value="TRUE"/>
    <gridsvg:argument name="htmlWrapper" value="FALSE"/>
    <gridsvg:argument name="usePaths" value="vpPaths"/>
    <gridsvg:argument name="uniqueNames" value="TRUE"/>
    <gridsvg:separator name="id.sep" value="."/>
    <gridsvg:separator name="gPath.sep" value="::"/>
    <gridsvg:separator name="vpPath.sep" value="::"/>
  </metadata>
  <g transform="translate(0, 504) scale(1, -1)">
    <g id="gridSVG" fill="none" stroke="rgb(0,0,0)" stroke-dasharray="none" stroke-width="0.75" font-size="12" font-family="Helvetica, Arial, FreeSans, Liberation Sans, Nimbus Sans L, sans-serif" opacity="1" stroke-linecap="round" stroke-linejoin="round" stroke-miterlimit="10" stroke-opacity="1" fill-opacity="0" font-weight="normal" font-style="normal">
      <g id="layout.1" class="viewport">
        <g id="layout.2" class="forcedgrob gtable gTree grob gDesc">
          <defs>
            <clipPath id="layout::background.1-11-12-1.1.clipPath">
              <rect x="0" y="44.12" width="504" height="415.76" fill="none" stroke="none"/>
            </clipPath>
          </defs>
          <g id="layout::background.1-11-12-1.1" clip-path="url(#layout::background.1-11-12-1.1.clipPath)" class="viewport">
            <g id="background.1-11-12-1.1" class="forcedgrob gTableChild rect grob gDesc">
              <rect id="background.1-11-12-1.1.1" x="0" y="44.12" width="504" height="415.76" transform="" stroke-width="1.07" stroke="rgb(255,255,255)" fill="rgb(255,255,255)" stroke-dasharray="none" stroke-opacity="1" fill-opacity="1"/>
            </g>
          </g>
          <defs>
            <clipPath id="layout::panel.7-5-7-5.1.clipPath">
              <rect x="8.22" y="52.34" width="384.6" height="384.6" fill="none" stroke="none"/>
            </clipPath>
          </defs>
          <g id="layout::panel.7-5-7-5.1" clip-path="url(#layout::panel.7-5-7-5.1.clipPath)" class="viewport">
            <g id="panel.7-5-7-5.1" class="forcedgrob gTableChild gTree grob gDesc">
              <g id="grill.gTree.3028.1" class="gTree grob gDesc">
                <g id="panel.background..rect.3024.1" class="rect grob gDesc">
                  <rect id="panel.background..rect.3024.1.1" x="8.22" y="52.34" width="384.6" height="384.6" transform="" stroke-width="1.07" stroke="none" fill="rgb(255,255,255)" stroke-dasharray="none" stroke-opacity="0" fill-opacity="1"/>
                </g>
              </g>
              <g id="bar.gTree.3017.1" class="gTree grob gDesc">
                <g id="geom_polygon.polygon.3009.1" class="polygon grob gDesc">
                  <polygon id="geom_polygon.polygon.3009.1.1" points="200.52,244.64 195.65,246.74 190.78,248.85 185.91,250.95 181.04,253.05 176.17,255.15 171.3,257.25 166.42,259.35 161.55,261.45 156.68,263.55 151.81,265.65 146.94,267.76 142.07,269.86 137.2,271.96 132.33,274.06 127.46,276.16 122.58,278.26 117.71,280.36 112.84,282.46 107.97,284.57 103.1,286.67 98.23,288.77 93.36,290.87 88.49,292.97 83.62,295.07 78.75,297.17 73.87,299.27 69,301.37 64.13,303.48 59.26,305.58 57.28,300.75 55.46,295.87 53.8,290.92 52.32,285.92 51.01,280.87 49.86,275.78 48.89,270.66 48.1,265.5 47.48,260.32 47.04,255.13 46.77,249.92 46.68,244.7 46.77,239.49 47.03,234.28 47.47,229.08 48.08,223.9 48.87,218.75 49.84,213.62 50.98,208.53 52.29,203.48 53.77,198.48 55.42,193.53 57.23,188.64 59.21,183.82 61.36,179.06 63.66,174.38 66.12,169.78 68.74,165.27 71.5,160.85 74.42,156.52 77.48,152.3 80.68,148.18 84.02,144.18 87.49,140.28 91.09,136.51 94.82,132.86 98.67,129.35 102.64,125.96 106.72,122.71 110.9,119.6 115.19,116.63 119.58,113.81 124.06,111.15 128.63,108.63 133.28,106.27 138.01,104.07 142.81,102.03 147.68,100.16 152.61,98.45 157.59,96.91 162.63,95.54 167.7,94.34 172.82,93.32 177.96,92.46 183.13,91.79 188.32,91.29 193.53,90.96 198.74,90.81 203.96,90.84 209.17,91.04 214.37,91.43 219.56,91.98 224.72,92.72 229.86,93.62 234.96,94.71 240.02,95.96 245.04,97.38 250.01,98.98 254.92,100.74 259.76,102.67 264.54,104.76 269.25,107.01 273.87,109.41 278.42,111.98 282.87,114.7 287.23,117.56 291.48,120.57 295.64,123.73 299.68,127.02 303.61,130.45 307.42,134.01 311.11,137.7 314.67,141.51 318.1,145.44 321.4,149.48 324.56,153.63 327.57,157.89 330.44,162.25 333.16,166.7 335.72,171.24 338.13,175.86 340.38,180.57 342.48,185.35 344.4,190.19 346.17,195.1 347.76,200.07 349.19,205.08 350.45,210.15 351.53,215.25 352.44,220.38 353.17,225.55 353.73,230.73 354.12,235.93 354.32,241.15 354.35,246.36 354.21,251.58 353.88,256.78 353.38,261.97 352.71,267.14 351.86,272.29 350.83,277.41 349.64,282.48 348.27,287.51 346.73,292.5 345.02,297.43 343.15,302.3 341.12,307.1 338.92,311.83 336.56,316.48 334.05,321.05 331.38,325.53 328.56,329.92 325.6,334.21 322.49,338.4 319.24,342.48 315.86,346.45 312.34,350.3 308.69,354.03 304.92,357.64 301.03,361.11 297.03,364.45 292.91,367.65 288.69,370.71 284.36,373.63 279.94,376.4 275.43,379.01 270.83,381.48 266.15,383.78 261.4,385.93 256.58,387.91 251.69,389.73 246.74,391.38 241.74,392.86 236.69,394.17 231.6,395.31 226.48,396.28 221.32,397.07 216.14,397.69 210.95,398.13 205.74,398.4 200.52,398.48 200.52,393.18 200.52,387.88 200.52,382.57 200.52,377.27 200.52,371.96 200.52,366.66 200.52,361.35 200.52,356.05 200.52,350.74 200.52,345.44 200.52,340.13 200.52,334.83 200.52,329.52 200.52,324.22 200.52,318.91 200.52,313.61 200.52,308.3 200.52,303 200.52,297.69 200.52,292.39 200.52,287.08 200.52,281.78 200.52,276.47 200.52,271.17 200.52,265.86 200.52,260.56 200.52,255.25 200.52,249.95 200.52,244.64 200.52,244.64" stroke="none" fill="rgb(199,124,255)" stroke-width="1.07" stroke-dasharray="none" stroke-opacity="0" fill-opacity="1"/>
                </g>
                <g id="geom_polygon.polygon.3011.1" class="polygon grob gDesc">
                  <polygon id="geom_polygon.polygon.3011.1.1" points="200.52,244.64 199.91,249.91 199.29,255.18 198.67,260.45 198.06,265.72 197.44,270.99 196.83,276.26 196.21,281.53 195.59,286.8 194.98,292.06 194.36,297.33 193.75,302.6 193.13,307.87 192.52,313.14 191.9,318.41 191.28,323.68 190.67,328.95 190.05,334.22 189.44,339.49 188.82,344.75 188.2,350.02 187.59,355.29 186.97,360.56 186.36,365.83 185.74,371.1 185.12,376.37 184.51,381.64 183.89,386.91 183.28,392.18 182.66,397.44 177.34,396.73 172.05,395.83 166.79,394.74 161.57,393.47 156.4,392.02 151.28,390.39 146.23,388.58 141.24,386.6 136.32,384.45 131.48,382.12 126.72,379.63 122.06,376.97 117.49,374.15 113.02,371.17 108.65,368.04 104.4,364.76 100.27,361.33 96.26,357.76 92.37,354.06 88.62,350.22 85,346.25 81.53,342.15 78.2,337.94 75.02,333.61 71.99,329.18 69.12,324.64 66.4,320.01 63.86,315.28 61.47,310.47 59.26,305.58 64.13,303.48 69,301.37 73.87,299.27 78.75,297.17 83.62,295.07 88.49,292.97 93.36,290.87 98.23,288.77 103.1,286.67 107.97,284.57 112.84,282.46 117.71,280.36 122.58,278.26 127.46,276.16 132.33,274.06 137.2,271.96 142.07,269.86 146.94,267.76 151.81,265.65 156.68,263.55 161.55,261.45 166.42,259.35 171.3,257.25 176.17,255.15 181.04,253.05 185.91,250.95 190.78,248.85 195.65,246.74 200.52,244.64 200.52,244.64" stroke="none" fill="rgb(0,191,196)" stroke-width="1.07" stroke-dasharray="none" stroke-opacity="0" fill-opacity="1"/>
                </g>
                <g id="geom_polygon.polygon.3013.1" class="polygon grob gDesc">
                  <polygon id="geom_polygon.polygon.3013.1.1" points="200.52,244.64 200.27,249.94 200.03,255.24 199.78,260.54 199.53,265.84 199.29,271.14 199.04,276.44 198.79,281.74 198.55,287.04 198.3,292.34 198.05,297.63 197.81,302.93 197.56,308.23 197.31,313.53 197.07,318.83 196.82,324.13 196.57,329.43 196.33,334.73 196.08,340.03 195.83,345.33 195.59,350.63 195.34,355.93 195.09,361.22 194.84,366.52 194.6,371.82 194.35,377.12 194.1,382.42 193.86,387.72 193.61,393.02 193.36,398.32 188,397.97 182.66,397.44 183.28,392.18 183.89,386.91 184.51,381.64 185.12,376.37 185.74,371.1 186.36,365.83 186.97,360.56 187.59,355.29 188.2,350.02 188.82,344.75 189.44,339.49 190.05,334.22 190.67,328.95 191.28,323.68 191.9,318.41 192.52,313.14 193.13,307.87 193.75,302.6 194.36,297.33 194.98,292.06 195.59,286.8 196.21,281.53 196.83,276.26 197.44,270.99 198.06,265.72 198.67,260.45 199.29,255.18 199.91,249.91 200.52,244.64 200.52,244.64" stroke="none" fill="rgb(124,174,0)" stroke-width="1.07" stroke-dasharray="none" stroke-opacity="0" fill-opacity="1"/>
                </g>
                <g id="geom_polygon.polygon.3015.1" class="polygon grob gDesc">
                  <polygon id="geom_polygon.polygon.3015.1.1" points="200.52,244.64 200.52,249.95 200.52,255.25 200.52,260.56 200.52,265.86 200.52,271.17 200.52,276.47 200.52,281.78 200.52,287.08 200.52,292.39 200.52,297.69 200.52,303 200.52,308.3 200.52,313.61 200.52,318.91 200.52,324.22 200.52,329.52 200.52,334.83 200.52,340.13 200.52,345.44 200.52,350.74 200.52,356.05 200.52,361.35 200.52,366.66 200.52,371.96 200.52,377.27 200.52,382.57 200.52,387.88 200.52,393.18 200.52,398.48 193.36,398.32 193.61,393.02 193.86,387.72 194.1,382.42 194.35,377.12 194.6,371.82 194.84,366.52 195.09,361.22 195.34,355.93 195.59,350.63 195.83,345.33 196.08,340.03 196.33,334.73 196.57,329.43 196.82,324.13 197.07,318.83 197.31,313.53 197.56,308.23 197.81,302.93 198.05,297.63 198.3,292.34 198.55,287.04 198.79,281.74 199.04,276.44 199.29,271.14 199.53,265.84 199.78,260.54 200.03,255.24 200.27,249.94 200.52,244.64 200.52,244.64" stroke="none" fill="rgb(248,118,109)" stroke-width="1.07" stroke-dasharray="none" stroke-opacity="0" fill-opacity="1"/>
                </g>
              </g>
              <g id="GRID.text.3018.1" class="text grob gDesc">
                <g id="GRID.text.3018.1.1" transform="translate(242.79, 180.38)" stroke-width="0.1">
                  <g id="GRID.text.3018.1.1.scale" transform="scale(1, -1)">
                    <text x="0" y="0" id="GRID.text.3018.1.1.text" text-anchor="middle" stroke="rgb(0,0,0)" font-size="11.04" font-family="Helvetica, Arial, FreeSans, Liberation Sans, Nimbus Sans L, sans-serif" fill="rgb(0,0,0)" stroke-opacity="1" fill-opacity="1" font-weight="normal" font-style="normal">
                      <tspan id="GRID.text.3018.1.1.tspan.1" dy="3.95" x="0">220</tspan>
                    </text>
                  </g>
                </g>
                <g id="GRID.text.3018.1.2" transform="translate(154.59, 306.34)" stroke-width="0.1">
                  <g id="GRID.text.3018.1.2.scale" transform="scale(1, -1)">
                    <text x="0" y="0" id="GRID.text.3018.1.2.text" text-anchor="middle" stroke="rgb(0,0,0)" font-size="11.04" font-family="Helvetica, Arial, FreeSans, Liberation Sans, Nimbus Sans L, sans-serif" fill="rgb(0,0,0)" stroke-opacity="1" fill-opacity="1" font-weight="normal" font-style="normal">
                      <tspan id="GRID.text.3018.1.2.tspan.1" dy="3.95" x="0">45</tspan>
                    </text>
                  </g>
                </g>
                <g id="GRID.text.3018.1.3" transform="translate(194.26, 321.31)" stroke-width="0.1">
                  <g id="GRID.text.3018.1.3.scale" transform="scale(1, -1)">
                    <text x="0" y="0" id="GRID.text.3018.1.3.text" text-anchor="middle" stroke="rgb(0,0,0)" font-size="11.04" font-family="Helvetica, Arial, FreeSans, Liberation Sans, Nimbus Sans L, sans-serif" fill="rgb(0,0,0)" stroke-opacity="1" fill-opacity="1" font-weight="normal" font-style="normal">
                      <tspan id="GRID.text.3018.1.3.tspan.1" dy="3.95" x="0">3</tspan>
                    </text>
                  </g>
                </g>
                <g id="GRID.text.3018.1.4" transform="translate(198.73, 321.54)" stroke-width="0.1">
                  <g id="GRID.text.3018.1.4.scale" transform="scale(1, -1)">
                    <text x="0" y="0" id="GRID.text.3018.1.4.text" text-anchor="middle" stroke="rgb(0,0,0)" font-size="11.04" font-family="Helvetica, Arial, FreeSans, Liberation Sans, Nimbus Sans L, sans-serif" fill="rgb(0,0,0)" stroke-opacity="1" fill-opacity="1" font-weight="normal" font-style="normal">
                      <tspan id="GRID.text.3018.1.4.tspan.1" dy="3.95" x="0">2</tspan>
                    </text>
                  </g>
                </g>
              </g>
              <g id="GRID.gTree.3019.1" class="gTree grob gDesc"/>
            </g>
          </g>
          <g id="layout::spacer.8-6-8-6.1" class="viewport"/>
          <g id="layout::spacer.8-4-8-4.1" class="viewport"/>
          <g id="layout::spacer.6-6-6-6.1" class="viewport"/>
          <g id="layout::spacer.6-4-6-4.1" class="viewport"/>
          <g id="layout::axis-t.6-5-6-5.1" class="viewport"/>
          <g id="layout::axis-l.7-4-7-4.1" class="viewport">
            <g id="layout::axis-l.7-4-7-4::GRID.VP.728.1" class="viewport">
              <g id="axis-l.7-4-7-4.1" class="forcedgrob gTableChild absoluteGrob gTree grob gDesc">
                <g id="layout::axis-l.7-4-7-4::GRID.VP.728::axis.1" class="viewport">
                  <g id="axis.1" class="forcedgrob gtable gTree grob gDesc">
                    <g id="layout::axis-l.7-4-7-4::GRID.VP.728::axis::axis.1-1-1-1.1" class="viewport"/>
                    <g id="layout::axis-l.7-4-7-4::GRID.VP.728::axis::axis.1-2-1-2.1" class="viewport"/>
                  </g>
                </g>
              </g>
            </g>
          </g>
          <g id="layout::axis-r.7-6-7-6.1" class="viewport"/>
          <g id="layout::axis-b.8-5-8-5.1" class="viewport">
            <g id="layout::axis-b.8-5-8-5::GRID.VP.727.1" class="viewport">
              <g id="axis-b.8-5-8-5.1" class="forcedgrob gTableChild absoluteGrob gTree grob gDesc">
                <g id="layout::axis-b.8-5-8-5::GRID.VP.727::axis.1" class="viewport">
                  <g id="axis.2" class="forcedgrob gtable gTree grob gDesc">
                    <g id="layout::axis-b.8-5-8-5::GRID.VP.727::axis::axis.1-1-1-1.1" class="viewport"/>
                    <g id="layout::axis-b.8-5-8-5::GRID.VP.727::axis::axis.2-1-2-1.1" class="viewport"/>
                  </g>
                </g>
              </g>
            </g>
          </g>
          <g id="layout::xlab-t.5-5-5-5.1" class="viewport"/>
          <g id="layout::xlab-b.9-5-9-5.1" class="viewport"/>
          <g id="layout::ylab-l.7-3-7-3.1" class="viewport"/>
          <g id="layout::ylab-r.7-7-7-7.1" class="viewport"/>
          <g id="layout::guide-box.7-9-7-9.1" class="viewport">
            <g id="layout::guide-box.7-9-7-9::GRID.VP.742.1" class="viewport">
              <g id="layout::guide-box.7-9-7-9::GRID.VP.742::guide-box.7-9-7-9.1" class="viewport">
                <g id="guide-box.7-9-7-9.1" class="forcedgrob gTableChild gtable gTree grob gDesc">
                  <g id="layout::guide-box.7-9-7-9::GRID.VP.742::guide-box.7-9-7-9::legend.box.background.2-4-4-2.1" class="viewport"/>
                  <g id="layout::guide-box.7-9-7-9::GRID.VP.742::guide-box.7-9-7-9::guides.3-3-3-3.1" class="viewport">
                    <g id="layout::guide-box.7-9-7-9::GRID.VP.742::guide-box.7-9-7-9::guides.3-3-3-3::GRID.VP.741.1" class="viewport">
                      <g id="layout::guide-box.7-9-7-9::GRID.VP.742::guide-box.7-9-7-9::guides.3-3-3-3::GRID.VP.741::guides.3-3-3-3.1" class="viewport">
                        <g id="guides.3-3-3-3.1" class="forcedgrob gTableChild gtable gTree grob gDesc">
                          <g id="layout::guide-box.7-9-7-9::GRID.VP.742::guide-box.7-9-7-9::guides.3-3-3-3::GRID.VP.741::guides.3-3-3-3::background.1-6-8-1.1" class="viewport">
                            <g id="background.1-6-8-1.1" class="forcedgrob gTableChild rect grob gDesc">
                              <rect id="background.1-6-8-1.1.1" x="403.78" y="201.86" width="94.74" height="85.56" transform="" stroke-width="1.07" stroke="none" fill="rgb(255,255,255)" stroke-dasharray="none" stroke-opacity="0" fill-opacity="1"/>
                            </g>
                          </g>
                          <g id="layout::guide-box.7-9-7-9::GRID.VP.742::guide-box.7-9-7-9::guides.3-3-3-3::GRID.VP.741::guides.3-3-3-3::title.2-5-2-2.1" class="viewport"/>
                          <g id="layout::guide-box.7-9-7-9::GRID.VP.742::guide-box.7-9-7-9::guides.3-3-3-3::GRID.VP.741::guides.3-3-3-3::key-3-1-bg.4-2-4-2.1" class="viewport"/>
                          <g id="layout::guide-box.7-9-7-9::GRID.VP.742::guide-box.7-9-7-9::guides.3-3-3-3::GRID.VP.741::guides.3-3-3-3::key-3-1-1.4-2-4-2.1" class="viewport">
                            <g id="key-3-1-1.4-2-4-2.1" class="forcedgrob gTableChild rect grob gDesc">
                              <rect id="key-3-1-1.4-2-4-2.1.1" x="409.97" y="259.89" width="15.86" height="15.86" transform="" stroke="none" fill="rgb(248,118,109)" stroke-dasharray="none" stroke-width="1.07" stroke-linejoin="miter" stroke-opacity="0" fill-opacity="1"/>
                            </g>
                          </g>
                          <g id="layout::guide-box.7-9-7-9::GRID.VP.742::guide-box.7-9-7-9::guides.3-3-3-3::GRID.VP.741::guides.3-3-3-3::key-4-1-bg.5-2-5-2.1" class="viewport"/>
                          <g id="layout::guide-box.7-9-7-9::GRID.VP.742::guide-box.7-9-7-9::guides.3-3-3-3::GRID.VP.741::guides.3-3-3-3::key-4-1-1.5-2-5-2.1" class="viewport">
                            <g id="key-4-1-1.5-2-5-2.1" class="forcedgrob gTableChild rect grob gDesc">
                              <rect id="key-4-1-1.5-2-5-2.1.1" x="409.97" y="242.61" width="15.86" height="15.86" transform="" stroke="none" fill="rgb(124,174,0)" stroke-dasharray="none" stroke-width="1.07" stroke-linejoin="miter" stroke-opacity="0" fill-opacity="1"/>
                            </g>
                          </g>
                          <g id="layout::guide-box.7-9-7-9::GRID.VP.742::guide-box.7-9-7-9::guides.3-3-3-3::GRID.VP.741::guides.3-3-3-3::key-5-1-bg.6-2-6-2.1" class="viewport"/>
                          <g id="layout::guide-box.7-9-7-9::GRID.VP.742::guide-box.7-9-7-9::guides.3-3-3-3::GRID.VP.741::guides.3-3-3-3::key-5-1-1.6-2-6-2.1" class="viewport">
                            <g id="key-5-1-1.6-2-6-2.1" class="forcedgrob gTableChild rect grob gDesc">
                              <rect id="key-5-1-1.6-2-6-2.1.1" x="409.97" y="225.33" width="15.86" height="15.86" transform="" stroke="none" fill="rgb(0,191,196)" stroke-dasharray="none" stroke-width="1.07" stroke-linejoin="miter" stroke-opacity="0" fill-opacity="1"/>
                            </g>
                          </g>
                          <g id="layout::guide-box.7-9-7-9::GRID.VP.742::guide-box.7-9-7-9::guides.3-3-3-3::GRID.VP.741::guides.3-3-3-3::key-6-1-bg.7-2-7-2.1" class="viewport"/>
                          <g id="layout::guide-box.7-9-7-9::GRID.VP.742::guide-box.7-9-7-9::guides.3-3-3-3::GRID.VP.741::guides.3-3-3-3::key-6-1-1.7-2-7-2.1" class="viewport">
                            <g id="key-6-1-1.7-2-7-2.1" class="forcedgrob gTableChild rect grob gDesc">
                              <rect id="key-6-1-1.7-2-7-2.1.1" x="409.97" y="208.05" width="15.86" height="15.86" transform="" stroke="none" fill="rgb(199,124,255)" stroke-dasharray="none" stroke-width="1.07" stroke-linejoin="miter" stroke-opacity="0" fill-opacity="1"/>
                            </g>
                          </g>
                          <g id="layout::guide-box.7-9-7-9::GRID.VP.742::guide-box.7-9-7-9::guides.3-3-3-3::GRID.VP.741::guides.3-3-3-3::label-3-3.4-4-4-4.1" class="viewport">
                            <g id="layout::guide-box.7-9-7-9::GRID.VP.742::guide-box.7-9-7-9::guides.3-3-3-3::GRID.VP.741::guides.3-3-3-3::label-3-3.4-4-4-4::GRID.VP.737.1" class="viewport">
                              <g id="label-3-3.4-4-4-4.1" class="forcedgrob gTableChild gTree grob gDesc">
                                <g id="layout::guide-box.7-9-7-9::GRID.VP.742::guide-box.7-9-7-9::guides.3-3-3-3::GRID.VP.741::guides.3-3-3-3::label-3-3.4-4-4-4::GRID.VP.737::GRID.VP.729.1" font-size="8.8" stroke="rgb(0,0,0)" font-family="Helvetica, Arial, FreeSans, Liberation Sans, Nimbus Sans L, sans-serif" stroke-opacity="1" font-weight="normal" font-style="normal" class="viewport">
                                  <g id="layout::guide-box.7-9-7-9::GRID.VP.742::guide-box.7-9-7-9::guides.3-3-3-3::GRID.VP.741::guides.3-3-3-3::label-3-3.4-4-4-4::GRID.VP.737::GRID.VP.729::GRID.VP.730.1" class="viewport">
                                    <g id="guide.label.titleGrob.3042.1" class="titleGrob gTree grob gDesc">
                                      <g id="GRID.text.3040.1" class="text grob gDesc">
                                        <g id="GRID.text.3040.1.1" transform="translate(432.02, 267.82)" stroke-width="0.1">
                                          <g id="GRID.text.3040.1.1.scale" transform="scale(1, -1)">
                                            <text x="0" y="0" id="GRID.text.3040.1.1.text" text-anchor="start" font-size="8.8" stroke="rgb(0,0,0)" font-family="Helvetica, Arial, FreeSans, Liberation Sans, Nimbus Sans L, sans-serif" fill="rgb(0,0,0)" stroke-opacity="1" fill-opacity="1" font-weight="normal" font-style="normal">
                                              <tspan id="GRID.text.3040.1.1.tspan.1" dy="3.23" x="0">Linux (2)</tspan>
                                            </text>
                                          </g>
                                        </g>
                                      </g>
                                    </g>
                                  </g>
                                </g>
                              </g>
                            </g>
                          </g>
                          <g id="layout::guide-box.7-9-7-9::GRID.VP.742::guide-box.7-9-7-9::guides.3-3-3-3::GRID.VP.741::guides.3-3-3-3::label-4-3.5-4-5-4.1" class="viewport">
                            <g id="layout::guide-box.7-9-7-9::GRID.VP.742::guide-box.7-9-7-9::guides.3-3-3-3::GRID.VP.741::guides.3-3-3-3::label-4-3.5-4-5-4::GRID.VP.738.1" class="viewport">
                              <g id="label-4-3.5-4-5-4.1" class="forcedgrob gTableChild gTree grob gDesc">
                                <g id="layout::guide-box.7-9-7-9::GRID.VP.742::guide-box.7-9-7-9::guides.3-3-3-3::GRID.VP.741::guides.3-3-3-3::label-4-3.5-4-5-4::GRID.VP.738::GRID.VP.731.1" font-size="8.8" stroke="rgb(0,0,0)" font-family="Helvetica, Arial, FreeSans, Liberation Sans, Nimbus Sans L, sans-serif" stroke-opacity="1" font-weight="normal" font-style="normal" class="viewport">
                                  <g id="layout::guide-box.7-9-7-9::GRID.VP.742::guide-box.7-9-7-9::guides.3-3-3-3::GRID.VP.741::guides.3-3-3-3::label-4-3.5-4-5-4::GRID.VP.738::GRID.VP.731::GRID.VP.732.1" class="viewport">
                                    <g id="guide.label.titleGrob.3045.1" class="titleGrob gTree grob gDesc">
                                      <g id="GRID.text.3043.1" class="text grob gDesc">
                                        <g id="GRID.text.3043.1.1" transform="translate(432.02, 250.54)" stroke-width="0.1">
                                          <g id="GRID.text.3043.1.1.scale" transform="scale(1, -1)">
                                            <text x="0" y="0" id="GRID.text.3043.1.1.text" text-anchor="start" font-size="8.8" stroke="rgb(0,0,0)" font-family="Helvetica, Arial, FreeSans, Liberation Sans, Nimbus Sans L, sans-serif" fill="rgb(0,0,0)" stroke-opacity="1" fill-opacity="1" font-weight="normal" font-style="normal">
                                              <tspan id="GRID.text.3043.1.1.tspan.1" dy="3.23" x="0">nocomputer (3)</tspan>
                                            </text>
                                          </g>
                                        </g>
                                      </g>
                                    </g>
                                  </g>
                                </g>
                              </g>
                            </g>
                          </g>
                          <g id="layout::guide-box.7-9-7-9::GRID.VP.742::guide-box.7-9-7-9::guides.3-3-3-3::GRID.VP.741::guides.3-3-3-3::label-5-3.6-4-6-4.1" class="viewport">
                            <g id="layout::guide-box.7-9-7-9::GRID.VP.742::guide-box.7-9-7-9::guides.3-3-3-3::GRID.VP.741::guides.3-3-3-3::label-5-3.6-4-6-4::GRID.VP.739.1" class="viewport">
                              <g id="label-5-3.6-4-6-4.1" class="forcedgrob gTableChild gTree grob gDesc">
                                <g id="layout::guide-box.7-9-7-9::GRID.VP.742::guide-box.7-9-7-9::guides.3-3-3-3::GRID.VP.741::guides.3-3-3-3::label-5-3.6-4-6-4::GRID.VP.739::GRID.VP.733.1" font-size="8.8" stroke="rgb(0,0,0)" font-family="Helvetica, Arial, FreeSans, Liberation Sans, Nimbus Sans L, sans-serif" stroke-opacity="1" font-weight="normal" font-style="normal" class="viewport">
                                  <g id="layout::guide-box.7-9-7-9::GRID.VP.742::guide-box.7-9-7-9::guides.3-3-3-3::GRID.VP.741::guides.3-3-3-3::label-5-3.6-4-6-4::GRID.VP.739::GRID.VP.733::GRID.VP.734.1" class="viewport">
                                    <g id="guide.label.titleGrob.3048.1" class="titleGrob gTree grob gDesc">
                                      <g id="GRID.text.3046.1" class="text grob gDesc">
                                        <g id="GRID.text.3046.1.1" transform="translate(432.02, 233.26)" stroke-width="0.1">
                                          <g id="GRID.text.3046.1.1.scale" transform="scale(1, -1)">
                                            <text x="0" y="0" id="GRID.text.3046.1.1.text" text-anchor="start" font-size="8.8" stroke="rgb(0,0,0)" font-family="Helvetica, Arial, FreeSans, Liberation Sans, Nimbus Sans L, sans-serif" fill="rgb(0,0,0)" stroke-opacity="1" fill-opacity="1" font-weight="normal" font-style="normal">
                                              <tspan id="GRID.text.3046.1.1.tspan.1" dy="3.23" x="0">MacOS (45)</tspan>
                                            </text>
                                          </g>
                                        </g>
                                      </g>
                                    </g>
                                  </g>
                                </g>
                              </g>
                            </g>
                          </g>
                          <g id="layout::guide-box.7-9-7-9::GRID.VP.742::guide-box.7-9-7-9::guides.3-3-3-3::GRID.VP.741::guides.3-3-3-3::label-6-3.7-4-7-4.1" class="viewport">
                            <g id="layout::guide-box.7-9-7-9::GRID.VP.742::guide-box.7-9-7-9::guides.3-3-3-3::GRID.VP.741::guides.3-3-3-3::label-6-3.7-4-7-4::GRID.VP.740.1" class="viewport">
                              <g id="label-6-3.7-4-7-4.1" class="forcedgrob gTableChild gTree grob gDesc">
                                <g id="layout::guide-box.7-9-7-9::GRID.VP.742::guide-box.7-9-7-9::guides.3-3-3-3::GRID.VP.741::guides.3-3-3-3::label-6-3.7-4-7-4::GRID.VP.740::GRID.VP.735.1" font-size="8.8" stroke="rgb(0,0,0)" font-family="Helvetica, Arial, FreeSans, Liberation Sans, Nimbus Sans L, sans-serif" stroke-opacity="1" font-weight="normal" font-style="normal" class="viewport">
                                  <g id="layout::guide-box.7-9-7-9::GRID.VP.742::guide-box.7-9-7-9::guides.3-3-3-3::GRID.VP.741::guides.3-3-3-3::label-6-3.7-4-7-4::GRID.VP.740::GRID.VP.735::GRID.VP.736.1" class="viewport">
                                    <g id="guide.label.titleGrob.3051.1" class="titleGrob gTree grob gDesc">
                                      <g id="GRID.text.3049.1" class="text grob gDesc">
                                        <g id="GRID.text.3049.1.1" transform="translate(432.02, 215.98)" stroke-width="0.1">
                                          <g id="GRID.text.3049.1.1.scale" transform="scale(1, -1)">
                                            <text x="0" y="0" id="GRID.text.3049.1.1.text" text-anchor="start" font-size="8.8" stroke="rgb(0,0,0)" font-family="Helvetica, Arial, FreeSans, Liberation Sans, Nimbus Sans L, sans-serif" fill="rgb(0,0,0)" stroke-opacity="1" fill-opacity="1" font-weight="normal" font-style="normal">
                                              <tspan id="GRID.text.3049.1.1.tspan.1" dy="3.23" x="0">Windows (220)</tspan>
                                            </text>
                                          </g>
                                        </g>
                                      </g>
                                    </g>
                                  </g>
                                </g>
                              </g>
                            </g>
                          </g>
                        </g>
                      </g>
                    </g>
                  </g>
                </g>
              </g>
            </g>
          </g>
          <g id="layout::subtitle.4-5-4-5.1" class="viewport"/>
          <g id="layout::title.3-5-3-5.1" class="viewport">
            <g id="layout::title.3-5-3-5::GRID.VP.743.1" font-size="13.2" stroke="rgb(102,102,102)" font-family="Helvetica, Arial, FreeSans, Liberation Sans, Nimbus Sans L, sans-serif" stroke-opacity="1" font-weight="normal" font-style="normal" class="viewport">
              <g id="layout::title.3-5-3-5::GRID.VP.743::GRID.VP.744.1" class="viewport">
                <g id="title.3-5-3-5.1" class="forcedgrob gTableChild titleGrob gTree grob gDesc">
                  <g id="GRID.text.3066.1" class="text grob gDesc">
                    <g id="GRID.text.3066.1.1" transform="translate(200.52, 454.4)" stroke-width="0.1">
                      <g id="GRID.text.3066.1.1.scale" transform="scale(1, -1)">
                        <text x="0" y="0" id="GRID.text.3066.1.1.text" text-anchor="middle" font-size="13.2" stroke="rgb(102,102,102)" font-family="Helvetica, Arial, FreeSans, Liberation Sans, Nimbus Sans L, sans-serif" fill="rgb(102,102,102)" stroke-opacity="1" fill-opacity="1" font-weight="normal" font-style="normal">
                          <tspan id="GRID.text.3066.1.1.tspan.1" dy="9.33" x="0">anagrafica os</tspan>
                        </text>
                      </g>
                    </g>
                  </g>
                </g>
              </g>
            </g>
          </g>
          <g id="layout::caption.10-5-10-5.1" class="viewport"/>
          <g id="layout::tag.2-2-2-2.1" class="viewport"/>
        </g>
      </g>
    </g>
  </g>
</svg>