<?xml version="1.0" encoding="UTF-8"?>
<svg xmlns="http://www.w3.org/2000/svg" xmlns:xlink="http://www.w3.org/1999/xlink" width="504px" height="504px" viewBox="0 0 504 504" version="1.1">
  <metadata xmlns:gridsvg="http://www.stat.auckland.ac.nz/~paul/R/gridSVG/">
    <gridsvg:generator name="gridSVG" version="1.6-0" time="2019-01-14 19:37:54"/>
    <gridsvg:argument name="name" value="./latest_informaggio_csv/risultati/svg/anagrafica-dispositivo.svg"/>
    <gridsvg:argument name="exportCoords" value="none"/>
    <gridsvg:argument name="exportMappings" value="none"/>
    <gridsvg:argument name="exportJS" value="none"/>
    <gridsvg:argument name="res" value="72"/>
    <gridsvg:argument name="prefix" value=""/>
    <gridsvg:argument name="addClasses" value="TRUE"/>
    <gridsvg:argument name="indent" value="TRUE"/>
    <gridsvg:argument name="htmlWrapper" value="FALSE"/>
    <gridsvg:argument name="usePaths" value="vpPaths"/>
    <gridsvg:argument name="uniqueNames" value="TRUE"/>
    <gridsvg:separator name="id.sep" value="."/>
    <gridsvg:separator name="gPath.sep" value="::"/>
    <gridsvg:separator name="vpPath.sep" value="::"/>
  </metadata>
  <g transform="translate(0, 504) scale(1, -1)">
    <g id="gridSVG" fill="none" stroke="rgb(0,0,0)" stroke-dasharray="none" stroke-width="0.75" font-size="12" font-family="Helvetica, Arial, FreeSans, Liberation Sans, Nimbus Sans L, sans-serif" opacity="1" stroke-linecap="round" stroke-linejoin="round" stroke-miterlimit="10" stroke-opacity="1" fill-opacity="0" font-weight="normal" font-style="normal">
      <g id="layout.1" class="viewport">
        <g id="layout.2" class="forcedgrob gtable gTree grob gDesc">
          <defs>
            <clipPath id="layout::background.1-11-12-1.1.clipPath">
              <rect x="0" y="47.56" width="504" height="408.89" fill="none" stroke="none"/>
            </clipPath>
          </defs>
          <g id="layout::background.1-11-12-1.1" clip-path="url(#layout::background.1-11-12-1.1.clipPath)" class="viewport">
            <g id="background.1-11-12-1.1" class="forcedgrob gTableChild rect grob gDesc">
              <rect id="background.1-11-12-1.1.1" x="0" y="47.56" width="504" height="408.89" transform="" stroke-width="1.07" stroke="rgb(255,255,255)" fill="rgb(255,255,255)" stroke-dasharray="none" stroke-opacity="1" fill-opacity="1"/>
            </g>
          </g>
          <defs>
            <clipPath id="layout::panel.7-5-7-5.1.clipPath">
              <rect x="8.22" y="55.77" width="377.74" height="377.74" fill="none" stroke="none"/>
            </clipPath>
          </defs>
          <g id="layout::panel.7-5-7-5.1" clip-path="url(#layout::panel.7-5-7-5.1.clipPath)" class="viewport">
            <g id="panel.7-5-7-5.1" class="forcedgrob gTableChild gTree grob gDesc">
              <g id="grill.gTree.1913.1" class="gTree grob gDesc">
                <g id="panel.background..rect.1909.1" class="rect grob gDesc">
                  <rect id="panel.background..rect.1909.1.1" x="8.22" y="55.77" width="377.74" height="377.74" transform="" stroke-width="1.07" stroke="none" fill="rgb(255,255,255)" stroke-dasharray="none" stroke-opacity="0" fill-opacity="1"/>
                </g>
              </g>
              <g id="bar.gTree.1902.1" class="gTree grob gDesc">
                <g id="geom_polygon.polygon.1892.1" class="polygon grob gDesc">
                  <polygon id="geom_polygon.polygon.1892.1.1" points="197.09,244.64 194.68,240.02 192.28,235.4 189.87,230.78 187.47,226.15 185.07,221.53 182.66,216.91 180.26,212.29 177.85,207.66 175.45,203.04 173.05,198.42 170.64,193.8 168.24,189.18 165.83,184.55 163.43,179.93 161.02,175.31 158.62,170.69 156.22,166.06 153.81,161.44 151.41,156.82 149,152.2 146.6,147.58 144.19,142.95 141.79,138.33 139.39,133.71 136.98,129.09 134.58,124.46 132.17,119.84 129.77,115.22 127.36,110.6 131.94,108.31 136.59,106.19 141.31,104.22 146.09,102.41 150.94,100.77 155.83,99.29 160.77,97.98 165.76,96.83 170.77,95.86 175.82,95.05 180.9,94.42 185.99,93.96 191.1,93.67 196.21,93.55 201.32,93.61 206.43,93.84 211.53,94.24 216.61,94.81 221.67,95.56 226.7,96.48 231.69,97.56 236.65,98.82 241.56,100.24 246.42,101.83 251.23,103.58 255.97,105.49 260.64,107.56 265.24,109.79 269.77,112.18 274.21,114.71 278.56,117.4 282.82,120.23 286.98,123.2 291.04,126.31 294.99,129.56 298.83,132.93 302.55,136.44 306.15,140.07 309.63,143.82 312.97,147.69 316.19,151.66 319.26,155.75 322.2,159.93 325,164.21 327.65,168.59 330.14,173.05 332.49,177.59 334.68,182.21 336.72,186.9 338.59,191.66 340.3,196.48 341.85,201.35 343.23,206.28 344.44,211.24 345.49,216.25 346.37,221.29 347.07,226.35 347.6,231.44 347.96,236.54 348.15,241.65 348.17,246.76 348.01,251.87 347.68,256.97 347.18,262.06 346.5,267.13 345.65,272.17 344.64,277.18 343.45,282.16 342.1,287.09 340.58,291.97 338.9,296.8 337.05,301.57 335.04,306.27 332.88,310.9 330.56,315.46 328.09,319.94 325.46,324.33 322.69,328.62 319.78,332.83 316.73,336.93 313.54,340.92 310.21,344.81 306.76,348.58 303.18,352.23 299.48,355.76 295.66,359.16 291.73,362.43 287.69,365.56 283.54,368.56 279.3,371.41 274.96,374.12 270.54,376.68 266.03,379.09 261.44,381.35 256.78,383.45 252.05,385.39 247.25,387.17 242.4,388.78 237.5,390.23 232.55,391.52 227.56,392.63 222.53,393.58 217.48,394.36 212.4,394.96 207.31,395.39 202.2,395.65 197.09,395.74 197.09,390.53 197.09,385.32 197.09,380.11 197.09,374.9 197.09,369.69 197.09,364.48 197.09,359.27 197.09,354.06 197.09,348.85 197.09,343.64 197.09,338.43 197.09,333.22 197.09,328.01 197.09,322.8 197.09,317.59 197.09,312.38 197.09,307.17 197.09,301.95 197.09,296.74 197.09,291.53 197.09,286.32 197.09,281.11 197.09,275.9 197.09,270.69 197.09,265.48 197.09,260.27 197.09,255.06 197.09,249.85 197.09,244.64 197.09,244.64" stroke="none" fill="rgb(231,107,243)" stroke-width="1.07" stroke-dasharray="none" stroke-opacity="0" fill-opacity="1"/>
                </g>
                <g id="geom_polygon.polygon.1894.1" class="polygon grob gDesc">
                  <polygon id="geom_polygon.polygon.1894.1.1" points="197.09,244.64 195.02,249.43 192.96,254.21 190.89,258.99 188.82,263.78 186.76,268.56 184.69,273.34 182.63,278.13 180.56,282.91 178.5,287.69 176.43,292.47 174.36,297.26 172.3,302.04 170.23,306.82 168.17,311.61 166.1,316.39 164.04,321.17 161.97,325.96 159.9,330.74 157.84,335.52 155.77,340.31 153.71,345.09 151.64,349.87 149.58,354.66 147.51,359.44 145.44,364.22 143.38,369 141.31,373.79 139.25,378.57 137.18,383.35 132.48,381.23 127.85,378.94 123.31,376.5 118.85,373.9 114.48,371.16 110.21,368.26 106.04,365.22 101.97,362.04 98.02,358.73 94.18,355.28 90.46,351.7 86.87,347.99 83.4,344.17 80.07,340.23 76.87,336.18 73.82,332.02 70.91,327.76 68.14,323.4 65.53,318.95 63.07,314.42 60.76,309.8 58.62,305.1 56.63,300.34 54.81,295.51 53.16,290.62 51.67,285.68 50.36,280.69 49.21,275.66 48.24,270.59 47.44,265.49 46.81,260.37 46.36,255.23 46.09,250.08 45.99,244.92 46.07,239.76 46.33,234.6 46.76,229.46 47.36,224.34 48.14,219.24 49.1,214.16 50.23,209.13 51.52,204.13 52.99,199.19 54.63,194.29 56.43,189.46 58.4,184.69 60.53,179.98 62.81,175.36 65.26,170.81 67.86,166.36 70.61,161.99 73.5,157.72 76.54,153.55 79.72,149.48 83.04,145.53 86.49,141.69 90.07,137.98 93.78,134.39 97.6,130.92 101.54,127.59 105.6,124.4 109.76,121.34 114.02,118.43 118.38,115.67 122.83,113.06 127.36,110.6 129.77,115.22 132.17,119.84 134.58,124.46 136.98,129.09 139.39,133.71 141.79,138.33 144.19,142.95 146.6,147.58 149,152.2 151.41,156.82 153.81,161.44 156.22,166.06 158.62,170.69 161.02,175.31 163.43,179.93 165.83,184.55 168.24,189.18 170.64,193.8 173.05,198.42 175.45,203.04 177.85,207.66 180.26,212.29 182.66,216.91 185.07,221.53 187.47,226.15 189.87,230.78 192.28,235.4 194.68,240.02 197.09,244.64 197.09,244.64" stroke="none" fill="rgb(0,176,246)" stroke-width="1.07" stroke-dasharray="none" stroke-opacity="0" fill-opacity="1"/>
                </g>
                <g id="geom_polygon.polygon.1896.1" class="polygon grob gDesc">
                  <polygon id="geom_polygon.polygon.1896.1.1" points="197.09,244.64 196.22,249.78 195.35,254.92 194.48,260.05 193.61,265.19 192.74,270.33 191.86,275.46 190.99,280.6 190.12,285.74 189.25,290.88 188.38,296.01 187.51,301.15 186.64,306.29 185.77,311.42 184.9,316.56 184.03,321.7 183.16,326.83 182.29,331.97 181.42,337.11 180.55,342.24 179.68,347.38 178.81,352.52 177.94,357.66 177.07,362.79 176.19,367.93 175.32,373.07 174.45,378.2 173.58,383.34 172.71,388.48 171.84,393.61 166.75,392.66 161.7,391.54 156.69,390.24 151.73,388.77 146.82,387.13 141.97,385.32 137.18,383.35 139.25,378.57 141.31,373.79 143.38,369 145.44,364.22 147.51,359.44 149.58,354.66 151.64,349.87 153.71,345.09 155.77,340.31 157.84,335.52 159.9,330.74 161.97,325.96 164.04,321.17 166.1,316.39 168.17,311.61 170.23,306.82 172.3,302.04 174.36,297.26 176.43,292.47 178.5,287.69 180.56,282.91 182.63,278.13 184.69,273.34 186.76,268.56 188.82,263.78 190.89,258.99 192.96,254.21 195.02,249.43 197.09,244.64 197.09,244.64" stroke="none" fill="rgb(0,191,125)" stroke-width="1.07" stroke-dasharray="none" stroke-opacity="0" fill-opacity="1"/>
                </g>
                <g id="geom_polygon.polygon.1898.1" class="polygon grob gDesc">
                  <polygon id="geom_polygon.polygon.1898.1.1" points="197.09,244.64 196.84,249.85 196.59,255.05 196.34,260.26 196.09,265.46 195.84,270.66 195.59,275.87 195.34,281.07 195.09,286.28 194.84,291.48 194.59,296.68 194.34,301.89 194.09,307.09 193.84,312.3 193.59,317.5 193.34,322.71 193.09,327.91 192.84,333.11 192.59,338.32 192.34,343.52 192.09,348.73 191.84,353.93 191.59,359.13 191.34,364.34 191.09,369.54 190.84,374.75 190.59,379.95 190.34,385.16 190.09,390.36 189.84,395.56 183.82,395.15 177.82,394.5 171.84,393.61 172.71,388.48 173.58,383.34 174.45,378.2 175.32,373.07 176.19,367.93 177.07,362.79 177.94,357.66 178.81,352.52 179.68,347.38 180.55,342.24 181.42,337.11 182.29,331.97 183.16,326.83 184.03,321.7 184.9,316.56 185.77,311.42 186.64,306.29 187.51,301.15 188.38,296.01 189.25,290.88 190.12,285.74 190.99,280.6 191.86,275.46 192.74,270.33 193.61,265.19 194.48,260.05 195.35,254.92 196.22,249.78 197.09,244.64 197.09,244.64" stroke="none" fill="rgb(163,165,0)" stroke-width="1.07" stroke-dasharray="none" stroke-opacity="0" fill-opacity="1"/>
                </g>
                <g id="geom_polygon.polygon.1900.1" class="polygon grob gDesc">
                  <polygon id="geom_polygon.polygon.1900.1.1" points="197.09,244.64 197.09,249.85 197.09,255.06 197.09,260.27 197.09,265.48 197.09,270.69 197.09,275.9 197.09,281.11 197.09,286.32 197.09,291.53 197.09,296.74 197.09,301.95 197.09,307.17 197.09,312.38 197.09,317.59 197.09,322.8 197.09,328.01 197.09,333.22 197.09,338.43 197.09,343.64 197.09,348.85 197.09,354.06 197.09,359.27 197.09,364.48 197.09,369.69 197.09,374.9 197.09,380.11 197.09,385.32 197.09,390.53 197.09,395.74 189.84,395.56 190.09,390.36 190.34,385.16 190.59,379.95 190.84,374.75 191.09,369.54 191.34,364.34 191.59,359.13 191.84,353.93 192.09,348.73 192.34,343.52 192.59,338.32 192.84,333.11 193.09,327.91 193.34,322.71 193.59,317.5 193.84,312.3 194.09,307.09 194.34,301.89 194.59,296.68 194.84,291.48 195.09,286.28 195.34,281.07 195.59,275.87 195.84,270.66 196.09,265.46 196.34,260.26 196.59,255.05 196.84,249.85 197.09,244.64 197.09,244.64" stroke="none" fill="rgb(248,118,109)" stroke-width="1.07" stroke-dasharray="none" stroke-opacity="0" fill-opacity="1"/>
                </g>
              </g>
              <g id="GRID.text.1903.1" class="text grob gDesc">
                <g id="GRID.text.1903.1.1" transform="translate(270.47, 226.7)" stroke-width="0.1">
                  <g id="GRID.text.1903.1.1.scale" transform="scale(1, -1)">
                    <text x="0" y="0" id="GRID.text.1903.1.1.text" text-anchor="middle" stroke="rgb(0,0,0)" font-size="11.04" font-family="Helvetica, Arial, FreeSans, Liberation Sans, Nimbus Sans L, sans-serif" fill="rgb(0,0,0)" stroke-opacity="1" fill-opacity="1" font-weight="normal" font-style="normal">
                      <tspan id="GRID.text.1903.1.1.tspan.1" dy="3.95" x="0">151</tspan>
                    </text>
                  </g>
                </g>
                <g id="GRID.text.1903.1.2" transform="translate(121.59, 247.36)" stroke-width="0.1">
                  <g id="GRID.text.1903.1.2.scale" transform="scale(1, -1)">
                    <text x="0" y="0" id="GRID.text.1903.1.2.text" text-anchor="middle" stroke="rgb(0,0,0)" font-size="11.04" font-family="Helvetica, Arial, FreeSans, Liberation Sans, Nimbus Sans L, sans-serif" fill="rgb(0,0,0)" stroke-opacity="1" fill-opacity="1" font-weight="normal" font-style="normal">
                      <tspan id="GRID.text.1903.1.2.tspan.1" dy="3.95" x="0">94</tspan>
                    </text>
                  </g>
                </g>
                <g id="GRID.text.1903.1.3" transform="translate(175.65, 317.08)" stroke-width="0.1">
                  <g id="GRID.text.1903.1.3.scale" transform="scale(1, -1)">
                    <text x="0" y="0" id="GRID.text.1903.1.3.text" text-anchor="middle" stroke="rgb(0,0,0)" font-size="11.04" font-family="Helvetica, Arial, FreeSans, Liberation Sans, Nimbus Sans L, sans-serif" fill="rgb(0,0,0)" stroke-opacity="1" fill-opacity="1" font-weight="normal" font-style="normal">
                      <tspan id="GRID.text.1903.1.3.tspan.1" dy="3.95" x="0">10</tspan>
                    </text>
                  </g>
                </g>
                <g id="GRID.text.1903.1.4" transform="translate(188.95, 319.75)" stroke-width="0.1">
                  <g id="GRID.text.1903.1.4.scale" transform="scale(1, -1)">
                    <text x="0" y="0" id="GRID.text.1903.1.4.text" text-anchor="middle" stroke="rgb(0,0,0)" font-size="11.04" font-family="Helvetica, Arial, FreeSans, Liberation Sans, Nimbus Sans L, sans-serif" fill="rgb(0,0,0)" stroke-opacity="1" fill-opacity="1" font-weight="normal" font-style="normal">
                      <tspan id="GRID.text.1903.1.4.tspan.1" dy="3.95" x="0">5</tspan>
                    </text>
                  </g>
                </g>
                <g id="GRID.text.1903.1.5" transform="translate(195.28, 320.17)" stroke-width="0.1">
                  <g id="GRID.text.1903.1.5.scale" transform="scale(1, -1)">
                    <text x="0" y="0" id="GRID.text.1903.1.5.text" text-anchor="middle" stroke="rgb(0,0,0)" font-size="11.04" font-family="Helvetica, Arial, FreeSans, Liberation Sans, Nimbus Sans L, sans-serif" fill="rgb(0,0,0)" stroke-opacity="1" fill-opacity="1" font-weight="normal" font-style="normal">
                      <tspan id="GRID.text.1903.1.5.tspan.1" dy="3.95" x="0">2</tspan>
                    </text>
                  </g>
                </g>
              </g>
              <g id="GRID.gTree.1904.1" class="gTree grob gDesc"/>
            </g>
          </g>
          <g id="layout::spacer.8-6-8-6.1" class="viewport"/>
          <g id="layout::spacer.8-4-8-4.1" class="viewport"/>
          <g id="layout::spacer.6-6-6-6.1" class="viewport"/>
          <g id="layout::spacer.6-4-6-4.1" class="viewport"/>
          <g id="layout::axis-t.6-5-6-5.1" class="viewport"/>
          <g id="layout::axis-l.7-4-7-4.1" class="viewport">
            <g id="layout::axis-l.7-4-7-4::GRID.VP.452.1" class="viewport">
              <g id="axis-l.7-4-7-4.1" class="forcedgrob gTableChild absoluteGrob gTree grob gDesc">
                <g id="layout::axis-l.7-4-7-4::GRID.VP.452::axis.1" class="viewport">
                  <g id="axis.1" class="forcedgrob gtable gTree grob gDesc">
                    <g id="layout::axis-l.7-4-7-4::GRID.VP.452::axis::axis.1-1-1-1.1" class="viewport"/>
                    <g id="layout::axis-l.7-4-7-4::GRID.VP.452::axis::axis.1-2-1-2.1" class="viewport"/>
                  </g>
                </g>
              </g>
            </g>
          </g>
          <g id="layout::axis-r.7-6-7-6.1" class="viewport"/>
          <g id="layout::axis-b.8-5-8-5.1" class="viewport">
            <g id="layout::axis-b.8-5-8-5::GRID.VP.451.1" class="viewport">
              <g id="axis-b.8-5-8-5.1" class="forcedgrob gTableChild absoluteGrob gTree grob gDesc">
                <g id="layout::axis-b.8-5-8-5::GRID.VP.451::axis.1" class="viewport">
                  <g id="axis.2" class="forcedgrob gtable gTree grob gDesc">
                    <g id="layout::axis-b.8-5-8-5::GRID.VP.451::axis::axis.1-1-1-1.1" class="viewport"/>
                    <g id="layout::axis-b.8-5-8-5::GRID.VP.451::axis::axis.2-1-2-1.1" class="viewport"/>
                  </g>
                </g>
              </g>
            </g>
          </g>
          <g id="layout::xlab-t.5-5-5-5.1" class="viewport"/>
          <g id="layout::xlab-b.9-5-9-5.1" class="viewport"/>
          <g id="layout::ylab-l.7-3-7-3.1" class="viewport"/>
          <g id="layout::ylab-r.7-7-7-7.1" class="viewport"/>
          <g id="layout::guide-box.7-9-7-9.1" class="viewport">
            <g id="layout::guide-box.7-9-7-9::GRID.VP.469.1" class="viewport">
              <g id="layout::guide-box.7-9-7-9::GRID.VP.469::guide-box.7-9-7-9.1" class="viewport">
                <g id="guide-box.7-9-7-9.1" class="forcedgrob gTableChild gtable gTree grob gDesc">
                  <g id="layout::guide-box.7-9-7-9::GRID.VP.469::guide-box.7-9-7-9::legend.box.background.2-4-4-2.1" class="viewport"/>
                  <g id="layout::guide-box.7-9-7-9::GRID.VP.469::guide-box.7-9-7-9::guides.3-3-3-3.1" class="viewport">
                    <g id="layout::guide-box.7-9-7-9::GRID.VP.469::guide-box.7-9-7-9::guides.3-3-3-3::GRID.VP.468.1" class="viewport">
                      <g id="layout::guide-box.7-9-7-9::GRID.VP.469::guide-box.7-9-7-9::guides.3-3-3-3::GRID.VP.468::guides.3-3-3-3.1" class="viewport">
                        <g id="guides.3-3-3-3.1" class="forcedgrob gTableChild gtable gTree grob gDesc">
                          <g id="layout::guide-box.7-9-7-9::GRID.VP.469::guide-box.7-9-7-9::guides.3-3-3-3::GRID.VP.468::guides.3-3-3-3::background.1-6-9-1.1" class="viewport">
                            <g id="background.1-6-9-1.1" class="forcedgrob gTableChild rect grob gDesc">
                              <rect id="background.1-6-9-1.1.1" x="396.92" y="193.22" width="101.61" height="102.84" transform="" stroke-width="1.07" stroke="none" fill="rgb(255,255,255)" stroke-dasharray="none" stroke-opacity="0" fill-opacity="1"/>
                            </g>
                          </g>
                          <g id="layout::guide-box.7-9-7-9::GRID.VP.469::guide-box.7-9-7-9::guides.3-3-3-3::GRID.VP.468::guides.3-3-3-3::title.2-5-2-2.1" class="viewport"/>
                          <g id="layout::guide-box.7-9-7-9::GRID.VP.469::guide-box.7-9-7-9::guides.3-3-3-3::GRID.VP.468::guides.3-3-3-3::key-3-1-bg.4-2-4-2.1" class="viewport"/>
                          <g id="layout::guide-box.7-9-7-9::GRID.VP.469::guide-box.7-9-7-9::guides.3-3-3-3::GRID.VP.468::guides.3-3-3-3::key-3-1-1.4-2-4-2.1" class="viewport">
                            <g id="key-3-1-1.4-2-4-2.1" class="forcedgrob gTableChild rect grob gDesc">
                              <rect id="key-3-1-1.4-2-4-2.1.1" x="403.1" y="268.53" width="15.86" height="15.86" transform="" stroke="none" fill="rgb(248,118,109)" stroke-dasharray="none" stroke-width="1.07" stroke-linejoin="miter" stroke-opacity="0" fill-opacity="1"/>
                            </g>
                          </g>
                          <g id="layout::guide-box.7-9-7-9::GRID.VP.469::guide-box.7-9-7-9::guides.3-3-3-3::GRID.VP.468::guides.3-3-3-3::key-4-1-bg.5-2-5-2.1" class="viewport"/>
                          <g id="layout::guide-box.7-9-7-9::GRID.VP.469::guide-box.7-9-7-9::guides.3-3-3-3::GRID.VP.468::guides.3-3-3-3::key-4-1-1.5-2-5-2.1" class="viewport">
                            <g id="key-4-1-1.5-2-5-2.1" class="forcedgrob gTableChild rect grob gDesc">
                              <rect id="key-4-1-1.5-2-5-2.1.1" x="403.1" y="251.25" width="15.86" height="15.86" transform="" stroke="none" fill="rgb(163,165,0)" stroke-dasharray="none" stroke-width="1.07" stroke-linejoin="miter" stroke-opacity="0" fill-opacity="1"/>
                            </g>
                          </g>
                          <g id="layout::guide-box.7-9-7-9::GRID.VP.469::guide-box.7-9-7-9::guides.3-3-3-3::GRID.VP.468::guides.3-3-3-3::key-5-1-bg.6-2-6-2.1" class="viewport"/>
                          <g id="layout::guide-box.7-9-7-9::GRID.VP.469::guide-box.7-9-7-9::guides.3-3-3-3::GRID.VP.468::guides.3-3-3-3::key-5-1-1.6-2-6-2.1" class="viewport">
                            <g id="key-5-1-1.6-2-6-2.1" class="forcedgrob gTableChild rect grob gDesc">
                              <rect id="key-5-1-1.6-2-6-2.1.1" x="403.1" y="233.97" width="15.86" height="15.86" transform="" stroke="none" fill="rgb(0,191,125)" stroke-dasharray="none" stroke-width="1.07" stroke-linejoin="miter" stroke-opacity="0" fill-opacity="1"/>
                            </g>
                          </g>
                          <g id="layout::guide-box.7-9-7-9::GRID.VP.469::guide-box.7-9-7-9::guides.3-3-3-3::GRID.VP.468::guides.3-3-3-3::key-6-1-bg.7-2-7-2.1" class="viewport"/>
                          <g id="layout::guide-box.7-9-7-9::GRID.VP.469::guide-box.7-9-7-9::guides.3-3-3-3::GRID.VP.468::guides.3-3-3-3::key-6-1-1.7-2-7-2.1" class="viewport">
                            <g id="key-6-1-1.7-2-7-2.1" class="forcedgrob gTableChild rect grob gDesc">
                              <rect id="key-6-1-1.7-2-7-2.1.1" x="403.1" y="216.69" width="15.86" height="15.86" transform="" stroke="none" fill="rgb(0,176,246)" stroke-dasharray="none" stroke-width="1.07" stroke-linejoin="miter" stroke-opacity="0" fill-opacity="1"/>
                            </g>
                          </g>
                          <g id="layout::guide-box.7-9-7-9::GRID.VP.469::guide-box.7-9-7-9::guides.3-3-3-3::GRID.VP.468::guides.3-3-3-3::key-7-1-bg.8-2-8-2.1" class="viewport"/>
                          <g id="layout::guide-box.7-9-7-9::GRID.VP.469::guide-box.7-9-7-9::guides.3-3-3-3::GRID.VP.468::guides.3-3-3-3::key-7-1-1.8-2-8-2.1" class="viewport">
                            <g id="key-7-1-1.8-2-8-2.1" class="forcedgrob gTableChild rect grob gDesc">
                              <rect id="key-7-1-1.8-2-8-2.1.1" x="403.1" y="199.41" width="15.86" height="15.86" transform="" stroke="none" fill="rgb(231,107,243)" stroke-dasharray="none" stroke-width="1.07" stroke-linejoin="miter" stroke-opacity="0" fill-opacity="1"/>
                            </g>
                          </g>
                          <g id="layout::guide-box.7-9-7-9::GRID.VP.469::guide-box.7-9-7-9::guides.3-3-3-3::GRID.VP.468::guides.3-3-3-3::label-3-3.4-4-4-4.1" class="viewport">
                            <g id="layout::guide-box.7-9-7-9::GRID.VP.469::guide-box.7-9-7-9::guides.3-3-3-3::GRID.VP.468::guides.3-3-3-3::label-3-3.4-4-4-4::GRID.VP.463.1" class="viewport">
                              <g id="label-3-3.4-4-4-4.1" class="forcedgrob gTableChild gTree grob gDesc">
                                <g id="layout::guide-box.7-9-7-9::GRID.VP.469::guide-box.7-9-7-9::guides.3-3-3-3::GRID.VP.468::guides.3-3-3-3::label-3-3.4-4-4-4::GRID.VP.463::GRID.VP.453.1" font-size="8.8" stroke="rgb(0,0,0)" font-family="Helvetica, Arial, FreeSans, Liberation Sans, Nimbus Sans L, sans-serif" stroke-opacity="1" font-weight="normal" font-style="normal" class="viewport">
                                  <g id="layout::guide-box.7-9-7-9::GRID.VP.469::guide-box.7-9-7-9::guides.3-3-3-3::GRID.VP.468::guides.3-3-3-3::label-3-3.4-4-4-4::GRID.VP.463::GRID.VP.453::GRID.VP.454.1" class="viewport">
                                    <g id="guide.label.titleGrob.1927.1" class="titleGrob gTree grob gDesc">
                                      <g id="GRID.text.1925.1" class="text grob gDesc">
                                        <g id="GRID.text.1925.1.1" transform="translate(425.15, 276.46)" stroke-width="0.1">
                                          <g id="GRID.text.1925.1.1.scale" transform="scale(1, -1)">
                                            <text x="0" y="0" id="GRID.text.1925.1.1.text" text-anchor="start" font-size="8.8" stroke="rgb(0,0,0)" font-family="Helvetica, Arial, FreeSans, Liberation Sans, Nimbus Sans L, sans-serif" fill="rgb(0,0,0)" stroke-opacity="1" fill-opacity="1" font-weight="normal" font-style="normal">
                                              <tspan id="GRID.text.1925.1.1.tspan.1" dy="3.23" x="0">Altro (2)</tspan>
                                            </text>
                                          </g>
                                        </g>
                                      </g>
                                    </g>
                                  </g>
                                </g>
                              </g>
                            </g>
                          </g>
                          <g id="layout::guide-box.7-9-7-9::GRID.VP.469::guide-box.7-9-7-9::guides.3-3-3-3::GRID.VP.468::guides.3-3-3-3::label-4-3.5-4-5-4.1" class="viewport">
                            <g id="layout::guide-box.7-9-7-9::GRID.VP.469::guide-box.7-9-7-9::guides.3-3-3-3::GRID.VP.468::guides.3-3-3-3::label-4-3.5-4-5-4::GRID.VP.464.1" class="viewport">
                              <g id="label-4-3.5-4-5-4.1" class="forcedgrob gTableChild gTree grob gDesc">
                                <g id="layout::guide-box.7-9-7-9::GRID.VP.469::guide-box.7-9-7-9::guides.3-3-3-3::GRID.VP.468::guides.3-3-3-3::label-4-3.5-4-5-4::GRID.VP.464::GRID.VP.455.1" font-size="8.8" stroke="rgb(0,0,0)" font-family="Helvetica, Arial, FreeSans, Liberation Sans, Nimbus Sans L, sans-serif" stroke-opacity="1" font-weight="normal" font-style="normal" class="viewport">
                                  <g id="layout::guide-box.7-9-7-9::GRID.VP.469::guide-box.7-9-7-9::guides.3-3-3-3::GRID.VP.468::guides.3-3-3-3::label-4-3.5-4-5-4::GRID.VP.464::GRID.VP.455::GRID.VP.456.1" class="viewport">
                                    <g id="guide.label.titleGrob.1930.1" class="titleGrob gTree grob gDesc">
                                      <g id="GRID.text.1928.1" class="text grob gDesc">
                                        <g id="GRID.text.1928.1.1" transform="translate(425.15, 259.18)" stroke-width="0.1">
                                          <g id="GRID.text.1928.1.1.scale" transform="scale(1, -1)">
                                            <text x="0" y="0" id="GRID.text.1928.1.1.text" text-anchor="start" font-size="8.8" stroke="rgb(0,0,0)" font-family="Helvetica, Arial, FreeSans, Liberation Sans, Nimbus Sans L, sans-serif" fill="rgb(0,0,0)" stroke-opacity="1" fill-opacity="1" font-weight="normal" font-style="normal">
                                              <tspan id="GRID.text.1928.1.1.tspan.1" dy="3.23" x="0">Fisso (5)</tspan>
                                            </text>
                                          </g>
                                        </g>
                                      </g>
                                    </g>
                                  </g>
                                </g>
                              </g>
                            </g>
                          </g>
                          <g id="layout::guide-box.7-9-7-9::GRID.VP.469::guide-box.7-9-7-9::guides.3-3-3-3::GRID.VP.468::guides.3-3-3-3::label-5-3.6-4-6-4.1" class="viewport">
                            <g id="layout::guide-box.7-9-7-9::GRID.VP.469::guide-box.7-9-7-9::guides.3-3-3-3::GRID.VP.468::guides.3-3-3-3::label-5-3.6-4-6-4::GRID.VP.465.1" class="viewport">
                              <g id="label-5-3.6-4-6-4.1" class="forcedgrob gTableChild gTree grob gDesc">
                                <g id="layout::guide-box.7-9-7-9::GRID.VP.469::guide-box.7-9-7-9::guides.3-3-3-3::GRID.VP.468::guides.3-3-3-3::label-5-3.6-4-6-4::GRID.VP.465::GRID.VP.457.1" font-size="8.8" stroke="rgb(0,0,0)" font-family="Helvetica, Arial, FreeSans, Liberation Sans, Nimbus Sans L, sans-serif" stroke-opacity="1" font-weight="normal" font-style="normal" class="viewport">
                                  <g id="layout::guide-box.7-9-7-9::GRID.VP.469::guide-box.7-9-7-9::guides.3-3-3-3::GRID.VP.468::guides.3-3-3-3::label-5-3.6-4-6-4::GRID.VP.465::GRID.VP.457::GRID.VP.458.1" class="viewport">
                                    <g id="guide.label.titleGrob.1933.1" class="titleGrob gTree grob gDesc">
                                      <g id="GRID.text.1931.1" class="text grob gDesc">
                                        <g id="GRID.text.1931.1.1" transform="translate(425.15, 241.9)" stroke-width="0.1">
                                          <g id="GRID.text.1931.1.1.scale" transform="scale(1, -1)">
                                            <text x="0" y="0" id="GRID.text.1931.1.1.text" text-anchor="start" font-size="8.8" stroke="rgb(0,0,0)" font-family="Helvetica, Arial, FreeSans, Liberation Sans, Nimbus Sans L, sans-serif" fill="rgb(0,0,0)" stroke-opacity="1" fill-opacity="1" font-weight="normal" font-style="normal">
                                              <tspan id="GRID.text.1931.1.1.tspan.1" dy="3.23" x="0">Tablet (10)</tspan>
                                            </text>
                                          </g>
                                        </g>
                                      </g>
                                    </g>
                                  </g>
                                </g>
                              </g>
                            </g>
                          </g>
                          <g id="layout::guide-box.7-9-7-9::GRID.VP.469::guide-box.7-9-7-9::guides.3-3-3-3::GRID.VP.468::guides.3-3-3-3::label-6-3.7-4-7-4.1" class="viewport">
                            <g id="layout::guide-box.7-9-7-9::GRID.VP.469::guide-box.7-9-7-9::guides.3-3-3-3::GRID.VP.468::guides.3-3-3-3::label-6-3.7-4-7-4::GRID.VP.466.1" class="viewport">
                              <g id="label-6-3.7-4-7-4.1" class="forcedgrob gTableChild gTree grob gDesc">
                                <g id="layout::guide-box.7-9-7-9::GRID.VP.469::guide-box.7-9-7-9::guides.3-3-3-3::GRID.VP.468::guides.3-3-3-3::label-6-3.7-4-7-4::GRID.VP.466::GRID.VP.459.1" font-size="8.8" stroke="rgb(0,0,0)" font-family="Helvetica, Arial, FreeSans, Liberation Sans, Nimbus Sans L, sans-serif" stroke-opacity="1" font-weight="normal" font-style="normal" class="viewport">
                                  <g id="layout::guide-box.7-9-7-9::GRID.VP.469::guide-box.7-9-7-9::guides.3-3-3-3::GRID.VP.468::guides.3-3-3-3::label-6-3.7-4-7-4::GRID.VP.466::GRID.VP.459::GRID.VP.460.1" class="viewport">
                                    <g id="guide.label.titleGrob.1936.1" class="titleGrob gTree grob gDesc">
                                      <g id="GRID.text.1934.1" class="text grob gDesc">
                                        <g id="GRID.text.1934.1.1" transform="translate(425.15, 224.62)" stroke-width="0.1">
                                          <g id="GRID.text.1934.1.1.scale" transform="scale(1, -1)">
                                            <text x="0" y="0" id="GRID.text.1934.1.1.text" text-anchor="start" font-size="8.8" stroke="rgb(0,0,0)" font-family="Helvetica, Arial, FreeSans, Liberation Sans, Nimbus Sans L, sans-serif" fill="rgb(0,0,0)" stroke-opacity="1" fill-opacity="1" font-weight="normal" font-style="normal">
                                              <tspan id="GRID.text.1934.1.1.tspan.1" dy="3.23" x="0">Smartphone (94)</tspan>
                                            </text>
                                          </g>
                                        </g>
                                      </g>
                                    </g>
                                  </g>
                                </g>
                              </g>
                            </g>
                          </g>
                          <g id="layout::guide-box.7-9-7-9::GRID.VP.469::guide-box.7-9-7-9::guides.3-3-3-3::GRID.VP.468::guides.3-3-3-3::label-7-3.8-4-8-4.1" class="viewport">
                            <g id="layout::guide-box.7-9-7-9::GRID.VP.469::guide-box.7-9-7-9::guides.3-3-3-3::GRID.VP.468::guides.3-3-3-3::label-7-3.8-4-8-4::GRID.VP.467.1" class="viewport">
                              <g id="label-7-3.8-4-8-4.1" class="forcedgrob gTableChild gTree grob gDesc">
                                <g id="layout::guide-box.7-9-7-9::GRID.VP.469::guide-box.7-9-7-9::guides.3-3-3-3::GRID.VP.468::guides.3-3-3-3::label-7-3.8-4-8-4::GRID.VP.467::GRID.VP.461.1" font-size="8.8" stroke="rgb(0,0,0)" font-family="Helvetica, Arial, FreeSans, Liberation Sans, Nimbus Sans L, sans-serif" stroke-opacity="1" font-weight="normal" font-style="normal" class="viewport">
                                  <g id="layout::guide-box.7-9-7-9::GRID.VP.469::guide-box.7-9-7-9::guides.3-3-3-3::GRID.VP.468::guides.3-3-3-3::label-7-3.8-4-8-4::GRID.VP.467::GRID.VP.461::GRID.VP.462.1" class="viewport">
                                    <g id="guide.label.titleGrob.1939.1" class="titleGrob gTree grob gDesc">
                                      <g id="GRID.text.1937.1" class="text grob gDesc">
                                        <g id="GRID.text.1937.1.1" transform="translate(425.15, 207.34)" stroke-width="0.1">
                                          <g id="GRID.text.1937.1.1.scale" transform="scale(1, -1)">
                                            <text x="0" y="0" id="GRID.text.1937.1.1.text" text-anchor="start" font-size="8.8" stroke="rgb(0,0,0)" font-family="Helvetica, Arial, FreeSans, Liberation Sans, Nimbus Sans L, sans-serif" fill="rgb(0,0,0)" stroke-opacity="1" fill-opacity="1" font-weight="normal" font-style="normal">
                                              <tspan id="GRID.text.1937.1.1.tspan.1" dy="3.23" x="0">Portatile (151)</tspan>
                                            </text>
                                          </g>
                                        </g>
                                      </g>
                                    </g>
                                  </g>
                                </g>
                              </g>
                            </g>
                          </g>
                        </g>
                      </g>
                    </g>
                  </g>
                </g>
              </g>
            </g>
          </g>
          <g id="layout::subtitle.4-5-4-5.1" class="viewport"/>
          <g id="layout::title.3-5-3-5.1" class="viewport">
            <g id="layout::title.3-5-3-5::GRID.VP.470.1" font-size="13.2" stroke="rgb(102,102,102)" font-family="Helvetica, Arial, FreeSans, Liberation Sans, Nimbus Sans L, sans-serif" stroke-opacity="1" font-weight="normal" font-style="normal" class="viewport">
              <g id="layout::title.3-5-3-5::GRID.VP.470::GRID.VP.471.1" class="viewport">
                <g id="title.3-5-3-5.1" class="forcedgrob gTableChild titleGrob gTree grob gDesc">
                  <g id="GRID.text.1957.1" class="text grob gDesc">
                    <g id="GRID.text.1957.1.1" transform="translate(197.09, 450.97)" stroke-width="0.1">
                      <g id="GRID.text.1957.1.1.scale" transform="scale(1, -1)">
                        <text x="0" y="0" id="GRID.text.1957.1.1.text" text-anchor="middle" font-size="13.2" stroke="rgb(102,102,102)" font-family="Helvetica, Arial, FreeSans, Liberation Sans, Nimbus Sans L, sans-serif" fill="rgb(102,102,102)" stroke-opacity="1" fill-opacity="1" font-weight="normal" font-style="normal">
                          <tspan id="GRID.text.1957.1.1.tspan.1" dy="9.33" x="0">anagrafica dispositivo</tspan>
                        </text>
                      </g>
                    </g>
                  </g>
                </g>
              </g>
            </g>
          </g>
          <g id="layout::caption.10-5-10-5.1" class="viewport"/>
          <g id="layout::tag.2-2-2-2.1" class="viewport"/>
        </g>
      </g>
    </g>
  </g>
</svg>