<?xml version="1.0" encoding="UTF-8"?>
<svg xmlns="http://www.w3.org/2000/svg" xmlns:xlink="http://www.w3.org/1999/xlink" width="504px" height="504px" viewBox="0 0 504 504" version="1.1">
  <metadata xmlns:gridsvg="http://www.stat.auckland.ac.nz/~paul/R/gridSVG/">
    <gridsvg:generator name="gridSVG" version="1.6-0" time="2019-01-14 15:59:43"/>
    <gridsvg:argument name="name" value="./latest_informaggio_csv/risultati/svg/anagrafica-totali-altroos.svg"/>
    <gridsvg:argument name="exportCoords" value="none"/>
    <gridsvg:argument name="exportMappings" value="none"/>
    <gridsvg:argument name="exportJS" value="none"/>
    <gridsvg:argument name="res" value="72"/>
    <gridsvg:argument name="prefix" value=""/>
    <gridsvg:argument name="addClasses" value="TRUE"/>
    <gridsvg:argument name="indent" value="TRUE"/>
    <gridsvg:argument name="htmlWrapper" value="FALSE"/>
    <gridsvg:argument name="usePaths" value="vpPaths"/>
    <gridsvg:argument name="uniqueNames" value="TRUE"/>
    <gridsvg:separator name="id.sep" value="."/>
    <gridsvg:separator name="gPath.sep" value="::"/>
    <gridsvg:separator name="vpPath.sep" value="::"/>
  </metadata>
  <g transform="translate(0, 504) scale(1, -1)">
    <g id="gridSVG" fill="none" stroke="rgb(0,0,0)" stroke-dasharray="none" stroke-width="0.75" font-size="12" font-family="Helvetica, Arial, FreeSans, Liberation Sans, Nimbus Sans L, sans-serif" opacity="1" stroke-linecap="round" stroke-linejoin="round" stroke-miterlimit="10" stroke-opacity="1" fill-opacity="0" font-weight="normal" font-style="normal">
      <g id="layout.1" class="viewport">
        <g id="layout.2" class="forcedgrob gtable gTree grob gDesc">
          <defs>
            <clipPath id="layout::background.1-11-12-1.1.clipPath">
              <rect x="0" y="182.79" width="504" height="138.41" fill="none" stroke="none"/>
            </clipPath>
          </defs>
          <g id="layout::background.1-11-12-1.1" clip-path="url(#layout::background.1-11-12-1.1.clipPath)" class="viewport">
            <g id="background.1-11-12-1.1" class="forcedgrob gTableChild rect grob gDesc">
              <rect id="background.1-11-12-1.1.1" x="0" y="182.79" width="504" height="138.41" transform="" stroke-width="1.07" stroke="rgb(255,255,255)" fill="rgb(255,255,255)" stroke-dasharray="none" stroke-opacity="1" fill-opacity="1"/>
            </g>
          </g>
          <defs>
            <clipPath id="layout::panel.7-5-7-5.1.clipPath">
              <rect x="8.22" y="191.01" width="107.26" height="107.26" fill="none" stroke="none"/>
            </clipPath>
          </defs>
          <g id="layout::panel.7-5-7-5.1" clip-path="url(#layout::panel.7-5-7-5.1.clipPath)" class="viewport">
            <g id="panel.7-5-7-5.1" class="forcedgrob gTableChild gTree grob gDesc">
              <g id="grill.gTree.190.1" class="gTree grob gDesc">
                <g id="panel.background..rect.186.1" class="rect grob gDesc">
                  <rect id="panel.background..rect.186.1.1" x="8.22" y="191.01" width="107.26" height="107.26" transform="" stroke-width="1.07" stroke="none" fill="rgb(255,255,255)" stroke-dasharray="none" stroke-opacity="0" fill-opacity="1"/>
                </g>
              </g>
              <g id="bar.gTree.179.1" class="gTree grob gDesc">
                <g id="geom_polygon.polygon.175.1" class="polygon grob gDesc">
                  <polygon id="geom_polygon.polygon.175.1.1" points="61.85,244.64 61.81,246.12 61.78,247.6 61.74,249.08 61.71,250.56 61.67,252.04 61.64,253.52 61.6,255 61.57,256.48 61.53,257.95 61.49,259.43 61.46,260.91 61.42,262.39 61.39,263.87 61.35,265.35 61.32,266.83 61.28,268.31 61.25,269.79 61.21,271.27 61.18,272.74 61.14,274.22 61.1,275.7 61.07,277.18 61.03,278.66 61,280.14 60.96,281.62 60.93,283.1 60.89,284.58 60.86,286.06 60.82,287.53 59.37,287.48 57.92,287.37 56.48,287.21 55.04,287 53.61,286.75 52.19,286.45 50.79,286.1 49.39,285.7 48.01,285.25 46.64,284.76 45.29,284.22 43.96,283.64 42.66,283.01 41.37,282.34 40.1,281.63 38.87,280.87 37.65,280.07 36.47,279.24 35.31,278.36 34.19,277.44 33.09,276.49 32.03,275.49 31.01,274.47 30.02,273.41 29.06,272.31 28.14,271.19 27.27,270.03 26.43,268.85 25.63,267.64 24.87,266.4 24.16,265.14 23.48,263.85 22.86,262.54 22.27,261.21 21.74,259.86 21.24,258.5 20.8,257.12 20.4,255.72 20.05,254.31 19.75,252.89 19.49,251.46 19.28,250.03 19.13,248.58 19.02,247.14 18.96,245.69 18.95,244.23 18.99,242.78 19.07,241.33 19.21,239.89 19.39,238.45 19.63,237.02 19.91,235.59 20.24,234.18 20.62,232.78 21.04,231.39 21.52,230.02 22.03,228.66 22.6,227.32 23.2,226.01 23.86,224.71 24.55,223.44 25.29,222.19 26.07,220.96 26.89,219.77 27.76,218.6 28.66,217.46 29.59,216.35 30.57,215.28 31.58,214.24 32.63,213.23 33.71,212.26 34.82,211.33 35.96,210.43 37.13,209.57 38.33,208.76 39.56,207.98 40.81,207.25 42.09,206.56 43.39,205.91 44.71,205.31 46.05,204.75 47.41,204.24 48.78,203.78 50.17,203.36 51.58,202.99 52.99,202.66 54.42,202.39 55.85,202.16 57.29,201.98 58.74,201.85 60.19,201.77 61.64,201.74 63.09,201.76 64.54,201.82 65.99,201.94 67.43,202.1 68.86,202.32 70.29,202.58 71.71,202.89 73.12,203.25 74.51,203.65 75.89,204.1 77.25,204.6 78.6,205.14 79.93,205.73 81.23,206.37 82.52,207.04 83.78,207.77 85.01,208.53 86.22,209.33 87.4,210.18 88.55,211.06 89.67,211.98 90.76,212.94 91.82,213.94 92.84,214.97 93.82,216.04 94.77,217.13 95.68,218.26 96.56,219.42 97.39,220.61 98.18,221.83 98.93,223.07 99.64,224.34 100.31,225.63 100.93,226.94 101.51,228.27 102.04,229.62 102.52,230.99 102.96,232.37 103.35,233.77 103.7,235.18 103.99,236.6 104.24,238.03 104.44,239.47 104.59,240.91 104.69,242.36 104.75,243.81 104.75,245.26 104.7,246.71 104.61,248.16 104.47,249.61 104.27,251.05 104.03,252.48 103.74,253.9 103.41,255.31 103.02,256.71 102.59,258.1 102.11,259.47 101.59,260.82 101.02,262.16 100.4,263.47 99.74,264.76 99.04,266.03 98.3,267.28 97.51,268.5 96.68,269.69 95.81,270.86 94.91,271.99 93.96,273.09 92.98,274.16 91.97,275.2 90.92,276.2 89.83,277.17 88.72,278.09 87.57,278.98 86.39,279.83 85.19,280.64 83.96,281.41 82.7,282.14 81.42,282.82 80.12,283.46 78.79,284.06 77.45,284.61 76.09,285.11 74.71,285.57 73.32,285.99 71.92,286.35 70.5,286.67 69.07,286.93 67.64,287.15 66.2,287.33 64.75,287.45 63.3,287.52 61.85,287.55 61.85,286.07 61.85,284.59 61.85,283.11 61.85,281.63 61.85,280.15 61.85,278.67 61.85,277.19 61.85,275.71 61.85,274.23 61.85,272.75 61.85,271.27 61.85,269.79 61.85,268.31 61.85,266.83 61.85,265.36 61.85,263.88 61.85,262.4 61.85,260.92 61.85,259.44 61.85,257.96 61.85,256.48 61.85,255 61.85,253.52 61.85,252.04 61.85,250.56 61.85,249.08 61.85,247.6 61.85,246.12 61.85,244.64 61.85,244.64" stroke="none" fill="rgb(0,191,196)" stroke-width="1.07" stroke-dasharray="none" stroke-opacity="0" fill-opacity="1"/>
                </g>
                <g id="geom_polygon.polygon.177.1" class="polygon grob gDesc">
                  <polygon id="geom_polygon.polygon.177.1.1" points="61.85,244.64 61.85,246.12 61.85,247.6 61.85,249.08 61.85,250.56 61.85,252.04 61.85,253.52 61.85,255 61.85,256.48 61.85,257.96 61.85,259.44 61.85,260.92 61.85,262.4 61.85,263.88 61.85,265.36 61.85,266.83 61.85,268.31 61.85,269.79 61.85,271.27 61.85,272.75 61.85,274.23 61.85,275.71 61.85,277.19 61.85,278.67 61.85,280.15 61.85,281.63 61.85,283.11 61.85,284.59 61.85,286.07 61.85,287.55 60.82,287.53 60.86,286.06 60.89,284.58 60.93,283.1 60.96,281.62 61,280.14 61.03,278.66 61.07,277.18 61.1,275.7 61.14,274.22 61.18,272.74 61.21,271.27 61.25,269.79 61.28,268.31 61.32,266.83 61.35,265.35 61.39,263.87 61.42,262.39 61.46,260.91 61.49,259.43 61.53,257.95 61.57,256.48 61.6,255 61.64,253.52 61.67,252.04 61.71,250.56 61.74,249.08 61.78,247.6 61.81,246.12 61.85,244.64 61.85,244.64" stroke="none" fill="rgb(248,118,109)" stroke-width="1.07" stroke-dasharray="none" stroke-opacity="0" fill-opacity="1"/>
                </g>
              </g>
              <g id="GRID.text.180.1" class="text grob gDesc">
                <g id="GRID.text.180.1.1" transform="translate(62.11, 223.19)" stroke-width="0.1">
                  <g id="GRID.text.180.1.1.scale" transform="scale(1, -1)">
                    <text x="0" y="0" id="GRID.text.180.1.1.text" text-anchor="middle" stroke="rgb(0,0,0)" font-size="11.04" font-family="Helvetica, Arial, FreeSans, Liberation Sans, Nimbus Sans L, sans-serif" fill="rgb(0,0,0)" stroke-opacity="1" fill-opacity="1" font-weight="normal" font-style="normal">
                      <tspan id="GRID.text.180.1.1.tspan.1" dy="3.95" x="0">261</tspan>
                    </text>
                  </g>
                </g>
                <g id="GRID.text.180.1.2" transform="translate(61.59, 266.09)" stroke-width="0.1">
                  <g id="GRID.text.180.1.2.scale" transform="scale(1, -1)">
                    <text x="0" y="0" id="GRID.text.180.1.2.text" text-anchor="middle" stroke="rgb(0,0,0)" font-size="11.04" font-family="Helvetica, Arial, FreeSans, Liberation Sans, Nimbus Sans L, sans-serif" fill="rgb(0,0,0)" stroke-opacity="1" fill-opacity="1" font-weight="normal" font-style="normal">
                      <tspan id="GRID.text.180.1.2.tspan.1" dy="3.95" x="0">1</tspan>
                    </text>
                  </g>
                </g>
              </g>
              <g id="GRID.gTree.181.1" class="gTree grob gDesc"/>
            </g>
          </g>
          <g id="layout::spacer.8-6-8-6.1" class="viewport"/>
          <g id="layout::spacer.8-4-8-4.1" class="viewport"/>
          <g id="layout::spacer.6-6-6-6.1" class="viewport"/>
          <g id="layout::spacer.6-4-6-4.1" class="viewport"/>
          <g id="layout::axis-t.6-5-6-5.1" class="viewport"/>
          <g id="layout::axis-l.7-4-7-4.1" class="viewport">
            <g id="layout::axis-l.7-4-7-4::GRID.VP.41.1" class="viewport">
              <g id="axis-l.7-4-7-4.1" class="forcedgrob gTableChild absoluteGrob gTree grob gDesc">
                <g id="layout::axis-l.7-4-7-4::GRID.VP.41::axis.1" class="viewport">
                  <g id="axis.1" class="forcedgrob gtable gTree grob gDesc">
                    <g id="layout::axis-l.7-4-7-4::GRID.VP.41::axis::axis.1-1-1-1.1" class="viewport"/>
                    <g id="layout::axis-l.7-4-7-4::GRID.VP.41::axis::axis.1-2-1-2.1" class="viewport"/>
                  </g>
                </g>
              </g>
            </g>
          </g>
          <g id="layout::axis-r.7-6-7-6.1" class="viewport"/>
          <g id="layout::axis-b.8-5-8-5.1" class="viewport">
            <g id="layout::axis-b.8-5-8-5::GRID.VP.40.1" class="viewport">
              <g id="axis-b.8-5-8-5.1" class="forcedgrob gTableChild absoluteGrob gTree grob gDesc">
                <g id="layout::axis-b.8-5-8-5::GRID.VP.40::axis.1" class="viewport">
                  <g id="axis.2" class="forcedgrob gtable gTree grob gDesc">
                    <g id="layout::axis-b.8-5-8-5::GRID.VP.40::axis::axis.1-1-1-1.1" class="viewport"/>
                    <g id="layout::axis-b.8-5-8-5::GRID.VP.40::axis::axis.2-1-2-1.1" class="viewport"/>
                  </g>
                </g>
              </g>
            </g>
          </g>
          <g id="layout::xlab-t.5-5-5-5.1" class="viewport"/>
          <g id="layout::xlab-b.9-5-9-5.1" class="viewport"/>
          <g id="layout::ylab-l.7-3-7-3.1" class="viewport"/>
          <g id="layout::ylab-r.7-7-7-7.1" class="viewport"/>
          <g id="layout::guide-box.7-9-7-9.1" class="viewport">
            <g id="layout::guide-box.7-9-7-9::GRID.VP.49.1" class="viewport">
              <g id="layout::guide-box.7-9-7-9::GRID.VP.49::guide-box.7-9-7-9.1" class="viewport">
                <g id="guide-box.7-9-7-9.1" class="forcedgrob gTableChild gtable gTree grob gDesc">
                  <g id="layout::guide-box.7-9-7-9::GRID.VP.49::guide-box.7-9-7-9::legend.box.background.2-4-4-2.1" class="viewport"/>
                  <g id="layout::guide-box.7-9-7-9::GRID.VP.49::guide-box.7-9-7-9::guides.3-3-3-3.1" class="viewport">
                    <g id="layout::guide-box.7-9-7-9::GRID.VP.49::guide-box.7-9-7-9::guides.3-3-3-3::GRID.VP.48.1" class="viewport">
                      <g id="layout::guide-box.7-9-7-9::GRID.VP.49::guide-box.7-9-7-9::guides.3-3-3-3::GRID.VP.48::guides.3-3-3-3.1" class="viewport">
                        <g id="guides.3-3-3-3.1" class="forcedgrob gTableChild gtable gTree grob gDesc">
                          <g id="layout::guide-box.7-9-7-9::GRID.VP.49::guide-box.7-9-7-9::guides.3-3-3-3::GRID.VP.48::guides.3-3-3-3::background.1-6-6-1.1" class="viewport">
                            <g id="background.1-6-6-1.1" class="forcedgrob gTableChild rect grob gDesc">
                              <rect id="background.1-6-6-1.1.1" x="126.44" y="219.14" width="372.08" height="51" transform="" stroke-width="1.07" stroke="none" fill="rgb(255,255,255)" stroke-dasharray="none" stroke-opacity="0" fill-opacity="1"/>
                            </g>
                          </g>
                          <g id="layout::guide-box.7-9-7-9::GRID.VP.49::guide-box.7-9-7-9::guides.3-3-3-3::GRID.VP.48::guides.3-3-3-3::title.2-5-2-2.1" class="viewport"/>
                          <g id="layout::guide-box.7-9-7-9::GRID.VP.49::guide-box.7-9-7-9::guides.3-3-3-3::GRID.VP.48::guides.3-3-3-3::key-3-1-bg.4-2-4-2.1" class="viewport"/>
                          <g id="layout::guide-box.7-9-7-9::GRID.VP.49::guide-box.7-9-7-9::guides.3-3-3-3::GRID.VP.48::guides.3-3-3-3::key-3-1-1.4-2-4-2.1" class="viewport">
                            <g id="key-3-1-1.4-2-4-2.1" class="forcedgrob gTableChild rect grob gDesc">
                              <rect id="key-3-1-1.4-2-4-2.1.1" x="132.63" y="242.61" width="15.86" height="15.86" transform="" stroke="none" fill="rgb(248,118,109)" stroke-dasharray="none" stroke-width="1.07" stroke-linejoin="miter" stroke-opacity="0" fill-opacity="1"/>
                            </g>
                          </g>
                          <g id="layout::guide-box.7-9-7-9::GRID.VP.49::guide-box.7-9-7-9::guides.3-3-3-3::GRID.VP.48::guides.3-3-3-3::key-4-1-bg.5-2-5-2.1" class="viewport"/>
                          <g id="layout::guide-box.7-9-7-9::GRID.VP.49::guide-box.7-9-7-9::guides.3-3-3-3::GRID.VP.48::guides.3-3-3-3::key-4-1-1.5-2-5-2.1" class="viewport">
                            <g id="key-4-1-1.5-2-5-2.1" class="forcedgrob gTableChild rect grob gDesc">
                              <rect id="key-4-1-1.5-2-5-2.1.1" x="132.63" y="225.33" width="15.86" height="15.86" transform="" stroke="none" fill="rgb(0,191,196)" stroke-dasharray="none" stroke-width="1.07" stroke-linejoin="miter" stroke-opacity="0" fill-opacity="1"/>
                            </g>
                          </g>
                          <g id="layout::guide-box.7-9-7-9::GRID.VP.49::guide-box.7-9-7-9::guides.3-3-3-3::GRID.VP.48::guides.3-3-3-3::label-3-3.4-4-4-4.1" class="viewport">
                            <g id="layout::guide-box.7-9-7-9::GRID.VP.49::guide-box.7-9-7-9::guides.3-3-3-3::GRID.VP.48::guides.3-3-3-3::label-3-3.4-4-4-4::GRID.VP.46.1" class="viewport">
                              <g id="label-3-3.4-4-4-4.1" class="forcedgrob gTableChild gTree grob gDesc">
                                <g id="layout::guide-box.7-9-7-9::GRID.VP.49::guide-box.7-9-7-9::guides.3-3-3-3::GRID.VP.48::guides.3-3-3-3::label-3-3.4-4-4-4::GRID.VP.46::GRID.VP.42.1" font-size="8.8" stroke="rgb(0,0,0)" font-family="Helvetica, Arial, FreeSans, Liberation Sans, Nimbus Sans L, sans-serif" stroke-opacity="1" font-weight="normal" font-style="normal" class="viewport">
                                  <g id="layout::guide-box.7-9-7-9::GRID.VP.49::guide-box.7-9-7-9::guides.3-3-3-3::GRID.VP.48::guides.3-3-3-3::label-3-3.4-4-4-4::GRID.VP.46::GRID.VP.42::GRID.VP.43.1" class="viewport">
                                    <g id="guide.label.titleGrob.204.1" class="titleGrob gTree grob gDesc">
                                      <g id="GRID.text.202.1" class="text grob gDesc">
                                        <g id="GRID.text.202.1.1" transform="translate(154.68, 250.54)" stroke-width="0.1">
                                          <g id="GRID.text.202.1.1.scale" transform="scale(1, -1)">
                                            <text x="0" y="0" id="GRID.text.202.1.1.text" text-anchor="start" font-size="8.8" stroke="rgb(0,0,0)" font-family="Helvetica, Arial, FreeSans, Liberation Sans, Nimbus Sans L, sans-serif" fill="rgb(0,0,0)" stroke-opacity="1" fill-opacity="1" font-weight="normal" font-style="normal">
                                              <tspan id="GRID.text.202.1.1.tspan.1" dy="3.23" x="0">Ma fino a poco tempo fa avevo un doppio sistema operativo: windows 7 e Ubuntu  (1)</tspan>
                                            </text>
                                          </g>
                                        </g>
                                      </g>
                                    </g>
                                  </g>
                                </g>
                              </g>
                            </g>
                          </g>
                          <g id="layout::guide-box.7-9-7-9::GRID.VP.49::guide-box.7-9-7-9::guides.3-3-3-3::GRID.VP.48::guides.3-3-3-3::label-4-3.5-4-5-4.1" class="viewport">
                            <g id="layout::guide-box.7-9-7-9::GRID.VP.49::guide-box.7-9-7-9::guides.3-3-3-3::GRID.VP.48::guides.3-3-3-3::label-4-3.5-4-5-4::GRID.VP.47.1" class="viewport">
                              <g id="label-4-3.5-4-5-4.1" class="forcedgrob gTableChild gTree grob gDesc">
                                <g id="layout::guide-box.7-9-7-9::GRID.VP.49::guide-box.7-9-7-9::guides.3-3-3-3::GRID.VP.48::guides.3-3-3-3::label-4-3.5-4-5-4::GRID.VP.47::GRID.VP.44.1" font-size="8.8" stroke="rgb(0,0,0)" font-family="Helvetica, Arial, FreeSans, Liberation Sans, Nimbus Sans L, sans-serif" stroke-opacity="1" font-weight="normal" font-style="normal" class="viewport">
                                  <g id="layout::guide-box.7-9-7-9::GRID.VP.49::guide-box.7-9-7-9::guides.3-3-3-3::GRID.VP.48::guides.3-3-3-3::label-4-3.5-4-5-4::GRID.VP.47::GRID.VP.44::GRID.VP.45.1" class="viewport">
                                    <g id="guide.label.titleGrob.207.1" class="titleGrob gTree grob gDesc">
                                      <g id="GRID.text.205.1" class="text grob gDesc">
                                        <g id="GRID.text.205.1.1" transform="translate(154.68, 233.26)" stroke-width="0.1">
                                          <g id="GRID.text.205.1.1.scale" transform="scale(1, -1)">
                                            <text x="0" y="0" id="GRID.text.205.1.1.text" text-anchor="start" font-size="8.8" stroke="rgb(0,0,0)" font-family="Helvetica, Arial, FreeSans, Liberation Sans, Nimbus Sans L, sans-serif" fill="rgb(0,0,0)" stroke-opacity="1" fill-opacity="1" font-weight="normal" font-style="normal">
                                              <tspan id="GRID.text.205.1.1.tspan.1" dy="3.23" x="0">NA (261)</tspan>
                                            </text>
                                          </g>
                                        </g>
                                      </g>
                                    </g>
                                  </g>
                                </g>
                              </g>
                            </g>
                          </g>
                        </g>
                      </g>
                    </g>
                  </g>
                </g>
              </g>
            </g>
          </g>
          <g id="layout::subtitle.4-5-4-5.1" class="viewport"/>
          <g id="layout::title.3-5-3-5.1" class="viewport">
            <g id="layout::title.3-5-3-5::GRID.VP.50.1" font-size="13.2" stroke="rgb(102,102,102)" font-family="Helvetica, Arial, FreeSans, Liberation Sans, Nimbus Sans L, sans-serif" stroke-opacity="1" font-weight="normal" font-style="normal" class="viewport">
              <g id="layout::title.3-5-3-5::GRID.VP.50::GRID.VP.51.1" class="viewport">
                <g id="title.3-5-3-5.1" class="forcedgrob gTableChild titleGrob gTree grob gDesc">
                  <g id="GRID.text.216.1" class="text grob gDesc">
                    <g id="GRID.text.216.1.1" transform="translate(61.85, 315.73)" stroke-width="0.1">
                      <g id="GRID.text.216.1.1.scale" transform="scale(1, -1)">
                        <text x="0" y="0" id="GRID.text.216.1.1.text" text-anchor="middle" font-size="13.2" stroke="rgb(102,102,102)" font-family="Helvetica, Arial, FreeSans, Liberation Sans, Nimbus Sans L, sans-serif" fill="rgb(102,102,102)" stroke-opacity="1" fill-opacity="1" font-weight="normal" font-style="normal">
                          <tspan id="GRID.text.216.1.1.tspan.1" dy="9.33" x="0">anagrafica totali-altroos</tspan>
                        </text>
                      </g>
                    </g>
                  </g>
                </g>
              </g>
            </g>
          </g>
          <g id="layout::caption.10-5-10-5.1" class="viewport"/>
          <g id="layout::tag.2-2-2-2.1" class="viewport"/>
        </g>
      </g>
    </g>
  </g>
</svg>