<?xml version="1.0" encoding="UTF-8"?>
<svg xmlns="http://www.w3.org/2000/svg" xmlns:xlink="http://www.w3.org/1999/xlink" width="504px" height="504px" viewBox="0 0 504 504" version="1.1">
  <metadata xmlns:gridsvg="http://www.stat.auckland.ac.nz/~paul/R/gridSVG/">
    <gridsvg:generator name="gridSVG" version="1.6-0" time="2019-01-18 23:13:33"/>
    <gridsvg:argument name="name" value="./latest_informaggio_csv/risultati/svg/anagrafica-espertoliceo.svg"/>
    <gridsvg:argument name="exportCoords" value="none"/>
    <gridsvg:argument name="exportMappings" value="none"/>
    <gridsvg:argument name="exportJS" value="none"/>
    <gridsvg:argument name="res" value="72"/>
    <gridsvg:argument name="prefix" value=""/>
    <gridsvg:argument name="addClasses" value="TRUE"/>
    <gridsvg:argument name="indent" value="TRUE"/>
    <gridsvg:argument name="htmlWrapper" value="FALSE"/>
    <gridsvg:argument name="usePaths" value="vpPaths"/>
    <gridsvg:argument name="uniqueNames" value="TRUE"/>
    <gridsvg:separator name="id.sep" value="."/>
    <gridsvg:separator name="gPath.sep" value="::"/>
    <gridsvg:separator name="vpPath.sep" value="::"/>
  </metadata>
  <g transform="translate(0, 504) scale(1, -1)">
    <g id="gridSVG" fill="none" stroke="rgb(0,0,0)" stroke-dasharray="none" stroke-width="0.75" font-size="12" font-family="Helvetica, Arial, FreeSans, Liberation Sans, Nimbus Sans L, sans-serif" opacity="1" stroke-linecap="round" stroke-linejoin="round" stroke-miterlimit="10" stroke-opacity="1" fill-opacity="0" font-weight="normal" font-style="normal">
      <g id="layout.1" class="viewport">
        <g id="layout.2" class="forcedgrob gtable gTree grob gDesc">
          <defs>
            <clipPath id="layout::background.1-11-12-1.1.clipPath">
              <rect x="0" y="28.37" width="504" height="447.27" fill="none" stroke="none"/>
            </clipPath>
          </defs>
          <g id="layout::background.1-11-12-1.1" clip-path="url(#layout::background.1-11-12-1.1.clipPath)" class="viewport">
            <g id="background.1-11-12-1.1" class="forcedgrob gTableChild rect grob gDesc">
              <rect id="background.1-11-12-1.1.1" x="0" y="28.37" width="504" height="447.27" transform="" stroke-width="1.07" stroke="rgb(255,255,255)" fill="rgb(255,255,255)" stroke-dasharray="none" stroke-opacity="1" fill-opacity="1"/>
            </g>
          </g>
          <defs>
            <clipPath id="layout::panel.7-5-7-5.1.clipPath">
              <rect x="8.22" y="36.59" width="416.11" height="416.11" fill="none" stroke="none"/>
            </clipPath>
          </defs>
          <g id="layout::panel.7-5-7-5.1" clip-path="url(#layout::panel.7-5-7-5.1.clipPath)" class="viewport">
            <g id="panel.7-5-7-5.1" class="forcedgrob gTableChild gTree grob gDesc">
              <g id="grill.gTree.2150.1" class="gTree grob gDesc">
                <g id="panel.background..rect.2146.1" class="rect grob gDesc">
                  <rect id="panel.background..rect.2146.1.1" x="8.22" y="36.59" width="416.11" height="416.11" transform="" stroke-width="1.07" stroke="none" fill="rgb(255,255,255)" stroke-dasharray="none" stroke-opacity="0" fill-opacity="1"/>
                </g>
              </g>
              <g id="bar.gTree.2139.1" class="gTree grob gDesc">
                <g id="geom_polygon.polygon.2135.1" class="polygon grob gDesc">
                  <polygon id="geom_polygon.polygon.2135.1.1" points="216.28,244.64 211.12,247.16 205.96,249.68 200.8,252.19 195.64,254.71 190.48,257.22 185.32,259.74 180.17,262.26 175.01,264.77 169.85,267.29 164.69,269.8 159.53,272.32 154.37,274.84 149.21,277.35 144.06,279.87 138.9,282.38 133.74,284.9 128.58,287.42 123.42,289.93 118.26,292.45 113.1,294.96 107.94,297.48 102.79,300 97.63,302.51 92.47,305.03 87.31,307.54 82.15,310.06 76.99,312.58 71.83,315.09 66.68,317.61 64.28,312.48 62.07,307.28 60.03,302 58.17,296.66 56.49,291.26 55,285.8 53.69,280.3 52.58,274.75 51.65,269.17 50.91,263.56 50.36,257.93 50.01,252.29 49.84,246.63 49.87,240.97 50.09,235.32 50.5,229.68 51.11,224.06 51.9,218.45 52.89,212.88 54.06,207.35 55.42,201.86 56.97,196.42 58.7,191.03 60.61,185.71 62.71,180.45 64.98,175.27 67.42,170.17 70.04,165.16 72.82,160.23 75.77,155.41 78.89,150.68 82.16,146.07 85.59,141.57 89.17,137.19 92.89,132.93 96.76,128.8 100.76,124.81 104.9,120.95 109.17,117.24 113.56,113.67 118.07,110.26 122.69,107 127.43,103.9 132.26,100.96 137.19,98.19 142.21,95.58 147.32,93.15 152.51,90.9 157.77,88.82 163.1,86.92 168.49,85.2 173.94,83.67 179.43,82.33 184.97,81.17 190.54,80.2 196.14,79.42 201.77,78.83 207.41,78.43 213.07,78.23 218.72,78.22 224.38,78.4 230.02,78.77 235.65,79.33 241.26,80.08 246.83,81.03 252.38,82.16 257.88,83.48 263.33,84.99 268.73,86.68 274.06,88.55 279.34,90.61 284.53,92.84 289.65,95.24 294.69,97.82 299.63,100.57 304.48,103.49 309.22,106.57 313.86,109.81 318.39,113.2 322.8,116.75 327.08,120.44 331.24,124.28 335.26,128.25 339.15,132.36 342.89,136.6 346.49,140.97 349.94,145.45 353.23,150.05 356.37,154.76 359.34,159.57 362.15,164.48 364.79,169.49 367.26,174.58 369.55,179.75 371.67,184.99 373.6,190.31 375.36,195.69 376.93,201.12 378.32,206.61 379.52,212.13 380.53,217.7 381.35,223.3 381.98,228.92 382.42,234.56 382.66,240.21 382.72,245.87 382.58,251.52 382.25,257.17 381.73,262.8 381.01,268.41 380.11,274 379.02,279.55 377.74,285.06 376.27,290.52 374.62,295.93 372.79,301.28 370.77,306.57 368.58,311.78 366.21,316.92 363.67,321.97 360.95,326.94 358.07,331.81 355.03,336.57 351.83,341.24 348.47,345.79 344.95,350.22 341.29,354.53 337.48,358.72 333.54,362.77 329.46,366.69 325.24,370.46 320.9,374.09 316.44,377.57 311.87,380.9 307.18,384.07 302.39,387.08 297.5,389.92 292.52,392.6 287.45,395.1 282.29,397.44 277.06,399.59 271.76,401.57 266.4,403.36 260.98,404.97 255.5,406.4 249.98,407.64 244.43,408.69 238.83,409.55 233.22,410.22 227.58,410.7 221.93,410.99 216.28,411.09 216.28,405.35 216.28,399.61 216.28,393.87 216.28,388.13 216.28,382.39 216.28,376.65 216.28,370.91 216.28,365.17 216.28,359.43 216.28,353.69 216.28,347.95 216.28,342.21 216.28,336.47 216.28,330.74 216.28,325 216.28,319.26 216.28,313.52 216.28,307.78 216.28,302.04 216.28,296.3 216.28,290.56 216.28,284.82 216.28,279.08 216.28,273.34 216.28,267.6 216.28,261.86 216.28,256.12 216.28,250.38 216.28,244.64 216.28,244.64" stroke="none" fill="rgb(0,191,196)" stroke-width="1.07" stroke-dasharray="none" stroke-opacity="0" fill-opacity="1"/>
                </g>
                <g id="geom_polygon.polygon.2137.1" class="polygon grob gDesc">
                  <polygon id="geom_polygon.polygon.2137.1.1" points="216.28,244.64 216.28,250.38 216.28,256.12 216.28,261.86 216.28,267.6 216.28,273.34 216.28,279.08 216.28,284.82 216.28,290.56 216.28,296.3 216.28,302.04 216.28,307.78 216.28,313.52 216.28,319.26 216.28,325 216.28,330.74 216.28,336.47 216.28,342.21 216.28,347.95 216.28,353.69 216.28,359.43 216.28,365.17 216.28,370.91 216.28,376.65 216.28,382.39 216.28,388.13 216.28,393.87 216.28,399.61 216.28,405.35 216.28,411.09 210.64,410.99 205.02,410.71 199.4,410.23 193.81,409.57 188.24,408.71 182.7,407.67 177.21,406.44 171.75,405.02 166.35,403.42 161.01,401.64 155.72,399.68 150.51,397.55 145.37,395.23 140.32,392.75 135.35,390.09 130.47,387.27 125.7,384.28 121.02,381.14 116.46,377.84 112.01,374.38 107.68,370.78 103.47,367.03 99.39,363.14 95.45,359.12 91.64,354.97 87.98,350.69 84.47,346.28 81.1,341.76 77.89,337.13 74.84,332.4 71.95,327.56 69.23,322.63 66.68,317.61 71.83,315.09 76.99,312.58 82.15,310.06 87.31,307.54 92.47,305.03 97.63,302.51 102.79,300 107.94,297.48 113.1,294.96 118.26,292.45 123.42,289.93 128.58,287.42 133.74,284.9 138.9,282.38 144.06,279.87 149.21,277.35 154.37,274.84 159.53,272.32 164.69,269.8 169.85,267.29 175.01,264.77 180.17,262.26 185.32,259.74 190.48,257.22 195.64,254.71 200.8,252.19 205.96,249.68 211.12,247.16 216.28,244.64 216.28,244.64" stroke="none" fill="rgb(248,118,109)" stroke-width="1.07" stroke-dasharray="none" stroke-opacity="0" fill-opacity="1"/>
                </g>
              </g>
              <g id="GRID.text.2140.1" class="text grob gDesc">
                <g id="GRID.text.2140.1.1" transform="translate(260.38, 174.07)" stroke-width="0.1">
                  <g id="GRID.text.2140.1.1.scale" transform="scale(1, -1)">
                    <text x="0" y="0" id="GRID.text.2140.1.1.text" text-anchor="middle" stroke="rgb(0,0,0)" font-size="11.04" font-family="Helvetica, Arial, FreeSans, Liberation Sans, Nimbus Sans L, sans-serif" fill="rgb(0,0,0)" stroke-opacity="1" fill-opacity="1" font-weight="normal" font-style="normal">
                      <tspan id="GRID.text.2140.1.1.tspan.1" dy="3.95" x="0">222</tspan>
                    </text>
                  </g>
                </g>
                <g id="GRID.text.2140.1.2" transform="translate(172.17, 315.22)" stroke-width="0.1">
                  <g id="GRID.text.2140.1.2.scale" transform="scale(1, -1)">
                    <text x="0" y="0" id="GRID.text.2140.1.2.text" text-anchor="middle" stroke="rgb(0,0,0)" font-size="11.04" font-family="Helvetica, Arial, FreeSans, Liberation Sans, Nimbus Sans L, sans-serif" fill="rgb(0,0,0)" stroke-opacity="1" fill-opacity="1" font-weight="normal" font-style="normal">
                      <tspan id="GRID.text.2140.1.2.tspan.1" dy="3.95" x="0">48</tspan>
                    </text>
                  </g>
                </g>
              </g>
              <g id="GRID.gTree.2141.1" class="gTree grob gDesc"/>
            </g>
          </g>
          <g id="layout::spacer.8-6-8-6.1" class="viewport"/>
          <g id="layout::spacer.8-4-8-4.1" class="viewport"/>
          <g id="layout::spacer.6-6-6-6.1" class="viewport"/>
          <g id="layout::spacer.6-4-6-4.1" class="viewport"/>
          <g id="layout::axis-t.6-5-6-5.1" class="viewport"/>
          <g id="layout::axis-l.7-4-7-4.1" class="viewport">
            <g id="layout::axis-l.7-4-7-4::GRID.VP.506.1" class="viewport">
              <g id="axis-l.7-4-7-4.1" class="forcedgrob gTableChild absoluteGrob gTree grob gDesc">
                <g id="layout::axis-l.7-4-7-4::GRID.VP.506::axis.1" class="viewport">
                  <g id="axis.1" class="forcedgrob gtable gTree grob gDesc">
                    <g id="layout::axis-l.7-4-7-4::GRID.VP.506::axis::axis.1-1-1-1.1" class="viewport"/>
                    <g id="layout::axis-l.7-4-7-4::GRID.VP.506::axis::axis.1-2-1-2.1" class="viewport"/>
                  </g>
                </g>
              </g>
            </g>
          </g>
          <g id="layout::axis-r.7-6-7-6.1" class="viewport"/>
          <g id="layout::axis-b.8-5-8-5.1" class="viewport">
            <g id="layout::axis-b.8-5-8-5::GRID.VP.505.1" class="viewport">
              <g id="axis-b.8-5-8-5.1" class="forcedgrob gTableChild absoluteGrob gTree grob gDesc">
                <g id="layout::axis-b.8-5-8-5::GRID.VP.505::axis.1" class="viewport">
                  <g id="axis.2" class="forcedgrob gtable gTree grob gDesc">
                    <g id="layout::axis-b.8-5-8-5::GRID.VP.505::axis::axis.1-1-1-1.1" class="viewport"/>
                    <g id="layout::axis-b.8-5-8-5::GRID.VP.505::axis::axis.2-1-2-1.1" class="viewport"/>
                  </g>
                </g>
              </g>
            </g>
          </g>
          <g id="layout::xlab-t.5-5-5-5.1" class="viewport"/>
          <g id="layout::xlab-b.9-5-9-5.1" class="viewport"/>
          <g id="layout::ylab-l.7-3-7-3.1" class="viewport"/>
          <g id="layout::ylab-r.7-7-7-7.1" class="viewport"/>
          <g id="layout::guide-box.7-9-7-9.1" class="viewport">
            <g id="layout::guide-box.7-9-7-9::GRID.VP.514.1" class="viewport">
              <g id="layout::guide-box.7-9-7-9::GRID.VP.514::guide-box.7-9-7-9.1" class="viewport">
                <g id="guide-box.7-9-7-9.1" class="forcedgrob gTableChild gtable gTree grob gDesc">
                  <g id="layout::guide-box.7-9-7-9::GRID.VP.514::guide-box.7-9-7-9::legend.box.background.2-4-4-2.1" class="viewport"/>
                  <g id="layout::guide-box.7-9-7-9::GRID.VP.514::guide-box.7-9-7-9::guides.3-3-3-3.1" class="viewport">
                    <g id="layout::guide-box.7-9-7-9::GRID.VP.514::guide-box.7-9-7-9::guides.3-3-3-3::GRID.VP.513.1" class="viewport">
                      <g id="layout::guide-box.7-9-7-9::GRID.VP.514::guide-box.7-9-7-9::guides.3-3-3-3::GRID.VP.513::guides.3-3-3-3.1" class="viewport">
                        <g id="guides.3-3-3-3.1" class="forcedgrob gTableChild gtable gTree grob gDesc">
                          <g id="layout::guide-box.7-9-7-9::GRID.VP.514::guide-box.7-9-7-9::guides.3-3-3-3::GRID.VP.513::guides.3-3-3-3::background.1-6-6-1.1" class="viewport">
                            <g id="background.1-6-6-1.1" class="forcedgrob gTableChild rect grob gDesc">
                              <rect id="background.1-6-6-1.1.1" x="435.29" y="219.14" width="63.23" height="51" transform="" stroke-width="1.07" stroke="none" fill="rgb(255,255,255)" stroke-dasharray="none" stroke-opacity="0" fill-opacity="1"/>
                            </g>
                          </g>
                          <g id="layout::guide-box.7-9-7-9::GRID.VP.514::guide-box.7-9-7-9::guides.3-3-3-3::GRID.VP.513::guides.3-3-3-3::title.2-5-2-2.1" class="viewport"/>
                          <g id="layout::guide-box.7-9-7-9::GRID.VP.514::guide-box.7-9-7-9::guides.3-3-3-3::GRID.VP.513::guides.3-3-3-3::key-3-1-bg.4-2-4-2.1" class="viewport"/>
                          <g id="layout::guide-box.7-9-7-9::GRID.VP.514::guide-box.7-9-7-9::guides.3-3-3-3::GRID.VP.513::guides.3-3-3-3::key-3-1-1.4-2-4-2.1" class="viewport">
                            <g id="key-3-1-1.4-2-4-2.1" class="forcedgrob gTableChild rect grob gDesc">
                              <rect id="key-3-1-1.4-2-4-2.1.1" x="441.48" y="242.61" width="15.86" height="15.86" transform="" stroke="none" fill="rgb(248,118,109)" stroke-dasharray="none" stroke-width="1.07" stroke-linejoin="miter" stroke-opacity="0" fill-opacity="1"/>
                            </g>
                          </g>
                          <g id="layout::guide-box.7-9-7-9::GRID.VP.514::guide-box.7-9-7-9::guides.3-3-3-3::GRID.VP.513::guides.3-3-3-3::key-4-1-bg.5-2-5-2.1" class="viewport"/>
                          <g id="layout::guide-box.7-9-7-9::GRID.VP.514::guide-box.7-9-7-9::guides.3-3-3-3::GRID.VP.513::guides.3-3-3-3::key-4-1-1.5-2-5-2.1" class="viewport">
                            <g id="key-4-1-1.5-2-5-2.1" class="forcedgrob gTableChild rect grob gDesc">
                              <rect id="key-4-1-1.5-2-5-2.1.1" x="441.48" y="225.33" width="15.86" height="15.86" transform="" stroke="none" fill="rgb(0,191,196)" stroke-dasharray="none" stroke-width="1.07" stroke-linejoin="miter" stroke-opacity="0" fill-opacity="1"/>
                            </g>
                          </g>
                          <g id="layout::guide-box.7-9-7-9::GRID.VP.514::guide-box.7-9-7-9::guides.3-3-3-3::GRID.VP.513::guides.3-3-3-3::label-3-3.4-4-4-4.1" class="viewport">
                            <g id="layout::guide-box.7-9-7-9::GRID.VP.514::guide-box.7-9-7-9::guides.3-3-3-3::GRID.VP.513::guides.3-3-3-3::label-3-3.4-4-4-4::GRID.VP.511.1" class="viewport">
                              <g id="label-3-3.4-4-4-4.1" class="forcedgrob gTableChild gTree grob gDesc">
                                <g id="layout::guide-box.7-9-7-9::GRID.VP.514::guide-box.7-9-7-9::guides.3-3-3-3::GRID.VP.513::guides.3-3-3-3::label-3-3.4-4-4-4::GRID.VP.511::GRID.VP.507.1" font-size="8.8" stroke="rgb(0,0,0)" font-family="Helvetica, Arial, FreeSans, Liberation Sans, Nimbus Sans L, sans-serif" stroke-opacity="1" font-weight="normal" font-style="normal" class="viewport">
                                  <g id="layout::guide-box.7-9-7-9::GRID.VP.514::guide-box.7-9-7-9::guides.3-3-3-3::GRID.VP.513::guides.3-3-3-3::label-3-3.4-4-4-4::GRID.VP.511::GRID.VP.507::GRID.VP.508.1" class="viewport">
                                    <g id="guide.label.titleGrob.2164.1" class="titleGrob gTree grob gDesc">
                                      <g id="GRID.text.2162.1" class="text grob gDesc">
                                        <g id="GRID.text.2162.1.1" transform="translate(463.53, 250.54)" stroke-width="0.1">
                                          <g id="GRID.text.2162.1.1.scale" transform="scale(1, -1)">
                                            <text x="0" y="0" id="GRID.text.2162.1.1.text" text-anchor="start" font-size="8.8" stroke="rgb(0,0,0)" font-family="Helvetica, Arial, FreeSans, Liberation Sans, Nimbus Sans L, sans-serif" fill="rgb(0,0,0)" stroke-opacity="1" fill-opacity="1" font-weight="normal" font-style="normal">
                                              <tspan id="GRID.text.2162.1.1.tspan.1" dy="3.23" x="0">N (48)</tspan>
                                            </text>
                                          </g>
                                        </g>
                                      </g>
                                    </g>
                                  </g>
                                </g>
                              </g>
                            </g>
                          </g>
                          <g id="layout::guide-box.7-9-7-9::GRID.VP.514::guide-box.7-9-7-9::guides.3-3-3-3::GRID.VP.513::guides.3-3-3-3::label-4-3.5-4-5-4.1" class="viewport">
                            <g id="layout::guide-box.7-9-7-9::GRID.VP.514::guide-box.7-9-7-9::guides.3-3-3-3::GRID.VP.513::guides.3-3-3-3::label-4-3.5-4-5-4::GRID.VP.512.1" class="viewport">
                              <g id="label-4-3.5-4-5-4.1" class="forcedgrob gTableChild gTree grob gDesc">
                                <g id="layout::guide-box.7-9-7-9::GRID.VP.514::guide-box.7-9-7-9::guides.3-3-3-3::GRID.VP.513::guides.3-3-3-3::label-4-3.5-4-5-4::GRID.VP.512::GRID.VP.509.1" font-size="8.8" stroke="rgb(0,0,0)" font-family="Helvetica, Arial, FreeSans, Liberation Sans, Nimbus Sans L, sans-serif" stroke-opacity="1" font-weight="normal" font-style="normal" class="viewport">
                                  <g id="layout::guide-box.7-9-7-9::GRID.VP.514::guide-box.7-9-7-9::guides.3-3-3-3::GRID.VP.513::guides.3-3-3-3::label-4-3.5-4-5-4::GRID.VP.512::GRID.VP.509::GRID.VP.510.1" class="viewport">
                                    <g id="guide.label.titleGrob.2167.1" class="titleGrob gTree grob gDesc">
                                      <g id="GRID.text.2165.1" class="text grob gDesc">
                                        <g id="GRID.text.2165.1.1" transform="translate(463.53, 233.26)" stroke-width="0.1">
                                          <g id="GRID.text.2165.1.1.scale" transform="scale(1, -1)">
                                            <text x="0" y="0" id="GRID.text.2165.1.1.text" text-anchor="start" font-size="8.8" stroke="rgb(0,0,0)" font-family="Helvetica, Arial, FreeSans, Liberation Sans, Nimbus Sans L, sans-serif" fill="rgb(0,0,0)" stroke-opacity="1" fill-opacity="1" font-weight="normal" font-style="normal">
                                              <tspan id="GRID.text.2165.1.1.tspan.1" dy="3.23" x="0">S (222)</tspan>
                                            </text>
                                          </g>
                                        </g>
                                      </g>
                                    </g>
                                  </g>
                                </g>
                              </g>
                            </g>
                          </g>
                        </g>
                      </g>
                    </g>
                  </g>
                </g>
              </g>
            </g>
          </g>
          <g id="layout::subtitle.4-5-4-5.1" class="viewport"/>
          <g id="layout::title.3-5-3-5.1" class="viewport">
            <g id="layout::title.3-5-3-5::GRID.VP.515.1" font-size="13.2" stroke="rgb(102,102,102)" font-family="Helvetica, Arial, FreeSans, Liberation Sans, Nimbus Sans L, sans-serif" stroke-opacity="1" font-weight="normal" font-style="normal" class="viewport">
              <g id="layout::title.3-5-3-5::GRID.VP.515::GRID.VP.516.1" class="viewport">
                <g id="title.3-5-3-5.1" class="forcedgrob gTableChild titleGrob gTree grob gDesc">
                  <g id="GRID.text.2176.1" class="text grob gDesc">
                    <g id="GRID.text.2176.1.1" transform="translate(216.28, 470.15)" stroke-width="0.1">
                      <g id="GRID.text.2176.1.1.scale" transform="scale(1, -1)">
                        <text x="0" y="0" id="GRID.text.2176.1.1.text" text-anchor="middle" font-size="13.2" stroke="rgb(102,102,102)" font-family="Helvetica, Arial, FreeSans, Liberation Sans, Nimbus Sans L, sans-serif" fill="rgb(102,102,102)" stroke-opacity="1" fill-opacity="1" font-weight="normal" font-style="normal">
                          <tspan id="GRID.text.2176.1.1.tspan.1" dy="9.33" x="0">anagrafica espertoliceo</tspan>
                        </text>
                      </g>
                    </g>
                  </g>
                </g>
              </g>
            </g>
          </g>
          <g id="layout::caption.10-5-10-5.1" class="viewport"/>
          <g id="layout::tag.2-2-2-2.1" class="viewport"/>
        </g>
      </g>
    </g>
  </g>
</svg>