<?xml version="1.0" encoding="UTF-8"?>
<svg xmlns="http://www.w3.org/2000/svg" xmlns:xlink="http://www.w3.org/1999/xlink" width="504px" height="504px" viewBox="0 0 504 504" version="1.1">
  <metadata xmlns:gridsvg="http://www.stat.auckland.ac.nz/~paul/R/gridSVG/">
    <gridsvg:generator name="gridSVG" version="1.6-0" time="2019-01-07 19:39:24"/>
    <gridsvg:argument name="name" value="./latest_informaggio_csv/risultati/svg/anagrafica-totali-risoluzioneproblemi.svg"/>
    <gridsvg:argument name="exportCoords" value="none"/>
    <gridsvg:argument name="exportMappings" value="none"/>
    <gridsvg:argument name="exportJS" value="none"/>
    <gridsvg:argument name="res" value="72"/>
    <gridsvg:argument name="prefix" value=""/>
    <gridsvg:argument name="addClasses" value="TRUE"/>
    <gridsvg:argument name="indent" value="TRUE"/>
    <gridsvg:argument name="htmlWrapper" value="FALSE"/>
    <gridsvg:argument name="usePaths" value="vpPaths"/>
    <gridsvg:argument name="uniqueNames" value="TRUE"/>
    <gridsvg:separator name="id.sep" value="."/>
    <gridsvg:separator name="gPath.sep" value="::"/>
    <gridsvg:separator name="vpPath.sep" value="::"/>
  </metadata>
  <g transform="translate(0, 504) scale(1, -1)">
    <g id="gridSVG" fill="none" stroke="rgb(0,0,0)" stroke-dasharray="none" stroke-width="0.75" font-size="12" font-family="Helvetica, Arial, FreeSans, Liberation Sans, Nimbus Sans L, sans-serif" opacity="1" stroke-linecap="round" stroke-linejoin="round" stroke-miterlimit="10" stroke-opacity="1" fill-opacity="0" font-weight="normal" font-style="normal">
      <g id="layout.1" class="viewport">
        <g id="layout.2" class="forcedgrob gtable gTree grob gDesc">
          <defs>
            <clipPath id="layout::background.1-11-12-1.1.clipPath">
              <rect x="0" y="31.67" width="504" height="440.66" fill="none" stroke="none"/>
            </clipPath>
          </defs>
          <g id="layout::background.1-11-12-1.1" clip-path="url(#layout::background.1-11-12-1.1.clipPath)" class="viewport">
            <g id="background.1-11-12-1.1" class="forcedgrob gTableChild rect grob gDesc">
              <rect id="background.1-11-12-1.1.1" x="0" y="31.67" width="504" height="440.66" transform="" stroke-width="1.07" stroke="rgb(255,255,255)" fill="rgb(255,255,255)" stroke-dasharray="none" stroke-opacity="1" fill-opacity="1"/>
            </g>
          </g>
          <defs>
            <clipPath id="layout::panel.7-5-7-5.1.clipPath">
              <rect x="8.22" y="39.89" width="409.51" height="409.51" fill="none" stroke="none"/>
            </clipPath>
          </defs>
          <g id="layout::panel.7-5-7-5.1" clip-path="url(#layout::panel.7-5-7-5.1.clipPath)" class="viewport">
            <g id="panel.7-5-7-5.1" class="forcedgrob gTableChild gTree grob gDesc">
              <g id="grill.gTree.3295.1" class="gTree grob gDesc">
                <g id="panel.background..rect.3291.1" class="rect grob gDesc">
                  <rect id="panel.background..rect.3291.1.1" x="8.22" y="39.89" width="409.51" height="409.51" transform="" stroke-width="1.07" stroke="none" fill="rgb(255,255,255)" stroke-dasharray="none" stroke-opacity="0" fill-opacity="1"/>
                </g>
              </g>
              <g id="bar.gTree.3284.1" class="gTree grob gDesc">
                <g id="geom_polygon.polygon.3274.1" class="polygon grob gDesc">
                  <polygon id="geom_polygon.polygon.3274.1.1" points="212.97,244.64 211.9,239.1 210.82,233.55 209.74,228.01 208.66,222.46 207.59,216.92 206.51,211.37 205.43,205.83 204.36,200.29 203.28,194.74 202.2,189.2 201.13,183.65 200.05,178.11 198.97,172.56 197.89,167.02 196.82,161.47 195.74,155.93 194.66,150.38 193.59,144.84 192.51,139.29 191.43,133.75 190.36,128.2 189.28,122.66 188.2,117.11 187.12,111.57 186.05,106.02 184.97,100.48 183.89,94.94 182.82,89.39 181.74,83.85 187.23,82.88 192.74,82.09 198.28,81.5 203.84,81.1 209.41,80.88 214.98,80.85 220.55,81.02 226.11,81.37 231.65,81.91 237.17,82.64 242.67,83.55 248.13,84.66 253.55,85.95 258.93,87.42 264.25,89.07 269.51,90.91 274.7,92.92 279.83,95.1 284.87,97.46 289.84,99.99 294.71,102.69 299.49,105.55 304.17,108.58 308.75,111.76 313.21,115.09 317.56,118.58 321.79,122.2 325.89,125.98 329.86,129.88 333.69,133.93 337.39,138.1 340.94,142.39 344.34,146.8 347.59,151.32 350.69,155.96 353.63,160.69 356.4,165.52 359.01,170.45 361.45,175.46 363.71,180.54 365.81,185.71 367.72,190.94 369.46,196.23 371.01,201.58 372.39,206.98 373.58,212.43 374.58,217.91 375.39,223.42 376.02,228.95 376.46,234.51 376.71,240.07 376.77,245.65 376.64,251.22 376.33,256.78 375.82,262.33 375.12,267.85 374.24,273.35 373.17,278.82 371.91,284.25 370.48,289.63 368.85,294.96 367.05,300.24 365.07,305.44 362.92,310.58 360.59,315.64 358.09,320.62 355.42,325.51 352.59,330.31 349.59,335.01 346.44,339.6 343.14,344.09 339.68,348.46 336.07,352.7 332.33,356.83 328.44,360.82 324.43,364.68 320.28,368.4 316.01,371.98 311.62,375.41 307.11,378.69 302.5,381.81 297.78,384.78 292.97,387.58 288.06,390.22 283.07,392.69 277.99,394.99 272.84,397.11 267.62,399.06 262.34,400.83 257,402.42 251.61,403.82 246.17,405.05 240.7,406.08 235.19,406.93 229.66,407.59 224.11,408.07 218.54,408.35 212.97,408.45 212.97,402.8 212.97,397.15 212.97,391.5 212.97,385.85 212.97,380.2 212.97,374.56 212.97,368.91 212.97,363.26 212.97,357.61 212.97,351.96 212.97,346.31 212.97,340.67 212.97,335.02 212.97,329.37 212.97,323.72 212.97,318.07 212.97,312.42 212.97,306.78 212.97,301.13 212.97,295.48 212.97,289.83 212.97,284.18 212.97,278.53 212.97,272.89 212.97,267.24 212.97,261.59 212.97,255.94 212.97,250.29 212.97,244.64 212.97,244.64" stroke="none" fill="rgb(231,107,243)" stroke-width="1.07" stroke-dasharray="none" stroke-opacity="0" fill-opacity="1"/>
                </g>
                <g id="geom_polygon.polygon.3276.1" class="polygon grob gDesc">
                  <polygon id="geom_polygon.polygon.3276.1.1" points="212.97,244.64 209.25,248.89 205.53,253.14 201.81,257.39 198.08,261.64 194.36,265.89 190.64,270.13 186.92,274.38 183.2,278.63 179.47,282.88 175.75,287.13 172.03,291.38 168.31,295.63 164.59,299.87 160.86,304.12 157.14,308.37 153.42,312.62 149.7,316.87 145.97,321.12 142.25,325.37 138.53,329.61 134.81,333.86 131.09,338.11 127.36,342.36 123.64,346.61 119.92,350.86 116.2,355.1 112.48,359.35 108.75,363.6 105.03,367.85 100.87,364.08 96.84,360.16 92.94,356.11 89.19,351.92 85.58,347.61 82.12,343.18 78.82,338.64 75.68,333.98 72.69,329.22 69.87,324.35 67.22,319.4 64.74,314.35 62.44,309.23 60.31,304.03 58.37,298.75 56.6,293.42 55.02,288.03 53.62,282.58 52.42,277.09 51.4,271.56 50.57,266.01 49.93,260.42 49.49,254.82 49.23,249.21 49.17,243.59 49.31,237.97 49.63,232.36 50.15,226.76 50.86,221.18 51.76,215.64 52.85,210.12 54.13,204.65 55.59,199.23 57.24,193.85 59.08,188.54 61.09,183.29 63.29,178.12 65.66,173.02 68.2,168.01 70.91,163.09 73.8,158.27 76.84,153.54 80.05,148.93 83.41,144.42 86.92,140.04 90.59,135.77 94.39,131.64 98.34,127.64 102.42,123.77 106.63,120.05 110.97,116.48 115.43,113.05 120,109.78 124.68,106.67 129.46,103.73 134.35,100.94 139.32,98.33 144.38,95.89 149.53,93.63 154.75,91.54 160.03,89.63 165.38,87.91 170.79,86.37 176.24,85.01 181.74,83.85 182.82,89.39 183.89,94.94 184.97,100.48 186.05,106.02 187.12,111.57 188.2,117.11 189.28,122.66 190.36,128.2 191.43,133.75 192.51,139.29 193.59,144.84 194.66,150.38 195.74,155.93 196.82,161.47 197.89,167.02 198.97,172.56 200.05,178.11 201.13,183.65 202.2,189.2 203.28,194.74 204.36,200.29 205.43,205.83 206.51,211.37 207.59,216.92 208.66,222.46 209.74,228.01 210.82,233.55 211.9,239.1 212.97,244.64 212.97,244.64" stroke="none" fill="rgb(0,176,246)" stroke-width="1.07" stroke-dasharray="none" stroke-opacity="0" fill-opacity="1"/>
                </g>
                <g id="geom_polygon.polygon.3278.1" class="polygon grob gDesc">
                  <polygon id="geom_polygon.polygon.3278.1.1" points="212.97,244.64 211.5,250.1 210.03,255.55 208.55,261 207.08,266.46 205.61,271.91 204.14,277.36 202.66,282.81 201.19,288.27 199.72,293.72 198.24,299.17 196.77,304.63 195.3,310.08 193.83,315.53 192.35,320.98 190.88,326.44 189.41,331.89 187.94,337.34 186.46,342.8 184.99,348.25 183.52,353.7 182.04,359.16 180.57,364.61 179.1,370.06 177.63,375.51 176.15,380.97 174.68,386.42 173.21,391.87 171.73,397.33 170.26,402.78 164.75,401.19 159.29,399.4 153.9,397.42 148.58,395.26 143.34,392.91 138.19,390.38 133.13,387.67 128.17,384.78 123.31,381.73 118.56,378.5 113.93,375.11 109.42,371.56 105.03,367.85 108.75,363.6 112.48,359.35 116.2,355.1 119.92,350.86 123.64,346.61 127.36,342.36 131.09,338.11 134.81,333.86 138.53,329.61 142.25,325.37 145.97,321.12 149.7,316.87 153.42,312.62 157.14,308.37 160.86,304.12 164.59,299.87 168.31,295.63 172.03,291.38 175.75,287.13 179.47,282.88 183.2,278.63 186.92,274.38 190.64,270.13 194.36,265.89 198.08,261.64 201.81,257.39 205.53,253.14 209.25,248.89 212.97,244.64 212.97,244.64" stroke="none" fill="rgb(0,191,125)" stroke-width="1.07" stroke-dasharray="none" stroke-opacity="0" fill-opacity="1"/>
                </g>
                <g id="geom_polygon.polygon.3280.1" class="polygon grob gDesc">
                  <polygon id="geom_polygon.polygon.3280.1.1" points="212.97,244.64 212.84,250.29 212.7,255.94 212.57,261.58 212.43,267.23 212.3,272.88 212.16,278.52 212.02,284.17 211.89,289.82 211.75,295.46 211.62,301.11 211.48,306.76 211.35,312.4 211.21,318.05 211.08,323.7 210.94,329.34 210.81,334.99 210.67,340.64 210.53,346.28 210.4,351.93 210.26,357.58 210.13,363.22 209.99,368.87 209.86,374.52 209.72,380.17 209.59,385.81 209.45,391.46 209.32,397.11 209.18,402.75 209.04,408.4 203.44,408.17 197.84,407.75 192.26,407.13 186.71,406.33 181.19,405.33 175.7,404.15 170.26,402.78 171.73,397.33 173.21,391.87 174.68,386.42 176.15,380.97 177.63,375.51 179.1,370.06 180.57,364.61 182.04,359.16 183.52,353.7 184.99,348.25 186.46,342.8 187.94,337.34 189.41,331.89 190.88,326.44 192.35,320.98 193.83,315.53 195.3,310.08 196.77,304.63 198.24,299.17 199.72,293.72 201.19,288.27 202.66,282.81 204.14,277.36 205.61,271.91 207.08,266.46 208.55,261 210.03,255.55 211.5,250.1 212.97,244.64 212.97,244.64" stroke="none" fill="rgb(163,165,0)" stroke-width="1.07" stroke-dasharray="none" stroke-opacity="0" fill-opacity="1"/>
                </g>
                <g id="geom_polygon.polygon.3282.1" class="polygon grob gDesc">
                  <polygon id="geom_polygon.polygon.3282.1.1" points="212.97,244.64 212.97,250.29 212.97,255.94 212.97,261.59 212.97,267.24 212.97,272.89 212.97,278.53 212.97,284.18 212.97,289.83 212.97,295.48 212.97,301.13 212.97,306.78 212.97,312.42 212.97,318.07 212.97,323.72 212.97,329.37 212.97,335.02 212.97,340.67 212.97,346.31 212.97,351.96 212.97,357.61 212.97,363.26 212.97,368.91 212.97,374.56 212.97,380.2 212.97,385.85 212.97,391.5 212.97,397.15 212.97,402.8 212.97,408.45 209.04,408.4 209.18,402.75 209.32,397.11 209.45,391.46 209.59,385.81 209.72,380.17 209.86,374.52 209.99,368.87 210.13,363.22 210.26,357.58 210.4,351.93 210.53,346.28 210.67,340.64 210.81,334.99 210.94,329.34 211.08,323.7 211.21,318.05 211.35,312.4 211.48,306.76 211.62,301.11 211.75,295.46 211.89,289.82 212.02,284.17 212.16,278.52 212.3,272.88 212.43,267.23 212.57,261.58 212.7,255.94 212.84,250.29 212.97,244.64 212.97,244.64" stroke="none" fill="rgb(248,118,109)" stroke-width="1.07" stroke-dasharray="none" stroke-opacity="0" fill-opacity="1"/>
                </g>
              </g>
              <g id="GRID.text.3285.1" class="text grob gDesc">
                <g id="GRID.text.3285.1.1" transform="translate(294.5, 236.8)" stroke-width="0.1">
                  <g id="GRID.text.3285.1.1.scale" transform="scale(1, -1)">
                    <text x="0" y="0" id="GRID.text.3285.1.1.text" text-anchor="middle" stroke="rgb(0,0,0)" font-size="11.04" font-family="Helvetica, Arial, FreeSans, Liberation Sans, Nimbus Sans L, sans-serif" fill="rgb(0,0,0)" stroke-opacity="1" fill-opacity="1" font-weight="normal" font-style="normal">
                      <tspan id="GRID.text.3285.1.1.tspan.1" dy="3.95" x="0">139</tspan>
                    </text>
                  </g>
                </g>
                <g id="GRID.text.3285.1.2" transform="translate(133.9, 223.29)" stroke-width="0.1">
                  <g id="GRID.text.3285.1.2.scale" transform="scale(1, -1)">
                    <text x="0" y="0" id="GRID.text.3285.1.2.text" text-anchor="middle" stroke="rgb(0,0,0)" font-size="11.04" font-family="Helvetica, Arial, FreeSans, Liberation Sans, Nimbus Sans L, sans-serif" fill="rgb(0,0,0)" stroke-opacity="1" fill-opacity="1" font-weight="normal" font-style="normal">
                      <tspan id="GRID.text.3285.1.2.tspan.1" dy="3.95" x="0">93</tspan>
                    </text>
                  </g>
                </g>
                <g id="GRID.text.3285.1.3" transform="translate(174.31, 316.84)" stroke-width="0.1">
                  <g id="GRID.text.3285.1.3.scale" transform="scale(1, -1)">
                    <text x="0" y="0" id="GRID.text.3285.1.3.text" text-anchor="middle" stroke="rgb(0,0,0)" font-size="11.04" font-family="Helvetica, Arial, FreeSans, Liberation Sans, Nimbus Sans L, sans-serif" fill="rgb(0,0,0)" stroke-opacity="1" fill-opacity="1" font-weight="normal" font-style="normal">
                      <tspan id="GRID.text.3285.1.3.tspan.1" dy="3.95" x="0">19</tspan>
                    </text>
                  </g>
                </g>
                <g id="GRID.text.3285.1.4" transform="translate(201.23, 325.7)" stroke-width="0.1">
                  <g id="GRID.text.3285.1.4.scale" transform="scale(1, -1)">
                    <text x="0" y="0" id="GRID.text.3285.1.4.text" text-anchor="middle" stroke="rgb(0,0,0)" font-size="11.04" font-family="Helvetica, Arial, FreeSans, Liberation Sans, Nimbus Sans L, sans-serif" fill="rgb(0,0,0)" stroke-opacity="1" fill-opacity="1" font-weight="normal" font-style="normal">
                      <tspan id="GRID.text.3285.1.4.tspan.1" dy="3.95" x="0">10</tspan>
                    </text>
                  </g>
                </g>
                <g id="GRID.text.3285.1.5" transform="translate(211.99, 326.54)" stroke-width="0.1">
                  <g id="GRID.text.3285.1.5.scale" transform="scale(1, -1)">
                    <text x="0" y="0" id="GRID.text.3285.1.5.text" text-anchor="middle" stroke="rgb(0,0,0)" font-size="11.04" font-family="Helvetica, Arial, FreeSans, Liberation Sans, Nimbus Sans L, sans-serif" fill="rgb(0,0,0)" stroke-opacity="1" fill-opacity="1" font-weight="normal" font-style="normal">
                      <tspan id="GRID.text.3285.1.5.tspan.1" dy="3.95" x="0">1</tspan>
                    </text>
                  </g>
                </g>
              </g>
              <g id="GRID.gTree.3286.1" class="gTree grob gDesc"/>
            </g>
          </g>
          <g id="layout::spacer.8-6-8-6.1" class="viewport"/>
          <g id="layout::spacer.8-4-8-4.1" class="viewport"/>
          <g id="layout::spacer.6-6-6-6.1" class="viewport"/>
          <g id="layout::spacer.6-4-6-4.1" class="viewport"/>
          <g id="layout::axis-t.6-5-6-5.1" class="viewport"/>
          <g id="layout::axis-l.7-4-7-4.1" class="viewport">
            <g id="layout::axis-l.7-4-7-4::GRID.VP.788.1" class="viewport">
              <g id="axis-l.7-4-7-4.1" class="forcedgrob gTableChild absoluteGrob gTree grob gDesc">
                <g id="layout::axis-l.7-4-7-4::GRID.VP.788::axis.1" class="viewport">
                  <g id="axis.1" class="forcedgrob gtable gTree grob gDesc">
                    <g id="layout::axis-l.7-4-7-4::GRID.VP.788::axis::axis.1-1-1-1.1" class="viewport"/>
                    <g id="layout::axis-l.7-4-7-4::GRID.VP.788::axis::axis.1-2-1-2.1" class="viewport"/>
                  </g>
                </g>
              </g>
            </g>
          </g>
          <g id="layout::axis-r.7-6-7-6.1" class="viewport"/>
          <g id="layout::axis-b.8-5-8-5.1" class="viewport">
            <g id="layout::axis-b.8-5-8-5::GRID.VP.787.1" class="viewport">
              <g id="axis-b.8-5-8-5.1" class="forcedgrob gTableChild absoluteGrob gTree grob gDesc">
                <g id="layout::axis-b.8-5-8-5::GRID.VP.787::axis.1" class="viewport">
                  <g id="axis.2" class="forcedgrob gtable gTree grob gDesc">
                    <g id="layout::axis-b.8-5-8-5::GRID.VP.787::axis::axis.1-1-1-1.1" class="viewport"/>
                    <g id="layout::axis-b.8-5-8-5::GRID.VP.787::axis::axis.2-1-2-1.1" class="viewport"/>
                  </g>
                </g>
              </g>
            </g>
          </g>
          <g id="layout::xlab-t.5-5-5-5.1" class="viewport"/>
          <g id="layout::xlab-b.9-5-9-5.1" class="viewport"/>
          <g id="layout::ylab-l.7-3-7-3.1" class="viewport"/>
          <g id="layout::ylab-r.7-7-7-7.1" class="viewport"/>
          <g id="layout::guide-box.7-9-7-9.1" class="viewport">
            <g id="layout::guide-box.7-9-7-9::GRID.VP.805.1" class="viewport">
              <g id="layout::guide-box.7-9-7-9::GRID.VP.805::guide-box.7-9-7-9.1" class="viewport">
                <g id="guide-box.7-9-7-9.1" class="forcedgrob gTableChild gtable gTree grob gDesc">
                  <g id="layout::guide-box.7-9-7-9::GRID.VP.805::guide-box.7-9-7-9::legend.box.background.2-4-4-2.1" class="viewport"/>
                  <g id="layout::guide-box.7-9-7-9::GRID.VP.805::guide-box.7-9-7-9::guides.3-3-3-3.1" class="viewport">
                    <g id="layout::guide-box.7-9-7-9::GRID.VP.805::guide-box.7-9-7-9::guides.3-3-3-3::GRID.VP.804.1" class="viewport">
                      <g id="layout::guide-box.7-9-7-9::GRID.VP.805::guide-box.7-9-7-9::guides.3-3-3-3::GRID.VP.804::guides.3-3-3-3.1" class="viewport">
                        <g id="guides.3-3-3-3.1" class="forcedgrob gTableChild gtable gTree grob gDesc">
                          <g id="layout::guide-box.7-9-7-9::GRID.VP.805::guide-box.7-9-7-9::guides.3-3-3-3::GRID.VP.804::guides.3-3-3-3::background.1-6-9-1.1" class="viewport">
                            <g id="background.1-6-9-1.1" class="forcedgrob gTableChild rect grob gDesc">
                              <rect id="background.1-6-9-1.1.1" x="428.69" y="193.22" width="69.84" height="102.84" transform="" stroke-width="1.07" stroke="none" fill="rgb(255,255,255)" stroke-dasharray="none" stroke-opacity="0" fill-opacity="1"/>
                            </g>
                          </g>
                          <g id="layout::guide-box.7-9-7-9::GRID.VP.805::guide-box.7-9-7-9::guides.3-3-3-3::GRID.VP.804::guides.3-3-3-3::title.2-5-2-2.1" class="viewport"/>
                          <g id="layout::guide-box.7-9-7-9::GRID.VP.805::guide-box.7-9-7-9::guides.3-3-3-3::GRID.VP.804::guides.3-3-3-3::key-3-1-bg.4-2-4-2.1" class="viewport"/>
                          <g id="layout::guide-box.7-9-7-9::GRID.VP.805::guide-box.7-9-7-9::guides.3-3-3-3::GRID.VP.804::guides.3-3-3-3::key-3-1-1.4-2-4-2.1" class="viewport">
                            <g id="key-3-1-1.4-2-4-2.1" class="forcedgrob gTableChild rect grob gDesc">
                              <rect id="key-3-1-1.4-2-4-2.1.1" x="434.87" y="268.53" width="15.86" height="15.86" transform="" stroke="none" fill="rgb(248,118,109)" stroke-dasharray="none" stroke-width="1.07" stroke-linejoin="miter" stroke-opacity="0" fill-opacity="1"/>
                            </g>
                          </g>
                          <g id="layout::guide-box.7-9-7-9::GRID.VP.805::guide-box.7-9-7-9::guides.3-3-3-3::GRID.VP.804::guides.3-3-3-3::key-4-1-bg.5-2-5-2.1" class="viewport"/>
                          <g id="layout::guide-box.7-9-7-9::GRID.VP.805::guide-box.7-9-7-9::guides.3-3-3-3::GRID.VP.804::guides.3-3-3-3::key-4-1-1.5-2-5-2.1" class="viewport">
                            <g id="key-4-1-1.5-2-5-2.1" class="forcedgrob gTableChild rect grob gDesc">
                              <rect id="key-4-1-1.5-2-5-2.1.1" x="434.87" y="251.25" width="15.86" height="15.86" transform="" stroke="none" fill="rgb(163,165,0)" stroke-dasharray="none" stroke-width="1.07" stroke-linejoin="miter" stroke-opacity="0" fill-opacity="1"/>
                            </g>
                          </g>
                          <g id="layout::guide-box.7-9-7-9::GRID.VP.805::guide-box.7-9-7-9::guides.3-3-3-3::GRID.VP.804::guides.3-3-3-3::key-5-1-bg.6-2-6-2.1" class="viewport"/>
                          <g id="layout::guide-box.7-9-7-9::GRID.VP.805::guide-box.7-9-7-9::guides.3-3-3-3::GRID.VP.804::guides.3-3-3-3::key-5-1-1.6-2-6-2.1" class="viewport">
                            <g id="key-5-1-1.6-2-6-2.1" class="forcedgrob gTableChild rect grob gDesc">
                              <rect id="key-5-1-1.6-2-6-2.1.1" x="434.87" y="233.97" width="15.86" height="15.86" transform="" stroke="none" fill="rgb(0,191,125)" stroke-dasharray="none" stroke-width="1.07" stroke-linejoin="miter" stroke-opacity="0" fill-opacity="1"/>
                            </g>
                          </g>
                          <g id="layout::guide-box.7-9-7-9::GRID.VP.805::guide-box.7-9-7-9::guides.3-3-3-3::GRID.VP.804::guides.3-3-3-3::key-6-1-bg.7-2-7-2.1" class="viewport"/>
                          <g id="layout::guide-box.7-9-7-9::GRID.VP.805::guide-box.7-9-7-9::guides.3-3-3-3::GRID.VP.804::guides.3-3-3-3::key-6-1-1.7-2-7-2.1" class="viewport">
                            <g id="key-6-1-1.7-2-7-2.1" class="forcedgrob gTableChild rect grob gDesc">
                              <rect id="key-6-1-1.7-2-7-2.1.1" x="434.87" y="216.69" width="15.86" height="15.86" transform="" stroke="none" fill="rgb(0,176,246)" stroke-dasharray="none" stroke-width="1.07" stroke-linejoin="miter" stroke-opacity="0" fill-opacity="1"/>
                            </g>
                          </g>
                          <g id="layout::guide-box.7-9-7-9::GRID.VP.805::guide-box.7-9-7-9::guides.3-3-3-3::GRID.VP.804::guides.3-3-3-3::key-7-1-bg.8-2-8-2.1" class="viewport"/>
                          <g id="layout::guide-box.7-9-7-9::GRID.VP.805::guide-box.7-9-7-9::guides.3-3-3-3::GRID.VP.804::guides.3-3-3-3::key-7-1-1.8-2-8-2.1" class="viewport">
                            <g id="key-7-1-1.8-2-8-2.1" class="forcedgrob gTableChild rect grob gDesc">
                              <rect id="key-7-1-1.8-2-8-2.1.1" x="434.87" y="199.41" width="15.86" height="15.86" transform="" stroke="none" fill="rgb(231,107,243)" stroke-dasharray="none" stroke-width="1.07" stroke-linejoin="miter" stroke-opacity="0" fill-opacity="1"/>
                            </g>
                          </g>
                          <g id="layout::guide-box.7-9-7-9::GRID.VP.805::guide-box.7-9-7-9::guides.3-3-3-3::GRID.VP.804::guides.3-3-3-3::label-3-3.4-4-4-4.1" class="viewport">
                            <g id="layout::guide-box.7-9-7-9::GRID.VP.805::guide-box.7-9-7-9::guides.3-3-3-3::GRID.VP.804::guides.3-3-3-3::label-3-3.4-4-4-4::GRID.VP.799.1" class="viewport">
                              <g id="label-3-3.4-4-4-4.1" class="forcedgrob gTableChild gTree grob gDesc">
                                <g id="layout::guide-box.7-9-7-9::GRID.VP.805::guide-box.7-9-7-9::guides.3-3-3-3::GRID.VP.804::guides.3-3-3-3::label-3-3.4-4-4-4::GRID.VP.799::GRID.VP.789.1" font-size="8.8" stroke="rgb(0,0,0)" font-family="Helvetica, Arial, FreeSans, Liberation Sans, Nimbus Sans L, sans-serif" stroke-opacity="1" font-weight="normal" font-style="normal" class="viewport">
                                  <g id="layout::guide-box.7-9-7-9::GRID.VP.805::guide-box.7-9-7-9::guides.3-3-3-3::GRID.VP.804::guides.3-3-3-3::label-3-3.4-4-4-4::GRID.VP.799::GRID.VP.789::GRID.VP.790.1" class="viewport">
                                    <g id="guide.label.titleGrob.3309.1" class="titleGrob gTree grob gDesc">
                                      <g id="GRID.text.3307.1" class="text grob gDesc">
                                        <g id="GRID.text.3307.1.1" transform="translate(456.92, 276.46)" stroke-width="0.1">
                                          <g id="GRID.text.3307.1.1.scale" transform="scale(1, -1)">
                                            <text x="0" y="0" id="GRID.text.3307.1.1.text" text-anchor="start" font-size="8.8" stroke="rgb(0,0,0)" font-family="Helvetica, Arial, FreeSans, Liberation Sans, Nimbus Sans L, sans-serif" fill="rgb(0,0,0)" stroke-opacity="1" fill-opacity="1" font-weight="normal" font-style="normal">
                                              <tspan id="GRID.text.3307.1.1.tspan.1" dy="3.23" x="0">tutto</tspan>
                                            </text>
                                          </g>
                                        </g>
                                      </g>
                                    </g>
                                  </g>
                                </g>
                              </g>
                            </g>
                          </g>
                          <g id="layout::guide-box.7-9-7-9::GRID.VP.805::guide-box.7-9-7-9::guides.3-3-3-3::GRID.VP.804::guides.3-3-3-3::label-4-3.5-4-5-4.1" class="viewport">
                            <g id="layout::guide-box.7-9-7-9::GRID.VP.805::guide-box.7-9-7-9::guides.3-3-3-3::GRID.VP.804::guides.3-3-3-3::label-4-3.5-4-5-4::GRID.VP.800.1" class="viewport">
                              <g id="label-4-3.5-4-5-4.1" class="forcedgrob gTableChild gTree grob gDesc">
                                <g id="layout::guide-box.7-9-7-9::GRID.VP.805::guide-box.7-9-7-9::guides.3-3-3-3::GRID.VP.804::guides.3-3-3-3::label-4-3.5-4-5-4::GRID.VP.800::GRID.VP.791.1" font-size="8.8" stroke="rgb(0,0,0)" font-family="Helvetica, Arial, FreeSans, Liberation Sans, Nimbus Sans L, sans-serif" stroke-opacity="1" font-weight="normal" font-style="normal" class="viewport">
                                  <g id="layout::guide-box.7-9-7-9::GRID.VP.805::guide-box.7-9-7-9::guides.3-3-3-3::GRID.VP.804::guides.3-3-3-3::label-4-3.5-4-5-4::GRID.VP.800::GRID.VP.791::GRID.VP.792.1" class="viewport">
                                    <g id="guide.label.titleGrob.3312.1" class="titleGrob gTree grob gDesc">
                                      <g id="GRID.text.3310.1" class="text grob gDesc">
                                        <g id="GRID.text.3310.1.1" transform="translate(456.92, 259.18)" stroke-width="0.1">
                                          <g id="GRID.text.3310.1.1.scale" transform="scale(1, -1)">
                                            <text x="0" y="0" id="GRID.text.3310.1.1.text" text-anchor="start" font-size="8.8" stroke="rgb(0,0,0)" font-family="Helvetica, Arial, FreeSans, Liberation Sans, Nimbus Sans L, sans-serif" fill="rgb(0,0,0)" stroke-opacity="1" fill-opacity="1" font-weight="normal" font-style="normal">
                                              <tspan id="GRID.text.3310.1.1.tspan.1" dy="3.23" x="0">avanzato</tspan>
                                            </text>
                                          </g>
                                        </g>
                                      </g>
                                    </g>
                                  </g>
                                </g>
                              </g>
                            </g>
                          </g>
                          <g id="layout::guide-box.7-9-7-9::GRID.VP.805::guide-box.7-9-7-9::guides.3-3-3-3::GRID.VP.804::guides.3-3-3-3::label-5-3.6-4-6-4.1" class="viewport">
                            <g id="layout::guide-box.7-9-7-9::GRID.VP.805::guide-box.7-9-7-9::guides.3-3-3-3::GRID.VP.804::guides.3-3-3-3::label-5-3.6-4-6-4::GRID.VP.801.1" class="viewport">
                              <g id="label-5-3.6-4-6-4.1" class="forcedgrob gTableChild gTree grob gDesc">
                                <g id="layout::guide-box.7-9-7-9::GRID.VP.805::guide-box.7-9-7-9::guides.3-3-3-3::GRID.VP.804::guides.3-3-3-3::label-5-3.6-4-6-4::GRID.VP.801::GRID.VP.793.1" font-size="8.8" stroke="rgb(0,0,0)" font-family="Helvetica, Arial, FreeSans, Liberation Sans, Nimbus Sans L, sans-serif" stroke-opacity="1" font-weight="normal" font-style="normal" class="viewport">
                                  <g id="layout::guide-box.7-9-7-9::GRID.VP.805::guide-box.7-9-7-9::guides.3-3-3-3::GRID.VP.804::guides.3-3-3-3::label-5-3.6-4-6-4::GRID.VP.801::GRID.VP.793::GRID.VP.794.1" class="viewport">
                                    <g id="guide.label.titleGrob.3315.1" class="titleGrob gTree grob gDesc">
                                      <g id="GRID.text.3313.1" class="text grob gDesc">
                                        <g id="GRID.text.3313.1.1" transform="translate(456.92, 241.9)" stroke-width="0.1">
                                          <g id="GRID.text.3313.1.1.scale" transform="scale(1, -1)">
                                            <text x="0" y="0" id="GRID.text.3313.1.1.text" text-anchor="start" font-size="8.8" stroke="rgb(0,0,0)" font-family="Helvetica, Arial, FreeSans, Liberation Sans, Nimbus Sans L, sans-serif" fill="rgb(0,0,0)" stroke-opacity="1" fill-opacity="1" font-weight="normal" font-style="normal">
                                              <tspan id="GRID.text.3313.1.1.tspan.1" dy="3.23" x="0">nessuno</tspan>
                                            </text>
                                          </g>
                                        </g>
                                      </g>
                                    </g>
                                  </g>
                                </g>
                              </g>
                            </g>
                          </g>
                          <g id="layout::guide-box.7-9-7-9::GRID.VP.805::guide-box.7-9-7-9::guides.3-3-3-3::GRID.VP.804::guides.3-3-3-3::label-6-3.7-4-7-4.1" class="viewport">
                            <g id="layout::guide-box.7-9-7-9::GRID.VP.805::guide-box.7-9-7-9::guides.3-3-3-3::GRID.VP.804::guides.3-3-3-3::label-6-3.7-4-7-4::GRID.VP.802.1" class="viewport">
                              <g id="label-6-3.7-4-7-4.1" class="forcedgrob gTableChild gTree grob gDesc">
                                <g id="layout::guide-box.7-9-7-9::GRID.VP.805::guide-box.7-9-7-9::guides.3-3-3-3::GRID.VP.804::guides.3-3-3-3::label-6-3.7-4-7-4::GRID.VP.802::GRID.VP.795.1" font-size="8.8" stroke="rgb(0,0,0)" font-family="Helvetica, Arial, FreeSans, Liberation Sans, Nimbus Sans L, sans-serif" stroke-opacity="1" font-weight="normal" font-style="normal" class="viewport">
                                  <g id="layout::guide-box.7-9-7-9::GRID.VP.805::guide-box.7-9-7-9::guides.3-3-3-3::GRID.VP.804::guides.3-3-3-3::label-6-3.7-4-7-4::GRID.VP.802::GRID.VP.795::GRID.VP.796.1" class="viewport">
                                    <g id="guide.label.titleGrob.3318.1" class="titleGrob gTree grob gDesc">
                                      <g id="GRID.text.3316.1" class="text grob gDesc">
                                        <g id="GRID.text.3316.1.1" transform="translate(456.92, 224.62)" stroke-width="0.1">
                                          <g id="GRID.text.3316.1.1.scale" transform="scale(1, -1)">
                                            <text x="0" y="0" id="GRID.text.3316.1.1.text" text-anchor="start" font-size="8.8" stroke="rgb(0,0,0)" font-family="Helvetica, Arial, FreeSans, Liberation Sans, Nimbus Sans L, sans-serif" fill="rgb(0,0,0)" stroke-opacity="1" fill-opacity="1" font-weight="normal" font-style="normal">
                                              <tspan id="GRID.text.3316.1.1.tspan.1" dy="3.23" x="0">medio</tspan>
                                            </text>
                                          </g>
                                        </g>
                                      </g>
                                    </g>
                                  </g>
                                </g>
                              </g>
                            </g>
                          </g>
                          <g id="layout::guide-box.7-9-7-9::GRID.VP.805::guide-box.7-9-7-9::guides.3-3-3-3::GRID.VP.804::guides.3-3-3-3::label-7-3.8-4-8-4.1" class="viewport">
                            <g id="layout::guide-box.7-9-7-9::GRID.VP.805::guide-box.7-9-7-9::guides.3-3-3-3::GRID.VP.804::guides.3-3-3-3::label-7-3.8-4-8-4::GRID.VP.803.1" class="viewport">
                              <g id="label-7-3.8-4-8-4.1" class="forcedgrob gTableChild gTree grob gDesc">
                                <g id="layout::guide-box.7-9-7-9::GRID.VP.805::guide-box.7-9-7-9::guides.3-3-3-3::GRID.VP.804::guides.3-3-3-3::label-7-3.8-4-8-4::GRID.VP.803::GRID.VP.797.1" font-size="8.8" stroke="rgb(0,0,0)" font-family="Helvetica, Arial, FreeSans, Liberation Sans, Nimbus Sans L, sans-serif" stroke-opacity="1" font-weight="normal" font-style="normal" class="viewport">
                                  <g id="layout::guide-box.7-9-7-9::GRID.VP.805::guide-box.7-9-7-9::guides.3-3-3-3::GRID.VP.804::guides.3-3-3-3::label-7-3.8-4-8-4::GRID.VP.803::GRID.VP.797::GRID.VP.798.1" class="viewport">
                                    <g id="guide.label.titleGrob.3321.1" class="titleGrob gTree grob gDesc">
                                      <g id="GRID.text.3319.1" class="text grob gDesc">
                                        <g id="GRID.text.3319.1.1" transform="translate(456.92, 207.34)" stroke-width="0.1">
                                          <g id="GRID.text.3319.1.1.scale" transform="scale(1, -1)">
                                            <text x="0" y="0" id="GRID.text.3319.1.1.text" text-anchor="start" font-size="8.8" stroke="rgb(0,0,0)" font-family="Helvetica, Arial, FreeSans, Liberation Sans, Nimbus Sans L, sans-serif" fill="rgb(0,0,0)" stroke-opacity="1" fill-opacity="1" font-weight="normal" font-style="normal">
                                              <tspan id="GRID.text.3319.1.1.tspan.1" dy="3.23" x="0">base</tspan>
                                            </text>
                                          </g>
                                        </g>
                                      </g>
                                    </g>
                                  </g>
                                </g>
                              </g>
                            </g>
                          </g>
                        </g>
                      </g>
                    </g>
                  </g>
                </g>
              </g>
            </g>
          </g>
          <g id="layout::subtitle.4-5-4-5.1" class="viewport"/>
          <g id="layout::title.3-5-3-5.1" class="viewport">
            <g id="layout::title.3-5-3-5::GRID.VP.806.1" font-size="13.2" stroke="rgb(102,102,102)" font-family="Helvetica, Arial, FreeSans, Liberation Sans, Nimbus Sans L, sans-serif" stroke-opacity="1" font-weight="normal" font-style="normal" class="viewport">
              <g id="layout::title.3-5-3-5::GRID.VP.806::GRID.VP.807.1" class="viewport">
                <g id="title.3-5-3-5.1" class="forcedgrob gTableChild titleGrob gTree grob gDesc">
                  <g id="GRID.text.3339.1" class="text grob gDesc">
                    <g id="GRID.text.3339.1.1" transform="translate(212.97, 466.85)" stroke-width="0.1">
                      <g id="GRID.text.3339.1.1.scale" transform="scale(1, -1)">
                        <text x="0" y="0" id="GRID.text.3339.1.1.text" text-anchor="middle" font-size="13.2" stroke="rgb(102,102,102)" font-family="Helvetica, Arial, FreeSans, Liberation Sans, Nimbus Sans L, sans-serif" fill="rgb(102,102,102)" stroke-opacity="1" fill-opacity="1" font-weight="normal" font-style="normal">
                          <tspan id="GRID.text.3339.1.1.tspan.1" dy="9.33" x="0">anagrafica totali-risoluzioneproblemi</tspan>
                        </text>
                      </g>
                    </g>
                  </g>
                </g>
              </g>
            </g>
          </g>
          <g id="layout::caption.10-5-10-5.1" class="viewport"/>
          <g id="layout::tag.2-2-2-2.1" class="viewport"/>
        </g>
      </g>
    </g>
  </g>
</svg>