<?xml version="1.0" encoding="UTF-8"?>
<svg xmlns="http://www.w3.org/2000/svg" xmlns:xlink="http://www.w3.org/1999/xlink" width="504px" height="504px" viewBox="0 0 504 504" version="1.1">
  <metadata xmlns:gridsvg="http://www.stat.auckland.ac.nz/~paul/R/gridSVG/">
    <gridsvg:generator name="gridSVG" version="1.6-0" time="2019-01-18 19:03:24"/>
    <gridsvg:argument name="name" value="./latest_informaggio_csv/risultati/svg/anagrafica-annocorso.svg"/>
    <gridsvg:argument name="exportCoords" value="none"/>
    <gridsvg:argument name="exportMappings" value="none"/>
    <gridsvg:argument name="exportJS" value="none"/>
    <gridsvg:argument name="res" value="72"/>
    <gridsvg:argument name="prefix" value=""/>
    <gridsvg:argument name="addClasses" value="TRUE"/>
    <gridsvg:argument name="indent" value="TRUE"/>
    <gridsvg:argument name="htmlWrapper" value="FALSE"/>
    <gridsvg:argument name="usePaths" value="vpPaths"/>
    <gridsvg:argument name="uniqueNames" value="TRUE"/>
    <gridsvg:separator name="id.sep" value="."/>
    <gridsvg:separator name="gPath.sep" value="::"/>
    <gridsvg:separator name="vpPath.sep" value="::"/>
  </metadata>
  <g transform="translate(0, 504) scale(1, -1)">
    <g id="gridSVG" fill="none" stroke="rgb(0,0,0)" stroke-dasharray="none" stroke-width="0.75" font-size="12" font-family="Helvetica, Arial, FreeSans, Liberation Sans, Nimbus Sans L, sans-serif" opacity="1" stroke-linecap="round" stroke-linejoin="round" stroke-miterlimit="10" stroke-opacity="1" fill-opacity="0" font-weight="normal" font-style="normal">
      <g id="layout.1" class="viewport">
        <g id="layout.2" class="forcedgrob gtable gTree grob gDesc">
          <defs>
            <clipPath id="layout::background.1-11-12-1.1.clipPath">
              <rect x="0" y="25.61" width="504" height="452.77" fill="none" stroke="none"/>
            </clipPath>
          </defs>
          <g id="layout::background.1-11-12-1.1" clip-path="url(#layout::background.1-11-12-1.1.clipPath)" class="viewport">
            <g id="background.1-11-12-1.1" class="forcedgrob gTableChild rect grob gDesc">
              <rect id="background.1-11-12-1.1.1" x="0" y="25.61" width="504" height="452.77" transform="" stroke-width="1.07" stroke="rgb(255,255,255)" fill="rgb(255,255,255)" stroke-dasharray="none" stroke-opacity="1" fill-opacity="1"/>
            </g>
          </g>
          <defs>
            <clipPath id="layout::panel.7-5-7-5.1.clipPath">
              <rect x="8.22" y="33.83" width="421.62" height="421.62" fill="none" stroke="none"/>
            </clipPath>
          </defs>
          <g id="layout::panel.7-5-7-5.1" clip-path="url(#layout::panel.7-5-7-5.1.clipPath)" class="viewport">
            <g id="panel.7-5-7-5.1" class="forcedgrob gTableChild gTree grob gDesc">
              <g id="grill.gTree.712.1" class="gTree grob gDesc">
                <g id="panel.background..rect.708.1" class="rect grob gDesc">
                  <rect id="panel.background..rect.708.1.1" x="8.22" y="33.83" width="421.62" height="421.62" transform="" stroke-width="1.07" stroke="none" fill="rgb(255,255,255)" stroke-dasharray="none" stroke-opacity="0" fill-opacity="1"/>
                </g>
              </g>
              <g id="bar.gTree.701.1" class="gTree grob gDesc">
                <g id="geom_polygon.polygon.693.1" class="polygon grob gDesc">
                  <polygon id="geom_polygon.polygon.693.1.1" points="219.03,244.64 223.53,240.96 228.03,237.27 232.52,233.59 237.02,229.9 241.52,226.21 246.02,222.53 250.52,218.84 255.01,215.15 259.51,211.47 264.01,207.78 268.51,204.1 273.01,200.41 277.5,196.72 282,193.04 286.5,189.35 291,185.67 295.5,181.98 300,178.29 304.49,174.61 308.99,170.92 313.49,167.24 317.99,163.55 322.49,159.86 326.98,156.18 331.48,152.49 335.98,148.81 340.48,145.12 344.98,141.43 349.47,137.75 353.05,142.27 356.48,146.91 359.74,151.67 362.83,156.54 365.76,161.51 368.52,166.57 371.1,171.73 373.51,176.97 375.73,182.29 377.77,187.69 379.62,193.15 381.29,198.67 382.77,204.25 384.05,209.87 385.15,215.53 386.05,221.23 386.75,226.96 387.25,232.7 387.56,238.46 387.68,244.23 387.59,249.99 387.31,255.75 386.83,261.5 386.16,267.23 385.29,272.93 384.22,278.6 382.97,284.23 381.52,289.81 379.88,295.34 378.05,300.81 376.04,306.22 373.84,311.55 371.46,316.81 368.9,321.98 366.17,327.05 363.27,332.04 360.19,336.92 356.96,341.69 353.56,346.35 350,350.89 346.29,355.31 342.43,359.6 338.43,363.75 334.29,367.76 330.01,371.63 325.6,375.35 321.07,378.92 316.42,382.33 311.65,385.58 306.78,388.66 301.8,391.58 296.73,394.33 291.57,396.89 286.32,399.29 280.99,401.5 275.59,403.52 270.13,405.36 264.6,407.02 259.02,408.48 253.4,409.75 247.73,410.83 242.03,411.72 236.3,412.4 230.56,412.9 224.8,413.19 219.03,413.29 219.03,407.48 219.03,401.66 219.03,395.85 219.03,390.03 219.03,384.21 219.03,378.4 219.03,372.58 219.03,366.77 219.03,360.95 219.03,355.14 219.03,349.32 219.03,343.51 219.03,337.69 219.03,331.88 219.03,326.06 219.03,320.24 219.03,314.43 219.03,308.61 219.03,302.8 219.03,296.98 219.03,291.17 219.03,285.35 219.03,279.54 219.03,273.72 219.03,267.9 219.03,262.09 219.03,256.27 219.03,250.46 219.03,244.64 219.03,244.64" stroke="none" fill="rgb(199,124,255)" stroke-width="1.07" stroke-dasharray="none" stroke-opacity="0" fill-opacity="1"/>
                </g>
                <g id="geom_polygon.polygon.695.1" class="polygon grob gDesc">
                  <polygon id="geom_polygon.polygon.695.1.1" points="219.03,244.64 214.13,241.5 209.24,238.37 204.34,235.23 199.45,232.09 194.55,228.95 189.66,225.81 184.76,222.67 179.86,219.53 174.97,216.39 170.07,213.25 165.18,210.12 160.28,206.98 155.39,203.84 150.49,200.7 145.6,197.56 140.7,194.42 135.8,191.28 130.91,188.14 126.01,185 121.12,181.87 116.22,178.73 111.33,175.59 106.43,172.45 101.54,169.31 96.64,166.17 91.74,163.03 86.85,159.89 81.95,156.75 77.06,153.62 80.26,148.8 83.63,144.11 87.15,139.52 90.83,135.07 94.66,130.74 98.63,126.54 102.75,122.49 107.01,118.58 111.39,114.81 115.9,111.2 120.54,107.74 125.29,104.45 130.14,101.32 135.11,98.36 140.17,95.57 145.32,92.95 150.56,90.52 155.89,88.26 161.28,86.19 166.74,84.3 172.27,82.61 177.85,81.1 183.48,79.78 189.15,78.66 194.85,77.74 200.59,77.01 206.34,76.47 212.11,76.14 217.89,76 223.67,76.06 229.44,76.32 235.2,76.77 240.95,77.42 246.66,78.27 252.35,79.32 257.99,80.56 263.59,81.99 269.14,83.61 274.63,85.42 280.05,87.42 285.4,89.6 290.68,91.97 295.86,94.51 300.96,97.24 305.97,100.13 310.87,103.19 315.66,106.42 320.34,109.82 324.9,113.37 329.34,117.07 333.64,120.92 337.81,124.92 341.85,129.07 345.74,133.34 349.47,137.75 344.98,141.43 340.48,145.12 335.98,148.81 331.48,152.49 326.98,156.18 322.49,159.86 317.99,163.55 313.49,167.24 308.99,170.92 304.49,174.61 300,178.29 295.5,181.98 291,185.67 286.5,189.35 282,193.04 277.5,196.72 273.01,200.41 268.51,204.1 264.01,207.78 259.51,211.47 255.01,215.15 250.52,218.84 246.02,222.53 241.52,226.21 237.02,229.9 232.52,233.59 228.03,237.27 223.53,240.96 219.03,244.64 219.03,244.64" stroke="none" fill="rgb(0,191,196)" stroke-width="1.07" stroke-dasharray="none" stroke-opacity="0" fill-opacity="1"/>
                </g>
                <g id="geom_polygon.polygon.697.1" class="polygon grob gDesc">
                  <polygon id="geom_polygon.polygon.697.1.1" points="219.03,244.64 217.43,250.23 215.82,255.82 214.22,261.41 212.62,267 211.01,272.59 209.41,278.18 207.81,283.77 206.21,289.36 204.6,294.95 203,300.54 201.4,306.14 199.79,311.73 198.19,317.32 196.59,322.91 194.99,328.5 193.38,334.09 191.78,339.68 190.18,345.27 188.57,350.86 186.97,356.45 185.37,362.04 183.76,367.63 182.16,373.22 180.56,378.81 178.96,384.4 177.35,389.99 175.75,395.58 174.15,401.17 172.54,406.76 167.08,405.09 161.68,403.24 156.35,401.21 151.09,399 145.9,396.61 140.8,394.05 135.79,391.32 130.87,388.42 126.06,385.35 121.35,382.12 116.75,378.74 112.27,375.2 107.92,371.51 103.69,367.68 99.59,363.71 95.63,359.6 91.81,355.35 88.13,350.98 84.61,346.49 81.24,341.89 78.03,337.17 74.98,332.34 72.09,327.42 69.38,322.4 66.83,317.29 64.46,312.1 62.26,306.83 60.25,301.49 58.42,296.08 56.77,290.61 55.3,285.1 54.03,279.53 52.94,273.93 52.05,268.29 51.34,262.63 50.83,256.94 50.51,251.24 50.38,245.54 50.45,239.83 50.71,234.12 51.16,228.43 51.81,222.76 52.64,217.12 53.67,211.5 54.89,205.92 56.29,200.39 57.88,194.91 59.66,189.48 61.61,184.12 63.75,178.83 66.07,173.61 68.56,168.48 71.22,163.43 74.06,158.47 77.06,153.62 81.95,156.75 86.85,159.89 91.74,163.03 96.64,166.17 101.54,169.31 106.43,172.45 111.33,175.59 116.22,178.73 121.12,181.87 126.01,185 130.91,188.14 135.8,191.28 140.7,194.42 145.6,197.56 150.49,200.7 155.39,203.84 160.28,206.98 165.18,210.12 170.07,213.25 174.97,216.39 179.86,219.53 184.76,222.67 189.66,225.81 194.55,228.95 199.45,232.09 204.34,235.23 209.24,238.37 214.13,241.5 219.03,244.64 219.03,244.64" stroke="none" fill="rgb(124,174,0)" stroke-width="1.07" stroke-dasharray="none" stroke-opacity="0" fill-opacity="1"/>
                </g>
                <g id="geom_polygon.polygon.699.1" class="polygon grob gDesc">
                  <polygon id="geom_polygon.polygon.699.1.1" points="219.03,244.64 219.03,250.46 219.03,256.27 219.03,262.09 219.03,267.9 219.03,273.72 219.03,279.54 219.03,285.35 219.03,291.17 219.03,296.98 219.03,302.8 219.03,308.61 219.03,314.43 219.03,320.24 219.03,326.06 219.03,331.88 219.03,337.69 219.03,343.51 219.03,349.32 219.03,355.14 219.03,360.95 219.03,366.77 219.03,372.58 219.03,378.4 219.03,384.21 219.03,390.03 219.03,395.85 219.03,401.66 219.03,407.48 219.03,413.29 213.14,413.19 207.27,412.88 201.4,412.37 195.56,411.65 189.74,410.73 183.97,409.61 178.23,408.28 172.54,406.76 174.15,401.17 175.75,395.58 177.35,389.99 178.96,384.4 180.56,378.81 182.16,373.22 183.76,367.63 185.37,362.04 186.97,356.45 188.57,350.86 190.18,345.27 191.78,339.68 193.38,334.09 194.99,328.5 196.59,322.91 198.19,317.32 199.79,311.73 201.4,306.14 203,300.54 204.6,294.95 206.21,289.36 207.81,283.77 209.41,278.18 211.01,272.59 212.62,267 214.22,261.41 215.82,255.82 217.43,250.23 219.03,244.64 219.03,244.64" stroke="none" fill="rgb(248,118,109)" stroke-width="1.07" stroke-dasharray="none" stroke-opacity="0" fill-opacity="1"/>
                </g>
              </g>
              <g id="GRID.text.702.1" class="text grob gDesc">
                <g id="GRID.text.702.1.1" transform="translate(295.24, 280.72)" stroke-width="0.1">
                  <g id="GRID.text.702.1.1.scale" transform="scale(1, -1)">
                    <text x="0" y="0" id="GRID.text.702.1.1.text" text-anchor="middle" stroke="rgb(0,0,0)" font-size="11.04" font-family="Helvetica, Arial, FreeSans, Liberation Sans, Nimbus Sans L, sans-serif" fill="rgb(0,0,0)" stroke-opacity="1" fill-opacity="1" font-weight="normal" font-style="normal">
                      <tspan id="GRID.text.702.1.1.tspan.1" dy="3.95" x="0">97</tspan>
                    </text>
                  </g>
                </g>
                <g id="GRID.text.702.1.2" transform="translate(214.13, 160.46)" stroke-width="0.1">
                  <g id="GRID.text.702.1.2.scale" transform="scale(1, -1)">
                    <text x="0" y="0" id="GRID.text.702.1.2.text" text-anchor="middle" stroke="rgb(0,0,0)" font-size="11.04" font-family="Helvetica, Arial, FreeSans, Liberation Sans, Nimbus Sans L, sans-serif" fill="rgb(0,0,0)" stroke-opacity="1" fill-opacity="1" font-weight="normal" font-style="normal">
                      <tspan id="GRID.text.702.1.2.tspan.1" dy="3.95" x="0">81</tspan>
                    </text>
                  </g>
                </g>
                <g id="GRID.text.702.1.3" transform="translate(140.13, 274.4)" stroke-width="0.1">
                  <g id="GRID.text.702.1.3.scale" transform="scale(1, -1)">
                    <text x="0" y="0" id="GRID.text.702.1.3.text" text-anchor="middle" stroke="rgb(0,0,0)" font-size="11.04" font-family="Helvetica, Arial, FreeSans, Liberation Sans, Nimbus Sans L, sans-serif" fill="rgb(0,0,0)" stroke-opacity="1" fill-opacity="1" font-weight="normal" font-style="normal">
                      <tspan id="GRID.text.702.1.3.tspan.1" dy="3.95" x="0">80</tspan>
                    </text>
                  </g>
                </g>
                <g id="GRID.text.702.1.4" transform="translate(207.29, 328.15)" stroke-width="0.1">
                  <g id="GRID.text.702.1.4.scale" transform="scale(1, -1)">
                    <text x="0" y="0" id="GRID.text.702.1.4.text" text-anchor="middle" stroke="rgb(0,0,0)" font-size="11.04" font-family="Helvetica, Arial, FreeSans, Liberation Sans, Nimbus Sans L, sans-serif" fill="rgb(0,0,0)" stroke-opacity="1" fill-opacity="1" font-weight="normal" font-style="normal">
                      <tspan id="GRID.text.702.1.4.tspan.1" dy="3.95" x="0">12</tspan>
                    </text>
                  </g>
                </g>
              </g>
              <g id="GRID.gTree.703.1" class="gTree grob gDesc"/>
            </g>
          </g>
          <g id="layout::spacer.8-6-8-6.1" class="viewport"/>
          <g id="layout::spacer.8-4-8-4.1" class="viewport"/>
          <g id="layout::spacer.6-6-6-6.1" class="viewport"/>
          <g id="layout::spacer.6-4-6-4.1" class="viewport"/>
          <g id="layout::axis-t.6-5-6-5.1" class="viewport"/>
          <g id="layout::axis-l.7-4-7-4.1" class="viewport">
            <g id="layout::axis-l.7-4-7-4::GRID.VP.170.1" class="viewport">
              <g id="axis-l.7-4-7-4.1" class="forcedgrob gTableChild absoluteGrob gTree grob gDesc">
                <g id="layout::axis-l.7-4-7-4::GRID.VP.170::axis.1" class="viewport">
                  <g id="axis.1" class="forcedgrob gtable gTree grob gDesc">
                    <g id="layout::axis-l.7-4-7-4::GRID.VP.170::axis::axis.1-1-1-1.1" class="viewport"/>
                    <g id="layout::axis-l.7-4-7-4::GRID.VP.170::axis::axis.1-2-1-2.1" class="viewport"/>
                  </g>
                </g>
              </g>
            </g>
          </g>
          <g id="layout::axis-r.7-6-7-6.1" class="viewport"/>
          <g id="layout::axis-b.8-5-8-5.1" class="viewport">
            <g id="layout::axis-b.8-5-8-5::GRID.VP.169.1" class="viewport">
              <g id="axis-b.8-5-8-5.1" class="forcedgrob gTableChild absoluteGrob gTree grob gDesc">
                <g id="layout::axis-b.8-5-8-5::GRID.VP.169::axis.1" class="viewport">
                  <g id="axis.2" class="forcedgrob gtable gTree grob gDesc">
                    <g id="layout::axis-b.8-5-8-5::GRID.VP.169::axis::axis.1-1-1-1.1" class="viewport"/>
                    <g id="layout::axis-b.8-5-8-5::GRID.VP.169::axis::axis.2-1-2-1.1" class="viewport"/>
                  </g>
                </g>
              </g>
            </g>
          </g>
          <g id="layout::xlab-t.5-5-5-5.1" class="viewport"/>
          <g id="layout::xlab-b.9-5-9-5.1" class="viewport"/>
          <g id="layout::ylab-l.7-3-7-3.1" class="viewport"/>
          <g id="layout::ylab-r.7-7-7-7.1" class="viewport"/>
          <g id="layout::guide-box.7-9-7-9.1" class="viewport">
            <g id="layout::guide-box.7-9-7-9::GRID.VP.184.1" class="viewport">
              <g id="layout::guide-box.7-9-7-9::GRID.VP.184::guide-box.7-9-7-9.1" class="viewport">
                <g id="guide-box.7-9-7-9.1" class="forcedgrob gTableChild gtable gTree grob gDesc">
                  <g id="layout::guide-box.7-9-7-9::GRID.VP.184::guide-box.7-9-7-9::legend.box.background.2-4-4-2.1" class="viewport"/>
                  <g id="layout::guide-box.7-9-7-9::GRID.VP.184::guide-box.7-9-7-9::guides.3-3-3-3.1" class="viewport">
                    <g id="layout::guide-box.7-9-7-9::GRID.VP.184::guide-box.7-9-7-9::guides.3-3-3-3::GRID.VP.183.1" class="viewport">
                      <g id="layout::guide-box.7-9-7-9::GRID.VP.184::guide-box.7-9-7-9::guides.3-3-3-3::GRID.VP.183::guides.3-3-3-3.1" class="viewport">
                        <g id="guides.3-3-3-3.1" class="forcedgrob gTableChild gtable gTree grob gDesc">
                          <g id="layout::guide-box.7-9-7-9::GRID.VP.184::guide-box.7-9-7-9::guides.3-3-3-3::GRID.VP.183::guides.3-3-3-3::background.1-6-8-1.1" class="viewport">
                            <g id="background.1-6-8-1.1" class="forcedgrob gTableChild rect grob gDesc">
                              <rect id="background.1-6-8-1.1.1" x="440.8" y="201.86" width="57.72" height="85.56" transform="" stroke-width="1.07" stroke="none" fill="rgb(255,255,255)" stroke-dasharray="none" stroke-opacity="0" fill-opacity="1"/>
                            </g>
                          </g>
                          <g id="layout::guide-box.7-9-7-9::GRID.VP.184::guide-box.7-9-7-9::guides.3-3-3-3::GRID.VP.183::guides.3-3-3-3::title.2-5-2-2.1" class="viewport"/>
                          <g id="layout::guide-box.7-9-7-9::GRID.VP.184::guide-box.7-9-7-9::guides.3-3-3-3::GRID.VP.183::guides.3-3-3-3::key-3-1-bg.4-2-4-2.1" class="viewport"/>
                          <g id="layout::guide-box.7-9-7-9::GRID.VP.184::guide-box.7-9-7-9::guides.3-3-3-3::GRID.VP.183::guides.3-3-3-3::key-3-1-1.4-2-4-2.1" class="viewport">
                            <g id="key-3-1-1.4-2-4-2.1" class="forcedgrob gTableChild rect grob gDesc">
                              <rect id="key-3-1-1.4-2-4-2.1.1" x="446.99" y="259.89" width="15.86" height="15.86" transform="" stroke="none" fill="rgb(248,118,109)" stroke-dasharray="none" stroke-width="1.07" stroke-linejoin="miter" stroke-opacity="0" fill-opacity="1"/>
                            </g>
                          </g>
                          <g id="layout::guide-box.7-9-7-9::GRID.VP.184::guide-box.7-9-7-9::guides.3-3-3-3::GRID.VP.183::guides.3-3-3-3::key-4-1-bg.5-2-5-2.1" class="viewport"/>
                          <g id="layout::guide-box.7-9-7-9::GRID.VP.184::guide-box.7-9-7-9::guides.3-3-3-3::GRID.VP.183::guides.3-3-3-3::key-4-1-1.5-2-5-2.1" class="viewport">
                            <g id="key-4-1-1.5-2-5-2.1" class="forcedgrob gTableChild rect grob gDesc">
                              <rect id="key-4-1-1.5-2-5-2.1.1" x="446.99" y="242.61" width="15.86" height="15.86" transform="" stroke="none" fill="rgb(124,174,0)" stroke-dasharray="none" stroke-width="1.07" stroke-linejoin="miter" stroke-opacity="0" fill-opacity="1"/>
                            </g>
                          </g>
                          <g id="layout::guide-box.7-9-7-9::GRID.VP.184::guide-box.7-9-7-9::guides.3-3-3-3::GRID.VP.183::guides.3-3-3-3::key-5-1-bg.6-2-6-2.1" class="viewport"/>
                          <g id="layout::guide-box.7-9-7-9::GRID.VP.184::guide-box.7-9-7-9::guides.3-3-3-3::GRID.VP.183::guides.3-3-3-3::key-5-1-1.6-2-6-2.1" class="viewport">
                            <g id="key-5-1-1.6-2-6-2.1" class="forcedgrob gTableChild rect grob gDesc">
                              <rect id="key-5-1-1.6-2-6-2.1.1" x="446.99" y="225.33" width="15.86" height="15.86" transform="" stroke="none" fill="rgb(0,191,196)" stroke-dasharray="none" stroke-width="1.07" stroke-linejoin="miter" stroke-opacity="0" fill-opacity="1"/>
                            </g>
                          </g>
                          <g id="layout::guide-box.7-9-7-9::GRID.VP.184::guide-box.7-9-7-9::guides.3-3-3-3::GRID.VP.183::guides.3-3-3-3::key-6-1-bg.7-2-7-2.1" class="viewport"/>
                          <g id="layout::guide-box.7-9-7-9::GRID.VP.184::guide-box.7-9-7-9::guides.3-3-3-3::GRID.VP.183::guides.3-3-3-3::key-6-1-1.7-2-7-2.1" class="viewport">
                            <g id="key-6-1-1.7-2-7-2.1" class="forcedgrob gTableChild rect grob gDesc">
                              <rect id="key-6-1-1.7-2-7-2.1.1" x="446.99" y="208.05" width="15.86" height="15.86" transform="" stroke="none" fill="rgb(199,124,255)" stroke-dasharray="none" stroke-width="1.07" stroke-linejoin="miter" stroke-opacity="0" fill-opacity="1"/>
                            </g>
                          </g>
                          <g id="layout::guide-box.7-9-7-9::GRID.VP.184::guide-box.7-9-7-9::guides.3-3-3-3::GRID.VP.183::guides.3-3-3-3::label-3-3.4-4-4-4.1" class="viewport">
                            <g id="layout::guide-box.7-9-7-9::GRID.VP.184::guide-box.7-9-7-9::guides.3-3-3-3::GRID.VP.183::guides.3-3-3-3::label-3-3.4-4-4-4::GRID.VP.179.1" class="viewport">
                              <g id="label-3-3.4-4-4-4.1" class="forcedgrob gTableChild gTree grob gDesc">
                                <g id="layout::guide-box.7-9-7-9::GRID.VP.184::guide-box.7-9-7-9::guides.3-3-3-3::GRID.VP.183::guides.3-3-3-3::label-3-3.4-4-4-4::GRID.VP.179::GRID.VP.171.1" font-size="8.8" stroke="rgb(0,0,0)" font-family="Helvetica, Arial, FreeSans, Liberation Sans, Nimbus Sans L, sans-serif" stroke-opacity="1" font-weight="normal" font-style="normal" class="viewport">
                                  <g id="layout::guide-box.7-9-7-9::GRID.VP.184::guide-box.7-9-7-9::guides.3-3-3-3::GRID.VP.183::guides.3-3-3-3::label-3-3.4-4-4-4::GRID.VP.179::GRID.VP.171::GRID.VP.172.1" class="viewport">
                                    <g id="guide.label.titleGrob.726.1" class="titleGrob gTree grob gDesc">
                                      <g id="GRID.text.724.1" class="text grob gDesc">
                                        <g id="GRID.text.724.1.1" transform="translate(469.04, 267.82)" stroke-width="0.1">
                                          <g id="GRID.text.724.1.1.scale" transform="scale(1, -1)">
                                            <text x="0" y="0" id="GRID.text.724.1.1.text" text-anchor="start" font-size="8.8" stroke="rgb(0,0,0)" font-family="Helvetica, Arial, FreeSans, Liberation Sans, Nimbus Sans L, sans-serif" fill="rgb(0,0,0)" stroke-opacity="1" fill-opacity="1" font-weight="normal" font-style="normal">
                                              <tspan id="GRID.text.724.1.1.tspan.1" dy="3.23" x="0">F (12)</tspan>
                                            </text>
                                          </g>
                                        </g>
                                      </g>
                                    </g>
                                  </g>
                                </g>
                              </g>
                            </g>
                          </g>
                          <g id="layout::guide-box.7-9-7-9::GRID.VP.184::guide-box.7-9-7-9::guides.3-3-3-3::GRID.VP.183::guides.3-3-3-3::label-4-3.5-4-5-4.1" class="viewport">
                            <g id="layout::guide-box.7-9-7-9::GRID.VP.184::guide-box.7-9-7-9::guides.3-3-3-3::GRID.VP.183::guides.3-3-3-3::label-4-3.5-4-5-4::GRID.VP.180.1" class="viewport">
                              <g id="label-4-3.5-4-5-4.1" class="forcedgrob gTableChild gTree grob gDesc">
                                <g id="layout::guide-box.7-9-7-9::GRID.VP.184::guide-box.7-9-7-9::guides.3-3-3-3::GRID.VP.183::guides.3-3-3-3::label-4-3.5-4-5-4::GRID.VP.180::GRID.VP.173.1" font-size="8.8" stroke="rgb(0,0,0)" font-family="Helvetica, Arial, FreeSans, Liberation Sans, Nimbus Sans L, sans-serif" stroke-opacity="1" font-weight="normal" font-style="normal" class="viewport">
                                  <g id="layout::guide-box.7-9-7-9::GRID.VP.184::guide-box.7-9-7-9::guides.3-3-3-3::GRID.VP.183::guides.3-3-3-3::label-4-3.5-4-5-4::GRID.VP.180::GRID.VP.173::GRID.VP.174.1" class="viewport">
                                    <g id="guide.label.titleGrob.729.1" class="titleGrob gTree grob gDesc">
                                      <g id="GRID.text.727.1" class="text grob gDesc">
                                        <g id="GRID.text.727.1.1" transform="translate(469.04, 250.54)" stroke-width="0.1">
                                          <g id="GRID.text.727.1.1.scale" transform="scale(1, -1)">
                                            <text x="0" y="0" id="GRID.text.727.1.1.text" text-anchor="start" font-size="8.8" stroke="rgb(0,0,0)" font-family="Helvetica, Arial, FreeSans, Liberation Sans, Nimbus Sans L, sans-serif" fill="rgb(0,0,0)" stroke-opacity="1" fill-opacity="1" font-weight="normal" font-style="normal">
                                              <tspan id="GRID.text.727.1.1.tspan.1" dy="3.23" x="0">2 (80)</tspan>
                                            </text>
                                          </g>
                                        </g>
                                      </g>
                                    </g>
                                  </g>
                                </g>
                              </g>
                            </g>
                          </g>
                          <g id="layout::guide-box.7-9-7-9::GRID.VP.184::guide-box.7-9-7-9::guides.3-3-3-3::GRID.VP.183::guides.3-3-3-3::label-5-3.6-4-6-4.1" class="viewport">
                            <g id="layout::guide-box.7-9-7-9::GRID.VP.184::guide-box.7-9-7-9::guides.3-3-3-3::GRID.VP.183::guides.3-3-3-3::label-5-3.6-4-6-4::GRID.VP.181.1" class="viewport">
                              <g id="label-5-3.6-4-6-4.1" class="forcedgrob gTableChild gTree grob gDesc">
                                <g id="layout::guide-box.7-9-7-9::GRID.VP.184::guide-box.7-9-7-9::guides.3-3-3-3::GRID.VP.183::guides.3-3-3-3::label-5-3.6-4-6-4::GRID.VP.181::GRID.VP.175.1" font-size="8.8" stroke="rgb(0,0,0)" font-family="Helvetica, Arial, FreeSans, Liberation Sans, Nimbus Sans L, sans-serif" stroke-opacity="1" font-weight="normal" font-style="normal" class="viewport">
                                  <g id="layout::guide-box.7-9-7-9::GRID.VP.184::guide-box.7-9-7-9::guides.3-3-3-3::GRID.VP.183::guides.3-3-3-3::label-5-3.6-4-6-4::GRID.VP.181::GRID.VP.175::GRID.VP.176.1" class="viewport">
                                    <g id="guide.label.titleGrob.732.1" class="titleGrob gTree grob gDesc">
                                      <g id="GRID.text.730.1" class="text grob gDesc">
                                        <g id="GRID.text.730.1.1" transform="translate(469.04, 233.26)" stroke-width="0.1">
                                          <g id="GRID.text.730.1.1.scale" transform="scale(1, -1)">
                                            <text x="0" y="0" id="GRID.text.730.1.1.text" text-anchor="start" font-size="8.8" stroke="rgb(0,0,0)" font-family="Helvetica, Arial, FreeSans, Liberation Sans, Nimbus Sans L, sans-serif" fill="rgb(0,0,0)" stroke-opacity="1" fill-opacity="1" font-weight="normal" font-style="normal">
                                              <tspan id="GRID.text.730.1.1.tspan.1" dy="3.23" x="0">3 (81)</tspan>
                                            </text>
                                          </g>
                                        </g>
                                      </g>
                                    </g>
                                  </g>
                                </g>
                              </g>
                            </g>
                          </g>
                          <g id="layout::guide-box.7-9-7-9::GRID.VP.184::guide-box.7-9-7-9::guides.3-3-3-3::GRID.VP.183::guides.3-3-3-3::label-6-3.7-4-7-4.1" class="viewport">
                            <g id="layout::guide-box.7-9-7-9::GRID.VP.184::guide-box.7-9-7-9::guides.3-3-3-3::GRID.VP.183::guides.3-3-3-3::label-6-3.7-4-7-4::GRID.VP.182.1" class="viewport">
                              <g id="label-6-3.7-4-7-4.1" class="forcedgrob gTableChild gTree grob gDesc">
                                <g id="layout::guide-box.7-9-7-9::GRID.VP.184::guide-box.7-9-7-9::guides.3-3-3-3::GRID.VP.183::guides.3-3-3-3::label-6-3.7-4-7-4::GRID.VP.182::GRID.VP.177.1" font-size="8.8" stroke="rgb(0,0,0)" font-family="Helvetica, Arial, FreeSans, Liberation Sans, Nimbus Sans L, sans-serif" stroke-opacity="1" font-weight="normal" font-style="normal" class="viewport">
                                  <g id="layout::guide-box.7-9-7-9::GRID.VP.184::guide-box.7-9-7-9::guides.3-3-3-3::GRID.VP.183::guides.3-3-3-3::label-6-3.7-4-7-4::GRID.VP.182::GRID.VP.177::GRID.VP.178.1" class="viewport">
                                    <g id="guide.label.titleGrob.735.1" class="titleGrob gTree grob gDesc">
                                      <g id="GRID.text.733.1" class="text grob gDesc">
                                        <g id="GRID.text.733.1.1" transform="translate(469.04, 215.98)" stroke-width="0.1">
                                          <g id="GRID.text.733.1.1.scale" transform="scale(1, -1)">
                                            <text x="0" y="0" id="GRID.text.733.1.1.text" text-anchor="start" font-size="8.8" stroke="rgb(0,0,0)" font-family="Helvetica, Arial, FreeSans, Liberation Sans, Nimbus Sans L, sans-serif" fill="rgb(0,0,0)" stroke-opacity="1" fill-opacity="1" font-weight="normal" font-style="normal">
                                              <tspan id="GRID.text.733.1.1.tspan.1" dy="3.23" x="0">1 (97)</tspan>
                                            </text>
                                          </g>
                                        </g>
                                      </g>
                                    </g>
                                  </g>
                                </g>
                              </g>
                            </g>
                          </g>
                        </g>
                      </g>
                    </g>
                  </g>
                </g>
              </g>
            </g>
          </g>
          <g id="layout::subtitle.4-5-4-5.1" class="viewport"/>
          <g id="layout::title.3-5-3-5.1" class="viewport">
            <g id="layout::title.3-5-3-5::GRID.VP.185.1" font-size="13.2" stroke="rgb(102,102,102)" font-family="Helvetica, Arial, FreeSans, Liberation Sans, Nimbus Sans L, sans-serif" stroke-opacity="1" font-weight="normal" font-style="normal" class="viewport">
              <g id="layout::title.3-5-3-5::GRID.VP.185::GRID.VP.186.1" class="viewport">
                <g id="title.3-5-3-5.1" class="forcedgrob gTableChild titleGrob gTree grob gDesc">
                  <g id="GRID.text.750.1" class="text grob gDesc">
                    <g id="GRID.text.750.1.1" transform="translate(219.03, 472.91)" stroke-width="0.1">
                      <g id="GRID.text.750.1.1.scale" transform="scale(1, -1)">
                        <text x="0" y="0" id="GRID.text.750.1.1.text" text-anchor="middle" font-size="13.2" stroke="rgb(102,102,102)" font-family="Helvetica, Arial, FreeSans, Liberation Sans, Nimbus Sans L, sans-serif" fill="rgb(102,102,102)" stroke-opacity="1" fill-opacity="1" font-weight="normal" font-style="normal">
                          <tspan id="GRID.text.750.1.1.tspan.1" dy="9.33" x="0">anagrafica annocorso</tspan>
                        </text>
                      </g>
                    </g>
                  </g>
                </g>
              </g>
            </g>
          </g>
          <g id="layout::caption.10-5-10-5.1" class="viewport"/>
          <g id="layout::tag.2-2-2-2.1" class="viewport"/>
        </g>
      </g>
    </g>
  </g>
</svg>