<?xml version="1.0" encoding="UTF-8"?>
<svg xmlns="http://www.w3.org/2000/svg" xmlns:xlink="http://www.w3.org/1999/xlink" width="504px" height="504px" viewBox="0 0 504 504" version="1.1">
  <metadata xmlns:gridsvg="http://www.stat.auckland.ac.nz/~paul/R/gridSVG/">
    <gridsvg:generator name="gridSVG" version="1.6-0" time="2019-01-14 19:38:05"/>
    <gridsvg:argument name="name" value="./latest_informaggio_csv/risultati/svg/anagrafica-problemi.svg"/>
    <gridsvg:argument name="exportCoords" value="none"/>
    <gridsvg:argument name="exportMappings" value="none"/>
    <gridsvg:argument name="exportJS" value="none"/>
    <gridsvg:argument name="res" value="72"/>
    <gridsvg:argument name="prefix" value=""/>
    <gridsvg:argument name="addClasses" value="TRUE"/>
    <gridsvg:argument name="indent" value="TRUE"/>
    <gridsvg:argument name="htmlWrapper" value="FALSE"/>
    <gridsvg:argument name="usePaths" value="vpPaths"/>
    <gridsvg:argument name="uniqueNames" value="TRUE"/>
    <gridsvg:separator name="id.sep" value="."/>
    <gridsvg:separator name="gPath.sep" value="::"/>
    <gridsvg:separator name="vpPath.sep" value="::"/>
  </metadata>
  <g transform="translate(0, 504) scale(1, -1)">
    <g id="gridSVG" fill="none" stroke="rgb(0,0,0)" stroke-dasharray="none" stroke-width="0.75" font-size="12" font-family="Helvetica, Arial, FreeSans, Liberation Sans, Nimbus Sans L, sans-serif" opacity="1" stroke-linecap="round" stroke-linejoin="round" stroke-miterlimit="10" stroke-opacity="1" fill-opacity="0" font-weight="normal" font-style="normal">
      <g id="layout.1" class="viewport">
        <g id="layout.2" class="forcedgrob gtable gTree grob gDesc">
          <defs>
            <clipPath id="layout::background.1-11-12-1.1.clipPath">
              <rect x="0" y="28.37" width="504" height="447.27" fill="none" stroke="none"/>
            </clipPath>
          </defs>
          <g id="layout::background.1-11-12-1.1" clip-path="url(#layout::background.1-11-12-1.1.clipPath)" class="viewport">
            <g id="background.1-11-12-1.1" class="forcedgrob gTableChild rect grob gDesc">
              <rect id="background.1-11-12-1.1.1" x="0" y="28.37" width="504" height="447.27" transform="" stroke-width="1.07" stroke="rgb(255,255,255)" fill="rgb(255,255,255)" stroke-dasharray="none" stroke-opacity="1" fill-opacity="1"/>
            </g>
          </g>
          <defs>
            <clipPath id="layout::panel.7-5-7-5.1.clipPath">
              <rect x="8.22" y="36.59" width="416.11" height="416.11" fill="none" stroke="none"/>
            </clipPath>
          </defs>
          <g id="layout::panel.7-5-7-5.1" clip-path="url(#layout::panel.7-5-7-5.1.clipPath)" class="viewport">
            <g id="panel.7-5-7-5.1" class="forcedgrob gTableChild gTree grob gDesc">
              <g id="grill.gTree.3050.1" class="gTree grob gDesc">
                <g id="panel.background..rect.3046.1" class="rect grob gDesc">
                  <rect id="panel.background..rect.3046.1.1" x="8.22" y="36.59" width="416.11" height="416.11" transform="" stroke-width="1.07" stroke="none" fill="rgb(255,255,255)" stroke-dasharray="none" stroke-opacity="0" fill-opacity="1"/>
                </g>
              </g>
              <g id="bar.gTree.3039.1" class="gTree grob gDesc">
                <g id="geom_polygon.polygon.3035.1" class="polygon grob gDesc">
                  <polygon id="geom_polygon.polygon.3035.1.1" points="216.28,244.64 210.54,244.71 204.8,244.78 199.06,244.85 193.32,244.92 187.58,244.99 181.84,245.06 176.1,245.12 170.36,245.19 164.62,245.26 158.88,245.33 153.15,245.4 147.41,245.47 141.67,245.54 135.93,245.61 130.19,245.68 124.45,245.74 118.71,245.81 112.97,245.88 107.23,245.95 101.49,246.02 95.76,246.09 90.02,246.16 84.28,246.23 78.54,246.29 72.8,246.36 67.06,246.43 61.32,246.5 55.58,246.57 49.84,246.64 49.87,240.98 50.09,235.33 50.5,229.69 51.11,224.06 51.9,218.46 52.89,212.89 54.06,207.36 55.42,201.87 56.97,196.43 58.7,191.04 60.61,185.72 62.7,180.46 64.97,175.28 67.42,170.18 70.03,165.16 72.82,160.24 75.77,155.41 78.88,150.69 82.16,146.07 85.58,141.57 89.16,137.19 92.89,132.93 96.75,128.81 100.76,124.81 104.9,120.95 109.16,117.24 113.56,113.68 118.07,110.26 122.69,107 127.42,103.9 132.25,100.96 137.19,98.19 142.21,95.59 147.32,93.16 152.5,90.9 157.76,88.82 163.09,86.92 168.48,85.21 173.93,83.67 179.42,82.33 184.96,81.17 190.53,80.2 196.14,79.42 201.76,78.83 207.41,78.43 213.06,78.23 218.72,78.22 224.37,78.39 230.02,78.77 235.64,79.33 241.25,80.08 246.83,81.03 252.37,82.16 257.87,83.48 263.32,84.99 268.72,86.68 274.06,88.55 279.33,90.6 284.53,92.84 289.65,95.24 294.68,97.82 299.63,100.57 304.47,103.49 309.22,106.57 313.86,109.8 318.38,113.2 322.79,116.74 327.08,120.44 331.23,124.27 335.26,128.25 339.14,132.36 342.89,136.6 346.49,140.97 349.94,145.45 353.23,150.05 356.36,154.76 359.34,159.57 362.15,164.48 364.79,169.48 367.25,174.57 369.55,179.75 371.66,184.99 373.6,190.31 375.36,195.68 376.93,201.12 378.32,206.6 379.51,212.13 380.53,217.7 381.35,223.29 381.98,228.92 382.42,234.56 382.66,240.21 382.72,245.86 382.58,251.52 382.25,257.17 381.73,262.8 381.02,268.41 380.11,274 379.02,279.55 377.74,285.06 376.27,290.52 374.62,295.93 372.79,301.28 370.77,306.57 368.58,311.78 366.21,316.92 363.67,321.97 360.95,326.94 358.07,331.8 355.03,336.57 351.83,341.23 348.47,345.79 344.95,350.22 341.29,354.53 337.48,358.72 333.54,362.77 329.46,366.68 325.24,370.46 320.91,374.09 316.45,377.57 311.87,380.9 307.19,384.07 302.4,387.08 297.51,389.92 292.52,392.6 287.45,395.1 282.3,397.44 277.07,399.59 271.76,401.57 266.4,403.36 260.98,404.97 255.5,406.4 249.98,407.64 244.43,408.69 238.83,409.55 233.22,410.22 227.58,410.7 221.93,410.99 216.28,411.09 216.28,405.35 216.28,399.61 216.28,393.87 216.28,388.13 216.28,382.39 216.28,376.65 216.28,370.91 216.28,365.17 216.28,359.43 216.28,353.69 216.28,347.95 216.28,342.21 216.28,336.47 216.28,330.74 216.28,325 216.28,319.26 216.28,313.52 216.28,307.78 216.28,302.04 216.28,296.3 216.28,290.56 216.28,284.82 216.28,279.08 216.28,273.34 216.28,267.6 216.28,261.86 216.28,256.12 216.28,250.38 216.28,244.64 216.28,244.64" stroke="none" fill="rgb(0,191,196)" stroke-width="1.07" stroke-dasharray="none" stroke-opacity="0" fill-opacity="1"/>
                </g>
                <g id="geom_polygon.polygon.3037.1" class="polygon grob gDesc">
                  <polygon id="geom_polygon.polygon.3037.1.1" points="216.28,244.64 216.28,250.38 216.28,256.12 216.28,261.86 216.28,267.6 216.28,273.34 216.28,279.08 216.28,284.82 216.28,290.56 216.28,296.3 216.28,302.04 216.28,307.78 216.28,313.52 216.28,319.26 216.28,325 216.28,330.74 216.28,336.47 216.28,342.21 216.28,347.95 216.28,353.69 216.28,359.43 216.28,365.17 216.28,370.91 216.28,376.65 216.28,382.39 216.28,388.13 216.28,393.87 216.28,399.61 216.28,405.35 216.28,411.09 210.64,410.99 205,410.71 199.38,410.23 193.78,409.56 188.21,408.7 182.67,407.66 177.16,406.43 171.7,405.01 166.3,403.41 160.95,401.62 155.66,399.66 150.44,397.52 145.3,395.2 140.24,392.71 135.27,390.04 130.39,387.22 125.61,384.22 120.93,381.07 116.36,377.76 111.91,374.3 107.58,370.69 103.37,366.94 99.29,363.04 95.34,359.01 91.54,354.85 87.88,350.56 84.36,346.15 81,341.62 77.79,336.98 74.74,332.23 71.86,327.39 69.14,322.45 66.58,317.42 64.2,312.31 62,307.11 59.97,301.85 58.12,296.52 56.46,291.13 54.97,285.69 53.67,280.2 52.56,274.68 51.64,269.11 50.9,263.52 50.36,257.91 50.01,252.28 49.84,246.64 55.58,246.57 61.32,246.5 67.06,246.43 72.8,246.36 78.54,246.29 84.28,246.23 90.02,246.16 95.76,246.09 101.49,246.02 107.23,245.95 112.97,245.88 118.71,245.81 124.45,245.74 130.19,245.68 135.93,245.61 141.67,245.54 147.41,245.47 153.15,245.4 158.88,245.33 164.62,245.26 170.36,245.19 176.1,245.12 181.84,245.06 187.58,244.99 193.32,244.92 199.06,244.85 204.8,244.78 210.54,244.71 216.28,244.64 216.28,244.64" stroke="none" fill="rgb(248,118,109)" stroke-width="1.07" stroke-dasharray="none" stroke-opacity="0" fill-opacity="1"/>
                </g>
              </g>
              <g id="GRID.text.3040.1" class="text grob gDesc">
                <g id="GRID.text.3040.1.1" transform="translate(274.77, 185.44)" stroke-width="0.1">
                  <g id="GRID.text.3040.1.1.scale" transform="scale(1, -1)">
                    <text x="0" y="0" id="GRID.text.3040.1.1.text" text-anchor="middle" stroke="rgb(0,0,0)" font-size="11.04" font-family="Helvetica, Arial, FreeSans, Liberation Sans, Nimbus Sans L, sans-serif" fill="rgb(0,0,0)" stroke-opacity="1" fill-opacity="1" font-weight="normal" font-style="normal">
                      <tspan id="GRID.text.3040.1.1.tspan.1" dy="3.95" x="0">197</tspan>
                    </text>
                  </g>
                </g>
                <g id="GRID.text.3040.1.2" transform="translate(157.78, 303.84)" stroke-width="0.1">
                  <g id="GRID.text.3040.1.2.scale" transform="scale(1, -1)">
                    <text x="0" y="0" id="GRID.text.3040.1.2.text" text-anchor="middle" stroke="rgb(0,0,0)" font-size="11.04" font-family="Helvetica, Arial, FreeSans, Liberation Sans, Nimbus Sans L, sans-serif" fill="rgb(0,0,0)" stroke-opacity="1" fill-opacity="1" font-weight="normal" font-style="normal">
                      <tspan id="GRID.text.3040.1.2.tspan.1" dy="3.95" x="0">65</tspan>
                    </text>
                  </g>
                </g>
              </g>
              <g id="GRID.gTree.3041.1" class="gTree grob gDesc"/>
            </g>
          </g>
          <g id="layout::spacer.8-6-8-6.1" class="viewport"/>
          <g id="layout::spacer.8-4-8-4.1" class="viewport"/>
          <g id="layout::spacer.6-6-6-6.1" class="viewport"/>
          <g id="layout::spacer.6-4-6-4.1" class="viewport"/>
          <g id="layout::axis-t.6-5-6-5.1" class="viewport"/>
          <g id="layout::axis-l.7-4-7-4.1" class="viewport">
            <g id="layout::axis-l.7-4-7-4::GRID.VP.731.1" class="viewport">
              <g id="axis-l.7-4-7-4.1" class="forcedgrob gTableChild absoluteGrob gTree grob gDesc">
                <g id="layout::axis-l.7-4-7-4::GRID.VP.731::axis.1" class="viewport">
                  <g id="axis.1" class="forcedgrob gtable gTree grob gDesc">
                    <g id="layout::axis-l.7-4-7-4::GRID.VP.731::axis::axis.1-1-1-1.1" class="viewport"/>
                    <g id="layout::axis-l.7-4-7-4::GRID.VP.731::axis::axis.1-2-1-2.1" class="viewport"/>
                  </g>
                </g>
              </g>
            </g>
          </g>
          <g id="layout::axis-r.7-6-7-6.1" class="viewport"/>
          <g id="layout::axis-b.8-5-8-5.1" class="viewport">
            <g id="layout::axis-b.8-5-8-5::GRID.VP.730.1" class="viewport">
              <g id="axis-b.8-5-8-5.1" class="forcedgrob gTableChild absoluteGrob gTree grob gDesc">
                <g id="layout::axis-b.8-5-8-5::GRID.VP.730::axis.1" class="viewport">
                  <g id="axis.2" class="forcedgrob gtable gTree grob gDesc">
                    <g id="layout::axis-b.8-5-8-5::GRID.VP.730::axis::axis.1-1-1-1.1" class="viewport"/>
                    <g id="layout::axis-b.8-5-8-5::GRID.VP.730::axis::axis.2-1-2-1.1" class="viewport"/>
                  </g>
                </g>
              </g>
            </g>
          </g>
          <g id="layout::xlab-t.5-5-5-5.1" class="viewport"/>
          <g id="layout::xlab-b.9-5-9-5.1" class="viewport"/>
          <g id="layout::ylab-l.7-3-7-3.1" class="viewport"/>
          <g id="layout::ylab-r.7-7-7-7.1" class="viewport"/>
          <g id="layout::guide-box.7-9-7-9.1" class="viewport">
            <g id="layout::guide-box.7-9-7-9::GRID.VP.739.1" class="viewport">
              <g id="layout::guide-box.7-9-7-9::GRID.VP.739::guide-box.7-9-7-9.1" class="viewport">
                <g id="guide-box.7-9-7-9.1" class="forcedgrob gTableChild gtable gTree grob gDesc">
                  <g id="layout::guide-box.7-9-7-9::GRID.VP.739::guide-box.7-9-7-9::legend.box.background.2-4-4-2.1" class="viewport"/>
                  <g id="layout::guide-box.7-9-7-9::GRID.VP.739::guide-box.7-9-7-9::guides.3-3-3-3.1" class="viewport">
                    <g id="layout::guide-box.7-9-7-9::GRID.VP.739::guide-box.7-9-7-9::guides.3-3-3-3::GRID.VP.738.1" class="viewport">
                      <g id="layout::guide-box.7-9-7-9::GRID.VP.739::guide-box.7-9-7-9::guides.3-3-3-3::GRID.VP.738::guides.3-3-3-3.1" class="viewport">
                        <g id="guides.3-3-3-3.1" class="forcedgrob gTableChild gtable gTree grob gDesc">
                          <g id="layout::guide-box.7-9-7-9::GRID.VP.739::guide-box.7-9-7-9::guides.3-3-3-3::GRID.VP.738::guides.3-3-3-3::background.1-6-6-1.1" class="viewport">
                            <g id="background.1-6-6-1.1" class="forcedgrob gTableChild rect grob gDesc">
                              <rect id="background.1-6-6-1.1.1" x="435.29" y="219.14" width="63.23" height="51" transform="" stroke-width="1.07" stroke="none" fill="rgb(255,255,255)" stroke-dasharray="none" stroke-opacity="0" fill-opacity="1"/>
                            </g>
                          </g>
                          <g id="layout::guide-box.7-9-7-9::GRID.VP.739::guide-box.7-9-7-9::guides.3-3-3-3::GRID.VP.738::guides.3-3-3-3::title.2-5-2-2.1" class="viewport"/>
                          <g id="layout::guide-box.7-9-7-9::GRID.VP.739::guide-box.7-9-7-9::guides.3-3-3-3::GRID.VP.738::guides.3-3-3-3::key-3-1-bg.4-2-4-2.1" class="viewport"/>
                          <g id="layout::guide-box.7-9-7-9::GRID.VP.739::guide-box.7-9-7-9::guides.3-3-3-3::GRID.VP.738::guides.3-3-3-3::key-3-1-1.4-2-4-2.1" class="viewport">
                            <g id="key-3-1-1.4-2-4-2.1" class="forcedgrob gTableChild rect grob gDesc">
                              <rect id="key-3-1-1.4-2-4-2.1.1" x="441.48" y="242.61" width="15.86" height="15.86" transform="" stroke="none" fill="rgb(248,118,109)" stroke-dasharray="none" stroke-width="1.07" stroke-linejoin="miter" stroke-opacity="0" fill-opacity="1"/>
                            </g>
                          </g>
                          <g id="layout::guide-box.7-9-7-9::GRID.VP.739::guide-box.7-9-7-9::guides.3-3-3-3::GRID.VP.738::guides.3-3-3-3::key-4-1-bg.5-2-5-2.1" class="viewport"/>
                          <g id="layout::guide-box.7-9-7-9::GRID.VP.739::guide-box.7-9-7-9::guides.3-3-3-3::GRID.VP.738::guides.3-3-3-3::key-4-1-1.5-2-5-2.1" class="viewport">
                            <g id="key-4-1-1.5-2-5-2.1" class="forcedgrob gTableChild rect grob gDesc">
                              <rect id="key-4-1-1.5-2-5-2.1.1" x="441.48" y="225.33" width="15.86" height="15.86" transform="" stroke="none" fill="rgb(0,191,196)" stroke-dasharray="none" stroke-width="1.07" stroke-linejoin="miter" stroke-opacity="0" fill-opacity="1"/>
                            </g>
                          </g>
                          <g id="layout::guide-box.7-9-7-9::GRID.VP.739::guide-box.7-9-7-9::guides.3-3-3-3::GRID.VP.738::guides.3-3-3-3::label-3-3.4-4-4-4.1" class="viewport">
                            <g id="layout::guide-box.7-9-7-9::GRID.VP.739::guide-box.7-9-7-9::guides.3-3-3-3::GRID.VP.738::guides.3-3-3-3::label-3-3.4-4-4-4::GRID.VP.736.1" class="viewport">
                              <g id="label-3-3.4-4-4-4.1" class="forcedgrob gTableChild gTree grob gDesc">
                                <g id="layout::guide-box.7-9-7-9::GRID.VP.739::guide-box.7-9-7-9::guides.3-3-3-3::GRID.VP.738::guides.3-3-3-3::label-3-3.4-4-4-4::GRID.VP.736::GRID.VP.732.1" font-size="8.8" stroke="rgb(0,0,0)" font-family="Helvetica, Arial, FreeSans, Liberation Sans, Nimbus Sans L, sans-serif" stroke-opacity="1" font-weight="normal" font-style="normal" class="viewport">
                                  <g id="layout::guide-box.7-9-7-9::GRID.VP.739::guide-box.7-9-7-9::guides.3-3-3-3::GRID.VP.738::guides.3-3-3-3::label-3-3.4-4-4-4::GRID.VP.736::GRID.VP.732::GRID.VP.733.1" class="viewport">
                                    <g id="guide.label.titleGrob.3064.1" class="titleGrob gTree grob gDesc">
                                      <g id="GRID.text.3062.1" class="text grob gDesc">
                                        <g id="GRID.text.3062.1.1" transform="translate(463.53, 250.54)" stroke-width="0.1">
                                          <g id="GRID.text.3062.1.1.scale" transform="scale(1, -1)">
                                            <text x="0" y="0" id="GRID.text.3062.1.1.text" text-anchor="start" font-size="8.8" stroke="rgb(0,0,0)" font-family="Helvetica, Arial, FreeSans, Liberation Sans, Nimbus Sans L, sans-serif" fill="rgb(0,0,0)" stroke-opacity="1" fill-opacity="1" font-weight="normal" font-style="normal">
                                              <tspan id="GRID.text.3062.1.1.tspan.1" dy="3.23" x="0">N (65)</tspan>
                                            </text>
                                          </g>
                                        </g>
                                      </g>
                                    </g>
                                  </g>
                                </g>
                              </g>
                            </g>
                          </g>
                          <g id="layout::guide-box.7-9-7-9::GRID.VP.739::guide-box.7-9-7-9::guides.3-3-3-3::GRID.VP.738::guides.3-3-3-3::label-4-3.5-4-5-4.1" class="viewport">
                            <g id="layout::guide-box.7-9-7-9::GRID.VP.739::guide-box.7-9-7-9::guides.3-3-3-3::GRID.VP.738::guides.3-3-3-3::label-4-3.5-4-5-4::GRID.VP.737.1" class="viewport">
                              <g id="label-4-3.5-4-5-4.1" class="forcedgrob gTableChild gTree grob gDesc">
                                <g id="layout::guide-box.7-9-7-9::GRID.VP.739::guide-box.7-9-7-9::guides.3-3-3-3::GRID.VP.738::guides.3-3-3-3::label-4-3.5-4-5-4::GRID.VP.737::GRID.VP.734.1" font-size="8.8" stroke="rgb(0,0,0)" font-family="Helvetica, Arial, FreeSans, Liberation Sans, Nimbus Sans L, sans-serif" stroke-opacity="1" font-weight="normal" font-style="normal" class="viewport">
                                  <g id="layout::guide-box.7-9-7-9::GRID.VP.739::guide-box.7-9-7-9::guides.3-3-3-3::GRID.VP.738::guides.3-3-3-3::label-4-3.5-4-5-4::GRID.VP.737::GRID.VP.734::GRID.VP.735.1" class="viewport">
                                    <g id="guide.label.titleGrob.3067.1" class="titleGrob gTree grob gDesc">
                                      <g id="GRID.text.3065.1" class="text grob gDesc">
                                        <g id="GRID.text.3065.1.1" transform="translate(463.53, 233.26)" stroke-width="0.1">
                                          <g id="GRID.text.3065.1.1.scale" transform="scale(1, -1)">
                                            <text x="0" y="0" id="GRID.text.3065.1.1.text" text-anchor="start" font-size="8.8" stroke="rgb(0,0,0)" font-family="Helvetica, Arial, FreeSans, Liberation Sans, Nimbus Sans L, sans-serif" fill="rgb(0,0,0)" stroke-opacity="1" fill-opacity="1" font-weight="normal" font-style="normal">
                                              <tspan id="GRID.text.3065.1.1.tspan.1" dy="3.23" x="0">S (197)</tspan>
                                            </text>
                                          </g>
                                        </g>
                                      </g>
                                    </g>
                                  </g>
                                </g>
                              </g>
                            </g>
                          </g>
                        </g>
                      </g>
                    </g>
                  </g>
                </g>
              </g>
            </g>
          </g>
          <g id="layout::subtitle.4-5-4-5.1" class="viewport"/>
          <g id="layout::title.3-5-3-5.1" class="viewport">
            <g id="layout::title.3-5-3-5::GRID.VP.740.1" font-size="13.2" stroke="rgb(102,102,102)" font-family="Helvetica, Arial, FreeSans, Liberation Sans, Nimbus Sans L, sans-serif" stroke-opacity="1" font-weight="normal" font-style="normal" class="viewport">
              <g id="layout::title.3-5-3-5::GRID.VP.740::GRID.VP.741.1" class="viewport">
                <g id="title.3-5-3-5.1" class="forcedgrob gTableChild titleGrob gTree grob gDesc">
                  <g id="GRID.text.3076.1" class="text grob gDesc">
                    <g id="GRID.text.3076.1.1" transform="translate(216.28, 470.15)" stroke-width="0.1">
                      <g id="GRID.text.3076.1.1.scale" transform="scale(1, -1)">
                        <text x="0" y="0" id="GRID.text.3076.1.1.text" text-anchor="middle" font-size="13.2" stroke="rgb(102,102,102)" font-family="Helvetica, Arial, FreeSans, Liberation Sans, Nimbus Sans L, sans-serif" fill="rgb(102,102,102)" stroke-opacity="1" fill-opacity="1" font-weight="normal" font-style="normal">
                          <tspan id="GRID.text.3076.1.1.tspan.1" dy="9.33" x="0">anagrafica problemi</tspan>
                        </text>
                      </g>
                    </g>
                  </g>
                </g>
              </g>
            </g>
          </g>
          <g id="layout::caption.10-5-10-5.1" class="viewport"/>
          <g id="layout::tag.2-2-2-2.1" class="viewport"/>
        </g>
      </g>
    </g>
  </g>
</svg>