<?xml version="1.0" encoding="UTF-8"?>
<svg xmlns="http://www.w3.org/2000/svg" xmlns:xlink="http://www.w3.org/1999/xlink" width="504px" height="504px" viewBox="0 0 504 504" version="1.1">
  <metadata xmlns:gridsvg="http://www.stat.auckland.ac.nz/~paul/R/gridSVG/">
    <gridsvg:generator name="gridSVG" version="1.6-0" time="2019-01-14 16:00:21"/>
    <gridsvg:argument name="name" value="./latest_informaggio_csv/risultati/svg/anagrafica-totali-sicurezza.svg"/>
    <gridsvg:argument name="exportCoords" value="none"/>
    <gridsvg:argument name="exportMappings" value="none"/>
    <gridsvg:argument name="exportJS" value="none"/>
    <gridsvg:argument name="res" value="72"/>
    <gridsvg:argument name="prefix" value=""/>
    <gridsvg:argument name="addClasses" value="TRUE"/>
    <gridsvg:argument name="indent" value="TRUE"/>
    <gridsvg:argument name="htmlWrapper" value="FALSE"/>
    <gridsvg:argument name="usePaths" value="vpPaths"/>
    <gridsvg:argument name="uniqueNames" value="TRUE"/>
    <gridsvg:separator name="id.sep" value="."/>
    <gridsvg:separator name="gPath.sep" value="::"/>
    <gridsvg:separator name="vpPath.sep" value="::"/>
  </metadata>
  <g transform="translate(0, 504) scale(1, -1)">
    <g id="gridSVG" fill="none" stroke="rgb(0,0,0)" stroke-dasharray="none" stroke-width="0.75" font-size="12" font-family="Helvetica, Arial, FreeSans, Liberation Sans, Nimbus Sans L, sans-serif" opacity="1" stroke-linecap="round" stroke-linejoin="round" stroke-miterlimit="10" stroke-opacity="1" fill-opacity="0" font-weight="normal" font-style="normal">
      <g id="layout.1" class="viewport">
        <g id="layout.2" class="forcedgrob gtable gTree grob gDesc">
          <defs>
            <clipPath id="layout::background.1-11-12-1.1.clipPath">
              <rect x="0" y="40.92" width="504" height="422.16" fill="none" stroke="none"/>
            </clipPath>
          </defs>
          <g id="layout::background.1-11-12-1.1" clip-path="url(#layout::background.1-11-12-1.1.clipPath)" class="viewport">
            <g id="background.1-11-12-1.1" class="forcedgrob gTableChild rect grob gDesc">
              <rect id="background.1-11-12-1.1.1" x="0" y="40.92" width="504" height="422.16" transform="" stroke-width="1.07" stroke="rgb(255,255,255)" fill="rgb(255,255,255)" stroke-dasharray="none" stroke-opacity="1" fill-opacity="1"/>
            </g>
          </g>
          <defs>
            <clipPath id="layout::panel.7-5-7-5.1.clipPath">
              <rect x="8.22" y="49.14" width="391" height="391" fill="none" stroke="none"/>
            </clipPath>
          </defs>
          <g id="layout::panel.7-5-7-5.1" clip-path="url(#layout::panel.7-5-7-5.1.clipPath)" class="viewport">
            <g id="panel.7-5-7-5.1" class="forcedgrob gTableChild gTree grob gDesc">
              <g id="grill.gTree.3490.1" class="gTree grob gDesc">
                <g id="panel.background..rect.3486.1" class="rect grob gDesc">
                  <rect id="panel.background..rect.3486.1.1" x="8.22" y="49.14" width="391" height="391" transform="" stroke-width="1.07" stroke="none" fill="rgb(255,255,255)" stroke-dasharray="none" stroke-opacity="0" fill-opacity="1"/>
                </g>
              </g>
              <g id="bar.gTree.3479.1" class="gTree grob gDesc">
                <g id="geom_polygon.polygon.3469.1" class="polygon grob gDesc">
                  <polygon id="geom_polygon.polygon.3469.1.1" points="203.72,244.64 205.06,239.42 206.4,234.19 207.74,228.97 209.08,223.75 210.41,218.52 211.75,213.3 213.09,208.07 214.43,202.85 215.77,197.62 217.11,192.4 218.45,187.18 219.79,181.95 221.12,176.73 222.46,171.5 223.8,166.28 225.14,161.05 226.48,155.83 227.82,150.6 229.16,145.38 230.5,140.16 231.83,134.93 233.17,129.71 234.51,124.48 235.85,119.26 237.19,114.03 238.53,108.81 239.87,103.59 241.21,98.36 242.54,93.14 247.67,94.54 252.75,96.13 257.77,97.88 262.73,99.8 267.62,101.89 272.44,104.15 277.18,106.57 281.83,109.14 286.39,111.88 290.86,114.76 295.22,117.8 299.48,120.99 303.63,124.31 307.67,127.78 311.58,131.38 315.37,135.12 319.03,138.98 322.55,142.96 325.94,147.06 329.19,151.27 332.29,155.59 335.25,160.01 338.05,164.53 340.69,169.15 343.18,173.85 345.51,178.63 347.67,183.49 349.67,188.42 351.49,193.42 353.15,198.47 354.63,203.58 355.94,208.73 357.08,213.93 358.03,219.16 358.81,224.42 359.41,229.71 359.83,235.01 360.06,240.32 360.12,245.64 359.99,250.96 359.69,256.27 359.2,261.57 358.54,266.84 357.69,272.1 356.67,277.31 355.47,282.5 354.1,287.63 352.55,292.72 350.83,297.76 348.94,302.73 346.88,307.63 344.65,312.46 342.27,317.21 339.72,321.88 337.01,326.46 334.15,330.95 331.14,335.33 327.99,339.61 324.69,343.78 321.24,347.84 317.67,351.78 313.96,355.59 310.12,359.27 306.16,362.82 302.09,366.24 297.89,369.51 293.59,372.64 289.19,375.63 284.69,378.46 280.09,381.13 275.41,383.65 270.64,386.01 265.79,388.2 260.87,390.23 255.89,392.09 250.85,393.78 245.75,395.29 240.6,396.63 235.41,397.8 230.19,398.79 224.93,399.6 219.65,400.23 214.35,400.68 209.04,400.95 203.72,401.04 203.72,395.65 203.72,390.26 203.72,384.86 203.72,379.47 203.72,374.08 203.72,368.69 203.72,363.29 203.72,357.9 203.72,352.51 203.72,347.11 203.72,341.72 203.72,336.33 203.72,330.93 203.72,325.54 203.72,320.15 203.72,314.75 203.72,309.36 203.72,303.97 203.72,298.57 203.72,293.18 203.72,287.79 203.72,282.4 203.72,277 203.72,271.61 203.72,266.22 203.72,260.82 203.72,255.43 203.72,250.04 203.72,244.64 203.72,244.64" stroke="none" fill="rgb(231,107,243)" stroke-width="1.07" stroke-dasharray="none" stroke-opacity="0" fill-opacity="1"/>
                </g>
                <g id="geom_polygon.polygon.3471.1" class="polygon grob gDesc">
                  <polygon id="geom_polygon.polygon.3471.1.1" points="203.72,244.64 200.08,248.62 196.44,252.6 192.8,256.58 189.16,260.57 185.53,264.55 181.89,268.53 178.25,272.51 174.61,276.49 170.97,280.47 167.33,284.45 163.69,288.43 160.05,292.41 156.41,296.39 152.78,300.37 149.14,304.35 145.5,308.33 141.86,312.31 138.22,316.29 134.58,320.27 130.94,324.25 127.3,328.23 123.66,332.21 120.03,336.19 116.39,340.17 112.75,344.15 109.11,348.14 105.47,352.12 101.83,356.1 98.19,360.08 94.33,356.42 90.59,352.64 86.99,348.73 83.52,344.7 80.18,340.56 77,336.31 73.95,331.95 71.06,327.48 68.32,322.93 65.74,318.28 63.32,313.55 61.05,308.73 58.96,303.85 57.03,298.89 55.27,293.87 53.68,288.8 52.27,283.67 51.03,278.5 49.97,273.29 49.08,268.05 48.37,262.78 47.85,257.49 47.5,252.19 47.34,246.87 47.35,241.55 47.55,236.24 47.92,230.94 48.48,225.65 49.21,220.38 50.13,215.14 51.22,209.94 52.49,204.78 53.93,199.66 55.54,194.59 57.33,189.59 59.29,184.64 61.41,179.77 63.7,174.97 66.15,170.25 68.75,165.61 71.52,161.07 74.44,156.63 77.5,152.28 80.72,148.05 84.07,143.92 87.56,139.91 91.19,136.02 94.95,132.26 98.83,128.63 102.83,125.13 106.95,121.77 111.19,118.55 115.53,115.48 119.97,112.56 124.51,109.79 129.14,107.17 133.85,104.72 138.65,102.42 143.52,100.29 148.46,98.33 153.47,96.54 158.53,94.91 163.65,93.46 168.81,92.19 174.01,91.09 179.25,90.17 184.51,89.43 189.8,88.86 195.1,88.48 200.42,88.28 205.73,88.25 211.05,88.41 216.35,88.75 221.65,89.27 226.92,89.97 232.16,90.85 237.37,91.9 242.54,93.14 241.21,98.36 239.87,103.59 238.53,108.81 237.19,114.03 235.85,119.26 234.51,124.48 233.17,129.71 231.83,134.93 230.5,140.16 229.16,145.38 227.82,150.6 226.48,155.83 225.14,161.05 223.8,166.28 222.46,171.5 221.12,176.73 219.79,181.95 218.45,187.18 217.11,192.4 215.77,197.62 214.43,202.85 213.09,208.07 211.75,213.3 210.41,218.52 209.08,223.75 207.74,228.97 206.4,234.19 205.06,239.42 203.72,244.64 203.72,244.64" stroke="none" fill="rgb(0,176,246)" stroke-width="1.07" stroke-dasharray="none" stroke-opacity="0" fill-opacity="1"/>
                </g>
                <g id="geom_polygon.polygon.3473.1" class="polygon grob gDesc">
                  <polygon id="geom_polygon.polygon.3473.1.1" points="203.72,244.64 202.32,249.85 200.92,255.06 199.52,260.27 198.12,265.48 196.72,270.68 195.31,275.89 193.91,281.1 192.51,286.31 191.11,291.52 189.71,296.72 188.31,301.93 186.91,307.14 185.51,312.35 184.11,317.55 182.71,322.76 181.3,327.97 179.9,333.18 178.5,338.39 177.1,343.59 175.7,348.8 174.3,354.01 172.9,359.22 171.5,364.43 170.1,369.63 168.69,374.84 167.29,380.05 165.89,385.26 164.49,390.47 163.09,395.67 157.96,394.2 152.88,392.55 147.87,390.73 142.91,388.74 138.03,386.58 133.23,384.26 128.5,381.77 123.87,379.12 119.33,376.32 114.88,373.36 110.54,370.26 106.31,367.01 102.19,363.61 98.19,360.08 101.83,356.1 105.47,352.12 109.11,348.14 112.75,344.15 116.39,340.17 120.03,336.19 123.66,332.21 127.3,328.23 130.94,324.25 134.58,320.27 138.22,316.29 141.86,312.31 145.5,308.33 149.14,304.35 152.78,300.37 156.41,296.39 160.05,292.41 163.69,288.43 167.33,284.45 170.97,280.47 174.61,276.49 178.25,272.51 181.89,268.53 185.53,264.55 189.16,260.57 192.8,256.58 196.44,252.6 200.08,248.62 203.72,244.64 203.72,244.64" stroke="none" fill="rgb(0,191,125)" stroke-width="1.07" stroke-dasharray="none" stroke-opacity="0" fill-opacity="1"/>
                </g>
                <g id="geom_polygon.polygon.3475.1" class="polygon grob gDesc">
                  <polygon id="geom_polygon.polygon.3475.1.1" points="203.72,244.64 203.21,250.01 202.69,255.38 202.18,260.75 201.66,266.12 201.15,271.49 200.63,276.85 200.12,282.22 199.6,287.59 199.09,292.96 198.57,298.33 198.06,303.7 197.55,309.07 197.03,314.43 196.52,319.8 196,325.17 195.49,330.54 194.97,335.91 194.46,341.28 193.94,346.65 193.43,352.01 192.91,357.38 192.4,362.75 191.89,368.12 191.37,373.49 190.86,378.86 190.34,384.23 189.83,389.59 189.31,394.96 188.8,400.33 182.3,399.57 175.85,398.54 169.44,397.24 163.09,395.67 164.49,390.47 165.89,385.26 167.29,380.05 168.69,374.84 170.1,369.63 171.5,364.43 172.9,359.22 174.3,354.01 175.7,348.8 177.1,343.59 178.5,338.39 179.9,333.18 181.3,327.97 182.71,322.76 184.11,317.55 185.51,312.35 186.91,307.14 188.31,301.93 189.71,296.72 191.11,291.52 192.51,286.31 193.91,281.1 195.31,275.89 196.72,270.68 198.12,265.48 199.52,260.27 200.92,255.06 202.32,249.85 203.72,244.64 203.72,244.64" stroke="none" fill="rgb(163,165,0)" stroke-width="1.07" stroke-dasharray="none" stroke-opacity="0" fill-opacity="1"/>
                </g>
                <g id="geom_polygon.polygon.3477.1" class="polygon grob gDesc">
                  <polygon id="geom_polygon.polygon.3477.1.1" points="203.72,244.64 203.72,250.04 203.72,255.43 203.72,260.82 203.72,266.22 203.72,271.61 203.72,277 203.72,282.4 203.72,287.79 203.72,293.18 203.72,298.57 203.72,303.97 203.72,309.36 203.72,314.75 203.72,320.15 203.72,325.54 203.72,330.93 203.72,336.33 203.72,341.72 203.72,347.11 203.72,352.51 203.72,357.9 203.72,363.29 203.72,368.69 203.72,374.08 203.72,379.47 203.72,384.86 203.72,390.26 203.72,395.65 203.72,401.04 196.25,400.87 188.8,400.33 189.31,394.96 189.83,389.59 190.34,384.23 190.86,378.86 191.37,373.49 191.89,368.12 192.4,362.75 192.91,357.38 193.43,352.01 193.94,346.65 194.46,341.28 194.97,335.91 195.49,330.54 196,325.17 196.52,319.8 197.03,314.43 197.55,309.07 198.06,303.7 198.57,298.33 199.09,292.96 199.6,287.59 200.12,282.22 200.63,276.85 201.15,271.49 201.66,266.12 202.18,260.75 202.69,255.38 203.21,250.01 203.72,244.64 203.72,244.64" stroke="none" fill="rgb(248,118,109)" stroke-width="1.07" stroke-dasharray="none" stroke-opacity="0" fill-opacity="1"/>
                </g>
              </g>
              <g id="GRID.text.3480.1" class="text grob gDesc">
                <g id="GRID.text.3480.1.1" transform="translate(281.31, 254.43)" stroke-width="0.1">
                  <g id="GRID.text.3480.1.1.scale" transform="scale(1, -1)">
                    <text x="0" y="0" id="GRID.text.3480.1.1.text" text-anchor="middle" stroke="rgb(0,0,0)" font-size="11.04" font-family="Helvetica, Arial, FreeSans, Liberation Sans, Nimbus Sans L, sans-serif" fill="rgb(0,0,0)" stroke-opacity="1" fill-opacity="1" font-weight="normal" font-style="normal">
                      <tspan id="GRID.text.3480.1.1.tspan.1" dy="3.95" x="0">121</tspan>
                    </text>
                  </g>
                </g>
                <g id="GRID.text.3480.1.2" transform="translate(134.93, 207.45)" stroke-width="0.1">
                  <g id="GRID.text.3480.1.2.scale" transform="scale(1, -1)">
                    <text x="0" y="0" id="GRID.text.3480.1.2.text" text-anchor="middle" stroke="rgb(0,0,0)" font-size="11.04" font-family="Helvetica, Arial, FreeSans, Liberation Sans, Nimbus Sans L, sans-serif" fill="rgb(0,0,0)" stroke-opacity="1" fill-opacity="1" font-weight="normal" font-style="normal">
                      <tspan id="GRID.text.3480.1.2.tspan.1" dy="3.95" x="0">111</tspan>
                    </text>
                  </g>
                </g>
                <g id="GRID.text.3480.1.3" transform="translate(166.11, 313.21)" stroke-width="0.1">
                  <g id="GRID.text.3480.1.3.scale" transform="scale(1, -1)">
                    <text x="0" y="0" id="GRID.text.3480.1.3.text" text-anchor="middle" stroke="rgb(0,0,0)" font-size="11.04" font-family="Helvetica, Arial, FreeSans, Liberation Sans, Nimbus Sans L, sans-serif" fill="rgb(0,0,0)" stroke-opacity="1" fill-opacity="1" font-weight="normal" font-style="normal">
                      <tspan id="GRID.text.3480.1.3.tspan.1" dy="3.95" x="0">20</tspan>
                    </text>
                  </g>
                </g>
                <g id="GRID.text.3480.1.4" transform="translate(189.78, 321.59)" stroke-width="0.1">
                  <g id="GRID.text.3480.1.4.scale" transform="scale(1, -1)">
                    <text x="0" y="0" id="GRID.text.3480.1.4.text" text-anchor="middle" stroke="rgb(0,0,0)" font-size="11.04" font-family="Helvetica, Arial, FreeSans, Liberation Sans, Nimbus Sans L, sans-serif" fill="rgb(0,0,0)" stroke-opacity="1" fill-opacity="1" font-weight="normal" font-style="normal">
                      <tspan id="GRID.text.3480.1.4.tspan.1" dy="3.95" x="0">7</tspan>
                    </text>
                  </g>
                </g>
                <g id="GRID.text.3480.1.5" transform="translate(199.99, 322.75)" stroke-width="0.1">
                  <g id="GRID.text.3480.1.5.scale" transform="scale(1, -1)">
                    <text x="0" y="0" id="GRID.text.3480.1.5.text" text-anchor="middle" stroke="rgb(0,0,0)" font-size="11.04" font-family="Helvetica, Arial, FreeSans, Liberation Sans, Nimbus Sans L, sans-serif" fill="rgb(0,0,0)" stroke-opacity="1" fill-opacity="1" font-weight="normal" font-style="normal">
                      <tspan id="GRID.text.3480.1.5.tspan.1" dy="3.95" x="0">4</tspan>
                    </text>
                  </g>
                </g>
              </g>
              <g id="GRID.gTree.3481.1" class="gTree grob gDesc"/>
            </g>
          </g>
          <g id="layout::spacer.8-6-8-6.1" class="viewport"/>
          <g id="layout::spacer.8-4-8-4.1" class="viewport"/>
          <g id="layout::spacer.6-6-6-6.1" class="viewport"/>
          <g id="layout::spacer.6-4-6-4.1" class="viewport"/>
          <g id="layout::axis-t.6-5-6-5.1" class="viewport"/>
          <g id="layout::axis-l.7-4-7-4.1" class="viewport">
            <g id="layout::axis-l.7-4-7-4::GRID.VP.833.1" class="viewport">
              <g id="axis-l.7-4-7-4.1" class="forcedgrob gTableChild absoluteGrob gTree grob gDesc">
                <g id="layout::axis-l.7-4-7-4::GRID.VP.833::axis.1" class="viewport">
                  <g id="axis.1" class="forcedgrob gtable gTree grob gDesc">
                    <g id="layout::axis-l.7-4-7-4::GRID.VP.833::axis::axis.1-1-1-1.1" class="viewport"/>
                    <g id="layout::axis-l.7-4-7-4::GRID.VP.833::axis::axis.1-2-1-2.1" class="viewport"/>
                  </g>
                </g>
              </g>
            </g>
          </g>
          <g id="layout::axis-r.7-6-7-6.1" class="viewport"/>
          <g id="layout::axis-b.8-5-8-5.1" class="viewport">
            <g id="layout::axis-b.8-5-8-5::GRID.VP.832.1" class="viewport">
              <g id="axis-b.8-5-8-5.1" class="forcedgrob gTableChild absoluteGrob gTree grob gDesc">
                <g id="layout::axis-b.8-5-8-5::GRID.VP.832::axis.1" class="viewport">
                  <g id="axis.2" class="forcedgrob gtable gTree grob gDesc">
                    <g id="layout::axis-b.8-5-8-5::GRID.VP.832::axis::axis.1-1-1-1.1" class="viewport"/>
                    <g id="layout::axis-b.8-5-8-5::GRID.VP.832::axis::axis.2-1-2-1.1" class="viewport"/>
                  </g>
                </g>
              </g>
            </g>
          </g>
          <g id="layout::xlab-t.5-5-5-5.1" class="viewport"/>
          <g id="layout::xlab-b.9-5-9-5.1" class="viewport"/>
          <g id="layout::ylab-l.7-3-7-3.1" class="viewport"/>
          <g id="layout::ylab-r.7-7-7-7.1" class="viewport"/>
          <g id="layout::guide-box.7-9-7-9.1" class="viewport">
            <g id="layout::guide-box.7-9-7-9::GRID.VP.850.1" class="viewport">
              <g id="layout::guide-box.7-9-7-9::GRID.VP.850::guide-box.7-9-7-9.1" class="viewport">
                <g id="guide-box.7-9-7-9.1" class="forcedgrob gTableChild gtable gTree grob gDesc">
                  <g id="layout::guide-box.7-9-7-9::GRID.VP.850::guide-box.7-9-7-9::legend.box.background.2-4-4-2.1" class="viewport"/>
                  <g id="layout::guide-box.7-9-7-9::GRID.VP.850::guide-box.7-9-7-9::guides.3-3-3-3.1" class="viewport">
                    <g id="layout::guide-box.7-9-7-9::GRID.VP.850::guide-box.7-9-7-9::guides.3-3-3-3::GRID.VP.849.1" class="viewport">
                      <g id="layout::guide-box.7-9-7-9::GRID.VP.850::guide-box.7-9-7-9::guides.3-3-3-3::GRID.VP.849::guides.3-3-3-3.1" class="viewport">
                        <g id="guides.3-3-3-3.1" class="forcedgrob gTableChild gtable gTree grob gDesc">
                          <g id="layout::guide-box.7-9-7-9::GRID.VP.850::guide-box.7-9-7-9::guides.3-3-3-3::GRID.VP.849::guides.3-3-3-3::background.1-6-9-1.1" class="viewport">
                            <g id="background.1-6-9-1.1" class="forcedgrob gTableChild rect grob gDesc">
                              <rect id="background.1-6-9-1.1.1" x="410.18" y="193.22" width="88.34" height="102.84" transform="" stroke-width="1.07" stroke="none" fill="rgb(255,255,255)" stroke-dasharray="none" stroke-opacity="0" fill-opacity="1"/>
                            </g>
                          </g>
                          <g id="layout::guide-box.7-9-7-9::GRID.VP.850::guide-box.7-9-7-9::guides.3-3-3-3::GRID.VP.849::guides.3-3-3-3::title.2-5-2-2.1" class="viewport"/>
                          <g id="layout::guide-box.7-9-7-9::GRID.VP.850::guide-box.7-9-7-9::guides.3-3-3-3::GRID.VP.849::guides.3-3-3-3::key-3-1-bg.4-2-4-2.1" class="viewport"/>
                          <g id="layout::guide-box.7-9-7-9::GRID.VP.850::guide-box.7-9-7-9::guides.3-3-3-3::GRID.VP.849::guides.3-3-3-3::key-3-1-1.4-2-4-2.1" class="viewport">
                            <g id="key-3-1-1.4-2-4-2.1" class="forcedgrob gTableChild rect grob gDesc">
                              <rect id="key-3-1-1.4-2-4-2.1.1" x="416.37" y="268.53" width="15.86" height="15.86" transform="" stroke="none" fill="rgb(248,118,109)" stroke-dasharray="none" stroke-width="1.07" stroke-linejoin="miter" stroke-opacity="0" fill-opacity="1"/>
                            </g>
                          </g>
                          <g id="layout::guide-box.7-9-7-9::GRID.VP.850::guide-box.7-9-7-9::guides.3-3-3-3::GRID.VP.849::guides.3-3-3-3::key-4-1-bg.5-2-5-2.1" class="viewport"/>
                          <g id="layout::guide-box.7-9-7-9::GRID.VP.850::guide-box.7-9-7-9::guides.3-3-3-3::GRID.VP.849::guides.3-3-3-3::key-4-1-1.5-2-5-2.1" class="viewport">
                            <g id="key-4-1-1.5-2-5-2.1" class="forcedgrob gTableChild rect grob gDesc">
                              <rect id="key-4-1-1.5-2-5-2.1.1" x="416.37" y="251.25" width="15.86" height="15.86" transform="" stroke="none" fill="rgb(163,165,0)" stroke-dasharray="none" stroke-width="1.07" stroke-linejoin="miter" stroke-opacity="0" fill-opacity="1"/>
                            </g>
                          </g>
                          <g id="layout::guide-box.7-9-7-9::GRID.VP.850::guide-box.7-9-7-9::guides.3-3-3-3::GRID.VP.849::guides.3-3-3-3::key-5-1-bg.6-2-6-2.1" class="viewport"/>
                          <g id="layout::guide-box.7-9-7-9::GRID.VP.850::guide-box.7-9-7-9::guides.3-3-3-3::GRID.VP.849::guides.3-3-3-3::key-5-1-1.6-2-6-2.1" class="viewport">
                            <g id="key-5-1-1.6-2-6-2.1" class="forcedgrob gTableChild rect grob gDesc">
                              <rect id="key-5-1-1.6-2-6-2.1.1" x="416.37" y="233.97" width="15.86" height="15.86" transform="" stroke="none" fill="rgb(0,191,125)" stroke-dasharray="none" stroke-width="1.07" stroke-linejoin="miter" stroke-opacity="0" fill-opacity="1"/>
                            </g>
                          </g>
                          <g id="layout::guide-box.7-9-7-9::GRID.VP.850::guide-box.7-9-7-9::guides.3-3-3-3::GRID.VP.849::guides.3-3-3-3::key-6-1-bg.7-2-7-2.1" class="viewport"/>
                          <g id="layout::guide-box.7-9-7-9::GRID.VP.850::guide-box.7-9-7-9::guides.3-3-3-3::GRID.VP.849::guides.3-3-3-3::key-6-1-1.7-2-7-2.1" class="viewport">
                            <g id="key-6-1-1.7-2-7-2.1" class="forcedgrob gTableChild rect grob gDesc">
                              <rect id="key-6-1-1.7-2-7-2.1.1" x="416.37" y="216.69" width="15.86" height="15.86" transform="" stroke="none" fill="rgb(0,176,246)" stroke-dasharray="none" stroke-width="1.07" stroke-linejoin="miter" stroke-opacity="0" fill-opacity="1"/>
                            </g>
                          </g>
                          <g id="layout::guide-box.7-9-7-9::GRID.VP.850::guide-box.7-9-7-9::guides.3-3-3-3::GRID.VP.849::guides.3-3-3-3::key-7-1-bg.8-2-8-2.1" class="viewport"/>
                          <g id="layout::guide-box.7-9-7-9::GRID.VP.850::guide-box.7-9-7-9::guides.3-3-3-3::GRID.VP.849::guides.3-3-3-3::key-7-1-1.8-2-8-2.1" class="viewport">
                            <g id="key-7-1-1.8-2-8-2.1" class="forcedgrob gTableChild rect grob gDesc">
                              <rect id="key-7-1-1.8-2-8-2.1.1" x="416.37" y="199.41" width="15.86" height="15.86" transform="" stroke="none" fill="rgb(231,107,243)" stroke-dasharray="none" stroke-width="1.07" stroke-linejoin="miter" stroke-opacity="0" fill-opacity="1"/>
                            </g>
                          </g>
                          <g id="layout::guide-box.7-9-7-9::GRID.VP.850::guide-box.7-9-7-9::guides.3-3-3-3::GRID.VP.849::guides.3-3-3-3::label-3-3.4-4-4-4.1" class="viewport">
                            <g id="layout::guide-box.7-9-7-9::GRID.VP.850::guide-box.7-9-7-9::guides.3-3-3-3::GRID.VP.849::guides.3-3-3-3::label-3-3.4-4-4-4::GRID.VP.844.1" class="viewport">
                              <g id="label-3-3.4-4-4-4.1" class="forcedgrob gTableChild gTree grob gDesc">
                                <g id="layout::guide-box.7-9-7-9::GRID.VP.850::guide-box.7-9-7-9::guides.3-3-3-3::GRID.VP.849::guides.3-3-3-3::label-3-3.4-4-4-4::GRID.VP.844::GRID.VP.834.1" font-size="8.8" stroke="rgb(0,0,0)" font-family="Helvetica, Arial, FreeSans, Liberation Sans, Nimbus Sans L, sans-serif" stroke-opacity="1" font-weight="normal" font-style="normal" class="viewport">
                                  <g id="layout::guide-box.7-9-7-9::GRID.VP.850::guide-box.7-9-7-9::guides.3-3-3-3::GRID.VP.849::guides.3-3-3-3::label-3-3.4-4-4-4::GRID.VP.844::GRID.VP.834::GRID.VP.835.1" class="viewport">
                                    <g id="guide.label.titleGrob.3504.1" class="titleGrob gTree grob gDesc">
                                      <g id="GRID.text.3502.1" class="text grob gDesc">
                                        <g id="GRID.text.3502.1.1" transform="translate(438.42, 276.46)" stroke-width="0.1">
                                          <g id="GRID.text.3502.1.1.scale" transform="scale(1, -1)">
                                            <text x="0" y="0" id="GRID.text.3502.1.1.text" text-anchor="start" font-size="8.8" stroke="rgb(0,0,0)" font-family="Helvetica, Arial, FreeSans, Liberation Sans, Nimbus Sans L, sans-serif" fill="rgb(0,0,0)" stroke-opacity="1" fill-opacity="1" font-weight="normal" font-style="normal">
                                              <tspan id="GRID.text.3502.1.1.tspan.1" dy="3.23" x="0">tutto (4)</tspan>
                                            </text>
                                          </g>
                                        </g>
                                      </g>
                                    </g>
                                  </g>
                                </g>
                              </g>
                            </g>
                          </g>
                          <g id="layout::guide-box.7-9-7-9::GRID.VP.850::guide-box.7-9-7-9::guides.3-3-3-3::GRID.VP.849::guides.3-3-3-3::label-4-3.5-4-5-4.1" class="viewport">
                            <g id="layout::guide-box.7-9-7-9::GRID.VP.850::guide-box.7-9-7-9::guides.3-3-3-3::GRID.VP.849::guides.3-3-3-3::label-4-3.5-4-5-4::GRID.VP.845.1" class="viewport">
                              <g id="label-4-3.5-4-5-4.1" class="forcedgrob gTableChild gTree grob gDesc">
                                <g id="layout::guide-box.7-9-7-9::GRID.VP.850::guide-box.7-9-7-9::guides.3-3-3-3::GRID.VP.849::guides.3-3-3-3::label-4-3.5-4-5-4::GRID.VP.845::GRID.VP.836.1" font-size="8.8" stroke="rgb(0,0,0)" font-family="Helvetica, Arial, FreeSans, Liberation Sans, Nimbus Sans L, sans-serif" stroke-opacity="1" font-weight="normal" font-style="normal" class="viewport">
                                  <g id="layout::guide-box.7-9-7-9::GRID.VP.850::guide-box.7-9-7-9::guides.3-3-3-3::GRID.VP.849::guides.3-3-3-3::label-4-3.5-4-5-4::GRID.VP.845::GRID.VP.836::GRID.VP.837.1" class="viewport">
                                    <g id="guide.label.titleGrob.3507.1" class="titleGrob gTree grob gDesc">
                                      <g id="GRID.text.3505.1" class="text grob gDesc">
                                        <g id="GRID.text.3505.1.1" transform="translate(438.42, 259.18)" stroke-width="0.1">
                                          <g id="GRID.text.3505.1.1.scale" transform="scale(1, -1)">
                                            <text x="0" y="0" id="GRID.text.3505.1.1.text" text-anchor="start" font-size="8.8" stroke="rgb(0,0,0)" font-family="Helvetica, Arial, FreeSans, Liberation Sans, Nimbus Sans L, sans-serif" fill="rgb(0,0,0)" stroke-opacity="1" fill-opacity="1" font-weight="normal" font-style="normal">
                                              <tspan id="GRID.text.3505.1.1.tspan.1" dy="3.23" x="0">nessuno (7)</tspan>
                                            </text>
                                          </g>
                                        </g>
                                      </g>
                                    </g>
                                  </g>
                                </g>
                              </g>
                            </g>
                          </g>
                          <g id="layout::guide-box.7-9-7-9::GRID.VP.850::guide-box.7-9-7-9::guides.3-3-3-3::GRID.VP.849::guides.3-3-3-3::label-5-3.6-4-6-4.1" class="viewport">
                            <g id="layout::guide-box.7-9-7-9::GRID.VP.850::guide-box.7-9-7-9::guides.3-3-3-3::GRID.VP.849::guides.3-3-3-3::label-5-3.6-4-6-4::GRID.VP.846.1" class="viewport">
                              <g id="label-5-3.6-4-6-4.1" class="forcedgrob gTableChild gTree grob gDesc">
                                <g id="layout::guide-box.7-9-7-9::GRID.VP.850::guide-box.7-9-7-9::guides.3-3-3-3::GRID.VP.849::guides.3-3-3-3::label-5-3.6-4-6-4::GRID.VP.846::GRID.VP.838.1" font-size="8.8" stroke="rgb(0,0,0)" font-family="Helvetica, Arial, FreeSans, Liberation Sans, Nimbus Sans L, sans-serif" stroke-opacity="1" font-weight="normal" font-style="normal" class="viewport">
                                  <g id="layout::guide-box.7-9-7-9::GRID.VP.850::guide-box.7-9-7-9::guides.3-3-3-3::GRID.VP.849::guides.3-3-3-3::label-5-3.6-4-6-4::GRID.VP.846::GRID.VP.838::GRID.VP.839.1" class="viewport">
                                    <g id="guide.label.titleGrob.3510.1" class="titleGrob gTree grob gDesc">
                                      <g id="GRID.text.3508.1" class="text grob gDesc">
                                        <g id="GRID.text.3508.1.1" transform="translate(438.42, 241.9)" stroke-width="0.1">
                                          <g id="GRID.text.3508.1.1.scale" transform="scale(1, -1)">
                                            <text x="0" y="0" id="GRID.text.3508.1.1.text" text-anchor="start" font-size="8.8" stroke="rgb(0,0,0)" font-family="Helvetica, Arial, FreeSans, Liberation Sans, Nimbus Sans L, sans-serif" fill="rgb(0,0,0)" stroke-opacity="1" fill-opacity="1" font-weight="normal" font-style="normal">
                                              <tspan id="GRID.text.3508.1.1.tspan.1" dy="3.23" x="0">avanzato (20)</tspan>
                                            </text>
                                          </g>
                                        </g>
                                      </g>
                                    </g>
                                  </g>
                                </g>
                              </g>
                            </g>
                          </g>
                          <g id="layout::guide-box.7-9-7-9::GRID.VP.850::guide-box.7-9-7-9::guides.3-3-3-3::GRID.VP.849::guides.3-3-3-3::label-6-3.7-4-7-4.1" class="viewport">
                            <g id="layout::guide-box.7-9-7-9::GRID.VP.850::guide-box.7-9-7-9::guides.3-3-3-3::GRID.VP.849::guides.3-3-3-3::label-6-3.7-4-7-4::GRID.VP.847.1" class="viewport">
                              <g id="label-6-3.7-4-7-4.1" class="forcedgrob gTableChild gTree grob gDesc">
                                <g id="layout::guide-box.7-9-7-9::GRID.VP.850::guide-box.7-9-7-9::guides.3-3-3-3::GRID.VP.849::guides.3-3-3-3::label-6-3.7-4-7-4::GRID.VP.847::GRID.VP.840.1" font-size="8.8" stroke="rgb(0,0,0)" font-family="Helvetica, Arial, FreeSans, Liberation Sans, Nimbus Sans L, sans-serif" stroke-opacity="1" font-weight="normal" font-style="normal" class="viewport">
                                  <g id="layout::guide-box.7-9-7-9::GRID.VP.850::guide-box.7-9-7-9::guides.3-3-3-3::GRID.VP.849::guides.3-3-3-3::label-6-3.7-4-7-4::GRID.VP.847::GRID.VP.840::GRID.VP.841.1" class="viewport">
                                    <g id="guide.label.titleGrob.3513.1" class="titleGrob gTree grob gDesc">
                                      <g id="GRID.text.3511.1" class="text grob gDesc">
                                        <g id="GRID.text.3511.1.1" transform="translate(438.42, 224.62)" stroke-width="0.1">
                                          <g id="GRID.text.3511.1.1.scale" transform="scale(1, -1)">
                                            <text x="0" y="0" id="GRID.text.3511.1.1.text" text-anchor="start" font-size="8.8" stroke="rgb(0,0,0)" font-family="Helvetica, Arial, FreeSans, Liberation Sans, Nimbus Sans L, sans-serif" fill="rgb(0,0,0)" stroke-opacity="1" fill-opacity="1" font-weight="normal" font-style="normal">
                                              <tspan id="GRID.text.3511.1.1.tspan.1" dy="3.23" x="0">base (111)</tspan>
                                            </text>
                                          </g>
                                        </g>
                                      </g>
                                    </g>
                                  </g>
                                </g>
                              </g>
                            </g>
                          </g>
                          <g id="layout::guide-box.7-9-7-9::GRID.VP.850::guide-box.7-9-7-9::guides.3-3-3-3::GRID.VP.849::guides.3-3-3-3::label-7-3.8-4-8-4.1" class="viewport">
                            <g id="layout::guide-box.7-9-7-9::GRID.VP.850::guide-box.7-9-7-9::guides.3-3-3-3::GRID.VP.849::guides.3-3-3-3::label-7-3.8-4-8-4::GRID.VP.848.1" class="viewport">
                              <g id="label-7-3.8-4-8-4.1" class="forcedgrob gTableChild gTree grob gDesc">
                                <g id="layout::guide-box.7-9-7-9::GRID.VP.850::guide-box.7-9-7-9::guides.3-3-3-3::GRID.VP.849::guides.3-3-3-3::label-7-3.8-4-8-4::GRID.VP.848::GRID.VP.842.1" font-size="8.8" stroke="rgb(0,0,0)" font-family="Helvetica, Arial, FreeSans, Liberation Sans, Nimbus Sans L, sans-serif" stroke-opacity="1" font-weight="normal" font-style="normal" class="viewport">
                                  <g id="layout::guide-box.7-9-7-9::GRID.VP.850::guide-box.7-9-7-9::guides.3-3-3-3::GRID.VP.849::guides.3-3-3-3::label-7-3.8-4-8-4::GRID.VP.848::GRID.VP.842::GRID.VP.843.1" class="viewport">
                                    <g id="guide.label.titleGrob.3516.1" class="titleGrob gTree grob gDesc">
                                      <g id="GRID.text.3514.1" class="text grob gDesc">
                                        <g id="GRID.text.3514.1.1" transform="translate(438.42, 207.34)" stroke-width="0.1">
                                          <g id="GRID.text.3514.1.1.scale" transform="scale(1, -1)">
                                            <text x="0" y="0" id="GRID.text.3514.1.1.text" text-anchor="start" font-size="8.8" stroke="rgb(0,0,0)" font-family="Helvetica, Arial, FreeSans, Liberation Sans, Nimbus Sans L, sans-serif" fill="rgb(0,0,0)" stroke-opacity="1" fill-opacity="1" font-weight="normal" font-style="normal">
                                              <tspan id="GRID.text.3514.1.1.tspan.1" dy="3.23" x="0">medio (121)</tspan>
                                            </text>
                                          </g>
                                        </g>
                                      </g>
                                    </g>
                                  </g>
                                </g>
                              </g>
                            </g>
                          </g>
                        </g>
                      </g>
                    </g>
                  </g>
                </g>
              </g>
            </g>
          </g>
          <g id="layout::subtitle.4-5-4-5.1" class="viewport"/>
          <g id="layout::title.3-5-3-5.1" class="viewport">
            <g id="layout::title.3-5-3-5::GRID.VP.851.1" font-size="13.2" stroke="rgb(102,102,102)" font-family="Helvetica, Arial, FreeSans, Liberation Sans, Nimbus Sans L, sans-serif" stroke-opacity="1" font-weight="normal" font-style="normal" class="viewport">
              <g id="layout::title.3-5-3-5::GRID.VP.851::GRID.VP.852.1" class="viewport">
                <g id="title.3-5-3-5.1" class="forcedgrob gTableChild titleGrob gTree grob gDesc">
                  <g id="GRID.text.3534.1" class="text grob gDesc">
                    <g id="GRID.text.3534.1.1" transform="translate(203.72, 457.6)" stroke-width="0.1">
                      <g id="GRID.text.3534.1.1.scale" transform="scale(1, -1)">
                        <text x="0" y="0" id="GRID.text.3534.1.1.text" text-anchor="middle" font-size="13.2" stroke="rgb(102,102,102)" font-family="Helvetica, Arial, FreeSans, Liberation Sans, Nimbus Sans L, sans-serif" fill="rgb(102,102,102)" stroke-opacity="1" fill-opacity="1" font-weight="normal" font-style="normal">
                          <tspan id="GRID.text.3534.1.1.tspan.1" dy="9.33" x="0">anagrafica totali-sicurezza</tspan>
                        </text>
                      </g>
                    </g>
                  </g>
                </g>
              </g>
            </g>
          </g>
          <g id="layout::caption.10-5-10-5.1" class="viewport"/>
          <g id="layout::tag.2-2-2-2.1" class="viewport"/>
        </g>
      </g>
    </g>
  </g>
</svg>