<?xml version="1.0" encoding="UTF-8"?>
<svg xmlns="http://www.w3.org/2000/svg" xmlns:xlink="http://www.w3.org/1999/xlink" width="504px" height="504px" viewBox="0 0 504 504" version="1.1">
  <metadata xmlns:gridsvg="http://www.stat.auckland.ac.nz/~paul/R/gridSVG/">
    <gridsvg:generator name="gridSVG" version="1.6-0" time="2019-01-18 23:13:28"/>
    <gridsvg:argument name="name" value="./latest_informaggio_csv/risultati/svg/anagrafica-creazionecontenuti.svg"/>
    <gridsvg:argument name="exportCoords" value="none"/>
    <gridsvg:argument name="exportMappings" value="none"/>
    <gridsvg:argument name="exportJS" value="none"/>
    <gridsvg:argument name="res" value="72"/>
    <gridsvg:argument name="prefix" value=""/>
    <gridsvg:argument name="addClasses" value="TRUE"/>
    <gridsvg:argument name="indent" value="TRUE"/>
    <gridsvg:argument name="htmlWrapper" value="FALSE"/>
    <gridsvg:argument name="usePaths" value="vpPaths"/>
    <gridsvg:argument name="uniqueNames" value="TRUE"/>
    <gridsvg:separator name="id.sep" value="."/>
    <gridsvg:separator name="gPath.sep" value="::"/>
    <gridsvg:separator name="vpPath.sep" value="::"/>
  </metadata>
  <g transform="translate(0, 504) scale(1, -1)">
    <g id="gridSVG" fill="none" stroke="rgb(0,0,0)" stroke-dasharray="none" stroke-width="0.75" font-size="12" font-family="Helvetica, Arial, FreeSans, Liberation Sans, Nimbus Sans L, sans-serif" opacity="1" stroke-linecap="round" stroke-linejoin="round" stroke-miterlimit="10" stroke-opacity="1" fill-opacity="0" font-weight="normal" font-style="normal">
      <g id="layout.1" class="viewport">
        <g id="layout.2" class="forcedgrob gtable gTree grob gDesc">
          <defs>
            <clipPath id="layout::background.1-11-12-1.1.clipPath">
              <rect x="0" y="40.92" width="504" height="422.16" fill="none" stroke="none"/>
            </clipPath>
          </defs>
          <g id="layout::background.1-11-12-1.1" clip-path="url(#layout::background.1-11-12-1.1.clipPath)" class="viewport">
            <g id="background.1-11-12-1.1" class="forcedgrob gTableChild rect grob gDesc">
              <rect id="background.1-11-12-1.1.1" x="0" y="40.92" width="504" height="422.16" transform="" stroke-width="1.07" stroke="rgb(255,255,255)" fill="rgb(255,255,255)" stroke-dasharray="none" stroke-opacity="1" fill-opacity="1"/>
            </g>
          </g>
          <defs>
            <clipPath id="layout::panel.7-5-7-5.1.clipPath">
              <rect x="8.22" y="49.14" width="391" height="391" fill="none" stroke="none"/>
            </clipPath>
          </defs>
          <g id="layout::panel.7-5-7-5.1" clip-path="url(#layout::panel.7-5-7-5.1.clipPath)" class="viewport">
            <g id="panel.7-5-7-5.1" class="forcedgrob gTableChild gTree grob gDesc">
              <g id="grill.gTree.1685.1" class="gTree grob gDesc">
                <g id="panel.background..rect.1681.1" class="rect grob gDesc">
                  <rect id="panel.background..rect.1681.1.1" x="8.22" y="49.14" width="391" height="391" transform="" stroke-width="1.07" stroke="none" fill="rgb(255,255,255)" stroke-dasharray="none" stroke-opacity="0" fill-opacity="1"/>
                </g>
              </g>
              <g id="bar.gTree.1674.1" class="gTree grob gDesc">
                <g id="geom_polygon.polygon.1664.1" class="polygon grob gDesc">
                  <polygon id="geom_polygon.polygon.1664.1.1" points="203.72,244.64 201.66,239.66 199.59,234.68 197.53,229.7 195.47,224.71 193.4,219.73 191.34,214.75 189.27,209.76 187.21,204.78 185.15,199.8 183.08,194.82 181.02,189.83 178.95,184.85 176.89,179.87 174.83,174.89 172.76,169.9 170.7,164.92 168.63,159.94 166.57,154.96 164.51,149.97 162.44,144.99 160.38,140.01 158.32,135.03 156.25,130.04 154.19,125.06 152.12,120.08 150.06,115.1 148,110.11 145.93,105.13 143.87,100.15 148.81,98.2 153.82,96.42 158.89,94.81 164,93.37 169.16,92.11 174.37,91.02 179.6,90.11 184.87,89.38 190.15,88.83 195.46,88.46 200.77,88.27 206.08,88.26 211.39,88.43 216.7,88.78 221.99,89.31 227.25,90.02 232.49,90.91 237.7,91.98 242.87,93.22 247.99,94.64 253.06,96.23 258.08,97.99 263.03,99.92 267.91,102.02 272.72,104.28 277.45,106.71 282.09,109.29 286.65,112.04 291.1,114.93 295.46,117.97 299.71,121.16 303.85,124.5 307.88,127.97 311.78,131.57 315.56,135.31 319.21,139.17 322.73,143.16 326.11,147.26 329.34,151.48 332.44,155.8 335.38,160.22 338.17,164.74 340.81,169.36 343.29,174.06 345.61,178.84 347.76,183.7 349.75,188.63 351.57,193.62 353.21,198.68 354.69,203.78 355.99,208.94 357.12,214.13 358.06,219.36 358.83,224.62 359.43,229.9 359.84,235.2 360.07,240.51 360.12,245.82 359.99,251.14 359.68,256.44 359.19,261.74 358.51,267.01 357.67,272.25 356.64,277.47 355.43,282.65 354.06,287.78 352.5,292.86 350.78,297.89 348.89,302.85 346.82,307.75 344.6,312.58 342.21,317.33 339.66,321.99 336.95,326.56 334.09,331.04 331.08,335.42 327.92,339.7 324.62,343.86 321.18,347.91 317.6,351.84 313.89,355.65 310.06,359.33 306.1,362.88 302.02,366.29 297.83,369.56 293.54,372.68 289.13,375.66 284.63,378.49 280.04,381.16 275.36,383.67 270.59,386.03 265.75,388.22 260.83,390.24 255.85,392.1 250.81,393.79 245.72,395.3 240.58,396.64 235.39,397.8 230.17,398.79 224.92,399.6 219.64,400.23 214.34,400.68 209.03,400.95 203.72,401.04 203.72,395.65 203.72,390.26 203.72,384.86 203.72,379.47 203.72,374.08 203.72,368.69 203.72,363.29 203.72,357.9 203.72,352.51 203.72,347.11 203.72,341.72 203.72,336.33 203.72,330.93 203.72,325.54 203.72,320.15 203.72,314.75 203.72,309.36 203.72,303.97 203.72,298.57 203.72,293.18 203.72,287.79 203.72,282.4 203.72,277 203.72,271.61 203.72,266.22 203.72,260.82 203.72,255.43 203.72,250.04 203.72,244.64 203.72,244.64" stroke="none" fill="rgb(231,107,243)" stroke-width="1.07" stroke-dasharray="none" stroke-opacity="0" fill-opacity="1"/>
                </g>
                <g id="geom_polygon.polygon.1666.1" class="polygon grob gDesc">
                  <polygon id="geom_polygon.polygon.1666.1.1" points="203.72,244.64 200,248.54 196.27,252.44 192.55,256.34 188.82,260.25 185.1,264.15 181.37,268.05 177.65,271.95 173.93,275.85 170.2,279.75 166.48,283.65 162.75,287.55 159.03,291.45 155.3,295.35 151.58,299.25 147.85,303.15 144.13,307.05 140.41,310.95 136.68,314.85 132.96,318.75 129.23,322.66 125.51,326.56 121.78,330.46 118.06,334.36 114.33,338.26 110.61,342.16 106.89,346.06 103.16,349.96 99.44,353.86 95.71,357.76 91.9,354 88.22,350.1 84.68,346.08 81.28,341.95 78.01,337.7 74.9,333.34 71.94,328.88 69.13,324.31 66.48,319.66 63.99,314.91 61.67,310.09 59.51,305.19 57.52,300.21 55.71,295.17 54.06,290.07 52.6,284.92 51.3,279.72 50.19,274.48 49.26,269.21 48.51,263.9 47.94,258.58 47.56,253.23 47.35,247.88 47.33,242.53 47.5,237.17 47.85,231.83 48.38,226.5 49.09,221.19 49.98,215.9 51.06,210.66 52.31,205.45 53.74,200.29 55.35,195.18 57.13,190.12 59.08,185.14 61.2,180.22 63.49,175.38 65.95,170.61 68.56,165.94 71.34,161.36 74.27,156.87 77.35,152.49 80.58,148.22 83.95,144.06 87.47,140.01 91.12,136.1 94.9,132.3 98.82,128.64 102.85,125.12 107,121.73 111.27,118.49 115.64,115.4 120.12,112.46 124.69,109.68 129.36,107.05 134.12,104.58 138.96,102.28 143.87,100.15 145.93,105.13 148,110.11 150.06,115.1 152.12,120.08 154.19,125.06 156.25,130.04 158.32,135.03 160.38,140.01 162.44,144.99 164.51,149.97 166.57,154.96 168.63,159.94 170.7,164.92 172.76,169.9 174.83,174.89 176.89,179.87 178.95,184.85 181.02,189.83 183.08,194.82 185.15,199.8 187.21,204.78 189.27,209.76 191.34,214.75 193.4,219.73 195.47,224.71 197.53,229.7 199.59,234.68 201.66,239.66 203.72,244.64 203.72,244.64" stroke="none" fill="rgb(0,176,246)" stroke-width="1.07" stroke-dasharray="none" stroke-opacity="0" fill-opacity="1"/>
                </g>
                <g id="geom_polygon.polygon.1668.1" class="polygon grob gDesc">
                  <polygon id="geom_polygon.polygon.1668.1.1" points="203.72,244.64 201.77,249.67 199.82,254.7 197.88,259.73 195.93,264.76 193.98,269.79 192.03,274.82 190.08,279.85 188.13,284.87 186.19,289.9 184.24,294.93 182.29,299.96 180.34,304.99 178.39,310.02 176.45,315.05 174.5,320.08 172.55,325.11 170.6,330.14 168.65,335.16 166.7,340.19 164.76,345.22 162.81,350.25 160.86,355.28 158.91,360.31 156.96,365.34 155.02,370.37 153.07,375.4 151.12,380.43 149.17,385.45 147.22,390.48 142.05,388.37 136.96,386.08 131.96,383.61 127.04,380.96 122.23,378.13 117.51,375.14 112.91,371.98 108.42,368.66 104.06,365.18 99.82,361.54 95.71,357.76 99.44,353.86 103.16,349.96 106.89,346.06 110.61,342.16 114.33,338.26 118.06,334.36 121.78,330.46 125.51,326.56 129.23,322.66 132.96,318.75 136.68,314.85 140.41,310.95 144.13,307.05 147.85,303.15 151.58,299.25 155.3,295.35 159.03,291.45 162.75,287.55 166.48,283.65 170.2,279.75 173.93,275.85 177.65,271.95 181.37,268.05 185.1,264.15 188.82,260.25 192.55,256.34 196.27,252.44 200,248.54 203.72,244.64 203.72,244.64" stroke="none" fill="rgb(0,191,125)" stroke-width="1.07" stroke-dasharray="none" stroke-opacity="0" fill-opacity="1"/>
                </g>
                <g id="geom_polygon.polygon.1670.1" class="polygon grob gDesc">
                  <polygon id="geom_polygon.polygon.1670.1.1" points="203.72,244.64 203.35,250.02 202.97,255.4 202.6,260.78 202.23,266.16 201.85,271.54 201.48,276.92 201.11,282.3 200.73,287.68 200.36,293.06 199.99,298.45 199.61,303.83 199.24,309.21 198.87,314.59 198.49,319.97 198.12,325.35 197.75,330.73 197.37,336.11 197,341.49 196.63,346.87 196.25,352.25 195.88,357.63 195.5,363.01 195.13,368.39 194.76,373.77 194.38,379.15 194.01,384.53 193.64,389.91 193.26,395.29 192.89,400.67 187.04,400.15 181.22,399.42 175.43,398.46 169.67,397.29 163.97,395.91 158.32,394.31 152.74,392.5 147.22,390.48 149.17,385.45 151.12,380.43 153.07,375.4 155.02,370.37 156.96,365.34 158.91,360.31 160.86,355.28 162.81,350.25 164.76,345.22 166.7,340.19 168.65,335.16 170.6,330.14 172.55,325.11 174.5,320.08 176.45,315.05 178.39,310.02 180.34,304.99 182.29,299.96 184.24,294.93 186.19,289.9 188.13,284.87 190.08,279.85 192.03,274.82 193.98,269.79 195.93,264.76 197.88,259.73 199.82,254.7 201.77,249.67 203.72,244.64 203.72,244.64" stroke="none" fill="rgb(163,165,0)" stroke-width="1.07" stroke-dasharray="none" stroke-opacity="0" fill-opacity="1"/>
                </g>
                <g id="geom_polygon.polygon.1672.1" class="polygon grob gDesc">
                  <polygon id="geom_polygon.polygon.1672.1.1" points="203.72,244.64 203.72,250.04 203.72,255.43 203.72,260.82 203.72,266.22 203.72,271.61 203.72,277 203.72,282.4 203.72,287.79 203.72,293.18 203.72,298.57 203.72,303.97 203.72,309.36 203.72,314.75 203.72,320.15 203.72,325.54 203.72,330.93 203.72,336.33 203.72,341.72 203.72,347.11 203.72,352.51 203.72,357.9 203.72,363.29 203.72,368.69 203.72,374.08 203.72,379.47 203.72,384.86 203.72,390.26 203.72,395.65 203.72,401.04 198.3,400.95 192.89,400.67 193.26,395.29 193.64,389.91 194.01,384.53 194.38,379.15 194.76,373.77 195.13,368.39 195.5,363.01 195.88,357.63 196.25,352.25 196.63,346.87 197,341.49 197.37,336.11 197.75,330.73 198.12,325.35 198.49,319.97 198.87,314.59 199.24,309.21 199.61,303.83 199.99,298.45 200.36,293.06 200.73,287.68 201.11,282.3 201.48,276.92 201.85,271.54 202.23,266.16 202.6,260.78 202.97,255.4 203.35,250.02 203.72,244.64 203.72,244.64" stroke="none" fill="rgb(248,118,109)" stroke-width="1.07" stroke-dasharray="none" stroke-opacity="0" fill-opacity="1"/>
                </g>
              </g>
              <g id="GRID.text.1675.1" class="text grob gDesc">
                <g id="GRID.text.1675.1.1" transform="translate(280.42, 229.39)" stroke-width="0.1">
                  <g id="GRID.text.1675.1.1.scale" transform="scale(1, -1)">
                    <text x="0" y="0" id="GRID.text.1675.1.1.text" text-anchor="middle" stroke="rgb(0,0,0)" font-size="11.04" font-family="Helvetica, Arial, FreeSans, Liberation Sans, Nimbus Sans L, sans-serif" fill="rgb(0,0,0)" stroke-opacity="1" fill-opacity="1" font-weight="normal" font-style="normal">
                      <tspan id="GRID.text.1675.1.1.tspan.1" dy="3.95" x="0">153</tspan>
                    </text>
                  </g>
                </g>
                <g id="GRID.text.1675.1.2" transform="translate(126.85, 230.27)" stroke-width="0.1">
                  <g id="GRID.text.1675.1.2.scale" transform="scale(1, -1)">
                    <text x="0" y="0" id="GRID.text.1675.1.2.text" text-anchor="middle" stroke="rgb(0,0,0)" font-size="11.04" font-family="Helvetica, Arial, FreeSans, Liberation Sans, Nimbus Sans L, sans-serif" fill="rgb(0,0,0)" stroke-opacity="1" fill-opacity="1" font-weight="normal" font-style="normal">
                      <tspan id="GRID.text.1675.1.2.tspan.1" dy="3.95" x="0">86</tspan>
                    </text>
                  </g>
                </g>
                <g id="GRID.text.1675.1.3" transform="translate(161.79, 310.65)" stroke-width="0.1">
                  <g id="GRID.text.1675.1.3.scale" transform="scale(1, -1)">
                    <text x="0" y="0" id="GRID.text.1675.1.3.text" text-anchor="middle" stroke="rgb(0,0,0)" font-size="11.04" font-family="Helvetica, Arial, FreeSans, Liberation Sans, Nimbus Sans L, sans-serif" fill="rgb(0,0,0)" stroke-opacity="1" fill-opacity="1" font-weight="normal" font-style="normal">
                      <tspan id="GRID.text.1675.1.3.tspan.1" dy="3.95" x="0">17</tspan>
                    </text>
                  </g>
                </g>
                <g id="GRID.text.1675.1.4" transform="translate(186.7, 320.97)" stroke-width="0.1">
                  <g id="GRID.text.1675.1.4.scale" transform="scale(1, -1)">
                    <text x="0" y="0" id="GRID.text.1675.1.4.text" text-anchor="middle" stroke="rgb(0,0,0)" font-size="11.04" font-family="Helvetica, Arial, FreeSans, Liberation Sans, Nimbus Sans L, sans-serif" fill="rgb(0,0,0)" stroke-opacity="1" fill-opacity="1" font-weight="normal" font-style="normal">
                      <tspan id="GRID.text.1675.1.4.tspan.1" dy="3.95" x="0">13</tspan>
                    </text>
                  </g>
                </g>
                <g id="GRID.text.1675.1.5" transform="translate(201.01, 322.8)" stroke-width="0.1">
                  <g id="GRID.text.1675.1.5.scale" transform="scale(1, -1)">
                    <text x="0" y="0" id="GRID.text.1675.1.5.text" text-anchor="middle" stroke="rgb(0,0,0)" font-size="11.04" font-family="Helvetica, Arial, FreeSans, Liberation Sans, Nimbus Sans L, sans-serif" fill="rgb(0,0,0)" stroke-opacity="1" fill-opacity="1" font-weight="normal" font-style="normal">
                      <tspan id="GRID.text.1675.1.5.tspan.1" dy="3.95" x="0">3</tspan>
                    </text>
                  </g>
                </g>
              </g>
              <g id="GRID.gTree.1676.1" class="gTree grob gDesc"/>
            </g>
          </g>
          <g id="layout::spacer.8-6-8-6.1" class="viewport"/>
          <g id="layout::spacer.8-4-8-4.1" class="viewport"/>
          <g id="layout::spacer.6-6-6-6.1" class="viewport"/>
          <g id="layout::spacer.6-4-6-4.1" class="viewport"/>
          <g id="layout::axis-t.6-5-6-5.1" class="viewport"/>
          <g id="layout::axis-l.7-4-7-4.1" class="viewport">
            <g id="layout::axis-l.7-4-7-4::GRID.VP.398.1" class="viewport">
              <g id="axis-l.7-4-7-4.1" class="forcedgrob gTableChild absoluteGrob gTree grob gDesc">
                <g id="layout::axis-l.7-4-7-4::GRID.VP.398::axis.1" class="viewport">
                  <g id="axis.1" class="forcedgrob gtable gTree grob gDesc">
                    <g id="layout::axis-l.7-4-7-4::GRID.VP.398::axis::axis.1-1-1-1.1" class="viewport"/>
                    <g id="layout::axis-l.7-4-7-4::GRID.VP.398::axis::axis.1-2-1-2.1" class="viewport"/>
                  </g>
                </g>
              </g>
            </g>
          </g>
          <g id="layout::axis-r.7-6-7-6.1" class="viewport"/>
          <g id="layout::axis-b.8-5-8-5.1" class="viewport">
            <g id="layout::axis-b.8-5-8-5::GRID.VP.397.1" class="viewport">
              <g id="axis-b.8-5-8-5.1" class="forcedgrob gTableChild absoluteGrob gTree grob gDesc">
                <g id="layout::axis-b.8-5-8-5::GRID.VP.397::axis.1" class="viewport">
                  <g id="axis.2" class="forcedgrob gtable gTree grob gDesc">
                    <g id="layout::axis-b.8-5-8-5::GRID.VP.397::axis::axis.1-1-1-1.1" class="viewport"/>
                    <g id="layout::axis-b.8-5-8-5::GRID.VP.397::axis::axis.2-1-2-1.1" class="viewport"/>
                  </g>
                </g>
              </g>
            </g>
          </g>
          <g id="layout::xlab-t.5-5-5-5.1" class="viewport"/>
          <g id="layout::xlab-b.9-5-9-5.1" class="viewport"/>
          <g id="layout::ylab-l.7-3-7-3.1" class="viewport"/>
          <g id="layout::ylab-r.7-7-7-7.1" class="viewport"/>
          <g id="layout::guide-box.7-9-7-9.1" class="viewport">
            <g id="layout::guide-box.7-9-7-9::GRID.VP.415.1" class="viewport">
              <g id="layout::guide-box.7-9-7-9::GRID.VP.415::guide-box.7-9-7-9.1" class="viewport">
                <g id="guide-box.7-9-7-9.1" class="forcedgrob gTableChild gtable gTree grob gDesc">
                  <g id="layout::guide-box.7-9-7-9::GRID.VP.415::guide-box.7-9-7-9::legend.box.background.2-4-4-2.1" class="viewport"/>
                  <g id="layout::guide-box.7-9-7-9::GRID.VP.415::guide-box.7-9-7-9::guides.3-3-3-3.1" class="viewport">
                    <g id="layout::guide-box.7-9-7-9::GRID.VP.415::guide-box.7-9-7-9::guides.3-3-3-3::GRID.VP.414.1" class="viewport">
                      <g id="layout::guide-box.7-9-7-9::GRID.VP.415::guide-box.7-9-7-9::guides.3-3-3-3::GRID.VP.414::guides.3-3-3-3.1" class="viewport">
                        <g id="guides.3-3-3-3.1" class="forcedgrob gTableChild gtable gTree grob gDesc">
                          <g id="layout::guide-box.7-9-7-9::GRID.VP.415::guide-box.7-9-7-9::guides.3-3-3-3::GRID.VP.414::guides.3-3-3-3::background.1-6-9-1.1" class="viewport">
                            <g id="background.1-6-9-1.1" class="forcedgrob gTableChild rect grob gDesc">
                              <rect id="background.1-6-9-1.1.1" x="410.18" y="193.22" width="88.34" height="102.84" transform="" stroke-width="1.07" stroke="none" fill="rgb(255,255,255)" stroke-dasharray="none" stroke-opacity="0" fill-opacity="1"/>
                            </g>
                          </g>
                          <g id="layout::guide-box.7-9-7-9::GRID.VP.415::guide-box.7-9-7-9::guides.3-3-3-3::GRID.VP.414::guides.3-3-3-3::title.2-5-2-2.1" class="viewport"/>
                          <g id="layout::guide-box.7-9-7-9::GRID.VP.415::guide-box.7-9-7-9::guides.3-3-3-3::GRID.VP.414::guides.3-3-3-3::key-3-1-bg.4-2-4-2.1" class="viewport"/>
                          <g id="layout::guide-box.7-9-7-9::GRID.VP.415::guide-box.7-9-7-9::guides.3-3-3-3::GRID.VP.414::guides.3-3-3-3::key-3-1-1.4-2-4-2.1" class="viewport">
                            <g id="key-3-1-1.4-2-4-2.1" class="forcedgrob gTableChild rect grob gDesc">
                              <rect id="key-3-1-1.4-2-4-2.1.1" x="416.37" y="268.53" width="15.86" height="15.86" transform="" stroke="none" fill="rgb(248,118,109)" stroke-dasharray="none" stroke-width="1.07" stroke-linejoin="miter" stroke-opacity="0" fill-opacity="1"/>
                            </g>
                          </g>
                          <g id="layout::guide-box.7-9-7-9::GRID.VP.415::guide-box.7-9-7-9::guides.3-3-3-3::GRID.VP.414::guides.3-3-3-3::key-4-1-bg.5-2-5-2.1" class="viewport"/>
                          <g id="layout::guide-box.7-9-7-9::GRID.VP.415::guide-box.7-9-7-9::guides.3-3-3-3::GRID.VP.414::guides.3-3-3-3::key-4-1-1.5-2-5-2.1" class="viewport">
                            <g id="key-4-1-1.5-2-5-2.1" class="forcedgrob gTableChild rect grob gDesc">
                              <rect id="key-4-1-1.5-2-5-2.1.1" x="416.37" y="251.25" width="15.86" height="15.86" transform="" stroke="none" fill="rgb(163,165,0)" stroke-dasharray="none" stroke-width="1.07" stroke-linejoin="miter" stroke-opacity="0" fill-opacity="1"/>
                            </g>
                          </g>
                          <g id="layout::guide-box.7-9-7-9::GRID.VP.415::guide-box.7-9-7-9::guides.3-3-3-3::GRID.VP.414::guides.3-3-3-3::key-5-1-bg.6-2-6-2.1" class="viewport"/>
                          <g id="layout::guide-box.7-9-7-9::GRID.VP.415::guide-box.7-9-7-9::guides.3-3-3-3::GRID.VP.414::guides.3-3-3-3::key-5-1-1.6-2-6-2.1" class="viewport">
                            <g id="key-5-1-1.6-2-6-2.1" class="forcedgrob gTableChild rect grob gDesc">
                              <rect id="key-5-1-1.6-2-6-2.1.1" x="416.37" y="233.97" width="15.86" height="15.86" transform="" stroke="none" fill="rgb(0,191,125)" stroke-dasharray="none" stroke-width="1.07" stroke-linejoin="miter" stroke-opacity="0" fill-opacity="1"/>
                            </g>
                          </g>
                          <g id="layout::guide-box.7-9-7-9::GRID.VP.415::guide-box.7-9-7-9::guides.3-3-3-3::GRID.VP.414::guides.3-3-3-3::key-6-1-bg.7-2-7-2.1" class="viewport"/>
                          <g id="layout::guide-box.7-9-7-9::GRID.VP.415::guide-box.7-9-7-9::guides.3-3-3-3::GRID.VP.414::guides.3-3-3-3::key-6-1-1.7-2-7-2.1" class="viewport">
                            <g id="key-6-1-1.7-2-7-2.1" class="forcedgrob gTableChild rect grob gDesc">
                              <rect id="key-6-1-1.7-2-7-2.1.1" x="416.37" y="216.69" width="15.86" height="15.86" transform="" stroke="none" fill="rgb(0,176,246)" stroke-dasharray="none" stroke-width="1.07" stroke-linejoin="miter" stroke-opacity="0" fill-opacity="1"/>
                            </g>
                          </g>
                          <g id="layout::guide-box.7-9-7-9::GRID.VP.415::guide-box.7-9-7-9::guides.3-3-3-3::GRID.VP.414::guides.3-3-3-3::key-7-1-bg.8-2-8-2.1" class="viewport"/>
                          <g id="layout::guide-box.7-9-7-9::GRID.VP.415::guide-box.7-9-7-9::guides.3-3-3-3::GRID.VP.414::guides.3-3-3-3::key-7-1-1.8-2-8-2.1" class="viewport">
                            <g id="key-7-1-1.8-2-8-2.1" class="forcedgrob gTableChild rect grob gDesc">
                              <rect id="key-7-1-1.8-2-8-2.1.1" x="416.37" y="199.41" width="15.86" height="15.86" transform="" stroke="none" fill="rgb(231,107,243)" stroke-dasharray="none" stroke-width="1.07" stroke-linejoin="miter" stroke-opacity="0" fill-opacity="1"/>
                            </g>
                          </g>
                          <g id="layout::guide-box.7-9-7-9::GRID.VP.415::guide-box.7-9-7-9::guides.3-3-3-3::GRID.VP.414::guides.3-3-3-3::label-3-3.4-4-4-4.1" class="viewport">
                            <g id="layout::guide-box.7-9-7-9::GRID.VP.415::guide-box.7-9-7-9::guides.3-3-3-3::GRID.VP.414::guides.3-3-3-3::label-3-3.4-4-4-4::GRID.VP.409.1" class="viewport">
                              <g id="label-3-3.4-4-4-4.1" class="forcedgrob gTableChild gTree grob gDesc">
                                <g id="layout::guide-box.7-9-7-9::GRID.VP.415::guide-box.7-9-7-9::guides.3-3-3-3::GRID.VP.414::guides.3-3-3-3::label-3-3.4-4-4-4::GRID.VP.409::GRID.VP.399.1" font-size="8.8" stroke="rgb(0,0,0)" font-family="Helvetica, Arial, FreeSans, Liberation Sans, Nimbus Sans L, sans-serif" stroke-opacity="1" font-weight="normal" font-style="normal" class="viewport">
                                  <g id="layout::guide-box.7-9-7-9::GRID.VP.415::guide-box.7-9-7-9::guides.3-3-3-3::GRID.VP.414::guides.3-3-3-3::label-3-3.4-4-4-4::GRID.VP.409::GRID.VP.399::GRID.VP.400.1" class="viewport">
                                    <g id="guide.label.titleGrob.1699.1" class="titleGrob gTree grob gDesc">
                                      <g id="GRID.text.1697.1" class="text grob gDesc">
                                        <g id="GRID.text.1697.1.1" transform="translate(438.42, 276.46)" stroke-width="0.1">
                                          <g id="GRID.text.1697.1.1.scale" transform="scale(1, -1)">
                                            <text x="0" y="0" id="GRID.text.1697.1.1.text" text-anchor="start" font-size="8.8" stroke="rgb(0,0,0)" font-family="Helvetica, Arial, FreeSans, Liberation Sans, Nimbus Sans L, sans-serif" fill="rgb(0,0,0)" stroke-opacity="1" fill-opacity="1" font-weight="normal" font-style="normal">
                                              <tspan id="GRID.text.1697.1.1.tspan.1" dy="3.23" x="0">tutto (3)</tspan>
                                            </text>
                                          </g>
                                        </g>
                                      </g>
                                    </g>
                                  </g>
                                </g>
                              </g>
                            </g>
                          </g>
                          <g id="layout::guide-box.7-9-7-9::GRID.VP.415::guide-box.7-9-7-9::guides.3-3-3-3::GRID.VP.414::guides.3-3-3-3::label-4-3.5-4-5-4.1" class="viewport">
                            <g id="layout::guide-box.7-9-7-9::GRID.VP.415::guide-box.7-9-7-9::guides.3-3-3-3::GRID.VP.414::guides.3-3-3-3::label-4-3.5-4-5-4::GRID.VP.410.1" class="viewport">
                              <g id="label-4-3.5-4-5-4.1" class="forcedgrob gTableChild gTree grob gDesc">
                                <g id="layout::guide-box.7-9-7-9::GRID.VP.415::guide-box.7-9-7-9::guides.3-3-3-3::GRID.VP.414::guides.3-3-3-3::label-4-3.5-4-5-4::GRID.VP.410::GRID.VP.401.1" font-size="8.8" stroke="rgb(0,0,0)" font-family="Helvetica, Arial, FreeSans, Liberation Sans, Nimbus Sans L, sans-serif" stroke-opacity="1" font-weight="normal" font-style="normal" class="viewport">
                                  <g id="layout::guide-box.7-9-7-9::GRID.VP.415::guide-box.7-9-7-9::guides.3-3-3-3::GRID.VP.414::guides.3-3-3-3::label-4-3.5-4-5-4::GRID.VP.410::GRID.VP.401::GRID.VP.402.1" class="viewport">
                                    <g id="guide.label.titleGrob.1702.1" class="titleGrob gTree grob gDesc">
                                      <g id="GRID.text.1700.1" class="text grob gDesc">
                                        <g id="GRID.text.1700.1.1" transform="translate(438.42, 259.18)" stroke-width="0.1">
                                          <g id="GRID.text.1700.1.1.scale" transform="scale(1, -1)">
                                            <text x="0" y="0" id="GRID.text.1700.1.1.text" text-anchor="start" font-size="8.8" stroke="rgb(0,0,0)" font-family="Helvetica, Arial, FreeSans, Liberation Sans, Nimbus Sans L, sans-serif" fill="rgb(0,0,0)" stroke-opacity="1" fill-opacity="1" font-weight="normal" font-style="normal">
                                              <tspan id="GRID.text.1700.1.1.tspan.1" dy="3.23" x="0">avanzato (13)</tspan>
                                            </text>
                                          </g>
                                        </g>
                                      </g>
                                    </g>
                                  </g>
                                </g>
                              </g>
                            </g>
                          </g>
                          <g id="layout::guide-box.7-9-7-9::GRID.VP.415::guide-box.7-9-7-9::guides.3-3-3-3::GRID.VP.414::guides.3-3-3-3::label-5-3.6-4-6-4.1" class="viewport">
                            <g id="layout::guide-box.7-9-7-9::GRID.VP.415::guide-box.7-9-7-9::guides.3-3-3-3::GRID.VP.414::guides.3-3-3-3::label-5-3.6-4-6-4::GRID.VP.411.1" class="viewport">
                              <g id="label-5-3.6-4-6-4.1" class="forcedgrob gTableChild gTree grob gDesc">
                                <g id="layout::guide-box.7-9-7-9::GRID.VP.415::guide-box.7-9-7-9::guides.3-3-3-3::GRID.VP.414::guides.3-3-3-3::label-5-3.6-4-6-4::GRID.VP.411::GRID.VP.403.1" font-size="8.8" stroke="rgb(0,0,0)" font-family="Helvetica, Arial, FreeSans, Liberation Sans, Nimbus Sans L, sans-serif" stroke-opacity="1" font-weight="normal" font-style="normal" class="viewport">
                                  <g id="layout::guide-box.7-9-7-9::GRID.VP.415::guide-box.7-9-7-9::guides.3-3-3-3::GRID.VP.414::guides.3-3-3-3::label-5-3.6-4-6-4::GRID.VP.411::GRID.VP.403::GRID.VP.404.1" class="viewport">
                                    <g id="guide.label.titleGrob.1705.1" class="titleGrob gTree grob gDesc">
                                      <g id="GRID.text.1703.1" class="text grob gDesc">
                                        <g id="GRID.text.1703.1.1" transform="translate(438.42, 241.9)" stroke-width="0.1">
                                          <g id="GRID.text.1703.1.1.scale" transform="scale(1, -1)">
                                            <text x="0" y="0" id="GRID.text.1703.1.1.text" text-anchor="start" font-size="8.8" stroke="rgb(0,0,0)" font-family="Helvetica, Arial, FreeSans, Liberation Sans, Nimbus Sans L, sans-serif" fill="rgb(0,0,0)" stroke-opacity="1" fill-opacity="1" font-weight="normal" font-style="normal">
                                              <tspan id="GRID.text.1703.1.1.tspan.1" dy="3.23" x="0">nessuno (17)</tspan>
                                            </text>
                                          </g>
                                        </g>
                                      </g>
                                    </g>
                                  </g>
                                </g>
                              </g>
                            </g>
                          </g>
                          <g id="layout::guide-box.7-9-7-9::GRID.VP.415::guide-box.7-9-7-9::guides.3-3-3-3::GRID.VP.414::guides.3-3-3-3::label-6-3.7-4-7-4.1" class="viewport">
                            <g id="layout::guide-box.7-9-7-9::GRID.VP.415::guide-box.7-9-7-9::guides.3-3-3-3::GRID.VP.414::guides.3-3-3-3::label-6-3.7-4-7-4::GRID.VP.412.1" class="viewport">
                              <g id="label-6-3.7-4-7-4.1" class="forcedgrob gTableChild gTree grob gDesc">
                                <g id="layout::guide-box.7-9-7-9::GRID.VP.415::guide-box.7-9-7-9::guides.3-3-3-3::GRID.VP.414::guides.3-3-3-3::label-6-3.7-4-7-4::GRID.VP.412::GRID.VP.405.1" font-size="8.8" stroke="rgb(0,0,0)" font-family="Helvetica, Arial, FreeSans, Liberation Sans, Nimbus Sans L, sans-serif" stroke-opacity="1" font-weight="normal" font-style="normal" class="viewport">
                                  <g id="layout::guide-box.7-9-7-9::GRID.VP.415::guide-box.7-9-7-9::guides.3-3-3-3::GRID.VP.414::guides.3-3-3-3::label-6-3.7-4-7-4::GRID.VP.412::GRID.VP.405::GRID.VP.406.1" class="viewport">
                                    <g id="guide.label.titleGrob.1708.1" class="titleGrob gTree grob gDesc">
                                      <g id="GRID.text.1706.1" class="text grob gDesc">
                                        <g id="GRID.text.1706.1.1" transform="translate(438.42, 224.62)" stroke-width="0.1">
                                          <g id="GRID.text.1706.1.1.scale" transform="scale(1, -1)">
                                            <text x="0" y="0" id="GRID.text.1706.1.1.text" text-anchor="start" font-size="8.8" stroke="rgb(0,0,0)" font-family="Helvetica, Arial, FreeSans, Liberation Sans, Nimbus Sans L, sans-serif" fill="rgb(0,0,0)" stroke-opacity="1" fill-opacity="1" font-weight="normal" font-style="normal">
                                              <tspan id="GRID.text.1706.1.1.tspan.1" dy="3.23" x="0">medio (86)</tspan>
                                            </text>
                                          </g>
                                        </g>
                                      </g>
                                    </g>
                                  </g>
                                </g>
                              </g>
                            </g>
                          </g>
                          <g id="layout::guide-box.7-9-7-9::GRID.VP.415::guide-box.7-9-7-9::guides.3-3-3-3::GRID.VP.414::guides.3-3-3-3::label-7-3.8-4-8-4.1" class="viewport">
                            <g id="layout::guide-box.7-9-7-9::GRID.VP.415::guide-box.7-9-7-9::guides.3-3-3-3::GRID.VP.414::guides.3-3-3-3::label-7-3.8-4-8-4::GRID.VP.413.1" class="viewport">
                              <g id="label-7-3.8-4-8-4.1" class="forcedgrob gTableChild gTree grob gDesc">
                                <g id="layout::guide-box.7-9-7-9::GRID.VP.415::guide-box.7-9-7-9::guides.3-3-3-3::GRID.VP.414::guides.3-3-3-3::label-7-3.8-4-8-4::GRID.VP.413::GRID.VP.407.1" font-size="8.8" stroke="rgb(0,0,0)" font-family="Helvetica, Arial, FreeSans, Liberation Sans, Nimbus Sans L, sans-serif" stroke-opacity="1" font-weight="normal" font-style="normal" class="viewport">
                                  <g id="layout::guide-box.7-9-7-9::GRID.VP.415::guide-box.7-9-7-9::guides.3-3-3-3::GRID.VP.414::guides.3-3-3-3::label-7-3.8-4-8-4::GRID.VP.413::GRID.VP.407::GRID.VP.408.1" class="viewport">
                                    <g id="guide.label.titleGrob.1711.1" class="titleGrob gTree grob gDesc">
                                      <g id="GRID.text.1709.1" class="text grob gDesc">
                                        <g id="GRID.text.1709.1.1" transform="translate(438.42, 207.34)" stroke-width="0.1">
                                          <g id="GRID.text.1709.1.1.scale" transform="scale(1, -1)">
                                            <text x="0" y="0" id="GRID.text.1709.1.1.text" text-anchor="start" font-size="8.8" stroke="rgb(0,0,0)" font-family="Helvetica, Arial, FreeSans, Liberation Sans, Nimbus Sans L, sans-serif" fill="rgb(0,0,0)" stroke-opacity="1" fill-opacity="1" font-weight="normal" font-style="normal">
                                              <tspan id="GRID.text.1709.1.1.tspan.1" dy="3.23" x="0">base (153)</tspan>
                                            </text>
                                          </g>
                                        </g>
                                      </g>
                                    </g>
                                  </g>
                                </g>
                              </g>
                            </g>
                          </g>
                        </g>
                      </g>
                    </g>
                  </g>
                </g>
              </g>
            </g>
          </g>
          <g id="layout::subtitle.4-5-4-5.1" class="viewport"/>
          <g id="layout::title.3-5-3-5.1" class="viewport">
            <g id="layout::title.3-5-3-5::GRID.VP.416.1" font-size="13.2" stroke="rgb(102,102,102)" font-family="Helvetica, Arial, FreeSans, Liberation Sans, Nimbus Sans L, sans-serif" stroke-opacity="1" font-weight="normal" font-style="normal" class="viewport">
              <g id="layout::title.3-5-3-5::GRID.VP.416::GRID.VP.417.1" class="viewport">
                <g id="title.3-5-3-5.1" class="forcedgrob gTableChild titleGrob gTree grob gDesc">
                  <g id="GRID.text.1729.1" class="text grob gDesc">
                    <g id="GRID.text.1729.1.1" transform="translate(203.72, 457.6)" stroke-width="0.1">
                      <g id="GRID.text.1729.1.1.scale" transform="scale(1, -1)">
                        <text x="0" y="0" id="GRID.text.1729.1.1.text" text-anchor="middle" font-size="13.2" stroke="rgb(102,102,102)" font-family="Helvetica, Arial, FreeSans, Liberation Sans, Nimbus Sans L, sans-serif" fill="rgb(102,102,102)" stroke-opacity="1" fill-opacity="1" font-weight="normal" font-style="normal">
                          <tspan id="GRID.text.1729.1.1.tspan.1" dy="9.33" x="0">anagrafica creazionecontenuti</tspan>
                        </text>
                      </g>
                    </g>
                  </g>
                </g>
              </g>
            </g>
          </g>
          <g id="layout::caption.10-5-10-5.1" class="viewport"/>
          <g id="layout::tag.2-2-2-2.1" class="viewport"/>
        </g>
      </g>
    </g>
  </g>
</svg>