<?xml version="1.0" encoding="UTF-8"?>
<svg xmlns="http://www.w3.org/2000/svg" xmlns:xlink="http://www.w3.org/1999/xlink" width="504px" height="504px" viewBox="0 0 504 504" version="1.1">
  <metadata xmlns:gridsvg="http://www.stat.auckland.ac.nz/~paul/R/gridSVG/">
    <gridsvg:generator name="gridSVG" version="1.6-0" time="2019-01-18 23:13:27"/>
    <gridsvg:argument name="name" value="./latest_informaggio_csv/risultati/svg/anagrafica-corsoit.svg"/>
    <gridsvg:argument name="exportCoords" value="none"/>
    <gridsvg:argument name="exportMappings" value="none"/>
    <gridsvg:argument name="exportJS" value="none"/>
    <gridsvg:argument name="res" value="72"/>
    <gridsvg:argument name="prefix" value=""/>
    <gridsvg:argument name="addClasses" value="TRUE"/>
    <gridsvg:argument name="indent" value="TRUE"/>
    <gridsvg:argument name="htmlWrapper" value="FALSE"/>
    <gridsvg:argument name="usePaths" value="vpPaths"/>
    <gridsvg:argument name="uniqueNames" value="TRUE"/>
    <gridsvg:separator name="id.sep" value="."/>
    <gridsvg:separator name="gPath.sep" value="::"/>
    <gridsvg:separator name="vpPath.sep" value="::"/>
  </metadata>
  <g transform="translate(0, 504) scale(1, -1)">
    <g id="gridSVG" fill="none" stroke="rgb(0,0,0)" stroke-dasharray="none" stroke-width="0.75" font-size="12" font-family="Helvetica, Arial, FreeSans, Liberation Sans, Nimbus Sans L, sans-serif" opacity="1" stroke-linecap="round" stroke-linejoin="round" stroke-miterlimit="10" stroke-opacity="1" fill-opacity="0" font-weight="normal" font-style="normal">
      <g id="layout.1" class="viewport">
        <g id="layout.2" class="forcedgrob gtable gTree grob gDesc">
          <defs>
            <clipPath id="layout::background.1-11-12-1.1.clipPath">
              <rect x="0" y="28.61" width="504" height="446.77" fill="none" stroke="none"/>
            </clipPath>
          </defs>
          <g id="layout::background.1-11-12-1.1" clip-path="url(#layout::background.1-11-12-1.1.clipPath)" class="viewport">
            <g id="background.1-11-12-1.1" class="forcedgrob gTableChild rect grob gDesc">
              <rect id="background.1-11-12-1.1.1" x="0" y="28.61" width="504" height="446.77" transform="" stroke-width="1.07" stroke="rgb(255,255,255)" fill="rgb(255,255,255)" stroke-dasharray="none" stroke-opacity="1" fill-opacity="1"/>
            </g>
          </g>
          <defs>
            <clipPath id="layout::panel.7-5-7-5.1.clipPath">
              <rect x="8.22" y="36.83" width="415.62" height="415.62" fill="none" stroke="none"/>
            </clipPath>
          </defs>
          <g id="layout::panel.7-5-7-5.1" clip-path="url(#layout::panel.7-5-7-5.1.clipPath)" class="viewport">
            <g id="panel.7-5-7-5.1" class="forcedgrob gTableChild gTree grob gDesc">
              <g id="grill.gTree.1620.1" class="gTree grob gDesc">
                <g id="panel.background..rect.1616.1" class="rect grob gDesc">
                  <rect id="panel.background..rect.1616.1.1" x="8.22" y="36.83" width="415.62" height="415.62" transform="" stroke-width="1.07" stroke="none" fill="rgb(255,255,255)" stroke-dasharray="none" stroke-opacity="0" fill-opacity="1"/>
                </g>
              </g>
              <g id="bar.gTree.1609.1" class="gTree grob gDesc">
                <g id="geom_polygon.polygon.1605.1" class="polygon grob gDesc">
                  <polygon id="geom_polygon.polygon.1605.1.1" points="216.03,244.64 213.7,239.41 211.36,234.17 209.03,228.93 206.7,223.69 204.37,218.46 202.04,213.22 199.71,207.98 197.37,202.75 195.04,197.51 192.71,192.27 190.38,187.04 188.05,181.8 185.72,176.56 183.38,171.32 181.05,166.09 178.72,160.85 176.39,155.61 174.06,150.38 171.73,145.14 169.39,139.9 167.06,134.67 164.73,129.43 162.4,124.19 160.07,118.95 157.74,113.72 155.4,108.48 153.07,103.24 150.74,98.01 148.41,92.77 153.6,90.56 158.86,88.54 164.18,86.69 169.57,85.02 175.01,83.54 180.49,82.24 186.02,81.13 191.58,80.2 197.17,79.47 202.78,78.92 208.4,78.57 214.04,78.41 219.68,78.44 225.31,78.66 230.93,79.07 236.54,79.67 242.12,80.46 247.67,81.43 253.18,82.6 258.66,83.95 264.08,85.49 269.45,87.21 274.75,89.11 279.99,91.19 285.16,93.45 290.24,95.88 295.25,98.48 300.15,101.25 304.97,104.19 309.68,107.28 314.28,110.54 318.77,113.95 323.14,117.5 327.39,121.21 331.51,125.05 335.5,129.04 339.35,133.16 343.06,137.4 346.62,141.77 350.04,146.26 353.29,150.86 356.4,155.56 359.33,160.37 362.11,165.28 364.72,170.28 367.15,175.36 369.41,180.53 371.5,185.76 373.41,191.07 375.13,196.43 376.67,201.86 378.03,207.33 379.21,212.84 380.19,218.39 380.99,223.97 381.59,229.58 382.01,235.2 382.23,240.83 382.27,246.47 382.11,252.1 381.76,257.73 381.22,263.34 380.49,268.93 379.57,274.49 378.47,280.02 377.18,285.51 375.7,290.95 374.04,296.33 372.19,301.66 370.17,306.92 367.97,312.11 365.6,317.22 363.05,322.25 360.33,327.19 357.45,332.04 354.41,336.78 351.2,341.42 347.85,345.95 344.34,350.36 340.68,354.65 336.88,358.81 332.94,362.84 328.86,366.74 324.66,370.49 320.33,374.1 315.88,377.56 311.32,380.87 306.64,384.02 301.86,387.02 296.99,389.84 292.02,392.51 286.96,395 281.82,397.32 276.61,399.46 271.33,401.42 265.98,403.21 260.58,404.81 255.12,406.23 249.62,407.46 244.08,408.51 238.51,409.36 232.91,410.03 227.29,410.51 221.66,410.79 216.03,410.89 216.03,405.16 216.03,399.43 216.03,393.69 216.03,387.96 216.03,382.23 216.03,376.49 216.03,370.76 216.03,365.03 216.03,359.3 216.03,353.56 216.03,347.83 216.03,342.1 216.03,336.37 216.03,330.63 216.03,324.9 216.03,319.17 216.03,313.44 216.03,307.7 216.03,301.97 216.03,296.24 216.03,290.5 216.03,284.77 216.03,279.04 216.03,273.31 216.03,267.57 216.03,261.84 216.03,256.11 216.03,250.38 216.03,244.64 216.03,244.64" stroke="none" fill="rgb(0,191,196)" stroke-width="1.07" stroke-dasharray="none" stroke-opacity="0" fill-opacity="1"/>
                </g>
                <g id="geom_polygon.polygon.1607.1" class="polygon grob gDesc">
                  <polygon id="geom_polygon.polygon.1607.1.1" points="216.03,244.64 216.03,250.38 216.03,256.11 216.03,261.84 216.03,267.57 216.03,273.31 216.03,279.04 216.03,284.77 216.03,290.5 216.03,296.24 216.03,301.97 216.03,307.7 216.03,313.44 216.03,319.17 216.03,324.9 216.03,330.63 216.03,336.37 216.03,342.1 216.03,347.83 216.03,353.56 216.03,359.3 216.03,365.03 216.03,370.76 216.03,376.49 216.03,382.23 216.03,387.96 216.03,393.69 216.03,399.43 216.03,405.16 216.03,410.89 210.37,410.79 204.72,410.51 199.08,410.02 193.47,409.35 187.87,408.49 182.32,407.44 176.8,406.19 171.32,404.77 165.9,403.15 160.53,401.35 155.23,399.38 150,397.22 144.85,394.88 139.78,392.37 134.8,389.69 129.91,386.85 125.12,383.83 120.44,380.66 115.86,377.33 111.41,373.84 107.07,370.21 102.86,366.43 98.78,362.51 94.84,358.45 91.04,354.26 87.38,349.94 83.87,345.5 80.52,340.95 77.32,336.28 74.28,331.51 71.41,326.63 68.7,321.66 66.16,316.61 63.8,311.47 61.62,306.25 59.61,300.96 57.78,295.6 56.14,290.19 54.68,284.72 53.41,279.21 52.33,273.65 51.44,268.07 50.74,262.45 50.23,256.82 49.91,251.17 49.78,245.51 49.85,239.86 50.11,234.2 50.56,228.56 51.2,222.94 52.04,217.35 53.06,211.78 54.27,206.26 55.67,200.77 57.26,195.34 59.03,189.97 60.98,184.66 63.11,179.42 65.42,174.25 67.9,169.17 70.55,164.17 73.38,159.27 76.36,154.46 79.51,149.76 82.82,145.17 86.28,140.7 89.9,136.34 93.65,132.11 97.55,128.02 101.59,124.05 105.76,120.23 110.06,116.55 114.48,113.02 119.02,109.64 123.67,106.41 128.42,103.35 133.28,100.45 138.24,97.72 143.28,95.16 148.41,92.77 150.74,98.01 153.07,103.24 155.4,108.48 157.74,113.72 160.07,118.95 162.4,124.19 164.73,129.43 167.06,134.67 169.39,139.9 171.73,145.14 174.06,150.38 176.39,155.61 178.72,160.85 181.05,166.09 183.38,171.32 185.72,176.56 188.05,181.8 190.38,187.04 192.71,192.27 195.04,197.51 197.37,202.75 199.71,207.98 202.04,213.22 204.37,218.46 206.7,223.69 209.03,228.93 211.36,234.17 213.7,239.41 216.03,244.64 216.03,244.64" stroke="none" fill="rgb(248,118,109)" stroke-width="1.07" stroke-dasharray="none" stroke-opacity="0" fill-opacity="1"/>
                </g>
              </g>
              <g id="GRID.text.1610.1" class="text grob gDesc">
                <g id="GRID.text.1610.1.1" transform="translate(297.34, 227.36)" stroke-width="0.1">
                  <g id="GRID.text.1610.1.1.scale" transform="scale(1, -1)">
                    <text x="0" y="0" id="GRID.text.1610.1.1.text" text-anchor="middle" stroke="rgb(0,0,0)" font-size="11.04" font-family="Helvetica, Arial, FreeSans, Liberation Sans, Nimbus Sans L, sans-serif" fill="rgb(0,0,0)" stroke-opacity="1" fill-opacity="1" font-weight="normal" font-style="normal">
                      <tspan id="GRID.text.1610.1.1.tspan.1" dy="3.95" x="0">153</tspan>
                    </text>
                  </g>
                </g>
                <g id="GRID.text.1610.1.2" transform="translate(134.72, 261.93)" stroke-width="0.1">
                  <g id="GRID.text.1610.1.2.scale" transform="scale(1, -1)">
                    <text x="0" y="0" id="GRID.text.1610.1.2.text" text-anchor="middle" stroke="rgb(0,0,0)" font-size="11.04" font-family="Helvetica, Arial, FreeSans, Liberation Sans, Nimbus Sans L, sans-serif" fill="rgb(0,0,0)" stroke-opacity="1" fill-opacity="1" font-weight="normal" font-style="normal">
                      <tspan id="GRID.text.1610.1.2.tspan.1" dy="3.95" x="0">117</tspan>
                    </text>
                  </g>
                </g>
              </g>
              <g id="GRID.gTree.1611.1" class="gTree grob gDesc"/>
            </g>
          </g>
          <g id="layout::spacer.8-6-8-6.1" class="viewport"/>
          <g id="layout::spacer.8-4-8-4.1" class="viewport"/>
          <g id="layout::spacer.6-6-6-6.1" class="viewport"/>
          <g id="layout::spacer.6-4-6-4.1" class="viewport"/>
          <g id="layout::axis-t.6-5-6-5.1" class="viewport"/>
          <g id="layout::axis-l.7-4-7-4.1" class="viewport">
            <g id="layout::axis-l.7-4-7-4::GRID.VP.386.1" class="viewport">
              <g id="axis-l.7-4-7-4.1" class="forcedgrob gTableChild absoluteGrob gTree grob gDesc">
                <g id="layout::axis-l.7-4-7-4::GRID.VP.386::axis.1" class="viewport">
                  <g id="axis.1" class="forcedgrob gtable gTree grob gDesc">
                    <g id="layout::axis-l.7-4-7-4::GRID.VP.386::axis::axis.1-1-1-1.1" class="viewport"/>
                    <g id="layout::axis-l.7-4-7-4::GRID.VP.386::axis::axis.1-2-1-2.1" class="viewport"/>
                  </g>
                </g>
              </g>
            </g>
          </g>
          <g id="layout::axis-r.7-6-7-6.1" class="viewport"/>
          <g id="layout::axis-b.8-5-8-5.1" class="viewport">
            <g id="layout::axis-b.8-5-8-5::GRID.VP.385.1" class="viewport">
              <g id="axis-b.8-5-8-5.1" class="forcedgrob gTableChild absoluteGrob gTree grob gDesc">
                <g id="layout::axis-b.8-5-8-5::GRID.VP.385::axis.1" class="viewport">
                  <g id="axis.2" class="forcedgrob gtable gTree grob gDesc">
                    <g id="layout::axis-b.8-5-8-5::GRID.VP.385::axis::axis.1-1-1-1.1" class="viewport"/>
                    <g id="layout::axis-b.8-5-8-5::GRID.VP.385::axis::axis.2-1-2-1.1" class="viewport"/>
                  </g>
                </g>
              </g>
            </g>
          </g>
          <g id="layout::xlab-t.5-5-5-5.1" class="viewport"/>
          <g id="layout::xlab-b.9-5-9-5.1" class="viewport"/>
          <g id="layout::ylab-l.7-3-7-3.1" class="viewport"/>
          <g id="layout::ylab-r.7-7-7-7.1" class="viewport"/>
          <g id="layout::guide-box.7-9-7-9.1" class="viewport">
            <g id="layout::guide-box.7-9-7-9::GRID.VP.394.1" class="viewport">
              <g id="layout::guide-box.7-9-7-9::GRID.VP.394::guide-box.7-9-7-9.1" class="viewport">
                <g id="guide-box.7-9-7-9.1" class="forcedgrob gTableChild gtable gTree grob gDesc">
                  <g id="layout::guide-box.7-9-7-9::GRID.VP.394::guide-box.7-9-7-9::legend.box.background.2-4-4-2.1" class="viewport"/>
                  <g id="layout::guide-box.7-9-7-9::GRID.VP.394::guide-box.7-9-7-9::guides.3-3-3-3.1" class="viewport">
                    <g id="layout::guide-box.7-9-7-9::GRID.VP.394::guide-box.7-9-7-9::guides.3-3-3-3::GRID.VP.393.1" class="viewport">
                      <g id="layout::guide-box.7-9-7-9::GRID.VP.394::guide-box.7-9-7-9::guides.3-3-3-3::GRID.VP.393::guides.3-3-3-3.1" class="viewport">
                        <g id="guides.3-3-3-3.1" class="forcedgrob gTableChild gtable gTree grob gDesc">
                          <g id="layout::guide-box.7-9-7-9::GRID.VP.394::guide-box.7-9-7-9::guides.3-3-3-3::GRID.VP.393::guides.3-3-3-3::background.1-6-6-1.1" class="viewport">
                            <g id="background.1-6-6-1.1" class="forcedgrob gTableChild rect grob gDesc">
                              <rect id="background.1-6-6-1.1.1" x="434.8" y="219.14" width="63.72" height="51" transform="" stroke-width="1.07" stroke="none" fill="rgb(255,255,255)" stroke-dasharray="none" stroke-opacity="0" fill-opacity="1"/>
                            </g>
                          </g>
                          <g id="layout::guide-box.7-9-7-9::GRID.VP.394::guide-box.7-9-7-9::guides.3-3-3-3::GRID.VP.393::guides.3-3-3-3::title.2-5-2-2.1" class="viewport"/>
                          <g id="layout::guide-box.7-9-7-9::GRID.VP.394::guide-box.7-9-7-9::guides.3-3-3-3::GRID.VP.393::guides.3-3-3-3::key-3-1-bg.4-2-4-2.1" class="viewport"/>
                          <g id="layout::guide-box.7-9-7-9::GRID.VP.394::guide-box.7-9-7-9::guides.3-3-3-3::GRID.VP.393::guides.3-3-3-3::key-3-1-1.4-2-4-2.1" class="viewport">
                            <g id="key-3-1-1.4-2-4-2.1" class="forcedgrob gTableChild rect grob gDesc">
                              <rect id="key-3-1-1.4-2-4-2.1.1" x="440.98" y="242.61" width="15.86" height="15.86" transform="" stroke="none" fill="rgb(248,118,109)" stroke-dasharray="none" stroke-width="1.07" stroke-linejoin="miter" stroke-opacity="0" fill-opacity="1"/>
                            </g>
                          </g>
                          <g id="layout::guide-box.7-9-7-9::GRID.VP.394::guide-box.7-9-7-9::guides.3-3-3-3::GRID.VP.393::guides.3-3-3-3::key-4-1-bg.5-2-5-2.1" class="viewport"/>
                          <g id="layout::guide-box.7-9-7-9::GRID.VP.394::guide-box.7-9-7-9::guides.3-3-3-3::GRID.VP.393::guides.3-3-3-3::key-4-1-1.5-2-5-2.1" class="viewport">
                            <g id="key-4-1-1.5-2-5-2.1" class="forcedgrob gTableChild rect grob gDesc">
                              <rect id="key-4-1-1.5-2-5-2.1.1" x="440.98" y="225.33" width="15.86" height="15.86" transform="" stroke="none" fill="rgb(0,191,196)" stroke-dasharray="none" stroke-width="1.07" stroke-linejoin="miter" stroke-opacity="0" fill-opacity="1"/>
                            </g>
                          </g>
                          <g id="layout::guide-box.7-9-7-9::GRID.VP.394::guide-box.7-9-7-9::guides.3-3-3-3::GRID.VP.393::guides.3-3-3-3::label-3-3.4-4-4-4.1" class="viewport">
                            <g id="layout::guide-box.7-9-7-9::GRID.VP.394::guide-box.7-9-7-9::guides.3-3-3-3::GRID.VP.393::guides.3-3-3-3::label-3-3.4-4-4-4::GRID.VP.391.1" class="viewport">
                              <g id="label-3-3.4-4-4-4.1" class="forcedgrob gTableChild gTree grob gDesc">
                                <g id="layout::guide-box.7-9-7-9::GRID.VP.394::guide-box.7-9-7-9::guides.3-3-3-3::GRID.VP.393::guides.3-3-3-3::label-3-3.4-4-4-4::GRID.VP.391::GRID.VP.387.1" font-size="8.8" stroke="rgb(0,0,0)" font-family="Helvetica, Arial, FreeSans, Liberation Sans, Nimbus Sans L, sans-serif" stroke-opacity="1" font-weight="normal" font-style="normal" class="viewport">
                                  <g id="layout::guide-box.7-9-7-9::GRID.VP.394::guide-box.7-9-7-9::guides.3-3-3-3::GRID.VP.393::guides.3-3-3-3::label-3-3.4-4-4-4::GRID.VP.391::GRID.VP.387::GRID.VP.388.1" class="viewport">
                                    <g id="guide.label.titleGrob.1634.1" class="titleGrob gTree grob gDesc">
                                      <g id="GRID.text.1632.1" class="text grob gDesc">
                                        <g id="GRID.text.1632.1.1" transform="translate(463.04, 250.54)" stroke-width="0.1">
                                          <g id="GRID.text.1632.1.1.scale" transform="scale(1, -1)">
                                            <text x="0" y="0" id="GRID.text.1632.1.1.text" text-anchor="start" font-size="8.8" stroke="rgb(0,0,0)" font-family="Helvetica, Arial, FreeSans, Liberation Sans, Nimbus Sans L, sans-serif" fill="rgb(0,0,0)" stroke-opacity="1" fill-opacity="1" font-weight="normal" font-style="normal">
                                              <tspan id="GRID.text.1632.1.1.tspan.1" dy="3.23" x="0">S (117)</tspan>
                                            </text>
                                          </g>
                                        </g>
                                      </g>
                                    </g>
                                  </g>
                                </g>
                              </g>
                            </g>
                          </g>
                          <g id="layout::guide-box.7-9-7-9::GRID.VP.394::guide-box.7-9-7-9::guides.3-3-3-3::GRID.VP.393::guides.3-3-3-3::label-4-3.5-4-5-4.1" class="viewport">
                            <g id="layout::guide-box.7-9-7-9::GRID.VP.394::guide-box.7-9-7-9::guides.3-3-3-3::GRID.VP.393::guides.3-3-3-3::label-4-3.5-4-5-4::GRID.VP.392.1" class="viewport">
                              <g id="label-4-3.5-4-5-4.1" class="forcedgrob gTableChild gTree grob gDesc">
                                <g id="layout::guide-box.7-9-7-9::GRID.VP.394::guide-box.7-9-7-9::guides.3-3-3-3::GRID.VP.393::guides.3-3-3-3::label-4-3.5-4-5-4::GRID.VP.392::GRID.VP.389.1" font-size="8.8" stroke="rgb(0,0,0)" font-family="Helvetica, Arial, FreeSans, Liberation Sans, Nimbus Sans L, sans-serif" stroke-opacity="1" font-weight="normal" font-style="normal" class="viewport">
                                  <g id="layout::guide-box.7-9-7-9::GRID.VP.394::guide-box.7-9-7-9::guides.3-3-3-3::GRID.VP.393::guides.3-3-3-3::label-4-3.5-4-5-4::GRID.VP.392::GRID.VP.389::GRID.VP.390.1" class="viewport">
                                    <g id="guide.label.titleGrob.1637.1" class="titleGrob gTree grob gDesc">
                                      <g id="GRID.text.1635.1" class="text grob gDesc">
                                        <g id="GRID.text.1635.1.1" transform="translate(463.04, 233.26)" stroke-width="0.1">
                                          <g id="GRID.text.1635.1.1.scale" transform="scale(1, -1)">
                                            <text x="0" y="0" id="GRID.text.1635.1.1.text" text-anchor="start" font-size="8.8" stroke="rgb(0,0,0)" font-family="Helvetica, Arial, FreeSans, Liberation Sans, Nimbus Sans L, sans-serif" fill="rgb(0,0,0)" stroke-opacity="1" fill-opacity="1" font-weight="normal" font-style="normal">
                                              <tspan id="GRID.text.1635.1.1.tspan.1" dy="3.23" x="0">N (153)</tspan>
                                            </text>
                                          </g>
                                        </g>
                                      </g>
                                    </g>
                                  </g>
                                </g>
                              </g>
                            </g>
                          </g>
                        </g>
                      </g>
                    </g>
                  </g>
                </g>
              </g>
            </g>
          </g>
          <g id="layout::subtitle.4-5-4-5.1" class="viewport"/>
          <g id="layout::title.3-5-3-5.1" class="viewport">
            <g id="layout::title.3-5-3-5::GRID.VP.395.1" font-size="13.2" stroke="rgb(102,102,102)" font-family="Helvetica, Arial, FreeSans, Liberation Sans, Nimbus Sans L, sans-serif" stroke-opacity="1" font-weight="normal" font-style="normal" class="viewport">
              <g id="layout::title.3-5-3-5::GRID.VP.395::GRID.VP.396.1" class="viewport">
                <g id="title.3-5-3-5.1" class="forcedgrob gTableChild titleGrob gTree grob gDesc">
                  <g id="GRID.text.1646.1" class="text grob gDesc">
                    <g id="GRID.text.1646.1.1" transform="translate(216.03, 469.91)" stroke-width="0.1">
                      <g id="GRID.text.1646.1.1.scale" transform="scale(1, -1)">
                        <text x="0" y="0" id="GRID.text.1646.1.1.text" text-anchor="middle" font-size="13.2" stroke="rgb(102,102,102)" font-family="Helvetica, Arial, FreeSans, Liberation Sans, Nimbus Sans L, sans-serif" fill="rgb(102,102,102)" stroke-opacity="1" fill-opacity="1" font-weight="normal" font-style="normal">
                          <tspan id="GRID.text.1646.1.1.tspan.1" dy="9.33" x="0">anagrafica corsoit</tspan>
                        </text>
                      </g>
                    </g>
                  </g>
                </g>
              </g>
            </g>
          </g>
          <g id="layout::caption.10-5-10-5.1" class="viewport"/>
          <g id="layout::tag.2-2-2-2.1" class="viewport"/>
        </g>
      </g>
    </g>
  </g>
</svg>