<?xml version="1.0" encoding="UTF-8"?>
<svg xmlns="http://www.w3.org/2000/svg" xmlns:xlink="http://www.w3.org/1999/xlink" width="504px" height="504px" viewBox="0 0 504 504" version="1.1">
  <metadata xmlns:gridsvg="http://www.stat.auckland.ac.nz/~paul/R/gridSVG/">
    <gridsvg:generator name="gridSVG" version="1.6-0" time="2019-01-14 16:00:05"/>
    <gridsvg:argument name="name" value="./latest_informaggio_csv/risultati/svg/anagrafica-totali-elaborazioneinformazioni.svg"/>
    <gridsvg:argument name="exportCoords" value="none"/>
    <gridsvg:argument name="exportMappings" value="none"/>
    <gridsvg:argument name="exportJS" value="none"/>
    <gridsvg:argument name="res" value="72"/>
    <gridsvg:argument name="prefix" value=""/>
    <gridsvg:argument name="addClasses" value="TRUE"/>
    <gridsvg:argument name="indent" value="TRUE"/>
    <gridsvg:argument name="htmlWrapper" value="FALSE"/>
    <gridsvg:argument name="usePaths" value="vpPaths"/>
    <gridsvg:argument name="uniqueNames" value="TRUE"/>
    <gridsvg:separator name="id.sep" value="."/>
    <gridsvg:separator name="gPath.sep" value="::"/>
    <gridsvg:separator name="vpPath.sep" value="::"/>
  </metadata>
  <g transform="translate(0, 504) scale(1, -1)">
    <g id="gridSVG" fill="none" stroke="rgb(0,0,0)" stroke-dasharray="none" stroke-width="0.75" font-size="12" font-family="Helvetica, Arial, FreeSans, Liberation Sans, Nimbus Sans L, sans-serif" opacity="1" stroke-linecap="round" stroke-linejoin="round" stroke-miterlimit="10" stroke-opacity="1" fill-opacity="0" font-weight="normal" font-style="normal">
      <g id="layout.1" class="viewport">
        <g id="layout.2" class="forcedgrob gtable gTree grob gDesc">
          <defs>
            <clipPath id="layout::background.1-11-12-1.1.clipPath">
              <rect x="0" y="40.92" width="504" height="422.16" fill="none" stroke="none"/>
            </clipPath>
          </defs>
          <g id="layout::background.1-11-12-1.1" clip-path="url(#layout::background.1-11-12-1.1.clipPath)" class="viewport">
            <g id="background.1-11-12-1.1" class="forcedgrob gTableChild rect grob gDesc">
              <rect id="background.1-11-12-1.1.1" x="0" y="40.92" width="504" height="422.16" transform="" stroke-width="1.07" stroke="rgb(255,255,255)" fill="rgb(255,255,255)" stroke-dasharray="none" stroke-opacity="1" fill-opacity="1"/>
            </g>
          </g>
          <defs>
            <clipPath id="layout::panel.7-5-7-5.1.clipPath">
              <rect x="8.22" y="49.14" width="391" height="391" fill="none" stroke="none"/>
            </clipPath>
          </defs>
          <g id="layout::panel.7-5-7-5.1" clip-path="url(#layout::panel.7-5-7-5.1.clipPath)" class="viewport">
            <g id="panel.7-5-7-5.1" class="forcedgrob gTableChild gTree grob gDesc">
              <g id="grill.gTree.2064.1" class="gTree grob gDesc">
                <g id="panel.background..rect.2060.1" class="rect grob gDesc">
                  <rect id="panel.background..rect.2060.1.1" x="8.22" y="49.14" width="391" height="391" transform="" stroke-width="1.07" stroke="none" fill="rgb(255,255,255)" stroke-dasharray="none" stroke-opacity="0" fill-opacity="1"/>
                </g>
              </g>
              <g id="bar.gTree.2053.1" class="gTree grob gDesc">
                <g id="geom_polygon.polygon.2043.1" class="polygon grob gDesc">
                  <polygon id="geom_polygon.polygon.2043.1.1" points="203.72,244.64 201.65,239.66 199.58,234.68 197.51,229.7 195.44,224.73 193.36,219.75 191.29,214.77 189.22,209.79 187.15,204.81 185.08,199.83 183.01,194.85 180.94,189.87 178.87,184.89 176.79,179.91 174.72,174.93 172.65,169.95 170.58,164.97 168.51,159.99 166.44,155.01 164.37,150.03 162.29,145.05 160.22,140.07 158.15,135.09 156.08,130.11 154.01,125.13 151.94,120.15 149.87,115.18 147.8,110.2 145.72,105.22 143.65,100.24 148.6,98.28 153.6,96.49 158.67,94.87 163.79,93.43 168.95,92.16 174.15,91.06 179.39,90.15 184.65,89.41 189.94,88.85 195.25,88.47 200.56,88.27 205.88,88.26 211.19,88.42 216.5,88.76 221.79,89.29 227.06,89.99 232.3,90.88 237.51,91.94 242.68,93.17 247.81,94.58 252.88,96.17 257.9,97.93 262.86,99.85 267.75,101.95 272.56,104.21 277.29,106.63 281.94,109.21 286.5,111.94 290.96,114.84 295.33,117.88 299.58,121.06 303.73,124.39 307.76,127.86 311.67,131.47 315.45,135.2 319.11,139.06 322.63,143.04 326.01,147.14 329.26,151.36 332.35,155.68 335.3,160.1 338.1,164.62 340.74,169.24 343.23,173.94 345.55,178.72 347.71,183.58 349.7,188.51 351.53,193.51 353.18,198.56 354.66,203.67 355.96,208.82 357.09,214.02 358.05,219.25 358.82,224.51 359.42,229.79 359.83,235.09 360.06,240.4 360.12,245.72 359.99,251.04 359.68,256.34 359.2,261.64 358.53,266.91 357.68,272.16 356.66,277.38 355.46,282.56 354.08,287.7 352.53,292.78 350.81,297.81 348.91,302.78 346.85,307.68 344.63,312.51 342.24,317.26 339.69,321.93 336.99,326.51 334.13,330.99 331.12,335.37 327.96,339.65 324.66,343.82 321.22,347.87 317.64,351.81 313.93,355.62 310.1,359.3 306.14,362.85 302.06,366.26 297.87,369.53 293.57,372.66 289.17,375.64 284.66,378.47 280.07,381.14 275.38,383.66 270.62,386.02 265.77,388.21 260.86,390.23 255.88,392.09 250.83,393.78 245.74,395.3 240.59,396.64 235.4,397.8 230.18,398.79 224.92,399.6 219.65,400.23 214.35,400.68 209.04,400.95 203.72,401.04 203.72,395.65 203.72,390.26 203.72,384.86 203.72,379.47 203.72,374.08 203.72,368.69 203.72,363.29 203.72,357.9 203.72,352.51 203.72,347.11 203.72,341.72 203.72,336.33 203.72,330.93 203.72,325.54 203.72,320.15 203.72,314.75 203.72,309.36 203.72,303.97 203.72,298.57 203.72,293.18 203.72,287.79 203.72,282.4 203.72,277 203.72,271.61 203.72,266.22 203.72,260.82 203.72,255.43 203.72,250.04 203.72,244.64 203.72,244.64" stroke="none" fill="rgb(231,107,243)" stroke-width="1.07" stroke-dasharray="none" stroke-opacity="0" fill-opacity="1"/>
                </g>
                <g id="geom_polygon.polygon.2045.1" class="polygon grob gDesc">
                  <polygon id="geom_polygon.polygon.2045.1.1" points="203.72,244.64 198.44,245.76 193.17,246.88 187.89,248 182.62,249.12 177.34,250.24 172.07,251.36 166.79,252.48 161.51,253.6 156.24,254.72 150.96,255.84 145.69,256.95 140.41,258.07 135.14,259.19 129.86,260.31 124.58,261.43 119.31,262.55 114.03,263.67 108.76,264.79 103.48,265.91 98.21,267.03 92.93,268.15 87.65,269.27 82.38,270.38 77.1,271.5 71.83,272.62 66.55,273.74 61.28,274.86 56,275.98 50.72,277.1 49.69,271.78 48.84,266.43 48.18,261.05 47.71,255.66 47.42,250.25 47.32,244.83 47.41,239.41 47.68,234 48.14,228.6 48.79,223.23 49.63,217.87 50.65,212.55 51.85,207.27 53.24,202.03 54.8,196.85 56.55,191.72 58.47,186.65 60.56,181.66 62.83,176.74 65.27,171.9 67.87,167.14 70.64,162.49 73.56,157.93 76.64,153.47 79.88,149.12 83.26,144.89 86.79,140.78 90.45,136.79 94.26,132.93 98.19,129.21 102.25,125.62 106.44,122.18 110.74,118.88 115.15,115.74 119.66,112.75 124.28,109.92 129,107.25 133.8,104.74 138.69,102.4 143.65,100.24 145.72,105.22 147.8,110.2 149.87,115.18 151.94,120.15 154.01,125.13 156.08,130.11 158.15,135.09 160.22,140.07 162.29,145.05 164.37,150.03 166.44,155.01 168.51,159.99 170.58,164.97 172.65,169.95 174.72,174.93 176.79,179.91 178.87,184.89 180.94,189.87 183.01,194.85 185.08,199.83 187.15,204.81 189.22,209.79 191.29,214.77 193.36,219.75 195.44,224.73 197.51,229.7 199.58,234.68 201.65,239.66 203.72,244.64 203.72,244.64" stroke="none" fill="rgb(0,176,246)" stroke-width="1.07" stroke-dasharray="none" stroke-opacity="0" fill-opacity="1"/>
                </g>
                <g id="geom_polygon.polygon.2047.1" class="polygon grob gDesc">
                  <polygon id="geom_polygon.polygon.2047.1.1" points="203.72,244.64 202.07,249.78 200.42,254.91 198.78,260.05 197.13,265.18 195.48,270.32 193.83,275.45 192.18,280.59 190.54,285.72 188.89,290.86 187.24,295.99 185.59,301.13 183.94,306.26 182.29,311.4 180.65,316.53 179,321.67 177.35,326.81 175.7,331.94 174.05,337.08 172.41,342.21 170.76,347.35 169.11,352.48 167.46,357.62 165.81,362.75 164.16,367.89 162.52,373.02 160.87,378.16 159.22,383.29 157.57,388.43 155.92,393.56 150.9,391.86 145.94,389.98 141.05,387.94 136.23,385.73 131.48,383.36 126.82,380.83 122.25,378.15 117.77,375.31 113.39,372.32 109.11,369.18 104.94,365.9 100.89,362.49 96.95,358.93 93.14,355.25 89.45,351.43 85.9,347.5 82.48,343.44 79.2,339.28 76.06,335 73.07,330.62 70.23,326.14 67.55,321.57 65.02,316.91 62.65,312.17 60.44,307.34 58.39,302.45 56.52,297.49 54.81,292.47 53.28,287.39 51.91,282.27 50.72,277.1 56,275.98 61.28,274.86 66.55,273.74 71.83,272.62 77.1,271.5 82.38,270.38 87.65,269.27 92.93,268.15 98.21,267.03 103.48,265.91 108.76,264.79 114.03,263.67 119.31,262.55 124.58,261.43 129.86,260.31 135.14,259.19 140.41,258.07 145.69,256.95 150.96,255.84 156.24,254.72 161.51,253.6 166.79,252.48 172.07,251.36 177.34,250.24 182.62,249.12 187.89,248 193.17,246.88 198.44,245.76 203.72,244.64 203.72,244.64" stroke="none" fill="rgb(0,191,125)" stroke-width="1.07" stroke-dasharray="none" stroke-opacity="0" fill-opacity="1"/>
                </g>
                <g id="geom_polygon.polygon.2049.1" class="polygon grob gDesc">
                  <polygon id="geom_polygon.polygon.2049.1.1" points="203.72,244.64 203.46,250.03 203.21,255.42 202.95,260.8 202.69,266.19 202.43,271.58 202.18,276.97 201.92,282.35 201.66,287.74 201.4,293.13 201.14,298.51 200.89,303.9 200.63,309.29 200.37,314.67 200.11,320.06 199.86,325.45 199.6,330.83 199.34,336.22 199.08,341.61 198.83,347 198.57,352.38 198.31,357.77 198.05,363.16 197.8,368.54 197.54,373.93 197.28,379.32 197.02,384.7 196.77,390.09 196.51,395.48 196.25,400.87 190.39,400.48 184.55,399.87 178.74,399.04 172.96,397.99 167.23,396.73 161.55,395.25 155.92,393.56 157.57,388.43 159.22,383.29 160.87,378.16 162.52,373.02 164.16,367.89 165.81,362.75 167.46,357.62 169.11,352.48 170.76,347.35 172.41,342.21 174.05,337.08 175.7,331.94 177.35,326.81 179,321.67 180.65,316.53 182.29,311.4 183.94,306.26 185.59,301.13 187.24,295.99 188.89,290.86 190.54,285.72 192.18,280.59 193.83,275.45 195.48,270.32 197.13,265.18 198.78,260.05 200.42,254.91 202.07,249.78 203.72,244.64 203.72,244.64" stroke="none" fill="rgb(163,165,0)" stroke-width="1.07" stroke-dasharray="none" stroke-opacity="0" fill-opacity="1"/>
                </g>
                <g id="geom_polygon.polygon.2051.1" class="polygon grob gDesc">
                  <polygon id="geom_polygon.polygon.2051.1.1" points="203.72,244.64 203.72,250.04 203.72,255.43 203.72,260.82 203.72,266.22 203.72,271.61 203.72,277 203.72,282.4 203.72,287.79 203.72,293.18 203.72,298.57 203.72,303.97 203.72,309.36 203.72,314.75 203.72,320.15 203.72,325.54 203.72,330.93 203.72,336.33 203.72,341.72 203.72,347.11 203.72,352.51 203.72,357.9 203.72,363.29 203.72,368.69 203.72,374.08 203.72,379.47 203.72,384.86 203.72,390.26 203.72,395.65 203.72,401.04 196.25,400.87 196.51,395.48 196.77,390.09 197.02,384.7 197.28,379.32 197.54,373.93 197.8,368.54 198.05,363.16 198.31,357.77 198.57,352.38 198.83,347 199.08,341.61 199.34,336.22 199.6,330.83 199.86,325.45 200.11,320.06 200.37,314.67 200.63,309.29 200.89,303.9 201.14,298.51 201.4,293.13 201.66,287.74 201.92,282.35 202.18,276.97 202.43,271.58 202.69,266.19 202.95,260.8 203.21,255.42 203.46,250.03 203.72,244.64 203.72,244.64" stroke="none" fill="rgb(248,118,109)" stroke-width="1.07" stroke-dasharray="none" stroke-opacity="0" fill-opacity="1"/>
                </g>
              </g>
              <g id="GRID.text.2054.1" class="text grob gDesc">
                <g id="GRID.text.2054.1.1" transform="translate(280.41, 229.33)" stroke-width="0.1">
                  <g id="GRID.text.2054.1.1.scale" transform="scale(1, -1)">
                    <text x="0" y="0" id="GRID.text.2054.1.1.text" text-anchor="middle" stroke="rgb(0,0,0)" font-size="11.04" font-family="Helvetica, Arial, FreeSans, Liberation Sans, Nimbus Sans L, sans-serif" fill="rgb(0,0,0)" stroke-opacity="1" fill-opacity="1" font-weight="normal" font-style="normal">
                      <tspan id="GRID.text.2054.1.1.tspan.1" dy="3.95" x="0">148</tspan>
                    </text>
                  </g>
                </g>
                <g id="GRID.text.2054.1.2" transform="translate(134.49, 208.27)" stroke-width="0.1">
                  <g id="GRID.text.2054.1.2.scale" transform="scale(1, -1)">
                    <text x="0" y="0" id="GRID.text.2054.1.2.text" text-anchor="middle" stroke="rgb(0,0,0)" font-size="11.04" font-family="Helvetica, Arial, FreeSans, Liberation Sans, Nimbus Sans L, sans-serif" fill="rgb(0,0,0)" stroke-opacity="1" fill-opacity="1" font-weight="normal" font-style="normal">
                      <tspan id="GRID.text.2054.1.2.tspan.1" dy="3.95" x="0">58</tspan>
                    </text>
                  </g>
                </g>
                <g id="GRID.text.2054.1.3" transform="translate(145.69, 297.06)" stroke-width="0.1">
                  <g id="GRID.text.2054.1.3.scale" transform="scale(1, -1)">
                    <text x="0" y="0" id="GRID.text.2054.1.3.text" text-anchor="middle" stroke="rgb(0,0,0)" font-size="11.04" font-family="Helvetica, Arial, FreeSans, Liberation Sans, Nimbus Sans L, sans-serif" fill="rgb(0,0,0)" stroke-opacity="1" fill-opacity="1" font-weight="normal" font-style="normal">
                      <tspan id="GRID.text.2054.1.3.tspan.1" dy="3.95" x="0">44</tspan>
                    </text>
                  </g>
                </g>
                <g id="GRID.text.2054.1.4" transform="translate(189.78, 321.59)" stroke-width="0.1">
                  <g id="GRID.text.2054.1.4.scale" transform="scale(1, -1)">
                    <text x="0" y="0" id="GRID.text.2054.1.4.text" text-anchor="middle" stroke="rgb(0,0,0)" font-size="11.04" font-family="Helvetica, Arial, FreeSans, Liberation Sans, Nimbus Sans L, sans-serif" fill="rgb(0,0,0)" stroke-opacity="1" fill-opacity="1" font-weight="normal" font-style="normal">
                      <tspan id="GRID.text.2054.1.4.tspan.1" dy="3.95" x="0">11</tspan>
                    </text>
                  </g>
                </g>
                <g id="GRID.text.2054.1.5" transform="translate(201.85, 322.82)" stroke-width="0.1">
                  <g id="GRID.text.2054.1.5.scale" transform="scale(1, -1)">
                    <text x="0" y="0" id="GRID.text.2054.1.5.text" text-anchor="middle" stroke="rgb(0,0,0)" font-size="11.04" font-family="Helvetica, Arial, FreeSans, Liberation Sans, Nimbus Sans L, sans-serif" fill="rgb(0,0,0)" stroke-opacity="1" fill-opacity="1" font-weight="normal" font-style="normal">
                      <tspan id="GRID.text.2054.1.5.tspan.1" dy="3.95" x="0">2</tspan>
                    </text>
                  </g>
                </g>
              </g>
              <g id="GRID.gTree.2055.1" class="gTree grob gDesc"/>
            </g>
          </g>
          <g id="layout::spacer.8-6-8-6.1" class="viewport"/>
          <g id="layout::spacer.8-4-8-4.1" class="viewport"/>
          <g id="layout::spacer.6-6-6-6.1" class="viewport"/>
          <g id="layout::spacer.6-4-6-4.1" class="viewport"/>
          <g id="layout::axis-t.6-5-6-5.1" class="viewport"/>
          <g id="layout::axis-l.7-4-7-4.1" class="viewport">
            <g id="layout::axis-l.7-4-7-4::GRID.VP.485.1" class="viewport">
              <g id="axis-l.7-4-7-4.1" class="forcedgrob gTableChild absoluteGrob gTree grob gDesc">
                <g id="layout::axis-l.7-4-7-4::GRID.VP.485::axis.1" class="viewport">
                  <g id="axis.1" class="forcedgrob gtable gTree grob gDesc">
                    <g id="layout::axis-l.7-4-7-4::GRID.VP.485::axis::axis.1-1-1-1.1" class="viewport"/>
                    <g id="layout::axis-l.7-4-7-4::GRID.VP.485::axis::axis.1-2-1-2.1" class="viewport"/>
                  </g>
                </g>
              </g>
            </g>
          </g>
          <g id="layout::axis-r.7-6-7-6.1" class="viewport"/>
          <g id="layout::axis-b.8-5-8-5.1" class="viewport">
            <g id="layout::axis-b.8-5-8-5::GRID.VP.484.1" class="viewport">
              <g id="axis-b.8-5-8-5.1" class="forcedgrob gTableChild absoluteGrob gTree grob gDesc">
                <g id="layout::axis-b.8-5-8-5::GRID.VP.484::axis.1" class="viewport">
                  <g id="axis.2" class="forcedgrob gtable gTree grob gDesc">
                    <g id="layout::axis-b.8-5-8-5::GRID.VP.484::axis::axis.1-1-1-1.1" class="viewport"/>
                    <g id="layout::axis-b.8-5-8-5::GRID.VP.484::axis::axis.2-1-2-1.1" class="viewport"/>
                  </g>
                </g>
              </g>
            </g>
          </g>
          <g id="layout::xlab-t.5-5-5-5.1" class="viewport"/>
          <g id="layout::xlab-b.9-5-9-5.1" class="viewport"/>
          <g id="layout::ylab-l.7-3-7-3.1" class="viewport"/>
          <g id="layout::ylab-r.7-7-7-7.1" class="viewport"/>
          <g id="layout::guide-box.7-9-7-9.1" class="viewport">
            <g id="layout::guide-box.7-9-7-9::GRID.VP.502.1" class="viewport">
              <g id="layout::guide-box.7-9-7-9::GRID.VP.502::guide-box.7-9-7-9.1" class="viewport">
                <g id="guide-box.7-9-7-9.1" class="forcedgrob gTableChild gtable gTree grob gDesc">
                  <g id="layout::guide-box.7-9-7-9::GRID.VP.502::guide-box.7-9-7-9::legend.box.background.2-4-4-2.1" class="viewport"/>
                  <g id="layout::guide-box.7-9-7-9::GRID.VP.502::guide-box.7-9-7-9::guides.3-3-3-3.1" class="viewport">
                    <g id="layout::guide-box.7-9-7-9::GRID.VP.502::guide-box.7-9-7-9::guides.3-3-3-3::GRID.VP.501.1" class="viewport">
                      <g id="layout::guide-box.7-9-7-9::GRID.VP.502::guide-box.7-9-7-9::guides.3-3-3-3::GRID.VP.501::guides.3-3-3-3.1" class="viewport">
                        <g id="guides.3-3-3-3.1" class="forcedgrob gTableChild gtable gTree grob gDesc">
                          <g id="layout::guide-box.7-9-7-9::GRID.VP.502::guide-box.7-9-7-9::guides.3-3-3-3::GRID.VP.501::guides.3-3-3-3::background.1-6-9-1.1" class="viewport">
                            <g id="background.1-6-9-1.1" class="forcedgrob gTableChild rect grob gDesc">
                              <rect id="background.1-6-9-1.1.1" x="410.18" y="193.22" width="88.34" height="102.84" transform="" stroke-width="1.07" stroke="none" fill="rgb(255,255,255)" stroke-dasharray="none" stroke-opacity="0" fill-opacity="1"/>
                            </g>
                          </g>
                          <g id="layout::guide-box.7-9-7-9::GRID.VP.502::guide-box.7-9-7-9::guides.3-3-3-3::GRID.VP.501::guides.3-3-3-3::title.2-5-2-2.1" class="viewport"/>
                          <g id="layout::guide-box.7-9-7-9::GRID.VP.502::guide-box.7-9-7-9::guides.3-3-3-3::GRID.VP.501::guides.3-3-3-3::key-3-1-bg.4-2-4-2.1" class="viewport"/>
                          <g id="layout::guide-box.7-9-7-9::GRID.VP.502::guide-box.7-9-7-9::guides.3-3-3-3::GRID.VP.501::guides.3-3-3-3::key-3-1-1.4-2-4-2.1" class="viewport">
                            <g id="key-3-1-1.4-2-4-2.1" class="forcedgrob gTableChild rect grob gDesc">
                              <rect id="key-3-1-1.4-2-4-2.1.1" x="416.37" y="268.53" width="15.86" height="15.86" transform="" stroke="none" fill="rgb(248,118,109)" stroke-dasharray="none" stroke-width="1.07" stroke-linejoin="miter" stroke-opacity="0" fill-opacity="1"/>
                            </g>
                          </g>
                          <g id="layout::guide-box.7-9-7-9::GRID.VP.502::guide-box.7-9-7-9::guides.3-3-3-3::GRID.VP.501::guides.3-3-3-3::key-4-1-bg.5-2-5-2.1" class="viewport"/>
                          <g id="layout::guide-box.7-9-7-9::GRID.VP.502::guide-box.7-9-7-9::guides.3-3-3-3::GRID.VP.501::guides.3-3-3-3::key-4-1-1.5-2-5-2.1" class="viewport">
                            <g id="key-4-1-1.5-2-5-2.1" class="forcedgrob gTableChild rect grob gDesc">
                              <rect id="key-4-1-1.5-2-5-2.1.1" x="416.37" y="251.25" width="15.86" height="15.86" transform="" stroke="none" fill="rgb(163,165,0)" stroke-dasharray="none" stroke-width="1.07" stroke-linejoin="miter" stroke-opacity="0" fill-opacity="1"/>
                            </g>
                          </g>
                          <g id="layout::guide-box.7-9-7-9::GRID.VP.502::guide-box.7-9-7-9::guides.3-3-3-3::GRID.VP.501::guides.3-3-3-3::key-5-1-bg.6-2-6-2.1" class="viewport"/>
                          <g id="layout::guide-box.7-9-7-9::GRID.VP.502::guide-box.7-9-7-9::guides.3-3-3-3::GRID.VP.501::guides.3-3-3-3::key-5-1-1.6-2-6-2.1" class="viewport">
                            <g id="key-5-1-1.6-2-6-2.1" class="forcedgrob gTableChild rect grob gDesc">
                              <rect id="key-5-1-1.6-2-6-2.1.1" x="416.37" y="233.97" width="15.86" height="15.86" transform="" stroke="none" fill="rgb(0,191,125)" stroke-dasharray="none" stroke-width="1.07" stroke-linejoin="miter" stroke-opacity="0" fill-opacity="1"/>
                            </g>
                          </g>
                          <g id="layout::guide-box.7-9-7-9::GRID.VP.502::guide-box.7-9-7-9::guides.3-3-3-3::GRID.VP.501::guides.3-3-3-3::key-6-1-bg.7-2-7-2.1" class="viewport"/>
                          <g id="layout::guide-box.7-9-7-9::GRID.VP.502::guide-box.7-9-7-9::guides.3-3-3-3::GRID.VP.501::guides.3-3-3-3::key-6-1-1.7-2-7-2.1" class="viewport">
                            <g id="key-6-1-1.7-2-7-2.1" class="forcedgrob gTableChild rect grob gDesc">
                              <rect id="key-6-1-1.7-2-7-2.1.1" x="416.37" y="216.69" width="15.86" height="15.86" transform="" stroke="none" fill="rgb(0,176,246)" stroke-dasharray="none" stroke-width="1.07" stroke-linejoin="miter" stroke-opacity="0" fill-opacity="1"/>
                            </g>
                          </g>
                          <g id="layout::guide-box.7-9-7-9::GRID.VP.502::guide-box.7-9-7-9::guides.3-3-3-3::GRID.VP.501::guides.3-3-3-3::key-7-1-bg.8-2-8-2.1" class="viewport"/>
                          <g id="layout::guide-box.7-9-7-9::GRID.VP.502::guide-box.7-9-7-9::guides.3-3-3-3::GRID.VP.501::guides.3-3-3-3::key-7-1-1.8-2-8-2.1" class="viewport">
                            <g id="key-7-1-1.8-2-8-2.1" class="forcedgrob gTableChild rect grob gDesc">
                              <rect id="key-7-1-1.8-2-8-2.1.1" x="416.37" y="199.41" width="15.86" height="15.86" transform="" stroke="none" fill="rgb(231,107,243)" stroke-dasharray="none" stroke-width="1.07" stroke-linejoin="miter" stroke-opacity="0" fill-opacity="1"/>
                            </g>
                          </g>
                          <g id="layout::guide-box.7-9-7-9::GRID.VP.502::guide-box.7-9-7-9::guides.3-3-3-3::GRID.VP.501::guides.3-3-3-3::label-3-3.4-4-4-4.1" class="viewport">
                            <g id="layout::guide-box.7-9-7-9::GRID.VP.502::guide-box.7-9-7-9::guides.3-3-3-3::GRID.VP.501::guides.3-3-3-3::label-3-3.4-4-4-4::GRID.VP.496.1" class="viewport">
                              <g id="label-3-3.4-4-4-4.1" class="forcedgrob gTableChild gTree grob gDesc">
                                <g id="layout::guide-box.7-9-7-9::GRID.VP.502::guide-box.7-9-7-9::guides.3-3-3-3::GRID.VP.501::guides.3-3-3-3::label-3-3.4-4-4-4::GRID.VP.496::GRID.VP.486.1" font-size="8.8" stroke="rgb(0,0,0)" font-family="Helvetica, Arial, FreeSans, Liberation Sans, Nimbus Sans L, sans-serif" stroke-opacity="1" font-weight="normal" font-style="normal" class="viewport">
                                  <g id="layout::guide-box.7-9-7-9::GRID.VP.502::guide-box.7-9-7-9::guides.3-3-3-3::GRID.VP.501::guides.3-3-3-3::label-3-3.4-4-4-4::GRID.VP.496::GRID.VP.486::GRID.VP.487.1" class="viewport">
                                    <g id="guide.label.titleGrob.2078.1" class="titleGrob gTree grob gDesc">
                                      <g id="GRID.text.2076.1" class="text grob gDesc">
                                        <g id="GRID.text.2076.1.1" transform="translate(438.42, 276.46)" stroke-width="0.1">
                                          <g id="GRID.text.2076.1.1.scale" transform="scale(1, -1)">
                                            <text x="0" y="0" id="GRID.text.2076.1.1.text" text-anchor="start" font-size="8.8" stroke="rgb(0,0,0)" font-family="Helvetica, Arial, FreeSans, Liberation Sans, Nimbus Sans L, sans-serif" fill="rgb(0,0,0)" stroke-opacity="1" fill-opacity="1" font-weight="normal" font-style="normal">
                                              <tspan id="GRID.text.2076.1.1.tspan.1" dy="3.23" x="0">nessuno (2)</tspan>
                                            </text>
                                          </g>
                                        </g>
                                      </g>
                                    </g>
                                  </g>
                                </g>
                              </g>
                            </g>
                          </g>
                          <g id="layout::guide-box.7-9-7-9::GRID.VP.502::guide-box.7-9-7-9::guides.3-3-3-3::GRID.VP.501::guides.3-3-3-3::label-4-3.5-4-5-4.1" class="viewport">
                            <g id="layout::guide-box.7-9-7-9::GRID.VP.502::guide-box.7-9-7-9::guides.3-3-3-3::GRID.VP.501::guides.3-3-3-3::label-4-3.5-4-5-4::GRID.VP.497.1" class="viewport">
                              <g id="label-4-3.5-4-5-4.1" class="forcedgrob gTableChild gTree grob gDesc">
                                <g id="layout::guide-box.7-9-7-9::GRID.VP.502::guide-box.7-9-7-9::guides.3-3-3-3::GRID.VP.501::guides.3-3-3-3::label-4-3.5-4-5-4::GRID.VP.497::GRID.VP.488.1" font-size="8.8" stroke="rgb(0,0,0)" font-family="Helvetica, Arial, FreeSans, Liberation Sans, Nimbus Sans L, sans-serif" stroke-opacity="1" font-weight="normal" font-style="normal" class="viewport">
                                  <g id="layout::guide-box.7-9-7-9::GRID.VP.502::guide-box.7-9-7-9::guides.3-3-3-3::GRID.VP.501::guides.3-3-3-3::label-4-3.5-4-5-4::GRID.VP.497::GRID.VP.488::GRID.VP.489.1" class="viewport">
                                    <g id="guide.label.titleGrob.2081.1" class="titleGrob gTree grob gDesc">
                                      <g id="GRID.text.2079.1" class="text grob gDesc">
                                        <g id="GRID.text.2079.1.1" transform="translate(438.42, 259.18)" stroke-width="0.1">
                                          <g id="GRID.text.2079.1.1.scale" transform="scale(1, -1)">
                                            <text x="0" y="0" id="GRID.text.2079.1.1.text" text-anchor="start" font-size="8.8" stroke="rgb(0,0,0)" font-family="Helvetica, Arial, FreeSans, Liberation Sans, Nimbus Sans L, sans-serif" fill="rgb(0,0,0)" stroke-opacity="1" fill-opacity="1" font-weight="normal" font-style="normal">
                                              <tspan id="GRID.text.2079.1.1.tspan.1" dy="3.23" x="0">tutto (11)</tspan>
                                            </text>
                                          </g>
                                        </g>
                                      </g>
                                    </g>
                                  </g>
                                </g>
                              </g>
                            </g>
                          </g>
                          <g id="layout::guide-box.7-9-7-9::GRID.VP.502::guide-box.7-9-7-9::guides.3-3-3-3::GRID.VP.501::guides.3-3-3-3::label-5-3.6-4-6-4.1" class="viewport">
                            <g id="layout::guide-box.7-9-7-9::GRID.VP.502::guide-box.7-9-7-9::guides.3-3-3-3::GRID.VP.501::guides.3-3-3-3::label-5-3.6-4-6-4::GRID.VP.498.1" class="viewport">
                              <g id="label-5-3.6-4-6-4.1" class="forcedgrob gTableChild gTree grob gDesc">
                                <g id="layout::guide-box.7-9-7-9::GRID.VP.502::guide-box.7-9-7-9::guides.3-3-3-3::GRID.VP.501::guides.3-3-3-3::label-5-3.6-4-6-4::GRID.VP.498::GRID.VP.490.1" font-size="8.8" stroke="rgb(0,0,0)" font-family="Helvetica, Arial, FreeSans, Liberation Sans, Nimbus Sans L, sans-serif" stroke-opacity="1" font-weight="normal" font-style="normal" class="viewport">
                                  <g id="layout::guide-box.7-9-7-9::GRID.VP.502::guide-box.7-9-7-9::guides.3-3-3-3::GRID.VP.501::guides.3-3-3-3::label-5-3.6-4-6-4::GRID.VP.498::GRID.VP.490::GRID.VP.491.1" class="viewport">
                                    <g id="guide.label.titleGrob.2084.1" class="titleGrob gTree grob gDesc">
                                      <g id="GRID.text.2082.1" class="text grob gDesc">
                                        <g id="GRID.text.2082.1.1" transform="translate(438.42, 241.9)" stroke-width="0.1">
                                          <g id="GRID.text.2082.1.1.scale" transform="scale(1, -1)">
                                            <text x="0" y="0" id="GRID.text.2082.1.1.text" text-anchor="start" font-size="8.8" stroke="rgb(0,0,0)" font-family="Helvetica, Arial, FreeSans, Liberation Sans, Nimbus Sans L, sans-serif" fill="rgb(0,0,0)" stroke-opacity="1" fill-opacity="1" font-weight="normal" font-style="normal">
                                              <tspan id="GRID.text.2082.1.1.tspan.1" dy="3.23" x="0">base (44)</tspan>
                                            </text>
                                          </g>
                                        </g>
                                      </g>
                                    </g>
                                  </g>
                                </g>
                              </g>
                            </g>
                          </g>
                          <g id="layout::guide-box.7-9-7-9::GRID.VP.502::guide-box.7-9-7-9::guides.3-3-3-3::GRID.VP.501::guides.3-3-3-3::label-6-3.7-4-7-4.1" class="viewport">
                            <g id="layout::guide-box.7-9-7-9::GRID.VP.502::guide-box.7-9-7-9::guides.3-3-3-3::GRID.VP.501::guides.3-3-3-3::label-6-3.7-4-7-4::GRID.VP.499.1" class="viewport">
                              <g id="label-6-3.7-4-7-4.1" class="forcedgrob gTableChild gTree grob gDesc">
                                <g id="layout::guide-box.7-9-7-9::GRID.VP.502::guide-box.7-9-7-9::guides.3-3-3-3::GRID.VP.501::guides.3-3-3-3::label-6-3.7-4-7-4::GRID.VP.499::GRID.VP.492.1" font-size="8.8" stroke="rgb(0,0,0)" font-family="Helvetica, Arial, FreeSans, Liberation Sans, Nimbus Sans L, sans-serif" stroke-opacity="1" font-weight="normal" font-style="normal" class="viewport">
                                  <g id="layout::guide-box.7-9-7-9::GRID.VP.502::guide-box.7-9-7-9::guides.3-3-3-3::GRID.VP.501::guides.3-3-3-3::label-6-3.7-4-7-4::GRID.VP.499::GRID.VP.492::GRID.VP.493.1" class="viewport">
                                    <g id="guide.label.titleGrob.2087.1" class="titleGrob gTree grob gDesc">
                                      <g id="GRID.text.2085.1" class="text grob gDesc">
                                        <g id="GRID.text.2085.1.1" transform="translate(438.42, 224.62)" stroke-width="0.1">
                                          <g id="GRID.text.2085.1.1.scale" transform="scale(1, -1)">
                                            <text x="0" y="0" id="GRID.text.2085.1.1.text" text-anchor="start" font-size="8.8" stroke="rgb(0,0,0)" font-family="Helvetica, Arial, FreeSans, Liberation Sans, Nimbus Sans L, sans-serif" fill="rgb(0,0,0)" stroke-opacity="1" fill-opacity="1" font-weight="normal" font-style="normal">
                                              <tspan id="GRID.text.2085.1.1.tspan.1" dy="3.23" x="0">avanzato (58)</tspan>
                                            </text>
                                          </g>
                                        </g>
                                      </g>
                                    </g>
                                  </g>
                                </g>
                              </g>
                            </g>
                          </g>
                          <g id="layout::guide-box.7-9-7-9::GRID.VP.502::guide-box.7-9-7-9::guides.3-3-3-3::GRID.VP.501::guides.3-3-3-3::label-7-3.8-4-8-4.1" class="viewport">
                            <g id="layout::guide-box.7-9-7-9::GRID.VP.502::guide-box.7-9-7-9::guides.3-3-3-3::GRID.VP.501::guides.3-3-3-3::label-7-3.8-4-8-4::GRID.VP.500.1" class="viewport">
                              <g id="label-7-3.8-4-8-4.1" class="forcedgrob gTableChild gTree grob gDesc">
                                <g id="layout::guide-box.7-9-7-9::GRID.VP.502::guide-box.7-9-7-9::guides.3-3-3-3::GRID.VP.501::guides.3-3-3-3::label-7-3.8-4-8-4::GRID.VP.500::GRID.VP.494.1" font-size="8.8" stroke="rgb(0,0,0)" font-family="Helvetica, Arial, FreeSans, Liberation Sans, Nimbus Sans L, sans-serif" stroke-opacity="1" font-weight="normal" font-style="normal" class="viewport">
                                  <g id="layout::guide-box.7-9-7-9::GRID.VP.502::guide-box.7-9-7-9::guides.3-3-3-3::GRID.VP.501::guides.3-3-3-3::label-7-3.8-4-8-4::GRID.VP.500::GRID.VP.494::GRID.VP.495.1" class="viewport">
                                    <g id="guide.label.titleGrob.2090.1" class="titleGrob gTree grob gDesc">
                                      <g id="GRID.text.2088.1" class="text grob gDesc">
                                        <g id="GRID.text.2088.1.1" transform="translate(438.42, 207.34)" stroke-width="0.1">
                                          <g id="GRID.text.2088.1.1.scale" transform="scale(1, -1)">
                                            <text x="0" y="0" id="GRID.text.2088.1.1.text" text-anchor="start" font-size="8.8" stroke="rgb(0,0,0)" font-family="Helvetica, Arial, FreeSans, Liberation Sans, Nimbus Sans L, sans-serif" fill="rgb(0,0,0)" stroke-opacity="1" fill-opacity="1" font-weight="normal" font-style="normal">
                                              <tspan id="GRID.text.2088.1.1.tspan.1" dy="3.23" x="0">medio (148)</tspan>
                                            </text>
                                          </g>
                                        </g>
                                      </g>
                                    </g>
                                  </g>
                                </g>
                              </g>
                            </g>
                          </g>
                        </g>
                      </g>
                    </g>
                  </g>
                </g>
              </g>
            </g>
          </g>
          <g id="layout::subtitle.4-5-4-5.1" class="viewport"/>
          <g id="layout::title.3-5-3-5.1" class="viewport">
            <g id="layout::title.3-5-3-5::GRID.VP.503.1" font-size="13.2" stroke="rgb(102,102,102)" font-family="Helvetica, Arial, FreeSans, Liberation Sans, Nimbus Sans L, sans-serif" stroke-opacity="1" font-weight="normal" font-style="normal" class="viewport">
              <g id="layout::title.3-5-3-5::GRID.VP.503::GRID.VP.504.1" class="viewport">
                <g id="title.3-5-3-5.1" class="forcedgrob gTableChild titleGrob gTree grob gDesc">
                  <g id="GRID.text.2108.1" class="text grob gDesc">
                    <g id="GRID.text.2108.1.1" transform="translate(203.72, 457.6)" stroke-width="0.1">
                      <g id="GRID.text.2108.1.1.scale" transform="scale(1, -1)">
                        <text x="0" y="0" id="GRID.text.2108.1.1.text" text-anchor="middle" font-size="13.2" stroke="rgb(102,102,102)" font-family="Helvetica, Arial, FreeSans, Liberation Sans, Nimbus Sans L, sans-serif" fill="rgb(102,102,102)" stroke-opacity="1" fill-opacity="1" font-weight="normal" font-style="normal">
                          <tspan id="GRID.text.2108.1.1.tspan.1" dy="9.33" x="0">anagrafica totali-elaborazioneinformazioni</tspan>
                        </text>
                      </g>
                    </g>
                  </g>
                </g>
              </g>
            </g>
          </g>
          <g id="layout::caption.10-5-10-5.1" class="viewport"/>
          <g id="layout::tag.2-2-2-2.1" class="viewport"/>
        </g>
      </g>
    </g>
  </g>
</svg>