<?xml version="1.0" encoding="UTF-8"?>
<svg xmlns="http://www.w3.org/2000/svg" xmlns:xlink="http://www.w3.org/1999/xlink" width="504px" height="504px" viewBox="0 0 504 504" version="1.1">
  <metadata xmlns:gridsvg="http://www.stat.auckland.ac.nz/~paul/R/gridSVG/">
    <gridsvg:generator name="gridSVG" version="1.6-0" time="2019-01-14 16:00:06"/>
    <gridsvg:argument name="name" value="./latest_informaggio_csv/risultati/svg/anagrafica-totali-espertouniversita.svg"/>
    <gridsvg:argument name="exportCoords" value="none"/>
    <gridsvg:argument name="exportMappings" value="none"/>
    <gridsvg:argument name="exportJS" value="none"/>
    <gridsvg:argument name="res" value="72"/>
    <gridsvg:argument name="prefix" value=""/>
    <gridsvg:argument name="addClasses" value="TRUE"/>
    <gridsvg:argument name="indent" value="TRUE"/>
    <gridsvg:argument name="htmlWrapper" value="FALSE"/>
    <gridsvg:argument name="usePaths" value="vpPaths"/>
    <gridsvg:argument name="uniqueNames" value="TRUE"/>
    <gridsvg:separator name="id.sep" value="."/>
    <gridsvg:separator name="gPath.sep" value="::"/>
    <gridsvg:separator name="vpPath.sep" value="::"/>
  </metadata>
  <g transform="translate(0, 504) scale(1, -1)">
    <g id="gridSVG" fill="none" stroke="rgb(0,0,0)" stroke-dasharray="none" stroke-width="0.75" font-size="12" font-family="Helvetica, Arial, FreeSans, Liberation Sans, Nimbus Sans L, sans-serif" opacity="1" stroke-linecap="round" stroke-linejoin="round" stroke-miterlimit="10" stroke-opacity="1" fill-opacity="0" font-weight="normal" font-style="normal">
      <g id="layout.1" class="viewport">
        <g id="layout.2" class="forcedgrob gtable gTree grob gDesc">
          <defs>
            <clipPath id="layout::background.1-11-12-1.1.clipPath">
              <rect x="0" y="28.37" width="504" height="447.27" fill="none" stroke="none"/>
            </clipPath>
          </defs>
          <g id="layout::background.1-11-12-1.1" clip-path="url(#layout::background.1-11-12-1.1.clipPath)" class="viewport">
            <g id="background.1-11-12-1.1" class="forcedgrob gTableChild rect grob gDesc">
              <rect id="background.1-11-12-1.1.1" x="0" y="28.37" width="504" height="447.27" transform="" stroke-width="1.07" stroke="rgb(255,255,255)" fill="rgb(255,255,255)" stroke-dasharray="none" stroke-opacity="1" fill-opacity="1"/>
            </g>
          </g>
          <defs>
            <clipPath id="layout::panel.7-5-7-5.1.clipPath">
              <rect x="8.22" y="36.59" width="416.11" height="416.11" fill="none" stroke="none"/>
            </clipPath>
          </defs>
          <g id="layout::panel.7-5-7-5.1" clip-path="url(#layout::panel.7-5-7-5.1.clipPath)" class="viewport">
            <g id="panel.7-5-7-5.1" class="forcedgrob gTableChild gTree grob gDesc">
              <g id="grill.gTree.2209.1" class="gTree grob gDesc">
                <g id="panel.background..rect.2205.1" class="rect grob gDesc">
                  <rect id="panel.background..rect.2205.1.1" x="8.22" y="36.59" width="416.11" height="416.11" transform="" stroke-width="1.07" stroke="none" fill="rgb(255,255,255)" stroke-dasharray="none" stroke-opacity="0" fill-opacity="1"/>
                </g>
              </g>
              <g id="bar.gTree.2198.1" class="gTree grob gDesc">
                <g id="geom_polygon.polygon.2194.1" class="polygon grob gDesc">
                  <polygon id="geom_polygon.polygon.2194.1.1" points="216.28,244.64 212,240.81 207.73,236.98 203.46,233.14 199.19,229.31 194.92,225.47 190.65,221.64 186.38,217.81 182.1,213.97 177.83,210.14 173.56,206.31 169.29,202.47 165.02,198.64 160.75,194.81 156.48,190.97 152.2,187.14 147.93,183.3 143.66,179.47 139.39,175.64 135.12,171.8 130.85,167.97 126.58,164.14 122.3,160.3 118.03,156.47 113.76,152.64 109.49,148.8 105.22,144.97 100.95,141.13 96.68,137.3 92.4,133.47 96.26,129.32 100.25,125.3 104.38,121.42 108.63,117.69 113.02,114.1 117.52,110.66 122.13,107.38 126.86,104.26 131.68,101.3 136.61,98.5 141.63,95.88 146.73,93.42 151.91,91.15 157.17,89.04 162.5,87.12 167.89,85.39 173.34,83.83 178.83,82.46 184.37,81.28 189.95,80.29 195.55,79.49 201.18,78.88 206.83,78.47 212.49,78.24 218.15,78.21 223.81,78.37 229.46,78.72 235.1,79.27 240.72,80 246.3,80.93 251.86,82.05 257.37,83.35 262.83,84.84 268.24,86.52 273.59,88.38 278.87,90.42 284.08,92.64 289.21,95.03 294.26,97.6 299.22,100.34 304.08,103.24 308.84,106.31 313.49,109.54 318.03,112.92 322.45,116.46 326.75,120.15 330.92,123.98 334.96,127.95 338.86,132.05 342.62,136.29 346.23,140.65 349.7,145.13 353.01,149.73 356.15,154.43 359.14,159.24 361.97,164.15 364.62,169.16 367.1,174.25 369.41,179.42 371.54,184.66 373.49,189.98 375.26,195.36 376.84,200.8 378.24,206.29 379.45,211.82 380.47,217.39 381.31,222.99 381.95,228.62 382.4,234.26 382.65,239.92 382.72,245.58 382.59,251.24 382.27,256.9 381.76,262.54 381.05,268.16 380.16,273.75 379.07,279.31 377.8,284.82 376.34,290.3 374.69,295.71 372.86,301.07 370.85,306.37 368.66,311.59 366.3,316.74 363.76,321.8 361.05,326.77 358.17,331.65 355.13,336.42 351.93,341.09 348.57,345.65 345.05,350.1 341.39,354.42 337.59,358.61 333.64,362.67 329.56,366.59 325.34,370.38 321,374.01 316.54,377.5 311.96,380.84 307.27,384.01 302.48,387.03 297.59,389.88 292.6,392.56 287.52,395.07 282.36,397.41 277.13,399.57 271.82,401.55 266.45,403.34 261.02,404.96 255.55,406.39 250.02,407.63 244.46,408.69 238.86,409.55 233.24,410.22 227.59,410.7 221.94,410.99 216.28,411.09 216.28,405.35 216.28,399.61 216.28,393.87 216.28,388.13 216.28,382.39 216.28,376.65 216.28,370.91 216.28,365.17 216.28,359.43 216.28,353.69 216.28,347.95 216.28,342.21 216.28,336.47 216.28,330.74 216.28,325 216.28,319.26 216.28,313.52 216.28,307.78 216.28,302.04 216.28,296.3 216.28,290.56 216.28,284.82 216.28,279.08 216.28,273.34 216.28,267.6 216.28,261.86 216.28,256.12 216.28,250.38 216.28,244.64 216.28,244.64" stroke="none" fill="rgb(0,191,196)" stroke-width="1.07" stroke-dasharray="none" stroke-opacity="0" fill-opacity="1"/>
                </g>
                <g id="geom_polygon.polygon.2196.1" class="polygon grob gDesc">
                  <polygon id="geom_polygon.polygon.2196.1.1" points="216.28,244.64 216.28,250.38 216.28,256.12 216.28,261.86 216.28,267.6 216.28,273.34 216.28,279.08 216.28,284.82 216.28,290.56 216.28,296.3 216.28,302.04 216.28,307.78 216.28,313.52 216.28,319.26 216.28,325 216.28,330.74 216.28,336.47 216.28,342.21 216.28,347.95 216.28,353.69 216.28,359.43 216.28,365.17 216.28,370.91 216.28,376.65 216.28,382.39 216.28,388.13 216.28,393.87 216.28,399.61 216.28,405.35 216.28,411.09 210.64,410.99 205.01,410.71 199.4,410.23 193.8,409.56 188.23,408.71 182.7,407.67 177.2,406.44 171.74,405.02 166.34,403.42 160.99,401.64 155.71,399.68 150.5,397.54 145.36,395.23 140.3,392.74 135.33,390.08 130.46,387.26 125.68,384.27 121,381.13 116.44,377.82 111.99,374.37 107.66,370.76 103.45,367.01 99.37,363.12 95.43,359.1 91.62,354.94 87.96,350.66 84.45,346.26 81.08,341.73 77.87,337.1 74.82,332.37 71.93,327.53 69.21,322.59 66.66,317.57 64.27,312.46 62.07,307.28 60.03,302.02 58.18,296.7 56.51,291.32 55.02,285.89 53.72,280.4 52.6,274.88 51.67,269.32 50.93,263.74 50.38,258.13 50.02,252.51 49.85,246.87 49.87,241.24 50.08,235.61 50.48,229.99 51.07,224.38 51.85,218.8 52.82,213.25 53.97,207.74 55.32,202.26 56.84,196.84 58.55,191.47 60.44,186.16 62.51,180.92 64.76,175.75 67.18,170.66 69.77,165.66 72.52,160.74 75.45,155.93 78.53,151.21 81.77,146.6 85.17,142.1 88.71,137.72 92.4,133.47 96.68,137.3 100.95,141.13 105.22,144.97 109.49,148.8 113.76,152.64 118.03,156.47 122.3,160.3 126.58,164.14 130.85,167.97 135.12,171.8 139.39,175.64 143.66,179.47 147.93,183.3 152.2,187.14 156.48,190.97 160.75,194.81 165.02,198.64 169.29,202.47 173.56,206.31 177.83,210.14 182.1,213.97 186.38,217.81 190.65,221.64 194.92,225.47 199.19,229.31 203.46,233.14 207.73,236.98 212,240.81 216.28,244.64 216.28,244.64" stroke="none" fill="rgb(248,118,109)" stroke-width="1.07" stroke-dasharray="none" stroke-opacity="0" fill-opacity="1"/>
                </g>
              </g>
              <g id="GRID.text.2199.1" class="text grob gDesc">
                <g id="GRID.text.2199.1.1" transform="translate(292.28, 210.73)" stroke-width="0.1">
                  <g id="GRID.text.2199.1.1.scale" transform="scale(1, -1)">
                    <text x="0" y="0" id="GRID.text.2199.1.1.text" text-anchor="middle" stroke="rgb(0,0,0)" font-size="11.04" font-family="Helvetica, Arial, FreeSans, Liberation Sans, Nimbus Sans L, sans-serif" fill="rgb(0,0,0)" stroke-opacity="1" fill-opacity="1" font-weight="normal" font-style="normal">
                      <tspan id="GRID.text.2199.1.1.tspan.1" dy="3.95" x="0">166</tspan>
                    </text>
                  </g>
                </g>
                <g id="GRID.text.2199.1.2" transform="translate(140.28, 278.55)" stroke-width="0.1">
                  <g id="GRID.text.2199.1.2.scale" transform="scale(1, -1)">
                    <text x="0" y="0" id="GRID.text.2199.1.2.text" text-anchor="middle" stroke="rgb(0,0,0)" font-size="11.04" font-family="Helvetica, Arial, FreeSans, Liberation Sans, Nimbus Sans L, sans-serif" fill="rgb(0,0,0)" stroke-opacity="1" fill-opacity="1" font-weight="normal" font-style="normal">
                      <tspan id="GRID.text.2199.1.2.tspan.1" dy="3.95" x="0">96</tspan>
                    </text>
                  </g>
                </g>
              </g>
              <g id="GRID.gTree.2200.1" class="gTree grob gDesc"/>
            </g>
          </g>
          <g id="layout::spacer.8-6-8-6.1" class="viewport"/>
          <g id="layout::spacer.8-4-8-4.1" class="viewport"/>
          <g id="layout::spacer.6-6-6-6.1" class="viewport"/>
          <g id="layout::spacer.6-4-6-4.1" class="viewport"/>
          <g id="layout::axis-t.6-5-6-5.1" class="viewport"/>
          <g id="layout::axis-l.7-4-7-4.1" class="viewport">
            <g id="layout::axis-l.7-4-7-4::GRID.VP.518.1" class="viewport">
              <g id="axis-l.7-4-7-4.1" class="forcedgrob gTableChild absoluteGrob gTree grob gDesc">
                <g id="layout::axis-l.7-4-7-4::GRID.VP.518::axis.1" class="viewport">
                  <g id="axis.1" class="forcedgrob gtable gTree grob gDesc">
                    <g id="layout::axis-l.7-4-7-4::GRID.VP.518::axis::axis.1-1-1-1.1" class="viewport"/>
                    <g id="layout::axis-l.7-4-7-4::GRID.VP.518::axis::axis.1-2-1-2.1" class="viewport"/>
                  </g>
                </g>
              </g>
            </g>
          </g>
          <g id="layout::axis-r.7-6-7-6.1" class="viewport"/>
          <g id="layout::axis-b.8-5-8-5.1" class="viewport">
            <g id="layout::axis-b.8-5-8-5::GRID.VP.517.1" class="viewport">
              <g id="axis-b.8-5-8-5.1" class="forcedgrob gTableChild absoluteGrob gTree grob gDesc">
                <g id="layout::axis-b.8-5-8-5::GRID.VP.517::axis.1" class="viewport">
                  <g id="axis.2" class="forcedgrob gtable gTree grob gDesc">
                    <g id="layout::axis-b.8-5-8-5::GRID.VP.517::axis::axis.1-1-1-1.1" class="viewport"/>
                    <g id="layout::axis-b.8-5-8-5::GRID.VP.517::axis::axis.2-1-2-1.1" class="viewport"/>
                  </g>
                </g>
              </g>
            </g>
          </g>
          <g id="layout::xlab-t.5-5-5-5.1" class="viewport"/>
          <g id="layout::xlab-b.9-5-9-5.1" class="viewport"/>
          <g id="layout::ylab-l.7-3-7-3.1" class="viewport"/>
          <g id="layout::ylab-r.7-7-7-7.1" class="viewport"/>
          <g id="layout::guide-box.7-9-7-9.1" class="viewport">
            <g id="layout::guide-box.7-9-7-9::GRID.VP.526.1" class="viewport">
              <g id="layout::guide-box.7-9-7-9::GRID.VP.526::guide-box.7-9-7-9.1" class="viewport">
                <g id="guide-box.7-9-7-9.1" class="forcedgrob gTableChild gtable gTree grob gDesc">
                  <g id="layout::guide-box.7-9-7-9::GRID.VP.526::guide-box.7-9-7-9::legend.box.background.2-4-4-2.1" class="viewport"/>
                  <g id="layout::guide-box.7-9-7-9::GRID.VP.526::guide-box.7-9-7-9::guides.3-3-3-3.1" class="viewport">
                    <g id="layout::guide-box.7-9-7-9::GRID.VP.526::guide-box.7-9-7-9::guides.3-3-3-3::GRID.VP.525.1" class="viewport">
                      <g id="layout::guide-box.7-9-7-9::GRID.VP.526::guide-box.7-9-7-9::guides.3-3-3-3::GRID.VP.525::guides.3-3-3-3.1" class="viewport">
                        <g id="guides.3-3-3-3.1" class="forcedgrob gTableChild gtable gTree grob gDesc">
                          <g id="layout::guide-box.7-9-7-9::GRID.VP.526::guide-box.7-9-7-9::guides.3-3-3-3::GRID.VP.525::guides.3-3-3-3::background.1-6-6-1.1" class="viewport">
                            <g id="background.1-6-6-1.1" class="forcedgrob gTableChild rect grob gDesc">
                              <rect id="background.1-6-6-1.1.1" x="435.29" y="219.14" width="63.23" height="51" transform="" stroke-width="1.07" stroke="none" fill="rgb(255,255,255)" stroke-dasharray="none" stroke-opacity="0" fill-opacity="1"/>
                            </g>
                          </g>
                          <g id="layout::guide-box.7-9-7-9::GRID.VP.526::guide-box.7-9-7-9::guides.3-3-3-3::GRID.VP.525::guides.3-3-3-3::title.2-5-2-2.1" class="viewport"/>
                          <g id="layout::guide-box.7-9-7-9::GRID.VP.526::guide-box.7-9-7-9::guides.3-3-3-3::GRID.VP.525::guides.3-3-3-3::key-3-1-bg.4-2-4-2.1" class="viewport"/>
                          <g id="layout::guide-box.7-9-7-9::GRID.VP.526::guide-box.7-9-7-9::guides.3-3-3-3::GRID.VP.525::guides.3-3-3-3::key-3-1-1.4-2-4-2.1" class="viewport">
                            <g id="key-3-1-1.4-2-4-2.1" class="forcedgrob gTableChild rect grob gDesc">
                              <rect id="key-3-1-1.4-2-4-2.1.1" x="441.48" y="242.61" width="15.86" height="15.86" transform="" stroke="none" fill="rgb(248,118,109)" stroke-dasharray="none" stroke-width="1.07" stroke-linejoin="miter" stroke-opacity="0" fill-opacity="1"/>
                            </g>
                          </g>
                          <g id="layout::guide-box.7-9-7-9::GRID.VP.526::guide-box.7-9-7-9::guides.3-3-3-3::GRID.VP.525::guides.3-3-3-3::key-4-1-bg.5-2-5-2.1" class="viewport"/>
                          <g id="layout::guide-box.7-9-7-9::GRID.VP.526::guide-box.7-9-7-9::guides.3-3-3-3::GRID.VP.525::guides.3-3-3-3::key-4-1-1.5-2-5-2.1" class="viewport">
                            <g id="key-4-1-1.5-2-5-2.1" class="forcedgrob gTableChild rect grob gDesc">
                              <rect id="key-4-1-1.5-2-5-2.1.1" x="441.48" y="225.33" width="15.86" height="15.86" transform="" stroke="none" fill="rgb(0,191,196)" stroke-dasharray="none" stroke-width="1.07" stroke-linejoin="miter" stroke-opacity="0" fill-opacity="1"/>
                            </g>
                          </g>
                          <g id="layout::guide-box.7-9-7-9::GRID.VP.526::guide-box.7-9-7-9::guides.3-3-3-3::GRID.VP.525::guides.3-3-3-3::label-3-3.4-4-4-4.1" class="viewport">
                            <g id="layout::guide-box.7-9-7-9::GRID.VP.526::guide-box.7-9-7-9::guides.3-3-3-3::GRID.VP.525::guides.3-3-3-3::label-3-3.4-4-4-4::GRID.VP.523.1" class="viewport">
                              <g id="label-3-3.4-4-4-4.1" class="forcedgrob gTableChild gTree grob gDesc">
                                <g id="layout::guide-box.7-9-7-9::GRID.VP.526::guide-box.7-9-7-9::guides.3-3-3-3::GRID.VP.525::guides.3-3-3-3::label-3-3.4-4-4-4::GRID.VP.523::GRID.VP.519.1" font-size="8.8" stroke="rgb(0,0,0)" font-family="Helvetica, Arial, FreeSans, Liberation Sans, Nimbus Sans L, sans-serif" stroke-opacity="1" font-weight="normal" font-style="normal" class="viewport">
                                  <g id="layout::guide-box.7-9-7-9::GRID.VP.526::guide-box.7-9-7-9::guides.3-3-3-3::GRID.VP.525::guides.3-3-3-3::label-3-3.4-4-4-4::GRID.VP.523::GRID.VP.519::GRID.VP.520.1" class="viewport">
                                    <g id="guide.label.titleGrob.2223.1" class="titleGrob gTree grob gDesc">
                                      <g id="GRID.text.2221.1" class="text grob gDesc">
                                        <g id="GRID.text.2221.1.1" transform="translate(463.53, 250.54)" stroke-width="0.1">
                                          <g id="GRID.text.2221.1.1.scale" transform="scale(1, -1)">
                                            <text x="0" y="0" id="GRID.text.2221.1.1.text" text-anchor="start" font-size="8.8" stroke="rgb(0,0,0)" font-family="Helvetica, Arial, FreeSans, Liberation Sans, Nimbus Sans L, sans-serif" fill="rgb(0,0,0)" stroke-opacity="1" fill-opacity="1" font-weight="normal" font-style="normal">
                                              <tspan id="GRID.text.2221.1.1.tspan.1" dy="3.23" x="0">N (96)</tspan>
                                            </text>
                                          </g>
                                        </g>
                                      </g>
                                    </g>
                                  </g>
                                </g>
                              </g>
                            </g>
                          </g>
                          <g id="layout::guide-box.7-9-7-9::GRID.VP.526::guide-box.7-9-7-9::guides.3-3-3-3::GRID.VP.525::guides.3-3-3-3::label-4-3.5-4-5-4.1" class="viewport">
                            <g id="layout::guide-box.7-9-7-9::GRID.VP.526::guide-box.7-9-7-9::guides.3-3-3-3::GRID.VP.525::guides.3-3-3-3::label-4-3.5-4-5-4::GRID.VP.524.1" class="viewport">
                              <g id="label-4-3.5-4-5-4.1" class="forcedgrob gTableChild gTree grob gDesc">
                                <g id="layout::guide-box.7-9-7-9::GRID.VP.526::guide-box.7-9-7-9::guides.3-3-3-3::GRID.VP.525::guides.3-3-3-3::label-4-3.5-4-5-4::GRID.VP.524::GRID.VP.521.1" font-size="8.8" stroke="rgb(0,0,0)" font-family="Helvetica, Arial, FreeSans, Liberation Sans, Nimbus Sans L, sans-serif" stroke-opacity="1" font-weight="normal" font-style="normal" class="viewport">
                                  <g id="layout::guide-box.7-9-7-9::GRID.VP.526::guide-box.7-9-7-9::guides.3-3-3-3::GRID.VP.525::guides.3-3-3-3::label-4-3.5-4-5-4::GRID.VP.524::GRID.VP.521::GRID.VP.522.1" class="viewport">
                                    <g id="guide.label.titleGrob.2226.1" class="titleGrob gTree grob gDesc">
                                      <g id="GRID.text.2224.1" class="text grob gDesc">
                                        <g id="GRID.text.2224.1.1" transform="translate(463.53, 233.26)" stroke-width="0.1">
                                          <g id="GRID.text.2224.1.1.scale" transform="scale(1, -1)">
                                            <text x="0" y="0" id="GRID.text.2224.1.1.text" text-anchor="start" font-size="8.8" stroke="rgb(0,0,0)" font-family="Helvetica, Arial, FreeSans, Liberation Sans, Nimbus Sans L, sans-serif" fill="rgb(0,0,0)" stroke-opacity="1" fill-opacity="1" font-weight="normal" font-style="normal">
                                              <tspan id="GRID.text.2224.1.1.tspan.1" dy="3.23" x="0">S (166)</tspan>
                                            </text>
                                          </g>
                                        </g>
                                      </g>
                                    </g>
                                  </g>
                                </g>
                              </g>
                            </g>
                          </g>
                        </g>
                      </g>
                    </g>
                  </g>
                </g>
              </g>
            </g>
          </g>
          <g id="layout::subtitle.4-5-4-5.1" class="viewport"/>
          <g id="layout::title.3-5-3-5.1" class="viewport">
            <g id="layout::title.3-5-3-5::GRID.VP.527.1" font-size="13.2" stroke="rgb(102,102,102)" font-family="Helvetica, Arial, FreeSans, Liberation Sans, Nimbus Sans L, sans-serif" stroke-opacity="1" font-weight="normal" font-style="normal" class="viewport">
              <g id="layout::title.3-5-3-5::GRID.VP.527::GRID.VP.528.1" class="viewport">
                <g id="title.3-5-3-5.1" class="forcedgrob gTableChild titleGrob gTree grob gDesc">
                  <g id="GRID.text.2235.1" class="text grob gDesc">
                    <g id="GRID.text.2235.1.1" transform="translate(216.28, 470.15)" stroke-width="0.1">
                      <g id="GRID.text.2235.1.1.scale" transform="scale(1, -1)">
                        <text x="0" y="0" id="GRID.text.2235.1.1.text" text-anchor="middle" font-size="13.2" stroke="rgb(102,102,102)" font-family="Helvetica, Arial, FreeSans, Liberation Sans, Nimbus Sans L, sans-serif" fill="rgb(102,102,102)" stroke-opacity="1" fill-opacity="1" font-weight="normal" font-style="normal">
                          <tspan id="GRID.text.2235.1.1.tspan.1" dy="9.33" x="0">anagrafica totali-espertouniversita</tspan>
                        </text>
                      </g>
                    </g>
                  </g>
                </g>
              </g>
            </g>
          </g>
          <g id="layout::caption.10-5-10-5.1" class="viewport"/>
          <g id="layout::tag.2-2-2-2.1" class="viewport"/>
        </g>
      </g>
    </g>
  </g>
</svg>