<?xml version="1.0" encoding="UTF-8"?>
<svg xmlns="http://www.w3.org/2000/svg" xmlns:xlink="http://www.w3.org/1999/xlink" width="504px" height="504px" viewBox="0 0 504 504" version="1.1">
  <metadata xmlns:gridsvg="http://www.stat.auckland.ac.nz/~paul/R/gridSVG/">
    <gridsvg:generator name="gridSVG" version="1.6-0" time="2019-01-18 19:03:16"/>
    <gridsvg:argument name="name" value="./latest_informaggio_csv/risultati/svg/anagrafica-altroattivita.svg"/>
    <gridsvg:argument name="exportCoords" value="none"/>
    <gridsvg:argument name="exportMappings" value="none"/>
    <gridsvg:argument name="exportJS" value="none"/>
    <gridsvg:argument name="res" value="72"/>
    <gridsvg:argument name="prefix" value=""/>
    <gridsvg:argument name="addClasses" value="TRUE"/>
    <gridsvg:argument name="indent" value="TRUE"/>
    <gridsvg:argument name="htmlWrapper" value="FALSE"/>
    <gridsvg:argument name="usePaths" value="vpPaths"/>
    <gridsvg:argument name="uniqueNames" value="TRUE"/>
    <gridsvg:separator name="id.sep" value="."/>
    <gridsvg:separator name="gPath.sep" value="::"/>
    <gridsvg:separator name="vpPath.sep" value="::"/>
  </metadata>
  <g transform="translate(0, 504) scale(1, -1)">
    <g id="gridSVG" fill="none" stroke="rgb(0,0,0)" stroke-dasharray="none" stroke-width="0.75" font-size="12" font-family="Helvetica, Arial, FreeSans, Liberation Sans, Nimbus Sans L, sans-serif" opacity="1" stroke-linecap="round" stroke-linejoin="round" stroke-miterlimit="10" stroke-opacity="1" fill-opacity="0" font-weight="normal" font-style="normal">
      <g id="layout.1" class="viewport">
        <g id="layout.2" class="forcedgrob gtable gTree grob gDesc">
          <defs>
            <clipPath id="layout::background.1-11-12-1.1.clipPath">
              <rect x="0" y="75.65" width="504" height="352.69" fill="none" stroke="none"/>
            </clipPath>
          </defs>
          <g id="layout::background.1-11-12-1.1" clip-path="url(#layout::background.1-11-12-1.1.clipPath)" class="viewport">
            <g id="background.1-11-12-1.1" class="forcedgrob gTableChild rect grob gDesc">
              <rect id="background.1-11-12-1.1.1" x="0" y="75.65" width="504" height="352.69" transform="" stroke-width="1.07" stroke="rgb(255,255,255)" fill="rgb(255,255,255)" stroke-dasharray="none" stroke-opacity="1" fill-opacity="1"/>
            </g>
          </g>
          <defs>
            <clipPath id="layout::panel.7-5-7-5.1.clipPath">
              <rect x="8.22" y="83.87" width="321.54" height="321.54" fill="none" stroke="none"/>
            </clipPath>
          </defs>
          <g id="layout::panel.7-5-7-5.1" clip-path="url(#layout::panel.7-5-7-5.1.clipPath)" class="viewport">
            <g id="panel.7-5-7-5.1" class="forcedgrob gTableChild gTree grob gDesc">
              <g id="grill.gTree.27.1" class="gTree grob gDesc">
                <g id="panel.background..rect.23.1" class="rect grob gDesc">
                  <rect id="panel.background..rect.23.1.1" x="8.22" y="83.87" width="321.54" height="321.54" transform="" stroke-width="1.07" stroke="none" fill="rgb(255,255,255)" stroke-dasharray="none" stroke-opacity="0" fill-opacity="1"/>
                </g>
              </g>
              <g id="bar.gTree.16.1" class="gTree grob gDesc">
                <g id="geom_polygon.polygon.2.1" class="polygon grob gDesc">
                  <polygon id="geom_polygon.polygon.2.1.1" points="168.99,244.64 168.27,249.02 167.55,253.4 166.83,257.77 166.11,262.15 165.39,266.52 164.67,270.9 163.95,275.28 163.24,279.65 162.52,284.03 161.8,288.41 161.08,292.78 160.36,297.16 159.64,301.54 158.92,305.91 158.2,310.29 157.48,314.66 156.76,319.04 156.04,323.42 155.32,327.79 154.6,332.17 153.89,336.55 153.17,340.92 152.45,345.3 151.73,349.68 151.01,354.05 150.29,358.43 149.57,362.8 148.85,367.18 148.13,371.56 143.83,370.77 139.56,369.85 135.32,368.77 131.12,367.56 126.96,366.2 122.85,364.7 118.8,363.06 114.8,361.29 110.87,359.38 107,357.33 103.2,355.16 99.48,352.86 95.85,350.44 92.29,347.89 88.83,345.22 85.45,342.44 82.18,339.54 79,336.54 75.93,333.42 72.97,330.21 70.11,326.9 67.37,323.49 64.75,319.99 62.25,316.4 59.87,312.73 57.62,308.98 55.5,305.16 53.51,301.26 51.65,297.31 49.93,293.29 48.34,289.21 46.9,285.08 45.59,280.91 44.43,276.69 43.41,272.44 42.54,268.16 41.81,263.84 41.24,259.51 40.8,255.16 40.52,250.79 40.39,246.42 40.4,242.05 40.56,237.68 40.87,233.32 41.33,228.97 41.94,224.64 42.69,220.33 43.59,216.05 44.64,211.8 45.82,207.6 47.15,203.43 48.63,199.31 50.24,195.25 51.98,191.24 53.87,187.29 55.88,183.41 58.03,179.6 60.31,175.87 62.71,172.21 65.23,168.64 67.87,165.16 70.64,161.77 73.51,158.47 76.49,155.27 79.59,152.18 82.78,149.2 86.07,146.32 89.47,143.56 92.95,140.91 96.52,138.39 100.17,135.99 103.91,133.71 107.71,131.56 111.59,129.54 115.54,127.66 119.55,125.91 123.61,124.3 127.73,122.82 131.9,121.49 136.1,120.3 140.35,119.26 144.63,118.35 148.94,117.6 153.27,116.99 157.61,116.53 161.98,116.22 166.35,116.05 170.72,116.04 175.09,116.17 179.45,116.45 183.81,116.88 188.14,117.46 192.45,118.18 196.74,119.06 200.99,120.07 205.21,121.23 209.38,122.53 213.51,123.98 217.59,125.56 221.61,127.28 225.57,129.14 229.46,131.13 233.28,133.25 237.03,135.5 240.7,137.88 244.29,140.38 247.79,143 251.2,145.73 254.52,148.59 257.73,151.55 260.85,154.62 263.86,157.79 266.75,161.07 269.54,164.44 272.21,167.91 274.75,171.46 277.18,175.1 279.48,178.81 281.66,182.61 283.7,186.47 285.61,190.41 287.39,194.4 289.03,198.46 290.53,202.57 291.89,206.72 293.11,210.92 294.18,215.16 295.11,219.43 295.9,223.74 296.53,228.06 297.02,232.41 297.36,236.77 297.56,241.14 297.6,245.51 297.5,249.88 297.25,254.25 296.85,258.6 296.3,262.94 295.6,267.26 294.76,271.55 293.77,275.81 292.64,280.03 291.37,284.21 289.95,288.35 288.4,292.44 286.7,296.47 284.87,300.44 282.91,304.35 280.81,308.19 278.59,311.95 276.24,315.64 273.76,319.24 271.16,322.76 268.45,326.19 265.62,329.52 262.68,332.76 259.63,335.89 256.47,338.92 253.22,341.84 249.87,344.65 246.42,347.34 242.88,349.91 239.26,352.36 235.56,354.69 231.78,356.89 227.93,358.96 224.01,360.9 220.02,362.7 215.98,364.37 211.88,365.9 207.74,367.28 203.55,368.53 199.31,369.63 195.05,370.59 190.75,371.41 186.43,372.07 182.09,372.59 177.73,372.96 173.36,373.19 168.99,373.26 168.99,368.82 168.99,364.39 168.99,359.95 168.99,355.52 168.99,351.08 168.99,346.65 168.99,342.21 168.99,337.78 168.99,333.34 168.99,328.91 168.99,324.47 168.99,320.04 168.99,315.6 168.99,311.17 168.99,306.73 168.99,302.3 168.99,297.86 168.99,293.43 168.99,288.99 168.99,284.56 168.99,280.12 168.99,275.69 168.99,271.25 168.99,266.82 168.99,262.38 168.99,257.95 168.99,253.51 168.99,249.08 168.99,244.64 168.99,244.64" stroke="none" fill="rgb(251,97,215)" stroke-width="1.07" stroke-dasharray="none" stroke-opacity="0" fill-opacity="1"/>
                </g>
                <g id="geom_polygon.polygon.4.1" class="polygon grob gDesc">
                  <polygon id="geom_polygon.polygon.4.1.1" points="168.99,244.64 168.47,249.05 167.96,253.45 167.45,257.86 166.93,262.26 166.42,266.67 165.9,271.07 165.39,275.48 164.87,279.88 164.36,284.29 163.84,288.69 163.33,293.1 162.81,297.5 162.3,301.91 161.78,306.31 161.27,310.72 160.75,315.12 160.24,319.53 159.72,323.93 159.21,328.34 158.69,332.74 158.18,337.15 157.66,341.55 157.15,345.96 156.63,350.36 156.12,354.77 155.6,359.17 155.09,363.58 154.57,367.98 154.06,372.39 148.13,371.56 148.85,367.18 149.57,362.8 150.29,358.43 151.01,354.05 151.73,349.68 152.45,345.3 153.17,340.92 153.89,336.55 154.6,332.17 155.32,327.79 156.04,323.42 156.76,319.04 157.48,314.66 158.2,310.29 158.92,305.91 159.64,301.54 160.36,297.16 161.08,292.78 161.8,288.41 162.52,284.03 163.24,279.65 163.95,275.28 164.67,270.9 165.39,266.52 166.11,262.15 166.83,257.77 167.55,253.4 168.27,249.02 168.99,244.64 168.99,244.64" stroke="none" fill="rgb(165,138,255)" stroke-width="1.07" stroke-dasharray="none" stroke-opacity="0" fill-opacity="1"/>
                </g>
                <g id="geom_polygon.polygon.6.1" class="polygon grob gDesc">
                  <polygon id="geom_polygon.polygon.6.1.1" points="168.99,244.64 168.58,249.06 168.17,253.47 167.75,257.89 167.34,262.31 166.93,266.72 166.52,271.14 166.1,275.55 165.69,279.97 165.28,284.39 164.87,288.8 164.46,293.22 164.04,297.63 163.63,302.05 163.22,306.47 162.81,310.88 162.39,315.3 161.98,319.71 161.57,324.13 161.16,328.54 160.74,332.96 160.33,337.38 159.92,341.79 159.51,346.21 159.1,350.62 158.68,355.04 158.27,359.46 157.86,363.87 157.45,368.29 157.03,372.7 154.06,372.39 154.57,367.98 155.09,363.58 155.6,359.17 156.12,354.77 156.63,350.36 157.15,345.96 157.66,341.55 158.18,337.15 158.69,332.74 159.21,328.34 159.72,323.93 160.24,319.53 160.75,315.12 161.27,310.72 161.78,306.31 162.3,301.91 162.81,297.5 163.33,293.1 163.84,288.69 164.36,284.29 164.87,279.88 165.39,275.48 165.9,271.07 166.42,266.67 166.93,262.26 167.45,257.86 167.96,253.45 168.47,249.05 168.99,244.64 168.99,244.64" stroke="none" fill="rgb(0,182,235)" stroke-width="1.07" stroke-dasharray="none" stroke-opacity="0" fill-opacity="1"/>
                </g>
                <g id="geom_polygon.polygon.8.1" class="polygon grob gDesc">
                  <polygon id="geom_polygon.polygon.8.1.1" points="168.99,244.64 168.68,249.07 168.37,253.49 168.06,257.92 167.75,262.34 167.44,266.76 167.13,271.19 166.82,275.61 166.51,280.04 166.21,284.46 165.9,288.89 165.59,293.31 165.28,297.73 164.97,302.16 164.66,306.58 164.35,311.01 164.04,315.43 163.73,319.86 163.42,324.28 163.11,328.7 162.8,333.13 162.49,337.55 162.18,341.98 161.87,346.4 161.56,350.83 161.26,355.25 160.95,359.67 160.64,364.1 160.33,368.52 160.02,372.95 157.03,372.7 157.45,368.29 157.86,363.87 158.27,359.46 158.68,355.04 159.1,350.62 159.51,346.21 159.92,341.79 160.33,337.38 160.74,332.96 161.16,328.54 161.57,324.13 161.98,319.71 162.39,315.3 162.81,310.88 163.22,306.47 163.63,302.05 164.04,297.63 164.46,293.22 164.87,288.8 165.28,284.39 165.69,279.97 166.1,275.55 166.52,271.14 166.93,266.72 167.34,262.31 167.75,257.89 168.17,253.47 168.58,249.06 168.99,244.64 168.99,244.64" stroke="none" fill="rgb(0,192,148)" stroke-width="1.07" stroke-dasharray="none" stroke-opacity="0" fill-opacity="1"/>
                </g>
                <g id="geom_polygon.polygon.10.1" class="polygon grob gDesc">
                  <polygon id="geom_polygon.polygon.10.1.1" points="168.99,244.64 168.78,249.07 168.58,253.5 168.37,257.93 168.16,262.36 167.96,266.79 167.75,271.22 167.55,275.65 167.34,280.09 167.13,284.52 166.93,288.95 166.72,293.38 166.51,297.81 166.31,302.24 166.1,306.67 165.89,311.1 165.69,315.53 165.48,319.96 165.28,324.39 165.07,328.82 164.86,333.25 164.66,337.68 164.45,342.11 164.24,346.54 164.04,350.97 163.83,355.4 163.62,359.83 163.42,364.26 163.21,368.69 163.01,373.12 160.02,372.95 160.33,368.52 160.64,364.1 160.95,359.67 161.26,355.25 161.56,350.83 161.87,346.4 162.18,341.98 162.49,337.55 162.8,333.13 163.11,328.7 163.42,324.28 163.73,319.86 164.04,315.43 164.35,311.01 164.66,306.58 164.97,302.16 165.28,297.73 165.59,293.31 165.9,288.89 166.21,284.46 166.51,280.04 166.82,275.61 167.13,271.19 167.44,266.76 167.75,262.34 168.06,257.92 168.37,253.49 168.68,249.07 168.99,244.64 168.99,244.64" stroke="none" fill="rgb(83,180,0)" stroke-width="1.07" stroke-dasharray="none" stroke-opacity="0" fill-opacity="1"/>
                </g>
                <g id="geom_polygon.polygon.12.1" class="polygon grob gDesc">
                  <polygon id="geom_polygon.polygon.12.1.1" points="168.99,244.64 168.89,249.08 168.78,253.51 168.68,257.94 168.58,262.38 168.47,266.81 168.37,271.25 168.27,275.68 168.16,280.11 168.06,284.55 167.96,288.98 167.85,293.42 167.75,297.85 167.65,302.28 167.54,306.72 167.44,311.15 167.34,315.58 167.24,320.02 167.13,324.45 167.03,328.89 166.93,333.32 166.82,337.75 166.72,342.19 166.62,346.62 166.51,351.06 166.41,355.49 166.31,359.92 166.2,364.36 166.1,368.79 166,373.22 163.01,373.12 163.21,368.69 163.42,364.26 163.62,359.83 163.83,355.4 164.04,350.97 164.24,346.54 164.45,342.11 164.66,337.68 164.86,333.25 165.07,328.82 165.28,324.39 165.48,319.96 165.69,315.53 165.89,311.1 166.1,306.67 166.31,302.24 166.51,297.81 166.72,293.38 166.93,288.95 167.13,284.52 167.34,280.09 167.55,275.65 167.75,271.22 167.96,266.79 168.16,262.36 168.37,257.93 168.58,253.5 168.78,249.07 168.99,244.64 168.99,244.64" stroke="none" fill="rgb(196,154,0)" stroke-width="1.07" stroke-dasharray="none" stroke-opacity="0" fill-opacity="1"/>
                </g>
                <g id="geom_polygon.polygon.14.1" class="polygon grob gDesc">
                  <polygon id="geom_polygon.polygon.14.1.1" points="168.99,244.64 168.99,249.08 168.99,253.51 168.99,257.95 168.99,262.38 168.99,266.82 168.99,271.25 168.99,275.69 168.99,280.12 168.99,284.56 168.99,288.99 168.99,293.43 168.99,297.86 168.99,302.3 168.99,306.73 168.99,311.17 168.99,315.6 168.99,320.04 168.99,324.47 168.99,328.91 168.99,333.34 168.99,337.78 168.99,342.21 168.99,346.65 168.99,351.08 168.99,355.52 168.99,359.95 168.99,364.39 168.99,368.82 168.99,373.26 166,373.22 166.1,368.79 166.2,364.36 166.31,359.92 166.41,355.49 166.51,351.06 166.62,346.62 166.72,342.19 166.82,337.75 166.93,333.32 167.03,328.89 167.13,324.45 167.24,320.02 167.34,315.58 167.44,311.15 167.54,306.72 167.65,302.28 167.75,297.85 167.85,293.42 167.96,288.98 168.06,284.55 168.16,280.11 168.27,275.68 168.37,271.25 168.47,266.81 168.58,262.38 168.68,257.94 168.78,253.51 168.89,249.08 168.99,244.64 168.99,244.64" stroke="none" fill="rgb(248,118,109)" stroke-width="1.07" stroke-dasharray="none" stroke-opacity="0" fill-opacity="1"/>
                </g>
              </g>
              <g id="GRID.text.17.1" class="text grob gDesc">
                <g id="GRID.text.17.1.1" transform="translate(174.22, 180.55)" stroke-width="0.1">
                  <g id="GRID.text.17.1.1.scale" transform="scale(1, -1)">
                    <text x="0" y="0" id="GRID.text.17.1.1.text" text-anchor="middle" stroke="rgb(0,0,0)" font-size="11.04" font-family="Helvetica, Arial, FreeSans, Liberation Sans, Nimbus Sans L, sans-serif" fill="rgb(0,0,0)" stroke-opacity="1" fill-opacity="1" font-weight="normal" font-style="normal">
                      <tspan id="GRID.text.17.1.1.tspan.1" dy="3.95" x="0">263</tspan>
                    </text>
                  </g>
                </g>
                <g id="GRID.text.17.1.2" transform="translate(160.04, 308.33)" stroke-width="0.1">
                  <g id="GRID.text.17.1.2.scale" transform="scale(1, -1)">
                    <text x="0" y="0" id="GRID.text.17.1.2.text" text-anchor="middle" stroke="rgb(0,0,0)" font-size="11.04" font-family="Helvetica, Arial, FreeSans, Liberation Sans, Nimbus Sans L, sans-serif" fill="rgb(0,0,0)" stroke-opacity="1" fill-opacity="1" font-weight="normal" font-style="normal">
                      <tspan id="GRID.text.17.1.2.tspan.1" dy="3.95" x="0">2</tspan>
                    </text>
                  </g>
                </g>
                <g id="GRID.text.17.1.3" transform="translate(162.27, 308.6)" stroke-width="0.1">
                  <g id="GRID.text.17.1.3.scale" transform="scale(1, -1)">
                    <text x="0" y="0" id="GRID.text.17.1.3.text" text-anchor="middle" stroke="rgb(0,0,0)" font-size="11.04" font-family="Helvetica, Arial, FreeSans, Liberation Sans, Nimbus Sans L, sans-serif" fill="rgb(0,0,0)" stroke-opacity="1" fill-opacity="1" font-weight="normal" font-style="normal">
                      <tspan id="GRID.text.17.1.3.tspan.1" dy="3.95" x="0">1</tspan>
                    </text>
                  </g>
                </g>
                <g id="GRID.text.17.1.4" transform="translate(163.76, 308.74)" stroke-width="0.1">
                  <g id="GRID.text.17.1.4.scale" transform="scale(1, -1)">
                    <text x="0" y="0" id="GRID.text.17.1.4.text" text-anchor="middle" stroke="rgb(0,0,0)" font-size="11.04" font-family="Helvetica, Arial, FreeSans, Liberation Sans, Nimbus Sans L, sans-serif" fill="rgb(0,0,0)" stroke-opacity="1" fill-opacity="1" font-weight="normal" font-style="normal">
                      <tspan id="GRID.text.17.1.4.tspan.1" dy="3.95" x="0">1</tspan>
                    </text>
                  </g>
                </g>
                <g id="GRID.text.17.1.5" transform="translate(165.25, 308.84)" stroke-width="0.1">
                  <g id="GRID.text.17.1.5.scale" transform="scale(1, -1)">
                    <text x="0" y="0" id="GRID.text.17.1.5.text" text-anchor="middle" stroke="rgb(0,0,0)" font-size="11.04" font-family="Helvetica, Arial, FreeSans, Liberation Sans, Nimbus Sans L, sans-serif" fill="rgb(0,0,0)" stroke-opacity="1" fill-opacity="1" font-weight="normal" font-style="normal">
                      <tspan id="GRID.text.17.1.5.tspan.1" dy="3.95" x="0">1</tspan>
                    </text>
                  </g>
                </g>
                <g id="GRID.text.17.1.6" transform="translate(166.75, 308.91)" stroke-width="0.1">
                  <g id="GRID.text.17.1.6.scale" transform="scale(1, -1)">
                    <text x="0" y="0" id="GRID.text.17.1.6.text" text-anchor="middle" stroke="rgb(0,0,0)" font-size="11.04" font-family="Helvetica, Arial, FreeSans, Liberation Sans, Nimbus Sans L, sans-serif" fill="rgb(0,0,0)" stroke-opacity="1" fill-opacity="1" font-weight="normal" font-style="normal">
                      <tspan id="GRID.text.17.1.6.tspan.1" dy="3.95" x="0">1</tspan>
                    </text>
                  </g>
                </g>
                <g id="GRID.text.17.1.7" transform="translate(168.24, 308.95)" stroke-width="0.1">
                  <g id="GRID.text.17.1.7.scale" transform="scale(1, -1)">
                    <text x="0" y="0" id="GRID.text.17.1.7.text" text-anchor="middle" stroke="rgb(0,0,0)" font-size="11.04" font-family="Helvetica, Arial, FreeSans, Liberation Sans, Nimbus Sans L, sans-serif" fill="rgb(0,0,0)" stroke-opacity="1" fill-opacity="1" font-weight="normal" font-style="normal">
                      <tspan id="GRID.text.17.1.7.tspan.1" dy="3.95" x="0">1</tspan>
                    </text>
                  </g>
                </g>
              </g>
              <g id="GRID.gTree.18.1" class="gTree grob gDesc"/>
            </g>
          </g>
          <g id="layout::spacer.8-6-8-6.1" class="viewport"/>
          <g id="layout::spacer.8-4-8-4.1" class="viewport"/>
          <g id="layout::spacer.6-6-6-6.1" class="viewport"/>
          <g id="layout::spacer.6-4-6-4.1" class="viewport"/>
          <g id="layout::axis-t.6-5-6-5.1" class="viewport"/>
          <g id="layout::axis-l.7-4-7-4.1" class="viewport">
            <g id="layout::axis-l.7-4-7-4::GRID.VP.2.1" class="viewport">
              <g id="axis-l.7-4-7-4.1" class="forcedgrob gTableChild absoluteGrob gTree grob gDesc">
                <g id="layout::axis-l.7-4-7-4::GRID.VP.2::axis.1" class="viewport">
                  <g id="axis.1" class="forcedgrob gtable gTree grob gDesc">
                    <g id="layout::axis-l.7-4-7-4::GRID.VP.2::axis::axis.1-1-1-1.1" class="viewport"/>
                    <g id="layout::axis-l.7-4-7-4::GRID.VP.2::axis::axis.1-2-1-2.1" class="viewport"/>
                  </g>
                </g>
              </g>
            </g>
          </g>
          <g id="layout::axis-r.7-6-7-6.1" class="viewport"/>
          <g id="layout::axis-b.8-5-8-5.1" class="viewport">
            <g id="layout::axis-b.8-5-8-5::GRID.VP.1.1" class="viewport">
              <g id="axis-b.8-5-8-5.1" class="forcedgrob gTableChild absoluteGrob gTree grob gDesc">
                <g id="layout::axis-b.8-5-8-5::GRID.VP.1::axis.1" class="viewport">
                  <g id="axis.2" class="forcedgrob gtable gTree grob gDesc">
                    <g id="layout::axis-b.8-5-8-5::GRID.VP.1::axis::axis.1-1-1-1.1" class="viewport"/>
                    <g id="layout::axis-b.8-5-8-5::GRID.VP.1::axis::axis.2-1-2-1.1" class="viewport"/>
                  </g>
                </g>
              </g>
            </g>
          </g>
          <g id="layout::xlab-t.5-5-5-5.1" class="viewport"/>
          <g id="layout::xlab-b.9-5-9-5.1" class="viewport"/>
          <g id="layout::ylab-l.7-3-7-3.1" class="viewport"/>
          <g id="layout::ylab-r.7-7-7-7.1" class="viewport"/>
          <g id="layout::guide-box.7-9-7-9.1" class="viewport">
            <g id="layout::guide-box.7-9-7-9::GRID.VP.25.1" class="viewport">
              <g id="layout::guide-box.7-9-7-9::GRID.VP.25::guide-box.7-9-7-9.1" class="viewport">
                <g id="guide-box.7-9-7-9.1" class="forcedgrob gTableChild gtable gTree grob gDesc">
                  <g id="layout::guide-box.7-9-7-9::GRID.VP.25::guide-box.7-9-7-9::legend.box.background.2-4-4-2.1" class="viewport"/>
                  <g id="layout::guide-box.7-9-7-9::GRID.VP.25::guide-box.7-9-7-9::guides.3-3-3-3.1" class="viewport">
                    <g id="layout::guide-box.7-9-7-9::GRID.VP.25::guide-box.7-9-7-9::guides.3-3-3-3::GRID.VP.24.1" class="viewport">
                      <g id="layout::guide-box.7-9-7-9::GRID.VP.25::guide-box.7-9-7-9::guides.3-3-3-3::GRID.VP.24::guides.3-3-3-3.1" class="viewport">
                        <g id="guides.3-3-3-3.1" class="forcedgrob gTableChild gtable gTree grob gDesc">
                          <g id="layout::guide-box.7-9-7-9::GRID.VP.25::guide-box.7-9-7-9::guides.3-3-3-3::GRID.VP.24::guides.3-3-3-3::background.1-6-11-1.1" class="viewport">
                            <g id="background.1-6-11-1.1" class="forcedgrob gTableChild rect grob gDesc">
                              <rect id="background.1-6-11-1.1.1" x="340.72" y="175.94" width="157.8" height="137.4" transform="" stroke-width="1.07" stroke="none" fill="rgb(255,255,255)" stroke-dasharray="none" stroke-opacity="0" fill-opacity="1"/>
                            </g>
                          </g>
                          <g id="layout::guide-box.7-9-7-9::GRID.VP.25::guide-box.7-9-7-9::guides.3-3-3-3::GRID.VP.24::guides.3-3-3-3::title.2-5-2-2.1" class="viewport"/>
                          <g id="layout::guide-box.7-9-7-9::GRID.VP.25::guide-box.7-9-7-9::guides.3-3-3-3::GRID.VP.24::guides.3-3-3-3::key-3-1-bg.4-2-4-2.1" class="viewport"/>
                          <g id="layout::guide-box.7-9-7-9::GRID.VP.25::guide-box.7-9-7-9::guides.3-3-3-3::GRID.VP.24::guides.3-3-3-3::key-3-1-1.4-2-4-2.1" class="viewport">
                            <g id="key-3-1-1.4-2-4-2.1" class="forcedgrob gTableChild rect grob gDesc">
                              <rect id="key-3-1-1.4-2-4-2.1.1" x="346.91" y="285.81" width="15.86" height="15.86" transform="" stroke="none" fill="rgb(248,118,109)" stroke-dasharray="none" stroke-width="1.07" stroke-linejoin="miter" stroke-opacity="0" fill-opacity="1"/>
                            </g>
                          </g>
                          <g id="layout::guide-box.7-9-7-9::GRID.VP.25::guide-box.7-9-7-9::guides.3-3-3-3::GRID.VP.24::guides.3-3-3-3::key-4-1-bg.5-2-5-2.1" class="viewport"/>
                          <g id="layout::guide-box.7-9-7-9::GRID.VP.25::guide-box.7-9-7-9::guides.3-3-3-3::GRID.VP.24::guides.3-3-3-3::key-4-1-1.5-2-5-2.1" class="viewport">
                            <g id="key-4-1-1.5-2-5-2.1" class="forcedgrob gTableChild rect grob gDesc">
                              <rect id="key-4-1-1.5-2-5-2.1.1" x="346.91" y="268.53" width="15.86" height="15.86" transform="" stroke="none" fill="rgb(196,154,0)" stroke-dasharray="none" stroke-width="1.07" stroke-linejoin="miter" stroke-opacity="0" fill-opacity="1"/>
                            </g>
                          </g>
                          <g id="layout::guide-box.7-9-7-9::GRID.VP.25::guide-box.7-9-7-9::guides.3-3-3-3::GRID.VP.24::guides.3-3-3-3::key-5-1-bg.6-2-6-2.1" class="viewport"/>
                          <g id="layout::guide-box.7-9-7-9::GRID.VP.25::guide-box.7-9-7-9::guides.3-3-3-3::GRID.VP.24::guides.3-3-3-3::key-5-1-1.6-2-6-2.1" class="viewport">
                            <g id="key-5-1-1.6-2-6-2.1" class="forcedgrob gTableChild rect grob gDesc">
                              <rect id="key-5-1-1.6-2-6-2.1.1" x="346.91" y="251.25" width="15.86" height="15.86" transform="" stroke="none" fill="rgb(83,180,0)" stroke-dasharray="none" stroke-width="1.07" stroke-linejoin="miter" stroke-opacity="0" fill-opacity="1"/>
                            </g>
                          </g>
                          <g id="layout::guide-box.7-9-7-9::GRID.VP.25::guide-box.7-9-7-9::guides.3-3-3-3::GRID.VP.24::guides.3-3-3-3::key-6-1-bg.7-2-7-2.1" class="viewport"/>
                          <g id="layout::guide-box.7-9-7-9::GRID.VP.25::guide-box.7-9-7-9::guides.3-3-3-3::GRID.VP.24::guides.3-3-3-3::key-6-1-1.7-2-7-2.1" class="viewport">
                            <g id="key-6-1-1.7-2-7-2.1" class="forcedgrob gTableChild rect grob gDesc">
                              <rect id="key-6-1-1.7-2-7-2.1.1" x="346.91" y="233.97" width="15.86" height="15.86" transform="" stroke="none" fill="rgb(0,192,148)" stroke-dasharray="none" stroke-width="1.07" stroke-linejoin="miter" stroke-opacity="0" fill-opacity="1"/>
                            </g>
                          </g>
                          <g id="layout::guide-box.7-9-7-9::GRID.VP.25::guide-box.7-9-7-9::guides.3-3-3-3::GRID.VP.24::guides.3-3-3-3::key-7-1-bg.8-2-8-2.1" class="viewport"/>
                          <g id="layout::guide-box.7-9-7-9::GRID.VP.25::guide-box.7-9-7-9::guides.3-3-3-3::GRID.VP.24::guides.3-3-3-3::key-7-1-1.8-2-8-2.1" class="viewport">
                            <g id="key-7-1-1.8-2-8-2.1" class="forcedgrob gTableChild rect grob gDesc">
                              <rect id="key-7-1-1.8-2-8-2.1.1" x="346.91" y="216.69" width="15.86" height="15.86" transform="" stroke="none" fill="rgb(0,182,235)" stroke-dasharray="none" stroke-width="1.07" stroke-linejoin="miter" stroke-opacity="0" fill-opacity="1"/>
                            </g>
                          </g>
                          <g id="layout::guide-box.7-9-7-9::GRID.VP.25::guide-box.7-9-7-9::guides.3-3-3-3::GRID.VP.24::guides.3-3-3-3::key-8-1-bg.9-2-9-2.1" class="viewport"/>
                          <g id="layout::guide-box.7-9-7-9::GRID.VP.25::guide-box.7-9-7-9::guides.3-3-3-3::GRID.VP.24::guides.3-3-3-3::key-8-1-1.9-2-9-2.1" class="viewport">
                            <g id="key-8-1-1.9-2-9-2.1" class="forcedgrob gTableChild rect grob gDesc">
                              <rect id="key-8-1-1.9-2-9-2.1.1" x="346.91" y="199.41" width="15.86" height="15.86" transform="" stroke="none" fill="rgb(165,138,255)" stroke-dasharray="none" stroke-width="1.07" stroke-linejoin="miter" stroke-opacity="0" fill-opacity="1"/>
                            </g>
                          </g>
                          <g id="layout::guide-box.7-9-7-9::GRID.VP.25::guide-box.7-9-7-9::guides.3-3-3-3::GRID.VP.24::guides.3-3-3-3::key-9-1-bg.10-2-10-2.1" class="viewport"/>
                          <g id="layout::guide-box.7-9-7-9::GRID.VP.25::guide-box.7-9-7-9::guides.3-3-3-3::GRID.VP.24::guides.3-3-3-3::key-9-1-1.10-2-10-2.1" class="viewport">
                            <g id="key-9-1-1.10-2-10-2.1" class="forcedgrob gTableChild rect grob gDesc">
                              <rect id="key-9-1-1.10-2-10-2.1.1" x="346.91" y="182.13" width="15.86" height="15.86" transform="" stroke="none" fill="rgb(251,97,215)" stroke-dasharray="none" stroke-width="1.07" stroke-linejoin="miter" stroke-opacity="0" fill-opacity="1"/>
                            </g>
                          </g>
                          <g id="layout::guide-box.7-9-7-9::GRID.VP.25::guide-box.7-9-7-9::guides.3-3-3-3::GRID.VP.24::guides.3-3-3-3::label-3-3.4-4-4-4.1" class="viewport">
                            <g id="layout::guide-box.7-9-7-9::GRID.VP.25::guide-box.7-9-7-9::guides.3-3-3-3::GRID.VP.24::guides.3-3-3-3::label-3-3.4-4-4-4::GRID.VP.17.1" class="viewport">
                              <g id="label-3-3.4-4-4-4.1" class="forcedgrob gTableChild gTree grob gDesc">
                                <g id="layout::guide-box.7-9-7-9::GRID.VP.25::guide-box.7-9-7-9::guides.3-3-3-3::GRID.VP.24::guides.3-3-3-3::label-3-3.4-4-4-4::GRID.VP.17::GRID.VP.3.1" font-size="8.8" stroke="rgb(0,0,0)" font-family="Helvetica, Arial, FreeSans, Liberation Sans, Nimbus Sans L, sans-serif" stroke-opacity="1" font-weight="normal" font-style="normal" class="viewport">
                                  <g id="layout::guide-box.7-9-7-9::GRID.VP.25::guide-box.7-9-7-9::guides.3-3-3-3::GRID.VP.24::guides.3-3-3-3::label-3-3.4-4-4-4::GRID.VP.17::GRID.VP.3::GRID.VP.4.1" class="viewport">
                                    <g id="guide.label.titleGrob.41.1" class="titleGrob gTree grob gDesc">
                                      <g id="GRID.text.39.1" class="text grob gDesc">
                                        <g id="GRID.text.39.1.1" transform="translate(368.96, 293.74)" stroke-width="0.1">
                                          <g id="GRID.text.39.1.1.scale" transform="scale(1, -1)">
                                            <text x="0" y="0" id="GRID.text.39.1.1.text" text-anchor="start" font-size="8.8" stroke="rgb(0,0,0)" font-family="Helvetica, Arial, FreeSans, Liberation Sans, Nimbus Sans L, sans-serif" fill="rgb(0,0,0)" stroke-opacity="1" fill-opacity="1" font-weight="normal" font-style="normal">
                                              <tspan id="GRID.text.39.1.1.tspan.1" dy="3.23" x="0">Shopping (1)</tspan>
                                            </text>
                                          </g>
                                        </g>
                                      </g>
                                    </g>
                                  </g>
                                </g>
                              </g>
                            </g>
                          </g>
                          <g id="layout::guide-box.7-9-7-9::GRID.VP.25::guide-box.7-9-7-9::guides.3-3-3-3::GRID.VP.24::guides.3-3-3-3::label-4-3.5-4-5-4.1" class="viewport">
                            <g id="layout::guide-box.7-9-7-9::GRID.VP.25::guide-box.7-9-7-9::guides.3-3-3-3::GRID.VP.24::guides.3-3-3-3::label-4-3.5-4-5-4::GRID.VP.18.1" class="viewport">
                              <g id="label-4-3.5-4-5-4.1" class="forcedgrob gTableChild gTree grob gDesc">
                                <g id="layout::guide-box.7-9-7-9::GRID.VP.25::guide-box.7-9-7-9::guides.3-3-3-3::GRID.VP.24::guides.3-3-3-3::label-4-3.5-4-5-4::GRID.VP.18::GRID.VP.5.1" font-size="8.8" stroke="rgb(0,0,0)" font-family="Helvetica, Arial, FreeSans, Liberation Sans, Nimbus Sans L, sans-serif" stroke-opacity="1" font-weight="normal" font-style="normal" class="viewport">
                                  <g id="layout::guide-box.7-9-7-9::GRID.VP.25::guide-box.7-9-7-9::guides.3-3-3-3::GRID.VP.24::guides.3-3-3-3::label-4-3.5-4-5-4::GRID.VP.18::GRID.VP.5::GRID.VP.6.1" class="viewport">
                                    <g id="guide.label.titleGrob.44.1" class="titleGrob gTree grob gDesc">
                                      <g id="GRID.text.42.1" class="text grob gDesc">
                                        <g id="GRID.text.42.1.1" transform="translate(368.96, 276.46)" stroke-width="0.1">
                                          <g id="GRID.text.42.1.1.scale" transform="scale(1, -1)">
                                            <text x="0" y="0" id="GRID.text.42.1.1.text" text-anchor="start" font-size="8.8" stroke="rgb(0,0,0)" font-family="Helvetica, Arial, FreeSans, Liberation Sans, Nimbus Sans L, sans-serif" fill="rgb(0,0,0)" stroke-opacity="1" fill-opacity="1" font-weight="normal" font-style="normal">
                                              <tspan id="GRID.text.42.1.1.tspan.1" dy="3.23" x="0">Salute (1)</tspan>
                                            </text>
                                          </g>
                                        </g>
                                      </g>
                                    </g>
                                  </g>
                                </g>
                              </g>
                            </g>
                          </g>
                          <g id="layout::guide-box.7-9-7-9::GRID.VP.25::guide-box.7-9-7-9::guides.3-3-3-3::GRID.VP.24::guides.3-3-3-3::label-5-3.6-4-6-4.1" class="viewport">
                            <g id="layout::guide-box.7-9-7-9::GRID.VP.25::guide-box.7-9-7-9::guides.3-3-3-3::GRID.VP.24::guides.3-3-3-3::label-5-3.6-4-6-4::GRID.VP.19.1" class="viewport">
                              <g id="label-5-3.6-4-6-4.1" class="forcedgrob gTableChild gTree grob gDesc">
                                <g id="layout::guide-box.7-9-7-9::GRID.VP.25::guide-box.7-9-7-9::guides.3-3-3-3::GRID.VP.24::guides.3-3-3-3::label-5-3.6-4-6-4::GRID.VP.19::GRID.VP.7.1" font-size="8.8" stroke="rgb(0,0,0)" font-family="Helvetica, Arial, FreeSans, Liberation Sans, Nimbus Sans L, sans-serif" stroke-opacity="1" font-weight="normal" font-style="normal" class="viewport">
                                  <g id="layout::guide-box.7-9-7-9::GRID.VP.25::guide-box.7-9-7-9::guides.3-3-3-3::GRID.VP.24::guides.3-3-3-3::label-5-3.6-4-6-4::GRID.VP.19::GRID.VP.7::GRID.VP.8.1" class="viewport">
                                    <g id="guide.label.titleGrob.47.1" class="titleGrob gTree grob gDesc">
                                      <g id="GRID.text.45.1" class="text grob gDesc">
                                        <g id="GRID.text.45.1.1" transform="translate(368.96, 259.18)" stroke-width="0.1">
                                          <g id="GRID.text.45.1.1.scale" transform="scale(1, -1)">
                                            <text x="0" y="0" id="GRID.text.45.1.1.text" text-anchor="start" font-size="8.8" stroke="rgb(0,0,0)" font-family="Helvetica, Arial, FreeSans, Liberation Sans, Nimbus Sans L, sans-serif" fill="rgb(0,0,0)" stroke-opacity="1" fill-opacity="1" font-weight="normal" font-style="normal">
                                              <tspan id="GRID.text.45.1.1.tspan.1" dy="3.23" x="0">scrittura (1)</tspan>
                                            </text>
                                          </g>
                                        </g>
                                      </g>
                                    </g>
                                  </g>
                                </g>
                              </g>
                            </g>
                          </g>
                          <g id="layout::guide-box.7-9-7-9::GRID.VP.25::guide-box.7-9-7-9::guides.3-3-3-3::GRID.VP.24::guides.3-3-3-3::label-6-3.7-4-7-4.1" class="viewport">
                            <g id="layout::guide-box.7-9-7-9::GRID.VP.25::guide-box.7-9-7-9::guides.3-3-3-3::GRID.VP.24::guides.3-3-3-3::label-6-3.7-4-7-4::GRID.VP.20.1" class="viewport">
                              <g id="label-6-3.7-4-7-4.1" class="forcedgrob gTableChild gTree grob gDesc">
                                <g id="layout::guide-box.7-9-7-9::GRID.VP.25::guide-box.7-9-7-9::guides.3-3-3-3::GRID.VP.24::guides.3-3-3-3::label-6-3.7-4-7-4::GRID.VP.20::GRID.VP.9.1" font-size="8.8" stroke="rgb(0,0,0)" font-family="Helvetica, Arial, FreeSans, Liberation Sans, Nimbus Sans L, sans-serif" stroke-opacity="1" font-weight="normal" font-style="normal" class="viewport">
                                  <g id="layout::guide-box.7-9-7-9::GRID.VP.25::guide-box.7-9-7-9::guides.3-3-3-3::GRID.VP.24::guides.3-3-3-3::label-6-3.7-4-7-4::GRID.VP.20::GRID.VP.9::GRID.VP.10.1" class="viewport">
                                    <g id="guide.label.titleGrob.50.1" class="titleGrob gTree grob gDesc">
                                      <g id="GRID.text.48.1" class="text grob gDesc">
                                        <g id="GRID.text.48.1.1" transform="translate(368.96, 241.9)" stroke-width="0.1">
                                          <g id="GRID.text.48.1.1.scale" transform="scale(1, -1)">
                                            <text x="0" y="0" id="GRID.text.48.1.1.text" text-anchor="start" font-size="8.8" stroke="rgb(0,0,0)" font-family="Helvetica, Arial, FreeSans, Liberation Sans, Nimbus Sans L, sans-serif" fill="rgb(0,0,0)" stroke-opacity="1" fill-opacity="1" font-weight="normal" font-style="normal">
                                              <tspan id="GRID.text.48.1.1.tspan.1" dy="3.23" x="0">Scrivo per una rivista online (1)</tspan>
                                            </text>
                                          </g>
                                        </g>
                                      </g>
                                    </g>
                                  </g>
                                </g>
                              </g>
                            </g>
                          </g>
                          <g id="layout::guide-box.7-9-7-9::GRID.VP.25::guide-box.7-9-7-9::guides.3-3-3-3::GRID.VP.24::guides.3-3-3-3::label-7-3.8-4-8-4.1" class="viewport">
                            <g id="layout::guide-box.7-9-7-9::GRID.VP.25::guide-box.7-9-7-9::guides.3-3-3-3::GRID.VP.24::guides.3-3-3-3::label-7-3.8-4-8-4::GRID.VP.21.1" class="viewport">
                              <g id="label-7-3.8-4-8-4.1" class="forcedgrob gTableChild gTree grob gDesc">
                                <g id="layout::guide-box.7-9-7-9::GRID.VP.25::guide-box.7-9-7-9::guides.3-3-3-3::GRID.VP.24::guides.3-3-3-3::label-7-3.8-4-8-4::GRID.VP.21::GRID.VP.11.1" font-size="8.8" stroke="rgb(0,0,0)" font-family="Helvetica, Arial, FreeSans, Liberation Sans, Nimbus Sans L, sans-serif" stroke-opacity="1" font-weight="normal" font-style="normal" class="viewport">
                                  <g id="layout::guide-box.7-9-7-9::GRID.VP.25::guide-box.7-9-7-9::guides.3-3-3-3::GRID.VP.24::guides.3-3-3-3::label-7-3.8-4-8-4::GRID.VP.21::GRID.VP.11::GRID.VP.12.1" class="viewport">
                                    <g id="guide.label.titleGrob.53.1" class="titleGrob gTree grob gDesc">
                                      <g id="GRID.text.51.1" class="text grob gDesc">
                                        <g id="GRID.text.51.1.1" transform="translate(368.96, 224.62)" stroke-width="0.1">
                                          <g id="GRID.text.51.1.1.scale" transform="scale(1, -1)">
                                            <text x="0" y="0" id="GRID.text.51.1.1.text" text-anchor="start" font-size="8.8" stroke="rgb(0,0,0)" font-family="Helvetica, Arial, FreeSans, Liberation Sans, Nimbus Sans L, sans-serif" fill="rgb(0,0,0)" stroke-opacity="1" fill-opacity="1" font-weight="normal" font-style="normal">
                                              <tspan id="GRID.text.51.1.1.tspan.1" dy="3.23" x="0">Informazione (1)</tspan>
                                            </text>
                                          </g>
                                        </g>
                                      </g>
                                    </g>
                                  </g>
                                </g>
                              </g>
                            </g>
                          </g>
                          <g id="layout::guide-box.7-9-7-9::GRID.VP.25::guide-box.7-9-7-9::guides.3-3-3-3::GRID.VP.24::guides.3-3-3-3::label-8-3.9-4-9-4.1" class="viewport">
                            <g id="layout::guide-box.7-9-7-9::GRID.VP.25::guide-box.7-9-7-9::guides.3-3-3-3::GRID.VP.24::guides.3-3-3-3::label-8-3.9-4-9-4::GRID.VP.22.1" class="viewport">
                              <g id="label-8-3.9-4-9-4.1" class="forcedgrob gTableChild gTree grob gDesc">
                                <g id="layout::guide-box.7-9-7-9::GRID.VP.25::guide-box.7-9-7-9::guides.3-3-3-3::GRID.VP.24::guides.3-3-3-3::label-8-3.9-4-9-4::GRID.VP.22::GRID.VP.13.1" font-size="8.8" stroke="rgb(0,0,0)" font-family="Helvetica, Arial, FreeSans, Liberation Sans, Nimbus Sans L, sans-serif" stroke-opacity="1" font-weight="normal" font-style="normal" class="viewport">
                                  <g id="layout::guide-box.7-9-7-9::GRID.VP.25::guide-box.7-9-7-9::guides.3-3-3-3::GRID.VP.24::guides.3-3-3-3::label-8-3.9-4-9-4::GRID.VP.22::GRID.VP.13::GRID.VP.14.1" class="viewport">
                                    <g id="guide.label.titleGrob.56.1" class="titleGrob gTree grob gDesc">
                                      <g id="GRID.text.54.1" class="text grob gDesc">
                                        <g id="GRID.text.54.1.1" transform="translate(368.96, 207.34)" stroke-width="0.1">
                                          <g id="GRID.text.54.1.1.scale" transform="scale(1, -1)">
                                            <text x="0" y="0" id="GRID.text.54.1.1.text" text-anchor="start" font-size="8.8" stroke="rgb(0,0,0)" font-family="Helvetica, Arial, FreeSans, Liberation Sans, Nimbus Sans L, sans-serif" fill="rgb(0,0,0)" stroke-opacity="1" fill-opacity="1" font-weight="normal" font-style="normal">
                                              <tspan id="GRID.text.54.1.1.tspan.1" dy="3.23" x="0">Organizzazione (2)</tspan>
                                            </text>
                                          </g>
                                        </g>
                                      </g>
                                    </g>
                                  </g>
                                </g>
                              </g>
                            </g>
                          </g>
                          <g id="layout::guide-box.7-9-7-9::GRID.VP.25::guide-box.7-9-7-9::guides.3-3-3-3::GRID.VP.24::guides.3-3-3-3::label-9-3.10-4-10-4.1" class="viewport">
                            <g id="layout::guide-box.7-9-7-9::GRID.VP.25::guide-box.7-9-7-9::guides.3-3-3-3::GRID.VP.24::guides.3-3-3-3::label-9-3.10-4-10-4::GRID.VP.23.1" class="viewport">
                              <g id="label-9-3.10-4-10-4.1" class="forcedgrob gTableChild gTree grob gDesc">
                                <g id="layout::guide-box.7-9-7-9::GRID.VP.25::guide-box.7-9-7-9::guides.3-3-3-3::GRID.VP.24::guides.3-3-3-3::label-9-3.10-4-10-4::GRID.VP.23::GRID.VP.15.1" font-size="8.8" stroke="rgb(0,0,0)" font-family="Helvetica, Arial, FreeSans, Liberation Sans, Nimbus Sans L, sans-serif" stroke-opacity="1" font-weight="normal" font-style="normal" class="viewport">
                                  <g id="layout::guide-box.7-9-7-9::GRID.VP.25::guide-box.7-9-7-9::guides.3-3-3-3::GRID.VP.24::guides.3-3-3-3::label-9-3.10-4-10-4::GRID.VP.23::GRID.VP.15::GRID.VP.16.1" class="viewport">
                                    <g id="guide.label.titleGrob.59.1" class="titleGrob gTree grob gDesc">
                                      <g id="GRID.text.57.1" class="text grob gDesc">
                                        <g id="GRID.text.57.1.1" transform="translate(368.96, 190.06)" stroke-width="0.1">
                                          <g id="GRID.text.57.1.1.scale" transform="scale(1, -1)">
                                            <text x="0" y="0" id="GRID.text.57.1.1.text" text-anchor="start" font-size="8.8" stroke="rgb(0,0,0)" font-family="Helvetica, Arial, FreeSans, Liberation Sans, Nimbus Sans L, sans-serif" fill="rgb(0,0,0)" stroke-opacity="1" fill-opacity="1" font-weight="normal" font-style="normal">
                                              <tspan id="GRID.text.57.1.1.tspan.1" dy="3.23" x="0">NA (263)</tspan>
                                            </text>
                                          </g>
                                        </g>
                                      </g>
                                    </g>
                                  </g>
                                </g>
                              </g>
                            </g>
                          </g>
                        </g>
                      </g>
                    </g>
                  </g>
                </g>
              </g>
            </g>
          </g>
          <g id="layout::subtitle.4-5-4-5.1" class="viewport"/>
          <g id="layout::title.3-5-3-5.1" class="viewport">
            <g id="layout::title.3-5-3-5::GRID.VP.26.1" font-size="13.2" stroke="rgb(102,102,102)" font-family="Helvetica, Arial, FreeSans, Liberation Sans, Nimbus Sans L, sans-serif" stroke-opacity="1" font-weight="normal" font-style="normal" class="viewport">
              <g id="layout::title.3-5-3-5::GRID.VP.26::GRID.VP.27.1" class="viewport">
                <g id="title.3-5-3-5.1" class="forcedgrob gTableChild titleGrob gTree grob gDesc">
                  <g id="GRID.text.83.1" class="text grob gDesc">
                    <g id="GRID.text.83.1.1" transform="translate(168.99, 422.87)" stroke-width="0.1">
                      <g id="GRID.text.83.1.1.scale" transform="scale(1, -1)">
                        <text x="0" y="0" id="GRID.text.83.1.1.text" text-anchor="middle" font-size="13.2" stroke="rgb(102,102,102)" font-family="Helvetica, Arial, FreeSans, Liberation Sans, Nimbus Sans L, sans-serif" fill="rgb(102,102,102)" stroke-opacity="1" fill-opacity="1" font-weight="normal" font-style="normal">
                          <tspan id="GRID.text.83.1.1.tspan.1" dy="9.33" x="0">anagrafica altroattivita</tspan>
                        </text>
                      </g>
                    </g>
                  </g>
                </g>
              </g>
            </g>
          </g>
          <g id="layout::caption.10-5-10-5.1" class="viewport"/>
          <g id="layout::tag.2-2-2-2.1" class="viewport"/>
        </g>
      </g>
    </g>
  </g>
</svg>