<?xml version="1.0" encoding="UTF-8"?>
<svg xmlns="http://www.w3.org/2000/svg" xmlns:xlink="http://www.w3.org/1999/xlink" width="504px" height="504px" viewBox="0 0 504 504" version="1.1">
  <metadata xmlns:gridsvg="http://www.stat.auckland.ac.nz/~paul/R/gridSVG/">
    <gridsvg:generator name="gridSVG" version="1.6-0" time="2019-01-14 15:59:55"/>
    <gridsvg:argument name="name" value="./latest_informaggio_csv/risultati/svg/anagrafica-totali-attivita.svg"/>
    <gridsvg:argument name="exportCoords" value="none"/>
    <gridsvg:argument name="exportMappings" value="none"/>
    <gridsvg:argument name="exportJS" value="none"/>
    <gridsvg:argument name="res" value="72"/>
    <gridsvg:argument name="prefix" value=""/>
    <gridsvg:argument name="addClasses" value="TRUE"/>
    <gridsvg:argument name="indent" value="TRUE"/>
    <gridsvg:argument name="htmlWrapper" value="FALSE"/>
    <gridsvg:argument name="usePaths" value="vpPaths"/>
    <gridsvg:argument name="uniqueNames" value="TRUE"/>
    <gridsvg:separator name="id.sep" value="."/>
    <gridsvg:separator name="gPath.sep" value="::"/>
    <gridsvg:separator name="vpPath.sep" value="::"/>
  </metadata>
  <g transform="translate(0, 504) scale(1, -1)">
    <g id="gridSVG" fill="none" stroke="rgb(0,0,0)" stroke-dasharray="none" stroke-width="0.75" font-size="12" font-family="Helvetica, Arial, FreeSans, Liberation Sans, Nimbus Sans L, sans-serif" opacity="1" stroke-linecap="round" stroke-linejoin="round" stroke-miterlimit="10" stroke-opacity="1" fill-opacity="0" font-weight="normal" font-style="normal">
      <g id="layout.1" class="viewport">
        <g id="layout.2" class="forcedgrob gtable gTree grob gDesc">
          <defs>
            <clipPath id="layout::background.1-11-12-1.1.clipPath">
              <rect x="0" y="51.33" width="504" height="401.35" fill="none" stroke="none"/>
            </clipPath>
          </defs>
          <g id="layout::background.1-11-12-1.1" clip-path="url(#layout::background.1-11-12-1.1.clipPath)" class="viewport">
            <g id="background.1-11-12-1.1" class="forcedgrob gTableChild rect grob gDesc">
              <rect id="background.1-11-12-1.1.1" x="0" y="51.33" width="504" height="401.35" transform="" stroke-width="1.07" stroke="rgb(255,255,255)" fill="rgb(255,255,255)" stroke-dasharray="none" stroke-opacity="1" fill-opacity="1"/>
            </g>
          </g>
          <defs>
            <clipPath id="layout::panel.7-5-7-5.1.clipPath">
              <rect x="8.22" y="59.55" width="370.2" height="370.2" fill="none" stroke="none"/>
            </clipPath>
          </defs>
          <g id="layout::panel.7-5-7-5.1" clip-path="url(#layout::panel.7-5-7-5.1.clipPath)" class="viewport">
            <g id="panel.7-5-7-5.1" class="forcedgrob gTableChild gTree grob gDesc">
              <g id="grill.gTree.1252.1" class="gTree grob gDesc">
                <g id="panel.background..rect.1248.1" class="rect grob gDesc">
                  <rect id="panel.background..rect.1248.1.1" x="8.22" y="59.55" width="370.2" height="370.2" transform="" stroke-width="1.07" stroke="none" fill="rgb(255,255,255)" stroke-dasharray="none" stroke-opacity="0" fill-opacity="1"/>
                </g>
              </g>
              <g id="bar.gTree.1241.1" class="gTree grob gDesc">
                <g id="geom_polygon.polygon.1233.1" class="polygon grob gDesc">
                  <polygon id="geom_polygon.polygon.1233.1.1" points="193.32,244.64 192.1,249.6 190.89,254.56 189.68,259.52 188.47,264.48 187.25,269.44 186.04,274.4 184.83,279.36 183.61,284.32 182.4,289.28 181.19,294.24 179.98,299.2 178.76,304.16 177.55,309.12 176.34,314.08 175.12,319.04 173.91,324 172.7,328.96 171.49,333.92 170.27,338.88 169.06,343.84 167.85,348.8 166.63,353.76 165.42,358.72 164.21,363.68 163,368.64 161.78,373.6 160.57,378.56 159.36,383.52 158.14,388.48 153.28,387.21 148.47,385.77 143.7,384.16 138.99,382.4 134.35,380.47 129.77,378.39 125.27,376.16 120.84,373.77 116.5,371.24 112.25,368.56 108.09,365.74 104.03,362.77 100.07,359.67 96.22,356.44 92.48,353.08 88.86,349.6 85.35,345.99 81.98,342.27 78.73,338.43 75.61,334.49 72.63,330.44 69.78,326.29 67.08,322.05 64.53,317.72 62.12,313.31 59.87,308.82 57.77,304.25 55.82,299.61 54.03,294.92 52.41,290.16 50.94,285.35 49.64,280.49 48.51,275.6 47.54,270.66 46.74,265.7 46.11,260.71 45.65,255.71 45.36,250.69 45.24,245.66 45.29,240.63 45.51,235.61 45.91,230.6 46.47,225.6 47.2,220.63 48.1,215.68 49.16,210.77 50.4,205.9 51.8,201.07 53.36,196.29 55.08,191.57 56.96,186.9 59,182.31 61.19,177.79 63.54,173.34 66.03,168.97 68.67,164.7 71.46,160.51 74.39,156.42 77.45,152.44 80.65,148.56 83.97,144.79 87.42,141.13 91,137.6 94.69,134.19 98.5,130.9 102.41,127.75 106.43,124.73 110.55,121.85 114.77,119.11 119.08,116.52 123.47,114.07 127.94,111.78 132.49,109.64 137.11,107.65 141.79,105.82 146.53,104.15 151.33,102.64 156.17,101.3 161.06,100.12 165.98,99.11 170.94,98.27 175.92,97.59 180.92,97.08 185.94,96.75 190.96,96.58 195.99,96.59 201.01,96.77 206.03,97.11 211.03,97.63 216.01,98.31 220.96,99.17 225.89,100.19 230.77,101.38 235.61,102.73 240.41,104.25 245.14,105.93 249.82,107.77 254.44,109.77 258.98,111.92 263.45,114.22 267.83,116.68 272.13,119.28 276.34,122.03 280.46,124.92 284.47,127.95 288.38,131.11 292.18,134.4 295.86,137.82 299.43,141.36 302.88,145.03 306.19,148.8 309.38,152.69 312.44,156.68 315.35,160.78 318.13,164.97 320.76,169.25 323.25,173.62 325.59,178.07 327.77,182.6 329.8,187.2 331.67,191.86 333.38,196.59 334.93,201.37 336.32,206.21 337.54,211.08 338.6,216 339.49,220.94 340.21,225.92 340.76,230.92 341.14,235.93 341.35,240.95 341.39,245.98 341.26,251.01 340.96,256.02 340.49,261.03 339.84,266.01 339.03,270.98 338.06,275.91 336.91,280.8 335.6,285.66 334.13,290.46 332.49,295.22 330.69,299.91 328.74,304.54 326.63,309.1 324.36,313.59 321.95,318 319.38,322.33 316.67,326.56 313.82,330.7 310.83,334.74 307.7,338.68 304.45,342.51 301.06,346.22 297.55,349.82 293.92,353.3 290.17,356.65 286.32,359.87 282.35,362.97 278.28,365.92 274.12,368.73 269.86,371.4 265.51,373.93 261.08,376.31 256.57,378.53 251.99,380.6 247.34,382.51 242.63,384.27 237.86,385.86 233.04,387.29 228.18,388.56 223.27,389.66 218.33,390.59 213.36,391.36 208.37,391.95 203.36,392.38 198.34,392.64 193.32,392.72 193.32,387.62 193.32,382.51 193.32,377.4 193.32,372.3 193.32,367.19 193.32,362.08 193.32,356.98 193.32,351.87 193.32,346.77 193.32,341.66 193.32,336.55 193.32,331.45 193.32,326.34 193.32,321.24 193.32,316.13 193.32,311.02 193.32,305.92 193.32,300.81 193.32,295.7 193.32,290.6 193.32,285.49 193.32,280.39 193.32,275.28 193.32,270.17 193.32,265.07 193.32,259.96 193.32,254.86 193.32,249.75 193.32,244.64 193.32,244.64" stroke="none" fill="rgb(199,124,255)" stroke-width="1.07" stroke-dasharray="none" stroke-opacity="0" fill-opacity="1"/>
                </g>
                <g id="geom_polygon.polygon.1235.1" class="polygon grob gDesc">
                  <polygon id="geom_polygon.polygon.1235.1.1" points="193.32,244.64 192.95,249.74 192.58,254.83 192.22,259.92 191.85,265.01 191.48,270.11 191.11,275.2 190.75,280.29 190.38,285.39 190.01,290.48 189.65,295.57 189.28,300.67 188.91,305.76 188.55,310.85 188.18,315.94 187.81,321.04 187.44,326.13 187.08,331.22 186.71,336.32 186.34,341.41 185.98,346.5 185.61,351.59 185.24,356.69 184.87,361.78 184.51,366.87 184.14,371.97 183.77,377.06 183.41,382.15 183.04,387.25 182.67,392.34 176.49,391.76 170.33,390.93 164.21,389.83 158.14,388.48 159.36,383.52 160.57,378.56 161.78,373.6 163,368.64 164.21,363.68 165.42,358.72 166.63,353.76 167.85,348.8 169.06,343.84 170.27,338.88 171.49,333.92 172.7,328.96 173.91,324 175.12,319.04 176.34,314.08 177.55,309.12 178.76,304.16 179.98,299.2 181.19,294.24 182.4,289.28 183.61,284.32 184.83,279.36 186.04,274.4 187.25,269.44 188.47,264.48 189.68,259.52 190.89,254.56 192.1,249.6 193.32,244.64 193.32,244.64" stroke="none" fill="rgb(0,191,196)" stroke-width="1.07" stroke-dasharray="none" stroke-opacity="0" fill-opacity="1"/>
                </g>
                <g id="geom_polygon.polygon.1237.1" class="polygon grob gDesc">
                  <polygon id="geom_polygon.polygon.1237.1.1" points="193.32,244.64 193.19,249.75 193.07,254.85 192.95,259.96 192.83,265.06 192.7,270.17 192.58,275.27 192.46,280.38 192.34,285.48 192.21,290.59 192.09,295.69 191.97,300.79 191.85,305.9 191.72,311 191.6,316.11 191.48,321.21 191.36,326.32 191.24,331.42 191.11,336.53 190.99,341.63 190.87,346.74 190.75,351.84 190.62,356.95 190.5,362.05 190.38,367.16 190.26,372.26 190.13,377.36 190.01,382.47 189.89,387.57 189.77,392.68 182.67,392.34 183.04,387.25 183.41,382.15 183.77,377.06 184.14,371.97 184.51,366.87 184.87,361.78 185.24,356.69 185.61,351.59 185.98,346.5 186.34,341.41 186.71,336.32 187.08,331.22 187.44,326.13 187.81,321.04 188.18,315.94 188.55,310.85 188.91,305.76 189.28,300.67 189.65,295.57 190.01,290.48 190.38,285.39 190.75,280.29 191.11,275.2 191.48,270.11 191.85,265.01 192.22,259.92 192.58,254.83 192.95,249.74 193.32,244.64 193.32,244.64" stroke="none" fill="rgb(124,174,0)" stroke-width="1.07" stroke-dasharray="none" stroke-opacity="0" fill-opacity="1"/>
                </g>
                <g id="geom_polygon.polygon.1239.1" class="polygon grob gDesc">
                  <polygon id="geom_polygon.polygon.1239.1.1" points="193.32,244.64 193.32,249.75 193.32,254.86 193.32,259.96 193.32,265.07 193.32,270.17 193.32,275.28 193.32,280.39 193.32,285.49 193.32,290.6 193.32,295.7 193.32,300.81 193.32,305.92 193.32,311.02 193.32,316.13 193.32,321.24 193.32,326.34 193.32,331.45 193.32,336.55 193.32,341.66 193.32,346.77 193.32,351.87 193.32,356.98 193.32,362.08 193.32,367.19 193.32,372.3 193.32,377.4 193.32,382.51 193.32,387.62 193.32,392.72 189.77,392.68 189.89,387.57 190.01,382.47 190.13,377.36 190.26,372.26 190.38,367.16 190.5,362.05 190.62,356.95 190.75,351.84 190.87,346.74 190.99,341.63 191.11,336.53 191.24,331.42 191.36,326.32 191.48,321.21 191.6,316.11 191.72,311 191.85,305.9 191.97,300.79 192.09,295.69 192.21,290.59 192.34,285.48 192.46,280.38 192.58,275.27 192.7,270.17 192.83,265.06 192.95,259.96 193.07,254.85 193.19,249.75 193.32,244.64 193.32,244.64" stroke="none" fill="rgb(248,118,109)" stroke-width="1.07" stroke-dasharray="none" stroke-opacity="0" fill-opacity="1"/>
                </g>
              </g>
              <g id="GRID.text.1242.1" class="text grob gDesc">
                <g id="GRID.text.1242.1.1" transform="translate(202.17, 171.14)" stroke-width="0.1">
                  <g id="GRID.text.1242.1.1.scale" transform="scale(1, -1)">
                    <text x="0" y="0" id="GRID.text.1242.1.1.text" text-anchor="middle" stroke="rgb(0,0,0)" font-size="11.04" font-family="Helvetica, Arial, FreeSans, Liberation Sans, Nimbus Sans L, sans-serif" fill="rgb(0,0,0)" stroke-opacity="1" fill-opacity="1" font-weight="normal" font-style="normal">
                      <tspan id="GRID.text.1242.1.1.tspan.1" dy="3.95" x="0">252</tspan>
                    </text>
                  </g>
                </g>
                <g id="GRID.text.1242.1.2" transform="translate(181.82, 317.78)" stroke-width="0.1">
                  <g id="GRID.text.1242.1.2.scale" transform="scale(1, -1)">
                    <text x="0" y="0" id="GRID.text.1242.1.2.text" text-anchor="middle" stroke="rgb(0,0,0)" font-size="11.04" font-family="Helvetica, Arial, FreeSans, Liberation Sans, Nimbus Sans L, sans-serif" fill="rgb(0,0,0)" stroke-opacity="1" fill-opacity="1" font-weight="normal" font-style="normal">
                      <tspan id="GRID.text.1242.1.2.tspan.1" dy="3.95" x="0">7</tspan>
                    </text>
                  </g>
                </g>
                <g id="GRID.text.1242.1.3" transform="translate(189.77, 318.6)" stroke-width="0.1">
                  <g id="GRID.text.1242.1.3.scale" transform="scale(1, -1)">
                    <text x="0" y="0" id="GRID.text.1242.1.3.text" text-anchor="middle" stroke="rgb(0,0,0)" font-size="11.04" font-family="Helvetica, Arial, FreeSans, Liberation Sans, Nimbus Sans L, sans-serif" fill="rgb(0,0,0)" stroke-opacity="1" fill-opacity="1" font-weight="normal" font-style="normal">
                      <tspan id="GRID.text.1242.1.3.tspan.1" dy="3.95" x="0">2</tspan>
                    </text>
                  </g>
                </g>
                <g id="GRID.text.1242.1.4" transform="translate(192.43, 318.68)" stroke-width="0.1">
                  <g id="GRID.text.1242.1.4.scale" transform="scale(1, -1)">
                    <text x="0" y="0" id="GRID.text.1242.1.4.text" text-anchor="middle" stroke="rgb(0,0,0)" font-size="11.04" font-family="Helvetica, Arial, FreeSans, Liberation Sans, Nimbus Sans L, sans-serif" fill="rgb(0,0,0)" stroke-opacity="1" fill-opacity="1" font-weight="normal" font-style="normal">
                      <tspan id="GRID.text.1242.1.4.tspan.1" dy="3.95" x="0">1</tspan>
                    </text>
                  </g>
                </g>
              </g>
              <g id="GRID.gTree.1243.1" class="gTree grob gDesc"/>
            </g>
          </g>
          <g id="layout::spacer.8-6-8-6.1" class="viewport"/>
          <g id="layout::spacer.8-4-8-4.1" class="viewport"/>
          <g id="layout::spacer.6-6-6-6.1" class="viewport"/>
          <g id="layout::spacer.6-4-6-4.1" class="viewport"/>
          <g id="layout::axis-t.6-5-6-5.1" class="viewport"/>
          <g id="layout::axis-l.7-4-7-4.1" class="viewport">
            <g id="layout::axis-l.7-4-7-4::GRID.VP.305.1" class="viewport">
              <g id="axis-l.7-4-7-4.1" class="forcedgrob gTableChild absoluteGrob gTree grob gDesc">
                <g id="layout::axis-l.7-4-7-4::GRID.VP.305::axis.1" class="viewport">
                  <g id="axis.1" class="forcedgrob gtable gTree grob gDesc">
                    <g id="layout::axis-l.7-4-7-4::GRID.VP.305::axis::axis.1-1-1-1.1" class="viewport"/>
                    <g id="layout::axis-l.7-4-7-4::GRID.VP.305::axis::axis.1-2-1-2.1" class="viewport"/>
                  </g>
                </g>
              </g>
            </g>
          </g>
          <g id="layout::axis-r.7-6-7-6.1" class="viewport"/>
          <g id="layout::axis-b.8-5-8-5.1" class="viewport">
            <g id="layout::axis-b.8-5-8-5::GRID.VP.304.1" class="viewport">
              <g id="axis-b.8-5-8-5.1" class="forcedgrob gTableChild absoluteGrob gTree grob gDesc">
                <g id="layout::axis-b.8-5-8-5::GRID.VP.304::axis.1" class="viewport">
                  <g id="axis.2" class="forcedgrob gtable gTree grob gDesc">
                    <g id="layout::axis-b.8-5-8-5::GRID.VP.304::axis::axis.1-1-1-1.1" class="viewport"/>
                    <g id="layout::axis-b.8-5-8-5::GRID.VP.304::axis::axis.2-1-2-1.1" class="viewport"/>
                  </g>
                </g>
              </g>
            </g>
          </g>
          <g id="layout::xlab-t.5-5-5-5.1" class="viewport"/>
          <g id="layout::xlab-b.9-5-9-5.1" class="viewport"/>
          <g id="layout::ylab-l.7-3-7-3.1" class="viewport"/>
          <g id="layout::ylab-r.7-7-7-7.1" class="viewport"/>
          <g id="layout::guide-box.7-9-7-9.1" class="viewport">
            <g id="layout::guide-box.7-9-7-9::GRID.VP.319.1" class="viewport">
              <g id="layout::guide-box.7-9-7-9::GRID.VP.319::guide-box.7-9-7-9.1" class="viewport">
                <g id="guide-box.7-9-7-9.1" class="forcedgrob gTableChild gtable gTree grob gDesc">
                  <g id="layout::guide-box.7-9-7-9::GRID.VP.319::guide-box.7-9-7-9::legend.box.background.2-4-4-2.1" class="viewport"/>
                  <g id="layout::guide-box.7-9-7-9::GRID.VP.319::guide-box.7-9-7-9::guides.3-3-3-3.1" class="viewport">
                    <g id="layout::guide-box.7-9-7-9::GRID.VP.319::guide-box.7-9-7-9::guides.3-3-3-3::GRID.VP.318.1" class="viewport">
                      <g id="layout::guide-box.7-9-7-9::GRID.VP.319::guide-box.7-9-7-9::guides.3-3-3-3::GRID.VP.318::guides.3-3-3-3.1" class="viewport">
                        <g id="guides.3-3-3-3.1" class="forcedgrob gTableChild gtable gTree grob gDesc">
                          <g id="layout::guide-box.7-9-7-9::GRID.VP.319::guide-box.7-9-7-9::guides.3-3-3-3::GRID.VP.318::guides.3-3-3-3::background.1-6-8-1.1" class="viewport">
                            <g id="background.1-6-8-1.1" class="forcedgrob gTableChild rect grob gDesc">
                              <rect id="background.1-6-8-1.1.1" x="389.37" y="201.86" width="109.15" height="85.56" transform="" stroke-width="1.07" stroke="none" fill="rgb(255,255,255)" stroke-dasharray="none" stroke-opacity="0" fill-opacity="1"/>
                            </g>
                          </g>
                          <g id="layout::guide-box.7-9-7-9::GRID.VP.319::guide-box.7-9-7-9::guides.3-3-3-3::GRID.VP.318::guides.3-3-3-3::title.2-5-2-2.1" class="viewport"/>
                          <g id="layout::guide-box.7-9-7-9::GRID.VP.319::guide-box.7-9-7-9::guides.3-3-3-3::GRID.VP.318::guides.3-3-3-3::key-3-1-bg.4-2-4-2.1" class="viewport"/>
                          <g id="layout::guide-box.7-9-7-9::GRID.VP.319::guide-box.7-9-7-9::guides.3-3-3-3::GRID.VP.318::guides.3-3-3-3::key-3-1-1.4-2-4-2.1" class="viewport">
                            <g id="key-3-1-1.4-2-4-2.1" class="forcedgrob gTableChild rect grob gDesc">
                              <rect id="key-3-1-1.4-2-4-2.1.1" x="395.56" y="259.89" width="15.86" height="15.86" transform="" stroke="none" fill="rgb(248,118,109)" stroke-dasharray="none" stroke-width="1.07" stroke-linejoin="miter" stroke-opacity="0" fill-opacity="1"/>
                            </g>
                          </g>
                          <g id="layout::guide-box.7-9-7-9::GRID.VP.319::guide-box.7-9-7-9::guides.3-3-3-3::GRID.VP.318::guides.3-3-3-3::key-4-1-bg.5-2-5-2.1" class="viewport"/>
                          <g id="layout::guide-box.7-9-7-9::GRID.VP.319::guide-box.7-9-7-9::guides.3-3-3-3::GRID.VP.318::guides.3-3-3-3::key-4-1-1.5-2-5-2.1" class="viewport">
                            <g id="key-4-1-1.5-2-5-2.1" class="forcedgrob gTableChild rect grob gDesc">
                              <rect id="key-4-1-1.5-2-5-2.1.1" x="395.56" y="242.61" width="15.86" height="15.86" transform="" stroke="none" fill="rgb(124,174,0)" stroke-dasharray="none" stroke-width="1.07" stroke-linejoin="miter" stroke-opacity="0" fill-opacity="1"/>
                            </g>
                          </g>
                          <g id="layout::guide-box.7-9-7-9::GRID.VP.319::guide-box.7-9-7-9::guides.3-3-3-3::GRID.VP.318::guides.3-3-3-3::key-5-1-bg.6-2-6-2.1" class="viewport"/>
                          <g id="layout::guide-box.7-9-7-9::GRID.VP.319::guide-box.7-9-7-9::guides.3-3-3-3::GRID.VP.318::guides.3-3-3-3::key-5-1-1.6-2-6-2.1" class="viewport">
                            <g id="key-5-1-1.6-2-6-2.1" class="forcedgrob gTableChild rect grob gDesc">
                              <rect id="key-5-1-1.6-2-6-2.1.1" x="395.56" y="225.33" width="15.86" height="15.86" transform="" stroke="none" fill="rgb(0,191,196)" stroke-dasharray="none" stroke-width="1.07" stroke-linejoin="miter" stroke-opacity="0" fill-opacity="1"/>
                            </g>
                          </g>
                          <g id="layout::guide-box.7-9-7-9::GRID.VP.319::guide-box.7-9-7-9::guides.3-3-3-3::GRID.VP.318::guides.3-3-3-3::key-6-1-bg.7-2-7-2.1" class="viewport"/>
                          <g id="layout::guide-box.7-9-7-9::GRID.VP.319::guide-box.7-9-7-9::guides.3-3-3-3::GRID.VP.318::guides.3-3-3-3::key-6-1-1.7-2-7-2.1" class="viewport">
                            <g id="key-6-1-1.7-2-7-2.1" class="forcedgrob gTableChild rect grob gDesc">
                              <rect id="key-6-1-1.7-2-7-2.1.1" x="395.56" y="208.05" width="15.86" height="15.86" transform="" stroke="none" fill="rgb(199,124,255)" stroke-dasharray="none" stroke-width="1.07" stroke-linejoin="miter" stroke-opacity="0" fill-opacity="1"/>
                            </g>
                          </g>
                          <g id="layout::guide-box.7-9-7-9::GRID.VP.319::guide-box.7-9-7-9::guides.3-3-3-3::GRID.VP.318::guides.3-3-3-3::label-3-3.4-4-4-4.1" class="viewport">
                            <g id="layout::guide-box.7-9-7-9::GRID.VP.319::guide-box.7-9-7-9::guides.3-3-3-3::GRID.VP.318::guides.3-3-3-3::label-3-3.4-4-4-4::GRID.VP.314.1" class="viewport">
                              <g id="label-3-3.4-4-4-4.1" class="forcedgrob gTableChild gTree grob gDesc">
                                <g id="layout::guide-box.7-9-7-9::GRID.VP.319::guide-box.7-9-7-9::guides.3-3-3-3::GRID.VP.318::guides.3-3-3-3::label-3-3.4-4-4-4::GRID.VP.314::GRID.VP.306.1" font-size="8.8" stroke="rgb(0,0,0)" font-family="Helvetica, Arial, FreeSans, Liberation Sans, Nimbus Sans L, sans-serif" stroke-opacity="1" font-weight="normal" font-style="normal" class="viewport">
                                  <g id="layout::guide-box.7-9-7-9::GRID.VP.319::guide-box.7-9-7-9::guides.3-3-3-3::GRID.VP.318::guides.3-3-3-3::label-3-3.4-4-4-4::GRID.VP.314::GRID.VP.306::GRID.VP.307.1" class="viewport">
                                    <g id="guide.label.titleGrob.1266.1" class="titleGrob gTree grob gDesc">
                                      <g id="GRID.text.1264.1" class="text grob gDesc">
                                        <g id="GRID.text.1264.1.1" transform="translate(417.61, 267.82)" stroke-width="0.1">
                                          <g id="GRID.text.1264.1.1.scale" transform="scale(1, -1)">
                                            <text x="0" y="0" id="GRID.text.1264.1.1.text" text-anchor="start" font-size="8.8" stroke="rgb(0,0,0)" font-family="Helvetica, Arial, FreeSans, Liberation Sans, Nimbus Sans L, sans-serif" fill="rgb(0,0,0)" stroke-opacity="1" fill-opacity="1" font-weight="normal" font-style="normal">
                                              <tspan id="GRID.text.1264.1.1.tspan.1" dy="3.23" x="0">Lavoro (1)</tspan>
                                            </text>
                                          </g>
                                        </g>
                                      </g>
                                    </g>
                                  </g>
                                </g>
                              </g>
                            </g>
                          </g>
                          <g id="layout::guide-box.7-9-7-9::GRID.VP.319::guide-box.7-9-7-9::guides.3-3-3-3::GRID.VP.318::guides.3-3-3-3::label-4-3.5-4-5-4.1" class="viewport">
                            <g id="layout::guide-box.7-9-7-9::GRID.VP.319::guide-box.7-9-7-9::guides.3-3-3-3::GRID.VP.318::guides.3-3-3-3::label-4-3.5-4-5-4::GRID.VP.315.1" class="viewport">
                              <g id="label-4-3.5-4-5-4.1" class="forcedgrob gTableChild gTree grob gDesc">
                                <g id="layout::guide-box.7-9-7-9::GRID.VP.319::guide-box.7-9-7-9::guides.3-3-3-3::GRID.VP.318::guides.3-3-3-3::label-4-3.5-4-5-4::GRID.VP.315::GRID.VP.308.1" font-size="8.8" stroke="rgb(0,0,0)" font-family="Helvetica, Arial, FreeSans, Liberation Sans, Nimbus Sans L, sans-serif" stroke-opacity="1" font-weight="normal" font-style="normal" class="viewport">
                                  <g id="layout::guide-box.7-9-7-9::GRID.VP.319::guide-box.7-9-7-9::guides.3-3-3-3::GRID.VP.318::guides.3-3-3-3::label-4-3.5-4-5-4::GRID.VP.315::GRID.VP.308::GRID.VP.309.1" class="viewport">
                                    <g id="guide.label.titleGrob.1269.1" class="titleGrob gTree grob gDesc">
                                      <g id="GRID.text.1267.1" class="text grob gDesc">
                                        <g id="GRID.text.1267.1.1" transform="translate(417.61, 250.54)" stroke-width="0.1">
                                          <g id="GRID.text.1267.1.1.scale" transform="scale(1, -1)">
                                            <text x="0" y="0" id="GRID.text.1267.1.1.text" text-anchor="start" font-size="8.8" stroke="rgb(0,0,0)" font-family="Helvetica, Arial, FreeSans, Liberation Sans, Nimbus Sans L, sans-serif" fill="rgb(0,0,0)" stroke-opacity="1" fill-opacity="1" font-weight="normal" font-style="normal">
                                              <tspan id="GRID.text.1267.1.1.tspan.1" dy="3.23" x="0">Comunicazione (2)</tspan>
                                            </text>
                                          </g>
                                        </g>
                                      </g>
                                    </g>
                                  </g>
                                </g>
                              </g>
                            </g>
                          </g>
                          <g id="layout::guide-box.7-9-7-9::GRID.VP.319::guide-box.7-9-7-9::guides.3-3-3-3::GRID.VP.318::guides.3-3-3-3::label-5-3.6-4-6-4.1" class="viewport">
                            <g id="layout::guide-box.7-9-7-9::GRID.VP.319::guide-box.7-9-7-9::guides.3-3-3-3::GRID.VP.318::guides.3-3-3-3::label-5-3.6-4-6-4::GRID.VP.316.1" class="viewport">
                              <g id="label-5-3.6-4-6-4.1" class="forcedgrob gTableChild gTree grob gDesc">
                                <g id="layout::guide-box.7-9-7-9::GRID.VP.319::guide-box.7-9-7-9::guides.3-3-3-3::GRID.VP.318::guides.3-3-3-3::label-5-3.6-4-6-4::GRID.VP.316::GRID.VP.310.1" font-size="8.8" stroke="rgb(0,0,0)" font-family="Helvetica, Arial, FreeSans, Liberation Sans, Nimbus Sans L, sans-serif" stroke-opacity="1" font-weight="normal" font-style="normal" class="viewport">
                                  <g id="layout::guide-box.7-9-7-9::GRID.VP.319::guide-box.7-9-7-9::guides.3-3-3-3::GRID.VP.318::guides.3-3-3-3::label-5-3.6-4-6-4::GRID.VP.316::GRID.VP.310::GRID.VP.311.1" class="viewport">
                                    <g id="guide.label.titleGrob.1272.1" class="titleGrob gTree grob gDesc">
                                      <g id="GRID.text.1270.1" class="text grob gDesc">
                                        <g id="GRID.text.1270.1.1" transform="translate(417.61, 233.26)" stroke-width="0.1">
                                          <g id="GRID.text.1270.1.1.scale" transform="scale(1, -1)">
                                            <text x="0" y="0" id="GRID.text.1270.1.1.text" text-anchor="start" font-size="8.8" stroke="rgb(0,0,0)" font-family="Helvetica, Arial, FreeSans, Liberation Sans, Nimbus Sans L, sans-serif" fill="rgb(0,0,0)" stroke-opacity="1" fill-opacity="1" font-weight="normal" font-style="normal">
                                              <tspan id="GRID.text.1270.1.1.tspan.1" dy="3.23" x="0">Svago (7)</tspan>
                                            </text>
                                          </g>
                                        </g>
                                      </g>
                                    </g>
                                  </g>
                                </g>
                              </g>
                            </g>
                          </g>
                          <g id="layout::guide-box.7-9-7-9::GRID.VP.319::guide-box.7-9-7-9::guides.3-3-3-3::GRID.VP.318::guides.3-3-3-3::label-6-3.7-4-7-4.1" class="viewport">
                            <g id="layout::guide-box.7-9-7-9::GRID.VP.319::guide-box.7-9-7-9::guides.3-3-3-3::GRID.VP.318::guides.3-3-3-3::label-6-3.7-4-7-4::GRID.VP.317.1" class="viewport">
                              <g id="label-6-3.7-4-7-4.1" class="forcedgrob gTableChild gTree grob gDesc">
                                <g id="layout::guide-box.7-9-7-9::GRID.VP.319::guide-box.7-9-7-9::guides.3-3-3-3::GRID.VP.318::guides.3-3-3-3::label-6-3.7-4-7-4::GRID.VP.317::GRID.VP.312.1" font-size="8.8" stroke="rgb(0,0,0)" font-family="Helvetica, Arial, FreeSans, Liberation Sans, Nimbus Sans L, sans-serif" stroke-opacity="1" font-weight="normal" font-style="normal" class="viewport">
                                  <g id="layout::guide-box.7-9-7-9::GRID.VP.319::guide-box.7-9-7-9::guides.3-3-3-3::GRID.VP.318::guides.3-3-3-3::label-6-3.7-4-7-4::GRID.VP.317::GRID.VP.312::GRID.VP.313.1" class="viewport">
                                    <g id="guide.label.titleGrob.1275.1" class="titleGrob gTree grob gDesc">
                                      <g id="GRID.text.1273.1" class="text grob gDesc">
                                        <g id="GRID.text.1273.1.1" transform="translate(417.61, 215.98)" stroke-width="0.1">
                                          <g id="GRID.text.1273.1.1.scale" transform="scale(1, -1)">
                                            <text x="0" y="0" id="GRID.text.1273.1.1.text" text-anchor="start" font-size="8.8" stroke="rgb(0,0,0)" font-family="Helvetica, Arial, FreeSans, Liberation Sans, Nimbus Sans L, sans-serif" fill="rgb(0,0,0)" stroke-opacity="1" fill-opacity="1" font-weight="normal" font-style="normal">
                                              <tspan id="GRID.text.1273.1.1.tspan.1" dy="3.23" x="0">Studio (252)</tspan>
                                            </text>
                                          </g>
                                        </g>
                                      </g>
                                    </g>
                                  </g>
                                </g>
                              </g>
                            </g>
                          </g>
                        </g>
                      </g>
                    </g>
                  </g>
                </g>
              </g>
            </g>
          </g>
          <g id="layout::subtitle.4-5-4-5.1" class="viewport"/>
          <g id="layout::title.3-5-3-5.1" class="viewport">
            <g id="layout::title.3-5-3-5::GRID.VP.320.1" font-size="13.2" stroke="rgb(102,102,102)" font-family="Helvetica, Arial, FreeSans, Liberation Sans, Nimbus Sans L, sans-serif" stroke-opacity="1" font-weight="normal" font-style="normal" class="viewport">
              <g id="layout::title.3-5-3-5::GRID.VP.320::GRID.VP.321.1" class="viewport">
                <g id="title.3-5-3-5.1" class="forcedgrob gTableChild titleGrob gTree grob gDesc">
                  <g id="GRID.text.1290.1" class="text grob gDesc">
                    <g id="GRID.text.1290.1.1" transform="translate(193.32, 447.19)" stroke-width="0.1">
                      <g id="GRID.text.1290.1.1.scale" transform="scale(1, -1)">
                        <text x="0" y="0" id="GRID.text.1290.1.1.text" text-anchor="middle" font-size="13.2" stroke="rgb(102,102,102)" font-family="Helvetica, Arial, FreeSans, Liberation Sans, Nimbus Sans L, sans-serif" fill="rgb(102,102,102)" stroke-opacity="1" fill-opacity="1" font-weight="normal" font-style="normal">
                          <tspan id="GRID.text.1290.1.1.tspan.1" dy="9.33" x="0">anagrafica totali-attivita</tspan>
                        </text>
                      </g>
                    </g>
                  </g>
                </g>
              </g>
            </g>
          </g>
          <g id="layout::caption.10-5-10-5.1" class="viewport"/>
          <g id="layout::tag.2-2-2-2.1" class="viewport"/>
        </g>
      </g>
    </g>
  </g>
</svg>