<?xml version="1.0" encoding="UTF-8"?>
<svg xmlns="http://www.w3.org/2000/svg" xmlns:xlink="http://www.w3.org/1999/xlink" width="504px" height="504px" viewBox="0 0 504 504" version="1.1">
  <metadata xmlns:gridsvg="http://www.stat.auckland.ac.nz/~paul/R/gridSVG/">
    <gridsvg:generator name="gridSVG" version="1.6-0" time="2019-01-07 19:38:27"/>
    <gridsvg:argument name="name" value="./latest_informaggio_csv/risultati/svg/anagrafica-totali-altroos.svg"/>
    <gridsvg:argument name="exportCoords" value="none"/>
    <gridsvg:argument name="exportMappings" value="none"/>
    <gridsvg:argument name="exportJS" value="none"/>
    <gridsvg:argument name="res" value="72"/>
    <gridsvg:argument name="prefix" value=""/>
    <gridsvg:argument name="addClasses" value="TRUE"/>
    <gridsvg:argument name="indent" value="TRUE"/>
    <gridsvg:argument name="htmlWrapper" value="FALSE"/>
    <gridsvg:argument name="usePaths" value="vpPaths"/>
    <gridsvg:argument name="uniqueNames" value="TRUE"/>
    <gridsvg:separator name="id.sep" value="."/>
    <gridsvg:separator name="gPath.sep" value="::"/>
    <gridsvg:separator name="vpPath.sep" value="::"/>
  </metadata>
  <g transform="translate(0, 504) scale(1, -1)">
    <g id="gridSVG" fill="none" stroke="rgb(0,0,0)" stroke-dasharray="none" stroke-width="0.75" font-size="12" font-family="Helvetica, Arial, FreeSans, Liberation Sans, Nimbus Sans L, sans-serif" opacity="1" stroke-linecap="round" stroke-linejoin="round" stroke-miterlimit="10" stroke-opacity="1" fill-opacity="0" font-weight="normal" font-style="normal">
      <g id="layout.1" class="viewport">
        <g id="layout.2" class="forcedgrob gtable gTree grob gDesc">
          <defs>
            <clipPath id="layout::background.1-11-12-1.1.clipPath">
              <rect x="0" y="176.04" width="504" height="151.91" fill="none" stroke="none"/>
            </clipPath>
          </defs>
          <g id="layout::background.1-11-12-1.1" clip-path="url(#layout::background.1-11-12-1.1.clipPath)" class="viewport">
            <g id="background.1-11-12-1.1" class="forcedgrob gTableChild rect grob gDesc">
              <rect id="background.1-11-12-1.1.1" x="0" y="176.04" width="504" height="151.91" transform="" stroke-width="1.07" stroke="rgb(255,255,255)" fill="rgb(255,255,255)" stroke-dasharray="none" stroke-opacity="1" fill-opacity="1"/>
            </g>
          </g>
          <defs>
            <clipPath id="layout::panel.7-5-7-5.1.clipPath">
              <rect x="8.22" y="184.26" width="120.76" height="120.76" fill="none" stroke="none"/>
            </clipPath>
          </defs>
          <g id="layout::panel.7-5-7-5.1" clip-path="url(#layout::panel.7-5-7-5.1.clipPath)" class="viewport">
            <g id="panel.7-5-7-5.1" class="forcedgrob gTableChild gTree grob gDesc">
              <g id="grill.gTree.190.1" class="gTree grob gDesc">
                <g id="panel.background..rect.186.1" class="rect grob gDesc">
                  <rect id="panel.background..rect.186.1.1" x="8.22" y="184.26" width="120.76" height="120.76" transform="" stroke-width="1.07" stroke="none" fill="rgb(255,255,255)" stroke-dasharray="none" stroke-opacity="0" fill-opacity="1"/>
                </g>
              </g>
              <g id="bar.gTree.179.1" class="gTree grob gDesc">
                <g id="geom_polygon.polygon.175.1" class="polygon grob gDesc">
                  <polygon id="geom_polygon.polygon.175.1.1" points="68.6,244.64 68.56,246.31 68.52,247.97 68.48,249.64 68.44,251.3 68.4,252.97 68.36,254.63 68.32,256.3 68.28,257.96 68.24,259.63 68.2,261.29 68.16,262.96 68.12,264.63 68.08,266.29 68.04,267.96 68,269.62 67.96,271.29 67.92,272.95 67.88,274.62 67.84,276.28 67.8,277.95 67.76,279.61 67.72,281.28 67.68,282.94 67.64,284.61 67.6,286.27 67.56,287.94 67.52,289.6 67.48,291.27 67.44,292.93 65.81,292.87 64.18,292.74 62.55,292.57 60.94,292.34 59.33,292.05 57.73,291.71 56.14,291.31 54.57,290.87 53.02,290.36 51.48,289.81 49.96,289.21 48.46,288.55 46.99,287.84 45.54,287.09 44.12,286.28 42.72,285.43 41.36,284.53 40.02,283.59 38.72,282.6 37.46,281.57 36.23,280.49 35.03,279.38 33.88,278.22 32.76,277.03 31.68,275.8 30.65,274.53 29.66,273.23 28.72,271.9 27.82,270.53 26.97,269.14 26.16,267.72 25.41,266.27 24.7,264.79 24.04,263.3 23.44,261.78 22.88,260.24 22.38,258.69 21.93,257.11 21.54,255.53 21.2,253.93 20.91,252.32 20.68,250.7 20.5,249.08 20.38,247.45 20.31,245.82 20.3,244.18 20.34,242.55 20.44,240.92 20.59,239.29 20.8,237.67 21.06,236.06 21.38,234.45 21.75,232.86 22.18,231.28 22.66,229.72 23.19,228.18 23.77,226.65 24.41,225.14 25.09,223.66 25.83,222.2 26.61,220.77 27.44,219.36 28.32,217.98 29.24,216.63 30.21,215.32 31.23,214.04 32.28,212.79 33.38,211.58 34.52,210.41 35.7,209.28 36.91,208.18 38.17,207.13 39.45,206.12 40.77,205.16 42.12,204.24 43.51,203.37 44.92,202.54 46.35,201.77 47.82,201.04 49.3,200.36 50.81,199.73 52.34,199.16 53.89,198.63 55.45,198.16 57.03,197.74 58.63,197.38 60.23,197.07 61.85,196.81 63.47,196.61 65.1,196.47 66.73,196.38 68.36,196.34 70,196.36 71.63,196.43 73.26,196.56 74.88,196.75 76.5,196.99 78.1,197.28 79.7,197.63 81.29,198.03 82.85,198.49 84.41,199 85.94,199.56 87.46,200.17 88.95,200.84 90.42,201.55 91.87,202.31 93.29,203.12 94.68,203.98 96.04,204.89 97.37,205.84 98.66,206.83 99.92,207.87 101.15,208.95 102.34,210.07 103.49,211.24 104.6,212.43 105.67,213.67 106.69,214.94 107.68,216.25 108.61,217.59 109.51,218.96 110.35,220.35 111.15,221.78 111.9,223.23 112.6,224.71 113.25,226.21 113.85,227.73 114.39,229.27 114.89,230.83 115.33,232.4 115.71,233.99 116.05,235.59 116.33,237.2 116.55,238.82 116.72,240.44 116.83,242.07 116.89,243.71 116.9,245.34 116.85,246.97 116.74,248.61 116.58,250.23 116.36,251.85 116.09,253.46 115.77,255.06 115.39,256.65 114.95,258.23 114.47,259.79 113.93,261.33 113.34,262.86 112.7,264.36 112,265.84 111.26,267.3 110.47,268.73 109.63,270.13 108.75,271.5 107.82,272.85 106.84,274.16 105.82,275.43 104.76,276.67 103.65,277.88 102.51,279.05 101.32,280.17 100.1,281.26 98.85,282.3 97.56,283.31 96.23,284.26 94.88,285.18 93.49,286.04 92.07,286.86 90.63,287.63 89.17,288.35 87.68,289.02 86.16,289.64 84.63,290.21 83.08,290.73 81.51,291.19 79.93,291.6 78.34,291.96 76.73,292.26 75.12,292.51 73.49,292.7 71.87,292.84 70.23,292.92 68.6,292.95 68.6,291.28 68.6,289.62 68.6,287.95 68.6,286.28 68.6,284.62 68.6,282.95 68.6,281.29 68.6,279.62 68.6,277.96 68.6,276.29 68.6,274.62 68.6,272.96 68.6,271.29 68.6,269.63 68.6,267.96 68.6,266.3 68.6,264.63 68.6,262.97 68.6,261.3 68.6,259.63 68.6,257.97 68.6,256.3 68.6,254.64 68.6,252.97 68.6,251.31 68.6,249.64 68.6,247.97 68.6,246.31 68.6,244.64 68.6,244.64" stroke="none" fill="rgb(0,191,196)" stroke-width="1.07" stroke-dasharray="none" stroke-opacity="0" fill-opacity="1"/>
                </g>
                <g id="geom_polygon.polygon.177.1" class="polygon grob gDesc">
                  <polygon id="geom_polygon.polygon.177.1.1" points="68.6,244.64 68.6,246.31 68.6,247.97 68.6,249.64 68.6,251.31 68.6,252.97 68.6,254.64 68.6,256.3 68.6,257.97 68.6,259.63 68.6,261.3 68.6,262.97 68.6,264.63 68.6,266.3 68.6,267.96 68.6,269.63 68.6,271.29 68.6,272.96 68.6,274.62 68.6,276.29 68.6,277.96 68.6,279.62 68.6,281.29 68.6,282.95 68.6,284.62 68.6,286.28 68.6,287.95 68.6,289.62 68.6,291.28 68.6,292.95 67.44,292.93 67.48,291.27 67.52,289.6 67.56,287.94 67.6,286.27 67.64,284.61 67.68,282.94 67.72,281.28 67.76,279.61 67.8,277.95 67.84,276.28 67.88,274.62 67.92,272.95 67.96,271.29 68,269.62 68.04,267.96 68.08,266.29 68.12,264.63 68.16,262.96 68.2,261.29 68.24,259.63 68.28,257.96 68.32,256.3 68.36,254.63 68.4,252.97 68.44,251.3 68.48,249.64 68.52,247.97 68.56,246.31 68.6,244.64 68.6,244.64" stroke="none" fill="rgb(248,118,109)" stroke-width="1.07" stroke-dasharray="none" stroke-opacity="0" fill-opacity="1"/>
                </g>
              </g>
              <g id="GRID.text.180.1" class="text grob gDesc">
                <g id="GRID.text.180.1.1" transform="translate(68.89, 220.49)" stroke-width="0.1">
                  <g id="GRID.text.180.1.1.scale" transform="scale(1, -1)">
                    <text x="0" y="0" id="GRID.text.180.1.1.text" text-anchor="middle" stroke="rgb(0,0,0)" font-size="11.04" font-family="Helvetica, Arial, FreeSans, Liberation Sans, Nimbus Sans L, sans-serif" fill="rgb(0,0,0)" stroke-opacity="1" fill-opacity="1" font-weight="normal" font-style="normal">
                      <tspan id="GRID.text.180.1.1.tspan.1" dy="3.95" x="0">261</tspan>
                    </text>
                  </g>
                </g>
                <g id="GRID.text.180.1.2" transform="translate(68.31, 268.79)" stroke-width="0.1">
                  <g id="GRID.text.180.1.2.scale" transform="scale(1, -1)">
                    <text x="0" y="0" id="GRID.text.180.1.2.text" text-anchor="middle" stroke="rgb(0,0,0)" font-size="11.04" font-family="Helvetica, Arial, FreeSans, Liberation Sans, Nimbus Sans L, sans-serif" fill="rgb(0,0,0)" stroke-opacity="1" fill-opacity="1" font-weight="normal" font-style="normal">
                      <tspan id="GRID.text.180.1.2.tspan.1" dy="3.95" x="0">1</tspan>
                    </text>
                  </g>
                </g>
              </g>
              <g id="GRID.gTree.181.1" class="gTree grob gDesc"/>
            </g>
          </g>
          <g id="layout::spacer.8-6-8-6.1" class="viewport"/>
          <g id="layout::spacer.8-4-8-4.1" class="viewport"/>
          <g id="layout::spacer.6-6-6-6.1" class="viewport"/>
          <g id="layout::spacer.6-4-6-4.1" class="viewport"/>
          <g id="layout::axis-t.6-5-6-5.1" class="viewport"/>
          <g id="layout::axis-l.7-4-7-4.1" class="viewport">
            <g id="layout::axis-l.7-4-7-4::GRID.VP.41.1" class="viewport">
              <g id="axis-l.7-4-7-4.1" class="forcedgrob gTableChild absoluteGrob gTree grob gDesc">
                <g id="layout::axis-l.7-4-7-4::GRID.VP.41::axis.1" class="viewport">
                  <g id="axis.1" class="forcedgrob gtable gTree grob gDesc">
                    <g id="layout::axis-l.7-4-7-4::GRID.VP.41::axis::axis.1-1-1-1.1" class="viewport"/>
                    <g id="layout::axis-l.7-4-7-4::GRID.VP.41::axis::axis.1-2-1-2.1" class="viewport"/>
                  </g>
                </g>
              </g>
            </g>
          </g>
          <g id="layout::axis-r.7-6-7-6.1" class="viewport"/>
          <g id="layout::axis-b.8-5-8-5.1" class="viewport">
            <g id="layout::axis-b.8-5-8-5::GRID.VP.40.1" class="viewport">
              <g id="axis-b.8-5-8-5.1" class="forcedgrob gTableChild absoluteGrob gTree grob gDesc">
                <g id="layout::axis-b.8-5-8-5::GRID.VP.40::axis.1" class="viewport">
                  <g id="axis.2" class="forcedgrob gtable gTree grob gDesc">
                    <g id="layout::axis-b.8-5-8-5::GRID.VP.40::axis::axis.1-1-1-1.1" class="viewport"/>
                    <g id="layout::axis-b.8-5-8-5::GRID.VP.40::axis::axis.2-1-2-1.1" class="viewport"/>
                  </g>
                </g>
              </g>
            </g>
          </g>
          <g id="layout::xlab-t.5-5-5-5.1" class="viewport"/>
          <g id="layout::xlab-b.9-5-9-5.1" class="viewport"/>
          <g id="layout::ylab-l.7-3-7-3.1" class="viewport"/>
          <g id="layout::ylab-r.7-7-7-7.1" class="viewport"/>
          <g id="layout::guide-box.7-9-7-9.1" class="viewport">
            <g id="layout::guide-box.7-9-7-9::GRID.VP.49.1" class="viewport">
              <g id="layout::guide-box.7-9-7-9::GRID.VP.49::guide-box.7-9-7-9.1" class="viewport">
                <g id="guide-box.7-9-7-9.1" class="forcedgrob gTableChild gtable gTree grob gDesc">
                  <g id="layout::guide-box.7-9-7-9::GRID.VP.49::guide-box.7-9-7-9::legend.box.background.2-4-4-2.1" class="viewport"/>
                  <g id="layout::guide-box.7-9-7-9::GRID.VP.49::guide-box.7-9-7-9::guides.3-3-3-3.1" class="viewport">
                    <g id="layout::guide-box.7-9-7-9::GRID.VP.49::guide-box.7-9-7-9::guides.3-3-3-3::GRID.VP.48.1" class="viewport">
                      <g id="layout::guide-box.7-9-7-9::GRID.VP.49::guide-box.7-9-7-9::guides.3-3-3-3::GRID.VP.48::guides.3-3-3-3.1" class="viewport">
                        <g id="guides.3-3-3-3.1" class="forcedgrob gTableChild gtable gTree grob gDesc">
                          <g id="layout::guide-box.7-9-7-9::GRID.VP.49::guide-box.7-9-7-9::guides.3-3-3-3::GRID.VP.48::guides.3-3-3-3::background.1-6-6-1.1" class="viewport">
                            <g id="background.1-6-6-1.1" class="forcedgrob gTableChild rect grob gDesc">
                              <rect id="background.1-6-6-1.1.1" x="139.94" y="219.14" width="358.58" height="51" transform="" stroke-width="1.07" stroke="none" fill="rgb(255,255,255)" stroke-dasharray="none" stroke-opacity="0" fill-opacity="1"/>
                            </g>
                          </g>
                          <g id="layout::guide-box.7-9-7-9::GRID.VP.49::guide-box.7-9-7-9::guides.3-3-3-3::GRID.VP.48::guides.3-3-3-3::title.2-5-2-2.1" class="viewport"/>
                          <g id="layout::guide-box.7-9-7-9::GRID.VP.49::guide-box.7-9-7-9::guides.3-3-3-3::GRID.VP.48::guides.3-3-3-3::key-3-1-bg.4-2-4-2.1" class="viewport"/>
                          <g id="layout::guide-box.7-9-7-9::GRID.VP.49::guide-box.7-9-7-9::guides.3-3-3-3::GRID.VP.48::guides.3-3-3-3::key-3-1-1.4-2-4-2.1" class="viewport">
                            <g id="key-3-1-1.4-2-4-2.1" class="forcedgrob gTableChild rect grob gDesc">
                              <rect id="key-3-1-1.4-2-4-2.1.1" x="146.13" y="242.61" width="15.86" height="15.86" transform="" stroke="none" fill="rgb(248,118,109)" stroke-dasharray="none" stroke-width="1.07" stroke-linejoin="miter" stroke-opacity="0" fill-opacity="1"/>
                            </g>
                          </g>
                          <g id="layout::guide-box.7-9-7-9::GRID.VP.49::guide-box.7-9-7-9::guides.3-3-3-3::GRID.VP.48::guides.3-3-3-3::key-4-1-bg.5-2-5-2.1" class="viewport"/>
                          <g id="layout::guide-box.7-9-7-9::GRID.VP.49::guide-box.7-9-7-9::guides.3-3-3-3::GRID.VP.48::guides.3-3-3-3::key-4-1-1.5-2-5-2.1" class="viewport">
                            <g id="key-4-1-1.5-2-5-2.1" class="forcedgrob gTableChild rect grob gDesc">
                              <rect id="key-4-1-1.5-2-5-2.1.1" x="146.13" y="225.33" width="15.86" height="15.86" transform="" stroke="none" fill="rgb(0,191,196)" stroke-dasharray="none" stroke-width="1.07" stroke-linejoin="miter" stroke-opacity="0" fill-opacity="1"/>
                            </g>
                          </g>
                          <g id="layout::guide-box.7-9-7-9::GRID.VP.49::guide-box.7-9-7-9::guides.3-3-3-3::GRID.VP.48::guides.3-3-3-3::label-3-3.4-4-4-4.1" class="viewport">
                            <g id="layout::guide-box.7-9-7-9::GRID.VP.49::guide-box.7-9-7-9::guides.3-3-3-3::GRID.VP.48::guides.3-3-3-3::label-3-3.4-4-4-4::GRID.VP.46.1" class="viewport">
                              <g id="label-3-3.4-4-4-4.1" class="forcedgrob gTableChild gTree grob gDesc">
                                <g id="layout::guide-box.7-9-7-9::GRID.VP.49::guide-box.7-9-7-9::guides.3-3-3-3::GRID.VP.48::guides.3-3-3-3::label-3-3.4-4-4-4::GRID.VP.46::GRID.VP.42.1" font-size="8.8" stroke="rgb(0,0,0)" font-family="Helvetica, Arial, FreeSans, Liberation Sans, Nimbus Sans L, sans-serif" stroke-opacity="1" font-weight="normal" font-style="normal" class="viewport">
                                  <g id="layout::guide-box.7-9-7-9::GRID.VP.49::guide-box.7-9-7-9::guides.3-3-3-3::GRID.VP.48::guides.3-3-3-3::label-3-3.4-4-4-4::GRID.VP.46::GRID.VP.42::GRID.VP.43.1" class="viewport">
                                    <g id="guide.label.titleGrob.204.1" class="titleGrob gTree grob gDesc">
                                      <g id="GRID.text.202.1" class="text grob gDesc">
                                        <g id="GRID.text.202.1.1" transform="translate(168.18, 250.54)" stroke-width="0.1">
                                          <g id="GRID.text.202.1.1.scale" transform="scale(1, -1)">
                                            <text x="0" y="0" id="GRID.text.202.1.1.text" text-anchor="start" font-size="8.8" stroke="rgb(0,0,0)" font-family="Helvetica, Arial, FreeSans, Liberation Sans, Nimbus Sans L, sans-serif" fill="rgb(0,0,0)" stroke-opacity="1" fill-opacity="1" font-weight="normal" font-style="normal">
                                              <tspan id="GRID.text.202.1.1.tspan.1" dy="3.23" x="0">Ma fino a poco tempo fa avevo un doppio sistema operativo: windows 7 e Ubuntu </tspan>
                                            </text>
                                          </g>
                                        </g>
                                      </g>
                                    </g>
                                  </g>
                                </g>
                              </g>
                            </g>
                          </g>
                          <g id="layout::guide-box.7-9-7-9::GRID.VP.49::guide-box.7-9-7-9::guides.3-3-3-3::GRID.VP.48::guides.3-3-3-3::label-4-3.5-4-5-4.1" class="viewport">
                            <g id="layout::guide-box.7-9-7-9::GRID.VP.49::guide-box.7-9-7-9::guides.3-3-3-3::GRID.VP.48::guides.3-3-3-3::label-4-3.5-4-5-4::GRID.VP.47.1" class="viewport">
                              <g id="label-4-3.5-4-5-4.1" class="forcedgrob gTableChild gTree grob gDesc">
                                <g id="layout::guide-box.7-9-7-9::GRID.VP.49::guide-box.7-9-7-9::guides.3-3-3-3::GRID.VP.48::guides.3-3-3-3::label-4-3.5-4-5-4::GRID.VP.47::GRID.VP.44.1" font-size="8.8" stroke="rgb(0,0,0)" font-family="Helvetica, Arial, FreeSans, Liberation Sans, Nimbus Sans L, sans-serif" stroke-opacity="1" font-weight="normal" font-style="normal" class="viewport">
                                  <g id="layout::guide-box.7-9-7-9::GRID.VP.49::guide-box.7-9-7-9::guides.3-3-3-3::GRID.VP.48::guides.3-3-3-3::label-4-3.5-4-5-4::GRID.VP.47::GRID.VP.44::GRID.VP.45.1" class="viewport">
                                    <g id="guide.label.titleGrob.207.1" class="titleGrob gTree grob gDesc">
                                      <g id="GRID.text.205.1" class="text grob gDesc">
                                        <g id="GRID.text.205.1.1" transform="translate(168.18, 233.26)" stroke-width="0.1">
                                          <g id="GRID.text.205.1.1.scale" transform="scale(1, -1)">
                                            <text x="0" y="0" id="GRID.text.205.1.1.text" text-anchor="start" font-size="8.8" stroke="rgb(0,0,0)" font-family="Helvetica, Arial, FreeSans, Liberation Sans, Nimbus Sans L, sans-serif" fill="rgb(0,0,0)" stroke-opacity="1" fill-opacity="1" font-weight="normal" font-style="normal">
                                              <tspan id="GRID.text.205.1.1.tspan.1" dy="3.23" x="0">NA</tspan>
                                            </text>
                                          </g>
                                        </g>
                                      </g>
                                    </g>
                                  </g>
                                </g>
                              </g>
                            </g>
                          </g>
                        </g>
                      </g>
                    </g>
                  </g>
                </g>
              </g>
            </g>
          </g>
          <g id="layout::subtitle.4-5-4-5.1" class="viewport"/>
          <g id="layout::title.3-5-3-5.1" class="viewport">
            <g id="layout::title.3-5-3-5::GRID.VP.50.1" font-size="13.2" stroke="rgb(102,102,102)" font-family="Helvetica, Arial, FreeSans, Liberation Sans, Nimbus Sans L, sans-serif" stroke-opacity="1" font-weight="normal" font-style="normal" class="viewport">
              <g id="layout::title.3-5-3-5::GRID.VP.50::GRID.VP.51.1" class="viewport">
                <g id="title.3-5-3-5.1" class="forcedgrob gTableChild titleGrob gTree grob gDesc">
                  <g id="GRID.text.216.1" class="text grob gDesc">
                    <g id="GRID.text.216.1.1" transform="translate(68.6, 322.48)" stroke-width="0.1">
                      <g id="GRID.text.216.1.1.scale" transform="scale(1, -1)">
                        <text x="0" y="0" id="GRID.text.216.1.1.text" text-anchor="middle" font-size="13.2" stroke="rgb(102,102,102)" font-family="Helvetica, Arial, FreeSans, Liberation Sans, Nimbus Sans L, sans-serif" fill="rgb(102,102,102)" stroke-opacity="1" fill-opacity="1" font-weight="normal" font-style="normal">
                          <tspan id="GRID.text.216.1.1.tspan.1" dy="9.33" x="0">anagrafica totali-altroos</tspan>
                        </text>
                      </g>
                    </g>
                  </g>
                </g>
              </g>
            </g>
          </g>
          <g id="layout::caption.10-5-10-5.1" class="viewport"/>
          <g id="layout::tag.2-2-2-2.1" class="viewport"/>
        </g>
      </g>
    </g>
  </g>
</svg>