<?xml version="1.0" encoding="UTF-8"?>
<svg xmlns="http://www.w3.org/2000/svg" xmlns:xlink="http://www.w3.org/1999/xlink" width="504px" height="504px" viewBox="0 0 504 504" version="1.1">
  <metadata xmlns:gridsvg="http://www.stat.auckland.ac.nz/~paul/R/gridSVG/">
    <gridsvg:generator name="gridSVG" version="1.6-0" time="2019-01-18 23:13:34"/>
    <gridsvg:argument name="name" value="./latest_informaggio_csv/risultati/svg/anagrafica-interesse.svg"/>
    <gridsvg:argument name="exportCoords" value="none"/>
    <gridsvg:argument name="exportMappings" value="none"/>
    <gridsvg:argument name="exportJS" value="none"/>
    <gridsvg:argument name="res" value="72"/>
    <gridsvg:argument name="prefix" value=""/>
    <gridsvg:argument name="addClasses" value="TRUE"/>
    <gridsvg:argument name="indent" value="TRUE"/>
    <gridsvg:argument name="htmlWrapper" value="FALSE"/>
    <gridsvg:argument name="usePaths" value="vpPaths"/>
    <gridsvg:argument name="uniqueNames" value="TRUE"/>
    <gridsvg:separator name="id.sep" value="."/>
    <gridsvg:separator name="gPath.sep" value="::"/>
    <gridsvg:separator name="vpPath.sep" value="::"/>
  </metadata>
  <g transform="translate(0, 504) scale(1, -1)">
    <g id="gridSVG" fill="none" stroke="rgb(0,0,0)" stroke-dasharray="none" stroke-width="0.75" font-size="12" font-family="Helvetica, Arial, FreeSans, Liberation Sans, Nimbus Sans L, sans-serif" opacity="1" stroke-linecap="round" stroke-linejoin="round" stroke-miterlimit="10" stroke-opacity="1" fill-opacity="0" font-weight="normal" font-style="normal">
      <g id="layout.1" class="viewport">
        <g id="layout.2" class="forcedgrob gtable gTree grob gDesc">
          <defs>
            <clipPath id="layout::background.1-11-12-1.1.clipPath">
              <rect x="0" y="28.61" width="504" height="446.77" fill="none" stroke="none"/>
            </clipPath>
          </defs>
          <g id="layout::background.1-11-12-1.1" clip-path="url(#layout::background.1-11-12-1.1.clipPath)" class="viewport">
            <g id="background.1-11-12-1.1" class="forcedgrob gTableChild rect grob gDesc">
              <rect id="background.1-11-12-1.1.1" x="0" y="28.61" width="504" height="446.77" transform="" stroke-width="1.07" stroke="rgb(255,255,255)" fill="rgb(255,255,255)" stroke-dasharray="none" stroke-opacity="1" fill-opacity="1"/>
            </g>
          </g>
          <defs>
            <clipPath id="layout::panel.7-5-7-5.1.clipPath">
              <rect x="8.22" y="36.83" width="415.62" height="415.62" fill="none" stroke="none"/>
            </clipPath>
          </defs>
          <g id="layout::panel.7-5-7-5.1" clip-path="url(#layout::panel.7-5-7-5.1.clipPath)" class="viewport">
            <g id="panel.7-5-7-5.1" class="forcedgrob gTableChild gTree grob gDesc">
              <g id="grill.gTree.2268.1" class="gTree grob gDesc">
                <g id="panel.background..rect.2264.1" class="rect grob gDesc">
                  <rect id="panel.background..rect.2264.1.1" x="8.22" y="36.83" width="415.62" height="415.62" transform="" stroke-width="1.07" stroke="none" fill="rgb(255,255,255)" stroke-dasharray="none" stroke-opacity="0" fill-opacity="1"/>
                </g>
              </g>
              <g id="bar.gTree.2257.1" class="gTree grob gDesc">
                <g id="geom_polygon.polygon.2253.1" class="polygon grob gDesc">
                  <polygon id="geom_polygon.polygon.2253.1.1" points="216.03,244.64 211.51,241.11 206.99,237.58 202.48,234.05 197.96,230.53 193.44,227 188.92,223.47 184.41,219.94 179.89,216.41 175.37,212.88 170.85,209.35 166.34,205.82 161.82,202.29 157.3,198.76 152.78,195.23 148.27,191.7 143.75,188.17 139.23,184.64 134.72,181.11 130.2,177.58 125.68,174.06 121.16,170.53 116.65,167 112.13,163.47 107.61,159.94 103.09,156.41 98.58,152.88 94.06,149.35 89.54,145.82 85.02,142.29 88.58,137.89 92.29,133.62 96.14,129.47 100.12,125.46 104.24,121.59 108.5,117.86 112.87,114.27 117.37,110.84 121.98,107.56 126.69,104.44 131.51,101.48 136.43,98.69 141.45,96.06 146.54,93.61 151.72,91.34 156.97,89.24 162.3,87.32 167.68,85.58 173.12,84.03 178.61,82.66 184.14,81.48 189.71,80.49 195.31,79.69 200.93,79.08 206.57,78.67 212.22,78.44 217.88,78.41 223.54,78.57 229.18,78.92 234.81,79.46 240.42,80.2 246,81.12 251.55,82.23 257.05,83.54 262.51,85.03 267.91,86.7 273.25,88.56 278.53,90.59 283.74,92.81 288.86,95.2 293.9,97.76 298.86,100.5 303.71,103.4 308.47,106.46 313.11,109.69 317.65,113.07 322.07,116.6 326.36,120.28 330.53,124.11 334.56,128.08 338.46,132.18 342.21,136.41 345.82,140.76 349.28,145.24 352.59,149.83 355.73,154.53 358.72,159.33 361.54,164.24 364.19,169.23 366.67,174.32 368.97,179.48 371.1,184.72 373.05,190.03 374.82,195.41 376.4,200.84 377.8,206.32 379.01,211.85 380.03,217.41 380.86,223 381.5,228.62 381.95,234.26 382.21,239.91 382.27,245.57 382.15,251.22 381.83,256.87 381.31,262.51 380.61,268.12 379.72,273.7 378.63,279.26 377.36,284.77 375.9,290.23 374.26,295.65 372.43,301 370.42,306.29 368.24,311.5 365.88,316.64 363.34,321.7 360.63,326.67 357.76,331.54 354.72,336.31 351.52,340.97 348.17,345.53 344.66,349.97 341,354.28 337.2,358.47 333.25,362.52 329.18,366.44 324.97,370.22 320.63,373.86 316.18,377.34 311.6,380.67 306.92,383.84 302.13,386.86 297.24,389.7 292.26,392.38 287.19,394.89 282.04,397.22 276.81,399.38 271.51,401.36 266.15,403.16 260.73,404.77 255.25,406.2 249.73,407.44 244.18,408.49 238.59,409.35 232.97,410.02 227.33,410.51 221.68,410.79 216.03,410.89 216.03,405.16 216.03,399.43 216.03,393.69 216.03,387.96 216.03,382.23 216.03,376.49 216.03,370.76 216.03,365.03 216.03,359.3 216.03,353.56 216.03,347.83 216.03,342.1 216.03,336.37 216.03,330.63 216.03,324.9 216.03,319.17 216.03,313.44 216.03,307.7 216.03,301.97 216.03,296.24 216.03,290.5 216.03,284.77 216.03,279.04 216.03,273.31 216.03,267.57 216.03,261.84 216.03,256.11 216.03,250.38 216.03,244.64 216.03,244.64" stroke="none" fill="rgb(0,191,196)" stroke-width="1.07" stroke-dasharray="none" stroke-opacity="0" fill-opacity="1"/>
                </g>
                <g id="geom_polygon.polygon.2255.1" class="polygon grob gDesc">
                  <polygon id="geom_polygon.polygon.2255.1.1" points="216.03,244.64 216.03,250.38 216.03,256.11 216.03,261.84 216.03,267.57 216.03,273.31 216.03,279.04 216.03,284.77 216.03,290.5 216.03,296.24 216.03,301.97 216.03,307.7 216.03,313.44 216.03,319.17 216.03,324.9 216.03,330.63 216.03,336.37 216.03,342.1 216.03,347.83 216.03,353.56 216.03,359.3 216.03,365.03 216.03,370.76 216.03,376.49 216.03,382.23 216.03,387.96 216.03,393.69 216.03,399.43 216.03,405.16 216.03,410.89 210.4,410.8 204.78,410.51 199.18,410.03 193.59,409.37 188.03,408.52 182.5,407.47 177,406.25 171.56,404.83 166.16,403.24 160.82,401.46 155.55,399.5 150.34,397.36 145.21,395.05 140.16,392.57 135.2,389.92 130.33,387.1 125.56,384.12 120.89,380.98 116.33,377.68 111.88,374.23 107.56,370.63 103.36,366.89 99.28,363 95.35,358.98 91.55,354.83 87.89,350.56 84.38,346.16 81.02,341.65 77.81,337.02 74.76,332.29 71.88,327.46 69.16,322.54 66.61,317.52 64.23,312.42 62.02,307.25 59.99,302 58.14,296.68 56.47,291.31 54.98,285.88 53.67,280.41 52.56,274.9 51.63,269.35 50.88,263.77 50.33,258.17 49.97,252.55 49.8,246.93 49.81,241.3 50.02,235.68 50.42,230.07 51.01,224.47 51.79,218.9 52.75,213.35 53.9,207.85 55.24,202.38 56.77,196.96 58.47,191.6 60.36,186.3 62.42,181.06 64.66,175.9 67.07,170.82 69.66,165.82 72.41,160.91 75.32,156.1 78.4,151.39 81.63,146.78 85.02,142.29 89.54,145.82 94.06,149.35 98.58,152.88 103.09,156.41 107.61,159.94 112.13,163.47 116.65,167 121.16,170.53 125.68,174.06 130.2,177.58 134.72,181.11 139.23,184.64 143.75,188.17 148.27,191.7 152.78,195.23 157.3,198.76 161.82,202.29 166.34,205.82 170.85,209.35 175.37,212.88 179.89,216.41 184.41,219.94 188.92,223.47 193.44,227 197.96,230.53 202.48,234.05 206.99,237.58 211.51,241.11 216.03,244.64 216.03,244.64" stroke="none" fill="rgb(248,118,109)" stroke-width="1.07" stroke-dasharray="none" stroke-opacity="0" fill-opacity="1"/>
                </g>
              </g>
              <g id="GRID.text.2258.1" class="text grob gDesc">
                <g id="GRID.text.2258.1.1" transform="translate(290.74, 208.2)" stroke-width="0.1">
                  <g id="GRID.text.2258.1.1.scale" transform="scale(1, -1)">
                    <text x="0" y="0" id="GRID.text.2258.1.1.text" text-anchor="middle" stroke="rgb(0,0,0)" font-size="11.04" font-family="Helvetica, Arial, FreeSans, Liberation Sans, Nimbus Sans L, sans-serif" fill="rgb(0,0,0)" stroke-opacity="1" fill-opacity="1" font-weight="normal" font-style="normal">
                      <tspan id="GRID.text.2258.1.1.tspan.1" dy="3.95" x="0">174</tspan>
                    </text>
                  </g>
                </g>
                <g id="GRID.text.2258.1.2" transform="translate(141.32, 281.08)" stroke-width="0.1">
                  <g id="GRID.text.2258.1.2.scale" transform="scale(1, -1)">
                    <text x="0" y="0" id="GRID.text.2258.1.2.text" text-anchor="middle" stroke="rgb(0,0,0)" font-size="11.04" font-family="Helvetica, Arial, FreeSans, Liberation Sans, Nimbus Sans L, sans-serif" fill="rgb(0,0,0)" stroke-opacity="1" fill-opacity="1" font-weight="normal" font-style="normal">
                      <tspan id="GRID.text.2258.1.2.tspan.1" dy="3.95" x="0">96</tspan>
                    </text>
                  </g>
                </g>
              </g>
              <g id="GRID.gTree.2259.1" class="gTree grob gDesc"/>
            </g>
          </g>
          <g id="layout::spacer.8-6-8-6.1" class="viewport"/>
          <g id="layout::spacer.8-4-8-4.1" class="viewport"/>
          <g id="layout::spacer.6-6-6-6.1" class="viewport"/>
          <g id="layout::spacer.6-4-6-4.1" class="viewport"/>
          <g id="layout::axis-t.6-5-6-5.1" class="viewport"/>
          <g id="layout::axis-l.7-4-7-4.1" class="viewport">
            <g id="layout::axis-l.7-4-7-4::GRID.VP.530.1" class="viewport">
              <g id="axis-l.7-4-7-4.1" class="forcedgrob gTableChild absoluteGrob gTree grob gDesc">
                <g id="layout::axis-l.7-4-7-4::GRID.VP.530::axis.1" class="viewport">
                  <g id="axis.1" class="forcedgrob gtable gTree grob gDesc">
                    <g id="layout::axis-l.7-4-7-4::GRID.VP.530::axis::axis.1-1-1-1.1" class="viewport"/>
                    <g id="layout::axis-l.7-4-7-4::GRID.VP.530::axis::axis.1-2-1-2.1" class="viewport"/>
                  </g>
                </g>
              </g>
            </g>
          </g>
          <g id="layout::axis-r.7-6-7-6.1" class="viewport"/>
          <g id="layout::axis-b.8-5-8-5.1" class="viewport">
            <g id="layout::axis-b.8-5-8-5::GRID.VP.529.1" class="viewport">
              <g id="axis-b.8-5-8-5.1" class="forcedgrob gTableChild absoluteGrob gTree grob gDesc">
                <g id="layout::axis-b.8-5-8-5::GRID.VP.529::axis.1" class="viewport">
                  <g id="axis.2" class="forcedgrob gtable gTree grob gDesc">
                    <g id="layout::axis-b.8-5-8-5::GRID.VP.529::axis::axis.1-1-1-1.1" class="viewport"/>
                    <g id="layout::axis-b.8-5-8-5::GRID.VP.529::axis::axis.2-1-2-1.1" class="viewport"/>
                  </g>
                </g>
              </g>
            </g>
          </g>
          <g id="layout::xlab-t.5-5-5-5.1" class="viewport"/>
          <g id="layout::xlab-b.9-5-9-5.1" class="viewport"/>
          <g id="layout::ylab-l.7-3-7-3.1" class="viewport"/>
          <g id="layout::ylab-r.7-7-7-7.1" class="viewport"/>
          <g id="layout::guide-box.7-9-7-9.1" class="viewport">
            <g id="layout::guide-box.7-9-7-9::GRID.VP.538.1" class="viewport">
              <g id="layout::guide-box.7-9-7-9::GRID.VP.538::guide-box.7-9-7-9.1" class="viewport">
                <g id="guide-box.7-9-7-9.1" class="forcedgrob gTableChild gtable gTree grob gDesc">
                  <g id="layout::guide-box.7-9-7-9::GRID.VP.538::guide-box.7-9-7-9::legend.box.background.2-4-4-2.1" class="viewport"/>
                  <g id="layout::guide-box.7-9-7-9::GRID.VP.538::guide-box.7-9-7-9::guides.3-3-3-3.1" class="viewport">
                    <g id="layout::guide-box.7-9-7-9::GRID.VP.538::guide-box.7-9-7-9::guides.3-3-3-3::GRID.VP.537.1" class="viewport">
                      <g id="layout::guide-box.7-9-7-9::GRID.VP.538::guide-box.7-9-7-9::guides.3-3-3-3::GRID.VP.537::guides.3-3-3-3.1" class="viewport">
                        <g id="guides.3-3-3-3.1" class="forcedgrob gTableChild gtable gTree grob gDesc">
                          <g id="layout::guide-box.7-9-7-9::GRID.VP.538::guide-box.7-9-7-9::guides.3-3-3-3::GRID.VP.537::guides.3-3-3-3::background.1-6-6-1.1" class="viewport">
                            <g id="background.1-6-6-1.1" class="forcedgrob gTableChild rect grob gDesc">
                              <rect id="background.1-6-6-1.1.1" x="434.8" y="219.14" width="63.72" height="51" transform="" stroke-width="1.07" stroke="none" fill="rgb(255,255,255)" stroke-dasharray="none" stroke-opacity="0" fill-opacity="1"/>
                            </g>
                          </g>
                          <g id="layout::guide-box.7-9-7-9::GRID.VP.538::guide-box.7-9-7-9::guides.3-3-3-3::GRID.VP.537::guides.3-3-3-3::title.2-5-2-2.1" class="viewport"/>
                          <g id="layout::guide-box.7-9-7-9::GRID.VP.538::guide-box.7-9-7-9::guides.3-3-3-3::GRID.VP.537::guides.3-3-3-3::key-3-1-bg.4-2-4-2.1" class="viewport"/>
                          <g id="layout::guide-box.7-9-7-9::GRID.VP.538::guide-box.7-9-7-9::guides.3-3-3-3::GRID.VP.537::guides.3-3-3-3::key-3-1-1.4-2-4-2.1" class="viewport">
                            <g id="key-3-1-1.4-2-4-2.1" class="forcedgrob gTableChild rect grob gDesc">
                              <rect id="key-3-1-1.4-2-4-2.1.1" x="440.98" y="242.61" width="15.86" height="15.86" transform="" stroke="none" fill="rgb(248,118,109)" stroke-dasharray="none" stroke-width="1.07" stroke-linejoin="miter" stroke-opacity="0" fill-opacity="1"/>
                            </g>
                          </g>
                          <g id="layout::guide-box.7-9-7-9::GRID.VP.538::guide-box.7-9-7-9::guides.3-3-3-3::GRID.VP.537::guides.3-3-3-3::key-4-1-bg.5-2-5-2.1" class="viewport"/>
                          <g id="layout::guide-box.7-9-7-9::GRID.VP.538::guide-box.7-9-7-9::guides.3-3-3-3::GRID.VP.537::guides.3-3-3-3::key-4-1-1.5-2-5-2.1" class="viewport">
                            <g id="key-4-1-1.5-2-5-2.1" class="forcedgrob gTableChild rect grob gDesc">
                              <rect id="key-4-1-1.5-2-5-2.1.1" x="440.98" y="225.33" width="15.86" height="15.86" transform="" stroke="none" fill="rgb(0,191,196)" stroke-dasharray="none" stroke-width="1.07" stroke-linejoin="miter" stroke-opacity="0" fill-opacity="1"/>
                            </g>
                          </g>
                          <g id="layout::guide-box.7-9-7-9::GRID.VP.538::guide-box.7-9-7-9::guides.3-3-3-3::GRID.VP.537::guides.3-3-3-3::label-3-3.4-4-4-4.1" class="viewport">
                            <g id="layout::guide-box.7-9-7-9::GRID.VP.538::guide-box.7-9-7-9::guides.3-3-3-3::GRID.VP.537::guides.3-3-3-3::label-3-3.4-4-4-4::GRID.VP.535.1" class="viewport">
                              <g id="label-3-3.4-4-4-4.1" class="forcedgrob gTableChild gTree grob gDesc">
                                <g id="layout::guide-box.7-9-7-9::GRID.VP.538::guide-box.7-9-7-9::guides.3-3-3-3::GRID.VP.537::guides.3-3-3-3::label-3-3.4-4-4-4::GRID.VP.535::GRID.VP.531.1" font-size="8.8" stroke="rgb(0,0,0)" font-family="Helvetica, Arial, FreeSans, Liberation Sans, Nimbus Sans L, sans-serif" stroke-opacity="1" font-weight="normal" font-style="normal" class="viewport">
                                  <g id="layout::guide-box.7-9-7-9::GRID.VP.538::guide-box.7-9-7-9::guides.3-3-3-3::GRID.VP.537::guides.3-3-3-3::label-3-3.4-4-4-4::GRID.VP.535::GRID.VP.531::GRID.VP.532.1" class="viewport">
                                    <g id="guide.label.titleGrob.2282.1" class="titleGrob gTree grob gDesc">
                                      <g id="GRID.text.2280.1" class="text grob gDesc">
                                        <g id="GRID.text.2280.1.1" transform="translate(463.04, 250.54)" stroke-width="0.1">
                                          <g id="GRID.text.2280.1.1.scale" transform="scale(1, -1)">
                                            <text x="0" y="0" id="GRID.text.2280.1.1.text" text-anchor="start" font-size="8.8" stroke="rgb(0,0,0)" font-family="Helvetica, Arial, FreeSans, Liberation Sans, Nimbus Sans L, sans-serif" fill="rgb(0,0,0)" stroke-opacity="1" fill-opacity="1" font-weight="normal" font-style="normal">
                                              <tspan id="GRID.text.2280.1.1.tspan.1" dy="3.23" x="0">S (96)</tspan>
                                            </text>
                                          </g>
                                        </g>
                                      </g>
                                    </g>
                                  </g>
                                </g>
                              </g>
                            </g>
                          </g>
                          <g id="layout::guide-box.7-9-7-9::GRID.VP.538::guide-box.7-9-7-9::guides.3-3-3-3::GRID.VP.537::guides.3-3-3-3::label-4-3.5-4-5-4.1" class="viewport">
                            <g id="layout::guide-box.7-9-7-9::GRID.VP.538::guide-box.7-9-7-9::guides.3-3-3-3::GRID.VP.537::guides.3-3-3-3::label-4-3.5-4-5-4::GRID.VP.536.1" class="viewport">
                              <g id="label-4-3.5-4-5-4.1" class="forcedgrob gTableChild gTree grob gDesc">
                                <g id="layout::guide-box.7-9-7-9::GRID.VP.538::guide-box.7-9-7-9::guides.3-3-3-3::GRID.VP.537::guides.3-3-3-3::label-4-3.5-4-5-4::GRID.VP.536::GRID.VP.533.1" font-size="8.8" stroke="rgb(0,0,0)" font-family="Helvetica, Arial, FreeSans, Liberation Sans, Nimbus Sans L, sans-serif" stroke-opacity="1" font-weight="normal" font-style="normal" class="viewport">
                                  <g id="layout::guide-box.7-9-7-9::GRID.VP.538::guide-box.7-9-7-9::guides.3-3-3-3::GRID.VP.537::guides.3-3-3-3::label-4-3.5-4-5-4::GRID.VP.536::GRID.VP.533::GRID.VP.534.1" class="viewport">
                                    <g id="guide.label.titleGrob.2285.1" class="titleGrob gTree grob gDesc">
                                      <g id="GRID.text.2283.1" class="text grob gDesc">
                                        <g id="GRID.text.2283.1.1" transform="translate(463.04, 233.26)" stroke-width="0.1">
                                          <g id="GRID.text.2283.1.1.scale" transform="scale(1, -1)">
                                            <text x="0" y="0" id="GRID.text.2283.1.1.text" text-anchor="start" font-size="8.8" stroke="rgb(0,0,0)" font-family="Helvetica, Arial, FreeSans, Liberation Sans, Nimbus Sans L, sans-serif" fill="rgb(0,0,0)" stroke-opacity="1" fill-opacity="1" font-weight="normal" font-style="normal">
                                              <tspan id="GRID.text.2283.1.1.tspan.1" dy="3.23" x="0">N (174)</tspan>
                                            </text>
                                          </g>
                                        </g>
                                      </g>
                                    </g>
                                  </g>
                                </g>
                              </g>
                            </g>
                          </g>
                        </g>
                      </g>
                    </g>
                  </g>
                </g>
              </g>
            </g>
          </g>
          <g id="layout::subtitle.4-5-4-5.1" class="viewport"/>
          <g id="layout::title.3-5-3-5.1" class="viewport">
            <g id="layout::title.3-5-3-5::GRID.VP.539.1" font-size="13.2" stroke="rgb(102,102,102)" font-family="Helvetica, Arial, FreeSans, Liberation Sans, Nimbus Sans L, sans-serif" stroke-opacity="1" font-weight="normal" font-style="normal" class="viewport">
              <g id="layout::title.3-5-3-5::GRID.VP.539::GRID.VP.540.1" class="viewport">
                <g id="title.3-5-3-5.1" class="forcedgrob gTableChild titleGrob gTree grob gDesc">
                  <g id="GRID.text.2294.1" class="text grob gDesc">
                    <g id="GRID.text.2294.1.1" transform="translate(216.03, 469.91)" stroke-width="0.1">
                      <g id="GRID.text.2294.1.1.scale" transform="scale(1, -1)">
                        <text x="0" y="0" id="GRID.text.2294.1.1.text" text-anchor="middle" font-size="13.2" stroke="rgb(102,102,102)" font-family="Helvetica, Arial, FreeSans, Liberation Sans, Nimbus Sans L, sans-serif" fill="rgb(102,102,102)" stroke-opacity="1" fill-opacity="1" font-weight="normal" font-style="normal">
                          <tspan id="GRID.text.2294.1.1.tspan.1" dy="9.33" x="0">anagrafica interesse</tspan>
                        </text>
                      </g>
                    </g>
                  </g>
                </g>
              </g>
            </g>
          </g>
          <g id="layout::caption.10-5-10-5.1" class="viewport"/>
          <g id="layout::tag.2-2-2-2.1" class="viewport"/>
        </g>
      </g>
    </g>
  </g>
</svg>