<?xml version="1.0" encoding="UTF-8"?>
<svg xmlns="http://www.w3.org/2000/svg" xmlns:xlink="http://www.w3.org/1999/xlink" width="504px" height="504px" viewBox="0 0 504 504" version="1.1">
  <metadata xmlns:gridsvg="http://www.stat.auckland.ac.nz/~paul/R/gridSVG/">
    <gridsvg:generator name="gridSVG" version="1.6-0" time="2019-01-07 19:38:46"/>
    <gridsvg:argument name="name" value="./latest_informaggio_csv/risultati/svg/anagrafica-totali-attivita.svg"/>
    <gridsvg:argument name="exportCoords" value="none"/>
    <gridsvg:argument name="exportMappings" value="none"/>
    <gridsvg:argument name="exportJS" value="none"/>
    <gridsvg:argument name="res" value="72"/>
    <gridsvg:argument name="prefix" value=""/>
    <gridsvg:argument name="addClasses" value="TRUE"/>
    <gridsvg:argument name="indent" value="TRUE"/>
    <gridsvg:argument name="htmlWrapper" value="FALSE"/>
    <gridsvg:argument name="usePaths" value="vpPaths"/>
    <gridsvg:argument name="uniqueNames" value="TRUE"/>
    <gridsvg:separator name="id.sep" value="."/>
    <gridsvg:separator name="gPath.sep" value="::"/>
    <gridsvg:separator name="vpPath.sep" value="::"/>
  </metadata>
  <g transform="translate(0, 504) scale(1, -1)">
    <g id="gridSVG" fill="none" stroke="rgb(0,0,0)" stroke-dasharray="none" stroke-width="0.75" font-size="12" font-family="Helvetica, Arial, FreeSans, Liberation Sans, Nimbus Sans L, sans-serif" opacity="1" stroke-linecap="round" stroke-linejoin="round" stroke-miterlimit="10" stroke-opacity="1" fill-opacity="0" font-weight="normal" font-style="normal">
      <g id="layout.1" class="viewport">
        <g id="layout.2" class="forcedgrob gtable gTree grob gDesc">
          <defs>
            <clipPath id="layout::background.1-11-12-1.1.clipPath">
              <rect x="0" y="44.58" width="504" height="414.85" fill="none" stroke="none"/>
            </clipPath>
          </defs>
          <g id="layout::background.1-11-12-1.1" clip-path="url(#layout::background.1-11-12-1.1.clipPath)" class="viewport">
            <g id="background.1-11-12-1.1" class="forcedgrob gTableChild rect grob gDesc">
              <rect id="background.1-11-12-1.1.1" x="0" y="44.58" width="504" height="414.85" transform="" stroke-width="1.07" stroke="rgb(255,255,255)" fill="rgb(255,255,255)" stroke-dasharray="none" stroke-opacity="1" fill-opacity="1"/>
            </g>
          </g>
          <defs>
            <clipPath id="layout::panel.7-5-7-5.1.clipPath">
              <rect x="8.22" y="52.8" width="383.7" height="383.7" fill="none" stroke="none"/>
            </clipPath>
          </defs>
          <g id="layout::panel.7-5-7-5.1" clip-path="url(#layout::panel.7-5-7-5.1.clipPath)" class="viewport">
            <g id="panel.7-5-7-5.1" class="forcedgrob gTableChild gTree grob gDesc">
              <g id="grill.gTree.1252.1" class="gTree grob gDesc">
                <g id="panel.background..rect.1248.1" class="rect grob gDesc">
                  <rect id="panel.background..rect.1248.1.1" x="8.22" y="52.8" width="383.7" height="383.7" transform="" stroke-width="1.07" stroke="none" fill="rgb(255,255,255)" stroke-dasharray="none" stroke-opacity="0" fill-opacity="1"/>
                </g>
              </g>
              <g id="bar.gTree.1241.1" class="gTree grob gDesc">
                <g id="geom_polygon.polygon.1233.1" class="polygon grob gDesc">
                  <polygon id="geom_polygon.polygon.1233.1.1" points="200.07,244.64 198.81,249.78 197.55,254.92 196.3,260.07 195.04,265.21 193.78,270.35 192.52,275.49 191.27,280.63 190.01,285.77 188.75,290.91 187.5,296.05 186.24,301.19 184.98,306.33 183.72,311.47 182.47,316.62 181.21,321.76 179.95,326.9 178.7,332.04 177.44,337.18 176.18,342.32 174.93,347.46 173.67,352.6 172.41,357.74 171.15,362.88 169.9,368.02 168.64,373.17 167.38,378.31 166.13,383.45 164.87,388.59 163.61,393.73 158.57,392.41 153.58,390.91 148.64,389.25 143.76,387.42 138.95,385.43 134.21,383.27 129.54,380.96 124.95,378.48 120.45,375.86 116.04,373.08 111.73,370.15 107.52,367.08 103.42,363.87 99.43,360.52 95.55,357.04 91.8,353.42 88.17,349.69 84.67,345.83 81.3,341.85 78.07,337.76 74.98,333.57 72.03,329.27 69.23,324.88 66.58,320.39 64.09,315.81 61.75,311.16 59.57,306.42 57.56,301.62 55.7,296.75 54.02,291.82 52.5,286.83 51.15,281.8 49.98,276.72 48.98,271.61 48.15,266.47 47.49,261.3 47.02,256.11 46.72,250.91 46.59,245.7 46.64,240.49 46.87,235.28 47.28,230.09 47.86,224.91 48.62,219.75 49.55,214.63 50.66,209.54 51.94,204.48 53.38,199.48 55,194.53 56.79,189.63 58.74,184.8 60.85,180.04 63.12,175.35 65.55,170.74 68.14,166.22 70.88,161.78 73.77,157.44 76.8,153.21 79.97,149.08 83.29,145.05 86.73,141.15 90.31,137.36 94.02,133.7 97.85,130.16 101.79,126.76 105.85,123.49 110.02,120.36 114.29,117.38 118.66,114.54 123.12,111.85 127.67,109.31 132.31,106.93 137.02,104.71 141.81,102.65 146.66,100.76 151.57,99.03 156.55,97.46 161.57,96.07 166.63,94.85 171.74,93.8 176.87,92.93 182.04,92.23 187.22,91.7 192.42,91.36 197.63,91.18 202.84,91.19 208.04,91.37 213.24,91.73 218.43,92.27 223.59,92.98 228.72,93.86 233.82,94.92 238.89,96.16 243.9,97.56 248.87,99.13 253.78,100.87 258.63,102.78 263.41,104.85 268.12,107.08 272.75,109.47 277.3,112.01 281.76,114.71 286.12,117.56 290.39,120.55 294.55,123.69 298.6,126.97 302.53,130.38 306.35,133.93 310.05,137.6 313.62,141.39 317.06,145.31 320.37,149.34 323.53,153.47 326.56,157.72 329.43,162.06 332.16,166.5 334.74,171.03 337.16,175.64 339.42,180.34 341.53,185.1 343.46,189.94 345.24,194.84 346.85,199.8 348.28,204.8 349.55,209.86 350.65,214.95 351.57,220.08 352.31,225.24 352.88,230.42 353.28,235.61 353.5,240.82 353.54,246.03 353.4,251.24 353.09,256.44 352.6,261.63 351.94,266.79 351.1,271.94 350.08,277.05 348.9,282.12 347.54,287.15 346.01,292.13 344.32,297.06 342.45,301.93 340.43,306.73 338.24,311.46 335.89,316.11 333.39,320.68 330.73,325.16 327.92,329.55 324.97,333.84 321.87,338.03 318.63,342.11 315.25,346.08 311.74,349.93 308.1,353.66 304.34,357.26 300.46,360.74 296.46,364.08 292.35,367.28 288.13,370.34 283.81,373.26 279.4,376.03 274.89,378.64 270.3,381.11 265.63,383.41 260.88,385.56 256.06,387.54 251.18,389.36 246.24,391.01 241.24,392.49 236.2,393.81 231.12,394.95 226,395.92 220.85,396.71 215.67,397.33 210.48,397.77 205.28,398.03 200.07,398.12 200.07,392.83 200.07,387.54 200.07,382.24 200.07,376.95 200.07,371.66 200.07,366.37 200.07,361.07 200.07,355.78 200.07,350.49 200.07,345.2 200.07,339.91 200.07,334.61 200.07,329.32 200.07,324.03 200.07,318.74 200.07,313.44 200.07,308.15 200.07,302.86 200.07,297.57 200.07,292.27 200.07,286.98 200.07,281.69 200.07,276.4 200.07,271.1 200.07,265.81 200.07,260.52 200.07,255.23 200.07,249.94 200.07,244.64 200.07,244.64" stroke="none" fill="rgb(199,124,255)" stroke-width="1.07" stroke-dasharray="none" stroke-opacity="0" fill-opacity="1"/>
                </g>
                <g id="geom_polygon.polygon.1235.1" class="polygon grob gDesc">
                  <polygon id="geom_polygon.polygon.1235.1.1" points="200.07,244.64 199.69,249.92 199.31,255.2 198.93,260.48 198.55,265.76 198.16,271.04 197.78,276.32 197.4,281.59 197.02,286.87 196.64,292.15 196.26,297.43 195.88,302.71 195.5,307.99 195.12,313.27 194.74,318.54 194.36,323.82 193.98,329.1 193.6,334.38 193.22,339.66 192.84,344.94 192.46,350.22 192.08,355.49 191.7,360.77 191.32,366.05 190.94,371.33 190.56,376.61 190.18,381.89 189.8,387.17 189.41,392.45 189.03,397.72 182.62,397.13 176.24,396.26 169.9,395.13 163.61,393.73 164.87,388.59 166.13,383.45 167.38,378.31 168.64,373.17 169.9,368.02 171.15,362.88 172.41,357.74 173.67,352.6 174.93,347.46 176.18,342.32 177.44,337.18 178.7,332.04 179.95,326.9 181.21,321.76 182.47,316.62 183.72,311.47 184.98,306.33 186.24,301.19 187.5,296.05 188.75,290.91 190.01,285.77 191.27,280.63 192.52,275.49 193.78,270.35 195.04,265.21 196.3,260.07 197.55,254.92 198.81,249.78 200.07,244.64 200.07,244.64" stroke="none" fill="rgb(0,191,196)" stroke-width="1.07" stroke-dasharray="none" stroke-opacity="0" fill-opacity="1"/>
                </g>
                <g id="geom_polygon.polygon.1237.1" class="polygon grob gDesc">
                  <polygon id="geom_polygon.polygon.1237.1.1" points="200.07,244.64 199.94,249.93 199.81,255.22 199.69,260.52 199.56,265.81 199.43,271.1 199.31,276.39 199.18,281.68 199.05,286.97 198.92,292.26 198.8,297.55 198.67,302.84 198.54,308.13 198.42,313.42 198.29,318.71 198.16,324.01 198.04,329.3 197.91,334.59 197.78,339.88 197.66,345.17 197.53,350.46 197.4,355.75 197.27,361.04 197.15,366.33 197.02,371.62 196.89,376.91 196.77,382.2 196.64,387.5 196.51,392.79 196.39,398.08 189.03,397.72 189.41,392.45 189.8,387.17 190.18,381.89 190.56,376.61 190.94,371.33 191.32,366.05 191.7,360.77 192.08,355.49 192.46,350.22 192.84,344.94 193.22,339.66 193.6,334.38 193.98,329.1 194.36,323.82 194.74,318.54 195.12,313.27 195.5,307.99 195.88,302.71 196.26,297.43 196.64,292.15 197.02,286.87 197.4,281.59 197.78,276.32 198.16,271.04 198.55,265.76 198.93,260.48 199.31,255.2 199.69,249.92 200.07,244.64 200.07,244.64" stroke="none" fill="rgb(124,174,0)" stroke-width="1.07" stroke-dasharray="none" stroke-opacity="0" fill-opacity="1"/>
                </g>
                <g id="geom_polygon.polygon.1239.1" class="polygon grob gDesc">
                  <polygon id="geom_polygon.polygon.1239.1.1" points="200.07,244.64 200.07,249.94 200.07,255.23 200.07,260.52 200.07,265.81 200.07,271.1 200.07,276.4 200.07,281.69 200.07,286.98 200.07,292.27 200.07,297.57 200.07,302.86 200.07,308.15 200.07,313.44 200.07,318.74 200.07,324.03 200.07,329.32 200.07,334.61 200.07,339.91 200.07,345.2 200.07,350.49 200.07,355.78 200.07,361.07 200.07,366.37 200.07,371.66 200.07,376.95 200.07,382.24 200.07,387.54 200.07,392.83 200.07,398.12 196.39,398.08 196.51,392.79 196.64,387.5 196.77,382.2 196.89,376.91 197.02,371.62 197.15,366.33 197.27,361.04 197.4,355.75 197.53,350.46 197.66,345.17 197.78,339.88 197.91,334.59 198.04,329.3 198.16,324.01 198.29,318.71 198.42,313.42 198.54,308.13 198.67,302.84 198.8,297.55 198.92,292.26 199.05,286.97 199.18,281.68 199.31,276.39 199.43,271.1 199.56,265.81 199.69,260.52 199.81,255.22 199.94,249.93 200.07,244.64 200.07,244.64" stroke="none" fill="rgb(248,118,109)" stroke-width="1.07" stroke-dasharray="none" stroke-opacity="0" fill-opacity="1"/>
                </g>
              </g>
              <g id="GRID.text.1242.1" class="text grob gDesc">
                <g id="GRID.text.1242.1.1" transform="translate(209.25, 168.46)" stroke-width="0.1">
                  <g id="GRID.text.1242.1.1.scale" transform="scale(1, -1)">
                    <text x="0" y="0" id="GRID.text.1242.1.1.text" text-anchor="middle" stroke="rgb(0,0,0)" font-size="11.04" font-family="Helvetica, Arial, FreeSans, Liberation Sans, Nimbus Sans L, sans-serif" fill="rgb(0,0,0)" stroke-opacity="1" fill-opacity="1" font-weight="normal" font-style="normal">
                      <tspan id="GRID.text.1242.1.1.tspan.1" dy="3.95" x="0">252</tspan>
                    </text>
                  </g>
                </g>
                <g id="GRID.text.1242.1.2" transform="translate(188.15, 320.45)" stroke-width="0.1">
                  <g id="GRID.text.1242.1.2.scale" transform="scale(1, -1)">
                    <text x="0" y="0" id="GRID.text.1242.1.2.text" text-anchor="middle" stroke="rgb(0,0,0)" font-size="11.04" font-family="Helvetica, Arial, FreeSans, Liberation Sans, Nimbus Sans L, sans-serif" fill="rgb(0,0,0)" stroke-opacity="1" fill-opacity="1" font-weight="normal" font-style="normal">
                      <tspan id="GRID.text.1242.1.2.tspan.1" dy="3.95" x="0">7</tspan>
                    </text>
                  </g>
                </g>
                <g id="GRID.text.1242.1.3" transform="translate(196.39, 321.29)" stroke-width="0.1">
                  <g id="GRID.text.1242.1.3.scale" transform="scale(1, -1)">
                    <text x="0" y="0" id="GRID.text.1242.1.3.text" text-anchor="middle" stroke="rgb(0,0,0)" font-size="11.04" font-family="Helvetica, Arial, FreeSans, Liberation Sans, Nimbus Sans L, sans-serif" fill="rgb(0,0,0)" stroke-opacity="1" fill-opacity="1" font-weight="normal" font-style="normal">
                      <tspan id="GRID.text.1242.1.3.tspan.1" dy="3.95" x="0">2</tspan>
                    </text>
                  </g>
                </g>
                <g id="GRID.text.1242.1.4" transform="translate(199.15, 321.38)" stroke-width="0.1">
                  <g id="GRID.text.1242.1.4.scale" transform="scale(1, -1)">
                    <text x="0" y="0" id="GRID.text.1242.1.4.text" text-anchor="middle" stroke="rgb(0,0,0)" font-size="11.04" font-family="Helvetica, Arial, FreeSans, Liberation Sans, Nimbus Sans L, sans-serif" fill="rgb(0,0,0)" stroke-opacity="1" fill-opacity="1" font-weight="normal" font-style="normal">
                      <tspan id="GRID.text.1242.1.4.tspan.1" dy="3.95" x="0">1</tspan>
                    </text>
                  </g>
                </g>
              </g>
              <g id="GRID.gTree.1243.1" class="gTree grob gDesc"/>
            </g>
          </g>
          <g id="layout::spacer.8-6-8-6.1" class="viewport"/>
          <g id="layout::spacer.8-4-8-4.1" class="viewport"/>
          <g id="layout::spacer.6-6-6-6.1" class="viewport"/>
          <g id="layout::spacer.6-4-6-4.1" class="viewport"/>
          <g id="layout::axis-t.6-5-6-5.1" class="viewport"/>
          <g id="layout::axis-l.7-4-7-4.1" class="viewport">
            <g id="layout::axis-l.7-4-7-4::GRID.VP.305.1" class="viewport">
              <g id="axis-l.7-4-7-4.1" class="forcedgrob gTableChild absoluteGrob gTree grob gDesc">
                <g id="layout::axis-l.7-4-7-4::GRID.VP.305::axis.1" class="viewport">
                  <g id="axis.1" class="forcedgrob gtable gTree grob gDesc">
                    <g id="layout::axis-l.7-4-7-4::GRID.VP.305::axis::axis.1-1-1-1.1" class="viewport"/>
                    <g id="layout::axis-l.7-4-7-4::GRID.VP.305::axis::axis.1-2-1-2.1" class="viewport"/>
                  </g>
                </g>
              </g>
            </g>
          </g>
          <g id="layout::axis-r.7-6-7-6.1" class="viewport"/>
          <g id="layout::axis-b.8-5-8-5.1" class="viewport">
            <g id="layout::axis-b.8-5-8-5::GRID.VP.304.1" class="viewport">
              <g id="axis-b.8-5-8-5.1" class="forcedgrob gTableChild absoluteGrob gTree grob gDesc">
                <g id="layout::axis-b.8-5-8-5::GRID.VP.304::axis.1" class="viewport">
                  <g id="axis.2" class="forcedgrob gtable gTree grob gDesc">
                    <g id="layout::axis-b.8-5-8-5::GRID.VP.304::axis::axis.1-1-1-1.1" class="viewport"/>
                    <g id="layout::axis-b.8-5-8-5::GRID.VP.304::axis::axis.2-1-2-1.1" class="viewport"/>
                  </g>
                </g>
              </g>
            </g>
          </g>
          <g id="layout::xlab-t.5-5-5-5.1" class="viewport"/>
          <g id="layout::xlab-b.9-5-9-5.1" class="viewport"/>
          <g id="layout::ylab-l.7-3-7-3.1" class="viewport"/>
          <g id="layout::ylab-r.7-7-7-7.1" class="viewport"/>
          <g id="layout::guide-box.7-9-7-9.1" class="viewport">
            <g id="layout::guide-box.7-9-7-9::GRID.VP.319.1" class="viewport">
              <g id="layout::guide-box.7-9-7-9::GRID.VP.319::guide-box.7-9-7-9.1" class="viewport">
                <g id="guide-box.7-9-7-9.1" class="forcedgrob gTableChild gtable gTree grob gDesc">
                  <g id="layout::guide-box.7-9-7-9::GRID.VP.319::guide-box.7-9-7-9::legend.box.background.2-4-4-2.1" class="viewport"/>
                  <g id="layout::guide-box.7-9-7-9::GRID.VP.319::guide-box.7-9-7-9::guides.3-3-3-3.1" class="viewport">
                    <g id="layout::guide-box.7-9-7-9::GRID.VP.319::guide-box.7-9-7-9::guides.3-3-3-3::GRID.VP.318.1" class="viewport">
                      <g id="layout::guide-box.7-9-7-9::GRID.VP.319::guide-box.7-9-7-9::guides.3-3-3-3::GRID.VP.318::guides.3-3-3-3.1" class="viewport">
                        <g id="guides.3-3-3-3.1" class="forcedgrob gTableChild gtable gTree grob gDesc">
                          <g id="layout::guide-box.7-9-7-9::GRID.VP.319::guide-box.7-9-7-9::guides.3-3-3-3::GRID.VP.318::guides.3-3-3-3::background.1-6-8-1.1" class="viewport">
                            <g id="background.1-6-8-1.1" class="forcedgrob gTableChild rect grob gDesc">
                              <rect id="background.1-6-8-1.1.1" x="402.87" y="201.86" width="95.65" height="85.56" transform="" stroke-width="1.07" stroke="none" fill="rgb(255,255,255)" stroke-dasharray="none" stroke-opacity="0" fill-opacity="1"/>
                            </g>
                          </g>
                          <g id="layout::guide-box.7-9-7-9::GRID.VP.319::guide-box.7-9-7-9::guides.3-3-3-3::GRID.VP.318::guides.3-3-3-3::title.2-5-2-2.1" class="viewport"/>
                          <g id="layout::guide-box.7-9-7-9::GRID.VP.319::guide-box.7-9-7-9::guides.3-3-3-3::GRID.VP.318::guides.3-3-3-3::key-3-1-bg.4-2-4-2.1" class="viewport"/>
                          <g id="layout::guide-box.7-9-7-9::GRID.VP.319::guide-box.7-9-7-9::guides.3-3-3-3::GRID.VP.318::guides.3-3-3-3::key-3-1-1.4-2-4-2.1" class="viewport">
                            <g id="key-3-1-1.4-2-4-2.1" class="forcedgrob gTableChild rect grob gDesc">
                              <rect id="key-3-1-1.4-2-4-2.1.1" x="409.06" y="259.89" width="15.86" height="15.86" transform="" stroke="none" fill="rgb(248,118,109)" stroke-dasharray="none" stroke-width="1.07" stroke-linejoin="miter" stroke-opacity="0" fill-opacity="1"/>
                            </g>
                          </g>
                          <g id="layout::guide-box.7-9-7-9::GRID.VP.319::guide-box.7-9-7-9::guides.3-3-3-3::GRID.VP.318::guides.3-3-3-3::key-4-1-bg.5-2-5-2.1" class="viewport"/>
                          <g id="layout::guide-box.7-9-7-9::GRID.VP.319::guide-box.7-9-7-9::guides.3-3-3-3::GRID.VP.318::guides.3-3-3-3::key-4-1-1.5-2-5-2.1" class="viewport">
                            <g id="key-4-1-1.5-2-5-2.1" class="forcedgrob gTableChild rect grob gDesc">
                              <rect id="key-4-1-1.5-2-5-2.1.1" x="409.06" y="242.61" width="15.86" height="15.86" transform="" stroke="none" fill="rgb(124,174,0)" stroke-dasharray="none" stroke-width="1.07" stroke-linejoin="miter" stroke-opacity="0" fill-opacity="1"/>
                            </g>
                          </g>
                          <g id="layout::guide-box.7-9-7-9::GRID.VP.319::guide-box.7-9-7-9::guides.3-3-3-3::GRID.VP.318::guides.3-3-3-3::key-5-1-bg.6-2-6-2.1" class="viewport"/>
                          <g id="layout::guide-box.7-9-7-9::GRID.VP.319::guide-box.7-9-7-9::guides.3-3-3-3::GRID.VP.318::guides.3-3-3-3::key-5-1-1.6-2-6-2.1" class="viewport">
                            <g id="key-5-1-1.6-2-6-2.1" class="forcedgrob gTableChild rect grob gDesc">
                              <rect id="key-5-1-1.6-2-6-2.1.1" x="409.06" y="225.33" width="15.86" height="15.86" transform="" stroke="none" fill="rgb(0,191,196)" stroke-dasharray="none" stroke-width="1.07" stroke-linejoin="miter" stroke-opacity="0" fill-opacity="1"/>
                            </g>
                          </g>
                          <g id="layout::guide-box.7-9-7-9::GRID.VP.319::guide-box.7-9-7-9::guides.3-3-3-3::GRID.VP.318::guides.3-3-3-3::key-6-1-bg.7-2-7-2.1" class="viewport"/>
                          <g id="layout::guide-box.7-9-7-9::GRID.VP.319::guide-box.7-9-7-9::guides.3-3-3-3::GRID.VP.318::guides.3-3-3-3::key-6-1-1.7-2-7-2.1" class="viewport">
                            <g id="key-6-1-1.7-2-7-2.1" class="forcedgrob gTableChild rect grob gDesc">
                              <rect id="key-6-1-1.7-2-7-2.1.1" x="409.06" y="208.05" width="15.86" height="15.86" transform="" stroke="none" fill="rgb(199,124,255)" stroke-dasharray="none" stroke-width="1.07" stroke-linejoin="miter" stroke-opacity="0" fill-opacity="1"/>
                            </g>
                          </g>
                          <g id="layout::guide-box.7-9-7-9::GRID.VP.319::guide-box.7-9-7-9::guides.3-3-3-3::GRID.VP.318::guides.3-3-3-3::label-3-3.4-4-4-4.1" class="viewport">
                            <g id="layout::guide-box.7-9-7-9::GRID.VP.319::guide-box.7-9-7-9::guides.3-3-3-3::GRID.VP.318::guides.3-3-3-3::label-3-3.4-4-4-4::GRID.VP.314.1" class="viewport">
                              <g id="label-3-3.4-4-4-4.1" class="forcedgrob gTableChild gTree grob gDesc">
                                <g id="layout::guide-box.7-9-7-9::GRID.VP.319::guide-box.7-9-7-9::guides.3-3-3-3::GRID.VP.318::guides.3-3-3-3::label-3-3.4-4-4-4::GRID.VP.314::GRID.VP.306.1" font-size="8.8" stroke="rgb(0,0,0)" font-family="Helvetica, Arial, FreeSans, Liberation Sans, Nimbus Sans L, sans-serif" stroke-opacity="1" font-weight="normal" font-style="normal" class="viewport">
                                  <g id="layout::guide-box.7-9-7-9::GRID.VP.319::guide-box.7-9-7-9::guides.3-3-3-3::GRID.VP.318::guides.3-3-3-3::label-3-3.4-4-4-4::GRID.VP.314::GRID.VP.306::GRID.VP.307.1" class="viewport">
                                    <g id="guide.label.titleGrob.1266.1" class="titleGrob gTree grob gDesc">
                                      <g id="GRID.text.1264.1" class="text grob gDesc">
                                        <g id="GRID.text.1264.1.1" transform="translate(431.11, 267.82)" stroke-width="0.1">
                                          <g id="GRID.text.1264.1.1.scale" transform="scale(1, -1)">
                                            <text x="0" y="0" id="GRID.text.1264.1.1.text" text-anchor="start" font-size="8.8" stroke="rgb(0,0,0)" font-family="Helvetica, Arial, FreeSans, Liberation Sans, Nimbus Sans L, sans-serif" fill="rgb(0,0,0)" stroke-opacity="1" fill-opacity="1" font-weight="normal" font-style="normal">
                                              <tspan id="GRID.text.1264.1.1.tspan.1" dy="3.23" x="0">Lavoro</tspan>
                                            </text>
                                          </g>
                                        </g>
                                      </g>
                                    </g>
                                  </g>
                                </g>
                              </g>
                            </g>
                          </g>
                          <g id="layout::guide-box.7-9-7-9::GRID.VP.319::guide-box.7-9-7-9::guides.3-3-3-3::GRID.VP.318::guides.3-3-3-3::label-4-3.5-4-5-4.1" class="viewport">
                            <g id="layout::guide-box.7-9-7-9::GRID.VP.319::guide-box.7-9-7-9::guides.3-3-3-3::GRID.VP.318::guides.3-3-3-3::label-4-3.5-4-5-4::GRID.VP.315.1" class="viewport">
                              <g id="label-4-3.5-4-5-4.1" class="forcedgrob gTableChild gTree grob gDesc">
                                <g id="layout::guide-box.7-9-7-9::GRID.VP.319::guide-box.7-9-7-9::guides.3-3-3-3::GRID.VP.318::guides.3-3-3-3::label-4-3.5-4-5-4::GRID.VP.315::GRID.VP.308.1" font-size="8.8" stroke="rgb(0,0,0)" font-family="Helvetica, Arial, FreeSans, Liberation Sans, Nimbus Sans L, sans-serif" stroke-opacity="1" font-weight="normal" font-style="normal" class="viewport">
                                  <g id="layout::guide-box.7-9-7-9::GRID.VP.319::guide-box.7-9-7-9::guides.3-3-3-3::GRID.VP.318::guides.3-3-3-3::label-4-3.5-4-5-4::GRID.VP.315::GRID.VP.308::GRID.VP.309.1" class="viewport">
                                    <g id="guide.label.titleGrob.1269.1" class="titleGrob gTree grob gDesc">
                                      <g id="GRID.text.1267.1" class="text grob gDesc">
                                        <g id="GRID.text.1267.1.1" transform="translate(431.11, 250.54)" stroke-width="0.1">
                                          <g id="GRID.text.1267.1.1.scale" transform="scale(1, -1)">
                                            <text x="0" y="0" id="GRID.text.1267.1.1.text" text-anchor="start" font-size="8.8" stroke="rgb(0,0,0)" font-family="Helvetica, Arial, FreeSans, Liberation Sans, Nimbus Sans L, sans-serif" fill="rgb(0,0,0)" stroke-opacity="1" fill-opacity="1" font-weight="normal" font-style="normal">
                                              <tspan id="GRID.text.1267.1.1.tspan.1" dy="3.23" x="0">Comunicazione</tspan>
                                            </text>
                                          </g>
                                        </g>
                                      </g>
                                    </g>
                                  </g>
                                </g>
                              </g>
                            </g>
                          </g>
                          <g id="layout::guide-box.7-9-7-9::GRID.VP.319::guide-box.7-9-7-9::guides.3-3-3-3::GRID.VP.318::guides.3-3-3-3::label-5-3.6-4-6-4.1" class="viewport">
                            <g id="layout::guide-box.7-9-7-9::GRID.VP.319::guide-box.7-9-7-9::guides.3-3-3-3::GRID.VP.318::guides.3-3-3-3::label-5-3.6-4-6-4::GRID.VP.316.1" class="viewport">
                              <g id="label-5-3.6-4-6-4.1" class="forcedgrob gTableChild gTree grob gDesc">
                                <g id="layout::guide-box.7-9-7-9::GRID.VP.319::guide-box.7-9-7-9::guides.3-3-3-3::GRID.VP.318::guides.3-3-3-3::label-5-3.6-4-6-4::GRID.VP.316::GRID.VP.310.1" font-size="8.8" stroke="rgb(0,0,0)" font-family="Helvetica, Arial, FreeSans, Liberation Sans, Nimbus Sans L, sans-serif" stroke-opacity="1" font-weight="normal" font-style="normal" class="viewport">
                                  <g id="layout::guide-box.7-9-7-9::GRID.VP.319::guide-box.7-9-7-9::guides.3-3-3-3::GRID.VP.318::guides.3-3-3-3::label-5-3.6-4-6-4::GRID.VP.316::GRID.VP.310::GRID.VP.311.1" class="viewport">
                                    <g id="guide.label.titleGrob.1272.1" class="titleGrob gTree grob gDesc">
                                      <g id="GRID.text.1270.1" class="text grob gDesc">
                                        <g id="GRID.text.1270.1.1" transform="translate(431.11, 233.26)" stroke-width="0.1">
                                          <g id="GRID.text.1270.1.1.scale" transform="scale(1, -1)">
                                            <text x="0" y="0" id="GRID.text.1270.1.1.text" text-anchor="start" font-size="8.8" stroke="rgb(0,0,0)" font-family="Helvetica, Arial, FreeSans, Liberation Sans, Nimbus Sans L, sans-serif" fill="rgb(0,0,0)" stroke-opacity="1" fill-opacity="1" font-weight="normal" font-style="normal">
                                              <tspan id="GRID.text.1270.1.1.tspan.1" dy="3.23" x="0">Svago</tspan>
                                            </text>
                                          </g>
                                        </g>
                                      </g>
                                    </g>
                                  </g>
                                </g>
                              </g>
                            </g>
                          </g>
                          <g id="layout::guide-box.7-9-7-9::GRID.VP.319::guide-box.7-9-7-9::guides.3-3-3-3::GRID.VP.318::guides.3-3-3-3::label-6-3.7-4-7-4.1" class="viewport">
                            <g id="layout::guide-box.7-9-7-9::GRID.VP.319::guide-box.7-9-7-9::guides.3-3-3-3::GRID.VP.318::guides.3-3-3-3::label-6-3.7-4-7-4::GRID.VP.317.1" class="viewport">
                              <g id="label-6-3.7-4-7-4.1" class="forcedgrob gTableChild gTree grob gDesc">
                                <g id="layout::guide-box.7-9-7-9::GRID.VP.319::guide-box.7-9-7-9::guides.3-3-3-3::GRID.VP.318::guides.3-3-3-3::label-6-3.7-4-7-4::GRID.VP.317::GRID.VP.312.1" font-size="8.8" stroke="rgb(0,0,0)" font-family="Helvetica, Arial, FreeSans, Liberation Sans, Nimbus Sans L, sans-serif" stroke-opacity="1" font-weight="normal" font-style="normal" class="viewport">
                                  <g id="layout::guide-box.7-9-7-9::GRID.VP.319::guide-box.7-9-7-9::guides.3-3-3-3::GRID.VP.318::guides.3-3-3-3::label-6-3.7-4-7-4::GRID.VP.317::GRID.VP.312::GRID.VP.313.1" class="viewport">
                                    <g id="guide.label.titleGrob.1275.1" class="titleGrob gTree grob gDesc">
                                      <g id="GRID.text.1273.1" class="text grob gDesc">
                                        <g id="GRID.text.1273.1.1" transform="translate(431.11, 215.98)" stroke-width="0.1">
                                          <g id="GRID.text.1273.1.1.scale" transform="scale(1, -1)">
                                            <text x="0" y="0" id="GRID.text.1273.1.1.text" text-anchor="start" font-size="8.8" stroke="rgb(0,0,0)" font-family="Helvetica, Arial, FreeSans, Liberation Sans, Nimbus Sans L, sans-serif" fill="rgb(0,0,0)" stroke-opacity="1" fill-opacity="1" font-weight="normal" font-style="normal">
                                              <tspan id="GRID.text.1273.1.1.tspan.1" dy="3.23" x="0">Studio</tspan>
                                            </text>
                                          </g>
                                        </g>
                                      </g>
                                    </g>
                                  </g>
                                </g>
                              </g>
                            </g>
                          </g>
                        </g>
                      </g>
                    </g>
                  </g>
                </g>
              </g>
            </g>
          </g>
          <g id="layout::subtitle.4-5-4-5.1" class="viewport"/>
          <g id="layout::title.3-5-3-5.1" class="viewport">
            <g id="layout::title.3-5-3-5::GRID.VP.320.1" font-size="13.2" stroke="rgb(102,102,102)" font-family="Helvetica, Arial, FreeSans, Liberation Sans, Nimbus Sans L, sans-serif" stroke-opacity="1" font-weight="normal" font-style="normal" class="viewport">
              <g id="layout::title.3-5-3-5::GRID.VP.320::GRID.VP.321.1" class="viewport">
                <g id="title.3-5-3-5.1" class="forcedgrob gTableChild titleGrob gTree grob gDesc">
                  <g id="GRID.text.1290.1" class="text grob gDesc">
                    <g id="GRID.text.1290.1.1" transform="translate(200.07, 453.94)" stroke-width="0.1">
                      <g id="GRID.text.1290.1.1.scale" transform="scale(1, -1)">
                        <text x="0" y="0" id="GRID.text.1290.1.1.text" text-anchor="middle" font-size="13.2" stroke="rgb(102,102,102)" font-family="Helvetica, Arial, FreeSans, Liberation Sans, Nimbus Sans L, sans-serif" fill="rgb(102,102,102)" stroke-opacity="1" fill-opacity="1" font-weight="normal" font-style="normal">
                          <tspan id="GRID.text.1290.1.1.tspan.1" dy="9.33" x="0">anagrafica totali-attivita</tspan>
                        </text>
                      </g>
                    </g>
                  </g>
                </g>
              </g>
            </g>
          </g>
          <g id="layout::caption.10-5-10-5.1" class="viewport"/>
          <g id="layout::tag.2-2-2-2.1" class="viewport"/>
        </g>
      </g>
    </g>
  </g>
</svg>