<?xml version="1.0" encoding="UTF-8"?>
<svg xmlns="http://www.w3.org/2000/svg" xmlns:xlink="http://www.w3.org/1999/xlink" width="504px" height="504px" viewBox="0 0 504 504" version="1.1">
  <metadata xmlns:gridsvg="http://www.stat.auckland.ac.nz/~paul/R/gridSVG/">
    <gridsvg:generator name="gridSVG" version="1.6-0" time="2019-01-18 19:03:18"/>
    <gridsvg:argument name="name" value="./latest_informaggio_csv/risultati/svg/anagrafica-altroos.svg"/>
    <gridsvg:argument name="exportCoords" value="none"/>
    <gridsvg:argument name="exportMappings" value="none"/>
    <gridsvg:argument name="exportJS" value="none"/>
    <gridsvg:argument name="res" value="72"/>
    <gridsvg:argument name="prefix" value=""/>
    <gridsvg:argument name="addClasses" value="TRUE"/>
    <gridsvg:argument name="indent" value="TRUE"/>
    <gridsvg:argument name="htmlWrapper" value="FALSE"/>
    <gridsvg:argument name="usePaths" value="vpPaths"/>
    <gridsvg:argument name="uniqueNames" value="TRUE"/>
    <gridsvg:separator name="id.sep" value="."/>
    <gridsvg:separator name="gPath.sep" value="::"/>
    <gridsvg:separator name="vpPath.sep" value="::"/>
  </metadata>
  <g transform="translate(0, 504) scale(1, -1)">
    <g id="gridSVG" fill="none" stroke="rgb(0,0,0)" stroke-dasharray="none" stroke-width="0.75" font-size="12" font-family="Helvetica, Arial, FreeSans, Liberation Sans, Nimbus Sans L, sans-serif" opacity="1" stroke-linecap="round" stroke-linejoin="round" stroke-miterlimit="10" stroke-opacity="1" fill-opacity="0" font-weight="normal" font-style="normal">
      <g id="layout.1" class="viewport">
        <g id="layout.2" class="forcedgrob gtable gTree grob gDesc">
          <defs>
            <clipPath id="layout::background.1-11-12-1.1.clipPath">
              <rect x="0" y="182.79" width="504" height="138.41" fill="none" stroke="none"/>
            </clipPath>
          </defs>
          <g id="layout::background.1-11-12-1.1" clip-path="url(#layout::background.1-11-12-1.1.clipPath)" class="viewport">
            <g id="background.1-11-12-1.1" class="forcedgrob gTableChild rect grob gDesc">
              <rect id="background.1-11-12-1.1.1" x="0" y="182.79" width="504" height="138.41" transform="" stroke-width="1.07" stroke="rgb(255,255,255)" fill="rgb(255,255,255)" stroke-dasharray="none" stroke-opacity="1" fill-opacity="1"/>
            </g>
          </g>
          <defs>
            <clipPath id="layout::panel.7-5-7-5.1.clipPath">
              <rect x="8.22" y="191.01" width="107.26" height="107.26" fill="none" stroke="none"/>
            </clipPath>
          </defs>
          <g id="layout::panel.7-5-7-5.1" clip-path="url(#layout::panel.7-5-7-5.1.clipPath)" class="viewport">
            <g id="panel.7-5-7-5.1" class="forcedgrob gTableChild gTree grob gDesc">
              <g id="grill.gTree.190.1" class="gTree grob gDesc">
                <g id="panel.background..rect.186.1" class="rect grob gDesc">
                  <rect id="panel.background..rect.186.1.1" x="8.22" y="191.01" width="107.26" height="107.26" transform="" stroke-width="1.07" stroke="none" fill="rgb(255,255,255)" stroke-dasharray="none" stroke-opacity="0" fill-opacity="1"/>
                </g>
              </g>
              <g id="bar.gTree.179.1" class="gTree grob gDesc">
                <g id="geom_polygon.polygon.175.1" class="polygon grob gDesc">
                  <polygon id="geom_polygon.polygon.175.1.1" points="61.85,244.64 61.81,246.12 61.78,247.6 61.75,249.08 61.71,250.56 61.68,252.04 61.64,253.52 61.61,255 61.57,256.48 61.54,257.95 61.5,259.43 61.47,260.91 61.44,262.39 61.4,263.87 61.37,265.35 61.33,266.83 61.3,268.31 61.26,269.79 61.23,271.27 61.2,272.75 61.16,274.22 61.13,275.7 61.09,277.18 61.06,278.66 61.02,280.14 60.99,281.62 60.95,283.1 60.92,284.58 60.89,286.06 60.85,287.54 59.4,287.48 57.95,287.37 56.51,287.21 55.07,287.01 53.64,286.76 52.22,286.45 50.81,286.1 49.42,285.71 48.04,285.26 46.67,284.77 45.32,284.24 43.99,283.65 42.68,283.03 41.39,282.36 40.13,281.64 38.89,280.89 37.68,280.09 36.49,279.25 35.34,278.37 34.21,277.46 33.11,276.5 32.05,275.51 31.03,274.49 30.03,273.43 29.08,272.33 28.16,271.21 27.28,270.06 26.44,268.87 25.64,267.66 24.88,266.42 24.17,265.16 23.5,263.87 22.87,262.56 22.28,261.23 21.74,259.89 21.25,258.52 20.81,257.14 20.41,255.74 20.05,254.34 19.75,252.92 19.49,251.49 19.29,250.05 19.13,248.61 19.02,247.16 18.96,245.71 18.95,244.26 18.98,242.81 19.07,241.36 19.21,239.91 19.39,238.47 19.62,237.04 19.91,235.61 20.24,234.2 20.61,232.8 21.04,231.41 21.51,230.04 22.02,228.68 22.59,227.34 23.2,226.02 23.85,224.73 24.54,223.45 25.28,222.2 26.06,220.98 26.88,219.78 27.74,218.61 28.64,217.47 29.58,216.37 30.56,215.29 31.57,214.25 32.61,213.24 33.69,212.27 34.8,211.34 35.95,210.44 37.12,209.58 38.32,208.77 39.55,207.99 40.8,207.26 42.07,206.57 43.37,205.92 44.69,205.32 46.04,204.76 47.39,204.25 48.77,203.78 50.16,203.36 51.56,202.99 52.98,202.67 54.4,202.39 55.84,202.16 57.28,201.98 58.72,201.85 60.17,201.77 61.62,201.74 63.07,201.76 64.52,201.82 65.97,201.94 67.41,202.1 68.85,202.31 70.28,202.58 71.7,202.88 73.1,203.24 74.5,203.65 75.88,204.1 77.24,204.6 78.59,205.14 79.91,205.73 81.22,206.36 82.5,207.04 83.76,207.76 85,208.52 86.21,209.32 87.39,210.17 88.54,211.05 89.66,211.98 90.75,212.93 91.81,213.93 92.83,214.96 93.82,216.03 94.77,217.12 95.68,218.25 96.55,219.41 97.39,220.6 98.18,221.82 98.93,223.06 99.64,224.33 100.3,225.62 100.93,226.93 101.5,228.26 102.03,229.61 102.52,230.98 102.96,232.36 103.35,233.76 103.69,235.17 103.99,236.59 104.24,238.02 104.44,239.46 104.59,240.91 104.69,242.35 104.75,243.8 104.75,245.26 104.7,246.71 104.61,248.16 104.47,249.6 104.27,251.04 104.03,252.47 103.74,253.89 103.41,255.31 103.02,256.7 102.59,258.09 102.11,259.46 101.59,260.82 101.02,262.15 100.4,263.47 99.75,264.76 99.04,266.03 98.3,267.28 97.51,268.5 96.68,269.69 95.82,270.85 94.91,271.99 93.97,273.09 92.99,274.16 91.97,275.2 90.92,276.2 89.83,277.16 88.72,278.09 87.57,278.98 86.39,279.83 85.19,280.64 83.96,281.41 82.7,282.14 81.42,282.82 80.12,283.46 78.8,284.06 77.45,284.61 76.09,285.11 74.71,285.57 73.32,285.98 71.92,286.35 70.5,286.67 69.07,286.93 67.64,287.15 66.2,287.33 64.75,287.45 63.3,287.52 61.85,287.55 61.85,286.07 61.85,284.59 61.85,283.11 61.85,281.63 61.85,280.15 61.85,278.67 61.85,277.19 61.85,275.71 61.85,274.23 61.85,272.75 61.85,271.27 61.85,269.79 61.85,268.31 61.85,266.83 61.85,265.36 61.85,263.88 61.85,262.4 61.85,260.92 61.85,259.44 61.85,257.96 61.85,256.48 61.85,255 61.85,253.52 61.85,252.04 61.85,250.56 61.85,249.08 61.85,247.6 61.85,246.12 61.85,244.64 61.85,244.64" stroke="none" fill="rgb(0,191,196)" stroke-width="1.07" stroke-dasharray="none" stroke-opacity="0" fill-opacity="1"/>
                </g>
                <g id="geom_polygon.polygon.177.1" class="polygon grob gDesc">
                  <polygon id="geom_polygon.polygon.177.1.1" points="61.85,244.64 61.85,246.12 61.85,247.6 61.85,249.08 61.85,250.56 61.85,252.04 61.85,253.52 61.85,255 61.85,256.48 61.85,257.96 61.85,259.44 61.85,260.92 61.85,262.4 61.85,263.88 61.85,265.36 61.85,266.83 61.85,268.31 61.85,269.79 61.85,271.27 61.85,272.75 61.85,274.23 61.85,275.71 61.85,277.19 61.85,278.67 61.85,280.15 61.85,281.63 61.85,283.11 61.85,284.59 61.85,286.07 61.85,287.55 60.85,287.54 60.89,286.06 60.92,284.58 60.95,283.1 60.99,281.62 61.02,280.14 61.06,278.66 61.09,277.18 61.13,275.7 61.16,274.22 61.2,272.75 61.23,271.27 61.26,269.79 61.3,268.31 61.33,266.83 61.37,265.35 61.4,263.87 61.44,262.39 61.47,260.91 61.5,259.43 61.54,257.95 61.57,256.48 61.61,255 61.64,253.52 61.68,252.04 61.71,250.56 61.75,249.08 61.78,247.6 61.81,246.12 61.85,244.64 61.85,244.64" stroke="none" fill="rgb(248,118,109)" stroke-width="1.07" stroke-dasharray="none" stroke-opacity="0" fill-opacity="1"/>
                </g>
              </g>
              <g id="GRID.text.180.1" class="text grob gDesc">
                <g id="GRID.text.180.1.1" transform="translate(62.1, 223.19)" stroke-width="0.1">
                  <g id="GRID.text.180.1.1.scale" transform="scale(1, -1)">
                    <text x="0" y="0" id="GRID.text.180.1.1.text" text-anchor="middle" stroke="rgb(0,0,0)" font-size="11.04" font-family="Helvetica, Arial, FreeSans, Liberation Sans, Nimbus Sans L, sans-serif" fill="rgb(0,0,0)" stroke-opacity="1" fill-opacity="1" font-weight="normal" font-style="normal">
                      <tspan id="GRID.text.180.1.1.tspan.1" dy="3.95" x="0">269</tspan>
                    </text>
                  </g>
                </g>
                <g id="GRID.text.180.1.2" transform="translate(61.6, 266.09)" stroke-width="0.1">
                  <g id="GRID.text.180.1.2.scale" transform="scale(1, -1)">
                    <text x="0" y="0" id="GRID.text.180.1.2.text" text-anchor="middle" stroke="rgb(0,0,0)" font-size="11.04" font-family="Helvetica, Arial, FreeSans, Liberation Sans, Nimbus Sans L, sans-serif" fill="rgb(0,0,0)" stroke-opacity="1" fill-opacity="1" font-weight="normal" font-style="normal">
                      <tspan id="GRID.text.180.1.2.tspan.1" dy="3.95" x="0">1</tspan>
                    </text>
                  </g>
                </g>
              </g>
              <g id="GRID.gTree.181.1" class="gTree grob gDesc"/>
            </g>
          </g>
          <g id="layout::spacer.8-6-8-6.1" class="viewport"/>
          <g id="layout::spacer.8-4-8-4.1" class="viewport"/>
          <g id="layout::spacer.6-6-6-6.1" class="viewport"/>
          <g id="layout::spacer.6-4-6-4.1" class="viewport"/>
          <g id="layout::axis-t.6-5-6-5.1" class="viewport"/>
          <g id="layout::axis-l.7-4-7-4.1" class="viewport">
            <g id="layout::axis-l.7-4-7-4::GRID.VP.41.1" class="viewport">
              <g id="axis-l.7-4-7-4.1" class="forcedgrob gTableChild absoluteGrob gTree grob gDesc">
                <g id="layout::axis-l.7-4-7-4::GRID.VP.41::axis.1" class="viewport">
                  <g id="axis.1" class="forcedgrob gtable gTree grob gDesc">
                    <g id="layout::axis-l.7-4-7-4::GRID.VP.41::axis::axis.1-1-1-1.1" class="viewport"/>
                    <g id="layout::axis-l.7-4-7-4::GRID.VP.41::axis::axis.1-2-1-2.1" class="viewport"/>
                  </g>
                </g>
              </g>
            </g>
          </g>
          <g id="layout::axis-r.7-6-7-6.1" class="viewport"/>
          <g id="layout::axis-b.8-5-8-5.1" class="viewport">
            <g id="layout::axis-b.8-5-8-5::GRID.VP.40.1" class="viewport">
              <g id="axis-b.8-5-8-5.1" class="forcedgrob gTableChild absoluteGrob gTree grob gDesc">
                <g id="layout::axis-b.8-5-8-5::GRID.VP.40::axis.1" class="viewport">
                  <g id="axis.2" class="forcedgrob gtable gTree grob gDesc">
                    <g id="layout::axis-b.8-5-8-5::GRID.VP.40::axis::axis.1-1-1-1.1" class="viewport"/>
                    <g id="layout::axis-b.8-5-8-5::GRID.VP.40::axis::axis.2-1-2-1.1" class="viewport"/>
                  </g>
                </g>
              </g>
            </g>
          </g>
          <g id="layout::xlab-t.5-5-5-5.1" class="viewport"/>
          <g id="layout::xlab-b.9-5-9-5.1" class="viewport"/>
          <g id="layout::ylab-l.7-3-7-3.1" class="viewport"/>
          <g id="layout::ylab-r.7-7-7-7.1" class="viewport"/>
          <g id="layout::guide-box.7-9-7-9.1" class="viewport">
            <g id="layout::guide-box.7-9-7-9::GRID.VP.49.1" class="viewport">
              <g id="layout::guide-box.7-9-7-9::GRID.VP.49::guide-box.7-9-7-9.1" class="viewport">
                <g id="guide-box.7-9-7-9.1" class="forcedgrob gTableChild gtable gTree grob gDesc">
                  <g id="layout::guide-box.7-9-7-9::GRID.VP.49::guide-box.7-9-7-9::legend.box.background.2-4-4-2.1" class="viewport"/>
                  <g id="layout::guide-box.7-9-7-9::GRID.VP.49::guide-box.7-9-7-9::guides.3-3-3-3.1" class="viewport">
                    <g id="layout::guide-box.7-9-7-9::GRID.VP.49::guide-box.7-9-7-9::guides.3-3-3-3::GRID.VP.48.1" class="viewport">
                      <g id="layout::guide-box.7-9-7-9::GRID.VP.49::guide-box.7-9-7-9::guides.3-3-3-3::GRID.VP.48::guides.3-3-3-3.1" class="viewport">
                        <g id="guides.3-3-3-3.1" class="forcedgrob gTableChild gtable gTree grob gDesc">
                          <g id="layout::guide-box.7-9-7-9::GRID.VP.49::guide-box.7-9-7-9::guides.3-3-3-3::GRID.VP.48::guides.3-3-3-3::background.1-6-6-1.1" class="viewport">
                            <g id="background.1-6-6-1.1" class="forcedgrob gTableChild rect grob gDesc">
                              <rect id="background.1-6-6-1.1.1" x="126.44" y="219.14" width="372.08" height="51" transform="" stroke-width="1.07" stroke="none" fill="rgb(255,255,255)" stroke-dasharray="none" stroke-opacity="0" fill-opacity="1"/>
                            </g>
                          </g>
                          <g id="layout::guide-box.7-9-7-9::GRID.VP.49::guide-box.7-9-7-9::guides.3-3-3-3::GRID.VP.48::guides.3-3-3-3::title.2-5-2-2.1" class="viewport"/>
                          <g id="layout::guide-box.7-9-7-9::GRID.VP.49::guide-box.7-9-7-9::guides.3-3-3-3::GRID.VP.48::guides.3-3-3-3::key-3-1-bg.4-2-4-2.1" class="viewport"/>
                          <g id="layout::guide-box.7-9-7-9::GRID.VP.49::guide-box.7-9-7-9::guides.3-3-3-3::GRID.VP.48::guides.3-3-3-3::key-3-1-1.4-2-4-2.1" class="viewport">
                            <g id="key-3-1-1.4-2-4-2.1" class="forcedgrob gTableChild rect grob gDesc">
                              <rect id="key-3-1-1.4-2-4-2.1.1" x="132.63" y="242.61" width="15.86" height="15.86" transform="" stroke="none" fill="rgb(248,118,109)" stroke-dasharray="none" stroke-width="1.07" stroke-linejoin="miter" stroke-opacity="0" fill-opacity="1"/>
                            </g>
                          </g>
                          <g id="layout::guide-box.7-9-7-9::GRID.VP.49::guide-box.7-9-7-9::guides.3-3-3-3::GRID.VP.48::guides.3-3-3-3::key-4-1-bg.5-2-5-2.1" class="viewport"/>
                          <g id="layout::guide-box.7-9-7-9::GRID.VP.49::guide-box.7-9-7-9::guides.3-3-3-3::GRID.VP.48::guides.3-3-3-3::key-4-1-1.5-2-5-2.1" class="viewport">
                            <g id="key-4-1-1.5-2-5-2.1" class="forcedgrob gTableChild rect grob gDesc">
                              <rect id="key-4-1-1.5-2-5-2.1.1" x="132.63" y="225.33" width="15.86" height="15.86" transform="" stroke="none" fill="rgb(0,191,196)" stroke-dasharray="none" stroke-width="1.07" stroke-linejoin="miter" stroke-opacity="0" fill-opacity="1"/>
                            </g>
                          </g>
                          <g id="layout::guide-box.7-9-7-9::GRID.VP.49::guide-box.7-9-7-9::guides.3-3-3-3::GRID.VP.48::guides.3-3-3-3::label-3-3.4-4-4-4.1" class="viewport">
                            <g id="layout::guide-box.7-9-7-9::GRID.VP.49::guide-box.7-9-7-9::guides.3-3-3-3::GRID.VP.48::guides.3-3-3-3::label-3-3.4-4-4-4::GRID.VP.46.1" class="viewport">
                              <g id="label-3-3.4-4-4-4.1" class="forcedgrob gTableChild gTree grob gDesc">
                                <g id="layout::guide-box.7-9-7-9::GRID.VP.49::guide-box.7-9-7-9::guides.3-3-3-3::GRID.VP.48::guides.3-3-3-3::label-3-3.4-4-4-4::GRID.VP.46::GRID.VP.42.1" font-size="8.8" stroke="rgb(0,0,0)" font-family="Helvetica, Arial, FreeSans, Liberation Sans, Nimbus Sans L, sans-serif" stroke-opacity="1" font-weight="normal" font-style="normal" class="viewport">
                                  <g id="layout::guide-box.7-9-7-9::GRID.VP.49::guide-box.7-9-7-9::guides.3-3-3-3::GRID.VP.48::guides.3-3-3-3::label-3-3.4-4-4-4::GRID.VP.46::GRID.VP.42::GRID.VP.43.1" class="viewport">
                                    <g id="guide.label.titleGrob.204.1" class="titleGrob gTree grob gDesc">
                                      <g id="GRID.text.202.1" class="text grob gDesc">
                                        <g id="GRID.text.202.1.1" transform="translate(154.68, 250.54)" stroke-width="0.1">
                                          <g id="GRID.text.202.1.1.scale" transform="scale(1, -1)">
                                            <text x="0" y="0" id="GRID.text.202.1.1.text" text-anchor="start" font-size="8.8" stroke="rgb(0,0,0)" font-family="Helvetica, Arial, FreeSans, Liberation Sans, Nimbus Sans L, sans-serif" fill="rgb(0,0,0)" stroke-opacity="1" fill-opacity="1" font-weight="normal" font-style="normal">
                                              <tspan id="GRID.text.202.1.1.tspan.1" dy="3.23" x="0">Ma fino a poco tempo fa avevo un doppio sistema operativo: windows 7 e Ubuntu  (1)</tspan>
                                            </text>
                                          </g>
                                        </g>
                                      </g>
                                    </g>
                                  </g>
                                </g>
                              </g>
                            </g>
                          </g>
                          <g id="layout::guide-box.7-9-7-9::GRID.VP.49::guide-box.7-9-7-9::guides.3-3-3-3::GRID.VP.48::guides.3-3-3-3::label-4-3.5-4-5-4.1" class="viewport">
                            <g id="layout::guide-box.7-9-7-9::GRID.VP.49::guide-box.7-9-7-9::guides.3-3-3-3::GRID.VP.48::guides.3-3-3-3::label-4-3.5-4-5-4::GRID.VP.47.1" class="viewport">
                              <g id="label-4-3.5-4-5-4.1" class="forcedgrob gTableChild gTree grob gDesc">
                                <g id="layout::guide-box.7-9-7-9::GRID.VP.49::guide-box.7-9-7-9::guides.3-3-3-3::GRID.VP.48::guides.3-3-3-3::label-4-3.5-4-5-4::GRID.VP.47::GRID.VP.44.1" font-size="8.8" stroke="rgb(0,0,0)" font-family="Helvetica, Arial, FreeSans, Liberation Sans, Nimbus Sans L, sans-serif" stroke-opacity="1" font-weight="normal" font-style="normal" class="viewport">
                                  <g id="layout::guide-box.7-9-7-9::GRID.VP.49::guide-box.7-9-7-9::guides.3-3-3-3::GRID.VP.48::guides.3-3-3-3::label-4-3.5-4-5-4::GRID.VP.47::GRID.VP.44::GRID.VP.45.1" class="viewport">
                                    <g id="guide.label.titleGrob.207.1" class="titleGrob gTree grob gDesc">
                                      <g id="GRID.text.205.1" class="text grob gDesc">
                                        <g id="GRID.text.205.1.1" transform="translate(154.68, 233.26)" stroke-width="0.1">
                                          <g id="GRID.text.205.1.1.scale" transform="scale(1, -1)">
                                            <text x="0" y="0" id="GRID.text.205.1.1.text" text-anchor="start" font-size="8.8" stroke="rgb(0,0,0)" font-family="Helvetica, Arial, FreeSans, Liberation Sans, Nimbus Sans L, sans-serif" fill="rgb(0,0,0)" stroke-opacity="1" fill-opacity="1" font-weight="normal" font-style="normal">
                                              <tspan id="GRID.text.205.1.1.tspan.1" dy="3.23" x="0">NA (269)</tspan>
                                            </text>
                                          </g>
                                        </g>
                                      </g>
                                    </g>
                                  </g>
                                </g>
                              </g>
                            </g>
                          </g>
                        </g>
                      </g>
                    </g>
                  </g>
                </g>
              </g>
            </g>
          </g>
          <g id="layout::subtitle.4-5-4-5.1" class="viewport"/>
          <g id="layout::title.3-5-3-5.1" class="viewport">
            <g id="layout::title.3-5-3-5::GRID.VP.50.1" font-size="13.2" stroke="rgb(102,102,102)" font-family="Helvetica, Arial, FreeSans, Liberation Sans, Nimbus Sans L, sans-serif" stroke-opacity="1" font-weight="normal" font-style="normal" class="viewport">
              <g id="layout::title.3-5-3-5::GRID.VP.50::GRID.VP.51.1" class="viewport">
                <g id="title.3-5-3-5.1" class="forcedgrob gTableChild titleGrob gTree grob gDesc">
                  <g id="GRID.text.216.1" class="text grob gDesc">
                    <g id="GRID.text.216.1.1" transform="translate(61.85, 315.73)" stroke-width="0.1">
                      <g id="GRID.text.216.1.1.scale" transform="scale(1, -1)">
                        <text x="0" y="0" id="GRID.text.216.1.1.text" text-anchor="middle" font-size="13.2" stroke="rgb(102,102,102)" font-family="Helvetica, Arial, FreeSans, Liberation Sans, Nimbus Sans L, sans-serif" fill="rgb(102,102,102)" stroke-opacity="1" fill-opacity="1" font-weight="normal" font-style="normal">
                          <tspan id="GRID.text.216.1.1.tspan.1" dy="9.33" x="0">anagrafica altroos</tspan>
                        </text>
                      </g>
                    </g>
                  </g>
                </g>
              </g>
            </g>
          </g>
          <g id="layout::caption.10-5-10-5.1" class="viewport"/>
          <g id="layout::tag.2-2-2-2.1" class="viewport"/>
        </g>
      </g>
    </g>
  </g>
</svg>