<?xml version="1.0" encoding="UTF-8"?>
<svg xmlns="http://www.w3.org/2000/svg" xmlns:xlink="http://www.w3.org/1999/xlink" width="504px" height="504px" viewBox="0 0 504 504" version="1.1">
  <metadata xmlns:gridsvg="http://www.stat.auckland.ac.nz/~paul/R/gridSVG/">
    <gridsvg:generator name="gridSVG" version="1.6-0" time="2019-01-14 15:59:49"/>
    <gridsvg:argument name="name" value="./latest_informaggio_csv/risultati/svg/anagrafica-totali-annocorso.svg"/>
    <gridsvg:argument name="exportCoords" value="none"/>
    <gridsvg:argument name="exportMappings" value="none"/>
    <gridsvg:argument name="exportJS" value="none"/>
    <gridsvg:argument name="res" value="72"/>
    <gridsvg:argument name="prefix" value=""/>
    <gridsvg:argument name="addClasses" value="TRUE"/>
    <gridsvg:argument name="indent" value="TRUE"/>
    <gridsvg:argument name="htmlWrapper" value="FALSE"/>
    <gridsvg:argument name="usePaths" value="vpPaths"/>
    <gridsvg:argument name="uniqueNames" value="TRUE"/>
    <gridsvg:separator name="id.sep" value="."/>
    <gridsvg:separator name="gPath.sep" value="::"/>
    <gridsvg:separator name="vpPath.sep" value="::"/>
  </metadata>
  <g transform="translate(0, 504) scale(1, -1)">
    <g id="gridSVG" fill="none" stroke="rgb(0,0,0)" stroke-dasharray="none" stroke-width="0.75" font-size="12" font-family="Helvetica, Arial, FreeSans, Liberation Sans, Nimbus Sans L, sans-serif" opacity="1" stroke-linecap="round" stroke-linejoin="round" stroke-miterlimit="10" stroke-opacity="1" fill-opacity="0" font-weight="normal" font-style="normal">
      <g id="layout.1" class="viewport">
        <g id="layout.2" class="forcedgrob gtable gTree grob gDesc">
          <defs>
            <clipPath id="layout::background.1-11-12-1.1.clipPath">
              <rect x="0" y="25.61" width="504" height="452.77" fill="none" stroke="none"/>
            </clipPath>
          </defs>
          <g id="layout::background.1-11-12-1.1" clip-path="url(#layout::background.1-11-12-1.1.clipPath)" class="viewport">
            <g id="background.1-11-12-1.1" class="forcedgrob gTableChild rect grob gDesc">
              <rect id="background.1-11-12-1.1.1" x="0" y="25.61" width="504" height="452.77" transform="" stroke-width="1.07" stroke="rgb(255,255,255)" fill="rgb(255,255,255)" stroke-dasharray="none" stroke-opacity="1" fill-opacity="1"/>
            </g>
          </g>
          <defs>
            <clipPath id="layout::panel.7-5-7-5.1.clipPath">
              <rect x="8.22" y="33.83" width="421.62" height="421.62" fill="none" stroke="none"/>
            </clipPath>
          </defs>
          <g id="layout::panel.7-5-7-5.1" clip-path="url(#layout::panel.7-5-7-5.1.clipPath)" class="viewport">
            <g id="panel.7-5-7-5.1" class="forcedgrob gTableChild gTree grob gDesc">
              <g id="grill.gTree.712.1" class="gTree grob gDesc">
                <g id="panel.background..rect.708.1" class="rect grob gDesc">
                  <rect id="panel.background..rect.708.1.1" x="8.22" y="33.83" width="421.62" height="421.62" transform="" stroke-width="1.07" stroke="none" fill="rgb(255,255,255)" stroke-dasharray="none" stroke-opacity="0" fill-opacity="1"/>
                </g>
              </g>
              <g id="bar.gTree.701.1" class="gTree grob gDesc">
                <g id="geom_polygon.polygon.693.1" class="polygon grob gDesc">
                  <polygon id="geom_polygon.polygon.693.1.1" points="219.03,244.64 223.63,241.08 228.22,237.52 232.82,233.95 237.41,230.39 242.01,226.83 246.61,223.26 251.2,219.7 255.8,216.14 260.39,212.57 264.99,209.01 269.59,205.45 274.18,201.88 278.78,198.32 283.37,194.76 287.97,191.19 292.57,187.63 297.16,184.07 301.76,180.5 306.35,176.94 310.95,173.38 315.55,169.82 320.14,166.25 324.74,162.69 329.33,159.13 333.93,155.56 338.53,152 343.12,148.44 347.72,144.87 352.31,141.31 355.78,145.94 359.08,150.69 362.23,155.55 365.2,160.52 368,165.58 370.62,170.74 373.07,175.98 375.33,181.31 377.41,186.71 379.31,192.17 381.01,197.7 382.53,203.29 383.85,208.92 384.98,214.6 385.91,220.31 386.65,226.05 387.19,231.81 387.53,237.58 387.67,243.37 387.62,249.15 387.36,254.93 386.91,260.7 386.26,266.45 385.42,272.18 384.37,277.87 383.14,283.52 381.71,289.13 380.08,294.68 378.27,300.18 376.27,305.61 374.09,310.97 371.72,316.25 369.18,321.44 366.45,326.55 363.56,331.56 360.49,336.47 357.26,341.26 353.86,345.95 350.31,350.51 346.6,354.96 342.74,359.27 338.73,363.44 334.59,367.48 330.3,371.37 325.89,375.11 321.35,378.7 316.69,382.14 311.92,385.4 307.04,388.51 302.05,391.44 296.96,394.2 291.79,396.79 286.52,399.2 281.18,401.42 275.77,403.46 270.29,405.31 264.74,406.98 259.15,408.45 253.51,409.73 247.82,410.82 242.1,411.71 236.36,412.4 230.59,412.89 224.82,413.19 219.03,413.29 219.03,407.48 219.03,401.66 219.03,395.85 219.03,390.03 219.03,384.21 219.03,378.4 219.03,372.58 219.03,366.77 219.03,360.95 219.03,355.14 219.03,349.32 219.03,343.51 219.03,337.69 219.03,331.88 219.03,326.06 219.03,320.24 219.03,314.43 219.03,308.61 219.03,302.8 219.03,296.98 219.03,291.17 219.03,285.35 219.03,279.54 219.03,273.72 219.03,267.9 219.03,262.09 219.03,256.27 219.03,250.46 219.03,244.64 219.03,244.64" stroke="none" fill="rgb(199,124,255)" stroke-width="1.07" stroke-dasharray="none" stroke-opacity="0" fill-opacity="1"/>
                </g>
                <g id="geom_polygon.polygon.695.1" class="polygon grob gDesc">
                  <polygon id="geom_polygon.polygon.695.1.1" points="219.03,244.64 214.19,241.42 209.35,238.2 204.51,234.97 199.67,231.75 194.83,228.52 189.99,225.3 185.15,222.08 180.31,218.85 175.47,215.63 170.63,212.41 165.79,209.18 160.95,205.96 156.11,202.74 151.27,199.51 146.43,196.29 141.59,193.06 136.75,189.84 131.91,186.62 127.07,183.39 122.23,180.17 117.39,176.95 112.54,173.72 107.7,170.5 102.86,167.28 98.02,164.05 93.18,160.83 88.34,157.6 83.5,154.38 78.66,151.16 81.91,146.46 85.31,141.88 88.86,137.42 92.56,133.07 96.41,128.86 100.39,124.78 104.51,120.84 108.77,117.03 113.15,113.38 117.65,109.87 122.26,106.52 126.99,103.32 131.82,100.29 136.76,97.42 141.78,94.73 146.9,92.2 152.1,89.85 157.37,87.67 162.72,85.67 168.12,83.86 173.59,82.23 179.11,80.79 184.68,79.53 190.28,78.46 195.92,77.59 201.58,76.9 207.27,76.41 212.96,76.1 218.67,76 224.37,76.08 230.07,76.36 235.76,76.83 241.42,77.49 247.07,78.34 252.67,79.38 258.25,80.62 263.77,82.04 269.25,83.64 274.66,85.43 280.02,87.41 285.3,89.56 290.51,91.89 295.63,94.4 300.67,97.07 305.62,99.92 310.46,102.93 315.2,106.1 319.83,109.44 324.35,112.92 328.74,116.56 333.01,120.35 337.15,124.27 341.16,128.34 345.02,132.53 348.74,136.86 352.31,141.31 347.72,144.87 343.12,148.44 338.53,152 333.93,155.56 329.33,159.13 324.74,162.69 320.14,166.25 315.55,169.82 310.95,173.38 306.35,176.94 301.76,180.5 297.16,184.07 292.57,187.63 287.97,191.19 283.37,194.76 278.78,198.32 274.18,201.88 269.59,205.45 264.99,209.01 260.39,212.57 255.8,216.14 251.2,219.7 246.61,223.26 242.01,226.83 237.41,230.39 232.82,233.95 228.22,237.52 223.63,241.08 219.03,244.64 219.03,244.64" stroke="none" fill="rgb(0,191,196)" stroke-width="1.07" stroke-dasharray="none" stroke-opacity="0" fill-opacity="1"/>
                </g>
                <g id="geom_polygon.polygon.697.1" class="polygon grob gDesc">
                  <polygon id="geom_polygon.polygon.697.1.1" points="219.03,244.64 217.38,250.22 215.73,255.8 214.08,261.37 212.43,266.95 210.78,272.52 209.13,278.1 207.48,283.68 205.83,289.25 204.17,294.83 202.52,300.41 200.87,305.98 199.22,311.56 197.57,317.14 195.92,322.71 194.27,328.29 192.62,333.86 190.97,339.44 189.32,345.02 187.67,350.59 186.02,356.17 184.37,361.75 182.72,367.32 181.07,372.9 179.42,378.47 177.77,384.05 176.12,389.63 174.46,395.2 172.81,400.78 171.16,406.36 165.69,404.64 160.28,402.73 154.94,400.64 149.67,398.37 144.49,395.92 139.39,393.3 134.38,390.51 129.47,387.54 124.66,384.42 119.96,381.13 115.38,377.68 110.91,374.08 106.57,370.33 102.37,366.43 98.29,362.39 94.36,358.22 90.57,353.91 86.93,349.48 83.44,344.93 80.11,340.26 76.94,335.48 73.93,330.6 71.09,325.61 68.42,320.54 65.93,315.37 63.61,310.12 61.48,304.8 59.52,299.41 57.75,293.95 56.17,288.44 54.77,282.88 53.57,277.27 52.55,271.62 51.73,265.95 51.1,260.25 50.67,254.53 50.43,248.8 50.39,243.06 50.54,237.33 50.89,231.6 51.43,225.89 52.16,220.21 53.09,214.55 54.21,208.92 55.52,203.34 57.02,197.8 58.7,192.32 60.58,186.9 62.63,181.54 64.87,176.26 67.28,171.06 69.87,165.94 72.63,160.91 75.57,155.98 78.66,151.16 83.5,154.38 88.34,157.6 93.18,160.83 98.02,164.05 102.86,167.28 107.7,170.5 112.54,173.72 117.39,176.95 122.23,180.17 127.07,183.39 131.91,186.62 136.75,189.84 141.59,193.06 146.43,196.29 151.27,199.51 156.11,202.74 160.95,205.96 165.79,209.18 170.63,212.41 175.47,215.63 180.31,218.85 185.15,222.08 189.99,225.3 194.83,228.52 199.67,231.75 204.51,234.97 209.35,238.2 214.19,241.42 219.03,244.64 219.03,244.64" stroke="none" fill="rgb(124,174,0)" stroke-width="1.07" stroke-dasharray="none" stroke-opacity="0" fill-opacity="1"/>
                </g>
                <g id="geom_polygon.polygon.699.1" class="polygon grob gDesc">
                  <polygon id="geom_polygon.polygon.699.1.1" points="219.03,244.64 219.03,250.46 219.03,256.27 219.03,262.09 219.03,267.9 219.03,273.72 219.03,279.54 219.03,285.35 219.03,291.17 219.03,296.98 219.03,302.8 219.03,308.61 219.03,314.43 219.03,320.24 219.03,326.06 219.03,331.88 219.03,337.69 219.03,343.51 219.03,349.32 219.03,355.14 219.03,360.95 219.03,366.77 219.03,372.58 219.03,378.4 219.03,384.21 219.03,390.03 219.03,395.85 219.03,401.66 219.03,407.48 219.03,413.29 212.96,413.18 206.91,412.86 200.86,412.31 194.85,411.55 188.86,410.57 182.91,409.38 177.01,407.97 171.16,406.36 172.81,400.78 174.46,395.2 176.12,389.63 177.77,384.05 179.42,378.47 181.07,372.9 182.72,367.32 184.37,361.75 186.02,356.17 187.67,350.59 189.32,345.02 190.97,339.44 192.62,333.86 194.27,328.29 195.92,322.71 197.57,317.14 199.22,311.56 200.87,305.98 202.52,300.41 204.17,294.83 205.83,289.25 207.48,283.68 209.13,278.1 210.78,272.52 212.43,266.95 214.08,261.37 215.73,255.8 217.38,250.22 219.03,244.64 219.03,244.64" stroke="none" fill="rgb(248,118,109)" stroke-width="1.07" stroke-dasharray="none" stroke-opacity="0" fill-opacity="1"/>
                </g>
              </g>
              <g id="GRID.text.702.1" class="text grob gDesc">
                <g id="GRID.text.702.1.1" transform="translate(294.75, 281.75)" stroke-width="0.1">
                  <g id="GRID.text.702.1.1.scale" transform="scale(1, -1)">
                    <text x="0" y="0" id="GRID.text.702.1.1.text" text-anchor="middle" stroke="rgb(0,0,0)" font-size="11.04" font-family="Helvetica, Arial, FreeSans, Liberation Sans, Nimbus Sans L, sans-serif" fill="rgb(0,0,0)" stroke-opacity="1" fill-opacity="1" font-weight="normal" font-style="normal">
                      <tspan id="GRID.text.702.1.1.tspan.1" dy="3.95" x="0">93</tspan>
                    </text>
                  </g>
                </g>
                <g id="GRID.text.702.1.2" transform="translate(216, 160.37)" stroke-width="0.1">
                  <g id="GRID.text.702.1.2.scale" transform="scale(1, -1)">
                    <text x="0" y="0" id="GRID.text.702.1.2.text" text-anchor="middle" stroke="rgb(0,0,0)" font-size="11.04" font-family="Helvetica, Arial, FreeSans, Liberation Sans, Nimbus Sans L, sans-serif" fill="rgb(0,0,0)" stroke-opacity="1" fill-opacity="1" font-weight="normal" font-style="normal">
                      <tspan id="GRID.text.702.1.2.tspan.1" dy="3.95" x="0">79</tspan>
                    </text>
                  </g>
                </g>
                <g id="GRID.text.702.1.3" transform="translate(139.75, 273.38)" stroke-width="0.1">
                  <g id="GRID.text.702.1.3.scale" transform="scale(1, -1)">
                    <text x="0" y="0" id="GRID.text.702.1.3.text" text-anchor="middle" stroke="rgb(0,0,0)" font-size="11.04" font-family="Helvetica, Arial, FreeSans, Liberation Sans, Nimbus Sans L, sans-serif" fill="rgb(0,0,0)" stroke-opacity="1" fill-opacity="1" font-weight="normal" font-style="normal">
                      <tspan id="GRID.text.702.1.3.tspan.1" dy="3.95" x="0">78</tspan>
                    </text>
                  </g>
                </g>
                <g id="GRID.text.702.1.4" transform="translate(206.94, 328.1)" stroke-width="0.1">
                  <g id="GRID.text.702.1.4.scale" transform="scale(1, -1)">
                    <text x="0" y="0" id="GRID.text.702.1.4.text" text-anchor="middle" stroke="rgb(0,0,0)" font-size="11.04" font-family="Helvetica, Arial, FreeSans, Liberation Sans, Nimbus Sans L, sans-serif" fill="rgb(0,0,0)" stroke-opacity="1" fill-opacity="1" font-weight="normal" font-style="normal">
                      <tspan id="GRID.text.702.1.4.tspan.1" dy="3.95" x="0">12</tspan>
                    </text>
                  </g>
                </g>
              </g>
              <g id="GRID.gTree.703.1" class="gTree grob gDesc"/>
            </g>
          </g>
          <g id="layout::spacer.8-6-8-6.1" class="viewport"/>
          <g id="layout::spacer.8-4-8-4.1" class="viewport"/>
          <g id="layout::spacer.6-6-6-6.1" class="viewport"/>
          <g id="layout::spacer.6-4-6-4.1" class="viewport"/>
          <g id="layout::axis-t.6-5-6-5.1" class="viewport"/>
          <g id="layout::axis-l.7-4-7-4.1" class="viewport">
            <g id="layout::axis-l.7-4-7-4::GRID.VP.170.1" class="viewport">
              <g id="axis-l.7-4-7-4.1" class="forcedgrob gTableChild absoluteGrob gTree grob gDesc">
                <g id="layout::axis-l.7-4-7-4::GRID.VP.170::axis.1" class="viewport">
                  <g id="axis.1" class="forcedgrob gtable gTree grob gDesc">
                    <g id="layout::axis-l.7-4-7-4::GRID.VP.170::axis::axis.1-1-1-1.1" class="viewport"/>
                    <g id="layout::axis-l.7-4-7-4::GRID.VP.170::axis::axis.1-2-1-2.1" class="viewport"/>
                  </g>
                </g>
              </g>
            </g>
          </g>
          <g id="layout::axis-r.7-6-7-6.1" class="viewport"/>
          <g id="layout::axis-b.8-5-8-5.1" class="viewport">
            <g id="layout::axis-b.8-5-8-5::GRID.VP.169.1" class="viewport">
              <g id="axis-b.8-5-8-5.1" class="forcedgrob gTableChild absoluteGrob gTree grob gDesc">
                <g id="layout::axis-b.8-5-8-5::GRID.VP.169::axis.1" class="viewport">
                  <g id="axis.2" class="forcedgrob gtable gTree grob gDesc">
                    <g id="layout::axis-b.8-5-8-5::GRID.VP.169::axis::axis.1-1-1-1.1" class="viewport"/>
                    <g id="layout::axis-b.8-5-8-5::GRID.VP.169::axis::axis.2-1-2-1.1" class="viewport"/>
                  </g>
                </g>
              </g>
            </g>
          </g>
          <g id="layout::xlab-t.5-5-5-5.1" class="viewport"/>
          <g id="layout::xlab-b.9-5-9-5.1" class="viewport"/>
          <g id="layout::ylab-l.7-3-7-3.1" class="viewport"/>
          <g id="layout::ylab-r.7-7-7-7.1" class="viewport"/>
          <g id="layout::guide-box.7-9-7-9.1" class="viewport">
            <g id="layout::guide-box.7-9-7-9::GRID.VP.184.1" class="viewport">
              <g id="layout::guide-box.7-9-7-9::GRID.VP.184::guide-box.7-9-7-9.1" class="viewport">
                <g id="guide-box.7-9-7-9.1" class="forcedgrob gTableChild gtable gTree grob gDesc">
                  <g id="layout::guide-box.7-9-7-9::GRID.VP.184::guide-box.7-9-7-9::legend.box.background.2-4-4-2.1" class="viewport"/>
                  <g id="layout::guide-box.7-9-7-9::GRID.VP.184::guide-box.7-9-7-9::guides.3-3-3-3.1" class="viewport">
                    <g id="layout::guide-box.7-9-7-9::GRID.VP.184::guide-box.7-9-7-9::guides.3-3-3-3::GRID.VP.183.1" class="viewport">
                      <g id="layout::guide-box.7-9-7-9::GRID.VP.184::guide-box.7-9-7-9::guides.3-3-3-3::GRID.VP.183::guides.3-3-3-3.1" class="viewport">
                        <g id="guides.3-3-3-3.1" class="forcedgrob gTableChild gtable gTree grob gDesc">
                          <g id="layout::guide-box.7-9-7-9::GRID.VP.184::guide-box.7-9-7-9::guides.3-3-3-3::GRID.VP.183::guides.3-3-3-3::background.1-6-8-1.1" class="viewport">
                            <g id="background.1-6-8-1.1" class="forcedgrob gTableChild rect grob gDesc">
                              <rect id="background.1-6-8-1.1.1" x="440.8" y="201.86" width="57.72" height="85.56" transform="" stroke-width="1.07" stroke="none" fill="rgb(255,255,255)" stroke-dasharray="none" stroke-opacity="0" fill-opacity="1"/>
                            </g>
                          </g>
                          <g id="layout::guide-box.7-9-7-9::GRID.VP.184::guide-box.7-9-7-9::guides.3-3-3-3::GRID.VP.183::guides.3-3-3-3::title.2-5-2-2.1" class="viewport"/>
                          <g id="layout::guide-box.7-9-7-9::GRID.VP.184::guide-box.7-9-7-9::guides.3-3-3-3::GRID.VP.183::guides.3-3-3-3::key-3-1-bg.4-2-4-2.1" class="viewport"/>
                          <g id="layout::guide-box.7-9-7-9::GRID.VP.184::guide-box.7-9-7-9::guides.3-3-3-3::GRID.VP.183::guides.3-3-3-3::key-3-1-1.4-2-4-2.1" class="viewport">
                            <g id="key-3-1-1.4-2-4-2.1" class="forcedgrob gTableChild rect grob gDesc">
                              <rect id="key-3-1-1.4-2-4-2.1.1" x="446.99" y="259.89" width="15.86" height="15.86" transform="" stroke="none" fill="rgb(248,118,109)" stroke-dasharray="none" stroke-width="1.07" stroke-linejoin="miter" stroke-opacity="0" fill-opacity="1"/>
                            </g>
                          </g>
                          <g id="layout::guide-box.7-9-7-9::GRID.VP.184::guide-box.7-9-7-9::guides.3-3-3-3::GRID.VP.183::guides.3-3-3-3::key-4-1-bg.5-2-5-2.1" class="viewport"/>
                          <g id="layout::guide-box.7-9-7-9::GRID.VP.184::guide-box.7-9-7-9::guides.3-3-3-3::GRID.VP.183::guides.3-3-3-3::key-4-1-1.5-2-5-2.1" class="viewport">
                            <g id="key-4-1-1.5-2-5-2.1" class="forcedgrob gTableChild rect grob gDesc">
                              <rect id="key-4-1-1.5-2-5-2.1.1" x="446.99" y="242.61" width="15.86" height="15.86" transform="" stroke="none" fill="rgb(124,174,0)" stroke-dasharray="none" stroke-width="1.07" stroke-linejoin="miter" stroke-opacity="0" fill-opacity="1"/>
                            </g>
                          </g>
                          <g id="layout::guide-box.7-9-7-9::GRID.VP.184::guide-box.7-9-7-9::guides.3-3-3-3::GRID.VP.183::guides.3-3-3-3::key-5-1-bg.6-2-6-2.1" class="viewport"/>
                          <g id="layout::guide-box.7-9-7-9::GRID.VP.184::guide-box.7-9-7-9::guides.3-3-3-3::GRID.VP.183::guides.3-3-3-3::key-5-1-1.6-2-6-2.1" class="viewport">
                            <g id="key-5-1-1.6-2-6-2.1" class="forcedgrob gTableChild rect grob gDesc">
                              <rect id="key-5-1-1.6-2-6-2.1.1" x="446.99" y="225.33" width="15.86" height="15.86" transform="" stroke="none" fill="rgb(0,191,196)" stroke-dasharray="none" stroke-width="1.07" stroke-linejoin="miter" stroke-opacity="0" fill-opacity="1"/>
                            </g>
                          </g>
                          <g id="layout::guide-box.7-9-7-9::GRID.VP.184::guide-box.7-9-7-9::guides.3-3-3-3::GRID.VP.183::guides.3-3-3-3::key-6-1-bg.7-2-7-2.1" class="viewport"/>
                          <g id="layout::guide-box.7-9-7-9::GRID.VP.184::guide-box.7-9-7-9::guides.3-3-3-3::GRID.VP.183::guides.3-3-3-3::key-6-1-1.7-2-7-2.1" class="viewport">
                            <g id="key-6-1-1.7-2-7-2.1" class="forcedgrob gTableChild rect grob gDesc">
                              <rect id="key-6-1-1.7-2-7-2.1.1" x="446.99" y="208.05" width="15.86" height="15.86" transform="" stroke="none" fill="rgb(199,124,255)" stroke-dasharray="none" stroke-width="1.07" stroke-linejoin="miter" stroke-opacity="0" fill-opacity="1"/>
                            </g>
                          </g>
                          <g id="layout::guide-box.7-9-7-9::GRID.VP.184::guide-box.7-9-7-9::guides.3-3-3-3::GRID.VP.183::guides.3-3-3-3::label-3-3.4-4-4-4.1" class="viewport">
                            <g id="layout::guide-box.7-9-7-9::GRID.VP.184::guide-box.7-9-7-9::guides.3-3-3-3::GRID.VP.183::guides.3-3-3-3::label-3-3.4-4-4-4::GRID.VP.179.1" class="viewport">
                              <g id="label-3-3.4-4-4-4.1" class="forcedgrob gTableChild gTree grob gDesc">
                                <g id="layout::guide-box.7-9-7-9::GRID.VP.184::guide-box.7-9-7-9::guides.3-3-3-3::GRID.VP.183::guides.3-3-3-3::label-3-3.4-4-4-4::GRID.VP.179::GRID.VP.171.1" font-size="8.8" stroke="rgb(0,0,0)" font-family="Helvetica, Arial, FreeSans, Liberation Sans, Nimbus Sans L, sans-serif" stroke-opacity="1" font-weight="normal" font-style="normal" class="viewport">
                                  <g id="layout::guide-box.7-9-7-9::GRID.VP.184::guide-box.7-9-7-9::guides.3-3-3-3::GRID.VP.183::guides.3-3-3-3::label-3-3.4-4-4-4::GRID.VP.179::GRID.VP.171::GRID.VP.172.1" class="viewport">
                                    <g id="guide.label.titleGrob.726.1" class="titleGrob gTree grob gDesc">
                                      <g id="GRID.text.724.1" class="text grob gDesc">
                                        <g id="GRID.text.724.1.1" transform="translate(469.04, 267.82)" stroke-width="0.1">
                                          <g id="GRID.text.724.1.1.scale" transform="scale(1, -1)">
                                            <text x="0" y="0" id="GRID.text.724.1.1.text" text-anchor="start" font-size="8.8" stroke="rgb(0,0,0)" font-family="Helvetica, Arial, FreeSans, Liberation Sans, Nimbus Sans L, sans-serif" fill="rgb(0,0,0)" stroke-opacity="1" fill-opacity="1" font-weight="normal" font-style="normal">
                                              <tspan id="GRID.text.724.1.1.tspan.1" dy="3.23" x="0">F (12)</tspan>
                                            </text>
                                          </g>
                                        </g>
                                      </g>
                                    </g>
                                  </g>
                                </g>
                              </g>
                            </g>
                          </g>
                          <g id="layout::guide-box.7-9-7-9::GRID.VP.184::guide-box.7-9-7-9::guides.3-3-3-3::GRID.VP.183::guides.3-3-3-3::label-4-3.5-4-5-4.1" class="viewport">
                            <g id="layout::guide-box.7-9-7-9::GRID.VP.184::guide-box.7-9-7-9::guides.3-3-3-3::GRID.VP.183::guides.3-3-3-3::label-4-3.5-4-5-4::GRID.VP.180.1" class="viewport">
                              <g id="label-4-3.5-4-5-4.1" class="forcedgrob gTableChild gTree grob gDesc">
                                <g id="layout::guide-box.7-9-7-9::GRID.VP.184::guide-box.7-9-7-9::guides.3-3-3-3::GRID.VP.183::guides.3-3-3-3::label-4-3.5-4-5-4::GRID.VP.180::GRID.VP.173.1" font-size="8.8" stroke="rgb(0,0,0)" font-family="Helvetica, Arial, FreeSans, Liberation Sans, Nimbus Sans L, sans-serif" stroke-opacity="1" font-weight="normal" font-style="normal" class="viewport">
                                  <g id="layout::guide-box.7-9-7-9::GRID.VP.184::guide-box.7-9-7-9::guides.3-3-3-3::GRID.VP.183::guides.3-3-3-3::label-4-3.5-4-5-4::GRID.VP.180::GRID.VP.173::GRID.VP.174.1" class="viewport">
                                    <g id="guide.label.titleGrob.729.1" class="titleGrob gTree grob gDesc">
                                      <g id="GRID.text.727.1" class="text grob gDesc">
                                        <g id="GRID.text.727.1.1" transform="translate(469.04, 250.54)" stroke-width="0.1">
                                          <g id="GRID.text.727.1.1.scale" transform="scale(1, -1)">
                                            <text x="0" y="0" id="GRID.text.727.1.1.text" text-anchor="start" font-size="8.8" stroke="rgb(0,0,0)" font-family="Helvetica, Arial, FreeSans, Liberation Sans, Nimbus Sans L, sans-serif" fill="rgb(0,0,0)" stroke-opacity="1" fill-opacity="1" font-weight="normal" font-style="normal">
                                              <tspan id="GRID.text.727.1.1.tspan.1" dy="3.23" x="0">2 (78)</tspan>
                                            </text>
                                          </g>
                                        </g>
                                      </g>
                                    </g>
                                  </g>
                                </g>
                              </g>
                            </g>
                          </g>
                          <g id="layout::guide-box.7-9-7-9::GRID.VP.184::guide-box.7-9-7-9::guides.3-3-3-3::GRID.VP.183::guides.3-3-3-3::label-5-3.6-4-6-4.1" class="viewport">
                            <g id="layout::guide-box.7-9-7-9::GRID.VP.184::guide-box.7-9-7-9::guides.3-3-3-3::GRID.VP.183::guides.3-3-3-3::label-5-3.6-4-6-4::GRID.VP.181.1" class="viewport">
                              <g id="label-5-3.6-4-6-4.1" class="forcedgrob gTableChild gTree grob gDesc">
                                <g id="layout::guide-box.7-9-7-9::GRID.VP.184::guide-box.7-9-7-9::guides.3-3-3-3::GRID.VP.183::guides.3-3-3-3::label-5-3.6-4-6-4::GRID.VP.181::GRID.VP.175.1" font-size="8.8" stroke="rgb(0,0,0)" font-family="Helvetica, Arial, FreeSans, Liberation Sans, Nimbus Sans L, sans-serif" stroke-opacity="1" font-weight="normal" font-style="normal" class="viewport">
                                  <g id="layout::guide-box.7-9-7-9::GRID.VP.184::guide-box.7-9-7-9::guides.3-3-3-3::GRID.VP.183::guides.3-3-3-3::label-5-3.6-4-6-4::GRID.VP.181::GRID.VP.175::GRID.VP.176.1" class="viewport">
                                    <g id="guide.label.titleGrob.732.1" class="titleGrob gTree grob gDesc">
                                      <g id="GRID.text.730.1" class="text grob gDesc">
                                        <g id="GRID.text.730.1.1" transform="translate(469.04, 233.26)" stroke-width="0.1">
                                          <g id="GRID.text.730.1.1.scale" transform="scale(1, -1)">
                                            <text x="0" y="0" id="GRID.text.730.1.1.text" text-anchor="start" font-size="8.8" stroke="rgb(0,0,0)" font-family="Helvetica, Arial, FreeSans, Liberation Sans, Nimbus Sans L, sans-serif" fill="rgb(0,0,0)" stroke-opacity="1" fill-opacity="1" font-weight="normal" font-style="normal">
                                              <tspan id="GRID.text.730.1.1.tspan.1" dy="3.23" x="0">3 (79)</tspan>
                                            </text>
                                          </g>
                                        </g>
                                      </g>
                                    </g>
                                  </g>
                                </g>
                              </g>
                            </g>
                          </g>
                          <g id="layout::guide-box.7-9-7-9::GRID.VP.184::guide-box.7-9-7-9::guides.3-3-3-3::GRID.VP.183::guides.3-3-3-3::label-6-3.7-4-7-4.1" class="viewport">
                            <g id="layout::guide-box.7-9-7-9::GRID.VP.184::guide-box.7-9-7-9::guides.3-3-3-3::GRID.VP.183::guides.3-3-3-3::label-6-3.7-4-7-4::GRID.VP.182.1" class="viewport">
                              <g id="label-6-3.7-4-7-4.1" class="forcedgrob gTableChild gTree grob gDesc">
                                <g id="layout::guide-box.7-9-7-9::GRID.VP.184::guide-box.7-9-7-9::guides.3-3-3-3::GRID.VP.183::guides.3-3-3-3::label-6-3.7-4-7-4::GRID.VP.182::GRID.VP.177.1" font-size="8.8" stroke="rgb(0,0,0)" font-family="Helvetica, Arial, FreeSans, Liberation Sans, Nimbus Sans L, sans-serif" stroke-opacity="1" font-weight="normal" font-style="normal" class="viewport">
                                  <g id="layout::guide-box.7-9-7-9::GRID.VP.184::guide-box.7-9-7-9::guides.3-3-3-3::GRID.VP.183::guides.3-3-3-3::label-6-3.7-4-7-4::GRID.VP.182::GRID.VP.177::GRID.VP.178.1" class="viewport">
                                    <g id="guide.label.titleGrob.735.1" class="titleGrob gTree grob gDesc">
                                      <g id="GRID.text.733.1" class="text grob gDesc">
                                        <g id="GRID.text.733.1.1" transform="translate(469.04, 215.98)" stroke-width="0.1">
                                          <g id="GRID.text.733.1.1.scale" transform="scale(1, -1)">
                                            <text x="0" y="0" id="GRID.text.733.1.1.text" text-anchor="start" font-size="8.8" stroke="rgb(0,0,0)" font-family="Helvetica, Arial, FreeSans, Liberation Sans, Nimbus Sans L, sans-serif" fill="rgb(0,0,0)" stroke-opacity="1" fill-opacity="1" font-weight="normal" font-style="normal">
                                              <tspan id="GRID.text.733.1.1.tspan.1" dy="3.23" x="0">1 (93)</tspan>
                                            </text>
                                          </g>
                                        </g>
                                      </g>
                                    </g>
                                  </g>
                                </g>
                              </g>
                            </g>
                          </g>
                        </g>
                      </g>
                    </g>
                  </g>
                </g>
              </g>
            </g>
          </g>
          <g id="layout::subtitle.4-5-4-5.1" class="viewport"/>
          <g id="layout::title.3-5-3-5.1" class="viewport">
            <g id="layout::title.3-5-3-5::GRID.VP.185.1" font-size="13.2" stroke="rgb(102,102,102)" font-family="Helvetica, Arial, FreeSans, Liberation Sans, Nimbus Sans L, sans-serif" stroke-opacity="1" font-weight="normal" font-style="normal" class="viewport">
              <g id="layout::title.3-5-3-5::GRID.VP.185::GRID.VP.186.1" class="viewport">
                <g id="title.3-5-3-5.1" class="forcedgrob gTableChild titleGrob gTree grob gDesc">
                  <g id="GRID.text.750.1" class="text grob gDesc">
                    <g id="GRID.text.750.1.1" transform="translate(219.03, 472.91)" stroke-width="0.1">
                      <g id="GRID.text.750.1.1.scale" transform="scale(1, -1)">
                        <text x="0" y="0" id="GRID.text.750.1.1.text" text-anchor="middle" font-size="13.2" stroke="rgb(102,102,102)" font-family="Helvetica, Arial, FreeSans, Liberation Sans, Nimbus Sans L, sans-serif" fill="rgb(102,102,102)" stroke-opacity="1" fill-opacity="1" font-weight="normal" font-style="normal">
                          <tspan id="GRID.text.750.1.1.tspan.1" dy="9.33" x="0">anagrafica totali-annocorso</tspan>
                        </text>
                      </g>
                    </g>
                  </g>
                </g>
              </g>
            </g>
          </g>
          <g id="layout::caption.10-5-10-5.1" class="viewport"/>
          <g id="layout::tag.2-2-2-2.1" class="viewport"/>
        </g>
      </g>
    </g>
  </g>
</svg>