<?xml version="1.0" encoding="UTF-8"?>
<svg xmlns="http://www.w3.org/2000/svg" xmlns:xlink="http://www.w3.org/1999/xlink" width="504px" height="504px" viewBox="0 0 504 504" version="1.1">
  <metadata xmlns:gridsvg="http://www.stat.auckland.ac.nz/~paul/R/gridSVG/">
    <gridsvg:generator name="gridSVG" version="1.6-0" time="2019-01-15 00:28:34"/>
    <gridsvg:argument name="name" value="./latest_informaggio_csv/risultati/svg/anagrafica-sicurezza.svg"/>
    <gridsvg:argument name="exportCoords" value="none"/>
    <gridsvg:argument name="exportMappings" value="none"/>
    <gridsvg:argument name="exportJS" value="none"/>
    <gridsvg:argument name="res" value="72"/>
    <gridsvg:argument name="prefix" value=""/>
    <gridsvg:argument name="addClasses" value="TRUE"/>
    <gridsvg:argument name="indent" value="TRUE"/>
    <gridsvg:argument name="htmlWrapper" value="FALSE"/>
    <gridsvg:argument name="usePaths" value="vpPaths"/>
    <gridsvg:argument name="uniqueNames" value="TRUE"/>
    <gridsvg:separator name="id.sep" value="."/>
    <gridsvg:separator name="gPath.sep" value="::"/>
    <gridsvg:separator name="vpPath.sep" value="::"/>
  </metadata>
  <g transform="translate(0, 504) scale(1, -1)">
    <g id="gridSVG" fill="none" stroke="rgb(0,0,0)" stroke-dasharray="none" stroke-width="0.75" font-size="12" font-family="Helvetica, Arial, FreeSans, Liberation Sans, Nimbus Sans L, sans-serif" opacity="1" stroke-linecap="round" stroke-linejoin="round" stroke-miterlimit="10" stroke-opacity="1" fill-opacity="0" font-weight="normal" font-style="normal">
      <g id="layout.1" class="viewport">
        <g id="layout.2" class="forcedgrob gtable gTree grob gDesc">
          <defs>
            <clipPath id="layout::background.1-11-12-1.1.clipPath">
              <rect x="0" y="40.92" width="504" height="422.16" fill="none" stroke="none"/>
            </clipPath>
          </defs>
          <g id="layout::background.1-11-12-1.1" clip-path="url(#layout::background.1-11-12-1.1.clipPath)" class="viewport">
            <g id="background.1-11-12-1.1" class="forcedgrob gTableChild rect grob gDesc">
              <rect id="background.1-11-12-1.1.1" x="0" y="40.92" width="504" height="422.16" transform="" stroke-width="1.07" stroke="rgb(255,255,255)" fill="rgb(255,255,255)" stroke-dasharray="none" stroke-opacity="1" fill-opacity="1"/>
            </g>
          </g>
          <defs>
            <clipPath id="layout::panel.7-5-7-5.1.clipPath">
              <rect x="8.22" y="49.14" width="391" height="391" fill="none" stroke="none"/>
            </clipPath>
          </defs>
          <g id="layout::panel.7-5-7-5.1" clip-path="url(#layout::panel.7-5-7-5.1.clipPath)" class="viewport">
            <g id="panel.7-5-7-5.1" class="forcedgrob gTableChild gTree grob gDesc">
              <g id="grill.gTree.3545.1" class="gTree grob gDesc">
                <g id="panel.background..rect.3541.1" class="rect grob gDesc">
                  <rect id="panel.background..rect.3541.1.1" x="8.22" y="49.14" width="391" height="391" transform="" stroke-width="1.07" stroke="none" fill="rgb(255,255,255)" stroke-dasharray="none" stroke-opacity="0" fill-opacity="1"/>
                </g>
              </g>
              <g id="bar.gTree.3534.1" class="gTree grob gDesc">
                <g id="geom_polygon.polygon.3524.1" class="polygon grob gDesc">
                  <polygon id="geom_polygon.polygon.3524.1.1" points="203.72,244.64 205.14,239.44 206.56,234.24 207.98,229.04 209.4,223.83 210.83,218.63 212.25,213.43 213.67,208.23 215.09,203.02 216.51,197.82 217.93,192.62 219.35,187.41 220.77,182.21 222.19,177.01 223.61,171.81 225.04,166.6 226.46,161.4 227.88,156.2 229.3,151 230.72,145.79 232.14,140.59 233.56,135.39 234.98,130.19 236.4,124.98 237.82,119.78 239.25,114.58 240.67,109.38 242.09,104.17 243.51,98.97 244.93,93.77 250.07,95.27 255.15,96.94 260.18,98.79 265.13,100.8 270.02,102.99 274.83,105.34 279.55,107.86 284.19,110.53 288.73,113.36 293.18,116.35 297.51,119.49 301.74,122.77 305.85,126.19 309.85,129.76 313.72,133.46 317.46,137.29 321.06,141.24 324.53,145.32 327.86,149.51 331.04,153.81 334.08,158.22 336.96,162.73 339.68,167.34 342.25,172.04 344.65,176.82 346.89,181.68 348.96,186.62 350.86,191.62 352.59,196.69 354.14,201.81 355.52,206.98 356.72,212.2 357.74,217.46 358.58,222.74 359.24,228.05 359.72,233.39 360.01,238.73 360.12,244.08 360.05,249.43 359.79,254.78 359.35,260.12 358.73,265.43 357.93,270.72 356.95,275.99 355.79,281.21 354.45,286.39 352.93,291.53 351.24,296.6 349.37,301.62 347.34,306.57 345.14,311.45 342.77,316.25 340.23,320.97 337.54,325.59 334.69,330.13 331.69,334.56 328.54,338.88 325.24,343.1 321.8,347.2 318.22,351.18 314.51,355.04 310.67,358.76 306.7,362.36 302.61,365.81 298.41,369.12 294.09,372.29 289.67,375.31 285.15,378.17 280.53,380.88 275.83,383.43 271.04,385.82 266.17,388.04 261.22,390.09 256.21,391.97 251.14,393.68 246.01,395.22 240.83,396.58 235.61,397.76 230.36,398.76 225.07,399.58 219.75,400.22 214.42,400.68 209.07,400.95 203.72,401.04 203.72,395.65 203.72,390.26 203.72,384.86 203.72,379.47 203.72,374.08 203.72,368.69 203.72,363.29 203.72,357.9 203.72,352.51 203.72,347.11 203.72,341.72 203.72,336.33 203.72,330.93 203.72,325.54 203.72,320.15 203.72,314.75 203.72,309.36 203.72,303.97 203.72,298.57 203.72,293.18 203.72,287.79 203.72,282.4 203.72,277 203.72,271.61 203.72,266.22 203.72,260.82 203.72,255.43 203.72,250.04 203.72,244.64 203.72,244.64" stroke="none" fill="rgb(231,107,243)" stroke-width="1.07" stroke-dasharray="none" stroke-opacity="0" fill-opacity="1"/>
                </g>
                <g id="geom_polygon.polygon.3526.1" class="polygon grob gDesc">
                  <polygon id="geom_polygon.polygon.3526.1.1" points="203.72,244.64 200.08,248.62 196.43,252.59 192.79,256.57 189.14,260.55 185.5,264.52 181.86,268.5 178.21,272.47 174.57,276.45 170.92,280.42 167.28,284.4 163.63,288.38 159.99,292.35 156.35,296.33 152.7,300.3 149.06,304.28 145.41,308.25 141.77,312.23 138.13,316.2 134.48,320.18 130.84,324.16 127.19,328.13 123.55,332.11 119.9,336.08 116.26,340.06 112.62,344.03 108.97,348.01 105.33,351.99 101.68,355.96 98.04,359.94 94.16,356.26 90.41,352.45 86.79,348.51 83.31,344.46 79.97,340.28 76.77,336 73.72,331.61 70.83,327.11 68.09,322.52 65.51,317.84 63.08,313.07 60.83,308.23 58.74,303.31 56.82,298.32 55.07,293.27 53.49,288.16 52.1,283 50.87,277.79 49.83,272.55 48.97,267.27 48.28,261.97 47.78,256.65 47.46,251.31 47.33,245.97 47.37,240.62 47.6,235.28 48.01,229.95 48.6,224.64 49.38,219.35 50.33,214.09 51.47,208.86 52.78,203.68 54.27,198.55 55.93,193.47 57.77,188.44 59.77,183.49 61.95,178.6 64.29,173.8 66.79,169.07 69.45,164.44 72.27,159.9 75.24,155.45 78.37,151.11 81.64,146.88 85.05,142.77 88.6,138.77 92.29,134.9 96.1,131.16 100.04,127.54 104.1,124.07 108.28,120.74 112.57,117.55 116.97,114.51 121.47,111.62 126.06,108.88 130.75,106.31 135.52,103.9 140.37,101.65 145.29,99.56 150.29,97.65 155.34,95.91 160.45,94.35 165.61,92.96 170.82,91.74 176.07,90.71 181.34,89.85 186.65,89.18 191.97,88.68 197.31,88.37 202.65,88.25 208,88.3 213.34,88.54 218.67,88.96 223.98,89.56 229.27,90.34 234.53,91.31 239.75,92.45 244.93,93.77 243.51,98.97 242.09,104.17 240.67,109.38 239.25,114.58 237.82,119.78 236.4,124.98 234.98,130.19 233.56,135.39 232.14,140.59 230.72,145.79 229.3,151 227.88,156.2 226.46,161.4 225.04,166.6 223.61,171.81 222.19,177.01 220.77,182.21 219.35,187.41 217.93,192.62 216.51,197.82 215.09,203.02 213.67,208.23 212.25,213.43 210.83,218.63 209.4,223.83 207.98,229.04 206.56,234.24 205.14,239.44 203.72,244.64 203.72,244.64" stroke="none" fill="rgb(0,176,246)" stroke-width="1.07" stroke-dasharray="none" stroke-opacity="0" fill-opacity="1"/>
                </g>
                <g id="geom_polygon.polygon.3528.1" class="polygon grob gDesc">
                  <polygon id="geom_polygon.polygon.3528.1.1" points="203.72,244.64 202.36,249.86 201,255.08 199.64,260.3 198.28,265.52 196.92,270.74 195.56,275.96 194.2,281.17 192.84,286.39 191.48,291.61 190.11,296.83 188.75,302.05 187.39,307.27 186.03,312.49 184.67,317.7 183.31,322.92 181.95,328.14 180.59,333.36 179.23,338.58 177.87,343.8 176.51,349.02 175.15,354.24 173.79,359.45 172.43,364.67 171.07,369.89 169.71,375.11 168.35,380.33 166.98,385.55 165.62,390.77 164.26,395.99 159.03,394.52 153.84,392.88 148.72,391.05 143.66,389.05 138.67,386.88 133.77,384.53 128.95,382.01 124.22,379.33 119.58,376.48 115.05,373.48 110.62,370.32 106.31,367 102.11,363.54 98.04,359.94 101.68,355.96 105.33,351.99 108.97,348.01 112.62,344.03 116.26,340.06 119.9,336.08 123.55,332.11 127.19,328.13 130.84,324.16 134.48,320.18 138.13,316.2 141.77,312.23 145.41,308.25 149.06,304.28 152.7,300.3 156.35,296.33 159.99,292.35 163.63,288.38 167.28,284.4 170.92,280.42 174.57,276.45 178.21,272.47 181.86,268.5 185.5,264.52 189.14,260.55 192.79,256.57 196.43,252.59 200.08,248.62 203.72,244.64 203.72,244.64" stroke="none" fill="rgb(0,191,125)" stroke-width="1.07" stroke-dasharray="none" stroke-opacity="0" fill-opacity="1"/>
                </g>
                <g id="geom_polygon.polygon.3530.1" class="polygon grob gDesc">
                  <polygon id="geom_polygon.polygon.3530.1.1" points="203.72,244.64 203.22,250.01 202.72,255.38 202.22,260.75 201.72,266.12 201.22,271.49 200.72,276.86 200.22,282.23 199.73,287.6 199.23,292.97 198.73,298.34 198.23,303.71 197.73,309.08 197.23,314.45 196.73,319.82 196.23,325.19 195.73,330.56 195.23,335.93 194.73,341.3 194.23,346.67 193.73,352.04 193.23,357.41 192.73,362.78 192.23,368.15 191.73,373.52 191.23,378.89 190.74,384.26 190.24,389.63 189.74,395 189.24,400.37 182.93,399.66 176.66,398.69 170.43,397.46 164.26,395.99 165.62,390.77 166.98,385.55 168.35,380.33 169.71,375.11 171.07,369.89 172.43,364.67 173.79,359.45 175.15,354.24 176.51,349.02 177.87,343.8 179.23,338.58 180.59,333.36 181.95,328.14 183.31,322.92 184.67,317.7 186.03,312.49 187.39,307.27 188.75,302.05 190.11,296.83 191.48,291.61 192.84,286.39 194.2,281.17 195.56,275.96 196.92,270.74 198.28,265.52 199.64,260.3 201,255.08 202.36,249.86 203.72,244.64 203.72,244.64" stroke="none" fill="rgb(163,165,0)" stroke-width="1.07" stroke-dasharray="none" stroke-opacity="0" fill-opacity="1"/>
                </g>
                <g id="geom_polygon.polygon.3532.1" class="polygon grob gDesc">
                  <polygon id="geom_polygon.polygon.3532.1.1" points="203.72,244.64 203.72,250.04 203.72,255.43 203.72,260.82 203.72,266.22 203.72,271.61 203.72,277 203.72,282.4 203.72,287.79 203.72,293.18 203.72,298.57 203.72,303.97 203.72,309.36 203.72,314.75 203.72,320.15 203.72,325.54 203.72,330.93 203.72,336.33 203.72,341.72 203.72,347.11 203.72,352.51 203.72,357.9 203.72,363.29 203.72,368.69 203.72,374.08 203.72,379.47 203.72,384.86 203.72,390.26 203.72,395.65 203.72,401.04 196.47,400.88 189.24,400.37 189.74,395 190.24,389.63 190.74,384.26 191.23,378.89 191.73,373.52 192.23,368.15 192.73,362.78 193.23,357.41 193.73,352.04 194.23,346.67 194.73,341.3 195.23,335.93 195.73,330.56 196.23,325.19 196.73,319.82 197.23,314.45 197.73,309.08 198.23,303.71 198.73,298.34 199.23,292.97 199.73,287.6 200.22,282.23 200.72,276.86 201.22,271.49 201.72,266.12 202.22,260.75 202.72,255.38 203.22,250.01 203.72,244.64 203.72,244.64" stroke="none" fill="rgb(248,118,109)" stroke-width="1.07" stroke-dasharray="none" stroke-opacity="0" fill-opacity="1"/>
                </g>
              </g>
              <g id="GRID.text.3535.1" class="text grob gDesc">
                <g id="GRID.text.3535.1.1" transform="translate(281.23, 255.04)" stroke-width="0.1">
                  <g id="GRID.text.3535.1.1.scale" transform="scale(1, -1)">
                    <text x="0" y="0" id="GRID.text.3535.1.1.text" text-anchor="middle" stroke="rgb(0,0,0)" font-size="11.04" font-family="Helvetica, Arial, FreeSans, Liberation Sans, Nimbus Sans L, sans-serif" fill="rgb(0,0,0)" stroke-opacity="1" fill-opacity="1" font-weight="normal" font-style="normal">
                      <tspan id="GRID.text.3535.1.1.tspan.1" dy="3.95" x="0">124</tspan>
                    </text>
                  </g>
                </g>
                <g id="GRID.text.3535.1.2" transform="translate(135.25, 206.86)" stroke-width="0.1">
                  <g id="GRID.text.3535.1.2.scale" transform="scale(1, -1)">
                    <text x="0" y="0" id="GRID.text.3535.1.2.text" text-anchor="middle" stroke="rgb(0,0,0)" font-size="11.04" font-family="Helvetica, Arial, FreeSans, Liberation Sans, Nimbus Sans L, sans-serif" fill="rgb(0,0,0)" stroke-opacity="1" fill-opacity="1" font-weight="normal" font-style="normal">
                      <tspan id="GRID.text.3535.1.2.tspan.1" dy="3.95" x="0">115</tspan>
                    </text>
                  </g>
                </g>
                <g id="GRID.text.3535.1.3" transform="translate(166.33, 313.33)" stroke-width="0.1">
                  <g id="GRID.text.3535.1.3.scale" transform="scale(1, -1)">
                    <text x="0" y="0" id="GRID.text.3535.1.3.text" text-anchor="middle" stroke="rgb(0,0,0)" font-size="11.04" font-family="Helvetica, Arial, FreeSans, Liberation Sans, Nimbus Sans L, sans-serif" fill="rgb(0,0,0)" stroke-opacity="1" fill-opacity="1" font-weight="normal" font-style="normal">
                      <tspan id="GRID.text.3535.1.3.tspan.1" dy="3.95" x="0">21</tspan>
                    </text>
                  </g>
                </g>
                <g id="GRID.text.3535.1.4" transform="translate(190.19, 321.66)" stroke-width="0.1">
                  <g id="GRID.text.3535.1.4.scale" transform="scale(1, -1)">
                    <text x="0" y="0" id="GRID.text.3535.1.4.text" text-anchor="middle" stroke="rgb(0,0,0)" font-size="11.04" font-family="Helvetica, Arial, FreeSans, Liberation Sans, Nimbus Sans L, sans-serif" fill="rgb(0,0,0)" stroke-opacity="1" fill-opacity="1" font-weight="normal" font-style="normal">
                      <tspan id="GRID.text.3535.1.4.tspan.1" dy="3.95" x="0">7</tspan>
                    </text>
                  </g>
                </g>
                <g id="GRID.text.3535.1.5" transform="translate(200.1, 322.76)" stroke-width="0.1">
                  <g id="GRID.text.3535.1.5.scale" transform="scale(1, -1)">
                    <text x="0" y="0" id="GRID.text.3535.1.5.text" text-anchor="middle" stroke="rgb(0,0,0)" font-size="11.04" font-family="Helvetica, Arial, FreeSans, Liberation Sans, Nimbus Sans L, sans-serif" fill="rgb(0,0,0)" stroke-opacity="1" fill-opacity="1" font-weight="normal" font-style="normal">
                      <tspan id="GRID.text.3535.1.5.tspan.1" dy="3.95" x="0">4</tspan>
                    </text>
                  </g>
                </g>
              </g>
              <g id="GRID.gTree.3536.1" class="gTree grob gDesc"/>
            </g>
          </g>
          <g id="layout::spacer.8-6-8-6.1" class="viewport"/>
          <g id="layout::spacer.8-4-8-4.1" class="viewport"/>
          <g id="layout::spacer.6-6-6-6.1" class="viewport"/>
          <g id="layout::spacer.6-4-6-4.1" class="viewport"/>
          <g id="layout::axis-t.6-5-6-5.1" class="viewport"/>
          <g id="layout::axis-l.7-4-7-4.1" class="viewport">
            <g id="layout::axis-l.7-4-7-4::GRID.VP.848.1" class="viewport">
              <g id="axis-l.7-4-7-4.1" class="forcedgrob gTableChild absoluteGrob gTree grob gDesc">
                <g id="layout::axis-l.7-4-7-4::GRID.VP.848::axis.1" class="viewport">
                  <g id="axis.1" class="forcedgrob gtable gTree grob gDesc">
                    <g id="layout::axis-l.7-4-7-4::GRID.VP.848::axis::axis.1-1-1-1.1" class="viewport"/>
                    <g id="layout::axis-l.7-4-7-4::GRID.VP.848::axis::axis.1-2-1-2.1" class="viewport"/>
                  </g>
                </g>
              </g>
            </g>
          </g>
          <g id="layout::axis-r.7-6-7-6.1" class="viewport"/>
          <g id="layout::axis-b.8-5-8-5.1" class="viewport">
            <g id="layout::axis-b.8-5-8-5::GRID.VP.847.1" class="viewport">
              <g id="axis-b.8-5-8-5.1" class="forcedgrob gTableChild absoluteGrob gTree grob gDesc">
                <g id="layout::axis-b.8-5-8-5::GRID.VP.847::axis.1" class="viewport">
                  <g id="axis.2" class="forcedgrob gtable gTree grob gDesc">
                    <g id="layout::axis-b.8-5-8-5::GRID.VP.847::axis::axis.1-1-1-1.1" class="viewport"/>
                    <g id="layout::axis-b.8-5-8-5::GRID.VP.847::axis::axis.2-1-2-1.1" class="viewport"/>
                  </g>
                </g>
              </g>
            </g>
          </g>
          <g id="layout::xlab-t.5-5-5-5.1" class="viewport"/>
          <g id="layout::xlab-b.9-5-9-5.1" class="viewport"/>
          <g id="layout::ylab-l.7-3-7-3.1" class="viewport"/>
          <g id="layout::ylab-r.7-7-7-7.1" class="viewport"/>
          <g id="layout::guide-box.7-9-7-9.1" class="viewport">
            <g id="layout::guide-box.7-9-7-9::GRID.VP.865.1" class="viewport">
              <g id="layout::guide-box.7-9-7-9::GRID.VP.865::guide-box.7-9-7-9.1" class="viewport">
                <g id="guide-box.7-9-7-9.1" class="forcedgrob gTableChild gtable gTree grob gDesc">
                  <g id="layout::guide-box.7-9-7-9::GRID.VP.865::guide-box.7-9-7-9::legend.box.background.2-4-4-2.1" class="viewport"/>
                  <g id="layout::guide-box.7-9-7-9::GRID.VP.865::guide-box.7-9-7-9::guides.3-3-3-3.1" class="viewport">
                    <g id="layout::guide-box.7-9-7-9::GRID.VP.865::guide-box.7-9-7-9::guides.3-3-3-3::GRID.VP.864.1" class="viewport">
                      <g id="layout::guide-box.7-9-7-9::GRID.VP.865::guide-box.7-9-7-9::guides.3-3-3-3::GRID.VP.864::guides.3-3-3-3.1" class="viewport">
                        <g id="guides.3-3-3-3.1" class="forcedgrob gTableChild gtable gTree grob gDesc">
                          <g id="layout::guide-box.7-9-7-9::GRID.VP.865::guide-box.7-9-7-9::guides.3-3-3-3::GRID.VP.864::guides.3-3-3-3::background.1-6-9-1.1" class="viewport">
                            <g id="background.1-6-9-1.1" class="forcedgrob gTableChild rect grob gDesc">
                              <rect id="background.1-6-9-1.1.1" x="410.18" y="193.22" width="88.34" height="102.84" transform="" stroke-width="1.07" stroke="none" fill="rgb(255,255,255)" stroke-dasharray="none" stroke-opacity="0" fill-opacity="1"/>
                            </g>
                          </g>
                          <g id="layout::guide-box.7-9-7-9::GRID.VP.865::guide-box.7-9-7-9::guides.3-3-3-3::GRID.VP.864::guides.3-3-3-3::title.2-5-2-2.1" class="viewport"/>
                          <g id="layout::guide-box.7-9-7-9::GRID.VP.865::guide-box.7-9-7-9::guides.3-3-3-3::GRID.VP.864::guides.3-3-3-3::key-3-1-bg.4-2-4-2.1" class="viewport"/>
                          <g id="layout::guide-box.7-9-7-9::GRID.VP.865::guide-box.7-9-7-9::guides.3-3-3-3::GRID.VP.864::guides.3-3-3-3::key-3-1-1.4-2-4-2.1" class="viewport">
                            <g id="key-3-1-1.4-2-4-2.1" class="forcedgrob gTableChild rect grob gDesc">
                              <rect id="key-3-1-1.4-2-4-2.1.1" x="416.37" y="268.53" width="15.86" height="15.86" transform="" stroke="none" fill="rgb(248,118,109)" stroke-dasharray="none" stroke-width="1.07" stroke-linejoin="miter" stroke-opacity="0" fill-opacity="1"/>
                            </g>
                          </g>
                          <g id="layout::guide-box.7-9-7-9::GRID.VP.865::guide-box.7-9-7-9::guides.3-3-3-3::GRID.VP.864::guides.3-3-3-3::key-4-1-bg.5-2-5-2.1" class="viewport"/>
                          <g id="layout::guide-box.7-9-7-9::GRID.VP.865::guide-box.7-9-7-9::guides.3-3-3-3::GRID.VP.864::guides.3-3-3-3::key-4-1-1.5-2-5-2.1" class="viewport">
                            <g id="key-4-1-1.5-2-5-2.1" class="forcedgrob gTableChild rect grob gDesc">
                              <rect id="key-4-1-1.5-2-5-2.1.1" x="416.37" y="251.25" width="15.86" height="15.86" transform="" stroke="none" fill="rgb(163,165,0)" stroke-dasharray="none" stroke-width="1.07" stroke-linejoin="miter" stroke-opacity="0" fill-opacity="1"/>
                            </g>
                          </g>
                          <g id="layout::guide-box.7-9-7-9::GRID.VP.865::guide-box.7-9-7-9::guides.3-3-3-3::GRID.VP.864::guides.3-3-3-3::key-5-1-bg.6-2-6-2.1" class="viewport"/>
                          <g id="layout::guide-box.7-9-7-9::GRID.VP.865::guide-box.7-9-7-9::guides.3-3-3-3::GRID.VP.864::guides.3-3-3-3::key-5-1-1.6-2-6-2.1" class="viewport">
                            <g id="key-5-1-1.6-2-6-2.1" class="forcedgrob gTableChild rect grob gDesc">
                              <rect id="key-5-1-1.6-2-6-2.1.1" x="416.37" y="233.97" width="15.86" height="15.86" transform="" stroke="none" fill="rgb(0,191,125)" stroke-dasharray="none" stroke-width="1.07" stroke-linejoin="miter" stroke-opacity="0" fill-opacity="1"/>
                            </g>
                          </g>
                          <g id="layout::guide-box.7-9-7-9::GRID.VP.865::guide-box.7-9-7-9::guides.3-3-3-3::GRID.VP.864::guides.3-3-3-3::key-6-1-bg.7-2-7-2.1" class="viewport"/>
                          <g id="layout::guide-box.7-9-7-9::GRID.VP.865::guide-box.7-9-7-9::guides.3-3-3-3::GRID.VP.864::guides.3-3-3-3::key-6-1-1.7-2-7-2.1" class="viewport">
                            <g id="key-6-1-1.7-2-7-2.1" class="forcedgrob gTableChild rect grob gDesc">
                              <rect id="key-6-1-1.7-2-7-2.1.1" x="416.37" y="216.69" width="15.86" height="15.86" transform="" stroke="none" fill="rgb(0,176,246)" stroke-dasharray="none" stroke-width="1.07" stroke-linejoin="miter" stroke-opacity="0" fill-opacity="1"/>
                            </g>
                          </g>
                          <g id="layout::guide-box.7-9-7-9::GRID.VP.865::guide-box.7-9-7-9::guides.3-3-3-3::GRID.VP.864::guides.3-3-3-3::key-7-1-bg.8-2-8-2.1" class="viewport"/>
                          <g id="layout::guide-box.7-9-7-9::GRID.VP.865::guide-box.7-9-7-9::guides.3-3-3-3::GRID.VP.864::guides.3-3-3-3::key-7-1-1.8-2-8-2.1" class="viewport">
                            <g id="key-7-1-1.8-2-8-2.1" class="forcedgrob gTableChild rect grob gDesc">
                              <rect id="key-7-1-1.8-2-8-2.1.1" x="416.37" y="199.41" width="15.86" height="15.86" transform="" stroke="none" fill="rgb(231,107,243)" stroke-dasharray="none" stroke-width="1.07" stroke-linejoin="miter" stroke-opacity="0" fill-opacity="1"/>
                            </g>
                          </g>
                          <g id="layout::guide-box.7-9-7-9::GRID.VP.865::guide-box.7-9-7-9::guides.3-3-3-3::GRID.VP.864::guides.3-3-3-3::label-3-3.4-4-4-4.1" class="viewport">
                            <g id="layout::guide-box.7-9-7-9::GRID.VP.865::guide-box.7-9-7-9::guides.3-3-3-3::GRID.VP.864::guides.3-3-3-3::label-3-3.4-4-4-4::GRID.VP.859.1" class="viewport">
                              <g id="label-3-3.4-4-4-4.1" class="forcedgrob gTableChild gTree grob gDesc">
                                <g id="layout::guide-box.7-9-7-9::GRID.VP.865::guide-box.7-9-7-9::guides.3-3-3-3::GRID.VP.864::guides.3-3-3-3::label-3-3.4-4-4-4::GRID.VP.859::GRID.VP.849.1" font-size="8.8" stroke="rgb(0,0,0)" font-family="Helvetica, Arial, FreeSans, Liberation Sans, Nimbus Sans L, sans-serif" stroke-opacity="1" font-weight="normal" font-style="normal" class="viewport">
                                  <g id="layout::guide-box.7-9-7-9::GRID.VP.865::guide-box.7-9-7-9::guides.3-3-3-3::GRID.VP.864::guides.3-3-3-3::label-3-3.4-4-4-4::GRID.VP.859::GRID.VP.849::GRID.VP.850.1" class="viewport">
                                    <g id="guide.label.titleGrob.3559.1" class="titleGrob gTree grob gDesc">
                                      <g id="GRID.text.3557.1" class="text grob gDesc">
                                        <g id="GRID.text.3557.1.1" transform="translate(438.42, 276.46)" stroke-width="0.1">
                                          <g id="GRID.text.3557.1.1.scale" transform="scale(1, -1)">
                                            <text x="0" y="0" id="GRID.text.3557.1.1.text" text-anchor="start" font-size="8.8" stroke="rgb(0,0,0)" font-family="Helvetica, Arial, FreeSans, Liberation Sans, Nimbus Sans L, sans-serif" fill="rgb(0,0,0)" stroke-opacity="1" fill-opacity="1" font-weight="normal" font-style="normal">
                                              <tspan id="GRID.text.3557.1.1.tspan.1" dy="3.23" x="0">tutto (4)</tspan>
                                            </text>
                                          </g>
                                        </g>
                                      </g>
                                    </g>
                                  </g>
                                </g>
                              </g>
                            </g>
                          </g>
                          <g id="layout::guide-box.7-9-7-9::GRID.VP.865::guide-box.7-9-7-9::guides.3-3-3-3::GRID.VP.864::guides.3-3-3-3::label-4-3.5-4-5-4.1" class="viewport">
                            <g id="layout::guide-box.7-9-7-9::GRID.VP.865::guide-box.7-9-7-9::guides.3-3-3-3::GRID.VP.864::guides.3-3-3-3::label-4-3.5-4-5-4::GRID.VP.860.1" class="viewport">
                              <g id="label-4-3.5-4-5-4.1" class="forcedgrob gTableChild gTree grob gDesc">
                                <g id="layout::guide-box.7-9-7-9::GRID.VP.865::guide-box.7-9-7-9::guides.3-3-3-3::GRID.VP.864::guides.3-3-3-3::label-4-3.5-4-5-4::GRID.VP.860::GRID.VP.851.1" font-size="8.8" stroke="rgb(0,0,0)" font-family="Helvetica, Arial, FreeSans, Liberation Sans, Nimbus Sans L, sans-serif" stroke-opacity="1" font-weight="normal" font-style="normal" class="viewport">
                                  <g id="layout::guide-box.7-9-7-9::GRID.VP.865::guide-box.7-9-7-9::guides.3-3-3-3::GRID.VP.864::guides.3-3-3-3::label-4-3.5-4-5-4::GRID.VP.860::GRID.VP.851::GRID.VP.852.1" class="viewport">
                                    <g id="guide.label.titleGrob.3562.1" class="titleGrob gTree grob gDesc">
                                      <g id="GRID.text.3560.1" class="text grob gDesc">
                                        <g id="GRID.text.3560.1.1" transform="translate(438.42, 259.18)" stroke-width="0.1">
                                          <g id="GRID.text.3560.1.1.scale" transform="scale(1, -1)">
                                            <text x="0" y="0" id="GRID.text.3560.1.1.text" text-anchor="start" font-size="8.8" stroke="rgb(0,0,0)" font-family="Helvetica, Arial, FreeSans, Liberation Sans, Nimbus Sans L, sans-serif" fill="rgb(0,0,0)" stroke-opacity="1" fill-opacity="1" font-weight="normal" font-style="normal">
                                              <tspan id="GRID.text.3560.1.1.tspan.1" dy="3.23" x="0">nessuno (7)</tspan>
                                            </text>
                                          </g>
                                        </g>
                                      </g>
                                    </g>
                                  </g>
                                </g>
                              </g>
                            </g>
                          </g>
                          <g id="layout::guide-box.7-9-7-9::GRID.VP.865::guide-box.7-9-7-9::guides.3-3-3-3::GRID.VP.864::guides.3-3-3-3::label-5-3.6-4-6-4.1" class="viewport">
                            <g id="layout::guide-box.7-9-7-9::GRID.VP.865::guide-box.7-9-7-9::guides.3-3-3-3::GRID.VP.864::guides.3-3-3-3::label-5-3.6-4-6-4::GRID.VP.861.1" class="viewport">
                              <g id="label-5-3.6-4-6-4.1" class="forcedgrob gTableChild gTree grob gDesc">
                                <g id="layout::guide-box.7-9-7-9::GRID.VP.865::guide-box.7-9-7-9::guides.3-3-3-3::GRID.VP.864::guides.3-3-3-3::label-5-3.6-4-6-4::GRID.VP.861::GRID.VP.853.1" font-size="8.8" stroke="rgb(0,0,0)" font-family="Helvetica, Arial, FreeSans, Liberation Sans, Nimbus Sans L, sans-serif" stroke-opacity="1" font-weight="normal" font-style="normal" class="viewport">
                                  <g id="layout::guide-box.7-9-7-9::GRID.VP.865::guide-box.7-9-7-9::guides.3-3-3-3::GRID.VP.864::guides.3-3-3-3::label-5-3.6-4-6-4::GRID.VP.861::GRID.VP.853::GRID.VP.854.1" class="viewport">
                                    <g id="guide.label.titleGrob.3565.1" class="titleGrob gTree grob gDesc">
                                      <g id="GRID.text.3563.1" class="text grob gDesc">
                                        <g id="GRID.text.3563.1.1" transform="translate(438.42, 241.9)" stroke-width="0.1">
                                          <g id="GRID.text.3563.1.1.scale" transform="scale(1, -1)">
                                            <text x="0" y="0" id="GRID.text.3563.1.1.text" text-anchor="start" font-size="8.8" stroke="rgb(0,0,0)" font-family="Helvetica, Arial, FreeSans, Liberation Sans, Nimbus Sans L, sans-serif" fill="rgb(0,0,0)" stroke-opacity="1" fill-opacity="1" font-weight="normal" font-style="normal">
                                              <tspan id="GRID.text.3563.1.1.tspan.1" dy="3.23" x="0">avanzato (21)</tspan>
                                            </text>
                                          </g>
                                        </g>
                                      </g>
                                    </g>
                                  </g>
                                </g>
                              </g>
                            </g>
                          </g>
                          <g id="layout::guide-box.7-9-7-9::GRID.VP.865::guide-box.7-9-7-9::guides.3-3-3-3::GRID.VP.864::guides.3-3-3-3::label-6-3.7-4-7-4.1" class="viewport">
                            <g id="layout::guide-box.7-9-7-9::GRID.VP.865::guide-box.7-9-7-9::guides.3-3-3-3::GRID.VP.864::guides.3-3-3-3::label-6-3.7-4-7-4::GRID.VP.862.1" class="viewport">
                              <g id="label-6-3.7-4-7-4.1" class="forcedgrob gTableChild gTree grob gDesc">
                                <g id="layout::guide-box.7-9-7-9::GRID.VP.865::guide-box.7-9-7-9::guides.3-3-3-3::GRID.VP.864::guides.3-3-3-3::label-6-3.7-4-7-4::GRID.VP.862::GRID.VP.855.1" font-size="8.8" stroke="rgb(0,0,0)" font-family="Helvetica, Arial, FreeSans, Liberation Sans, Nimbus Sans L, sans-serif" stroke-opacity="1" font-weight="normal" font-style="normal" class="viewport">
                                  <g id="layout::guide-box.7-9-7-9::GRID.VP.865::guide-box.7-9-7-9::guides.3-3-3-3::GRID.VP.864::guides.3-3-3-3::label-6-3.7-4-7-4::GRID.VP.862::GRID.VP.855::GRID.VP.856.1" class="viewport">
                                    <g id="guide.label.titleGrob.3568.1" class="titleGrob gTree grob gDesc">
                                      <g id="GRID.text.3566.1" class="text grob gDesc">
                                        <g id="GRID.text.3566.1.1" transform="translate(438.42, 224.62)" stroke-width="0.1">
                                          <g id="GRID.text.3566.1.1.scale" transform="scale(1, -1)">
                                            <text x="0" y="0" id="GRID.text.3566.1.1.text" text-anchor="start" font-size="8.8" stroke="rgb(0,0,0)" font-family="Helvetica, Arial, FreeSans, Liberation Sans, Nimbus Sans L, sans-serif" fill="rgb(0,0,0)" stroke-opacity="1" fill-opacity="1" font-weight="normal" font-style="normal">
                                              <tspan id="GRID.text.3566.1.1.tspan.1" dy="3.23" x="0">base (115)</tspan>
                                            </text>
                                          </g>
                                        </g>
                                      </g>
                                    </g>
                                  </g>
                                </g>
                              </g>
                            </g>
                          </g>
                          <g id="layout::guide-box.7-9-7-9::GRID.VP.865::guide-box.7-9-7-9::guides.3-3-3-3::GRID.VP.864::guides.3-3-3-3::label-7-3.8-4-8-4.1" class="viewport">
                            <g id="layout::guide-box.7-9-7-9::GRID.VP.865::guide-box.7-9-7-9::guides.3-3-3-3::GRID.VP.864::guides.3-3-3-3::label-7-3.8-4-8-4::GRID.VP.863.1" class="viewport">
                              <g id="label-7-3.8-4-8-4.1" class="forcedgrob gTableChild gTree grob gDesc">
                                <g id="layout::guide-box.7-9-7-9::GRID.VP.865::guide-box.7-9-7-9::guides.3-3-3-3::GRID.VP.864::guides.3-3-3-3::label-7-3.8-4-8-4::GRID.VP.863::GRID.VP.857.1" font-size="8.8" stroke="rgb(0,0,0)" font-family="Helvetica, Arial, FreeSans, Liberation Sans, Nimbus Sans L, sans-serif" stroke-opacity="1" font-weight="normal" font-style="normal" class="viewport">
                                  <g id="layout::guide-box.7-9-7-9::GRID.VP.865::guide-box.7-9-7-9::guides.3-3-3-3::GRID.VP.864::guides.3-3-3-3::label-7-3.8-4-8-4::GRID.VP.863::GRID.VP.857::GRID.VP.858.1" class="viewport">
                                    <g id="guide.label.titleGrob.3571.1" class="titleGrob gTree grob gDesc">
                                      <g id="GRID.text.3569.1" class="text grob gDesc">
                                        <g id="GRID.text.3569.1.1" transform="translate(438.42, 207.34)" stroke-width="0.1">
                                          <g id="GRID.text.3569.1.1.scale" transform="scale(1, -1)">
                                            <text x="0" y="0" id="GRID.text.3569.1.1.text" text-anchor="start" font-size="8.8" stroke="rgb(0,0,0)" font-family="Helvetica, Arial, FreeSans, Liberation Sans, Nimbus Sans L, sans-serif" fill="rgb(0,0,0)" stroke-opacity="1" fill-opacity="1" font-weight="normal" font-style="normal">
                                              <tspan id="GRID.text.3569.1.1.tspan.1" dy="3.23" x="0">medio (124)</tspan>
                                            </text>
                                          </g>
                                        </g>
                                      </g>
                                    </g>
                                  </g>
                                </g>
                              </g>
                            </g>
                          </g>
                        </g>
                      </g>
                    </g>
                  </g>
                </g>
              </g>
            </g>
          </g>
          <g id="layout::subtitle.4-5-4-5.1" class="viewport"/>
          <g id="layout::title.3-5-3-5.1" class="viewport">
            <g id="layout::title.3-5-3-5::GRID.VP.866.1" font-size="13.2" stroke="rgb(102,102,102)" font-family="Helvetica, Arial, FreeSans, Liberation Sans, Nimbus Sans L, sans-serif" stroke-opacity="1" font-weight="normal" font-style="normal" class="viewport">
              <g id="layout::title.3-5-3-5::GRID.VP.866::GRID.VP.867.1" class="viewport">
                <g id="title.3-5-3-5.1" class="forcedgrob gTableChild titleGrob gTree grob gDesc">
                  <g id="GRID.text.3589.1" class="text grob gDesc">
                    <g id="GRID.text.3589.1.1" transform="translate(203.72, 457.6)" stroke-width="0.1">
                      <g id="GRID.text.3589.1.1.scale" transform="scale(1, -1)">
                        <text x="0" y="0" id="GRID.text.3589.1.1.text" text-anchor="middle" font-size="13.2" stroke="rgb(102,102,102)" font-family="Helvetica, Arial, FreeSans, Liberation Sans, Nimbus Sans L, sans-serif" fill="rgb(102,102,102)" stroke-opacity="1" fill-opacity="1" font-weight="normal" font-style="normal">
                          <tspan id="GRID.text.3589.1.1.tspan.1" dy="9.33" x="0">anagrafica sicurezza</tspan>
                        </text>
                      </g>
                    </g>
                  </g>
                </g>
              </g>
            </g>
          </g>
          <g id="layout::caption.10-5-10-5.1" class="viewport"/>
          <g id="layout::tag.2-2-2-2.1" class="viewport"/>
        </g>
      </g>
    </g>
  </g>
</svg>