<?xml version="1.0" encoding="UTF-8"?>
<svg xmlns="http://www.w3.org/2000/svg" xmlns:xlink="http://www.w3.org/1999/xlink" width="504px" height="504px" viewBox="0 0 504 504" version="1.1">
  <metadata xmlns:gridsvg="http://www.stat.auckland.ac.nz/~paul/R/gridSVG/">
    <gridsvg:generator name="gridSVG" version="1.6-0" time="2019-01-14 19:37:51"/>
    <gridsvg:argument name="name" value="./latest_informaggio_csv/risultati/svg/anagrafica-creazionecontenuti.svg"/>
    <gridsvg:argument name="exportCoords" value="none"/>
    <gridsvg:argument name="exportMappings" value="none"/>
    <gridsvg:argument name="exportJS" value="none"/>
    <gridsvg:argument name="res" value="72"/>
    <gridsvg:argument name="prefix" value=""/>
    <gridsvg:argument name="addClasses" value="TRUE"/>
    <gridsvg:argument name="indent" value="TRUE"/>
    <gridsvg:argument name="htmlWrapper" value="FALSE"/>
    <gridsvg:argument name="usePaths" value="vpPaths"/>
    <gridsvg:argument name="uniqueNames" value="TRUE"/>
    <gridsvg:separator name="id.sep" value="."/>
    <gridsvg:separator name="gPath.sep" value="::"/>
    <gridsvg:separator name="vpPath.sep" value="::"/>
  </metadata>
  <g transform="translate(0, 504) scale(1, -1)">
    <g id="gridSVG" fill="none" stroke="rgb(0,0,0)" stroke-dasharray="none" stroke-width="0.75" font-size="12" font-family="Helvetica, Arial, FreeSans, Liberation Sans, Nimbus Sans L, sans-serif" opacity="1" stroke-linecap="round" stroke-linejoin="round" stroke-miterlimit="10" stroke-opacity="1" fill-opacity="0" font-weight="normal" font-style="normal">
      <g id="layout.1" class="viewport">
        <g id="layout.2" class="forcedgrob gtable gTree grob gDesc">
          <defs>
            <clipPath id="layout::background.1-11-12-1.1.clipPath">
              <rect x="0" y="40.92" width="504" height="422.16" fill="none" stroke="none"/>
            </clipPath>
          </defs>
          <g id="layout::background.1-11-12-1.1" clip-path="url(#layout::background.1-11-12-1.1.clipPath)" class="viewport">
            <g id="background.1-11-12-1.1" class="forcedgrob gTableChild rect grob gDesc">
              <rect id="background.1-11-12-1.1.1" x="0" y="40.92" width="504" height="422.16" transform="" stroke-width="1.07" stroke="rgb(255,255,255)" fill="rgb(255,255,255)" stroke-dasharray="none" stroke-opacity="1" fill-opacity="1"/>
            </g>
          </g>
          <defs>
            <clipPath id="layout::panel.7-5-7-5.1.clipPath">
              <rect x="8.22" y="49.14" width="391" height="391" fill="none" stroke="none"/>
            </clipPath>
          </defs>
          <g id="layout::panel.7-5-7-5.1" clip-path="url(#layout::panel.7-5-7-5.1.clipPath)" class="viewport">
            <g id="panel.7-5-7-5.1" class="forcedgrob gTableChild gTree grob gDesc">
              <g id="grill.gTree.1696.1" class="gTree grob gDesc">
                <g id="panel.background..rect.1692.1" class="rect grob gDesc">
                  <rect id="panel.background..rect.1692.1.1" x="8.22" y="49.14" width="391" height="391" transform="" stroke-width="1.07" stroke="none" fill="rgb(255,255,255)" stroke-dasharray="none" stroke-opacity="0" fill-opacity="1"/>
                </g>
              </g>
              <g id="bar.gTree.1685.1" class="gTree grob gDesc">
                <g id="geom_polygon.polygon.1675.1" class="polygon grob gDesc">
                  <polygon id="geom_polygon.polygon.1675.1.1" points="203.72,244.64 201.6,239.69 199.47,234.73 197.35,229.77 195.23,224.81 193.11,219.85 190.98,214.9 188.86,209.94 186.74,204.98 184.61,200.02 182.49,195.07 180.37,190.11 178.24,185.15 176.12,180.19 174,175.24 171.88,170.28 169.75,165.32 167.63,160.36 165.51,155.4 163.38,150.45 161.26,145.49 159.14,140.53 157.01,135.57 154.89,130.62 152.77,125.66 150.65,120.7 148.52,115.74 146.4,110.79 144.28,105.83 142.15,100.87 147.09,98.85 152.09,97.01 157.16,95.33 162.27,93.83 167.44,92.51 172.65,91.36 177.89,90.39 183.16,89.6 188.46,88.99 193.78,88.56 199.1,88.31 204.44,88.24 209.77,88.36 215.09,88.66 220.4,89.13 225.7,89.79 230.96,90.63 236.2,91.65 241.39,92.85 246.55,94.22 251.65,95.77 256.7,97.49 261.68,99.38 266.6,101.44 271.45,103.67 276.21,106.06 280.9,108.61 285.49,111.32 289.99,114.18 294.38,117.2 298.68,120.37 302.86,123.68 306.92,127.13 310.87,130.71 314.69,134.43 318.38,138.28 321.94,142.25 325.37,146.34 328.65,150.54 331.78,154.86 334.77,159.27 337.6,163.79 340.28,168.4 342.8,173.1 345.16,177.89 347.35,182.75 349.38,187.68 351.24,192.68 352.92,197.74 354.44,202.85 355.77,208.01 356.93,213.22 357.91,218.46 358.72,223.73 359.34,229.03 359.78,234.34 360.04,239.67 360.12,245 360.02,250.33 359.73,255.66 359.27,260.97 358.62,266.26 357.79,271.53 356.79,276.77 355.6,281.97 354.24,287.12 352.71,292.23 351,297.28 349.12,302.27 347.07,307.2 344.85,312.05 342.47,316.82 339.93,321.51 337.23,326.11 334.38,330.61 331.37,335.01 328.21,339.31 324.92,343.5 321.47,347.58 317.9,351.53 314.19,355.36 310.35,359.06 306.38,362.63 302.3,366.06 298.11,369.35 293.8,372.5 289.39,375.5 284.88,378.34 280.27,381.03 275.58,383.56 270.8,385.93 265.95,388.13 261.02,390.17 256.02,392.04 250.97,393.74 245.86,395.26 240.7,396.61 235.5,397.78 230.26,398.78 224.99,399.59 219.69,400.23 214.38,400.68 209.05,400.95 203.72,401.04 203.72,395.65 203.72,390.26 203.72,384.86 203.72,379.47 203.72,374.08 203.72,368.69 203.72,363.29 203.72,357.9 203.72,352.51 203.72,347.11 203.72,341.72 203.72,336.33 203.72,330.93 203.72,325.54 203.72,320.15 203.72,314.75 203.72,309.36 203.72,303.97 203.72,298.57 203.72,293.18 203.72,287.79 203.72,282.4 203.72,277 203.72,271.61 203.72,266.22 203.72,260.82 203.72,255.43 203.72,250.04 203.72,244.64 203.72,244.64" stroke="none" fill="rgb(231,107,243)" stroke-width="1.07" stroke-dasharray="none" stroke-opacity="0" fill-opacity="1"/>
                </g>
                <g id="geom_polygon.polygon.1677.1" class="polygon grob gDesc">
                  <polygon id="geom_polygon.polygon.1677.1.1" points="203.72,244.64 199.91,248.46 196.09,252.27 192.28,256.08 188.47,259.9 184.65,263.71 180.84,267.52 177.03,271.34 173.21,275.15 169.4,278.96 165.59,282.78 161.77,286.59 157.96,290.41 154.14,294.22 150.33,298.03 146.52,301.85 142.7,305.66 138.89,309.47 135.08,313.29 131.26,317.1 127.45,320.91 123.64,324.73 119.82,328.54 116.01,332.35 112.2,336.17 108.38,339.98 104.57,343.79 100.76,347.61 96.94,351.42 93.13,355.24 89.41,351.38 85.82,347.41 82.37,343.31 79.07,339.1 75.9,334.78 72.89,330.35 70.04,325.82 67.34,321.2 64.8,316.48 62.42,311.69 60.21,306.81 58.16,301.86 56.29,296.84 54.59,291.77 53.06,286.63 51.71,281.45 50.54,276.23 49.55,270.97 48.74,265.67 48.11,260.35 47.66,255.02 47.4,249.67 47.32,244.32 47.42,238.96 47.71,233.62 48.18,228.28 48.83,222.97 49.66,217.68 50.68,212.42 51.87,207.2 53.24,202.02 54.79,196.9 56.51,191.83 58.4,186.82 60.47,181.88 62.7,177.01 65.1,172.22 67.66,167.52 70.38,162.91 73.25,158.39 76.28,153.97 79.46,149.67 82.78,145.47 86.25,141.39 89.85,137.42 93.59,133.59 97.46,129.89 101.45,126.31 105.56,122.88 109.78,119.59 114.12,116.45 118.56,113.46 123.1,110.62 127.74,107.94 132.46,105.42 137.27,103.06 142.15,100.87 144.28,105.83 146.4,110.79 148.52,115.74 150.65,120.7 152.77,125.66 154.89,130.62 157.01,135.57 159.14,140.53 161.26,145.49 163.38,150.45 165.51,155.4 167.63,160.36 169.75,165.32 171.88,170.28 174,175.24 176.12,180.19 178.24,185.15 180.37,190.11 182.49,195.07 184.61,200.02 186.74,204.98 188.86,209.94 190.98,214.9 193.11,219.85 195.23,224.81 197.35,229.77 199.47,234.73 201.6,239.69 203.72,244.64 203.72,244.64" stroke="none" fill="rgb(0,176,246)" stroke-width="1.07" stroke-dasharray="none" stroke-opacity="0" fill-opacity="1"/>
                </g>
                <g id="geom_polygon.polygon.1679.1" class="polygon grob gDesc">
                  <polygon id="geom_polygon.polygon.1679.1.1" points="203.72,244.64 201.72,249.65 199.71,254.66 197.71,259.66 195.7,264.67 193.7,269.68 191.69,274.68 189.69,279.69 187.69,284.7 185.68,289.7 183.68,294.71 181.67,299.72 179.67,304.73 177.66,309.73 175.66,314.74 173.65,319.75 171.65,324.75 169.65,329.76 167.64,334.77 165.64,339.77 163.63,344.78 161.63,349.79 159.62,354.79 157.62,359.8 155.61,364.81 153.61,369.81 151.61,374.82 149.6,379.83 147.6,384.83 145.59,389.84 140.29,387.61 135.08,385.18 129.96,382.56 124.93,379.75 120.02,376.76 115.22,373.59 110.54,370.25 105.98,366.74 101.56,363.06 97.27,359.23 93.13,355.24 96.94,351.42 100.76,347.61 104.57,343.79 108.38,339.98 112.2,336.17 116.01,332.35 119.82,328.54 123.64,324.73 127.45,320.91 131.26,317.1 135.08,313.29 138.89,309.47 142.7,305.66 146.52,301.85 150.33,298.03 154.14,294.22 157.96,290.41 161.77,286.59 165.59,282.78 169.4,278.96 173.21,275.15 177.03,271.34 180.84,267.52 184.65,263.71 188.47,259.9 192.28,256.08 196.09,252.27 199.91,248.46 203.72,244.64 203.72,244.64" stroke="none" fill="rgb(0,191,125)" stroke-width="1.07" stroke-dasharray="none" stroke-opacity="0" fill-opacity="1"/>
                </g>
                <g id="geom_polygon.polygon.1681.1" class="polygon grob gDesc">
                  <polygon id="geom_polygon.polygon.1681.1.1" points="203.72,244.64 203.34,250.02 202.95,255.4 202.57,260.78 202.18,266.16 201.8,271.54 201.41,276.92 201.03,282.3 200.64,287.68 200.26,293.06 199.87,298.44 199.49,303.82 199.1,309.2 198.72,314.58 198.33,319.95 197.95,325.33 197.56,330.71 197.18,336.09 196.8,341.47 196.41,346.85 196.03,352.23 195.64,357.61 195.26,362.99 194.87,368.37 194.49,373.75 194.1,379.13 193.72,384.51 193.33,389.89 192.95,395.27 192.56,400.65 187.21,400.17 181.87,399.51 176.56,398.67 171.28,397.64 166.04,396.44 160.85,395.05 155.7,393.49 150.62,391.75 145.59,389.84 147.6,384.83 149.6,379.83 151.61,374.82 153.61,369.81 155.61,364.81 157.62,359.8 159.62,354.79 161.63,349.79 163.63,344.78 165.64,339.77 167.64,334.77 169.65,329.76 171.65,324.75 173.65,319.75 175.66,314.74 177.66,309.73 179.67,304.73 181.67,299.72 183.68,294.71 185.68,289.7 187.69,284.7 189.69,279.69 191.69,274.68 193.7,269.68 195.7,264.67 197.71,259.66 199.71,254.66 201.72,249.65 203.72,244.64 203.72,244.64" stroke="none" fill="rgb(163,165,0)" stroke-width="1.07" stroke-dasharray="none" stroke-opacity="0" fill-opacity="1"/>
                </g>
                <g id="geom_polygon.polygon.1683.1" class="polygon grob gDesc">
                  <polygon id="geom_polygon.polygon.1683.1.1" points="203.72,244.64 203.72,250.04 203.72,255.43 203.72,260.82 203.72,266.22 203.72,271.61 203.72,277 203.72,282.4 203.72,287.79 203.72,293.18 203.72,298.57 203.72,303.97 203.72,309.36 203.72,314.75 203.72,320.15 203.72,325.54 203.72,330.93 203.72,336.33 203.72,341.72 203.72,347.11 203.72,352.51 203.72,357.9 203.72,363.29 203.72,368.69 203.72,374.08 203.72,379.47 203.72,384.86 203.72,390.26 203.72,395.65 203.72,401.04 198.14,400.94 192.56,400.65 192.95,395.27 193.33,389.89 193.72,384.51 194.1,379.13 194.49,373.75 194.87,368.37 195.26,362.99 195.64,357.61 196.03,352.23 196.41,346.85 196.8,341.47 197.18,336.09 197.56,330.71 197.95,325.33 198.33,319.95 198.72,314.58 199.1,309.2 199.49,303.82 199.87,298.44 200.26,293.06 200.64,287.68 201.03,282.3 201.41,276.92 201.8,271.54 202.18,266.16 202.57,260.78 202.95,255.4 203.34,250.02 203.72,244.64 203.72,244.64" stroke="none" fill="rgb(248,118,109)" stroke-width="1.07" stroke-dasharray="none" stroke-opacity="0" fill-opacity="1"/>
                </g>
              </g>
              <g id="GRID.text.1686.1" class="text grob gDesc">
                <g id="GRID.text.1686.1.1" transform="translate(280.33, 228.93)" stroke-width="0.1">
                  <g id="GRID.text.1686.1.1.scale" transform="scale(1, -1)">
                    <text x="0" y="0" id="GRID.text.1686.1.1.text" text-anchor="middle" stroke="rgb(0,0,0)" font-size="11.04" font-family="Helvetica, Arial, FreeSans, Liberation Sans, Nimbus Sans L, sans-serif" fill="rgb(0,0,0)" stroke-opacity="1" fill-opacity="1" font-weight="normal" font-style="normal">
                      <tspan id="GRID.text.1686.1.1.tspan.1" dy="3.95" x="0">149</tspan>
                    </text>
                  </g>
                </g>
                <g id="GRID.text.1686.1.2" transform="translate(126.93, 229.84)" stroke-width="0.1">
                  <g id="GRID.text.1686.1.2.scale" transform="scale(1, -1)">
                    <text x="0" y="0" id="GRID.text.1686.1.2.text" text-anchor="middle" stroke="rgb(0,0,0)" font-size="11.04" font-family="Helvetica, Arial, FreeSans, Liberation Sans, Nimbus Sans L, sans-serif" fill="rgb(0,0,0)" stroke-opacity="1" fill-opacity="1" font-weight="normal" font-style="normal">
                      <tspan id="GRID.text.1686.1.2.tspan.1" dy="3.95" x="0">82</tspan>
                    </text>
                  </g>
                </g>
                <g id="GRID.text.1686.1.3" transform="translate(160.66, 309.92)" stroke-width="0.1">
                  <g id="GRID.text.1686.1.3.scale" transform="scale(1, -1)">
                    <text x="0" y="0" id="GRID.text.1686.1.3.text" text-anchor="middle" stroke="rgb(0,0,0)" font-size="11.04" font-family="Helvetica, Arial, FreeSans, Liberation Sans, Nimbus Sans L, sans-serif" fill="rgb(0,0,0)" stroke-opacity="1" fill-opacity="1" font-weight="normal" font-style="normal">
                      <tspan id="GRID.text.1686.1.3.tspan.1" dy="3.95" x="0">17</tspan>
                    </text>
                  </g>
                </g>
                <g id="GRID.text.1686.1.4" transform="translate(186.19, 320.85)" stroke-width="0.1">
                  <g id="GRID.text.1686.1.4.scale" transform="scale(1, -1)">
                    <text x="0" y="0" id="GRID.text.1686.1.4.text" text-anchor="middle" stroke="rgb(0,0,0)" font-size="11.04" font-family="Helvetica, Arial, FreeSans, Liberation Sans, Nimbus Sans L, sans-serif" fill="rgb(0,0,0)" stroke-opacity="1" fill-opacity="1" font-weight="normal" font-style="normal">
                      <tspan id="GRID.text.1686.1.4.tspan.1" dy="3.95" x="0">13</tspan>
                    </text>
                  </g>
                </g>
                <g id="GRID.text.1686.1.5" transform="translate(200.93, 322.79)" stroke-width="0.1">
                  <g id="GRID.text.1686.1.5.scale" transform="scale(1, -1)">
                    <text x="0" y="0" id="GRID.text.1686.1.5.text" text-anchor="middle" stroke="rgb(0,0,0)" font-size="11.04" font-family="Helvetica, Arial, FreeSans, Liberation Sans, Nimbus Sans L, sans-serif" fill="rgb(0,0,0)" stroke-opacity="1" fill-opacity="1" font-weight="normal" font-style="normal">
                      <tspan id="GRID.text.1686.1.5.tspan.1" dy="3.95" x="0">3</tspan>
                    </text>
                  </g>
                </g>
              </g>
              <g id="GRID.gTree.1687.1" class="gTree grob gDesc"/>
            </g>
          </g>
          <g id="layout::spacer.8-6-8-6.1" class="viewport"/>
          <g id="layout::spacer.8-4-8-4.1" class="viewport"/>
          <g id="layout::spacer.6-6-6-6.1" class="viewport"/>
          <g id="layout::spacer.6-4-6-4.1" class="viewport"/>
          <g id="layout::axis-t.6-5-6-5.1" class="viewport"/>
          <g id="layout::axis-l.7-4-7-4.1" class="viewport">
            <g id="layout::axis-l.7-4-7-4::GRID.VP.401.1" class="viewport">
              <g id="axis-l.7-4-7-4.1" class="forcedgrob gTableChild absoluteGrob gTree grob gDesc">
                <g id="layout::axis-l.7-4-7-4::GRID.VP.401::axis.1" class="viewport">
                  <g id="axis.1" class="forcedgrob gtable gTree grob gDesc">
                    <g id="layout::axis-l.7-4-7-4::GRID.VP.401::axis::axis.1-1-1-1.1" class="viewport"/>
                    <g id="layout::axis-l.7-4-7-4::GRID.VP.401::axis::axis.1-2-1-2.1" class="viewport"/>
                  </g>
                </g>
              </g>
            </g>
          </g>
          <g id="layout::axis-r.7-6-7-6.1" class="viewport"/>
          <g id="layout::axis-b.8-5-8-5.1" class="viewport">
            <g id="layout::axis-b.8-5-8-5::GRID.VP.400.1" class="viewport">
              <g id="axis-b.8-5-8-5.1" class="forcedgrob gTableChild absoluteGrob gTree grob gDesc">
                <g id="layout::axis-b.8-5-8-5::GRID.VP.400::axis.1" class="viewport">
                  <g id="axis.2" class="forcedgrob gtable gTree grob gDesc">
                    <g id="layout::axis-b.8-5-8-5::GRID.VP.400::axis::axis.1-1-1-1.1" class="viewport"/>
                    <g id="layout::axis-b.8-5-8-5::GRID.VP.400::axis::axis.2-1-2-1.1" class="viewport"/>
                  </g>
                </g>
              </g>
            </g>
          </g>
          <g id="layout::xlab-t.5-5-5-5.1" class="viewport"/>
          <g id="layout::xlab-b.9-5-9-5.1" class="viewport"/>
          <g id="layout::ylab-l.7-3-7-3.1" class="viewport"/>
          <g id="layout::ylab-r.7-7-7-7.1" class="viewport"/>
          <g id="layout::guide-box.7-9-7-9.1" class="viewport">
            <g id="layout::guide-box.7-9-7-9::GRID.VP.418.1" class="viewport">
              <g id="layout::guide-box.7-9-7-9::GRID.VP.418::guide-box.7-9-7-9.1" class="viewport">
                <g id="guide-box.7-9-7-9.1" class="forcedgrob gTableChild gtable gTree grob gDesc">
                  <g id="layout::guide-box.7-9-7-9::GRID.VP.418::guide-box.7-9-7-9::legend.box.background.2-4-4-2.1" class="viewport"/>
                  <g id="layout::guide-box.7-9-7-9::GRID.VP.418::guide-box.7-9-7-9::guides.3-3-3-3.1" class="viewport">
                    <g id="layout::guide-box.7-9-7-9::GRID.VP.418::guide-box.7-9-7-9::guides.3-3-3-3::GRID.VP.417.1" class="viewport">
                      <g id="layout::guide-box.7-9-7-9::GRID.VP.418::guide-box.7-9-7-9::guides.3-3-3-3::GRID.VP.417::guides.3-3-3-3.1" class="viewport">
                        <g id="guides.3-3-3-3.1" class="forcedgrob gTableChild gtable gTree grob gDesc">
                          <g id="layout::guide-box.7-9-7-9::GRID.VP.418::guide-box.7-9-7-9::guides.3-3-3-3::GRID.VP.417::guides.3-3-3-3::background.1-6-9-1.1" class="viewport">
                            <g id="background.1-6-9-1.1" class="forcedgrob gTableChild rect grob gDesc">
                              <rect id="background.1-6-9-1.1.1" x="410.18" y="193.22" width="88.34" height="102.84" transform="" stroke-width="1.07" stroke="none" fill="rgb(255,255,255)" stroke-dasharray="none" stroke-opacity="0" fill-opacity="1"/>
                            </g>
                          </g>
                          <g id="layout::guide-box.7-9-7-9::GRID.VP.418::guide-box.7-9-7-9::guides.3-3-3-3::GRID.VP.417::guides.3-3-3-3::title.2-5-2-2.1" class="viewport"/>
                          <g id="layout::guide-box.7-9-7-9::GRID.VP.418::guide-box.7-9-7-9::guides.3-3-3-3::GRID.VP.417::guides.3-3-3-3::key-3-1-bg.4-2-4-2.1" class="viewport"/>
                          <g id="layout::guide-box.7-9-7-9::GRID.VP.418::guide-box.7-9-7-9::guides.3-3-3-3::GRID.VP.417::guides.3-3-3-3::key-3-1-1.4-2-4-2.1" class="viewport">
                            <g id="key-3-1-1.4-2-4-2.1" class="forcedgrob gTableChild rect grob gDesc">
                              <rect id="key-3-1-1.4-2-4-2.1.1" x="416.37" y="268.53" width="15.86" height="15.86" transform="" stroke="none" fill="rgb(248,118,109)" stroke-dasharray="none" stroke-width="1.07" stroke-linejoin="miter" stroke-opacity="0" fill-opacity="1"/>
                            </g>
                          </g>
                          <g id="layout::guide-box.7-9-7-9::GRID.VP.418::guide-box.7-9-7-9::guides.3-3-3-3::GRID.VP.417::guides.3-3-3-3::key-4-1-bg.5-2-5-2.1" class="viewport"/>
                          <g id="layout::guide-box.7-9-7-9::GRID.VP.418::guide-box.7-9-7-9::guides.3-3-3-3::GRID.VP.417::guides.3-3-3-3::key-4-1-1.5-2-5-2.1" class="viewport">
                            <g id="key-4-1-1.5-2-5-2.1" class="forcedgrob gTableChild rect grob gDesc">
                              <rect id="key-4-1-1.5-2-5-2.1.1" x="416.37" y="251.25" width="15.86" height="15.86" transform="" stroke="none" fill="rgb(163,165,0)" stroke-dasharray="none" stroke-width="1.07" stroke-linejoin="miter" stroke-opacity="0" fill-opacity="1"/>
                            </g>
                          </g>
                          <g id="layout::guide-box.7-9-7-9::GRID.VP.418::guide-box.7-9-7-9::guides.3-3-3-3::GRID.VP.417::guides.3-3-3-3::key-5-1-bg.6-2-6-2.1" class="viewport"/>
                          <g id="layout::guide-box.7-9-7-9::GRID.VP.418::guide-box.7-9-7-9::guides.3-3-3-3::GRID.VP.417::guides.3-3-3-3::key-5-1-1.6-2-6-2.1" class="viewport">
                            <g id="key-5-1-1.6-2-6-2.1" class="forcedgrob gTableChild rect grob gDesc">
                              <rect id="key-5-1-1.6-2-6-2.1.1" x="416.37" y="233.97" width="15.86" height="15.86" transform="" stroke="none" fill="rgb(0,191,125)" stroke-dasharray="none" stroke-width="1.07" stroke-linejoin="miter" stroke-opacity="0" fill-opacity="1"/>
                            </g>
                          </g>
                          <g id="layout::guide-box.7-9-7-9::GRID.VP.418::guide-box.7-9-7-9::guides.3-3-3-3::GRID.VP.417::guides.3-3-3-3::key-6-1-bg.7-2-7-2.1" class="viewport"/>
                          <g id="layout::guide-box.7-9-7-9::GRID.VP.418::guide-box.7-9-7-9::guides.3-3-3-3::GRID.VP.417::guides.3-3-3-3::key-6-1-1.7-2-7-2.1" class="viewport">
                            <g id="key-6-1-1.7-2-7-2.1" class="forcedgrob gTableChild rect grob gDesc">
                              <rect id="key-6-1-1.7-2-7-2.1.1" x="416.37" y="216.69" width="15.86" height="15.86" transform="" stroke="none" fill="rgb(0,176,246)" stroke-dasharray="none" stroke-width="1.07" stroke-linejoin="miter" stroke-opacity="0" fill-opacity="1"/>
                            </g>
                          </g>
                          <g id="layout::guide-box.7-9-7-9::GRID.VP.418::guide-box.7-9-7-9::guides.3-3-3-3::GRID.VP.417::guides.3-3-3-3::key-7-1-bg.8-2-8-2.1" class="viewport"/>
                          <g id="layout::guide-box.7-9-7-9::GRID.VP.418::guide-box.7-9-7-9::guides.3-3-3-3::GRID.VP.417::guides.3-3-3-3::key-7-1-1.8-2-8-2.1" class="viewport">
                            <g id="key-7-1-1.8-2-8-2.1" class="forcedgrob gTableChild rect grob gDesc">
                              <rect id="key-7-1-1.8-2-8-2.1.1" x="416.37" y="199.41" width="15.86" height="15.86" transform="" stroke="none" fill="rgb(231,107,243)" stroke-dasharray="none" stroke-width="1.07" stroke-linejoin="miter" stroke-opacity="0" fill-opacity="1"/>
                            </g>
                          </g>
                          <g id="layout::guide-box.7-9-7-9::GRID.VP.418::guide-box.7-9-7-9::guides.3-3-3-3::GRID.VP.417::guides.3-3-3-3::label-3-3.4-4-4-4.1" class="viewport">
                            <g id="layout::guide-box.7-9-7-9::GRID.VP.418::guide-box.7-9-7-9::guides.3-3-3-3::GRID.VP.417::guides.3-3-3-3::label-3-3.4-4-4-4::GRID.VP.412.1" class="viewport">
                              <g id="label-3-3.4-4-4-4.1" class="forcedgrob gTableChild gTree grob gDesc">
                                <g id="layout::guide-box.7-9-7-9::GRID.VP.418::guide-box.7-9-7-9::guides.3-3-3-3::GRID.VP.417::guides.3-3-3-3::label-3-3.4-4-4-4::GRID.VP.412::GRID.VP.402.1" font-size="8.8" stroke="rgb(0,0,0)" font-family="Helvetica, Arial, FreeSans, Liberation Sans, Nimbus Sans L, sans-serif" stroke-opacity="1" font-weight="normal" font-style="normal" class="viewport">
                                  <g id="layout::guide-box.7-9-7-9::GRID.VP.418::guide-box.7-9-7-9::guides.3-3-3-3::GRID.VP.417::guides.3-3-3-3::label-3-3.4-4-4-4::GRID.VP.412::GRID.VP.402::GRID.VP.403.1" class="viewport">
                                    <g id="guide.label.titleGrob.1710.1" class="titleGrob gTree grob gDesc">
                                      <g id="GRID.text.1708.1" class="text grob gDesc">
                                        <g id="GRID.text.1708.1.1" transform="translate(438.42, 276.46)" stroke-width="0.1">
                                          <g id="GRID.text.1708.1.1.scale" transform="scale(1, -1)">
                                            <text x="0" y="0" id="GRID.text.1708.1.1.text" text-anchor="start" font-size="8.8" stroke="rgb(0,0,0)" font-family="Helvetica, Arial, FreeSans, Liberation Sans, Nimbus Sans L, sans-serif" fill="rgb(0,0,0)" stroke-opacity="1" fill-opacity="1" font-weight="normal" font-style="normal">
                                              <tspan id="GRID.text.1708.1.1.tspan.1" dy="3.23" x="0">tutto (3)</tspan>
                                            </text>
                                          </g>
                                        </g>
                                      </g>
                                    </g>
                                  </g>
                                </g>
                              </g>
                            </g>
                          </g>
                          <g id="layout::guide-box.7-9-7-9::GRID.VP.418::guide-box.7-9-7-9::guides.3-3-3-3::GRID.VP.417::guides.3-3-3-3::label-4-3.5-4-5-4.1" class="viewport">
                            <g id="layout::guide-box.7-9-7-9::GRID.VP.418::guide-box.7-9-7-9::guides.3-3-3-3::GRID.VP.417::guides.3-3-3-3::label-4-3.5-4-5-4::GRID.VP.413.1" class="viewport">
                              <g id="label-4-3.5-4-5-4.1" class="forcedgrob gTableChild gTree grob gDesc">
                                <g id="layout::guide-box.7-9-7-9::GRID.VP.418::guide-box.7-9-7-9::guides.3-3-3-3::GRID.VP.417::guides.3-3-3-3::label-4-3.5-4-5-4::GRID.VP.413::GRID.VP.404.1" font-size="8.8" stroke="rgb(0,0,0)" font-family="Helvetica, Arial, FreeSans, Liberation Sans, Nimbus Sans L, sans-serif" stroke-opacity="1" font-weight="normal" font-style="normal" class="viewport">
                                  <g id="layout::guide-box.7-9-7-9::GRID.VP.418::guide-box.7-9-7-9::guides.3-3-3-3::GRID.VP.417::guides.3-3-3-3::label-4-3.5-4-5-4::GRID.VP.413::GRID.VP.404::GRID.VP.405.1" class="viewport">
                                    <g id="guide.label.titleGrob.1713.1" class="titleGrob gTree grob gDesc">
                                      <g id="GRID.text.1711.1" class="text grob gDesc">
                                        <g id="GRID.text.1711.1.1" transform="translate(438.42, 259.18)" stroke-width="0.1">
                                          <g id="GRID.text.1711.1.1.scale" transform="scale(1, -1)">
                                            <text x="0" y="0" id="GRID.text.1711.1.1.text" text-anchor="start" font-size="8.8" stroke="rgb(0,0,0)" font-family="Helvetica, Arial, FreeSans, Liberation Sans, Nimbus Sans L, sans-serif" fill="rgb(0,0,0)" stroke-opacity="1" fill-opacity="1" font-weight="normal" font-style="normal">
                                              <tspan id="GRID.text.1711.1.1.tspan.1" dy="3.23" x="0">avanzato (13)</tspan>
                                            </text>
                                          </g>
                                        </g>
                                      </g>
                                    </g>
                                  </g>
                                </g>
                              </g>
                            </g>
                          </g>
                          <g id="layout::guide-box.7-9-7-9::GRID.VP.418::guide-box.7-9-7-9::guides.3-3-3-3::GRID.VP.417::guides.3-3-3-3::label-5-3.6-4-6-4.1" class="viewport">
                            <g id="layout::guide-box.7-9-7-9::GRID.VP.418::guide-box.7-9-7-9::guides.3-3-3-3::GRID.VP.417::guides.3-3-3-3::label-5-3.6-4-6-4::GRID.VP.414.1" class="viewport">
                              <g id="label-5-3.6-4-6-4.1" class="forcedgrob gTableChild gTree grob gDesc">
                                <g id="layout::guide-box.7-9-7-9::GRID.VP.418::guide-box.7-9-7-9::guides.3-3-3-3::GRID.VP.417::guides.3-3-3-3::label-5-3.6-4-6-4::GRID.VP.414::GRID.VP.406.1" font-size="8.8" stroke="rgb(0,0,0)" font-family="Helvetica, Arial, FreeSans, Liberation Sans, Nimbus Sans L, sans-serif" stroke-opacity="1" font-weight="normal" font-style="normal" class="viewport">
                                  <g id="layout::guide-box.7-9-7-9::GRID.VP.418::guide-box.7-9-7-9::guides.3-3-3-3::GRID.VP.417::guides.3-3-3-3::label-5-3.6-4-6-4::GRID.VP.414::GRID.VP.406::GRID.VP.407.1" class="viewport">
                                    <g id="guide.label.titleGrob.1716.1" class="titleGrob gTree grob gDesc">
                                      <g id="GRID.text.1714.1" class="text grob gDesc">
                                        <g id="GRID.text.1714.1.1" transform="translate(438.42, 241.9)" stroke-width="0.1">
                                          <g id="GRID.text.1714.1.1.scale" transform="scale(1, -1)">
                                            <text x="0" y="0" id="GRID.text.1714.1.1.text" text-anchor="start" font-size="8.8" stroke="rgb(0,0,0)" font-family="Helvetica, Arial, FreeSans, Liberation Sans, Nimbus Sans L, sans-serif" fill="rgb(0,0,0)" stroke-opacity="1" fill-opacity="1" font-weight="normal" font-style="normal">
                                              <tspan id="GRID.text.1714.1.1.tspan.1" dy="3.23" x="0">nessuno (17)</tspan>
                                            </text>
                                          </g>
                                        </g>
                                      </g>
                                    </g>
                                  </g>
                                </g>
                              </g>
                            </g>
                          </g>
                          <g id="layout::guide-box.7-9-7-9::GRID.VP.418::guide-box.7-9-7-9::guides.3-3-3-3::GRID.VP.417::guides.3-3-3-3::label-6-3.7-4-7-4.1" class="viewport">
                            <g id="layout::guide-box.7-9-7-9::GRID.VP.418::guide-box.7-9-7-9::guides.3-3-3-3::GRID.VP.417::guides.3-3-3-3::label-6-3.7-4-7-4::GRID.VP.415.1" class="viewport">
                              <g id="label-6-3.7-4-7-4.1" class="forcedgrob gTableChild gTree grob gDesc">
                                <g id="layout::guide-box.7-9-7-9::GRID.VP.418::guide-box.7-9-7-9::guides.3-3-3-3::GRID.VP.417::guides.3-3-3-3::label-6-3.7-4-7-4::GRID.VP.415::GRID.VP.408.1" font-size="8.8" stroke="rgb(0,0,0)" font-family="Helvetica, Arial, FreeSans, Liberation Sans, Nimbus Sans L, sans-serif" stroke-opacity="1" font-weight="normal" font-style="normal" class="viewport">
                                  <g id="layout::guide-box.7-9-7-9::GRID.VP.418::guide-box.7-9-7-9::guides.3-3-3-3::GRID.VP.417::guides.3-3-3-3::label-6-3.7-4-7-4::GRID.VP.415::GRID.VP.408::GRID.VP.409.1" class="viewport">
                                    <g id="guide.label.titleGrob.1719.1" class="titleGrob gTree grob gDesc">
                                      <g id="GRID.text.1717.1" class="text grob gDesc">
                                        <g id="GRID.text.1717.1.1" transform="translate(438.42, 224.62)" stroke-width="0.1">
                                          <g id="GRID.text.1717.1.1.scale" transform="scale(1, -1)">
                                            <text x="0" y="0" id="GRID.text.1717.1.1.text" text-anchor="start" font-size="8.8" stroke="rgb(0,0,0)" font-family="Helvetica, Arial, FreeSans, Liberation Sans, Nimbus Sans L, sans-serif" fill="rgb(0,0,0)" stroke-opacity="1" fill-opacity="1" font-weight="normal" font-style="normal">
                                              <tspan id="GRID.text.1717.1.1.tspan.1" dy="3.23" x="0">medio (82)</tspan>
                                            </text>
                                          </g>
                                        </g>
                                      </g>
                                    </g>
                                  </g>
                                </g>
                              </g>
                            </g>
                          </g>
                          <g id="layout::guide-box.7-9-7-9::GRID.VP.418::guide-box.7-9-7-9::guides.3-3-3-3::GRID.VP.417::guides.3-3-3-3::label-7-3.8-4-8-4.1" class="viewport">
                            <g id="layout::guide-box.7-9-7-9::GRID.VP.418::guide-box.7-9-7-9::guides.3-3-3-3::GRID.VP.417::guides.3-3-3-3::label-7-3.8-4-8-4::GRID.VP.416.1" class="viewport">
                              <g id="label-7-3.8-4-8-4.1" class="forcedgrob gTableChild gTree grob gDesc">
                                <g id="layout::guide-box.7-9-7-9::GRID.VP.418::guide-box.7-9-7-9::guides.3-3-3-3::GRID.VP.417::guides.3-3-3-3::label-7-3.8-4-8-4::GRID.VP.416::GRID.VP.410.1" font-size="8.8" stroke="rgb(0,0,0)" font-family="Helvetica, Arial, FreeSans, Liberation Sans, Nimbus Sans L, sans-serif" stroke-opacity="1" font-weight="normal" font-style="normal" class="viewport">
                                  <g id="layout::guide-box.7-9-7-9::GRID.VP.418::guide-box.7-9-7-9::guides.3-3-3-3::GRID.VP.417::guides.3-3-3-3::label-7-3.8-4-8-4::GRID.VP.416::GRID.VP.410::GRID.VP.411.1" class="viewport">
                                    <g id="guide.label.titleGrob.1722.1" class="titleGrob gTree grob gDesc">
                                      <g id="GRID.text.1720.1" class="text grob gDesc">
                                        <g id="GRID.text.1720.1.1" transform="translate(438.42, 207.34)" stroke-width="0.1">
                                          <g id="GRID.text.1720.1.1.scale" transform="scale(1, -1)">
                                            <text x="0" y="0" id="GRID.text.1720.1.1.text" text-anchor="start" font-size="8.8" stroke="rgb(0,0,0)" font-family="Helvetica, Arial, FreeSans, Liberation Sans, Nimbus Sans L, sans-serif" fill="rgb(0,0,0)" stroke-opacity="1" fill-opacity="1" font-weight="normal" font-style="normal">
                                              <tspan id="GRID.text.1720.1.1.tspan.1" dy="3.23" x="0">base (149)</tspan>
                                            </text>
                                          </g>
                                        </g>
                                      </g>
                                    </g>
                                  </g>
                                </g>
                              </g>
                            </g>
                          </g>
                        </g>
                      </g>
                    </g>
                  </g>
                </g>
              </g>
            </g>
          </g>
          <g id="layout::subtitle.4-5-4-5.1" class="viewport"/>
          <g id="layout::title.3-5-3-5.1" class="viewport">
            <g id="layout::title.3-5-3-5::GRID.VP.419.1" font-size="13.2" stroke="rgb(102,102,102)" font-family="Helvetica, Arial, FreeSans, Liberation Sans, Nimbus Sans L, sans-serif" stroke-opacity="1" font-weight="normal" font-style="normal" class="viewport">
              <g id="layout::title.3-5-3-5::GRID.VP.419::GRID.VP.420.1" class="viewport">
                <g id="title.3-5-3-5.1" class="forcedgrob gTableChild titleGrob gTree grob gDesc">
                  <g id="GRID.text.1740.1" class="text grob gDesc">
                    <g id="GRID.text.1740.1.1" transform="translate(203.72, 457.6)" stroke-width="0.1">
                      <g id="GRID.text.1740.1.1.scale" transform="scale(1, -1)">
                        <text x="0" y="0" id="GRID.text.1740.1.1.text" text-anchor="middle" font-size="13.2" stroke="rgb(102,102,102)" font-family="Helvetica, Arial, FreeSans, Liberation Sans, Nimbus Sans L, sans-serif" fill="rgb(102,102,102)" stroke-opacity="1" fill-opacity="1" font-weight="normal" font-style="normal">
                          <tspan id="GRID.text.1740.1.1.tspan.1" dy="9.33" x="0">anagrafica creazionecontenuti</tspan>
                        </text>
                      </g>
                    </g>
                  </g>
                </g>
              </g>
            </g>
          </g>
          <g id="layout::caption.10-5-10-5.1" class="viewport"/>
          <g id="layout::tag.2-2-2-2.1" class="viewport"/>
        </g>
      </g>
    </g>
  </g>
</svg>