<?xml version="1.0" encoding="UTF-8"?>
<svg xmlns="http://www.w3.org/2000/svg" xmlns:xlink="http://www.w3.org/1999/xlink" width="504px" height="504px" viewBox="0 0 504 504" version="1.1">
  <metadata xmlns:gridsvg="http://www.stat.auckland.ac.nz/~paul/R/gridSVG/">
    <gridsvg:generator name="gridSVG" version="1.6-0" time="2019-01-18 23:13:46"/>
    <gridsvg:argument name="name" value="./latest_informaggio_csv/risultati/svg/anagrafica-risoluzioneproblemi.svg"/>
    <gridsvg:argument name="exportCoords" value="none"/>
    <gridsvg:argument name="exportMappings" value="none"/>
    <gridsvg:argument name="exportJS" value="none"/>
    <gridsvg:argument name="res" value="72"/>
    <gridsvg:argument name="prefix" value=""/>
    <gridsvg:argument name="addClasses" value="TRUE"/>
    <gridsvg:argument name="indent" value="TRUE"/>
    <gridsvg:argument name="htmlWrapper" value="FALSE"/>
    <gridsvg:argument name="usePaths" value="vpPaths"/>
    <gridsvg:argument name="uniqueNames" value="TRUE"/>
    <gridsvg:separator name="id.sep" value="."/>
    <gridsvg:separator name="gPath.sep" value="::"/>
    <gridsvg:separator name="vpPath.sep" value="::"/>
  </metadata>
  <g transform="translate(0, 504) scale(1, -1)">
    <g id="gridSVG" fill="none" stroke="rgb(0,0,0)" stroke-dasharray="none" stroke-width="0.75" font-size="12" font-family="Helvetica, Arial, FreeSans, Liberation Sans, Nimbus Sans L, sans-serif" opacity="1" stroke-linecap="round" stroke-linejoin="round" stroke-miterlimit="10" stroke-opacity="1" fill-opacity="0" font-weight="normal" font-style="normal">
      <g id="layout.1" class="viewport">
        <g id="layout.2" class="forcedgrob gtable gTree grob gDesc">
          <defs>
            <clipPath id="layout::background.1-11-12-1.1.clipPath">
              <rect x="0" y="40.92" width="504" height="422.16" fill="none" stroke="none"/>
            </clipPath>
          </defs>
          <g id="layout::background.1-11-12-1.1" clip-path="url(#layout::background.1-11-12-1.1.clipPath)" class="viewport">
            <g id="background.1-11-12-1.1" class="forcedgrob gTableChild rect grob gDesc">
              <rect id="background.1-11-12-1.1.1" x="0" y="40.92" width="504" height="422.16" transform="" stroke-width="1.07" stroke="rgb(255,255,255)" fill="rgb(255,255,255)" stroke-dasharray="none" stroke-opacity="1" fill-opacity="1"/>
            </g>
          </g>
          <defs>
            <clipPath id="layout::panel.7-5-7-5.1.clipPath">
              <rect x="8.22" y="49.14" width="391" height="391" fill="none" stroke="none"/>
            </clipPath>
          </defs>
          <g id="layout::panel.7-5-7-5.1" clip-path="url(#layout::panel.7-5-7-5.1.clipPath)" class="viewport">
            <g id="panel.7-5-7-5.1" class="forcedgrob gTableChild gTree grob gDesc">
              <g id="grill.gTree.3350.1" class="gTree grob gDesc">
                <g id="panel.background..rect.3346.1" class="rect grob gDesc">
                  <rect id="panel.background..rect.3346.1.1" x="8.22" y="49.14" width="391" height="391" transform="" stroke-width="1.07" stroke="none" fill="rgb(255,255,255)" stroke-dasharray="none" stroke-opacity="0" fill-opacity="1"/>
                </g>
              </g>
              <g id="bar.gTree.3339.1" class="gTree grob gDesc">
                <g id="geom_polygon.polygon.3329.1" class="polygon grob gDesc">
                  <polygon id="geom_polygon.polygon.3329.1.1" points="203.72,244.64 202.85,239.32 201.97,234 201.1,228.68 200.22,223.36 199.35,218.03 198.47,212.71 197.6,207.39 196.72,202.07 195.85,196.75 194.97,191.43 194.1,186.1 193.22,180.78 192.35,175.46 191.48,170.14 190.6,164.82 189.73,159.5 188.85,154.17 187.98,148.85 187.1,143.53 186.23,138.21 185.35,132.89 184.48,127.56 183.6,122.24 182.73,116.92 181.85,111.6 180.98,106.28 180.11,100.96 179.23,95.63 178.36,90.31 183.63,89.54 188.92,88.94 194.23,88.53 199.56,88.3 204.88,88.25 210.21,88.38 215.53,88.69 220.83,89.18 226.12,89.85 231.38,90.71 236.61,91.74 241.79,92.95 246.94,94.33 252.03,95.89 257.07,97.62 262.05,99.53 266.96,101.6 271.79,103.83 276.55,106.23 281.22,108.79 285.8,111.51 290.29,114.39 294.68,117.41 298.96,120.58 303.13,123.9 307.18,127.35 311.12,130.95 314.93,134.67 318.61,138.52 322.16,142.5 325.57,146.59 328.84,150.8 331.96,155.11 334.94,159.53 337.76,164.05 340.43,168.66 342.93,173.36 345.28,178.15 347.46,183.01 349.48,187.94 351.33,192.94 353,197.99 354.5,203.1 355.83,208.26 356.98,213.47 357.96,218.7 358.75,223.97 359.36,229.27 359.8,234.58 360.05,239.9 360.12,245.22 360.01,250.55 359.72,255.87 359.25,261.18 358.59,266.47 357.76,271.73 356.75,276.96 355.56,282.15 354.19,287.3 352.65,292.4 350.94,297.45 349.05,302.43 347,307.35 344.78,312.19 342.4,316.96 339.86,321.64 337.16,326.23 334.3,330.73 331.29,335.13 328.14,339.42 324.84,343.6 321.39,347.67 317.82,351.62 314.11,355.44 310.27,359.14 306.31,362.7 302.23,366.12 298.03,369.41 293.73,372.55 289.32,375.54 284.81,378.38 280.21,381.06 275.52,383.59 270.74,385.96 265.89,388.16 260.97,390.19 255.98,392.06 250.93,393.75 245.82,395.27 240.66,396.62 235.47,397.79 230.23,398.78 224.97,399.59 219.68,400.23 214.37,400.68 209.05,400.95 203.72,401.04 203.72,395.65 203.72,390.26 203.72,384.86 203.72,379.47 203.72,374.08 203.72,368.69 203.72,363.29 203.72,357.9 203.72,352.51 203.72,347.11 203.72,341.72 203.72,336.33 203.72,330.93 203.72,325.54 203.72,320.15 203.72,314.75 203.72,309.36 203.72,303.97 203.72,298.57 203.72,293.18 203.72,287.79 203.72,282.4 203.72,277 203.72,271.61 203.72,266.22 203.72,260.82 203.72,255.43 203.72,250.04 203.72,244.64 203.72,244.64" stroke="none" fill="rgb(231,107,243)" stroke-width="1.07" stroke-dasharray="none" stroke-opacity="0" fill-opacity="1"/>
                </g>
                <g id="geom_polygon.polygon.3331.1" class="polygon grob gDesc">
                  <polygon id="geom_polygon.polygon.3331.1.1" points="203.72,244.64 200.16,248.69 196.6,252.74 193.04,256.79 189.47,260.84 185.91,264.89 182.35,268.94 178.79,272.99 175.23,277.04 171.66,281.09 168.1,285.14 164.54,289.19 160.98,293.24 157.42,297.29 153.85,301.34 150.29,305.39 146.73,309.44 143.17,313.49 139.61,317.54 136.05,321.59 132.48,325.64 128.92,329.68 125.36,333.73 121.8,337.78 118.24,341.83 114.67,345.88 111.11,349.93 107.55,353.98 103.99,358.03 100.43,362.08 96.47,358.48 92.64,354.75 88.94,350.88 85.38,346.9 81.95,342.79 78.66,338.57 75.53,334.24 72.54,329.8 69.7,325.27 67.02,320.64 64.5,315.92 62.15,311.12 59.96,306.24 57.94,301.28 56.08,296.27 54.41,291.19 52.9,286.05 51.57,280.87 50.42,275.65 49.45,270.39 48.66,265.1 48.05,259.78 47.63,254.45 47.38,249.11 47.32,243.76 47.44,238.41 47.75,233.07 48.23,227.75 48.9,222.44 49.75,217.16 50.78,211.91 51.99,206.7 53.38,201.53 54.94,196.42 56.68,191.36 58.58,186.36 60.66,181.43 62.91,176.58 65.32,171.8 67.89,167.11 70.62,162.51 73.51,158.01 76.54,153.61 79.73,149.31 83.06,145.13 86.54,141.06 90.15,137.11 93.89,133.29 97.76,129.6 101.76,126.05 105.87,122.63 110.1,119.35 114.44,116.23 118.89,113.25 123.43,110.43 128.06,107.76 132.79,105.25 137.6,102.91 142.48,100.73 147.44,98.72 152.46,96.88 157.55,95.21 162.68,93.72 167.87,92.41 173.09,91.27 178.36,90.31 179.23,95.63 180.11,100.96 180.98,106.28 181.85,111.6 182.73,116.92 183.6,122.24 184.48,127.56 185.35,132.89 186.23,138.21 187.1,143.53 187.98,148.85 188.85,154.17 189.73,159.5 190.6,164.82 191.48,170.14 192.35,175.46 193.22,180.78 194.1,186.1 194.97,191.43 195.85,196.75 196.72,202.07 197.6,207.39 198.47,212.71 199.35,218.03 200.22,223.36 201.1,228.68 201.97,234 202.85,239.32 203.72,244.64 203.72,244.64" stroke="none" fill="rgb(0,176,246)" stroke-width="1.07" stroke-dasharray="none" stroke-opacity="0" fill-opacity="1"/>
                </g>
                <g id="geom_polygon.polygon.3333.1" class="polygon grob gDesc">
                  <polygon id="geom_polygon.polygon.3333.1.1" points="203.72,244.64 202.23,249.83 200.75,255.01 199.26,260.2 197.77,265.38 196.29,270.56 194.8,275.75 193.31,280.93 191.83,286.12 190.34,291.3 188.86,296.49 187.37,301.67 185.88,306.85 184.4,312.04 182.91,317.22 181.42,322.41 179.94,327.59 178.45,332.77 176.96,337.96 175.48,343.14 173.99,348.33 172.5,353.51 171.02,358.7 169.53,363.88 168.04,369.06 166.56,374.25 165.07,379.43 163.58,384.62 162.1,389.8 160.61,394.99 155.52,393.43 150.49,391.71 145.52,389.81 140.62,387.75 135.79,385.52 131.04,383.13 126.37,380.58 121.79,377.87 117.31,375.01 112.93,371.99 108.65,368.83 104.48,365.53 100.43,362.08 103.99,358.03 107.55,353.98 111.11,349.93 114.67,345.88 118.24,341.83 121.8,337.78 125.36,333.73 128.92,329.68 132.48,325.64 136.05,321.59 139.61,317.54 143.17,313.49 146.73,309.44 150.29,305.39 153.85,301.34 157.42,297.29 160.98,293.24 164.54,289.19 168.1,285.14 171.66,281.09 175.23,277.04 178.79,272.99 182.35,268.94 185.91,264.89 189.47,260.84 193.04,256.79 196.6,252.74 200.16,248.69 203.72,244.64 203.72,244.64" stroke="none" fill="rgb(0,191,125)" stroke-width="1.07" stroke-dasharray="none" stroke-opacity="0" fill-opacity="1"/>
                </g>
                <g id="geom_polygon.polygon.3335.1" class="polygon grob gDesc">
                  <polygon id="geom_polygon.polygon.3335.1.1" points="203.72,244.64 203.6,250.03 203.47,255.43 203.34,260.82 203.22,266.21 203.09,271.6 202.97,276.99 202.84,282.38 202.72,287.78 202.59,293.17 202.47,298.56 202.34,303.95 202.21,309.34 202.09,314.74 201.96,320.13 201.84,325.52 201.71,330.91 201.59,336.3 201.46,341.69 201.34,347.09 201.21,352.48 201.09,357.87 200.96,363.26 200.83,368.65 200.71,374.04 200.58,379.44 200.46,384.83 200.33,390.22 200.21,395.61 200.08,401 194.37,400.76 188.67,400.32 182.98,399.66 177.33,398.8 171.71,397.73 166.14,396.46 160.61,394.99 162.1,389.8 163.58,384.62 165.07,379.43 166.56,374.25 168.04,369.06 169.53,363.88 171.02,358.7 172.5,353.51 173.99,348.33 175.48,343.14 176.96,337.96 178.45,332.77 179.94,327.59 181.42,322.41 182.91,317.22 184.4,312.04 185.88,306.85 187.37,301.67 188.86,296.49 190.34,291.3 191.83,286.12 193.31,280.93 194.8,275.75 196.29,270.56 197.77,265.38 199.26,260.2 200.75,255.01 202.23,249.83 203.72,244.64 203.72,244.64" stroke="none" fill="rgb(163,165,0)" stroke-width="1.07" stroke-dasharray="none" stroke-opacity="0" fill-opacity="1"/>
                </g>
                <g id="geom_polygon.polygon.3337.1" class="polygon grob gDesc">
                  <polygon id="geom_polygon.polygon.3337.1.1" points="203.72,244.64 203.72,250.04 203.72,255.43 203.72,260.82 203.72,266.22 203.72,271.61 203.72,277 203.72,282.4 203.72,287.79 203.72,293.18 203.72,298.57 203.72,303.97 203.72,309.36 203.72,314.75 203.72,320.15 203.72,325.54 203.72,330.93 203.72,336.33 203.72,341.72 203.72,347.11 203.72,352.51 203.72,357.9 203.72,363.29 203.72,368.69 203.72,374.08 203.72,379.47 203.72,384.86 203.72,390.26 203.72,395.65 203.72,401.04 200.08,401 200.21,395.61 200.33,390.22 200.46,384.83 200.58,379.44 200.71,374.04 200.83,368.65 200.96,363.26 201.09,357.87 201.21,352.48 201.34,347.09 201.46,341.69 201.59,336.3 201.71,330.91 201.84,325.52 201.96,320.13 202.09,314.74 202.21,309.34 202.34,303.95 202.47,298.56 202.59,293.17 202.72,287.78 202.84,282.38 202.97,276.99 203.09,271.6 203.22,266.21 203.34,260.82 203.47,255.43 203.6,250.03 203.72,244.64 203.72,244.64" stroke="none" fill="rgb(248,118,109)" stroke-width="1.07" stroke-dasharray="none" stroke-opacity="0" fill-opacity="1"/>
                </g>
              </g>
              <g id="GRID.text.3340.1" class="text grob gDesc">
                <g id="GRID.text.3340.1.1" transform="translate(281.66, 238.28)" stroke-width="0.1">
                  <g id="GRID.text.3340.1.1.scale" transform="scale(1, -1)">
                    <text x="0" y="0" id="GRID.text.3340.1.1.text" text-anchor="middle" stroke="rgb(0,0,0)" font-size="11.04" font-family="Helvetica, Arial, FreeSans, Liberation Sans, Nimbus Sans L, sans-serif" fill="rgb(0,0,0)" stroke-opacity="1" fill-opacity="1" font-weight="normal" font-style="normal">
                      <tspan id="GRID.text.3340.1.1.tspan.1" dy="3.95" x="0">142</tspan>
                    </text>
                  </g>
                </g>
                <g id="GRID.text.3340.1.2" transform="translate(128.55, 223.09)" stroke-width="0.1">
                  <g id="GRID.text.3340.1.2.scale" transform="scale(1, -1)">
                    <text x="0" y="0" id="GRID.text.3340.1.2.text" text-anchor="middle" stroke="rgb(0,0,0)" font-size="11.04" font-family="Helvetica, Arial, FreeSans, Liberation Sans, Nimbus Sans L, sans-serif" fill="rgb(0,0,0)" stroke-opacity="1" fill-opacity="1" font-weight="normal" font-style="normal">
                      <tspan id="GRID.text.3340.1.2.tspan.1" dy="3.95" x="0">97</tspan>
                    </text>
                  </g>
                </g>
                <g id="GRID.text.3340.1.3" transform="translate(166.21, 313.26)" stroke-width="0.1">
                  <g id="GRID.text.3340.1.3.scale" transform="scale(1, -1)">
                    <text x="0" y="0" id="GRID.text.3340.1.3.text" text-anchor="middle" stroke="rgb(0,0,0)" font-size="11.04" font-family="Helvetica, Arial, FreeSans, Liberation Sans, Nimbus Sans L, sans-serif" fill="rgb(0,0,0)" stroke-opacity="1" fill-opacity="1" font-weight="normal" font-style="normal">
                      <tspan id="GRID.text.3340.1.3.tspan.1" dy="3.95" x="0">19</tspan>
                    </text>
                  </g>
                </g>
                <g id="GRID.text.3340.1.4" transform="translate(191.94, 321.95)" stroke-width="0.1">
                  <g id="GRID.text.3340.1.4.scale" transform="scale(1, -1)">
                    <text x="0" y="0" id="GRID.text.3340.1.4.text" text-anchor="middle" stroke="rgb(0,0,0)" font-size="11.04" font-family="Helvetica, Arial, FreeSans, Liberation Sans, Nimbus Sans L, sans-serif" fill="rgb(0,0,0)" stroke-opacity="1" fill-opacity="1" font-weight="normal" font-style="normal">
                      <tspan id="GRID.text.3340.1.4.tspan.1" dy="3.95" x="0">11</tspan>
                    </text>
                  </g>
                </g>
                <g id="GRID.text.3340.1.5" transform="translate(202.81, 322.84)" stroke-width="0.1">
                  <g id="GRID.text.3340.1.5.scale" transform="scale(1, -1)">
                    <text x="0" y="0" id="GRID.text.3340.1.5.text" text-anchor="middle" stroke="rgb(0,0,0)" font-size="11.04" font-family="Helvetica, Arial, FreeSans, Liberation Sans, Nimbus Sans L, sans-serif" fill="rgb(0,0,0)" stroke-opacity="1" fill-opacity="1" font-weight="normal" font-style="normal">
                      <tspan id="GRID.text.3340.1.5.tspan.1" dy="3.95" x="0">1</tspan>
                    </text>
                  </g>
                </g>
              </g>
              <g id="GRID.gTree.3341.1" class="gTree grob gDesc"/>
            </g>
          </g>
          <g id="layout::spacer.8-6-8-6.1" class="viewport"/>
          <g id="layout::spacer.8-4-8-4.1" class="viewport"/>
          <g id="layout::spacer.6-6-6-6.1" class="viewport"/>
          <g id="layout::spacer.6-4-6-4.1" class="viewport"/>
          <g id="layout::axis-t.6-5-6-5.1" class="viewport"/>
          <g id="layout::axis-l.7-4-7-4.1" class="viewport">
            <g id="layout::axis-l.7-4-7-4::GRID.VP.803.1" class="viewport">
              <g id="axis-l.7-4-7-4.1" class="forcedgrob gTableChild absoluteGrob gTree grob gDesc">
                <g id="layout::axis-l.7-4-7-4::GRID.VP.803::axis.1" class="viewport">
                  <g id="axis.1" class="forcedgrob gtable gTree grob gDesc">
                    <g id="layout::axis-l.7-4-7-4::GRID.VP.803::axis::axis.1-1-1-1.1" class="viewport"/>
                    <g id="layout::axis-l.7-4-7-4::GRID.VP.803::axis::axis.1-2-1-2.1" class="viewport"/>
                  </g>
                </g>
              </g>
            </g>
          </g>
          <g id="layout::axis-r.7-6-7-6.1" class="viewport"/>
          <g id="layout::axis-b.8-5-8-5.1" class="viewport">
            <g id="layout::axis-b.8-5-8-5::GRID.VP.802.1" class="viewport">
              <g id="axis-b.8-5-8-5.1" class="forcedgrob gTableChild absoluteGrob gTree grob gDesc">
                <g id="layout::axis-b.8-5-8-5::GRID.VP.802::axis.1" class="viewport">
                  <g id="axis.2" class="forcedgrob gtable gTree grob gDesc">
                    <g id="layout::axis-b.8-5-8-5::GRID.VP.802::axis::axis.1-1-1-1.1" class="viewport"/>
                    <g id="layout::axis-b.8-5-8-5::GRID.VP.802::axis::axis.2-1-2-1.1" class="viewport"/>
                  </g>
                </g>
              </g>
            </g>
          </g>
          <g id="layout::xlab-t.5-5-5-5.1" class="viewport"/>
          <g id="layout::xlab-b.9-5-9-5.1" class="viewport"/>
          <g id="layout::ylab-l.7-3-7-3.1" class="viewport"/>
          <g id="layout::ylab-r.7-7-7-7.1" class="viewport"/>
          <g id="layout::guide-box.7-9-7-9.1" class="viewport">
            <g id="layout::guide-box.7-9-7-9::GRID.VP.820.1" class="viewport">
              <g id="layout::guide-box.7-9-7-9::GRID.VP.820::guide-box.7-9-7-9.1" class="viewport">
                <g id="guide-box.7-9-7-9.1" class="forcedgrob gTableChild gtable gTree grob gDesc">
                  <g id="layout::guide-box.7-9-7-9::GRID.VP.820::guide-box.7-9-7-9::legend.box.background.2-4-4-2.1" class="viewport"/>
                  <g id="layout::guide-box.7-9-7-9::GRID.VP.820::guide-box.7-9-7-9::guides.3-3-3-3.1" class="viewport">
                    <g id="layout::guide-box.7-9-7-9::GRID.VP.820::guide-box.7-9-7-9::guides.3-3-3-3::GRID.VP.819.1" class="viewport">
                      <g id="layout::guide-box.7-9-7-9::GRID.VP.820::guide-box.7-9-7-9::guides.3-3-3-3::GRID.VP.819::guides.3-3-3-3.1" class="viewport">
                        <g id="guides.3-3-3-3.1" class="forcedgrob gTableChild gtable gTree grob gDesc">
                          <g id="layout::guide-box.7-9-7-9::GRID.VP.820::guide-box.7-9-7-9::guides.3-3-3-3::GRID.VP.819::guides.3-3-3-3::background.1-6-9-1.1" class="viewport">
                            <g id="background.1-6-9-1.1" class="forcedgrob gTableChild rect grob gDesc">
                              <rect id="background.1-6-9-1.1.1" x="410.18" y="193.22" width="88.34" height="102.84" transform="" stroke-width="1.07" stroke="none" fill="rgb(255,255,255)" stroke-dasharray="none" stroke-opacity="0" fill-opacity="1"/>
                            </g>
                          </g>
                          <g id="layout::guide-box.7-9-7-9::GRID.VP.820::guide-box.7-9-7-9::guides.3-3-3-3::GRID.VP.819::guides.3-3-3-3::title.2-5-2-2.1" class="viewport"/>
                          <g id="layout::guide-box.7-9-7-9::GRID.VP.820::guide-box.7-9-7-9::guides.3-3-3-3::GRID.VP.819::guides.3-3-3-3::key-3-1-bg.4-2-4-2.1" class="viewport"/>
                          <g id="layout::guide-box.7-9-7-9::GRID.VP.820::guide-box.7-9-7-9::guides.3-3-3-3::GRID.VP.819::guides.3-3-3-3::key-3-1-1.4-2-4-2.1" class="viewport">
                            <g id="key-3-1-1.4-2-4-2.1" class="forcedgrob gTableChild rect grob gDesc">
                              <rect id="key-3-1-1.4-2-4-2.1.1" x="416.37" y="268.53" width="15.86" height="15.86" transform="" stroke="none" fill="rgb(248,118,109)" stroke-dasharray="none" stroke-width="1.07" stroke-linejoin="miter" stroke-opacity="0" fill-opacity="1"/>
                            </g>
                          </g>
                          <g id="layout::guide-box.7-9-7-9::GRID.VP.820::guide-box.7-9-7-9::guides.3-3-3-3::GRID.VP.819::guides.3-3-3-3::key-4-1-bg.5-2-5-2.1" class="viewport"/>
                          <g id="layout::guide-box.7-9-7-9::GRID.VP.820::guide-box.7-9-7-9::guides.3-3-3-3::GRID.VP.819::guides.3-3-3-3::key-4-1-1.5-2-5-2.1" class="viewport">
                            <g id="key-4-1-1.5-2-5-2.1" class="forcedgrob gTableChild rect grob gDesc">
                              <rect id="key-4-1-1.5-2-5-2.1.1" x="416.37" y="251.25" width="15.86" height="15.86" transform="" stroke="none" fill="rgb(163,165,0)" stroke-dasharray="none" stroke-width="1.07" stroke-linejoin="miter" stroke-opacity="0" fill-opacity="1"/>
                            </g>
                          </g>
                          <g id="layout::guide-box.7-9-7-9::GRID.VP.820::guide-box.7-9-7-9::guides.3-3-3-3::GRID.VP.819::guides.3-3-3-3::key-5-1-bg.6-2-6-2.1" class="viewport"/>
                          <g id="layout::guide-box.7-9-7-9::GRID.VP.820::guide-box.7-9-7-9::guides.3-3-3-3::GRID.VP.819::guides.3-3-3-3::key-5-1-1.6-2-6-2.1" class="viewport">
                            <g id="key-5-1-1.6-2-6-2.1" class="forcedgrob gTableChild rect grob gDesc">
                              <rect id="key-5-1-1.6-2-6-2.1.1" x="416.37" y="233.97" width="15.86" height="15.86" transform="" stroke="none" fill="rgb(0,191,125)" stroke-dasharray="none" stroke-width="1.07" stroke-linejoin="miter" stroke-opacity="0" fill-opacity="1"/>
                            </g>
                          </g>
                          <g id="layout::guide-box.7-9-7-9::GRID.VP.820::guide-box.7-9-7-9::guides.3-3-3-3::GRID.VP.819::guides.3-3-3-3::key-6-1-bg.7-2-7-2.1" class="viewport"/>
                          <g id="layout::guide-box.7-9-7-9::GRID.VP.820::guide-box.7-9-7-9::guides.3-3-3-3::GRID.VP.819::guides.3-3-3-3::key-6-1-1.7-2-7-2.1" class="viewport">
                            <g id="key-6-1-1.7-2-7-2.1" class="forcedgrob gTableChild rect grob gDesc">
                              <rect id="key-6-1-1.7-2-7-2.1.1" x="416.37" y="216.69" width="15.86" height="15.86" transform="" stroke="none" fill="rgb(0,176,246)" stroke-dasharray="none" stroke-width="1.07" stroke-linejoin="miter" stroke-opacity="0" fill-opacity="1"/>
                            </g>
                          </g>
                          <g id="layout::guide-box.7-9-7-9::GRID.VP.820::guide-box.7-9-7-9::guides.3-3-3-3::GRID.VP.819::guides.3-3-3-3::key-7-1-bg.8-2-8-2.1" class="viewport"/>
                          <g id="layout::guide-box.7-9-7-9::GRID.VP.820::guide-box.7-9-7-9::guides.3-3-3-3::GRID.VP.819::guides.3-3-3-3::key-7-1-1.8-2-8-2.1" class="viewport">
                            <g id="key-7-1-1.8-2-8-2.1" class="forcedgrob gTableChild rect grob gDesc">
                              <rect id="key-7-1-1.8-2-8-2.1.1" x="416.37" y="199.41" width="15.86" height="15.86" transform="" stroke="none" fill="rgb(231,107,243)" stroke-dasharray="none" stroke-width="1.07" stroke-linejoin="miter" stroke-opacity="0" fill-opacity="1"/>
                            </g>
                          </g>
                          <g id="layout::guide-box.7-9-7-9::GRID.VP.820::guide-box.7-9-7-9::guides.3-3-3-3::GRID.VP.819::guides.3-3-3-3::label-3-3.4-4-4-4.1" class="viewport">
                            <g id="layout::guide-box.7-9-7-9::GRID.VP.820::guide-box.7-9-7-9::guides.3-3-3-3::GRID.VP.819::guides.3-3-3-3::label-3-3.4-4-4-4::GRID.VP.814.1" class="viewport">
                              <g id="label-3-3.4-4-4-4.1" class="forcedgrob gTableChild gTree grob gDesc">
                                <g id="layout::guide-box.7-9-7-9::GRID.VP.820::guide-box.7-9-7-9::guides.3-3-3-3::GRID.VP.819::guides.3-3-3-3::label-3-3.4-4-4-4::GRID.VP.814::GRID.VP.804.1" font-size="8.8" stroke="rgb(0,0,0)" font-family="Helvetica, Arial, FreeSans, Liberation Sans, Nimbus Sans L, sans-serif" stroke-opacity="1" font-weight="normal" font-style="normal" class="viewport">
                                  <g id="layout::guide-box.7-9-7-9::GRID.VP.820::guide-box.7-9-7-9::guides.3-3-3-3::GRID.VP.819::guides.3-3-3-3::label-3-3.4-4-4-4::GRID.VP.814::GRID.VP.804::GRID.VP.805.1" class="viewport">
                                    <g id="guide.label.titleGrob.3364.1" class="titleGrob gTree grob gDesc">
                                      <g id="GRID.text.3362.1" class="text grob gDesc">
                                        <g id="GRID.text.3362.1.1" transform="translate(438.42, 276.46)" stroke-width="0.1">
                                          <g id="GRID.text.3362.1.1.scale" transform="scale(1, -1)">
                                            <text x="0" y="0" id="GRID.text.3362.1.1.text" text-anchor="start" font-size="8.8" stroke="rgb(0,0,0)" font-family="Helvetica, Arial, FreeSans, Liberation Sans, Nimbus Sans L, sans-serif" fill="rgb(0,0,0)" stroke-opacity="1" fill-opacity="1" font-weight="normal" font-style="normal">
                                              <tspan id="GRID.text.3362.1.1.tspan.1" dy="3.23" x="0">tutto (1)</tspan>
                                            </text>
                                          </g>
                                        </g>
                                      </g>
                                    </g>
                                  </g>
                                </g>
                              </g>
                            </g>
                          </g>
                          <g id="layout::guide-box.7-9-7-9::GRID.VP.820::guide-box.7-9-7-9::guides.3-3-3-3::GRID.VP.819::guides.3-3-3-3::label-4-3.5-4-5-4.1" class="viewport">
                            <g id="layout::guide-box.7-9-7-9::GRID.VP.820::guide-box.7-9-7-9::guides.3-3-3-3::GRID.VP.819::guides.3-3-3-3::label-4-3.5-4-5-4::GRID.VP.815.1" class="viewport">
                              <g id="label-4-3.5-4-5-4.1" class="forcedgrob gTableChild gTree grob gDesc">
                                <g id="layout::guide-box.7-9-7-9::GRID.VP.820::guide-box.7-9-7-9::guides.3-3-3-3::GRID.VP.819::guides.3-3-3-3::label-4-3.5-4-5-4::GRID.VP.815::GRID.VP.806.1" font-size="8.8" stroke="rgb(0,0,0)" font-family="Helvetica, Arial, FreeSans, Liberation Sans, Nimbus Sans L, sans-serif" stroke-opacity="1" font-weight="normal" font-style="normal" class="viewport">
                                  <g id="layout::guide-box.7-9-7-9::GRID.VP.820::guide-box.7-9-7-9::guides.3-3-3-3::GRID.VP.819::guides.3-3-3-3::label-4-3.5-4-5-4::GRID.VP.815::GRID.VP.806::GRID.VP.807.1" class="viewport">
                                    <g id="guide.label.titleGrob.3367.1" class="titleGrob gTree grob gDesc">
                                      <g id="GRID.text.3365.1" class="text grob gDesc">
                                        <g id="GRID.text.3365.1.1" transform="translate(438.42, 259.18)" stroke-width="0.1">
                                          <g id="GRID.text.3365.1.1.scale" transform="scale(1, -1)">
                                            <text x="0" y="0" id="GRID.text.3365.1.1.text" text-anchor="start" font-size="8.8" stroke="rgb(0,0,0)" font-family="Helvetica, Arial, FreeSans, Liberation Sans, Nimbus Sans L, sans-serif" fill="rgb(0,0,0)" stroke-opacity="1" fill-opacity="1" font-weight="normal" font-style="normal">
                                              <tspan id="GRID.text.3365.1.1.tspan.1" dy="3.23" x="0">avanzato (11)</tspan>
                                            </text>
                                          </g>
                                        </g>
                                      </g>
                                    </g>
                                  </g>
                                </g>
                              </g>
                            </g>
                          </g>
                          <g id="layout::guide-box.7-9-7-9::GRID.VP.820::guide-box.7-9-7-9::guides.3-3-3-3::GRID.VP.819::guides.3-3-3-3::label-5-3.6-4-6-4.1" class="viewport">
                            <g id="layout::guide-box.7-9-7-9::GRID.VP.820::guide-box.7-9-7-9::guides.3-3-3-3::GRID.VP.819::guides.3-3-3-3::label-5-3.6-4-6-4::GRID.VP.816.1" class="viewport">
                              <g id="label-5-3.6-4-6-4.1" class="forcedgrob gTableChild gTree grob gDesc">
                                <g id="layout::guide-box.7-9-7-9::GRID.VP.820::guide-box.7-9-7-9::guides.3-3-3-3::GRID.VP.819::guides.3-3-3-3::label-5-3.6-4-6-4::GRID.VP.816::GRID.VP.808.1" font-size="8.8" stroke="rgb(0,0,0)" font-family="Helvetica, Arial, FreeSans, Liberation Sans, Nimbus Sans L, sans-serif" stroke-opacity="1" font-weight="normal" font-style="normal" class="viewport">
                                  <g id="layout::guide-box.7-9-7-9::GRID.VP.820::guide-box.7-9-7-9::guides.3-3-3-3::GRID.VP.819::guides.3-3-3-3::label-5-3.6-4-6-4::GRID.VP.816::GRID.VP.808::GRID.VP.809.1" class="viewport">
                                    <g id="guide.label.titleGrob.3370.1" class="titleGrob gTree grob gDesc">
                                      <g id="GRID.text.3368.1" class="text grob gDesc">
                                        <g id="GRID.text.3368.1.1" transform="translate(438.42, 241.9)" stroke-width="0.1">
                                          <g id="GRID.text.3368.1.1.scale" transform="scale(1, -1)">
                                            <text x="0" y="0" id="GRID.text.3368.1.1.text" text-anchor="start" font-size="8.8" stroke="rgb(0,0,0)" font-family="Helvetica, Arial, FreeSans, Liberation Sans, Nimbus Sans L, sans-serif" fill="rgb(0,0,0)" stroke-opacity="1" fill-opacity="1" font-weight="normal" font-style="normal">
                                              <tspan id="GRID.text.3368.1.1.tspan.1" dy="3.23" x="0">nessuno (19)</tspan>
                                            </text>
                                          </g>
                                        </g>
                                      </g>
                                    </g>
                                  </g>
                                </g>
                              </g>
                            </g>
                          </g>
                          <g id="layout::guide-box.7-9-7-9::GRID.VP.820::guide-box.7-9-7-9::guides.3-3-3-3::GRID.VP.819::guides.3-3-3-3::label-6-3.7-4-7-4.1" class="viewport">
                            <g id="layout::guide-box.7-9-7-9::GRID.VP.820::guide-box.7-9-7-9::guides.3-3-3-3::GRID.VP.819::guides.3-3-3-3::label-6-3.7-4-7-4::GRID.VP.817.1" class="viewport">
                              <g id="label-6-3.7-4-7-4.1" class="forcedgrob gTableChild gTree grob gDesc">
                                <g id="layout::guide-box.7-9-7-9::GRID.VP.820::guide-box.7-9-7-9::guides.3-3-3-3::GRID.VP.819::guides.3-3-3-3::label-6-3.7-4-7-4::GRID.VP.817::GRID.VP.810.1" font-size="8.8" stroke="rgb(0,0,0)" font-family="Helvetica, Arial, FreeSans, Liberation Sans, Nimbus Sans L, sans-serif" stroke-opacity="1" font-weight="normal" font-style="normal" class="viewport">
                                  <g id="layout::guide-box.7-9-7-9::GRID.VP.820::guide-box.7-9-7-9::guides.3-3-3-3::GRID.VP.819::guides.3-3-3-3::label-6-3.7-4-7-4::GRID.VP.817::GRID.VP.810::GRID.VP.811.1" class="viewport">
                                    <g id="guide.label.titleGrob.3373.1" class="titleGrob gTree grob gDesc">
                                      <g id="GRID.text.3371.1" class="text grob gDesc">
                                        <g id="GRID.text.3371.1.1" transform="translate(438.42, 224.62)" stroke-width="0.1">
                                          <g id="GRID.text.3371.1.1.scale" transform="scale(1, -1)">
                                            <text x="0" y="0" id="GRID.text.3371.1.1.text" text-anchor="start" font-size="8.8" stroke="rgb(0,0,0)" font-family="Helvetica, Arial, FreeSans, Liberation Sans, Nimbus Sans L, sans-serif" fill="rgb(0,0,0)" stroke-opacity="1" fill-opacity="1" font-weight="normal" font-style="normal">
                                              <tspan id="GRID.text.3371.1.1.tspan.1" dy="3.23" x="0">medio (97)</tspan>
                                            </text>
                                          </g>
                                        </g>
                                      </g>
                                    </g>
                                  </g>
                                </g>
                              </g>
                            </g>
                          </g>
                          <g id="layout::guide-box.7-9-7-9::GRID.VP.820::guide-box.7-9-7-9::guides.3-3-3-3::GRID.VP.819::guides.3-3-3-3::label-7-3.8-4-8-4.1" class="viewport">
                            <g id="layout::guide-box.7-9-7-9::GRID.VP.820::guide-box.7-9-7-9::guides.3-3-3-3::GRID.VP.819::guides.3-3-3-3::label-7-3.8-4-8-4::GRID.VP.818.1" class="viewport">
                              <g id="label-7-3.8-4-8-4.1" class="forcedgrob gTableChild gTree grob gDesc">
                                <g id="layout::guide-box.7-9-7-9::GRID.VP.820::guide-box.7-9-7-9::guides.3-3-3-3::GRID.VP.819::guides.3-3-3-3::label-7-3.8-4-8-4::GRID.VP.818::GRID.VP.812.1" font-size="8.8" stroke="rgb(0,0,0)" font-family="Helvetica, Arial, FreeSans, Liberation Sans, Nimbus Sans L, sans-serif" stroke-opacity="1" font-weight="normal" font-style="normal" class="viewport">
                                  <g id="layout::guide-box.7-9-7-9::GRID.VP.820::guide-box.7-9-7-9::guides.3-3-3-3::GRID.VP.819::guides.3-3-3-3::label-7-3.8-4-8-4::GRID.VP.818::GRID.VP.812::GRID.VP.813.1" class="viewport">
                                    <g id="guide.label.titleGrob.3376.1" class="titleGrob gTree grob gDesc">
                                      <g id="GRID.text.3374.1" class="text grob gDesc">
                                        <g id="GRID.text.3374.1.1" transform="translate(438.42, 207.34)" stroke-width="0.1">
                                          <g id="GRID.text.3374.1.1.scale" transform="scale(1, -1)">
                                            <text x="0" y="0" id="GRID.text.3374.1.1.text" text-anchor="start" font-size="8.8" stroke="rgb(0,0,0)" font-family="Helvetica, Arial, FreeSans, Liberation Sans, Nimbus Sans L, sans-serif" fill="rgb(0,0,0)" stroke-opacity="1" fill-opacity="1" font-weight="normal" font-style="normal">
                                              <tspan id="GRID.text.3374.1.1.tspan.1" dy="3.23" x="0">base (142)</tspan>
                                            </text>
                                          </g>
                                        </g>
                                      </g>
                                    </g>
                                  </g>
                                </g>
                              </g>
                            </g>
                          </g>
                        </g>
                      </g>
                    </g>
                  </g>
                </g>
              </g>
            </g>
          </g>
          <g id="layout::subtitle.4-5-4-5.1" class="viewport"/>
          <g id="layout::title.3-5-3-5.1" class="viewport">
            <g id="layout::title.3-5-3-5::GRID.VP.821.1" font-size="13.2" stroke="rgb(102,102,102)" font-family="Helvetica, Arial, FreeSans, Liberation Sans, Nimbus Sans L, sans-serif" stroke-opacity="1" font-weight="normal" font-style="normal" class="viewport">
              <g id="layout::title.3-5-3-5::GRID.VP.821::GRID.VP.822.1" class="viewport">
                <g id="title.3-5-3-5.1" class="forcedgrob gTableChild titleGrob gTree grob gDesc">
                  <g id="GRID.text.3394.1" class="text grob gDesc">
                    <g id="GRID.text.3394.1.1" transform="translate(203.72, 457.6)" stroke-width="0.1">
                      <g id="GRID.text.3394.1.1.scale" transform="scale(1, -1)">
                        <text x="0" y="0" id="GRID.text.3394.1.1.text" text-anchor="middle" font-size="13.2" stroke="rgb(102,102,102)" font-family="Helvetica, Arial, FreeSans, Liberation Sans, Nimbus Sans L, sans-serif" fill="rgb(102,102,102)" stroke-opacity="1" fill-opacity="1" font-weight="normal" font-style="normal">
                          <tspan id="GRID.text.3394.1.1.tspan.1" dy="9.33" x="0">anagrafica risoluzioneproblemi</tspan>
                        </text>
                      </g>
                    </g>
                  </g>
                </g>
              </g>
            </g>
          </g>
          <g id="layout::caption.10-5-10-5.1" class="viewport"/>
          <g id="layout::tag.2-2-2-2.1" class="viewport"/>
        </g>
      </g>
    </g>
  </g>
</svg>