<?xml version="1.0" encoding="UTF-8"?>
<svg xmlns="http://www.w3.org/2000/svg" xmlns:xlink="http://www.w3.org/1999/xlink" width="504px" height="504px" viewBox="0 0 504 504" version="1.1">
  <metadata xmlns:gridsvg="http://www.stat.auckland.ac.nz/~paul/R/gridSVG/">
    <gridsvg:generator name="gridSVG" version="1.6-0" time="2019-01-15 00:27:56"/>
    <gridsvg:argument name="name" value="./latest_informaggio_csv/risultati/svg/anagrafica-competenza.svg"/>
    <gridsvg:argument name="exportCoords" value="none"/>
    <gridsvg:argument name="exportMappings" value="none"/>
    <gridsvg:argument name="exportJS" value="none"/>
    <gridsvg:argument name="res" value="72"/>
    <gridsvg:argument name="prefix" value=""/>
    <gridsvg:argument name="addClasses" value="TRUE"/>
    <gridsvg:argument name="indent" value="TRUE"/>
    <gridsvg:argument name="htmlWrapper" value="FALSE"/>
    <gridsvg:argument name="usePaths" value="vpPaths"/>
    <gridsvg:argument name="uniqueNames" value="TRUE"/>
    <gridsvg:separator name="id.sep" value="."/>
    <gridsvg:separator name="gPath.sep" value="::"/>
    <gridsvg:separator name="vpPath.sep" value="::"/>
  </metadata>
  <g transform="translate(0, 504) scale(1, -1)">
    <g id="gridSVG" fill="none" stroke="rgb(0,0,0)" stroke-dasharray="none" stroke-width="0.75" font-size="12" font-family="Helvetica, Arial, FreeSans, Liberation Sans, Nimbus Sans L, sans-serif" opacity="1" stroke-linecap="round" stroke-linejoin="round" stroke-miterlimit="10" stroke-opacity="1" fill-opacity="0" font-weight="normal" font-style="normal">
      <g id="layout.1" class="viewport">
        <g id="layout.2" class="forcedgrob gtable gTree grob gDesc">
          <defs>
            <clipPath id="layout::background.1-11-12-1.1.clipPath">
              <rect x="0" y="46.62" width="504" height="410.75" fill="none" stroke="none"/>
            </clipPath>
          </defs>
          <g id="layout::background.1-11-12-1.1" clip-path="url(#layout::background.1-11-12-1.1.clipPath)" class="viewport">
            <g id="background.1-11-12-1.1" class="forcedgrob gTableChild rect grob gDesc">
              <rect id="background.1-11-12-1.1.1" x="0" y="46.62" width="504" height="410.75" transform="" stroke-width="1.07" stroke="rgb(255,255,255)" fill="rgb(255,255,255)" stroke-dasharray="none" stroke-opacity="1" fill-opacity="1"/>
            </g>
          </g>
          <defs>
            <clipPath id="layout::panel.7-5-7-5.1.clipPath">
              <rect x="8.22" y="54.84" width="379.6" height="379.6" fill="none" stroke="none"/>
            </clipPath>
          </defs>
          <g id="layout::panel.7-5-7-5.1" clip-path="url(#layout::panel.7-5-7-5.1.clipPath)" class="viewport">
            <g id="panel.7-5-7-5.1" class="forcedgrob gTableChild gTree grob gDesc">
              <g id="grill.gTree.1416.1" class="gTree grob gDesc">
                <g id="panel.background..rect.1412.1" class="rect grob gDesc">
                  <rect id="panel.background..rect.1412.1.1" x="8.22" y="54.84" width="379.6" height="379.6" transform="" stroke-width="1.07" stroke="none" fill="rgb(255,255,255)" stroke-dasharray="none" stroke-opacity="0" fill-opacity="1"/>
                </g>
              </g>
              <g id="bar.gTree.1405.1" class="gTree grob gDesc">
                <g id="geom_polygon.polygon.1395.1" class="polygon grob gDesc">
                  <polygon id="geom_polygon.polygon.1395.1.1" points="198.02,244.64 199.34,239.58 200.67,234.51 202,229.45 203.32,224.38 204.65,219.32 205.97,214.25 207.3,209.19 208.62,204.12 209.95,199.06 211.28,193.99 212.6,188.93 213.93,183.86 215.25,178.79 216.58,173.73 217.9,168.66 219.23,163.6 220.56,158.53 221.88,153.47 223.21,148.4 224.53,143.34 225.86,138.27 227.18,133.21 228.51,128.14 229.84,123.08 231.16,118.01 232.49,112.95 233.81,107.88 235.14,102.82 236.46,97.75 241.43,99.14 246.34,100.7 251.2,102.42 256,104.31 260.73,106.36 265.38,108.56 269.96,110.93 274.46,113.45 278.87,116.12 283.19,118.94 287.4,121.9 291.52,125 295.52,128.25 299.42,131.62 303.2,135.13 306.85,138.76 310.38,142.52 313.79,146.39 317.05,150.38 320.18,154.47 323.18,158.67 326.02,162.97 328.72,167.36 331.27,171.84 333.66,176.4 335.9,181.05 337.98,185.76 339.9,190.55 341.65,195.4 343.24,200.3 344.66,205.25 345.91,210.25 347,215.29 347.91,220.37 348.64,225.47 349.21,230.59 349.6,235.73 349.81,240.88 349.85,246.04 349.72,251.19 349.41,256.33 348.92,261.47 348.27,266.58 347.44,271.66 346.43,276.72 345.26,281.74 343.91,286.72 342.4,291.64 340.72,296.52 338.88,301.33 336.88,306.08 334.71,310.76 332.39,315.36 329.91,319.88 327.28,324.31 324.5,328.65 321.58,332.9 318.51,337.04 315.3,341.08 311.96,345 308.49,348.81 304.89,352.5 301.17,356.07 297.33,359.5 293.37,362.81 289.31,365.98 285.14,369.01 280.87,371.89 276.5,374.63 272.04,377.22 267.5,379.65 262.88,381.93 258.18,384.06 253.41,386.02 248.58,387.82 243.69,389.45 238.75,390.92 233.76,392.22 228.73,393.34 223.67,394.3 218.57,395.09 213.46,395.7 208.32,396.13 203.17,396.4 198.02,396.48 198.02,391.25 198.02,386.01 198.02,380.78 198.02,375.54 198.02,370.3 198.02,365.07 198.02,359.83 198.02,354.6 198.02,349.36 198.02,344.12 198.02,338.89 198.02,333.65 198.02,328.42 198.02,323.18 198.02,317.95 198.02,312.71 198.02,307.47 198.02,302.24 198.02,297 198.02,291.77 198.02,286.53 198.02,281.29 198.02,276.06 198.02,270.82 198.02,265.59 198.02,260.35 198.02,255.11 198.02,249.88 198.02,244.64 198.02,244.64" stroke="none" fill="rgb(231,107,243)" stroke-width="1.07" stroke-dasharray="none" stroke-opacity="0" fill-opacity="1"/>
                </g>
                <g id="geom_polygon.polygon.1397.1" class="polygon grob gDesc">
                  <polygon id="geom_polygon.polygon.1397.1.1" points="198.02,244.64 193.04,243.03 188.06,241.41 183.08,239.79 178.1,238.17 173.12,236.55 168.14,234.94 163.16,233.32 158.18,231.7 153.2,230.08 148.22,228.46 143.24,226.85 138.26,225.23 133.28,223.61 128.3,221.99 123.33,220.37 118.35,218.76 113.37,217.14 108.39,215.52 103.41,213.9 98.43,212.28 93.45,210.67 88.47,209.05 83.49,207.43 78.51,205.81 73.53,204.19 68.55,202.58 63.57,200.96 58.59,199.34 53.61,197.72 55.31,192.79 57.18,187.91 59.21,183.1 61.41,178.37 63.76,173.71 66.28,169.14 68.95,164.66 71.78,160.27 74.75,155.98 77.87,151.8 81.14,147.72 84.54,143.76 88.07,139.92 91.74,136.2 95.53,132.61 99.44,129.16 103.47,125.84 107.6,122.66 111.85,119.62 116.2,116.73 120.64,114 125.18,111.41 129.8,108.99 134.5,106.73 139.28,104.62 144.13,102.69 149.04,100.92 154.01,99.32 159.03,97.89 164.1,96.64 169.2,95.56 174.35,94.66 179.51,93.93 184.71,93.39 189.91,93.02 195.13,92.83 200.35,92.82 205.56,92.99 210.77,93.34 215.97,93.87 221.14,94.57 226.28,95.46 231.39,96.52 236.46,97.75 235.14,102.82 233.81,107.88 232.49,112.95 231.16,118.01 229.84,123.08 228.51,128.14 227.18,133.21 225.86,138.27 224.53,143.34 223.21,148.4 221.88,153.47 220.56,158.53 219.23,163.6 217.9,168.66 216.58,173.73 215.25,178.79 213.93,183.86 212.6,188.93 211.28,193.99 209.95,199.06 208.62,204.12 207.3,209.19 205.97,214.25 204.65,219.32 203.32,224.38 202,229.45 200.67,234.51 199.34,239.58 198.02,244.64 198.02,244.64" stroke="none" fill="rgb(0,176,246)" stroke-width="1.07" stroke-dasharray="none" stroke-opacity="0" fill-opacity="1"/>
                </g>
                <g id="geom_polygon.polygon.1399.1" class="polygon grob gDesc">
                  <polygon id="geom_polygon.polygon.1399.1.1" points="198.02,244.64 195.14,249.02 192.26,253.39 189.39,257.77 186.51,262.14 183.63,266.52 180.76,270.89 177.88,275.26 175,279.64 172.12,284.01 169.25,288.39 166.37,292.76 163.49,297.14 160.62,301.51 157.74,305.89 154.86,310.26 151.98,314.64 149.11,319.01 146.23,323.38 143.35,327.76 140.48,332.13 137.6,336.51 134.72,340.88 131.84,345.26 128.97,349.63 126.09,354.01 123.21,358.38 120.34,362.75 117.46,367.13 114.58,371.5 110.28,368.57 106.08,365.49 101.99,362.26 98.02,358.9 94.16,355.41 90.42,351.78 86.81,348.03 83.33,344.15 79.99,340.16 76.78,336.06 73.72,331.85 70.8,327.54 68.03,323.13 65.42,318.62 62.96,314.03 60.66,309.36 58.52,304.61 56.55,299.79 54.74,294.91 53.1,289.97 51.63,284.97 50.34,279.93 49.21,274.85 48.27,269.73 47.49,264.58 46.9,259.4 46.48,254.21 46.24,249.01 46.18,243.81 46.3,238.6 46.6,233.4 47.07,228.22 47.72,223.05 48.55,217.91 49.56,212.8 50.73,207.73 52.09,202.7 53.61,197.72 58.59,199.34 63.57,200.96 68.55,202.58 73.53,204.19 78.51,205.81 83.49,207.43 88.47,209.05 93.45,210.67 98.43,212.28 103.41,213.9 108.39,215.52 113.37,217.14 118.35,218.76 123.33,220.37 128.3,221.99 133.28,223.61 138.26,225.23 143.24,226.85 148.22,228.46 153.2,230.08 158.18,231.7 163.16,233.32 168.14,234.94 173.12,236.55 178.1,238.17 183.08,239.79 188.06,241.41 193.04,243.03 198.02,244.64 198.02,244.64" stroke="none" fill="rgb(0,191,125)" stroke-width="1.07" stroke-dasharray="none" stroke-opacity="0" fill-opacity="1"/>
                </g>
                <g id="geom_polygon.polygon.1401.1" class="polygon grob gDesc">
                  <polygon id="geom_polygon.polygon.1401.1.1" points="198.02,244.64 196.81,249.74 195.6,254.83 194.4,259.93 193.19,265.02 191.98,270.12 190.77,275.21 189.57,280.31 188.36,285.4 187.15,290.5 185.94,295.59 184.74,300.69 183.53,305.78 182.32,310.87 181.11,315.97 179.91,321.06 178.7,326.16 177.49,331.25 176.28,336.35 175.08,341.44 173.87,346.54 172.66,351.63 171.45,356.73 170.25,361.82 169.04,366.92 167.83,372.01 166.62,377.11 165.42,382.2 164.21,387.3 163,392.39 157.87,391.08 152.78,389.59 147.75,387.92 142.78,386.08 137.88,384.07 133.05,381.88 128.3,379.53 123.63,377.01 119.06,374.34 114.58,371.5 117.46,367.13 120.34,362.75 123.21,358.38 126.09,354.01 128.97,349.63 131.84,345.26 134.72,340.88 137.6,336.51 140.48,332.13 143.35,327.76 146.23,323.38 149.11,319.01 151.98,314.64 154.86,310.26 157.74,305.89 160.62,301.51 163.49,297.14 166.37,292.76 169.25,288.39 172.12,284.01 175,279.64 177.88,275.26 180.76,270.89 183.63,266.52 186.51,262.14 189.39,257.77 192.26,253.39 195.14,249.02 198.02,244.64 198.02,244.64" stroke="none" fill="rgb(163,165,0)" stroke-width="1.07" stroke-dasharray="none" stroke-opacity="0" fill-opacity="1"/>
                </g>
                <g id="geom_polygon.polygon.1403.1" class="polygon grob gDesc">
                  <polygon id="geom_polygon.polygon.1403.1.1" points="198.02,244.64 198.02,249.88 198.02,255.11 198.02,260.35 198.02,265.59 198.02,270.82 198.02,276.06 198.02,281.29 198.02,286.53 198.02,291.77 198.02,297 198.02,302.24 198.02,307.47 198.02,312.71 198.02,317.95 198.02,323.18 198.02,328.42 198.02,333.65 198.02,338.89 198.02,344.12 198.02,349.36 198.02,354.6 198.02,359.83 198.02,365.07 198.02,370.3 198.02,375.54 198.02,380.78 198.02,386.01 198.02,391.25 198.02,396.48 192.13,396.37 186.25,396.03 180.39,395.46 174.56,394.66 168.76,393.64 163,392.39 164.21,387.3 165.42,382.2 166.62,377.11 167.83,372.01 169.04,366.92 170.25,361.82 171.45,356.73 172.66,351.63 173.87,346.54 175.08,341.44 176.28,336.35 177.49,331.25 178.7,326.16 179.91,321.06 181.11,315.97 182.32,310.87 183.53,305.78 184.74,300.69 185.94,295.59 187.15,290.5 188.36,285.4 189.57,280.31 190.77,275.21 191.98,270.12 193.19,265.02 194.4,259.93 195.6,254.83 196.81,249.74 198.02,244.64 198.02,244.64" stroke="none" fill="rgb(248,118,109)" stroke-width="1.07" stroke-dasharray="none" stroke-opacity="0" fill-opacity="1"/>
                </g>
              </g>
              <g id="GRID.text.1406.1" class="text grob gDesc">
                <g id="GRID.text.1406.1.1" transform="translate(273.32, 254.33)" stroke-width="0.1">
                  <g id="GRID.text.1406.1.1.scale" transform="scale(1, -1)">
                    <text x="0" y="0" id="GRID.text.1406.1.1.text" text-anchor="middle" stroke="rgb(0,0,0)" font-size="11.04" font-family="Helvetica, Arial, FreeSans, Liberation Sans, Nimbus Sans L, sans-serif" fill="rgb(0,0,0)" stroke-opacity="1" fill-opacity="1" font-weight="normal" font-style="normal">
                      <tspan id="GRID.text.1406.1.1.tspan.1" dy="3.95" x="0">124</tspan>
                    </text>
                  </g>
                </g>
                <g id="GRID.text.1406.1.2" transform="translate(161.6, 178.03)" stroke-width="0.1">
                  <g id="GRID.text.1406.1.2.scale" transform="scale(1, -1)">
                    <text x="0" y="0" id="GRID.text.1406.1.2.text" text-anchor="middle" stroke="rgb(0,0,0)" font-size="11.04" font-family="Helvetica, Arial, FreeSans, Liberation Sans, Nimbus Sans L, sans-serif" fill="rgb(0,0,0)" stroke-opacity="1" fill-opacity="1" font-weight="normal" font-style="normal">
                      <tspan id="GRID.text.1406.1.2.tspan.1" dy="3.95" x="0">65</tspan>
                    </text>
                  </g>
                </g>
                <g id="GRID.text.1406.1.3" transform="translate(126.38, 269.78)" stroke-width="0.1">
                  <g id="GRID.text.1406.1.3.scale" transform="scale(1, -1)">
                    <text x="0" y="0" id="GRID.text.1406.1.3.text" text-anchor="middle" stroke="rgb(0,0,0)" font-size="11.04" font-family="Helvetica, Arial, FreeSans, Liberation Sans, Nimbus Sans L, sans-serif" fill="rgb(0,0,0)" stroke-opacity="1" fill-opacity="1" font-weight="normal" font-style="normal">
                      <tspan id="GRID.text.1406.1.3.tspan.1" dy="3.95" x="0">56</tspan>
                    </text>
                  </g>
                </g>
                <g id="GRID.text.1406.1.4" transform="translate(167.95, 314.35)" stroke-width="0.1">
                  <g id="GRID.text.1406.1.4.scale" transform="scale(1, -1)">
                    <text x="0" y="0" id="GRID.text.1406.1.4.text" text-anchor="middle" stroke="rgb(0,0,0)" font-size="11.04" font-family="Helvetica, Arial, FreeSans, Liberation Sans, Nimbus Sans L, sans-serif" fill="rgb(0,0,0)" stroke-opacity="1" fill-opacity="1" font-weight="normal" font-style="normal">
                      <tspan id="GRID.text.1406.1.4.tspan.1" dy="3.95" x="0">15</tspan>
                    </text>
                  </g>
                </g>
                <g id="GRID.text.1406.1.5" transform="translate(189.21, 320.05)" stroke-width="0.1">
                  <g id="GRID.text.1406.1.5.scale" transform="scale(1, -1)">
                    <text x="0" y="0" id="GRID.text.1406.1.5.text" text-anchor="middle" stroke="rgb(0,0,0)" font-size="11.04" font-family="Helvetica, Arial, FreeSans, Liberation Sans, Nimbus Sans L, sans-serif" fill="rgb(0,0,0)" stroke-opacity="1" fill-opacity="1" font-weight="normal" font-style="normal">
                      <tspan id="GRID.text.1406.1.5.tspan.1" dy="3.95" x="0">10</tspan>
                    </text>
                  </g>
                </g>
              </g>
              <g id="GRID.gTree.1407.1" class="gTree grob gDesc"/>
            </g>
          </g>
          <g id="layout::spacer.8-6-8-6.1" class="viewport"/>
          <g id="layout::spacer.8-4-8-4.1" class="viewport"/>
          <g id="layout::spacer.6-6-6-6.1" class="viewport"/>
          <g id="layout::spacer.6-4-6-4.1" class="viewport"/>
          <g id="layout::axis-t.6-5-6-5.1" class="viewport"/>
          <g id="layout::axis-l.7-4-7-4.1" class="viewport">
            <g id="layout::axis-l.7-4-7-4::GRID.VP.341.1" class="viewport">
              <g id="axis-l.7-4-7-4.1" class="forcedgrob gTableChild absoluteGrob gTree grob gDesc">
                <g id="layout::axis-l.7-4-7-4::GRID.VP.341::axis.1" class="viewport">
                  <g id="axis.1" class="forcedgrob gtable gTree grob gDesc">
                    <g id="layout::axis-l.7-4-7-4::GRID.VP.341::axis::axis.1-1-1-1.1" class="viewport"/>
                    <g id="layout::axis-l.7-4-7-4::GRID.VP.341::axis::axis.1-2-1-2.1" class="viewport"/>
                  </g>
                </g>
              </g>
            </g>
          </g>
          <g id="layout::axis-r.7-6-7-6.1" class="viewport"/>
          <g id="layout::axis-b.8-5-8-5.1" class="viewport">
            <g id="layout::axis-b.8-5-8-5::GRID.VP.340.1" class="viewport">
              <g id="axis-b.8-5-8-5.1" class="forcedgrob gTableChild absoluteGrob gTree grob gDesc">
                <g id="layout::axis-b.8-5-8-5::GRID.VP.340::axis.1" class="viewport">
                  <g id="axis.2" class="forcedgrob gtable gTree grob gDesc">
                    <g id="layout::axis-b.8-5-8-5::GRID.VP.340::axis::axis.1-1-1-1.1" class="viewport"/>
                    <g id="layout::axis-b.8-5-8-5::GRID.VP.340::axis::axis.2-1-2-1.1" class="viewport"/>
                  </g>
                </g>
              </g>
            </g>
          </g>
          <g id="layout::xlab-t.5-5-5-5.1" class="viewport"/>
          <g id="layout::xlab-b.9-5-9-5.1" class="viewport"/>
          <g id="layout::ylab-l.7-3-7-3.1" class="viewport"/>
          <g id="layout::ylab-r.7-7-7-7.1" class="viewport"/>
          <g id="layout::guide-box.7-9-7-9.1" class="viewport">
            <g id="layout::guide-box.7-9-7-9::GRID.VP.358.1" class="viewport">
              <g id="layout::guide-box.7-9-7-9::GRID.VP.358::guide-box.7-9-7-9.1" class="viewport">
                <g id="guide-box.7-9-7-9.1" class="forcedgrob gTableChild gtable gTree grob gDesc">
                  <g id="layout::guide-box.7-9-7-9::GRID.VP.358::guide-box.7-9-7-9::legend.box.background.2-4-4-2.1" class="viewport"/>
                  <g id="layout::guide-box.7-9-7-9::GRID.VP.358::guide-box.7-9-7-9::guides.3-3-3-3.1" class="viewport">
                    <g id="layout::guide-box.7-9-7-9::GRID.VP.358::guide-box.7-9-7-9::guides.3-3-3-3::GRID.VP.357.1" class="viewport">
                      <g id="layout::guide-box.7-9-7-9::GRID.VP.358::guide-box.7-9-7-9::guides.3-3-3-3::GRID.VP.357::guides.3-3-3-3.1" class="viewport">
                        <g id="guides.3-3-3-3.1" class="forcedgrob gTableChild gtable gTree grob gDesc">
                          <g id="layout::guide-box.7-9-7-9::GRID.VP.358::guide-box.7-9-7-9::guides.3-3-3-3::GRID.VP.357::guides.3-3-3-3::background.1-6-9-1.1" class="viewport">
                            <g id="background.1-6-9-1.1" class="forcedgrob gTableChild rect grob gDesc">
                              <rect id="background.1-6-9-1.1.1" x="398.78" y="193.22" width="99.74" height="102.84" transform="" stroke-width="1.07" stroke="none" fill="rgb(255,255,255)" stroke-dasharray="none" stroke-opacity="0" fill-opacity="1"/>
                            </g>
                          </g>
                          <g id="layout::guide-box.7-9-7-9::GRID.VP.358::guide-box.7-9-7-9::guides.3-3-3-3::GRID.VP.357::guides.3-3-3-3::title.2-5-2-2.1" class="viewport"/>
                          <g id="layout::guide-box.7-9-7-9::GRID.VP.358::guide-box.7-9-7-9::guides.3-3-3-3::GRID.VP.357::guides.3-3-3-3::key-3-1-bg.4-2-4-2.1" class="viewport"/>
                          <g id="layout::guide-box.7-9-7-9::GRID.VP.358::guide-box.7-9-7-9::guides.3-3-3-3::GRID.VP.357::guides.3-3-3-3::key-3-1-1.4-2-4-2.1" class="viewport">
                            <g id="key-3-1-1.4-2-4-2.1" class="forcedgrob gTableChild rect grob gDesc">
                              <rect id="key-3-1-1.4-2-4-2.1.1" x="404.97" y="268.53" width="15.86" height="15.86" transform="" stroke="none" fill="rgb(248,118,109)" stroke-dasharray="none" stroke-width="1.07" stroke-linejoin="miter" stroke-opacity="0" fill-opacity="1"/>
                            </g>
                          </g>
                          <g id="layout::guide-box.7-9-7-9::GRID.VP.358::guide-box.7-9-7-9::guides.3-3-3-3::GRID.VP.357::guides.3-3-3-3::key-4-1-bg.5-2-5-2.1" class="viewport"/>
                          <g id="layout::guide-box.7-9-7-9::GRID.VP.358::guide-box.7-9-7-9::guides.3-3-3-3::GRID.VP.357::guides.3-3-3-3::key-4-1-1.5-2-5-2.1" class="viewport">
                            <g id="key-4-1-1.5-2-5-2.1" class="forcedgrob gTableChild rect grob gDesc">
                              <rect id="key-4-1-1.5-2-5-2.1.1" x="404.97" y="251.25" width="15.86" height="15.86" transform="" stroke="none" fill="rgb(163,165,0)" stroke-dasharray="none" stroke-width="1.07" stroke-linejoin="miter" stroke-opacity="0" fill-opacity="1"/>
                            </g>
                          </g>
                          <g id="layout::guide-box.7-9-7-9::GRID.VP.358::guide-box.7-9-7-9::guides.3-3-3-3::GRID.VP.357::guides.3-3-3-3::key-5-1-bg.6-2-6-2.1" class="viewport"/>
                          <g id="layout::guide-box.7-9-7-9::GRID.VP.358::guide-box.7-9-7-9::guides.3-3-3-3::GRID.VP.357::guides.3-3-3-3::key-5-1-1.6-2-6-2.1" class="viewport">
                            <g id="key-5-1-1.6-2-6-2.1" class="forcedgrob gTableChild rect grob gDesc">
                              <rect id="key-5-1-1.6-2-6-2.1.1" x="404.97" y="233.97" width="15.86" height="15.86" transform="" stroke="none" fill="rgb(0,191,125)" stroke-dasharray="none" stroke-width="1.07" stroke-linejoin="miter" stroke-opacity="0" fill-opacity="1"/>
                            </g>
                          </g>
                          <g id="layout::guide-box.7-9-7-9::GRID.VP.358::guide-box.7-9-7-9::guides.3-3-3-3::GRID.VP.357::guides.3-3-3-3::key-6-1-bg.7-2-7-2.1" class="viewport"/>
                          <g id="layout::guide-box.7-9-7-9::GRID.VP.358::guide-box.7-9-7-9::guides.3-3-3-3::GRID.VP.357::guides.3-3-3-3::key-6-1-1.7-2-7-2.1" class="viewport">
                            <g id="key-6-1-1.7-2-7-2.1" class="forcedgrob gTableChild rect grob gDesc">
                              <rect id="key-6-1-1.7-2-7-2.1.1" x="404.97" y="216.69" width="15.86" height="15.86" transform="" stroke="none" fill="rgb(0,176,246)" stroke-dasharray="none" stroke-width="1.07" stroke-linejoin="miter" stroke-opacity="0" fill-opacity="1"/>
                            </g>
                          </g>
                          <g id="layout::guide-box.7-9-7-9::GRID.VP.358::guide-box.7-9-7-9::guides.3-3-3-3::GRID.VP.357::guides.3-3-3-3::key-7-1-bg.8-2-8-2.1" class="viewport"/>
                          <g id="layout::guide-box.7-9-7-9::GRID.VP.358::guide-box.7-9-7-9::guides.3-3-3-3::GRID.VP.357::guides.3-3-3-3::key-7-1-1.8-2-8-2.1" class="viewport">
                            <g id="key-7-1-1.8-2-8-2.1" class="forcedgrob gTableChild rect grob gDesc">
                              <rect id="key-7-1-1.8-2-8-2.1.1" x="404.97" y="199.41" width="15.86" height="15.86" transform="" stroke="none" fill="rgb(231,107,243)" stroke-dasharray="none" stroke-width="1.07" stroke-linejoin="miter" stroke-opacity="0" fill-opacity="1"/>
                            </g>
                          </g>
                          <g id="layout::guide-box.7-9-7-9::GRID.VP.358::guide-box.7-9-7-9::guides.3-3-3-3::GRID.VP.357::guides.3-3-3-3::label-3-3.4-4-4-4.1" class="viewport">
                            <g id="layout::guide-box.7-9-7-9::GRID.VP.358::guide-box.7-9-7-9::guides.3-3-3-3::GRID.VP.357::guides.3-3-3-3::label-3-3.4-4-4-4::GRID.VP.352.1" class="viewport">
                              <g id="label-3-3.4-4-4-4.1" class="forcedgrob gTableChild gTree grob gDesc">
                                <g id="layout::guide-box.7-9-7-9::GRID.VP.358::guide-box.7-9-7-9::guides.3-3-3-3::GRID.VP.357::guides.3-3-3-3::label-3-3.4-4-4-4::GRID.VP.352::GRID.VP.342.1" font-size="8.8" stroke="rgb(0,0,0)" font-family="Helvetica, Arial, FreeSans, Liberation Sans, Nimbus Sans L, sans-serif" stroke-opacity="1" font-weight="normal" font-style="normal" class="viewport">
                                  <g id="layout::guide-box.7-9-7-9::GRID.VP.358::guide-box.7-9-7-9::guides.3-3-3-3::GRID.VP.357::guides.3-3-3-3::label-3-3.4-4-4-4::GRID.VP.352::GRID.VP.342::GRID.VP.343.1" class="viewport">
                                    <g id="guide.label.titleGrob.1430.1" class="titleGrob gTree grob gDesc">
                                      <g id="GRID.text.1428.1" class="text grob gDesc">
                                        <g id="GRID.text.1428.1.1" transform="translate(427.02, 276.46)" stroke-width="0.1">
                                          <g id="GRID.text.1428.1.1.scale" transform="scale(1, -1)">
                                            <text x="0" y="0" id="GRID.text.1428.1.1.text" text-anchor="start" font-size="8.8" stroke="rgb(0,0,0)" font-family="Helvetica, Arial, FreeSans, Liberation Sans, Nimbus Sans L, sans-serif" fill="rgb(0,0,0)" stroke-opacity="1" fill-opacity="1" font-weight="normal" font-style="normal">
                                              <tspan id="GRID.text.1428.1.1.tspan.1" dy="3.23" x="0">ottima (10)</tspan>
                                            </text>
                                          </g>
                                        </g>
                                      </g>
                                    </g>
                                  </g>
                                </g>
                              </g>
                            </g>
                          </g>
                          <g id="layout::guide-box.7-9-7-9::GRID.VP.358::guide-box.7-9-7-9::guides.3-3-3-3::GRID.VP.357::guides.3-3-3-3::label-4-3.5-4-5-4.1" class="viewport">
                            <g id="layout::guide-box.7-9-7-9::GRID.VP.358::guide-box.7-9-7-9::guides.3-3-3-3::GRID.VP.357::guides.3-3-3-3::label-4-3.5-4-5-4::GRID.VP.353.1" class="viewport">
                              <g id="label-4-3.5-4-5-4.1" class="forcedgrob gTableChild gTree grob gDesc">
                                <g id="layout::guide-box.7-9-7-9::GRID.VP.358::guide-box.7-9-7-9::guides.3-3-3-3::GRID.VP.357::guides.3-3-3-3::label-4-3.5-4-5-4::GRID.VP.353::GRID.VP.344.1" font-size="8.8" stroke="rgb(0,0,0)" font-family="Helvetica, Arial, FreeSans, Liberation Sans, Nimbus Sans L, sans-serif" stroke-opacity="1" font-weight="normal" font-style="normal" class="viewport">
                                  <g id="layout::guide-box.7-9-7-9::GRID.VP.358::guide-box.7-9-7-9::guides.3-3-3-3::GRID.VP.357::guides.3-3-3-3::label-4-3.5-4-5-4::GRID.VP.353::GRID.VP.344::GRID.VP.345.1" class="viewport">
                                    <g id="guide.label.titleGrob.1433.1" class="titleGrob gTree grob gDesc">
                                      <g id="GRID.text.1431.1" class="text grob gDesc">
                                        <g id="GRID.text.1431.1.1" transform="translate(427.02, 259.18)" stroke-width="0.1">
                                          <g id="GRID.text.1431.1.1.scale" transform="scale(1, -1)">
                                            <text x="0" y="0" id="GRID.text.1431.1.1.text" text-anchor="start" font-size="8.8" stroke="rgb(0,0,0)" font-family="Helvetica, Arial, FreeSans, Liberation Sans, Nimbus Sans L, sans-serif" fill="rgb(0,0,0)" stroke-opacity="1" fill-opacity="1" font-weight="normal" font-style="normal">
                                              <tspan id="GRID.text.1431.1.1.tspan.1" dy="3.23" x="0">insufficiente (15)</tspan>
                                            </text>
                                          </g>
                                        </g>
                                      </g>
                                    </g>
                                  </g>
                                </g>
                              </g>
                            </g>
                          </g>
                          <g id="layout::guide-box.7-9-7-9::GRID.VP.358::guide-box.7-9-7-9::guides.3-3-3-3::GRID.VP.357::guides.3-3-3-3::label-5-3.6-4-6-4.1" class="viewport">
                            <g id="layout::guide-box.7-9-7-9::GRID.VP.358::guide-box.7-9-7-9::guides.3-3-3-3::GRID.VP.357::guides.3-3-3-3::label-5-3.6-4-6-4::GRID.VP.354.1" class="viewport">
                              <g id="label-5-3.6-4-6-4.1" class="forcedgrob gTableChild gTree grob gDesc">
                                <g id="layout::guide-box.7-9-7-9::GRID.VP.358::guide-box.7-9-7-9::guides.3-3-3-3::GRID.VP.357::guides.3-3-3-3::label-5-3.6-4-6-4::GRID.VP.354::GRID.VP.346.1" font-size="8.8" stroke="rgb(0,0,0)" font-family="Helvetica, Arial, FreeSans, Liberation Sans, Nimbus Sans L, sans-serif" stroke-opacity="1" font-weight="normal" font-style="normal" class="viewport">
                                  <g id="layout::guide-box.7-9-7-9::GRID.VP.358::guide-box.7-9-7-9::guides.3-3-3-3::GRID.VP.357::guides.3-3-3-3::label-5-3.6-4-6-4::GRID.VP.354::GRID.VP.346::GRID.VP.347.1" class="viewport">
                                    <g id="guide.label.titleGrob.1436.1" class="titleGrob gTree grob gDesc">
                                      <g id="GRID.text.1434.1" class="text grob gDesc">
                                        <g id="GRID.text.1434.1.1" transform="translate(427.02, 241.9)" stroke-width="0.1">
                                          <g id="GRID.text.1434.1.1.scale" transform="scale(1, -1)">
                                            <text x="0" y="0" id="GRID.text.1434.1.1.text" text-anchor="start" font-size="8.8" stroke="rgb(0,0,0)" font-family="Helvetica, Arial, FreeSans, Liberation Sans, Nimbus Sans L, sans-serif" fill="rgb(0,0,0)" stroke-opacity="1" fill-opacity="1" font-weight="normal" font-style="normal">
                                              <tspan id="GRID.text.1434.1.1.tspan.1" dy="3.23" x="0">scarsa (56)</tspan>
                                            </text>
                                          </g>
                                        </g>
                                      </g>
                                    </g>
                                  </g>
                                </g>
                              </g>
                            </g>
                          </g>
                          <g id="layout::guide-box.7-9-7-9::GRID.VP.358::guide-box.7-9-7-9::guides.3-3-3-3::GRID.VP.357::guides.3-3-3-3::label-6-3.7-4-7-4.1" class="viewport">
                            <g id="layout::guide-box.7-9-7-9::GRID.VP.358::guide-box.7-9-7-9::guides.3-3-3-3::GRID.VP.357::guides.3-3-3-3::label-6-3.7-4-7-4::GRID.VP.355.1" class="viewport">
                              <g id="label-6-3.7-4-7-4.1" class="forcedgrob gTableChild gTree grob gDesc">
                                <g id="layout::guide-box.7-9-7-9::GRID.VP.358::guide-box.7-9-7-9::guides.3-3-3-3::GRID.VP.357::guides.3-3-3-3::label-6-3.7-4-7-4::GRID.VP.355::GRID.VP.348.1" font-size="8.8" stroke="rgb(0,0,0)" font-family="Helvetica, Arial, FreeSans, Liberation Sans, Nimbus Sans L, sans-serif" stroke-opacity="1" font-weight="normal" font-style="normal" class="viewport">
                                  <g id="layout::guide-box.7-9-7-9::GRID.VP.358::guide-box.7-9-7-9::guides.3-3-3-3::GRID.VP.357::guides.3-3-3-3::label-6-3.7-4-7-4::GRID.VP.355::GRID.VP.348::GRID.VP.349.1" class="viewport">
                                    <g id="guide.label.titleGrob.1439.1" class="titleGrob gTree grob gDesc">
                                      <g id="GRID.text.1437.1" class="text grob gDesc">
                                        <g id="GRID.text.1437.1.1" transform="translate(427.02, 224.62)" stroke-width="0.1">
                                          <g id="GRID.text.1437.1.1.scale" transform="scale(1, -1)">
                                            <text x="0" y="0" id="GRID.text.1437.1.1.text" text-anchor="start" font-size="8.8" stroke="rgb(0,0,0)" font-family="Helvetica, Arial, FreeSans, Liberation Sans, Nimbus Sans L, sans-serif" fill="rgb(0,0,0)" stroke-opacity="1" fill-opacity="1" font-weight="normal" font-style="normal">
                                              <tspan id="GRID.text.1437.1.1.tspan.1" dy="3.23" x="0">sufficiente (65)</tspan>
                                            </text>
                                          </g>
                                        </g>
                                      </g>
                                    </g>
                                  </g>
                                </g>
                              </g>
                            </g>
                          </g>
                          <g id="layout::guide-box.7-9-7-9::GRID.VP.358::guide-box.7-9-7-9::guides.3-3-3-3::GRID.VP.357::guides.3-3-3-3::label-7-3.8-4-8-4.1" class="viewport">
                            <g id="layout::guide-box.7-9-7-9::GRID.VP.358::guide-box.7-9-7-9::guides.3-3-3-3::GRID.VP.357::guides.3-3-3-3::label-7-3.8-4-8-4::GRID.VP.356.1" class="viewport">
                              <g id="label-7-3.8-4-8-4.1" class="forcedgrob gTableChild gTree grob gDesc">
                                <g id="layout::guide-box.7-9-7-9::GRID.VP.358::guide-box.7-9-7-9::guides.3-3-3-3::GRID.VP.357::guides.3-3-3-3::label-7-3.8-4-8-4::GRID.VP.356::GRID.VP.350.1" font-size="8.8" stroke="rgb(0,0,0)" font-family="Helvetica, Arial, FreeSans, Liberation Sans, Nimbus Sans L, sans-serif" stroke-opacity="1" font-weight="normal" font-style="normal" class="viewport">
                                  <g id="layout::guide-box.7-9-7-9::GRID.VP.358::guide-box.7-9-7-9::guides.3-3-3-3::GRID.VP.357::guides.3-3-3-3::label-7-3.8-4-8-4::GRID.VP.356::GRID.VP.350::GRID.VP.351.1" class="viewport">
                                    <g id="guide.label.titleGrob.1442.1" class="titleGrob gTree grob gDesc">
                                      <g id="GRID.text.1440.1" class="text grob gDesc">
                                        <g id="GRID.text.1440.1.1" transform="translate(427.02, 207.34)" stroke-width="0.1">
                                          <g id="GRID.text.1440.1.1.scale" transform="scale(1, -1)">
                                            <text x="0" y="0" id="GRID.text.1440.1.1.text" text-anchor="start" font-size="8.8" stroke="rgb(0,0,0)" font-family="Helvetica, Arial, FreeSans, Liberation Sans, Nimbus Sans L, sans-serif" fill="rgb(0,0,0)" stroke-opacity="1" fill-opacity="1" font-weight="normal" font-style="normal">
                                              <tspan id="GRID.text.1440.1.1.tspan.1" dy="3.23" x="0">buona (124)</tspan>
                                            </text>
                                          </g>
                                        </g>
                                      </g>
                                    </g>
                                  </g>
                                </g>
                              </g>
                            </g>
                          </g>
                        </g>
                      </g>
                    </g>
                  </g>
                </g>
              </g>
            </g>
          </g>
          <g id="layout::subtitle.4-5-4-5.1" class="viewport"/>
          <g id="layout::title.3-5-3-5.1" class="viewport">
            <g id="layout::title.3-5-3-5::GRID.VP.359.1" font-size="13.2" stroke="rgb(102,102,102)" font-family="Helvetica, Arial, FreeSans, Liberation Sans, Nimbus Sans L, sans-serif" stroke-opacity="1" font-weight="normal" font-style="normal" class="viewport">
              <g id="layout::title.3-5-3-5::GRID.VP.359::GRID.VP.360.1" class="viewport">
                <g id="title.3-5-3-5.1" class="forcedgrob gTableChild titleGrob gTree grob gDesc">
                  <g id="GRID.text.1460.1" class="text grob gDesc">
                    <g id="GRID.text.1460.1.1" transform="translate(198.02, 451.9)" stroke-width="0.1">
                      <g id="GRID.text.1460.1.1.scale" transform="scale(1, -1)">
                        <text x="0" y="0" id="GRID.text.1460.1.1.text" text-anchor="middle" font-size="13.2" stroke="rgb(102,102,102)" font-family="Helvetica, Arial, FreeSans, Liberation Sans, Nimbus Sans L, sans-serif" fill="rgb(102,102,102)" stroke-opacity="1" fill-opacity="1" font-weight="normal" font-style="normal">
                          <tspan id="GRID.text.1460.1.1.tspan.1" dy="9.33" x="0">anagrafica competenza</tspan>
                        </text>
                      </g>
                    </g>
                  </g>
                </g>
              </g>
            </g>
          </g>
          <g id="layout::caption.10-5-10-5.1" class="viewport"/>
          <g id="layout::tag.2-2-2-2.1" class="viewport"/>
        </g>
      </g>
    </g>
  </g>
</svg>