<?xml version="1.0" encoding="UTF-8"?>
<svg xmlns="http://www.w3.org/2000/svg" xmlns:xlink="http://www.w3.org/1999/xlink" width="504px" height="504px" viewBox="0 0 504 504" version="1.1">
  <metadata xmlns:gridsvg="http://www.stat.auckland.ac.nz/~paul/R/gridSVG/">
    <gridsvg:generator name="gridSVG" version="1.6-0" time="2019-01-14 19:38:08"/>
    <gridsvg:argument name="name" value="./latest_informaggio_csv/risultati/svg/anagrafica-risoluzioneproblemi.svg"/>
    <gridsvg:argument name="exportCoords" value="none"/>
    <gridsvg:argument name="exportMappings" value="none"/>
    <gridsvg:argument name="exportJS" value="none"/>
    <gridsvg:argument name="res" value="72"/>
    <gridsvg:argument name="prefix" value=""/>
    <gridsvg:argument name="addClasses" value="TRUE"/>
    <gridsvg:argument name="indent" value="TRUE"/>
    <gridsvg:argument name="htmlWrapper" value="FALSE"/>
    <gridsvg:argument name="usePaths" value="vpPaths"/>
    <gridsvg:argument name="uniqueNames" value="TRUE"/>
    <gridsvg:separator name="id.sep" value="."/>
    <gridsvg:separator name="gPath.sep" value="::"/>
    <gridsvg:separator name="vpPath.sep" value="::"/>
  </metadata>
  <g transform="translate(0, 504) scale(1, -1)">
    <g id="gridSVG" fill="none" stroke="rgb(0,0,0)" stroke-dasharray="none" stroke-width="0.75" font-size="12" font-family="Helvetica, Arial, FreeSans, Liberation Sans, Nimbus Sans L, sans-serif" opacity="1" stroke-linecap="round" stroke-linejoin="round" stroke-miterlimit="10" stroke-opacity="1" fill-opacity="0" font-weight="normal" font-style="normal">
      <g id="layout.1" class="viewport">
        <g id="layout.2" class="forcedgrob gtable gTree grob gDesc">
          <defs>
            <clipPath id="layout::background.1-11-12-1.1.clipPath">
              <rect x="0" y="40.92" width="504" height="422.16" fill="none" stroke="none"/>
            </clipPath>
          </defs>
          <g id="layout::background.1-11-12-1.1" clip-path="url(#layout::background.1-11-12-1.1.clipPath)" class="viewport">
            <g id="background.1-11-12-1.1" class="forcedgrob gTableChild rect grob gDesc">
              <rect id="background.1-11-12-1.1.1" x="0" y="40.92" width="504" height="422.16" transform="" stroke-width="1.07" stroke="rgb(255,255,255)" fill="rgb(255,255,255)" stroke-dasharray="none" stroke-opacity="1" fill-opacity="1"/>
            </g>
          </g>
          <defs>
            <clipPath id="layout::panel.7-5-7-5.1.clipPath">
              <rect x="8.22" y="49.14" width="391" height="391" fill="none" stroke="none"/>
            </clipPath>
          </defs>
          <g id="layout::panel.7-5-7-5.1" clip-path="url(#layout::panel.7-5-7-5.1.clipPath)" class="viewport">
            <g id="panel.7-5-7-5.1" class="forcedgrob gTableChild gTree grob gDesc">
              <g id="grill.gTree.3328.1" class="gTree grob gDesc">
                <g id="panel.background..rect.3324.1" class="rect grob gDesc">
                  <rect id="panel.background..rect.3324.1.1" x="8.22" y="49.14" width="391" height="391" transform="" stroke-width="1.07" stroke="none" fill="rgb(255,255,255)" stroke-dasharray="none" stroke-opacity="0" fill-opacity="1"/>
                </g>
              </g>
              <g id="bar.gTree.3317.1" class="gTree grob gDesc">
                <g id="geom_polygon.polygon.3307.1" class="polygon grob gDesc">
                  <polygon id="geom_polygon.polygon.3307.1.1" points="203.72,244.64 202.69,239.35 201.66,234.05 200.64,228.76 199.61,223.47 198.58,218.17 197.55,212.88 196.52,207.58 195.49,202.29 194.47,197 193.44,191.7 192.41,186.41 191.38,181.11 190.35,175.82 189.32,170.52 188.3,165.23 187.27,159.94 186.24,154.64 185.21,149.35 184.18,144.05 183.15,138.76 182.13,133.47 181.1,128.17 180.07,122.88 179.04,117.58 178.01,112.29 176.98,106.99 175.96,101.7 174.93,96.41 173.9,91.11 179.14,90.19 184.4,89.44 189.69,88.87 195,88.49 200.31,88.28 205.63,88.25 210.95,88.41 216.26,88.75 221.56,89.26 226.83,89.96 232.08,90.83 237.29,91.89 242.47,93.12 247.6,94.52 252.68,96.1 257.7,97.85 262.66,99.77 267.55,101.86 272.37,104.11 277.11,106.53 281.77,109.11 286.33,111.84 290.8,114.73 295.17,117.76 299.43,120.95 303.58,124.27 307.62,127.74 311.53,131.34 315.32,135.07 318.99,138.93 322.51,142.91 325.9,147.01 329.15,151.22 332.26,155.54 335.21,159.96 338.02,164.48 340.67,169.1 343.16,173.8 345.49,178.58 347.65,183.44 349.65,188.37 351.48,193.37 353.14,198.42 354.62,203.53 355.93,208.68 357.07,213.88 358.02,219.11 358.8,224.38 359.4,229.66 359.82,234.97 360.06,240.28 360.12,245.6 360,250.92 359.69,256.23 359.21,261.53 358.54,266.8 357.7,272.06 356.68,277.28 355.48,282.46 354.11,287.6 352.56,292.69 350.84,297.72 348.95,302.7 346.89,307.6 344.67,312.43 342.28,317.19 339.73,321.86 337.03,326.44 334.17,330.93 331.16,335.31 328,339.59 324.7,343.77 321.26,347.82 317.68,351.76 313.97,355.57 310.14,359.26 306.18,362.81 302.1,366.23 297.91,369.5 293.61,372.63 289.2,375.62 284.7,378.45 280.1,381.12 275.42,383.64 270.65,386 265.8,388.2 260.88,390.22 255.9,392.08 250.86,393.77 245.76,395.29 240.61,396.63 235.42,397.8 230.19,398.79 224.93,399.6 219.65,400.23 214.35,400.68 209.04,400.95 203.72,401.04 203.72,395.65 203.72,390.26 203.72,384.86 203.72,379.47 203.72,374.08 203.72,368.69 203.72,363.29 203.72,357.9 203.72,352.51 203.72,347.11 203.72,341.72 203.72,336.33 203.72,330.93 203.72,325.54 203.72,320.15 203.72,314.75 203.72,309.36 203.72,303.97 203.72,298.57 203.72,293.18 203.72,287.79 203.72,282.4 203.72,277 203.72,271.61 203.72,266.22 203.72,260.82 203.72,255.43 203.72,250.04 203.72,244.64 203.72,244.64" stroke="none" fill="rgb(231,107,243)" stroke-width="1.07" stroke-dasharray="none" stroke-opacity="0" fill-opacity="1"/>
                </g>
                <g id="geom_polygon.polygon.3309.1" class="polygon grob gDesc">
                  <polygon id="geom_polygon.polygon.3309.1.1" points="203.72,244.64 200.17,248.7 196.61,252.76 193.06,256.81 189.51,260.87 185.95,264.93 182.4,268.98 178.84,273.04 175.29,277.1 171.74,281.15 168.18,285.21 164.63,289.27 161.07,293.32 157.52,297.38 153.97,301.43 150.41,305.49 146.86,309.55 143.3,313.6 139.75,317.66 136.2,321.72 132.64,325.77 129.09,329.83 125.53,333.89 121.98,337.94 118.43,342 114.87,346.06 111.32,350.11 107.76,354.17 104.21,358.23 100.66,362.28 96.68,358.68 92.83,354.94 89.11,351.07 85.53,347.08 82.09,342.96 78.79,338.73 75.63,334.39 72.63,329.94 69.78,325.39 67.09,320.75 64.56,316.02 62.19,311.2 59.99,306.31 57.96,301.34 56.1,296.31 54.41,291.21 52.9,286.06 51.57,280.87 50.42,275.63 49.45,270.35 48.66,265.04 48.05,259.71 47.62,254.36 47.38,249 47.32,243.63 47.45,238.27 47.76,232.91 48.25,227.57 48.93,222.24 49.79,216.95 50.83,211.68 52.05,206.46 53.45,201.28 55.03,196.15 56.78,191.08 58.7,186.07 60.8,181.13 63.06,176.26 65.49,171.47 68.08,166.78 70.83,162.17 73.74,157.66 76.8,153.25 80.01,148.95 83.37,144.76 86.86,140.69 90.5,136.74 94.27,132.92 98.16,129.24 102.18,125.68 106.33,122.27 110.58,119 114.95,115.88 119.42,112.91 123.98,110.09 128.65,107.44 133.4,104.94 138.23,102.61 143.14,100.45 148.13,98.46 153.17,96.64 158.28,94.99 163.44,93.52 168.65,92.22 173.9,91.11 174.93,96.41 175.96,101.7 176.98,106.99 178.01,112.29 179.04,117.58 180.07,122.88 181.1,128.17 182.13,133.47 183.15,138.76 184.18,144.05 185.21,149.35 186.24,154.64 187.27,159.94 188.3,165.23 189.32,170.52 190.35,175.82 191.38,181.11 192.41,186.41 193.44,191.7 194.47,197 195.49,202.29 196.52,207.58 197.55,212.88 198.58,218.17 199.61,223.47 200.64,228.76 201.66,234.05 202.69,239.35 203.72,244.64 203.72,244.64" stroke="none" fill="rgb(0,176,246)" stroke-width="1.07" stroke-dasharray="none" stroke-opacity="0" fill-opacity="1"/>
                </g>
                <g id="geom_polygon.polygon.3311.1" class="polygon grob gDesc">
                  <polygon id="geom_polygon.polygon.3311.1.1" points="203.72,244.64 202.31,249.85 200.91,255.06 199.5,260.26 198.1,265.47 196.69,270.68 195.28,275.88 193.88,281.09 192.47,286.3 191.06,291.5 189.66,296.71 188.25,301.92 186.85,307.12 185.44,312.33 184.03,317.54 182.63,322.74 181.22,327.95 179.81,333.15 178.41,338.36 177,343.57 175.6,348.77 174.19,353.98 172.78,359.19 171.38,364.39 169.97,369.6 168.56,374.81 167.16,380.01 165.75,385.22 164.35,390.43 162.94,395.63 157.67,394.11 152.46,392.41 147.32,390.52 142.24,388.45 137.24,386.21 132.32,383.79 127.49,381.21 122.75,378.45 118.11,375.53 113.57,372.45 109.15,369.21 104.84,365.82 100.66,362.28 104.21,358.23 107.76,354.17 111.32,350.11 114.87,346.06 118.43,342 121.98,337.94 125.53,333.89 129.09,329.83 132.64,325.77 136.2,321.72 139.75,317.66 143.3,313.6 146.86,309.55 150.41,305.49 153.97,301.43 157.52,297.38 161.07,293.32 164.63,289.27 168.18,285.21 171.74,281.15 175.29,277.1 178.84,273.04 182.4,268.98 185.95,264.93 189.51,260.87 193.06,256.81 196.61,252.76 200.17,248.7 203.72,244.64 203.72,244.64" stroke="none" fill="rgb(0,191,125)" stroke-width="1.07" stroke-dasharray="none" stroke-opacity="0" fill-opacity="1"/>
                </g>
                <g id="geom_polygon.polygon.3313.1" class="polygon grob gDesc">
                  <polygon id="geom_polygon.polygon.3313.1.1" points="203.72,244.64 203.59,250.03 203.46,255.43 203.33,260.82 203.2,266.21 203.07,271.6 202.94,276.99 202.82,282.38 202.69,287.78 202.56,293.17 202.43,298.56 202.3,303.95 202.17,309.34 202.04,314.73 201.91,320.13 201.78,325.52 201.65,330.91 201.52,336.3 201.39,341.69 201.26,347.08 201.13,352.48 201,357.87 200.88,363.26 200.75,368.65 200.62,374.04 200.49,379.43 200.36,384.82 200.23,390.22 200.1,395.61 199.97,401 194.62,400.78 189.27,400.38 183.95,399.79 178.65,399.02 173.37,398.07 168.14,396.94 162.94,395.63 164.35,390.43 165.75,385.22 167.16,380.01 168.56,374.81 169.97,369.6 171.38,364.39 172.78,359.19 174.19,353.98 175.6,348.77 177,343.57 178.41,338.36 179.81,333.15 181.22,327.95 182.63,322.74 184.03,317.54 185.44,312.33 186.85,307.12 188.25,301.92 189.66,296.71 191.06,291.5 192.47,286.3 193.88,281.09 195.28,275.88 196.69,270.68 198.1,265.47 199.5,260.26 200.91,255.06 202.31,249.85 203.72,244.64 203.72,244.64" stroke="none" fill="rgb(163,165,0)" stroke-width="1.07" stroke-dasharray="none" stroke-opacity="0" fill-opacity="1"/>
                </g>
                <g id="geom_polygon.polygon.3315.1" class="polygon grob gDesc">
                  <polygon id="geom_polygon.polygon.3315.1.1" points="203.72,244.64 203.72,250.04 203.72,255.43 203.72,260.82 203.72,266.22 203.72,271.61 203.72,277 203.72,282.4 203.72,287.79 203.72,293.18 203.72,298.57 203.72,303.97 203.72,309.36 203.72,314.75 203.72,320.15 203.72,325.54 203.72,330.93 203.72,336.33 203.72,341.72 203.72,347.11 203.72,352.51 203.72,357.9 203.72,363.29 203.72,368.69 203.72,374.08 203.72,379.47 203.72,384.86 203.72,390.26 203.72,395.65 203.72,401.04 199.97,401 200.1,395.61 200.23,390.22 200.36,384.82 200.49,379.43 200.62,374.04 200.75,368.65 200.88,363.26 201,357.87 201.13,352.48 201.26,347.08 201.39,341.69 201.52,336.3 201.65,330.91 201.78,325.52 201.91,320.13 202.04,314.73 202.17,309.34 202.3,303.95 202.43,298.56 202.56,293.17 202.69,287.78 202.82,282.38 202.94,276.99 203.07,271.6 203.2,266.21 203.33,260.82 203.46,255.43 203.59,250.03 203.72,244.64 203.72,244.64" stroke="none" fill="rgb(248,118,109)" stroke-width="1.07" stroke-dasharray="none" stroke-opacity="0" fill-opacity="1"/>
                </g>
              </g>
              <g id="GRID.text.3318.1" class="text grob gDesc">
                <g id="GRID.text.3318.1.1" transform="translate(281.56, 237.15)" stroke-width="0.1">
                  <g id="GRID.text.3318.1.1.scale" transform="scale(1, -1)">
                    <text x="0" y="0" id="GRID.text.3318.1.1.text" text-anchor="middle" stroke="rgb(0,0,0)" font-size="11.04" font-family="Helvetica, Arial, FreeSans, Liberation Sans, Nimbus Sans L, sans-serif" fill="rgb(0,0,0)" stroke-opacity="1" fill-opacity="1" font-weight="normal" font-style="normal">
                      <tspan id="GRID.text.3318.1.1.tspan.1" dy="3.95" x="0">139</tspan>
                    </text>
                  </g>
                </g>
                <g id="GRID.text.3318.1.2" transform="translate(128.23, 224.25)" stroke-width="0.1">
                  <g id="GRID.text.3318.1.2.scale" transform="scale(1, -1)">
                    <text x="0" y="0" id="GRID.text.3318.1.2.text" text-anchor="middle" stroke="rgb(0,0,0)" font-size="11.04" font-family="Helvetica, Arial, FreeSans, Liberation Sans, Nimbus Sans L, sans-serif" fill="rgb(0,0,0)" stroke-opacity="1" fill-opacity="1" font-weight="normal" font-style="normal">
                      <tspan id="GRID.text.3318.1.2.tspan.1" dy="3.95" x="0">93</tspan>
                    </text>
                  </g>
                </g>
                <g id="GRID.text.3318.1.3" transform="translate(166.81, 313.58)" stroke-width="0.1">
                  <g id="GRID.text.3318.1.3.scale" transform="scale(1, -1)">
                    <text x="0" y="0" id="GRID.text.3318.1.3.text" text-anchor="middle" stroke="rgb(0,0,0)" font-size="11.04" font-family="Helvetica, Arial, FreeSans, Liberation Sans, Nimbus Sans L, sans-serif" fill="rgb(0,0,0)" stroke-opacity="1" fill-opacity="1" font-weight="normal" font-style="normal">
                      <tspan id="GRID.text.3318.1.3.tspan.1" dy="3.95" x="0">19</tspan>
                    </text>
                  </g>
                </g>
                <g id="GRID.text.3318.1.4" transform="translate(192.51, 322.04)" stroke-width="0.1">
                  <g id="GRID.text.3318.1.4.scale" transform="scale(1, -1)">
                    <text x="0" y="0" id="GRID.text.3318.1.4.text" text-anchor="middle" stroke="rgb(0,0,0)" font-size="11.04" font-family="Helvetica, Arial, FreeSans, Liberation Sans, Nimbus Sans L, sans-serif" fill="rgb(0,0,0)" stroke-opacity="1" fill-opacity="1" font-weight="normal" font-style="normal">
                      <tspan id="GRID.text.3318.1.4.tspan.1" dy="3.95" x="0">10</tspan>
                    </text>
                  </g>
                </g>
                <g id="GRID.text.3318.1.5" transform="translate(202.78, 322.84)" stroke-width="0.1">
                  <g id="GRID.text.3318.1.5.scale" transform="scale(1, -1)">
                    <text x="0" y="0" id="GRID.text.3318.1.5.text" text-anchor="middle" stroke="rgb(0,0,0)" font-size="11.04" font-family="Helvetica, Arial, FreeSans, Liberation Sans, Nimbus Sans L, sans-serif" fill="rgb(0,0,0)" stroke-opacity="1" fill-opacity="1" font-weight="normal" font-style="normal">
                      <tspan id="GRID.text.3318.1.5.tspan.1" dy="3.95" x="0">1</tspan>
                    </text>
                  </g>
                </g>
              </g>
              <g id="GRID.gTree.3319.1" class="gTree grob gDesc"/>
            </g>
          </g>
          <g id="layout::spacer.8-6-8-6.1" class="viewport"/>
          <g id="layout::spacer.8-4-8-4.1" class="viewport"/>
          <g id="layout::spacer.6-6-6-6.1" class="viewport"/>
          <g id="layout::spacer.6-4-6-4.1" class="viewport"/>
          <g id="layout::axis-t.6-5-6-5.1" class="viewport"/>
          <g id="layout::axis-l.7-4-7-4.1" class="viewport">
            <g id="layout::axis-l.7-4-7-4::GRID.VP.797.1" class="viewport">
              <g id="axis-l.7-4-7-4.1" class="forcedgrob gTableChild absoluteGrob gTree grob gDesc">
                <g id="layout::axis-l.7-4-7-4::GRID.VP.797::axis.1" class="viewport">
                  <g id="axis.1" class="forcedgrob gtable gTree grob gDesc">
                    <g id="layout::axis-l.7-4-7-4::GRID.VP.797::axis::axis.1-1-1-1.1" class="viewport"/>
                    <g id="layout::axis-l.7-4-7-4::GRID.VP.797::axis::axis.1-2-1-2.1" class="viewport"/>
                  </g>
                </g>
              </g>
            </g>
          </g>
          <g id="layout::axis-r.7-6-7-6.1" class="viewport"/>
          <g id="layout::axis-b.8-5-8-5.1" class="viewport">
            <g id="layout::axis-b.8-5-8-5::GRID.VP.796.1" class="viewport">
              <g id="axis-b.8-5-8-5.1" class="forcedgrob gTableChild absoluteGrob gTree grob gDesc">
                <g id="layout::axis-b.8-5-8-5::GRID.VP.796::axis.1" class="viewport">
                  <g id="axis.2" class="forcedgrob gtable gTree grob gDesc">
                    <g id="layout::axis-b.8-5-8-5::GRID.VP.796::axis::axis.1-1-1-1.1" class="viewport"/>
                    <g id="layout::axis-b.8-5-8-5::GRID.VP.796::axis::axis.2-1-2-1.1" class="viewport"/>
                  </g>
                </g>
              </g>
            </g>
          </g>
          <g id="layout::xlab-t.5-5-5-5.1" class="viewport"/>
          <g id="layout::xlab-b.9-5-9-5.1" class="viewport"/>
          <g id="layout::ylab-l.7-3-7-3.1" class="viewport"/>
          <g id="layout::ylab-r.7-7-7-7.1" class="viewport"/>
          <g id="layout::guide-box.7-9-7-9.1" class="viewport">
            <g id="layout::guide-box.7-9-7-9::GRID.VP.814.1" class="viewport">
              <g id="layout::guide-box.7-9-7-9::GRID.VP.814::guide-box.7-9-7-9.1" class="viewport">
                <g id="guide-box.7-9-7-9.1" class="forcedgrob gTableChild gtable gTree grob gDesc">
                  <g id="layout::guide-box.7-9-7-9::GRID.VP.814::guide-box.7-9-7-9::legend.box.background.2-4-4-2.1" class="viewport"/>
                  <g id="layout::guide-box.7-9-7-9::GRID.VP.814::guide-box.7-9-7-9::guides.3-3-3-3.1" class="viewport">
                    <g id="layout::guide-box.7-9-7-9::GRID.VP.814::guide-box.7-9-7-9::guides.3-3-3-3::GRID.VP.813.1" class="viewport">
                      <g id="layout::guide-box.7-9-7-9::GRID.VP.814::guide-box.7-9-7-9::guides.3-3-3-3::GRID.VP.813::guides.3-3-3-3.1" class="viewport">
                        <g id="guides.3-3-3-3.1" class="forcedgrob gTableChild gtable gTree grob gDesc">
                          <g id="layout::guide-box.7-9-7-9::GRID.VP.814::guide-box.7-9-7-9::guides.3-3-3-3::GRID.VP.813::guides.3-3-3-3::background.1-6-9-1.1" class="viewport">
                            <g id="background.1-6-9-1.1" class="forcedgrob gTableChild rect grob gDesc">
                              <rect id="background.1-6-9-1.1.1" x="410.18" y="193.22" width="88.34" height="102.84" transform="" stroke-width="1.07" stroke="none" fill="rgb(255,255,255)" stroke-dasharray="none" stroke-opacity="0" fill-opacity="1"/>
                            </g>
                          </g>
                          <g id="layout::guide-box.7-9-7-9::GRID.VP.814::guide-box.7-9-7-9::guides.3-3-3-3::GRID.VP.813::guides.3-3-3-3::title.2-5-2-2.1" class="viewport"/>
                          <g id="layout::guide-box.7-9-7-9::GRID.VP.814::guide-box.7-9-7-9::guides.3-3-3-3::GRID.VP.813::guides.3-3-3-3::key-3-1-bg.4-2-4-2.1" class="viewport"/>
                          <g id="layout::guide-box.7-9-7-9::GRID.VP.814::guide-box.7-9-7-9::guides.3-3-3-3::GRID.VP.813::guides.3-3-3-3::key-3-1-1.4-2-4-2.1" class="viewport">
                            <g id="key-3-1-1.4-2-4-2.1" class="forcedgrob gTableChild rect grob gDesc">
                              <rect id="key-3-1-1.4-2-4-2.1.1" x="416.37" y="268.53" width="15.86" height="15.86" transform="" stroke="none" fill="rgb(248,118,109)" stroke-dasharray="none" stroke-width="1.07" stroke-linejoin="miter" stroke-opacity="0" fill-opacity="1"/>
                            </g>
                          </g>
                          <g id="layout::guide-box.7-9-7-9::GRID.VP.814::guide-box.7-9-7-9::guides.3-3-3-3::GRID.VP.813::guides.3-3-3-3::key-4-1-bg.5-2-5-2.1" class="viewport"/>
                          <g id="layout::guide-box.7-9-7-9::GRID.VP.814::guide-box.7-9-7-9::guides.3-3-3-3::GRID.VP.813::guides.3-3-3-3::key-4-1-1.5-2-5-2.1" class="viewport">
                            <g id="key-4-1-1.5-2-5-2.1" class="forcedgrob gTableChild rect grob gDesc">
                              <rect id="key-4-1-1.5-2-5-2.1.1" x="416.37" y="251.25" width="15.86" height="15.86" transform="" stroke="none" fill="rgb(163,165,0)" stroke-dasharray="none" stroke-width="1.07" stroke-linejoin="miter" stroke-opacity="0" fill-opacity="1"/>
                            </g>
                          </g>
                          <g id="layout::guide-box.7-9-7-9::GRID.VP.814::guide-box.7-9-7-9::guides.3-3-3-3::GRID.VP.813::guides.3-3-3-3::key-5-1-bg.6-2-6-2.1" class="viewport"/>
                          <g id="layout::guide-box.7-9-7-9::GRID.VP.814::guide-box.7-9-7-9::guides.3-3-3-3::GRID.VP.813::guides.3-3-3-3::key-5-1-1.6-2-6-2.1" class="viewport">
                            <g id="key-5-1-1.6-2-6-2.1" class="forcedgrob gTableChild rect grob gDesc">
                              <rect id="key-5-1-1.6-2-6-2.1.1" x="416.37" y="233.97" width="15.86" height="15.86" transform="" stroke="none" fill="rgb(0,191,125)" stroke-dasharray="none" stroke-width="1.07" stroke-linejoin="miter" stroke-opacity="0" fill-opacity="1"/>
                            </g>
                          </g>
                          <g id="layout::guide-box.7-9-7-9::GRID.VP.814::guide-box.7-9-7-9::guides.3-3-3-3::GRID.VP.813::guides.3-3-3-3::key-6-1-bg.7-2-7-2.1" class="viewport"/>
                          <g id="layout::guide-box.7-9-7-9::GRID.VP.814::guide-box.7-9-7-9::guides.3-3-3-3::GRID.VP.813::guides.3-3-3-3::key-6-1-1.7-2-7-2.1" class="viewport">
                            <g id="key-6-1-1.7-2-7-2.1" class="forcedgrob gTableChild rect grob gDesc">
                              <rect id="key-6-1-1.7-2-7-2.1.1" x="416.37" y="216.69" width="15.86" height="15.86" transform="" stroke="none" fill="rgb(0,176,246)" stroke-dasharray="none" stroke-width="1.07" stroke-linejoin="miter" stroke-opacity="0" fill-opacity="1"/>
                            </g>
                          </g>
                          <g id="layout::guide-box.7-9-7-9::GRID.VP.814::guide-box.7-9-7-9::guides.3-3-3-3::GRID.VP.813::guides.3-3-3-3::key-7-1-bg.8-2-8-2.1" class="viewport"/>
                          <g id="layout::guide-box.7-9-7-9::GRID.VP.814::guide-box.7-9-7-9::guides.3-3-3-3::GRID.VP.813::guides.3-3-3-3::key-7-1-1.8-2-8-2.1" class="viewport">
                            <g id="key-7-1-1.8-2-8-2.1" class="forcedgrob gTableChild rect grob gDesc">
                              <rect id="key-7-1-1.8-2-8-2.1.1" x="416.37" y="199.41" width="15.86" height="15.86" transform="" stroke="none" fill="rgb(231,107,243)" stroke-dasharray="none" stroke-width="1.07" stroke-linejoin="miter" stroke-opacity="0" fill-opacity="1"/>
                            </g>
                          </g>
                          <g id="layout::guide-box.7-9-7-9::GRID.VP.814::guide-box.7-9-7-9::guides.3-3-3-3::GRID.VP.813::guides.3-3-3-3::label-3-3.4-4-4-4.1" class="viewport">
                            <g id="layout::guide-box.7-9-7-9::GRID.VP.814::guide-box.7-9-7-9::guides.3-3-3-3::GRID.VP.813::guides.3-3-3-3::label-3-3.4-4-4-4::GRID.VP.808.1" class="viewport">
                              <g id="label-3-3.4-4-4-4.1" class="forcedgrob gTableChild gTree grob gDesc">
                                <g id="layout::guide-box.7-9-7-9::GRID.VP.814::guide-box.7-9-7-9::guides.3-3-3-3::GRID.VP.813::guides.3-3-3-3::label-3-3.4-4-4-4::GRID.VP.808::GRID.VP.798.1" font-size="8.8" stroke="rgb(0,0,0)" font-family="Helvetica, Arial, FreeSans, Liberation Sans, Nimbus Sans L, sans-serif" stroke-opacity="1" font-weight="normal" font-style="normal" class="viewport">
                                  <g id="layout::guide-box.7-9-7-9::GRID.VP.814::guide-box.7-9-7-9::guides.3-3-3-3::GRID.VP.813::guides.3-3-3-3::label-3-3.4-4-4-4::GRID.VP.808::GRID.VP.798::GRID.VP.799.1" class="viewport">
                                    <g id="guide.label.titleGrob.3342.1" class="titleGrob gTree grob gDesc">
                                      <g id="GRID.text.3340.1" class="text grob gDesc">
                                        <g id="GRID.text.3340.1.1" transform="translate(438.42, 276.46)" stroke-width="0.1">
                                          <g id="GRID.text.3340.1.1.scale" transform="scale(1, -1)">
                                            <text x="0" y="0" id="GRID.text.3340.1.1.text" text-anchor="start" font-size="8.8" stroke="rgb(0,0,0)" font-family="Helvetica, Arial, FreeSans, Liberation Sans, Nimbus Sans L, sans-serif" fill="rgb(0,0,0)" stroke-opacity="1" fill-opacity="1" font-weight="normal" font-style="normal">
                                              <tspan id="GRID.text.3340.1.1.tspan.1" dy="3.23" x="0">tutto (1)</tspan>
                                            </text>
                                          </g>
                                        </g>
                                      </g>
                                    </g>
                                  </g>
                                </g>
                              </g>
                            </g>
                          </g>
                          <g id="layout::guide-box.7-9-7-9::GRID.VP.814::guide-box.7-9-7-9::guides.3-3-3-3::GRID.VP.813::guides.3-3-3-3::label-4-3.5-4-5-4.1" class="viewport">
                            <g id="layout::guide-box.7-9-7-9::GRID.VP.814::guide-box.7-9-7-9::guides.3-3-3-3::GRID.VP.813::guides.3-3-3-3::label-4-3.5-4-5-4::GRID.VP.809.1" class="viewport">
                              <g id="label-4-3.5-4-5-4.1" class="forcedgrob gTableChild gTree grob gDesc">
                                <g id="layout::guide-box.7-9-7-9::GRID.VP.814::guide-box.7-9-7-9::guides.3-3-3-3::GRID.VP.813::guides.3-3-3-3::label-4-3.5-4-5-4::GRID.VP.809::GRID.VP.800.1" font-size="8.8" stroke="rgb(0,0,0)" font-family="Helvetica, Arial, FreeSans, Liberation Sans, Nimbus Sans L, sans-serif" stroke-opacity="1" font-weight="normal" font-style="normal" class="viewport">
                                  <g id="layout::guide-box.7-9-7-9::GRID.VP.814::guide-box.7-9-7-9::guides.3-3-3-3::GRID.VP.813::guides.3-3-3-3::label-4-3.5-4-5-4::GRID.VP.809::GRID.VP.800::GRID.VP.801.1" class="viewport">
                                    <g id="guide.label.titleGrob.3345.1" class="titleGrob gTree grob gDesc">
                                      <g id="GRID.text.3343.1" class="text grob gDesc">
                                        <g id="GRID.text.3343.1.1" transform="translate(438.42, 259.18)" stroke-width="0.1">
                                          <g id="GRID.text.3343.1.1.scale" transform="scale(1, -1)">
                                            <text x="0" y="0" id="GRID.text.3343.1.1.text" text-anchor="start" font-size="8.8" stroke="rgb(0,0,0)" font-family="Helvetica, Arial, FreeSans, Liberation Sans, Nimbus Sans L, sans-serif" fill="rgb(0,0,0)" stroke-opacity="1" fill-opacity="1" font-weight="normal" font-style="normal">
                                              <tspan id="GRID.text.3343.1.1.tspan.1" dy="3.23" x="0">avanzato (10)</tspan>
                                            </text>
                                          </g>
                                        </g>
                                      </g>
                                    </g>
                                  </g>
                                </g>
                              </g>
                            </g>
                          </g>
                          <g id="layout::guide-box.7-9-7-9::GRID.VP.814::guide-box.7-9-7-9::guides.3-3-3-3::GRID.VP.813::guides.3-3-3-3::label-5-3.6-4-6-4.1" class="viewport">
                            <g id="layout::guide-box.7-9-7-9::GRID.VP.814::guide-box.7-9-7-9::guides.3-3-3-3::GRID.VP.813::guides.3-3-3-3::label-5-3.6-4-6-4::GRID.VP.810.1" class="viewport">
                              <g id="label-5-3.6-4-6-4.1" class="forcedgrob gTableChild gTree grob gDesc">
                                <g id="layout::guide-box.7-9-7-9::GRID.VP.814::guide-box.7-9-7-9::guides.3-3-3-3::GRID.VP.813::guides.3-3-3-3::label-5-3.6-4-6-4::GRID.VP.810::GRID.VP.802.1" font-size="8.8" stroke="rgb(0,0,0)" font-family="Helvetica, Arial, FreeSans, Liberation Sans, Nimbus Sans L, sans-serif" stroke-opacity="1" font-weight="normal" font-style="normal" class="viewport">
                                  <g id="layout::guide-box.7-9-7-9::GRID.VP.814::guide-box.7-9-7-9::guides.3-3-3-3::GRID.VP.813::guides.3-3-3-3::label-5-3.6-4-6-4::GRID.VP.810::GRID.VP.802::GRID.VP.803.1" class="viewport">
                                    <g id="guide.label.titleGrob.3348.1" class="titleGrob gTree grob gDesc">
                                      <g id="GRID.text.3346.1" class="text grob gDesc">
                                        <g id="GRID.text.3346.1.1" transform="translate(438.42, 241.9)" stroke-width="0.1">
                                          <g id="GRID.text.3346.1.1.scale" transform="scale(1, -1)">
                                            <text x="0" y="0" id="GRID.text.3346.1.1.text" text-anchor="start" font-size="8.8" stroke="rgb(0,0,0)" font-family="Helvetica, Arial, FreeSans, Liberation Sans, Nimbus Sans L, sans-serif" fill="rgb(0,0,0)" stroke-opacity="1" fill-opacity="1" font-weight="normal" font-style="normal">
                                              <tspan id="GRID.text.3346.1.1.tspan.1" dy="3.23" x="0">nessuno (19)</tspan>
                                            </text>
                                          </g>
                                        </g>
                                      </g>
                                    </g>
                                  </g>
                                </g>
                              </g>
                            </g>
                          </g>
                          <g id="layout::guide-box.7-9-7-9::GRID.VP.814::guide-box.7-9-7-9::guides.3-3-3-3::GRID.VP.813::guides.3-3-3-3::label-6-3.7-4-7-4.1" class="viewport">
                            <g id="layout::guide-box.7-9-7-9::GRID.VP.814::guide-box.7-9-7-9::guides.3-3-3-3::GRID.VP.813::guides.3-3-3-3::label-6-3.7-4-7-4::GRID.VP.811.1" class="viewport">
                              <g id="label-6-3.7-4-7-4.1" class="forcedgrob gTableChild gTree grob gDesc">
                                <g id="layout::guide-box.7-9-7-9::GRID.VP.814::guide-box.7-9-7-9::guides.3-3-3-3::GRID.VP.813::guides.3-3-3-3::label-6-3.7-4-7-4::GRID.VP.811::GRID.VP.804.1" font-size="8.8" stroke="rgb(0,0,0)" font-family="Helvetica, Arial, FreeSans, Liberation Sans, Nimbus Sans L, sans-serif" stroke-opacity="1" font-weight="normal" font-style="normal" class="viewport">
                                  <g id="layout::guide-box.7-9-7-9::GRID.VP.814::guide-box.7-9-7-9::guides.3-3-3-3::GRID.VP.813::guides.3-3-3-3::label-6-3.7-4-7-4::GRID.VP.811::GRID.VP.804::GRID.VP.805.1" class="viewport">
                                    <g id="guide.label.titleGrob.3351.1" class="titleGrob gTree grob gDesc">
                                      <g id="GRID.text.3349.1" class="text grob gDesc">
                                        <g id="GRID.text.3349.1.1" transform="translate(438.42, 224.62)" stroke-width="0.1">
                                          <g id="GRID.text.3349.1.1.scale" transform="scale(1, -1)">
                                            <text x="0" y="0" id="GRID.text.3349.1.1.text" text-anchor="start" font-size="8.8" stroke="rgb(0,0,0)" font-family="Helvetica, Arial, FreeSans, Liberation Sans, Nimbus Sans L, sans-serif" fill="rgb(0,0,0)" stroke-opacity="1" fill-opacity="1" font-weight="normal" font-style="normal">
                                              <tspan id="GRID.text.3349.1.1.tspan.1" dy="3.23" x="0">medio (93)</tspan>
                                            </text>
                                          </g>
                                        </g>
                                      </g>
                                    </g>
                                  </g>
                                </g>
                              </g>
                            </g>
                          </g>
                          <g id="layout::guide-box.7-9-7-9::GRID.VP.814::guide-box.7-9-7-9::guides.3-3-3-3::GRID.VP.813::guides.3-3-3-3::label-7-3.8-4-8-4.1" class="viewport">
                            <g id="layout::guide-box.7-9-7-9::GRID.VP.814::guide-box.7-9-7-9::guides.3-3-3-3::GRID.VP.813::guides.3-3-3-3::label-7-3.8-4-8-4::GRID.VP.812.1" class="viewport">
                              <g id="label-7-3.8-4-8-4.1" class="forcedgrob gTableChild gTree grob gDesc">
                                <g id="layout::guide-box.7-9-7-9::GRID.VP.814::guide-box.7-9-7-9::guides.3-3-3-3::GRID.VP.813::guides.3-3-3-3::label-7-3.8-4-8-4::GRID.VP.812::GRID.VP.806.1" font-size="8.8" stroke="rgb(0,0,0)" font-family="Helvetica, Arial, FreeSans, Liberation Sans, Nimbus Sans L, sans-serif" stroke-opacity="1" font-weight="normal" font-style="normal" class="viewport">
                                  <g id="layout::guide-box.7-9-7-9::GRID.VP.814::guide-box.7-9-7-9::guides.3-3-3-3::GRID.VP.813::guides.3-3-3-3::label-7-3.8-4-8-4::GRID.VP.812::GRID.VP.806::GRID.VP.807.1" class="viewport">
                                    <g id="guide.label.titleGrob.3354.1" class="titleGrob gTree grob gDesc">
                                      <g id="GRID.text.3352.1" class="text grob gDesc">
                                        <g id="GRID.text.3352.1.1" transform="translate(438.42, 207.34)" stroke-width="0.1">
                                          <g id="GRID.text.3352.1.1.scale" transform="scale(1, -1)">
                                            <text x="0" y="0" id="GRID.text.3352.1.1.text" text-anchor="start" font-size="8.8" stroke="rgb(0,0,0)" font-family="Helvetica, Arial, FreeSans, Liberation Sans, Nimbus Sans L, sans-serif" fill="rgb(0,0,0)" stroke-opacity="1" fill-opacity="1" font-weight="normal" font-style="normal">
                                              <tspan id="GRID.text.3352.1.1.tspan.1" dy="3.23" x="0">base (139)</tspan>
                                            </text>
                                          </g>
                                        </g>
                                      </g>
                                    </g>
                                  </g>
                                </g>
                              </g>
                            </g>
                          </g>
                        </g>
                      </g>
                    </g>
                  </g>
                </g>
              </g>
            </g>
          </g>
          <g id="layout::subtitle.4-5-4-5.1" class="viewport"/>
          <g id="layout::title.3-5-3-5.1" class="viewport">
            <g id="layout::title.3-5-3-5::GRID.VP.815.1" font-size="13.2" stroke="rgb(102,102,102)" font-family="Helvetica, Arial, FreeSans, Liberation Sans, Nimbus Sans L, sans-serif" stroke-opacity="1" font-weight="normal" font-style="normal" class="viewport">
              <g id="layout::title.3-5-3-5::GRID.VP.815::GRID.VP.816.1" class="viewport">
                <g id="title.3-5-3-5.1" class="forcedgrob gTableChild titleGrob gTree grob gDesc">
                  <g id="GRID.text.3372.1" class="text grob gDesc">
                    <g id="GRID.text.3372.1.1" transform="translate(203.72, 457.6)" stroke-width="0.1">
                      <g id="GRID.text.3372.1.1.scale" transform="scale(1, -1)">
                        <text x="0" y="0" id="GRID.text.3372.1.1.text" text-anchor="middle" font-size="13.2" stroke="rgb(102,102,102)" font-family="Helvetica, Arial, FreeSans, Liberation Sans, Nimbus Sans L, sans-serif" fill="rgb(102,102,102)" stroke-opacity="1" fill-opacity="1" font-weight="normal" font-style="normal">
                          <tspan id="GRID.text.3372.1.1.tspan.1" dy="9.33" x="0">anagrafica risoluzioneproblemi</tspan>
                        </text>
                      </g>
                    </g>
                  </g>
                </g>
              </g>
            </g>
          </g>
          <g id="layout::caption.10-5-10-5.1" class="viewport"/>
          <g id="layout::tag.2-2-2-2.1" class="viewport"/>
        </g>
      </g>
    </g>
  </g>
</svg>