<?xml version="1.0" encoding="UTF-8"?>
<svg xmlns="http://www.w3.org/2000/svg" xmlns:xlink="http://www.w3.org/1999/xlink" width="504px" height="504px" viewBox="0 0 504 504" version="1.1">
  <metadata xmlns:gridsvg="http://www.stat.auckland.ac.nz/~paul/R/gridSVG/">
    <gridsvg:generator name="gridSVG" version="1.6-0" time="2019-01-14 19:37:50"/>
    <gridsvg:argument name="name" value="./latest_informaggio_csv/risultati/svg/anagrafica-corsoit.svg"/>
    <gridsvg:argument name="exportCoords" value="none"/>
    <gridsvg:argument name="exportMappings" value="none"/>
    <gridsvg:argument name="exportJS" value="none"/>
    <gridsvg:argument name="res" value="72"/>
    <gridsvg:argument name="prefix" value=""/>
    <gridsvg:argument name="addClasses" value="TRUE"/>
    <gridsvg:argument name="indent" value="TRUE"/>
    <gridsvg:argument name="htmlWrapper" value="FALSE"/>
    <gridsvg:argument name="usePaths" value="vpPaths"/>
    <gridsvg:argument name="uniqueNames" value="TRUE"/>
    <gridsvg:separator name="id.sep" value="."/>
    <gridsvg:separator name="gPath.sep" value="::"/>
    <gridsvg:separator name="vpPath.sep" value="::"/>
  </metadata>
  <g transform="translate(0, 504) scale(1, -1)">
    <g id="gridSVG" fill="none" stroke="rgb(0,0,0)" stroke-dasharray="none" stroke-width="0.75" font-size="12" font-family="Helvetica, Arial, FreeSans, Liberation Sans, Nimbus Sans L, sans-serif" opacity="1" stroke-linecap="round" stroke-linejoin="round" stroke-miterlimit="10" stroke-opacity="1" fill-opacity="0" font-weight="normal" font-style="normal">
      <g id="layout.1" class="viewport">
        <g id="layout.2" class="forcedgrob gtable gTree grob gDesc">
          <defs>
            <clipPath id="layout::background.1-11-12-1.1.clipPath">
              <rect x="0" y="28.61" width="504" height="446.77" fill="none" stroke="none"/>
            </clipPath>
          </defs>
          <g id="layout::background.1-11-12-1.1" clip-path="url(#layout::background.1-11-12-1.1.clipPath)" class="viewport">
            <g id="background.1-11-12-1.1" class="forcedgrob gTableChild rect grob gDesc">
              <rect id="background.1-11-12-1.1.1" x="0" y="28.61" width="504" height="446.77" transform="" stroke-width="1.07" stroke="rgb(255,255,255)" fill="rgb(255,255,255)" stroke-dasharray="none" stroke-opacity="1" fill-opacity="1"/>
            </g>
          </g>
          <defs>
            <clipPath id="layout::panel.7-5-7-5.1.clipPath">
              <rect x="8.22" y="36.83" width="415.62" height="415.62" fill="none" stroke="none"/>
            </clipPath>
          </defs>
          <g id="layout::panel.7-5-7-5.1" clip-path="url(#layout::panel.7-5-7-5.1.clipPath)" class="viewport">
            <g id="panel.7-5-7-5.1" class="forcedgrob gTableChild gTree grob gDesc">
              <g id="grill.gTree.1631.1" class="gTree grob gDesc">
                <g id="panel.background..rect.1627.1" class="rect grob gDesc">
                  <rect id="panel.background..rect.1627.1.1" x="8.22" y="36.83" width="415.62" height="415.62" transform="" stroke-width="1.07" stroke="none" fill="rgb(255,255,255)" stroke-dasharray="none" stroke-opacity="0" fill-opacity="1"/>
                </g>
              </g>
              <g id="bar.gTree.1620.1" class="gTree grob gDesc">
                <g id="geom_polygon.polygon.1616.1" class="polygon grob gDesc">
                  <polygon id="geom_polygon.polygon.1616.1.1" points="216.03,244.64 213.63,239.44 211.23,234.23 208.83,229.02 206.43,223.82 204.04,218.61 201.64,213.4 199.24,208.2 196.84,202.99 194.44,197.78 192.04,192.58 189.65,187.37 187.25,182.16 184.85,176.95 182.45,171.75 180.05,166.54 177.65,161.33 175.25,156.13 172.86,150.92 170.46,145.71 168.06,140.51 165.66,135.3 163.26,130.09 160.86,124.89 158.46,119.68 156.07,114.47 153.67,109.27 151.27,104.06 148.87,98.85 146.47,93.65 151.65,91.37 156.9,89.27 162.22,87.34 167.61,85.6 173.05,84.05 178.54,82.68 184.07,81.5 189.64,80.5 195.24,79.7 200.86,79.09 206.5,78.67 212.16,78.44 217.81,78.41 223.47,78.56 229.11,78.91 234.75,79.45 240.36,80.19 245.94,81.11 251.48,82.22 256.99,83.52 262.45,85.01 267.85,86.68 273.2,88.53 278.48,90.57 283.68,92.78 288.81,95.17 293.85,97.74 298.81,100.47 303.66,103.37 308.42,106.43 313.07,109.66 317.61,113.04 322.02,116.57 326.32,120.25 330.49,124.07 334.53,128.04 338.42,132.14 342.18,136.37 345.79,140.72 349.25,145.2 352.56,149.79 355.71,154.49 358.69,159.29 361.52,164.2 364.17,169.19 366.65,174.28 368.96,179.44 371.09,184.68 373.04,190 374.81,195.37 376.39,200.8 377.79,206.28 379,211.81 380.02,217.37 380.86,222.97 381.5,228.59 381.95,234.23 382.21,239.88 382.27,245.54 382.15,251.19 381.83,256.84 381.32,262.47 380.61,268.09 379.72,273.67 378.64,279.23 377.37,284.74 375.91,290.21 374.27,295.62 372.44,300.97 370.43,306.26 368.25,311.48 365.89,316.62 363.35,321.68 360.64,326.65 357.77,331.52 354.73,336.29 351.53,340.96 348.18,345.51 344.67,349.95 341.01,354.27 337.21,358.46 333.27,362.51 329.19,366.43 324.98,370.21 320.64,373.85 316.19,377.33 311.61,380.66 306.93,383.84 302.14,386.85 297.25,389.7 292.27,392.38 287.2,394.88 282.05,397.22 276.82,399.38 271.52,401.36 266.15,403.15 260.73,404.77 255.26,406.2 249.74,407.44 244.18,408.49 238.59,409.35 232.97,410.02 227.33,410.51 221.68,410.79 216.03,410.89 216.03,405.16 216.03,399.43 216.03,393.69 216.03,387.96 216.03,382.23 216.03,376.49 216.03,370.76 216.03,365.03 216.03,359.3 216.03,353.56 216.03,347.83 216.03,342.1 216.03,336.37 216.03,330.63 216.03,324.9 216.03,319.17 216.03,313.44 216.03,307.7 216.03,301.97 216.03,296.24 216.03,290.5 216.03,284.77 216.03,279.04 216.03,273.31 216.03,267.57 216.03,261.84 216.03,256.11 216.03,250.38 216.03,244.64 216.03,244.64" stroke="none" fill="rgb(0,191,196)" stroke-width="1.07" stroke-dasharray="none" stroke-opacity="0" fill-opacity="1"/>
                </g>
                <g id="geom_polygon.polygon.1618.1" class="polygon grob gDesc">
                  <polygon id="geom_polygon.polygon.1618.1.1" points="216.03,244.64 216.03,250.38 216.03,256.11 216.03,261.84 216.03,267.57 216.03,273.31 216.03,279.04 216.03,284.77 216.03,290.5 216.03,296.24 216.03,301.97 216.03,307.7 216.03,313.44 216.03,319.17 216.03,324.9 216.03,330.63 216.03,336.37 216.03,342.1 216.03,347.83 216.03,353.56 216.03,359.3 216.03,365.03 216.03,370.76 216.03,376.49 216.03,382.23 216.03,387.96 216.03,393.69 216.03,399.43 216.03,405.16 216.03,410.89 210.4,410.8 204.77,410.51 199.16,410.03 193.57,409.37 188.01,408.51 182.47,407.47 176.98,406.24 171.53,404.82 166.13,403.22 160.78,401.44 155.51,399.48 150.3,397.34 145.16,395.03 140.11,392.54 135.14,389.89 130.27,387.06 125.5,384.08 120.83,380.93 116.27,377.63 111.82,374.18 107.49,370.57 103.29,366.82 99.22,362.94 95.28,358.91 91.48,354.76 87.82,350.47 84.31,346.07 80.95,341.55 77.74,336.92 74.7,332.19 71.81,327.35 69.1,322.42 66.55,317.4 64.17,312.29 61.96,307.11 59.94,301.86 58.09,296.54 56.42,291.16 54.94,285.73 53.64,280.25 52.53,274.73 51.6,269.17 50.86,263.59 50.32,257.98 49.96,252.36 49.79,246.74 49.82,241.11 50.03,235.48 50.44,229.86 51.04,224.26 51.82,218.69 52.79,213.14 53.95,207.63 55.3,202.16 56.83,196.74 58.55,191.38 60.44,186.07 62.51,180.84 64.76,175.68 67.18,170.59 69.78,165.59 72.54,160.69 75.46,155.88 78.55,151.17 81.8,146.56 85.19,142.07 88.74,137.7 92.44,133.45 96.27,129.33 100.25,125.34 104.36,121.49 108.59,117.78 112.95,114.21 117.43,110.79 122.02,107.53 126.71,104.43 131.51,101.48 136.41,98.7 141.4,96.09 146.47,93.65 148.87,98.85 151.27,104.06 153.67,109.27 156.07,114.47 158.46,119.68 160.86,124.89 163.26,130.09 165.66,135.3 168.06,140.51 170.46,145.71 172.86,150.92 175.25,156.13 177.65,161.33 180.05,166.54 182.45,171.75 184.85,176.95 187.25,182.16 189.65,187.37 192.04,192.58 194.44,197.78 196.84,202.99 199.24,208.2 201.64,213.4 204.04,218.61 206.43,223.82 208.83,229.02 211.23,234.23 213.63,239.44 216.03,244.64 216.03,244.64" stroke="none" fill="rgb(248,118,109)" stroke-width="1.07" stroke-dasharray="none" stroke-opacity="0" fill-opacity="1"/>
                </g>
              </g>
              <g id="GRID.text.1621.1" class="text grob gDesc">
                <g id="GRID.text.1621.1.1" transform="translate(297.22, 226.84)" stroke-width="0.1">
                  <g id="GRID.text.1621.1.1.scale" transform="scale(1, -1)">
                    <text x="0" y="0" id="GRID.text.1621.1.1.text" text-anchor="middle" stroke="rgb(0,0,0)" font-size="11.04" font-family="Helvetica, Arial, FreeSans, Liberation Sans, Nimbus Sans L, sans-serif" fill="rgb(0,0,0)" stroke-opacity="1" fill-opacity="1" font-weight="normal" font-style="normal">
                      <tspan id="GRID.text.1621.1.1.tspan.1" dy="3.95" x="0">149</tspan>
                    </text>
                  </g>
                </g>
                <g id="GRID.text.1621.1.2" transform="translate(134.83, 262.45)" stroke-width="0.1">
                  <g id="GRID.text.1621.1.2.scale" transform="scale(1, -1)">
                    <text x="0" y="0" id="GRID.text.1621.1.2.text" text-anchor="middle" stroke="rgb(0,0,0)" font-size="11.04" font-family="Helvetica, Arial, FreeSans, Liberation Sans, Nimbus Sans L, sans-serif" fill="rgb(0,0,0)" stroke-opacity="1" fill-opacity="1" font-weight="normal" font-style="normal">
                      <tspan id="GRID.text.1621.1.2.tspan.1" dy="3.95" x="0">113</tspan>
                    </text>
                  </g>
                </g>
              </g>
              <g id="GRID.gTree.1622.1" class="gTree grob gDesc"/>
            </g>
          </g>
          <g id="layout::spacer.8-6-8-6.1" class="viewport"/>
          <g id="layout::spacer.8-4-8-4.1" class="viewport"/>
          <g id="layout::spacer.6-6-6-6.1" class="viewport"/>
          <g id="layout::spacer.6-4-6-4.1" class="viewport"/>
          <g id="layout::axis-t.6-5-6-5.1" class="viewport"/>
          <g id="layout::axis-l.7-4-7-4.1" class="viewport">
            <g id="layout::axis-l.7-4-7-4::GRID.VP.389.1" class="viewport">
              <g id="axis-l.7-4-7-4.1" class="forcedgrob gTableChild absoluteGrob gTree grob gDesc">
                <g id="layout::axis-l.7-4-7-4::GRID.VP.389::axis.1" class="viewport">
                  <g id="axis.1" class="forcedgrob gtable gTree grob gDesc">
                    <g id="layout::axis-l.7-4-7-4::GRID.VP.389::axis::axis.1-1-1-1.1" class="viewport"/>
                    <g id="layout::axis-l.7-4-7-4::GRID.VP.389::axis::axis.1-2-1-2.1" class="viewport"/>
                  </g>
                </g>
              </g>
            </g>
          </g>
          <g id="layout::axis-r.7-6-7-6.1" class="viewport"/>
          <g id="layout::axis-b.8-5-8-5.1" class="viewport">
            <g id="layout::axis-b.8-5-8-5::GRID.VP.388.1" class="viewport">
              <g id="axis-b.8-5-8-5.1" class="forcedgrob gTableChild absoluteGrob gTree grob gDesc">
                <g id="layout::axis-b.8-5-8-5::GRID.VP.388::axis.1" class="viewport">
                  <g id="axis.2" class="forcedgrob gtable gTree grob gDesc">
                    <g id="layout::axis-b.8-5-8-5::GRID.VP.388::axis::axis.1-1-1-1.1" class="viewport"/>
                    <g id="layout::axis-b.8-5-8-5::GRID.VP.388::axis::axis.2-1-2-1.1" class="viewport"/>
                  </g>
                </g>
              </g>
            </g>
          </g>
          <g id="layout::xlab-t.5-5-5-5.1" class="viewport"/>
          <g id="layout::xlab-b.9-5-9-5.1" class="viewport"/>
          <g id="layout::ylab-l.7-3-7-3.1" class="viewport"/>
          <g id="layout::ylab-r.7-7-7-7.1" class="viewport"/>
          <g id="layout::guide-box.7-9-7-9.1" class="viewport">
            <g id="layout::guide-box.7-9-7-9::GRID.VP.397.1" class="viewport">
              <g id="layout::guide-box.7-9-7-9::GRID.VP.397::guide-box.7-9-7-9.1" class="viewport">
                <g id="guide-box.7-9-7-9.1" class="forcedgrob gTableChild gtable gTree grob gDesc">
                  <g id="layout::guide-box.7-9-7-9::GRID.VP.397::guide-box.7-9-7-9::legend.box.background.2-4-4-2.1" class="viewport"/>
                  <g id="layout::guide-box.7-9-7-9::GRID.VP.397::guide-box.7-9-7-9::guides.3-3-3-3.1" class="viewport">
                    <g id="layout::guide-box.7-9-7-9::GRID.VP.397::guide-box.7-9-7-9::guides.3-3-3-3::GRID.VP.396.1" class="viewport">
                      <g id="layout::guide-box.7-9-7-9::GRID.VP.397::guide-box.7-9-7-9::guides.3-3-3-3::GRID.VP.396::guides.3-3-3-3.1" class="viewport">
                        <g id="guides.3-3-3-3.1" class="forcedgrob gTableChild gtable gTree grob gDesc">
                          <g id="layout::guide-box.7-9-7-9::GRID.VP.397::guide-box.7-9-7-9::guides.3-3-3-3::GRID.VP.396::guides.3-3-3-3::background.1-6-6-1.1" class="viewport">
                            <g id="background.1-6-6-1.1" class="forcedgrob gTableChild rect grob gDesc">
                              <rect id="background.1-6-6-1.1.1" x="434.8" y="219.14" width="63.72" height="51" transform="" stroke-width="1.07" stroke="none" fill="rgb(255,255,255)" stroke-dasharray="none" stroke-opacity="0" fill-opacity="1"/>
                            </g>
                          </g>
                          <g id="layout::guide-box.7-9-7-9::GRID.VP.397::guide-box.7-9-7-9::guides.3-3-3-3::GRID.VP.396::guides.3-3-3-3::title.2-5-2-2.1" class="viewport"/>
                          <g id="layout::guide-box.7-9-7-9::GRID.VP.397::guide-box.7-9-7-9::guides.3-3-3-3::GRID.VP.396::guides.3-3-3-3::key-3-1-bg.4-2-4-2.1" class="viewport"/>
                          <g id="layout::guide-box.7-9-7-9::GRID.VP.397::guide-box.7-9-7-9::guides.3-3-3-3::GRID.VP.396::guides.3-3-3-3::key-3-1-1.4-2-4-2.1" class="viewport">
                            <g id="key-3-1-1.4-2-4-2.1" class="forcedgrob gTableChild rect grob gDesc">
                              <rect id="key-3-1-1.4-2-4-2.1.1" x="440.98" y="242.61" width="15.86" height="15.86" transform="" stroke="none" fill="rgb(248,118,109)" stroke-dasharray="none" stroke-width="1.07" stroke-linejoin="miter" stroke-opacity="0" fill-opacity="1"/>
                            </g>
                          </g>
                          <g id="layout::guide-box.7-9-7-9::GRID.VP.397::guide-box.7-9-7-9::guides.3-3-3-3::GRID.VP.396::guides.3-3-3-3::key-4-1-bg.5-2-5-2.1" class="viewport"/>
                          <g id="layout::guide-box.7-9-7-9::GRID.VP.397::guide-box.7-9-7-9::guides.3-3-3-3::GRID.VP.396::guides.3-3-3-3::key-4-1-1.5-2-5-2.1" class="viewport">
                            <g id="key-4-1-1.5-2-5-2.1" class="forcedgrob gTableChild rect grob gDesc">
                              <rect id="key-4-1-1.5-2-5-2.1.1" x="440.98" y="225.33" width="15.86" height="15.86" transform="" stroke="none" fill="rgb(0,191,196)" stroke-dasharray="none" stroke-width="1.07" stroke-linejoin="miter" stroke-opacity="0" fill-opacity="1"/>
                            </g>
                          </g>
                          <g id="layout::guide-box.7-9-7-9::GRID.VP.397::guide-box.7-9-7-9::guides.3-3-3-3::GRID.VP.396::guides.3-3-3-3::label-3-3.4-4-4-4.1" class="viewport">
                            <g id="layout::guide-box.7-9-7-9::GRID.VP.397::guide-box.7-9-7-9::guides.3-3-3-3::GRID.VP.396::guides.3-3-3-3::label-3-3.4-4-4-4::GRID.VP.394.1" class="viewport">
                              <g id="label-3-3.4-4-4-4.1" class="forcedgrob gTableChild gTree grob gDesc">
                                <g id="layout::guide-box.7-9-7-9::GRID.VP.397::guide-box.7-9-7-9::guides.3-3-3-3::GRID.VP.396::guides.3-3-3-3::label-3-3.4-4-4-4::GRID.VP.394::GRID.VP.390.1" font-size="8.8" stroke="rgb(0,0,0)" font-family="Helvetica, Arial, FreeSans, Liberation Sans, Nimbus Sans L, sans-serif" stroke-opacity="1" font-weight="normal" font-style="normal" class="viewport">
                                  <g id="layout::guide-box.7-9-7-9::GRID.VP.397::guide-box.7-9-7-9::guides.3-3-3-3::GRID.VP.396::guides.3-3-3-3::label-3-3.4-4-4-4::GRID.VP.394::GRID.VP.390::GRID.VP.391.1" class="viewport">
                                    <g id="guide.label.titleGrob.1645.1" class="titleGrob gTree grob gDesc">
                                      <g id="GRID.text.1643.1" class="text grob gDesc">
                                        <g id="GRID.text.1643.1.1" transform="translate(463.04, 250.54)" stroke-width="0.1">
                                          <g id="GRID.text.1643.1.1.scale" transform="scale(1, -1)">
                                            <text x="0" y="0" id="GRID.text.1643.1.1.text" text-anchor="start" font-size="8.8" stroke="rgb(0,0,0)" font-family="Helvetica, Arial, FreeSans, Liberation Sans, Nimbus Sans L, sans-serif" fill="rgb(0,0,0)" stroke-opacity="1" fill-opacity="1" font-weight="normal" font-style="normal">
                                              <tspan id="GRID.text.1643.1.1.tspan.1" dy="3.23" x="0">S (113)</tspan>
                                            </text>
                                          </g>
                                        </g>
                                      </g>
                                    </g>
                                  </g>
                                </g>
                              </g>
                            </g>
                          </g>
                          <g id="layout::guide-box.7-9-7-9::GRID.VP.397::guide-box.7-9-7-9::guides.3-3-3-3::GRID.VP.396::guides.3-3-3-3::label-4-3.5-4-5-4.1" class="viewport">
                            <g id="layout::guide-box.7-9-7-9::GRID.VP.397::guide-box.7-9-7-9::guides.3-3-3-3::GRID.VP.396::guides.3-3-3-3::label-4-3.5-4-5-4::GRID.VP.395.1" class="viewport">
                              <g id="label-4-3.5-4-5-4.1" class="forcedgrob gTableChild gTree grob gDesc">
                                <g id="layout::guide-box.7-9-7-9::GRID.VP.397::guide-box.7-9-7-9::guides.3-3-3-3::GRID.VP.396::guides.3-3-3-3::label-4-3.5-4-5-4::GRID.VP.395::GRID.VP.392.1" font-size="8.8" stroke="rgb(0,0,0)" font-family="Helvetica, Arial, FreeSans, Liberation Sans, Nimbus Sans L, sans-serif" stroke-opacity="1" font-weight="normal" font-style="normal" class="viewport">
                                  <g id="layout::guide-box.7-9-7-9::GRID.VP.397::guide-box.7-9-7-9::guides.3-3-3-3::GRID.VP.396::guides.3-3-3-3::label-4-3.5-4-5-4::GRID.VP.395::GRID.VP.392::GRID.VP.393.1" class="viewport">
                                    <g id="guide.label.titleGrob.1648.1" class="titleGrob gTree grob gDesc">
                                      <g id="GRID.text.1646.1" class="text grob gDesc">
                                        <g id="GRID.text.1646.1.1" transform="translate(463.04, 233.26)" stroke-width="0.1">
                                          <g id="GRID.text.1646.1.1.scale" transform="scale(1, -1)">
                                            <text x="0" y="0" id="GRID.text.1646.1.1.text" text-anchor="start" font-size="8.8" stroke="rgb(0,0,0)" font-family="Helvetica, Arial, FreeSans, Liberation Sans, Nimbus Sans L, sans-serif" fill="rgb(0,0,0)" stroke-opacity="1" fill-opacity="1" font-weight="normal" font-style="normal">
                                              <tspan id="GRID.text.1646.1.1.tspan.1" dy="3.23" x="0">N (149)</tspan>
                                            </text>
                                          </g>
                                        </g>
                                      </g>
                                    </g>
                                  </g>
                                </g>
                              </g>
                            </g>
                          </g>
                        </g>
                      </g>
                    </g>
                  </g>
                </g>
              </g>
            </g>
          </g>
          <g id="layout::subtitle.4-5-4-5.1" class="viewport"/>
          <g id="layout::title.3-5-3-5.1" class="viewport">
            <g id="layout::title.3-5-3-5::GRID.VP.398.1" font-size="13.2" stroke="rgb(102,102,102)" font-family="Helvetica, Arial, FreeSans, Liberation Sans, Nimbus Sans L, sans-serif" stroke-opacity="1" font-weight="normal" font-style="normal" class="viewport">
              <g id="layout::title.3-5-3-5::GRID.VP.398::GRID.VP.399.1" class="viewport">
                <g id="title.3-5-3-5.1" class="forcedgrob gTableChild titleGrob gTree grob gDesc">
                  <g id="GRID.text.1657.1" class="text grob gDesc">
                    <g id="GRID.text.1657.1.1" transform="translate(216.03, 469.91)" stroke-width="0.1">
                      <g id="GRID.text.1657.1.1.scale" transform="scale(1, -1)">
                        <text x="0" y="0" id="GRID.text.1657.1.1.text" text-anchor="middle" font-size="13.2" stroke="rgb(102,102,102)" font-family="Helvetica, Arial, FreeSans, Liberation Sans, Nimbus Sans L, sans-serif" fill="rgb(102,102,102)" stroke-opacity="1" fill-opacity="1" font-weight="normal" font-style="normal">
                          <tspan id="GRID.text.1657.1.1.tspan.1" dy="9.33" x="0">anagrafica corsoit</tspan>
                        </text>
                      </g>
                    </g>
                  </g>
                </g>
              </g>
            </g>
          </g>
          <g id="layout::caption.10-5-10-5.1" class="viewport"/>
          <g id="layout::tag.2-2-2-2.1" class="viewport"/>
        </g>
      </g>
    </g>
  </g>
</svg>