<?xml version="1.0" encoding="UTF-8"?>
<svg xmlns="http://www.w3.org/2000/svg" xmlns:xlink="http://www.w3.org/1999/xlink" width="504px" height="504px" viewBox="0 0 504 504" version="1.1">
  <metadata xmlns:gridsvg="http://www.stat.auckland.ac.nz/~paul/R/gridSVG/">
    <gridsvg:generator name="gridSVG" version="1.6-0" time="2019-01-14 16:00:15"/>
    <gridsvg:argument name="name" value="./latest_informaggio_csv/risultati/svg/anagrafica-totali-os.svg"/>
    <gridsvg:argument name="exportCoords" value="none"/>
    <gridsvg:argument name="exportMappings" value="none"/>
    <gridsvg:argument name="exportJS" value="none"/>
    <gridsvg:argument name="res" value="72"/>
    <gridsvg:argument name="prefix" value=""/>
    <gridsvg:argument name="addClasses" value="TRUE"/>
    <gridsvg:argument name="indent" value="TRUE"/>
    <gridsvg:argument name="htmlWrapper" value="FALSE"/>
    <gridsvg:argument name="usePaths" value="vpPaths"/>
    <gridsvg:argument name="uniqueNames" value="TRUE"/>
    <gridsvg:separator name="id.sep" value="."/>
    <gridsvg:separator name="gPath.sep" value="::"/>
    <gridsvg:separator name="vpPath.sep" value="::"/>
  </metadata>
  <g transform="translate(0, 504) scale(1, -1)">
    <g id="gridSVG" fill="none" stroke="rgb(0,0,0)" stroke-dasharray="none" stroke-width="0.75" font-size="12" font-family="Helvetica, Arial, FreeSans, Liberation Sans, Nimbus Sans L, sans-serif" opacity="1" stroke-linecap="round" stroke-linejoin="round" stroke-miterlimit="10" stroke-opacity="1" fill-opacity="0" font-weight="normal" font-style="normal">
      <g id="layout.1" class="viewport">
        <g id="layout.2" class="forcedgrob gtable gTree grob gDesc">
          <defs>
            <clipPath id="layout::background.1-11-12-1.1.clipPath">
              <rect x="0" y="44.12" width="504" height="415.76" fill="none" stroke="none"/>
            </clipPath>
          </defs>
          <g id="layout::background.1-11-12-1.1" clip-path="url(#layout::background.1-11-12-1.1.clipPath)" class="viewport">
            <g id="background.1-11-12-1.1" class="forcedgrob gTableChild rect grob gDesc">
              <rect id="background.1-11-12-1.1.1" x="0" y="44.12" width="504" height="415.76" transform="" stroke-width="1.07" stroke="rgb(255,255,255)" fill="rgb(255,255,255)" stroke-dasharray="none" stroke-opacity="1" fill-opacity="1"/>
            </g>
          </g>
          <defs>
            <clipPath id="layout::panel.7-5-7-5.1.clipPath">
              <rect x="8.22" y="52.34" width="384.6" height="384.6" fill="none" stroke="none"/>
            </clipPath>
          </defs>
          <g id="layout::panel.7-5-7-5.1" clip-path="url(#layout::panel.7-5-7-5.1.clipPath)" class="viewport">
            <g id="panel.7-5-7-5.1" class="forcedgrob gTableChild gTree grob gDesc">
              <g id="grill.gTree.2973.1" class="gTree grob gDesc">
                <g id="panel.background..rect.2969.1" class="rect grob gDesc">
                  <rect id="panel.background..rect.2969.1.1" x="8.22" y="52.34" width="384.6" height="384.6" transform="" stroke-width="1.07" stroke="none" fill="rgb(255,255,255)" stroke-dasharray="none" stroke-opacity="0" fill-opacity="1"/>
                </g>
              </g>
              <g id="bar.gTree.2962.1" class="gTree grob gDesc">
                <g id="geom_polygon.polygon.2954.1" class="polygon grob gDesc">
                  <polygon id="geom_polygon.polygon.2954.1.1" points="200.52,244.64 195.73,246.92 190.94,249.2 186.15,251.47 181.36,253.75 176.56,256.03 171.77,258.31 166.98,260.58 162.19,262.86 157.4,265.14 152.61,267.41 147.82,269.69 143.03,271.97 138.23,274.25 133.44,276.52 128.65,278.8 123.86,281.08 119.07,283.35 114.28,285.63 109.49,287.91 104.7,290.19 99.9,292.46 95.11,294.74 90.32,297.02 85.53,299.29 80.74,301.57 75.95,303.85 71.16,306.13 66.36,308.4 61.57,310.68 59.41,305.93 57.42,301.11 55.58,296.22 53.92,291.28 52.42,286.28 51.09,281.23 49.94,276.14 48.96,271.02 48.15,265.86 47.52,260.68 47.06,255.48 46.78,250.27 46.68,245.06 46.75,239.84 47.01,234.63 47.43,229.43 48.04,224.24 48.82,219.08 49.77,213.95 50.9,208.86 52.2,203.8 53.67,198.8 55.31,193.84 57.12,188.95 59.09,184.12 61.22,179.35 63.52,174.67 65.97,170.06 68.57,165.54 71.33,161.11 74.24,156.78 77.29,152.54 80.49,148.42 83.82,144.4 87.29,140.5 90.88,136.72 94.61,133.07 98.45,129.54 102.41,126.14 106.49,122.88 110.67,119.76 114.96,116.79 119.35,113.96 123.82,111.28 128.39,108.76 133.04,106.39 137.77,104.18 142.57,102.13 147.44,100.25 152.36,98.53 157.35,96.98 162.38,95.6 167.46,94.4 172.57,93.36 177.72,92.5 182.89,91.82 188.08,91.31 193.29,90.97 198.51,90.81 203.72,90.83 208.94,91.03 214.14,91.41 219.33,91.96 224.5,92.68 229.64,93.58 234.75,94.66 239.81,95.9 244.84,97.32 249.81,98.91 254.72,100.67 259.57,102.59 264.36,104.67 269.07,106.92 273.7,109.32 278.25,111.88 282.7,114.59 287.07,117.45 291.33,120.46 295.49,123.61 299.54,126.9 303.48,130.33 307.29,133.89 310.99,137.57 314.56,141.38 317.99,145.31 321.3,149.35 324.46,153.5 327.48,157.76 330.35,162.11 333.08,166.56 335.65,171.1 338.06,175.73 340.32,180.43 342.42,185.21 344.35,190.06 346.12,194.97 347.72,199.93 349.15,204.95 350.41,210.01 351.5,215.12 352.42,220.26 353.16,225.42 353.72,230.61 354.11,235.81 354.32,241.03 354.35,246.25 354.21,251.46 353.89,256.67 353.4,261.86 352.72,267.04 351.88,272.19 350.86,277.31 349.66,282.39 348.3,287.42 346.76,292.41 345.06,297.34 343.19,302.21 341.15,307.02 338.95,311.75 336.6,316.41 334.09,320.98 331.42,325.47 328.6,329.86 325.64,334.16 322.53,338.35 319.28,342.43 315.9,346.4 312.38,350.26 308.74,353.99 304.97,357.6 301.07,361.07 297.07,364.42 292.95,367.62 288.73,370.69 284.4,373.61 279.98,376.38 275.46,379 270.87,381.46 266.18,383.77 261.43,385.91 256.6,387.9 251.71,389.72 246.76,391.37 241.76,392.85 236.71,394.17 231.62,395.31 226.49,396.28 221.33,397.07 216.15,397.69 210.95,398.13 205.74,398.4 200.52,398.48 200.52,393.18 200.52,387.88 200.52,382.57 200.52,377.27 200.52,371.96 200.52,366.66 200.52,361.35 200.52,356.05 200.52,350.74 200.52,345.44 200.52,340.13 200.52,334.83 200.52,329.52 200.52,324.22 200.52,318.91 200.52,313.61 200.52,308.3 200.52,303 200.52,297.69 200.52,292.39 200.52,287.08 200.52,281.78 200.52,276.47 200.52,271.17 200.52,265.86 200.52,260.56 200.52,255.25 200.52,249.95 200.52,244.64 200.52,244.64" stroke="none" fill="rgb(199,124,255)" stroke-width="1.07" stroke-dasharray="none" stroke-opacity="0" fill-opacity="1"/>
                </g>
                <g id="geom_polygon.polygon.2956.1" class="polygon grob gDesc">
                  <polygon id="geom_polygon.polygon.2956.1.1" points="200.52,244.64 199.89,249.91 199.25,255.18 198.62,260.44 197.98,265.71 197.35,270.98 196.71,276.24 196.08,281.51 195.44,286.78 194.81,292.04 194.18,297.31 193.54,302.58 192.91,307.84 192.27,313.11 191.64,318.38 191,323.65 190.37,328.91 189.73,334.18 189.1,339.45 188.46,344.71 187.83,349.98 187.2,355.25 186.56,360.51 185.93,365.78 185.29,371.05 184.66,376.31 184.02,381.58 183.39,386.85 182.75,392.11 182.12,397.38 176.83,396.65 171.56,395.73 166.33,394.64 161.14,393.36 156,391.9 150.92,390.27 145.89,388.46 140.93,386.47 136.04,384.32 131.23,382 126.5,379.51 121.86,376.86 117.32,374.04 112.88,371.08 108.54,367.96 104.31,364.69 100.2,361.28 96.21,357.72 92.35,354.03 88.61,350.21 85.02,346.26 81.56,342.19 78.24,338 75.07,333.69 72.06,329.28 69.2,324.77 66.49,320.16 63.95,315.46 61.57,310.68 66.36,308.4 71.16,306.13 75.95,303.85 80.74,301.57 85.53,299.29 90.32,297.02 95.11,294.74 99.9,292.46 104.7,290.19 109.49,287.91 114.28,285.63 119.07,283.35 123.86,281.08 128.65,278.8 133.44,276.52 138.23,274.25 143.03,271.97 147.82,269.69 152.61,267.41 157.4,265.14 162.19,262.86 166.98,260.58 171.77,258.31 176.56,256.03 181.36,253.75 186.15,251.47 190.94,249.2 195.73,246.92 200.52,244.64 200.52,244.64" stroke="none" fill="rgb(0,191,196)" stroke-width="1.07" stroke-dasharray="none" stroke-opacity="0" fill-opacity="1"/>
                </g>
                <g id="geom_polygon.polygon.2958.1" class="polygon grob gDesc">
                  <polygon id="geom_polygon.polygon.2958.1.1" points="200.52,244.64 200.27,249.94 200.01,255.24 199.76,260.54 199.5,265.84 199.25,271.14 199,276.44 198.74,281.73 198.49,287.03 198.23,292.33 197.98,297.63 197.72,302.93 197.47,308.23 197.21,313.53 196.96,318.83 196.71,324.12 196.45,329.42 196.2,334.72 195.94,340.02 195.69,345.32 195.43,350.62 195.18,355.92 194.93,361.22 194.67,366.52 194.42,371.81 194.16,377.11 193.91,382.41 193.65,387.71 193.4,393.01 193.15,398.31 187.62,397.94 182.12,397.38 182.75,392.11 183.39,386.85 184.02,381.58 184.66,376.31 185.29,371.05 185.93,365.78 186.56,360.51 187.2,355.25 187.83,349.98 188.46,344.71 189.1,339.45 189.73,334.18 190.37,328.91 191,323.65 191.64,318.38 192.27,313.11 192.91,307.84 193.54,302.58 194.18,297.31 194.81,292.04 195.44,286.78 196.08,281.51 196.71,276.24 197.35,270.98 197.98,265.71 198.62,260.44 199.25,255.18 199.89,249.91 200.52,244.64 200.52,244.64" stroke="none" fill="rgb(124,174,0)" stroke-width="1.07" stroke-dasharray="none" stroke-opacity="0" fill-opacity="1"/>
                </g>
                <g id="geom_polygon.polygon.2960.1" class="polygon grob gDesc">
                  <polygon id="geom_polygon.polygon.2960.1.1" points="200.52,244.64 200.52,249.95 200.52,255.25 200.52,260.56 200.52,265.86 200.52,271.17 200.52,276.47 200.52,281.78 200.52,287.08 200.52,292.39 200.52,297.69 200.52,303 200.52,308.3 200.52,313.61 200.52,318.91 200.52,324.22 200.52,329.52 200.52,334.83 200.52,340.13 200.52,345.44 200.52,350.74 200.52,356.05 200.52,361.35 200.52,366.66 200.52,371.96 200.52,377.27 200.52,382.57 200.52,387.88 200.52,393.18 200.52,398.48 193.15,398.31 193.4,393.01 193.65,387.71 193.91,382.41 194.16,377.11 194.42,371.81 194.67,366.52 194.93,361.22 195.18,355.92 195.43,350.62 195.69,345.32 195.94,340.02 196.2,334.72 196.45,329.42 196.71,324.12 196.96,318.83 197.21,313.53 197.47,308.23 197.72,302.93 197.98,297.63 198.23,292.33 198.49,287.03 198.74,281.73 199,276.44 199.25,271.14 199.5,265.84 199.76,260.54 200.01,255.24 200.27,249.94 200.52,244.64 200.52,244.64" stroke="none" fill="rgb(248,118,109)" stroke-width="1.07" stroke-dasharray="none" stroke-opacity="0" fill-opacity="1"/>
                </g>
              </g>
              <g id="GRID.text.2963.1" class="text grob gDesc">
                <g id="GRID.text.2963.1.1" transform="translate(241.61, 179.62)" stroke-width="0.1">
                  <g id="GRID.text.2963.1.1.scale" transform="scale(1, -1)">
                    <text x="0" y="0" id="GRID.text.2963.1.1.text" text-anchor="middle" stroke="rgb(0,0,0)" font-size="11.04" font-family="Helvetica, Arial, FreeSans, Liberation Sans, Nimbus Sans L, sans-serif" fill="rgb(0,0,0)" stroke-opacity="1" fill-opacity="1" font-weight="normal" font-style="normal">
                      <tspan id="GRID.text.2963.1.1.tspan.1" dy="3.95" x="0">215</tspan>
                    </text>
                  </g>
                </g>
                <g id="GRID.text.2963.1.2" transform="translate(155.61, 307.09)" stroke-width="0.1">
                  <g id="GRID.text.2963.1.2.scale" transform="scale(1, -1)">
                    <text x="0" y="0" id="GRID.text.2963.1.2.text" text-anchor="middle" stroke="rgb(0,0,0)" font-size="11.04" font-family="Helvetica, Arial, FreeSans, Liberation Sans, Nimbus Sans L, sans-serif" fill="rgb(0,0,0)" stroke-opacity="1" fill-opacity="1" font-weight="normal" font-style="normal">
                      <tspan id="GRID.text.2963.1.2.tspan.1" dy="3.95" x="0">42</tspan>
                    </text>
                  </g>
                </g>
                <g id="GRID.text.2963.1.3" transform="translate(194.07, 321.29)" stroke-width="0.1">
                  <g id="GRID.text.2963.1.3.scale" transform="scale(1, -1)">
                    <text x="0" y="0" id="GRID.text.2963.1.3.text" text-anchor="middle" stroke="rgb(0,0,0)" font-size="11.04" font-family="Helvetica, Arial, FreeSans, Liberation Sans, Nimbus Sans L, sans-serif" fill="rgb(0,0,0)" stroke-opacity="1" fill-opacity="1" font-weight="normal" font-style="normal">
                      <tspan id="GRID.text.2963.1.3.tspan.1" dy="3.95" x="0">3</tspan>
                    </text>
                  </g>
                </g>
                <g id="GRID.text.2963.1.4" transform="translate(198.68, 321.54)" stroke-width="0.1">
                  <g id="GRID.text.2963.1.4.scale" transform="scale(1, -1)">
                    <text x="0" y="0" id="GRID.text.2963.1.4.text" text-anchor="middle" stroke="rgb(0,0,0)" font-size="11.04" font-family="Helvetica, Arial, FreeSans, Liberation Sans, Nimbus Sans L, sans-serif" fill="rgb(0,0,0)" stroke-opacity="1" fill-opacity="1" font-weight="normal" font-style="normal">
                      <tspan id="GRID.text.2963.1.4.tspan.1" dy="3.95" x="0">2</tspan>
                    </text>
                  </g>
                </g>
              </g>
              <g id="GRID.gTree.2964.1" class="gTree grob gDesc"/>
            </g>
          </g>
          <g id="layout::spacer.8-6-8-6.1" class="viewport"/>
          <g id="layout::spacer.8-4-8-4.1" class="viewport"/>
          <g id="layout::spacer.6-6-6-6.1" class="viewport"/>
          <g id="layout::spacer.6-4-6-4.1" class="viewport"/>
          <g id="layout::axis-t.6-5-6-5.1" class="viewport"/>
          <g id="layout::axis-l.7-4-7-4.1" class="viewport">
            <g id="layout::axis-l.7-4-7-4::GRID.VP.713.1" class="viewport">
              <g id="axis-l.7-4-7-4.1" class="forcedgrob gTableChild absoluteGrob gTree grob gDesc">
                <g id="layout::axis-l.7-4-7-4::GRID.VP.713::axis.1" class="viewport">
                  <g id="axis.1" class="forcedgrob gtable gTree grob gDesc">
                    <g id="layout::axis-l.7-4-7-4::GRID.VP.713::axis::axis.1-1-1-1.1" class="viewport"/>
                    <g id="layout::axis-l.7-4-7-4::GRID.VP.713::axis::axis.1-2-1-2.1" class="viewport"/>
                  </g>
                </g>
              </g>
            </g>
          </g>
          <g id="layout::axis-r.7-6-7-6.1" class="viewport"/>
          <g id="layout::axis-b.8-5-8-5.1" class="viewport">
            <g id="layout::axis-b.8-5-8-5::GRID.VP.712.1" class="viewport">
              <g id="axis-b.8-5-8-5.1" class="forcedgrob gTableChild absoluteGrob gTree grob gDesc">
                <g id="layout::axis-b.8-5-8-5::GRID.VP.712::axis.1" class="viewport">
                  <g id="axis.2" class="forcedgrob gtable gTree grob gDesc">
                    <g id="layout::axis-b.8-5-8-5::GRID.VP.712::axis::axis.1-1-1-1.1" class="viewport"/>
                    <g id="layout::axis-b.8-5-8-5::GRID.VP.712::axis::axis.2-1-2-1.1" class="viewport"/>
                  </g>
                </g>
              </g>
            </g>
          </g>
          <g id="layout::xlab-t.5-5-5-5.1" class="viewport"/>
          <g id="layout::xlab-b.9-5-9-5.1" class="viewport"/>
          <g id="layout::ylab-l.7-3-7-3.1" class="viewport"/>
          <g id="layout::ylab-r.7-7-7-7.1" class="viewport"/>
          <g id="layout::guide-box.7-9-7-9.1" class="viewport">
            <g id="layout::guide-box.7-9-7-9::GRID.VP.727.1" class="viewport">
              <g id="layout::guide-box.7-9-7-9::GRID.VP.727::guide-box.7-9-7-9.1" class="viewport">
                <g id="guide-box.7-9-7-9.1" class="forcedgrob gTableChild gtable gTree grob gDesc">
                  <g id="layout::guide-box.7-9-7-9::GRID.VP.727::guide-box.7-9-7-9::legend.box.background.2-4-4-2.1" class="viewport"/>
                  <g id="layout::guide-box.7-9-7-9::GRID.VP.727::guide-box.7-9-7-9::guides.3-3-3-3.1" class="viewport">
                    <g id="layout::guide-box.7-9-7-9::GRID.VP.727::guide-box.7-9-7-9::guides.3-3-3-3::GRID.VP.726.1" class="viewport">
                      <g id="layout::guide-box.7-9-7-9::GRID.VP.727::guide-box.7-9-7-9::guides.3-3-3-3::GRID.VP.726::guides.3-3-3-3.1" class="viewport">
                        <g id="guides.3-3-3-3.1" class="forcedgrob gTableChild gtable gTree grob gDesc">
                          <g id="layout::guide-box.7-9-7-9::GRID.VP.727::guide-box.7-9-7-9::guides.3-3-3-3::GRID.VP.726::guides.3-3-3-3::background.1-6-8-1.1" class="viewport">
                            <g id="background.1-6-8-1.1" class="forcedgrob gTableChild rect grob gDesc">
                              <rect id="background.1-6-8-1.1.1" x="403.78" y="201.86" width="94.74" height="85.56" transform="" stroke-width="1.07" stroke="none" fill="rgb(255,255,255)" stroke-dasharray="none" stroke-opacity="0" fill-opacity="1"/>
                            </g>
                          </g>
                          <g id="layout::guide-box.7-9-7-9::GRID.VP.727::guide-box.7-9-7-9::guides.3-3-3-3::GRID.VP.726::guides.3-3-3-3::title.2-5-2-2.1" class="viewport"/>
                          <g id="layout::guide-box.7-9-7-9::GRID.VP.727::guide-box.7-9-7-9::guides.3-3-3-3::GRID.VP.726::guides.3-3-3-3::key-3-1-bg.4-2-4-2.1" class="viewport"/>
                          <g id="layout::guide-box.7-9-7-9::GRID.VP.727::guide-box.7-9-7-9::guides.3-3-3-3::GRID.VP.726::guides.3-3-3-3::key-3-1-1.4-2-4-2.1" class="viewport">
                            <g id="key-3-1-1.4-2-4-2.1" class="forcedgrob gTableChild rect grob gDesc">
                              <rect id="key-3-1-1.4-2-4-2.1.1" x="409.97" y="259.89" width="15.86" height="15.86" transform="" stroke="none" fill="rgb(248,118,109)" stroke-dasharray="none" stroke-width="1.07" stroke-linejoin="miter" stroke-opacity="0" fill-opacity="1"/>
                            </g>
                          </g>
                          <g id="layout::guide-box.7-9-7-9::GRID.VP.727::guide-box.7-9-7-9::guides.3-3-3-3::GRID.VP.726::guides.3-3-3-3::key-4-1-bg.5-2-5-2.1" class="viewport"/>
                          <g id="layout::guide-box.7-9-7-9::GRID.VP.727::guide-box.7-9-7-9::guides.3-3-3-3::GRID.VP.726::guides.3-3-3-3::key-4-1-1.5-2-5-2.1" class="viewport">
                            <g id="key-4-1-1.5-2-5-2.1" class="forcedgrob gTableChild rect grob gDesc">
                              <rect id="key-4-1-1.5-2-5-2.1.1" x="409.97" y="242.61" width="15.86" height="15.86" transform="" stroke="none" fill="rgb(124,174,0)" stroke-dasharray="none" stroke-width="1.07" stroke-linejoin="miter" stroke-opacity="0" fill-opacity="1"/>
                            </g>
                          </g>
                          <g id="layout::guide-box.7-9-7-9::GRID.VP.727::guide-box.7-9-7-9::guides.3-3-3-3::GRID.VP.726::guides.3-3-3-3::key-5-1-bg.6-2-6-2.1" class="viewport"/>
                          <g id="layout::guide-box.7-9-7-9::GRID.VP.727::guide-box.7-9-7-9::guides.3-3-3-3::GRID.VP.726::guides.3-3-3-3::key-5-1-1.6-2-6-2.1" class="viewport">
                            <g id="key-5-1-1.6-2-6-2.1" class="forcedgrob gTableChild rect grob gDesc">
                              <rect id="key-5-1-1.6-2-6-2.1.1" x="409.97" y="225.33" width="15.86" height="15.86" transform="" stroke="none" fill="rgb(0,191,196)" stroke-dasharray="none" stroke-width="1.07" stroke-linejoin="miter" stroke-opacity="0" fill-opacity="1"/>
                            </g>
                          </g>
                          <g id="layout::guide-box.7-9-7-9::GRID.VP.727::guide-box.7-9-7-9::guides.3-3-3-3::GRID.VP.726::guides.3-3-3-3::key-6-1-bg.7-2-7-2.1" class="viewport"/>
                          <g id="layout::guide-box.7-9-7-9::GRID.VP.727::guide-box.7-9-7-9::guides.3-3-3-3::GRID.VP.726::guides.3-3-3-3::key-6-1-1.7-2-7-2.1" class="viewport">
                            <g id="key-6-1-1.7-2-7-2.1" class="forcedgrob gTableChild rect grob gDesc">
                              <rect id="key-6-1-1.7-2-7-2.1.1" x="409.97" y="208.05" width="15.86" height="15.86" transform="" stroke="none" fill="rgb(199,124,255)" stroke-dasharray="none" stroke-width="1.07" stroke-linejoin="miter" stroke-opacity="0" fill-opacity="1"/>
                            </g>
                          </g>
                          <g id="layout::guide-box.7-9-7-9::GRID.VP.727::guide-box.7-9-7-9::guides.3-3-3-3::GRID.VP.726::guides.3-3-3-3::label-3-3.4-4-4-4.1" class="viewport">
                            <g id="layout::guide-box.7-9-7-9::GRID.VP.727::guide-box.7-9-7-9::guides.3-3-3-3::GRID.VP.726::guides.3-3-3-3::label-3-3.4-4-4-4::GRID.VP.722.1" class="viewport">
                              <g id="label-3-3.4-4-4-4.1" class="forcedgrob gTableChild gTree grob gDesc">
                                <g id="layout::guide-box.7-9-7-9::GRID.VP.727::guide-box.7-9-7-9::guides.3-3-3-3::GRID.VP.726::guides.3-3-3-3::label-3-3.4-4-4-4::GRID.VP.722::GRID.VP.714.1" font-size="8.8" stroke="rgb(0,0,0)" font-family="Helvetica, Arial, FreeSans, Liberation Sans, Nimbus Sans L, sans-serif" stroke-opacity="1" font-weight="normal" font-style="normal" class="viewport">
                                  <g id="layout::guide-box.7-9-7-9::GRID.VP.727::guide-box.7-9-7-9::guides.3-3-3-3::GRID.VP.726::guides.3-3-3-3::label-3-3.4-4-4-4::GRID.VP.722::GRID.VP.714::GRID.VP.715.1" class="viewport">
                                    <g id="guide.label.titleGrob.2987.1" class="titleGrob gTree grob gDesc">
                                      <g id="GRID.text.2985.1" class="text grob gDesc">
                                        <g id="GRID.text.2985.1.1" transform="translate(432.02, 267.82)" stroke-width="0.1">
                                          <g id="GRID.text.2985.1.1.scale" transform="scale(1, -1)">
                                            <text x="0" y="0" id="GRID.text.2985.1.1.text" text-anchor="start" font-size="8.8" stroke="rgb(0,0,0)" font-family="Helvetica, Arial, FreeSans, Liberation Sans, Nimbus Sans L, sans-serif" fill="rgb(0,0,0)" stroke-opacity="1" fill-opacity="1" font-weight="normal" font-style="normal">
                                              <tspan id="GRID.text.2985.1.1.tspan.1" dy="3.23" x="0">Linux (2)</tspan>
                                            </text>
                                          </g>
                                        </g>
                                      </g>
                                    </g>
                                  </g>
                                </g>
                              </g>
                            </g>
                          </g>
                          <g id="layout::guide-box.7-9-7-9::GRID.VP.727::guide-box.7-9-7-9::guides.3-3-3-3::GRID.VP.726::guides.3-3-3-3::label-4-3.5-4-5-4.1" class="viewport">
                            <g id="layout::guide-box.7-9-7-9::GRID.VP.727::guide-box.7-9-7-9::guides.3-3-3-3::GRID.VP.726::guides.3-3-3-3::label-4-3.5-4-5-4::GRID.VP.723.1" class="viewport">
                              <g id="label-4-3.5-4-5-4.1" class="forcedgrob gTableChild gTree grob gDesc">
                                <g id="layout::guide-box.7-9-7-9::GRID.VP.727::guide-box.7-9-7-9::guides.3-3-3-3::GRID.VP.726::guides.3-3-3-3::label-4-3.5-4-5-4::GRID.VP.723::GRID.VP.716.1" font-size="8.8" stroke="rgb(0,0,0)" font-family="Helvetica, Arial, FreeSans, Liberation Sans, Nimbus Sans L, sans-serif" stroke-opacity="1" font-weight="normal" font-style="normal" class="viewport">
                                  <g id="layout::guide-box.7-9-7-9::GRID.VP.727::guide-box.7-9-7-9::guides.3-3-3-3::GRID.VP.726::guides.3-3-3-3::label-4-3.5-4-5-4::GRID.VP.723::GRID.VP.716::GRID.VP.717.1" class="viewport">
                                    <g id="guide.label.titleGrob.2990.1" class="titleGrob gTree grob gDesc">
                                      <g id="GRID.text.2988.1" class="text grob gDesc">
                                        <g id="GRID.text.2988.1.1" transform="translate(432.02, 250.54)" stroke-width="0.1">
                                          <g id="GRID.text.2988.1.1.scale" transform="scale(1, -1)">
                                            <text x="0" y="0" id="GRID.text.2988.1.1.text" text-anchor="start" font-size="8.8" stroke="rgb(0,0,0)" font-family="Helvetica, Arial, FreeSans, Liberation Sans, Nimbus Sans L, sans-serif" fill="rgb(0,0,0)" stroke-opacity="1" fill-opacity="1" font-weight="normal" font-style="normal">
                                              <tspan id="GRID.text.2988.1.1.tspan.1" dy="3.23" x="0">nocomputer (3)</tspan>
                                            </text>
                                          </g>
                                        </g>
                                      </g>
                                    </g>
                                  </g>
                                </g>
                              </g>
                            </g>
                          </g>
                          <g id="layout::guide-box.7-9-7-9::GRID.VP.727::guide-box.7-9-7-9::guides.3-3-3-3::GRID.VP.726::guides.3-3-3-3::label-5-3.6-4-6-4.1" class="viewport">
                            <g id="layout::guide-box.7-9-7-9::GRID.VP.727::guide-box.7-9-7-9::guides.3-3-3-3::GRID.VP.726::guides.3-3-3-3::label-5-3.6-4-6-4::GRID.VP.724.1" class="viewport">
                              <g id="label-5-3.6-4-6-4.1" class="forcedgrob gTableChild gTree grob gDesc">
                                <g id="layout::guide-box.7-9-7-9::GRID.VP.727::guide-box.7-9-7-9::guides.3-3-3-3::GRID.VP.726::guides.3-3-3-3::label-5-3.6-4-6-4::GRID.VP.724::GRID.VP.718.1" font-size="8.8" stroke="rgb(0,0,0)" font-family="Helvetica, Arial, FreeSans, Liberation Sans, Nimbus Sans L, sans-serif" stroke-opacity="1" font-weight="normal" font-style="normal" class="viewport">
                                  <g id="layout::guide-box.7-9-7-9::GRID.VP.727::guide-box.7-9-7-9::guides.3-3-3-3::GRID.VP.726::guides.3-3-3-3::label-5-3.6-4-6-4::GRID.VP.724::GRID.VP.718::GRID.VP.719.1" class="viewport">
                                    <g id="guide.label.titleGrob.2993.1" class="titleGrob gTree grob gDesc">
                                      <g id="GRID.text.2991.1" class="text grob gDesc">
                                        <g id="GRID.text.2991.1.1" transform="translate(432.02, 233.26)" stroke-width="0.1">
                                          <g id="GRID.text.2991.1.1.scale" transform="scale(1, -1)">
                                            <text x="0" y="0" id="GRID.text.2991.1.1.text" text-anchor="start" font-size="8.8" stroke="rgb(0,0,0)" font-family="Helvetica, Arial, FreeSans, Liberation Sans, Nimbus Sans L, sans-serif" fill="rgb(0,0,0)" stroke-opacity="1" fill-opacity="1" font-weight="normal" font-style="normal">
                                              <tspan id="GRID.text.2991.1.1.tspan.1" dy="3.23" x="0">MacOS (42)</tspan>
                                            </text>
                                          </g>
                                        </g>
                                      </g>
                                    </g>
                                  </g>
                                </g>
                              </g>
                            </g>
                          </g>
                          <g id="layout::guide-box.7-9-7-9::GRID.VP.727::guide-box.7-9-7-9::guides.3-3-3-3::GRID.VP.726::guides.3-3-3-3::label-6-3.7-4-7-4.1" class="viewport">
                            <g id="layout::guide-box.7-9-7-9::GRID.VP.727::guide-box.7-9-7-9::guides.3-3-3-3::GRID.VP.726::guides.3-3-3-3::label-6-3.7-4-7-4::GRID.VP.725.1" class="viewport">
                              <g id="label-6-3.7-4-7-4.1" class="forcedgrob gTableChild gTree grob gDesc">
                                <g id="layout::guide-box.7-9-7-9::GRID.VP.727::guide-box.7-9-7-9::guides.3-3-3-3::GRID.VP.726::guides.3-3-3-3::label-6-3.7-4-7-4::GRID.VP.725::GRID.VP.720.1" font-size="8.8" stroke="rgb(0,0,0)" font-family="Helvetica, Arial, FreeSans, Liberation Sans, Nimbus Sans L, sans-serif" stroke-opacity="1" font-weight="normal" font-style="normal" class="viewport">
                                  <g id="layout::guide-box.7-9-7-9::GRID.VP.727::guide-box.7-9-7-9::guides.3-3-3-3::GRID.VP.726::guides.3-3-3-3::label-6-3.7-4-7-4::GRID.VP.725::GRID.VP.720::GRID.VP.721.1" class="viewport">
                                    <g id="guide.label.titleGrob.2996.1" class="titleGrob gTree grob gDesc">
                                      <g id="GRID.text.2994.1" class="text grob gDesc">
                                        <g id="GRID.text.2994.1.1" transform="translate(432.02, 215.98)" stroke-width="0.1">
                                          <g id="GRID.text.2994.1.1.scale" transform="scale(1, -1)">
                                            <text x="0" y="0" id="GRID.text.2994.1.1.text" text-anchor="start" font-size="8.8" stroke="rgb(0,0,0)" font-family="Helvetica, Arial, FreeSans, Liberation Sans, Nimbus Sans L, sans-serif" fill="rgb(0,0,0)" stroke-opacity="1" fill-opacity="1" font-weight="normal" font-style="normal">
                                              <tspan id="GRID.text.2994.1.1.tspan.1" dy="3.23" x="0">Windows (215)</tspan>
                                            </text>
                                          </g>
                                        </g>
                                      </g>
                                    </g>
                                  </g>
                                </g>
                              </g>
                            </g>
                          </g>
                        </g>
                      </g>
                    </g>
                  </g>
                </g>
              </g>
            </g>
          </g>
          <g id="layout::subtitle.4-5-4-5.1" class="viewport"/>
          <g id="layout::title.3-5-3-5.1" class="viewport">
            <g id="layout::title.3-5-3-5::GRID.VP.728.1" font-size="13.2" stroke="rgb(102,102,102)" font-family="Helvetica, Arial, FreeSans, Liberation Sans, Nimbus Sans L, sans-serif" stroke-opacity="1" font-weight="normal" font-style="normal" class="viewport">
              <g id="layout::title.3-5-3-5::GRID.VP.728::GRID.VP.729.1" class="viewport">
                <g id="title.3-5-3-5.1" class="forcedgrob gTableChild titleGrob gTree grob gDesc">
                  <g id="GRID.text.3011.1" class="text grob gDesc">
                    <g id="GRID.text.3011.1.1" transform="translate(200.52, 454.4)" stroke-width="0.1">
                      <g id="GRID.text.3011.1.1.scale" transform="scale(1, -1)">
                        <text x="0" y="0" id="GRID.text.3011.1.1.text" text-anchor="middle" font-size="13.2" stroke="rgb(102,102,102)" font-family="Helvetica, Arial, FreeSans, Liberation Sans, Nimbus Sans L, sans-serif" fill="rgb(102,102,102)" stroke-opacity="1" fill-opacity="1" font-weight="normal" font-style="normal">
                          <tspan id="GRID.text.3011.1.1.tspan.1" dy="9.33" x="0">anagrafica totali-os</tspan>
                        </text>
                      </g>
                    </g>
                  </g>
                </g>
              </g>
            </g>
          </g>
          <g id="layout::caption.10-5-10-5.1" class="viewport"/>
          <g id="layout::tag.2-2-2-2.1" class="viewport"/>
        </g>
      </g>
    </g>
  </g>
</svg>