<?xml version="1.0" encoding="UTF-8"?>
<svg xmlns="http://www.w3.org/2000/svg" xmlns:xlink="http://www.w3.org/1999/xlink" width="504px" height="504px" viewBox="0 0 504 504" version="1.1">
  <metadata xmlns:gridsvg="http://www.stat.auckland.ac.nz/~paul/R/gridSVG/">
    <gridsvg:generator name="gridSVG" version="1.6-0" time="2019-01-18 19:03:40"/>
    <gridsvg:argument name="name" value="./latest_informaggio_csv/risultati/svg/anagrafica-elaborazioneinformazioni.svg"/>
    <gridsvg:argument name="exportCoords" value="none"/>
    <gridsvg:argument name="exportMappings" value="none"/>
    <gridsvg:argument name="exportJS" value="none"/>
    <gridsvg:argument name="res" value="72"/>
    <gridsvg:argument name="prefix" value=""/>
    <gridsvg:argument name="addClasses" value="TRUE"/>
    <gridsvg:argument name="indent" value="TRUE"/>
    <gridsvg:argument name="htmlWrapper" value="FALSE"/>
    <gridsvg:argument name="usePaths" value="vpPaths"/>
    <gridsvg:argument name="uniqueNames" value="TRUE"/>
    <gridsvg:separator name="id.sep" value="."/>
    <gridsvg:separator name="gPath.sep" value="::"/>
    <gridsvg:separator name="vpPath.sep" value="::"/>
  </metadata>
  <g transform="translate(0, 504) scale(1, -1)">
    <g id="gridSVG" fill="none" stroke="rgb(0,0,0)" stroke-dasharray="none" stroke-width="0.75" font-size="12" font-family="Helvetica, Arial, FreeSans, Liberation Sans, Nimbus Sans L, sans-serif" opacity="1" stroke-linecap="round" stroke-linejoin="round" stroke-miterlimit="10" stroke-opacity="1" fill-opacity="0" font-weight="normal" font-style="normal">
      <g id="layout.1" class="viewport">
        <g id="layout.2" class="forcedgrob gtable gTree grob gDesc">
          <defs>
            <clipPath id="layout::background.1-11-12-1.1.clipPath">
              <rect x="0" y="40.92" width="504" height="422.16" fill="none" stroke="none"/>
            </clipPath>
          </defs>
          <g id="layout::background.1-11-12-1.1" clip-path="url(#layout::background.1-11-12-1.1.clipPath)" class="viewport">
            <g id="background.1-11-12-1.1" class="forcedgrob gTableChild rect grob gDesc">
              <rect id="background.1-11-12-1.1.1" x="0" y="40.92" width="504" height="422.16" transform="" stroke-width="1.07" stroke="rgb(255,255,255)" fill="rgb(255,255,255)" stroke-dasharray="none" stroke-opacity="1" fill-opacity="1"/>
            </g>
          </g>
          <defs>
            <clipPath id="layout::panel.7-5-7-5.1.clipPath">
              <rect x="8.22" y="49.14" width="391" height="391" fill="none" stroke="none"/>
            </clipPath>
          </defs>
          <g id="layout::panel.7-5-7-5.1" clip-path="url(#layout::panel.7-5-7-5.1.clipPath)" class="viewport">
            <g id="panel.7-5-7-5.1" class="forcedgrob gTableChild gTree grob gDesc">
              <g id="grill.gTree.2075.1" class="gTree grob gDesc">
                <g id="panel.background..rect.2071.1" class="rect grob gDesc">
                  <rect id="panel.background..rect.2071.1.1" x="8.22" y="49.14" width="391" height="391" transform="" stroke-width="1.07" stroke="none" fill="rgb(255,255,255)" stroke-dasharray="none" stroke-opacity="0" fill-opacity="1"/>
                </g>
              </g>
              <g id="bar.gTree.2064.1" class="gTree grob gDesc">
                <g id="geom_polygon.polygon.2054.1" class="polygon grob gDesc">
                  <polygon id="geom_polygon.polygon.2054.1.1" points="203.72,244.64 201.82,239.59 199.93,234.55 198.03,229.5 196.13,224.45 194.24,219.4 192.34,214.35 190.44,209.3 188.55,204.25 186.65,199.21 184.75,194.16 182.86,189.11 180.96,184.06 179.06,179.01 177.17,173.96 175.27,168.91 173.37,163.87 171.48,158.82 169.58,153.77 167.68,148.72 165.79,143.67 163.89,138.62 161.99,133.57 160.1,128.52 158.2,123.48 156.3,118.43 154.41,113.38 152.51,108.33 150.61,103.28 148.72,98.23 153.72,96.45 158.79,94.83 163.91,93.39 169.07,92.13 174.27,91.04 179.51,90.13 184.77,89.39 190.06,88.84 195.36,88.47 200.68,88.27 205.99,88.26 211.3,88.43 216.61,88.77 221.9,89.3 227.17,90.01 232.41,90.9 237.62,91.96 242.79,93.2 247.91,94.61 252.98,96.2 258,97.96 262.95,99.89 267.84,101.99 272.65,104.25 277.38,106.67 282.03,109.26 286.58,112 291.04,114.89 295.4,117.93 299.65,121.12 303.8,124.45 307.82,127.92 311.73,131.53 315.51,135.26 319.16,139.12 322.68,143.11 326.06,147.21 329.3,151.42 332.4,155.74 335.35,160.17 338.14,164.69 340.78,169.31 343.26,174.01 345.58,178.79 347.74,183.65 349.73,188.58 351.55,193.57 353.2,198.63 354.68,203.73 355.98,208.89 357.11,214.08 358.06,219.31 358.83,224.57 359.42,229.85 359.83,235.15 360.07,240.46 360.12,245.78 359.99,251.09 359.68,256.4 359.19,261.69 358.52,266.97 357.67,272.21 356.65,277.43 355.44,282.61 354.07,287.74 352.51,292.83 350.79,297.86 348.9,302.82 346.84,307.72 344.61,312.55 342.22,317.3 339.67,321.96 336.97,326.54 334.11,331.02 331.1,335.4 327.94,339.68 324.64,343.84 321.2,347.89 317.62,351.83 313.91,355.64 310.08,359.32 306.12,362.86 302.04,366.28 297.85,369.55 293.55,372.67 289.15,375.65 284.65,378.48 280.05,381.15 275.37,383.67 270.6,386.02 265.76,388.21 260.84,390.24 255.86,392.1 250.82,393.78 245.73,395.3 240.58,396.64 235.4,397.8 230.17,398.79 224.92,399.6 219.64,400.23 214.34,400.68 209.04,400.95 203.72,401.04 203.72,395.65 203.72,390.26 203.72,384.86 203.72,379.47 203.72,374.08 203.72,368.69 203.72,363.29 203.72,357.9 203.72,352.51 203.72,347.11 203.72,341.72 203.72,336.33 203.72,330.93 203.72,325.54 203.72,320.15 203.72,314.75 203.72,309.36 203.72,303.97 203.72,298.57 203.72,293.18 203.72,287.79 203.72,282.4 203.72,277 203.72,271.61 203.72,266.22 203.72,260.82 203.72,255.43 203.72,250.04 203.72,244.64 203.72,244.64" stroke="none" fill="rgb(231,107,243)" stroke-width="1.07" stroke-dasharray="none" stroke-opacity="0" fill-opacity="1"/>
                </g>
                <g id="geom_polygon.polygon.2056.1" class="polygon grob gDesc">
                  <polygon id="geom_polygon.polygon.2056.1.1" points="203.72,244.64 198.44,245.73 193.16,246.82 187.87,247.9 182.59,248.99 177.31,250.08 172.03,251.16 166.74,252.25 161.46,253.34 156.18,254.42 150.9,255.51 145.61,256.6 140.33,257.68 135.05,258.77 129.77,259.86 124.48,260.94 119.2,262.03 113.92,263.12 108.63,264.2 103.35,265.29 98.07,266.38 92.79,267.46 87.5,268.55 82.22,269.64 76.94,270.72 71.66,271.81 66.37,272.9 61.09,273.98 55.81,275.07 50.53,276.16 49.53,270.85 48.72,265.52 48.09,260.16 47.65,254.78 47.39,249.4 47.32,244 47.44,238.61 47.74,233.22 48.22,227.85 48.9,222.5 49.75,217.17 50.79,211.88 52.01,206.62 53.41,201.41 54.99,196.25 56.75,191.15 58.68,186.12 60.79,181.15 63.06,176.26 65.5,171.45 68.11,166.72 70.88,162.09 73.81,157.56 76.89,153.13 80.12,148.81 83.5,144.61 87.02,140.52 90.68,136.56 94.47,132.72 98.4,129.02 102.45,125.46 106.62,122.04 110.91,118.76 115.3,115.63 119.8,112.66 124.41,109.85 129.1,107.19 133.89,104.7 138.75,102.37 143.7,100.22 148.72,98.23 150.61,103.28 152.51,108.33 154.41,113.38 156.3,118.43 158.2,123.48 160.1,128.52 161.99,133.57 163.89,138.62 165.79,143.67 167.68,148.72 169.58,153.77 171.48,158.82 173.37,163.87 175.27,168.91 177.17,173.96 179.06,179.01 180.96,184.06 182.86,189.11 184.75,194.16 186.65,199.21 188.55,204.25 190.44,209.3 192.34,214.35 194.24,219.4 196.13,224.45 198.03,229.5 199.93,234.55 201.82,239.59 203.72,244.64 203.72,244.64" stroke="none" fill="rgb(0,176,246)" stroke-width="1.07" stroke-dasharray="none" stroke-opacity="0" fill-opacity="1"/>
                </g>
                <g id="geom_polygon.polygon.2058.1" class="polygon grob gDesc">
                  <polygon id="geom_polygon.polygon.2058.1.1" points="203.72,244.64 202.12,249.79 200.52,254.94 198.92,260.09 197.32,265.24 195.72,270.39 194.11,275.54 192.51,280.69 190.91,285.84 189.31,290.99 187.71,296.14 186.11,301.29 184.51,306.44 182.91,311.59 181.31,316.74 179.71,321.89 178.1,327.04 176.5,332.19 174.9,337.34 173.3,342.49 171.7,347.64 170.1,352.79 168.5,357.94 166.9,363.09 165.3,368.24 163.69,373.39 162.09,378.54 160.49,383.69 158.89,388.84 157.29,393.99 152.18,392.31 147.13,390.45 142.15,388.42 137.24,386.21 132.41,383.84 127.67,381.31 123.01,378.61 118.45,375.75 113.99,372.74 109.64,369.58 105.4,366.27 101.27,362.82 97.27,359.22 93.39,355.49 89.64,351.63 86.03,347.65 82.55,343.54 79.22,339.31 76.04,334.97 73.01,330.53 70.13,325.98 67.41,321.34 64.86,316.6 62.46,311.78 60.24,306.88 58.18,301.91 56.3,296.87 54.59,291.77 53.06,286.61 51.7,281.41 50.53,276.16 55.81,275.07 61.09,273.98 66.37,272.9 71.66,271.81 76.94,270.72 82.22,269.64 87.5,268.55 92.79,267.46 98.07,266.38 103.35,265.29 108.63,264.2 113.92,263.12 119.2,262.03 124.48,260.94 129.77,259.86 135.05,258.77 140.33,257.68 145.61,256.6 150.9,255.51 156.18,254.42 161.46,253.34 166.74,252.25 172.03,251.16 177.31,250.08 182.59,248.99 187.87,247.9 193.16,246.82 198.44,245.73 203.72,244.64 203.72,244.64" stroke="none" fill="rgb(0,191,125)" stroke-width="1.07" stroke-dasharray="none" stroke-opacity="0" fill-opacity="1"/>
                </g>
                <g id="geom_polygon.polygon.2060.1" class="polygon grob gDesc">
                  <polygon id="geom_polygon.polygon.2060.1.1" points="203.72,244.64 203.47,250.03 203.22,255.42 202.97,260.81 202.72,266.19 202.47,271.58 202.22,276.97 201.97,282.35 201.72,287.74 201.47,293.13 201.22,298.52 200.97,303.9 200.72,309.29 200.47,314.68 200.22,320.07 199.97,325.45 199.72,330.84 199.47,336.23 199.22,341.62 198.97,347 198.72,352.39 198.47,357.78 198.22,363.16 197.97,368.55 197.72,373.94 197.47,379.33 197.22,384.71 196.97,390.1 196.72,395.49 196.47,400.88 190.78,400.51 185.12,399.93 179.47,399.15 173.86,398.17 168.29,396.98 162.76,395.59 157.29,393.99 158.89,388.84 160.49,383.69 162.09,378.54 163.69,373.39 165.3,368.24 166.9,363.09 168.5,357.94 170.1,352.79 171.7,347.64 173.3,342.49 174.9,337.34 176.5,332.19 178.1,327.04 179.71,321.89 181.31,316.74 182.91,311.59 184.51,306.44 186.11,301.29 187.71,296.14 189.31,290.99 190.91,285.84 192.51,280.69 194.11,275.54 195.72,270.39 197.32,265.24 198.92,260.09 200.52,254.94 202.12,249.79 203.72,244.64 203.72,244.64" stroke="none" fill="rgb(163,165,0)" stroke-width="1.07" stroke-dasharray="none" stroke-opacity="0" fill-opacity="1"/>
                </g>
                <g id="geom_polygon.polygon.2062.1" class="polygon grob gDesc">
                  <polygon id="geom_polygon.polygon.2062.1.1" points="203.72,244.64 203.72,250.04 203.72,255.43 203.72,260.82 203.72,266.22 203.72,271.61 203.72,277 203.72,282.4 203.72,287.79 203.72,293.18 203.72,298.57 203.72,303.97 203.72,309.36 203.72,314.75 203.72,320.15 203.72,325.54 203.72,330.93 203.72,336.33 203.72,341.72 203.72,347.11 203.72,352.51 203.72,357.9 203.72,363.29 203.72,368.69 203.72,374.08 203.72,379.47 203.72,384.86 203.72,390.26 203.72,395.65 203.72,401.04 196.47,400.88 196.72,395.49 196.97,390.1 197.22,384.71 197.47,379.33 197.72,373.94 197.97,368.55 198.22,363.16 198.47,357.78 198.72,352.39 198.97,347 199.22,341.62 199.47,336.23 199.72,330.84 199.97,325.45 200.22,320.07 200.47,314.68 200.72,309.29 200.97,303.9 201.22,298.52 201.47,293.13 201.72,287.74 201.97,282.35 202.22,276.97 202.47,271.58 202.72,266.19 202.97,260.81 203.22,255.42 203.47,250.03 203.72,244.64 203.72,244.64" stroke="none" fill="rgb(248,118,109)" stroke-width="1.07" stroke-dasharray="none" stroke-opacity="0" fill-opacity="1"/>
                </g>
              </g>
              <g id="GRID.text.2065.1" class="text grob gDesc">
                <g id="GRID.text.2065.1.1" transform="translate(280.66, 230.67)" stroke-width="0.1">
                  <g id="GRID.text.2065.1.1.scale" transform="scale(1, -1)">
                    <text x="0" y="0" id="GRID.text.2065.1.1.text" text-anchor="middle" stroke="rgb(0,0,0)" font-size="11.04" font-family="Helvetica, Arial, FreeSans, Liberation Sans, Nimbus Sans L, sans-serif" fill="rgb(0,0,0)" stroke-opacity="1" fill-opacity="1" font-weight="normal" font-style="normal">
                      <tspan id="GRID.text.2065.1.1.tspan.1" dy="3.95" x="0">151</tspan>
                    </text>
                  </g>
                </g>
                <g id="GRID.text.2065.1.2" transform="translate(135.25, 206.86)" stroke-width="0.1">
                  <g id="GRID.text.2065.1.2.scale" transform="scale(1, -1)">
                    <text x="0" y="0" id="GRID.text.2065.1.2.text" text-anchor="middle" stroke="rgb(0,0,0)" font-size="11.04" font-family="Helvetica, Arial, FreeSans, Liberation Sans, Nimbus Sans L, sans-serif" fill="rgb(0,0,0)" stroke-opacity="1" fill-opacity="1" font-weight="normal" font-style="normal">
                      <tspan id="GRID.text.2065.1.2.tspan.1" dy="3.95" x="0">61</tspan>
                    </text>
                  </g>
                </g>
                <g id="GRID.text.2065.1.3" transform="translate(145.77, 297.15)" stroke-width="0.1">
                  <g id="GRID.text.2065.1.3.scale" transform="scale(1, -1)">
                    <text x="0" y="0" id="GRID.text.2065.1.3.text" text-anchor="middle" stroke="rgb(0,0,0)" font-size="11.04" font-family="Helvetica, Arial, FreeSans, Liberation Sans, Nimbus Sans L, sans-serif" fill="rgb(0,0,0)" stroke-opacity="1" fill-opacity="1" font-weight="normal" font-style="normal">
                      <tspan id="GRID.text.2065.1.3.tspan.1" dy="3.95" x="0">46</tspan>
                    </text>
                  </g>
                </g>
                <g id="GRID.text.2065.1.4" transform="translate(190.19, 321.66)" stroke-width="0.1">
                  <g id="GRID.text.2065.1.4.scale" transform="scale(1, -1)">
                    <text x="0" y="0" id="GRID.text.2065.1.4.text" text-anchor="middle" stroke="rgb(0,0,0)" font-size="11.04" font-family="Helvetica, Arial, FreeSans, Liberation Sans, Nimbus Sans L, sans-serif" fill="rgb(0,0,0)" stroke-opacity="1" fill-opacity="1" font-weight="normal" font-style="normal">
                      <tspan id="GRID.text.2065.1.4.tspan.1" dy="3.95" x="0">11</tspan>
                    </text>
                  </g>
                </g>
                <g id="GRID.text.2065.1.5" transform="translate(201.91, 322.82)" stroke-width="0.1">
                  <g id="GRID.text.2065.1.5.scale" transform="scale(1, -1)">
                    <text x="0" y="0" id="GRID.text.2065.1.5.text" text-anchor="middle" stroke="rgb(0,0,0)" font-size="11.04" font-family="Helvetica, Arial, FreeSans, Liberation Sans, Nimbus Sans L, sans-serif" fill="rgb(0,0,0)" stroke-opacity="1" fill-opacity="1" font-weight="normal" font-style="normal">
                      <tspan id="GRID.text.2065.1.5.tspan.1" dy="3.95" x="0">2</tspan>
                    </text>
                  </g>
                </g>
              </g>
              <g id="GRID.gTree.2066.1" class="gTree grob gDesc"/>
            </g>
          </g>
          <g id="layout::spacer.8-6-8-6.1" class="viewport"/>
          <g id="layout::spacer.8-4-8-4.1" class="viewport"/>
          <g id="layout::spacer.6-6-6-6.1" class="viewport"/>
          <g id="layout::spacer.6-4-6-4.1" class="viewport"/>
          <g id="layout::axis-t.6-5-6-5.1" class="viewport"/>
          <g id="layout::axis-l.7-4-7-4.1" class="viewport">
            <g id="layout::axis-l.7-4-7-4::GRID.VP.488.1" class="viewport">
              <g id="axis-l.7-4-7-4.1" class="forcedgrob gTableChild absoluteGrob gTree grob gDesc">
                <g id="layout::axis-l.7-4-7-4::GRID.VP.488::axis.1" class="viewport">
                  <g id="axis.1" class="forcedgrob gtable gTree grob gDesc">
                    <g id="layout::axis-l.7-4-7-4::GRID.VP.488::axis::axis.1-1-1-1.1" class="viewport"/>
                    <g id="layout::axis-l.7-4-7-4::GRID.VP.488::axis::axis.1-2-1-2.1" class="viewport"/>
                  </g>
                </g>
              </g>
            </g>
          </g>
          <g id="layout::axis-r.7-6-7-6.1" class="viewport"/>
          <g id="layout::axis-b.8-5-8-5.1" class="viewport">
            <g id="layout::axis-b.8-5-8-5::GRID.VP.487.1" class="viewport">
              <g id="axis-b.8-5-8-5.1" class="forcedgrob gTableChild absoluteGrob gTree grob gDesc">
                <g id="layout::axis-b.8-5-8-5::GRID.VP.487::axis.1" class="viewport">
                  <g id="axis.2" class="forcedgrob gtable gTree grob gDesc">
                    <g id="layout::axis-b.8-5-8-5::GRID.VP.487::axis::axis.1-1-1-1.1" class="viewport"/>
                    <g id="layout::axis-b.8-5-8-5::GRID.VP.487::axis::axis.2-1-2-1.1" class="viewport"/>
                  </g>
                </g>
              </g>
            </g>
          </g>
          <g id="layout::xlab-t.5-5-5-5.1" class="viewport"/>
          <g id="layout::xlab-b.9-5-9-5.1" class="viewport"/>
          <g id="layout::ylab-l.7-3-7-3.1" class="viewport"/>
          <g id="layout::ylab-r.7-7-7-7.1" class="viewport"/>
          <g id="layout::guide-box.7-9-7-9.1" class="viewport">
            <g id="layout::guide-box.7-9-7-9::GRID.VP.505.1" class="viewport">
              <g id="layout::guide-box.7-9-7-9::GRID.VP.505::guide-box.7-9-7-9.1" class="viewport">
                <g id="guide-box.7-9-7-9.1" class="forcedgrob gTableChild gtable gTree grob gDesc">
                  <g id="layout::guide-box.7-9-7-9::GRID.VP.505::guide-box.7-9-7-9::legend.box.background.2-4-4-2.1" class="viewport"/>
                  <g id="layout::guide-box.7-9-7-9::GRID.VP.505::guide-box.7-9-7-9::guides.3-3-3-3.1" class="viewport">
                    <g id="layout::guide-box.7-9-7-9::GRID.VP.505::guide-box.7-9-7-9::guides.3-3-3-3::GRID.VP.504.1" class="viewport">
                      <g id="layout::guide-box.7-9-7-9::GRID.VP.505::guide-box.7-9-7-9::guides.3-3-3-3::GRID.VP.504::guides.3-3-3-3.1" class="viewport">
                        <g id="guides.3-3-3-3.1" class="forcedgrob gTableChild gtable gTree grob gDesc">
                          <g id="layout::guide-box.7-9-7-9::GRID.VP.505::guide-box.7-9-7-9::guides.3-3-3-3::GRID.VP.504::guides.3-3-3-3::background.1-6-9-1.1" class="viewport">
                            <g id="background.1-6-9-1.1" class="forcedgrob gTableChild rect grob gDesc">
                              <rect id="background.1-6-9-1.1.1" x="410.18" y="193.22" width="88.34" height="102.84" transform="" stroke-width="1.07" stroke="none" fill="rgb(255,255,255)" stroke-dasharray="none" stroke-opacity="0" fill-opacity="1"/>
                            </g>
                          </g>
                          <g id="layout::guide-box.7-9-7-9::GRID.VP.505::guide-box.7-9-7-9::guides.3-3-3-3::GRID.VP.504::guides.3-3-3-3::title.2-5-2-2.1" class="viewport"/>
                          <g id="layout::guide-box.7-9-7-9::GRID.VP.505::guide-box.7-9-7-9::guides.3-3-3-3::GRID.VP.504::guides.3-3-3-3::key-3-1-bg.4-2-4-2.1" class="viewport"/>
                          <g id="layout::guide-box.7-9-7-9::GRID.VP.505::guide-box.7-9-7-9::guides.3-3-3-3::GRID.VP.504::guides.3-3-3-3::key-3-1-1.4-2-4-2.1" class="viewport">
                            <g id="key-3-1-1.4-2-4-2.1" class="forcedgrob gTableChild rect grob gDesc">
                              <rect id="key-3-1-1.4-2-4-2.1.1" x="416.37" y="268.53" width="15.86" height="15.86" transform="" stroke="none" fill="rgb(248,118,109)" stroke-dasharray="none" stroke-width="1.07" stroke-linejoin="miter" stroke-opacity="0" fill-opacity="1"/>
                            </g>
                          </g>
                          <g id="layout::guide-box.7-9-7-9::GRID.VP.505::guide-box.7-9-7-9::guides.3-3-3-3::GRID.VP.504::guides.3-3-3-3::key-4-1-bg.5-2-5-2.1" class="viewport"/>
                          <g id="layout::guide-box.7-9-7-9::GRID.VP.505::guide-box.7-9-7-9::guides.3-3-3-3::GRID.VP.504::guides.3-3-3-3::key-4-1-1.5-2-5-2.1" class="viewport">
                            <g id="key-4-1-1.5-2-5-2.1" class="forcedgrob gTableChild rect grob gDesc">
                              <rect id="key-4-1-1.5-2-5-2.1.1" x="416.37" y="251.25" width="15.86" height="15.86" transform="" stroke="none" fill="rgb(163,165,0)" stroke-dasharray="none" stroke-width="1.07" stroke-linejoin="miter" stroke-opacity="0" fill-opacity="1"/>
                            </g>
                          </g>
                          <g id="layout::guide-box.7-9-7-9::GRID.VP.505::guide-box.7-9-7-9::guides.3-3-3-3::GRID.VP.504::guides.3-3-3-3::key-5-1-bg.6-2-6-2.1" class="viewport"/>
                          <g id="layout::guide-box.7-9-7-9::GRID.VP.505::guide-box.7-9-7-9::guides.3-3-3-3::GRID.VP.504::guides.3-3-3-3::key-5-1-1.6-2-6-2.1" class="viewport">
                            <g id="key-5-1-1.6-2-6-2.1" class="forcedgrob gTableChild rect grob gDesc">
                              <rect id="key-5-1-1.6-2-6-2.1.1" x="416.37" y="233.97" width="15.86" height="15.86" transform="" stroke="none" fill="rgb(0,191,125)" stroke-dasharray="none" stroke-width="1.07" stroke-linejoin="miter" stroke-opacity="0" fill-opacity="1"/>
                            </g>
                          </g>
                          <g id="layout::guide-box.7-9-7-9::GRID.VP.505::guide-box.7-9-7-9::guides.3-3-3-3::GRID.VP.504::guides.3-3-3-3::key-6-1-bg.7-2-7-2.1" class="viewport"/>
                          <g id="layout::guide-box.7-9-7-9::GRID.VP.505::guide-box.7-9-7-9::guides.3-3-3-3::GRID.VP.504::guides.3-3-3-3::key-6-1-1.7-2-7-2.1" class="viewport">
                            <g id="key-6-1-1.7-2-7-2.1" class="forcedgrob gTableChild rect grob gDesc">
                              <rect id="key-6-1-1.7-2-7-2.1.1" x="416.37" y="216.69" width="15.86" height="15.86" transform="" stroke="none" fill="rgb(0,176,246)" stroke-dasharray="none" stroke-width="1.07" stroke-linejoin="miter" stroke-opacity="0" fill-opacity="1"/>
                            </g>
                          </g>
                          <g id="layout::guide-box.7-9-7-9::GRID.VP.505::guide-box.7-9-7-9::guides.3-3-3-3::GRID.VP.504::guides.3-3-3-3::key-7-1-bg.8-2-8-2.1" class="viewport"/>
                          <g id="layout::guide-box.7-9-7-9::GRID.VP.505::guide-box.7-9-7-9::guides.3-3-3-3::GRID.VP.504::guides.3-3-3-3::key-7-1-1.8-2-8-2.1" class="viewport">
                            <g id="key-7-1-1.8-2-8-2.1" class="forcedgrob gTableChild rect grob gDesc">
                              <rect id="key-7-1-1.8-2-8-2.1.1" x="416.37" y="199.41" width="15.86" height="15.86" transform="" stroke="none" fill="rgb(231,107,243)" stroke-dasharray="none" stroke-width="1.07" stroke-linejoin="miter" stroke-opacity="0" fill-opacity="1"/>
                            </g>
                          </g>
                          <g id="layout::guide-box.7-9-7-9::GRID.VP.505::guide-box.7-9-7-9::guides.3-3-3-3::GRID.VP.504::guides.3-3-3-3::label-3-3.4-4-4-4.1" class="viewport">
                            <g id="layout::guide-box.7-9-7-9::GRID.VP.505::guide-box.7-9-7-9::guides.3-3-3-3::GRID.VP.504::guides.3-3-3-3::label-3-3.4-4-4-4::GRID.VP.499.1" class="viewport">
                              <g id="label-3-3.4-4-4-4.1" class="forcedgrob gTableChild gTree grob gDesc">
                                <g id="layout::guide-box.7-9-7-9::GRID.VP.505::guide-box.7-9-7-9::guides.3-3-3-3::GRID.VP.504::guides.3-3-3-3::label-3-3.4-4-4-4::GRID.VP.499::GRID.VP.489.1" font-size="8.8" stroke="rgb(0,0,0)" font-family="Helvetica, Arial, FreeSans, Liberation Sans, Nimbus Sans L, sans-serif" stroke-opacity="1" font-weight="normal" font-style="normal" class="viewport">
                                  <g id="layout::guide-box.7-9-7-9::GRID.VP.505::guide-box.7-9-7-9::guides.3-3-3-3::GRID.VP.504::guides.3-3-3-3::label-3-3.4-4-4-4::GRID.VP.499::GRID.VP.489::GRID.VP.490.1" class="viewport">
                                    <g id="guide.label.titleGrob.2089.1" class="titleGrob gTree grob gDesc">
                                      <g id="GRID.text.2087.1" class="text grob gDesc">
                                        <g id="GRID.text.2087.1.1" transform="translate(438.42, 276.46)" stroke-width="0.1">
                                          <g id="GRID.text.2087.1.1.scale" transform="scale(1, -1)">
                                            <text x="0" y="0" id="GRID.text.2087.1.1.text" text-anchor="start" font-size="8.8" stroke="rgb(0,0,0)" font-family="Helvetica, Arial, FreeSans, Liberation Sans, Nimbus Sans L, sans-serif" fill="rgb(0,0,0)" stroke-opacity="1" fill-opacity="1" font-weight="normal" font-style="normal">
                                              <tspan id="GRID.text.2087.1.1.tspan.1" dy="3.23" x="0">nessuno (2)</tspan>
                                            </text>
                                          </g>
                                        </g>
                                      </g>
                                    </g>
                                  </g>
                                </g>
                              </g>
                            </g>
                          </g>
                          <g id="layout::guide-box.7-9-7-9::GRID.VP.505::guide-box.7-9-7-9::guides.3-3-3-3::GRID.VP.504::guides.3-3-3-3::label-4-3.5-4-5-4.1" class="viewport">
                            <g id="layout::guide-box.7-9-7-9::GRID.VP.505::guide-box.7-9-7-9::guides.3-3-3-3::GRID.VP.504::guides.3-3-3-3::label-4-3.5-4-5-4::GRID.VP.500.1" class="viewport">
                              <g id="label-4-3.5-4-5-4.1" class="forcedgrob gTableChild gTree grob gDesc">
                                <g id="layout::guide-box.7-9-7-9::GRID.VP.505::guide-box.7-9-7-9::guides.3-3-3-3::GRID.VP.504::guides.3-3-3-3::label-4-3.5-4-5-4::GRID.VP.500::GRID.VP.491.1" font-size="8.8" stroke="rgb(0,0,0)" font-family="Helvetica, Arial, FreeSans, Liberation Sans, Nimbus Sans L, sans-serif" stroke-opacity="1" font-weight="normal" font-style="normal" class="viewport">
                                  <g id="layout::guide-box.7-9-7-9::GRID.VP.505::guide-box.7-9-7-9::guides.3-3-3-3::GRID.VP.504::guides.3-3-3-3::label-4-3.5-4-5-4::GRID.VP.500::GRID.VP.491::GRID.VP.492.1" class="viewport">
                                    <g id="guide.label.titleGrob.2092.1" class="titleGrob gTree grob gDesc">
                                      <g id="GRID.text.2090.1" class="text grob gDesc">
                                        <g id="GRID.text.2090.1.1" transform="translate(438.42, 259.18)" stroke-width="0.1">
                                          <g id="GRID.text.2090.1.1.scale" transform="scale(1, -1)">
                                            <text x="0" y="0" id="GRID.text.2090.1.1.text" text-anchor="start" font-size="8.8" stroke="rgb(0,0,0)" font-family="Helvetica, Arial, FreeSans, Liberation Sans, Nimbus Sans L, sans-serif" fill="rgb(0,0,0)" stroke-opacity="1" fill-opacity="1" font-weight="normal" font-style="normal">
                                              <tspan id="GRID.text.2090.1.1.tspan.1" dy="3.23" x="0">tutto (11)</tspan>
                                            </text>
                                          </g>
                                        </g>
                                      </g>
                                    </g>
                                  </g>
                                </g>
                              </g>
                            </g>
                          </g>
                          <g id="layout::guide-box.7-9-7-9::GRID.VP.505::guide-box.7-9-7-9::guides.3-3-3-3::GRID.VP.504::guides.3-3-3-3::label-5-3.6-4-6-4.1" class="viewport">
                            <g id="layout::guide-box.7-9-7-9::GRID.VP.505::guide-box.7-9-7-9::guides.3-3-3-3::GRID.VP.504::guides.3-3-3-3::label-5-3.6-4-6-4::GRID.VP.501.1" class="viewport">
                              <g id="label-5-3.6-4-6-4.1" class="forcedgrob gTableChild gTree grob gDesc">
                                <g id="layout::guide-box.7-9-7-9::GRID.VP.505::guide-box.7-9-7-9::guides.3-3-3-3::GRID.VP.504::guides.3-3-3-3::label-5-3.6-4-6-4::GRID.VP.501::GRID.VP.493.1" font-size="8.8" stroke="rgb(0,0,0)" font-family="Helvetica, Arial, FreeSans, Liberation Sans, Nimbus Sans L, sans-serif" stroke-opacity="1" font-weight="normal" font-style="normal" class="viewport">
                                  <g id="layout::guide-box.7-9-7-9::GRID.VP.505::guide-box.7-9-7-9::guides.3-3-3-3::GRID.VP.504::guides.3-3-3-3::label-5-3.6-4-6-4::GRID.VP.501::GRID.VP.493::GRID.VP.494.1" class="viewport">
                                    <g id="guide.label.titleGrob.2095.1" class="titleGrob gTree grob gDesc">
                                      <g id="GRID.text.2093.1" class="text grob gDesc">
                                        <g id="GRID.text.2093.1.1" transform="translate(438.42, 241.9)" stroke-width="0.1">
                                          <g id="GRID.text.2093.1.1.scale" transform="scale(1, -1)">
                                            <text x="0" y="0" id="GRID.text.2093.1.1.text" text-anchor="start" font-size="8.8" stroke="rgb(0,0,0)" font-family="Helvetica, Arial, FreeSans, Liberation Sans, Nimbus Sans L, sans-serif" fill="rgb(0,0,0)" stroke-opacity="1" fill-opacity="1" font-weight="normal" font-style="normal">
                                              <tspan id="GRID.text.2093.1.1.tspan.1" dy="3.23" x="0">base (46)</tspan>
                                            </text>
                                          </g>
                                        </g>
                                      </g>
                                    </g>
                                  </g>
                                </g>
                              </g>
                            </g>
                          </g>
                          <g id="layout::guide-box.7-9-7-9::GRID.VP.505::guide-box.7-9-7-9::guides.3-3-3-3::GRID.VP.504::guides.3-3-3-3::label-6-3.7-4-7-4.1" class="viewport">
                            <g id="layout::guide-box.7-9-7-9::GRID.VP.505::guide-box.7-9-7-9::guides.3-3-3-3::GRID.VP.504::guides.3-3-3-3::label-6-3.7-4-7-4::GRID.VP.502.1" class="viewport">
                              <g id="label-6-3.7-4-7-4.1" class="forcedgrob gTableChild gTree grob gDesc">
                                <g id="layout::guide-box.7-9-7-9::GRID.VP.505::guide-box.7-9-7-9::guides.3-3-3-3::GRID.VP.504::guides.3-3-3-3::label-6-3.7-4-7-4::GRID.VP.502::GRID.VP.495.1" font-size="8.8" stroke="rgb(0,0,0)" font-family="Helvetica, Arial, FreeSans, Liberation Sans, Nimbus Sans L, sans-serif" stroke-opacity="1" font-weight="normal" font-style="normal" class="viewport">
                                  <g id="layout::guide-box.7-9-7-9::GRID.VP.505::guide-box.7-9-7-9::guides.3-3-3-3::GRID.VP.504::guides.3-3-3-3::label-6-3.7-4-7-4::GRID.VP.502::GRID.VP.495::GRID.VP.496.1" class="viewport">
                                    <g id="guide.label.titleGrob.2098.1" class="titleGrob gTree grob gDesc">
                                      <g id="GRID.text.2096.1" class="text grob gDesc">
                                        <g id="GRID.text.2096.1.1" transform="translate(438.42, 224.62)" stroke-width="0.1">
                                          <g id="GRID.text.2096.1.1.scale" transform="scale(1, -1)">
                                            <text x="0" y="0" id="GRID.text.2096.1.1.text" text-anchor="start" font-size="8.8" stroke="rgb(0,0,0)" font-family="Helvetica, Arial, FreeSans, Liberation Sans, Nimbus Sans L, sans-serif" fill="rgb(0,0,0)" stroke-opacity="1" fill-opacity="1" font-weight="normal" font-style="normal">
                                              <tspan id="GRID.text.2096.1.1.tspan.1" dy="3.23" x="0">avanzato (61)</tspan>
                                            </text>
                                          </g>
                                        </g>
                                      </g>
                                    </g>
                                  </g>
                                </g>
                              </g>
                            </g>
                          </g>
                          <g id="layout::guide-box.7-9-7-9::GRID.VP.505::guide-box.7-9-7-9::guides.3-3-3-3::GRID.VP.504::guides.3-3-3-3::label-7-3.8-4-8-4.1" class="viewport">
                            <g id="layout::guide-box.7-9-7-9::GRID.VP.505::guide-box.7-9-7-9::guides.3-3-3-3::GRID.VP.504::guides.3-3-3-3::label-7-3.8-4-8-4::GRID.VP.503.1" class="viewport">
                              <g id="label-7-3.8-4-8-4.1" class="forcedgrob gTableChild gTree grob gDesc">
                                <g id="layout::guide-box.7-9-7-9::GRID.VP.505::guide-box.7-9-7-9::guides.3-3-3-3::GRID.VP.504::guides.3-3-3-3::label-7-3.8-4-8-4::GRID.VP.503::GRID.VP.497.1" font-size="8.8" stroke="rgb(0,0,0)" font-family="Helvetica, Arial, FreeSans, Liberation Sans, Nimbus Sans L, sans-serif" stroke-opacity="1" font-weight="normal" font-style="normal" class="viewport">
                                  <g id="layout::guide-box.7-9-7-9::GRID.VP.505::guide-box.7-9-7-9::guides.3-3-3-3::GRID.VP.504::guides.3-3-3-3::label-7-3.8-4-8-4::GRID.VP.503::GRID.VP.497::GRID.VP.498.1" class="viewport">
                                    <g id="guide.label.titleGrob.2101.1" class="titleGrob gTree grob gDesc">
                                      <g id="GRID.text.2099.1" class="text grob gDesc">
                                        <g id="GRID.text.2099.1.1" transform="translate(438.42, 207.34)" stroke-width="0.1">
                                          <g id="GRID.text.2099.1.1.scale" transform="scale(1, -1)">
                                            <text x="0" y="0" id="GRID.text.2099.1.1.text" text-anchor="start" font-size="8.8" stroke="rgb(0,0,0)" font-family="Helvetica, Arial, FreeSans, Liberation Sans, Nimbus Sans L, sans-serif" fill="rgb(0,0,0)" stroke-opacity="1" fill-opacity="1" font-weight="normal" font-style="normal">
                                              <tspan id="GRID.text.2099.1.1.tspan.1" dy="3.23" x="0">medio (151)</tspan>
                                            </text>
                                          </g>
                                        </g>
                                      </g>
                                    </g>
                                  </g>
                                </g>
                              </g>
                            </g>
                          </g>
                        </g>
                      </g>
                    </g>
                  </g>
                </g>
              </g>
            </g>
          </g>
          <g id="layout::subtitle.4-5-4-5.1" class="viewport"/>
          <g id="layout::title.3-5-3-5.1" class="viewport">
            <g id="layout::title.3-5-3-5::GRID.VP.506.1" font-size="13.2" stroke="rgb(102,102,102)" font-family="Helvetica, Arial, FreeSans, Liberation Sans, Nimbus Sans L, sans-serif" stroke-opacity="1" font-weight="normal" font-style="normal" class="viewport">
              <g id="layout::title.3-5-3-5::GRID.VP.506::GRID.VP.507.1" class="viewport">
                <g id="title.3-5-3-5.1" class="forcedgrob gTableChild titleGrob gTree grob gDesc">
                  <g id="GRID.text.2119.1" class="text grob gDesc">
                    <g id="GRID.text.2119.1.1" transform="translate(203.72, 457.6)" stroke-width="0.1">
                      <g id="GRID.text.2119.1.1.scale" transform="scale(1, -1)">
                        <text x="0" y="0" id="GRID.text.2119.1.1.text" text-anchor="middle" font-size="13.2" stroke="rgb(102,102,102)" font-family="Helvetica, Arial, FreeSans, Liberation Sans, Nimbus Sans L, sans-serif" fill="rgb(102,102,102)" stroke-opacity="1" fill-opacity="1" font-weight="normal" font-style="normal">
                          <tspan id="GRID.text.2119.1.1.tspan.1" dy="9.33" x="0">anagrafica elaborazioneinformazioni</tspan>
                        </text>
                      </g>
                    </g>
                  </g>
                </g>
              </g>
            </g>
          </g>
          <g id="layout::caption.10-5-10-5.1" class="viewport"/>
          <g id="layout::tag.2-2-2-2.1" class="viewport"/>
        </g>
      </g>
    </g>
  </g>
</svg>