<?xml version="1.0" encoding="UTF-8"?>
<svg xmlns="http://www.w3.org/2000/svg" xmlns:xlink="http://www.w3.org/1999/xlink" width="504px" height="504px" viewBox="0 0 504 504" version="1.1">
  <metadata xmlns:gridsvg="http://www.stat.auckland.ac.nz/~paul/R/gridSVG/">
    <gridsvg:generator name="gridSVG" version="1.6-0" time="2019-01-07 19:38:50"/>
    <gridsvg:argument name="name" value="./latest_informaggio_csv/risultati/svg/anagrafica-totali-computerpersonale.svg"/>
    <gridsvg:argument name="exportCoords" value="none"/>
    <gridsvg:argument name="exportMappings" value="none"/>
    <gridsvg:argument name="exportJS" value="none"/>
    <gridsvg:argument name="res" value="72"/>
    <gridsvg:argument name="prefix" value=""/>
    <gridsvg:argument name="addClasses" value="TRUE"/>
    <gridsvg:argument name="indent" value="TRUE"/>
    <gridsvg:argument name="htmlWrapper" value="FALSE"/>
    <gridsvg:argument name="usePaths" value="vpPaths"/>
    <gridsvg:argument name="uniqueNames" value="TRUE"/>
    <gridsvg:separator name="id.sep" value="."/>
    <gridsvg:separator name="gPath.sep" value="::"/>
    <gridsvg:separator name="vpPath.sep" value="::"/>
  </metadata>
  <g transform="translate(0, 504) scale(1, -1)">
    <g id="gridSVG" fill="none" stroke="rgb(0,0,0)" stroke-dasharray="none" stroke-width="0.75" font-size="12" font-family="Helvetica, Arial, FreeSans, Liberation Sans, Nimbus Sans L, sans-serif" opacity="1" stroke-linecap="round" stroke-linejoin="round" stroke-miterlimit="10" stroke-opacity="1" fill-opacity="0" font-weight="normal" font-style="normal">
      <g id="layout.1" class="viewport">
        <g id="layout.2" class="forcedgrob gtable gTree grob gDesc">
          <defs>
            <clipPath id="layout::background.1-11-12-1.1.clipPath">
              <rect x="0" y="16.86" width="504" height="470.28" fill="none" stroke="none"/>
            </clipPath>
          </defs>
          <g id="layout::background.1-11-12-1.1" clip-path="url(#layout::background.1-11-12-1.1.clipPath)" class="viewport">
            <g id="background.1-11-12-1.1" class="forcedgrob gTableChild rect grob gDesc">
              <rect id="background.1-11-12-1.1.1" x="0" y="16.86" width="504" height="470.28" transform="" stroke-width="1.07" stroke="rgb(255,255,255)" fill="rgb(255,255,255)" stroke-dasharray="none" stroke-opacity="1" fill-opacity="1"/>
            </g>
          </g>
          <defs>
            <clipPath id="layout::panel.7-5-7-5.1.clipPath">
              <rect x="8.22" y="25.08" width="439.13" height="439.13" fill="none" stroke="none"/>
            </clipPath>
          </defs>
          <g id="layout::panel.7-5-7-5.1" clip-path="url(#layout::panel.7-5-7-5.1.clipPath)" class="viewport">
            <g id="panel.7-5-7-5.1" class="forcedgrob gTableChild gTree grob gDesc">
              <g id="grill.gTree.1480.1" class="gTree grob gDesc">
                <g id="panel.background..rect.1476.1" class="rect grob gDesc">
                  <rect id="panel.background..rect.1476.1.1" x="8.22" y="25.08" width="439.13" height="439.13" transform="" stroke-width="1.07" stroke="none" fill="rgb(255,255,255)" stroke-dasharray="none" stroke-opacity="0" fill-opacity="1"/>
                </g>
              </g>
              <g id="bar.gTree.1469.1" class="gTree grob gDesc">
                <g id="geom_polygon.polygon.1465.1" class="polygon grob gDesc">
                  <polygon id="geom_polygon.polygon.1465.1.1" points="227.78,244.64 226.34,250.53 224.9,256.41 223.47,262.29 222.03,268.18 220.59,274.06 219.15,279.94 217.71,285.83 216.27,291.71 214.83,297.6 213.4,303.48 211.96,309.36 210.52,315.25 209.08,321.13 207.64,327.01 206.2,332.9 204.76,338.78 203.32,344.66 201.89,350.55 200.45,356.43 199.01,362.31 197.57,368.2 196.13,374.08 194.69,379.97 193.25,385.85 191.82,391.73 190.38,397.62 188.94,403.5 187.5,409.38 186.06,415.27 180.29,413.75 174.58,412.04 168.93,410.14 163.34,408.05 157.83,405.77 152.41,403.3 147.06,400.65 141.81,397.82 136.66,394.81 131.62,391.63 126.69,388.28 121.87,384.77 117.17,381.09 112.6,377.26 108.17,373.27 103.87,369.14 99.72,364.86 95.71,360.44 91.86,355.89 88.16,351.22 84.62,346.42 81.25,341.5 78.04,336.47 75.01,331.33 72.16,326.1 69.48,320.77 66.99,315.35 64.68,309.85 62.56,304.28 60.64,298.63 58.9,292.93 57.36,287.17 56.01,281.36 54.86,275.51 53.92,269.62 53.17,263.7 52.62,257.77 52.28,251.81 52.14,245.85 52.2,239.89 52.46,233.93 52.92,227.98 53.59,222.06 54.46,216.16 55.52,210.29 56.79,204.46 58.25,198.68 59.91,192.95 61.76,187.29 63.8,181.68 66.03,176.15 68.45,170.7 71.05,165.34 73.84,160.06 76.8,154.88 79.93,149.81 83.24,144.85 86.71,140 90.34,135.27 94.13,130.67 98.08,126.2 102.17,121.86 106.41,117.67 110.79,113.62 115.31,109.73 119.95,105.99 124.72,102.41 129.61,98.99 134.61,95.74 139.72,92.66 144.93,89.76 150.23,87.04 155.63,84.5 161.11,82.14 166.66,79.97 172.28,77.99 177.97,76.2 183.72,74.61 189.52,73.21 195.36,72.01 201.24,71.01 207.15,70.21 213.08,69.61 219.03,69.21 224.99,69.01 230.95,69.02 236.91,69.23 242.86,69.64 248.79,70.25 254.7,71.07 260.58,72.08 266.42,73.29 272.21,74.7 277.95,76.31 283.64,78.11 289.26,80.1 294.81,82.28 300.28,84.65 305.67,87.21 310.97,89.94 316.17,92.85 321.28,95.94 326.27,99.2 331.15,102.63 335.91,106.22 340.55,109.97 345.05,113.87 349.42,117.93 353.66,122.13 357.74,126.48 361.68,130.96 365.46,135.57 369.08,140.3 372.54,145.16 375.84,150.13 378.96,155.21 381.91,160.39 384.68,165.67 387.27,171.05 389.68,176.5 391.9,182.04 393.93,187.64 395.77,193.32 397.41,199.05 398.86,204.83 400.11,210.66 401.17,216.53 402.02,222.43 402.68,228.36 403.13,234.31 403.38,240.27 403.43,246.23 403.27,252.19 402.91,258.14 402.35,264.08 401.59,269.99 400.63,275.88 399.47,281.73 398.12,287.54 396.56,293.29 394.81,298.99 392.87,304.63 390.74,310.2 388.42,315.7 385.92,321.11 383.23,326.43 380.36,331.66 377.32,336.79 374.11,341.81 370.72,346.72 367.18,351.52 363.47,356.19 359.6,360.73 355.59,365.14 351.42,369.41 347.12,373.53 342.67,377.51 338.1,381.33 333.39,385 328.57,388.5 323.63,391.84 318.58,395.01 313.42,398 308.16,400.82 302.82,403.46 297.38,405.92 291.87,408.19 286.28,410.27 280.62,412.16 274.91,413.85 269.14,415.36 263.32,416.66 257.46,417.77 251.56,418.68 245.64,419.38 239.7,419.89 233.74,420.19 227.78,420.29 227.78,414.24 227.78,408.18 227.78,402.12 227.78,396.07 227.78,390.01 227.78,383.95 227.78,377.9 227.78,371.84 227.78,365.78 227.78,359.72 227.78,353.67 227.78,347.61 227.78,341.55 227.78,335.5 227.78,329.44 227.78,323.38 227.78,317.33 227.78,311.27 227.78,305.21 227.78,299.16 227.78,293.1 227.78,287.04 227.78,280.98 227.78,274.93 227.78,268.87 227.78,262.81 227.78,256.76 227.78,250.7 227.78,244.64 227.78,244.64" stroke="none" fill="rgb(0,191,196)" stroke-width="1.07" stroke-dasharray="none" stroke-opacity="0" fill-opacity="1"/>
                </g>
                <g id="geom_polygon.polygon.1467.1" class="polygon grob gDesc">
                  <polygon id="geom_polygon.polygon.1467.1.1" points="227.78,244.64 227.78,250.7 227.78,256.76 227.78,262.81 227.78,268.87 227.78,274.93 227.78,280.98 227.78,287.04 227.78,293.1 227.78,299.16 227.78,305.21 227.78,311.27 227.78,317.33 227.78,323.38 227.78,329.44 227.78,335.5 227.78,341.55 227.78,347.61 227.78,353.67 227.78,359.72 227.78,365.78 227.78,371.84 227.78,377.9 227.78,383.95 227.78,390.01 227.78,396.07 227.78,402.12 227.78,408.18 227.78,414.24 227.78,420.29 221.77,420.19 215.76,419.88 209.76,419.37 203.79,418.65 197.84,417.72 191.93,416.6 186.06,415.27 187.5,409.38 188.94,403.5 190.38,397.62 191.82,391.73 193.25,385.85 194.69,379.97 196.13,374.08 197.57,368.2 199.01,362.31 200.45,356.43 201.89,350.55 203.32,344.66 204.76,338.78 206.2,332.9 207.64,327.01 209.08,321.13 210.52,315.25 211.96,309.36 213.4,303.48 214.83,297.6 216.27,291.71 217.71,285.83 219.15,279.94 220.59,274.06 222.03,268.18 223.47,262.29 224.9,256.41 226.34,250.53 227.78,244.64 227.78,244.64" stroke="none" fill="rgb(248,118,109)" stroke-width="1.07" stroke-dasharray="none" stroke-opacity="0" fill-opacity="1"/>
                </g>
              </g>
              <g id="GRID.text.1470.1" class="text grob gDesc">
                <g id="GRID.text.1470.1.1" transform="translate(238.29, 157.45)" stroke-width="0.1">
                  <g id="GRID.text.1470.1.1.scale" transform="scale(1, -1)">
                    <text x="0" y="0" id="GRID.text.1470.1.1.text" text-anchor="middle" stroke="rgb(0,0,0)" font-size="11.04" font-family="Helvetica, Arial, FreeSans, Liberation Sans, Nimbus Sans L, sans-serif" fill="rgb(0,0,0)" stroke-opacity="1" fill-opacity="1" font-weight="normal" font-style="normal">
                      <tspan id="GRID.text.1470.1.1.tspan.1" dy="3.95" x="0">252</tspan>
                    </text>
                  </g>
                </g>
                <g id="GRID.text.1470.1.2" transform="translate(217.28, 331.84)" stroke-width="0.1">
                  <g id="GRID.text.1470.1.2.scale" transform="scale(1, -1)">
                    <text x="0" y="0" id="GRID.text.1470.1.2.text" text-anchor="middle" stroke="rgb(0,0,0)" font-size="11.04" font-family="Helvetica, Arial, FreeSans, Liberation Sans, Nimbus Sans L, sans-serif" fill="rgb(0,0,0)" stroke-opacity="1" fill-opacity="1" font-weight="normal" font-style="normal">
                      <tspan id="GRID.text.1470.1.2.tspan.1" dy="3.95" x="0">10</tspan>
                    </text>
                  </g>
                </g>
              </g>
              <g id="GRID.gTree.1471.1" class="gTree grob gDesc"/>
            </g>
          </g>
          <g id="layout::spacer.8-6-8-6.1" class="viewport"/>
          <g id="layout::spacer.8-4-8-4.1" class="viewport"/>
          <g id="layout::spacer.6-6-6-6.1" class="viewport"/>
          <g id="layout::spacer.6-4-6-4.1" class="viewport"/>
          <g id="layout::axis-t.6-5-6-5.1" class="viewport"/>
          <g id="layout::axis-l.7-4-7-4.1" class="viewport">
            <g id="layout::axis-l.7-4-7-4::GRID.VP.356.1" class="viewport">
              <g id="axis-l.7-4-7-4.1" class="forcedgrob gTableChild absoluteGrob gTree grob gDesc">
                <g id="layout::axis-l.7-4-7-4::GRID.VP.356::axis.1" class="viewport">
                  <g id="axis.1" class="forcedgrob gtable gTree grob gDesc">
                    <g id="layout::axis-l.7-4-7-4::GRID.VP.356::axis::axis.1-1-1-1.1" class="viewport"/>
                    <g id="layout::axis-l.7-4-7-4::GRID.VP.356::axis::axis.1-2-1-2.1" class="viewport"/>
                  </g>
                </g>
              </g>
            </g>
          </g>
          <g id="layout::axis-r.7-6-7-6.1" class="viewport"/>
          <g id="layout::axis-b.8-5-8-5.1" class="viewport">
            <g id="layout::axis-b.8-5-8-5::GRID.VP.355.1" class="viewport">
              <g id="axis-b.8-5-8-5.1" class="forcedgrob gTableChild absoluteGrob gTree grob gDesc">
                <g id="layout::axis-b.8-5-8-5::GRID.VP.355::axis.1" class="viewport">
                  <g id="axis.2" class="forcedgrob gtable gTree grob gDesc">
                    <g id="layout::axis-b.8-5-8-5::GRID.VP.355::axis::axis.1-1-1-1.1" class="viewport"/>
                    <g id="layout::axis-b.8-5-8-5::GRID.VP.355::axis::axis.2-1-2-1.1" class="viewport"/>
                  </g>
                </g>
              </g>
            </g>
          </g>
          <g id="layout::xlab-t.5-5-5-5.1" class="viewport"/>
          <g id="layout::xlab-b.9-5-9-5.1" class="viewport"/>
          <g id="layout::ylab-l.7-3-7-3.1" class="viewport"/>
          <g id="layout::ylab-r.7-7-7-7.1" class="viewport"/>
          <g id="layout::guide-box.7-9-7-9.1" class="viewport">
            <g id="layout::guide-box.7-9-7-9::GRID.VP.364.1" class="viewport">
              <g id="layout::guide-box.7-9-7-9::GRID.VP.364::guide-box.7-9-7-9.1" class="viewport">
                <g id="guide-box.7-9-7-9.1" class="forcedgrob gTableChild gtable gTree grob gDesc">
                  <g id="layout::guide-box.7-9-7-9::GRID.VP.364::guide-box.7-9-7-9::legend.box.background.2-4-4-2.1" class="viewport"/>
                  <g id="layout::guide-box.7-9-7-9::GRID.VP.364::guide-box.7-9-7-9::guides.3-3-3-3.1" class="viewport">
                    <g id="layout::guide-box.7-9-7-9::GRID.VP.364::guide-box.7-9-7-9::guides.3-3-3-3::GRID.VP.363.1" class="viewport">
                      <g id="layout::guide-box.7-9-7-9::GRID.VP.364::guide-box.7-9-7-9::guides.3-3-3-3::GRID.VP.363::guides.3-3-3-3.1" class="viewport">
                        <g id="guides.3-3-3-3.1" class="forcedgrob gTableChild gtable gTree grob gDesc">
                          <g id="layout::guide-box.7-9-7-9::GRID.VP.364::guide-box.7-9-7-9::guides.3-3-3-3::GRID.VP.363::guides.3-3-3-3::background.1-6-6-1.1" class="viewport">
                            <g id="background.1-6-6-1.1" class="forcedgrob gTableChild rect grob gDesc">
                              <rect id="background.1-6-6-1.1.1" x="458.3" y="219.14" width="40.22" height="51" transform="" stroke-width="1.07" stroke="none" fill="rgb(255,255,255)" stroke-dasharray="none" stroke-opacity="0" fill-opacity="1"/>
                            </g>
                          </g>
                          <g id="layout::guide-box.7-9-7-9::GRID.VP.364::guide-box.7-9-7-9::guides.3-3-3-3::GRID.VP.363::guides.3-3-3-3::title.2-5-2-2.1" class="viewport"/>
                          <g id="layout::guide-box.7-9-7-9::GRID.VP.364::guide-box.7-9-7-9::guides.3-3-3-3::GRID.VP.363::guides.3-3-3-3::key-3-1-bg.4-2-4-2.1" class="viewport"/>
                          <g id="layout::guide-box.7-9-7-9::GRID.VP.364::guide-box.7-9-7-9::guides.3-3-3-3::GRID.VP.363::guides.3-3-3-3::key-3-1-1.4-2-4-2.1" class="viewport">
                            <g id="key-3-1-1.4-2-4-2.1" class="forcedgrob gTableChild rect grob gDesc">
                              <rect id="key-3-1-1.4-2-4-2.1.1" x="464.49" y="242.61" width="15.86" height="15.86" transform="" stroke="none" fill="rgb(248,118,109)" stroke-dasharray="none" stroke-width="1.07" stroke-linejoin="miter" stroke-opacity="0" fill-opacity="1"/>
                            </g>
                          </g>
                          <g id="layout::guide-box.7-9-7-9::GRID.VP.364::guide-box.7-9-7-9::guides.3-3-3-3::GRID.VP.363::guides.3-3-3-3::key-4-1-bg.5-2-5-2.1" class="viewport"/>
                          <g id="layout::guide-box.7-9-7-9::GRID.VP.364::guide-box.7-9-7-9::guides.3-3-3-3::GRID.VP.363::guides.3-3-3-3::key-4-1-1.5-2-5-2.1" class="viewport">
                            <g id="key-4-1-1.5-2-5-2.1" class="forcedgrob gTableChild rect grob gDesc">
                              <rect id="key-4-1-1.5-2-5-2.1.1" x="464.49" y="225.33" width="15.86" height="15.86" transform="" stroke="none" fill="rgb(0,191,196)" stroke-dasharray="none" stroke-width="1.07" stroke-linejoin="miter" stroke-opacity="0" fill-opacity="1"/>
                            </g>
                          </g>
                          <g id="layout::guide-box.7-9-7-9::GRID.VP.364::guide-box.7-9-7-9::guides.3-3-3-3::GRID.VP.363::guides.3-3-3-3::label-3-3.4-4-4-4.1" class="viewport">
                            <g id="layout::guide-box.7-9-7-9::GRID.VP.364::guide-box.7-9-7-9::guides.3-3-3-3::GRID.VP.363::guides.3-3-3-3::label-3-3.4-4-4-4::GRID.VP.361.1" class="viewport">
                              <g id="label-3-3.4-4-4-4.1" class="forcedgrob gTableChild gTree grob gDesc">
                                <g id="layout::guide-box.7-9-7-9::GRID.VP.364::guide-box.7-9-7-9::guides.3-3-3-3::GRID.VP.363::guides.3-3-3-3::label-3-3.4-4-4-4::GRID.VP.361::GRID.VP.357.1" font-size="8.8" stroke="rgb(0,0,0)" font-family="Helvetica, Arial, FreeSans, Liberation Sans, Nimbus Sans L, sans-serif" stroke-opacity="1" font-weight="normal" font-style="normal" class="viewport">
                                  <g id="layout::guide-box.7-9-7-9::GRID.VP.364::guide-box.7-9-7-9::guides.3-3-3-3::GRID.VP.363::guides.3-3-3-3::label-3-3.4-4-4-4::GRID.VP.361::GRID.VP.357::GRID.VP.358.1" class="viewport">
                                    <g id="guide.label.titleGrob.1494.1" class="titleGrob gTree grob gDesc">
                                      <g id="GRID.text.1492.1" class="text grob gDesc">
                                        <g id="GRID.text.1492.1.1" transform="translate(486.54, 250.54)" stroke-width="0.1">
                                          <g id="GRID.text.1492.1.1.scale" transform="scale(1, -1)">
                                            <text x="0" y="0" id="GRID.text.1492.1.1.text" text-anchor="start" font-size="8.8" stroke="rgb(0,0,0)" font-family="Helvetica, Arial, FreeSans, Liberation Sans, Nimbus Sans L, sans-serif" fill="rgb(0,0,0)" stroke-opacity="1" fill-opacity="1" font-weight="normal" font-style="normal">
                                              <tspan id="GRID.text.1492.1.1.tspan.1" dy="3.23" x="0">N</tspan>
                                            </text>
                                          </g>
                                        </g>
                                      </g>
                                    </g>
                                  </g>
                                </g>
                              </g>
                            </g>
                          </g>
                          <g id="layout::guide-box.7-9-7-9::GRID.VP.364::guide-box.7-9-7-9::guides.3-3-3-3::GRID.VP.363::guides.3-3-3-3::label-4-3.5-4-5-4.1" class="viewport">
                            <g id="layout::guide-box.7-9-7-9::GRID.VP.364::guide-box.7-9-7-9::guides.3-3-3-3::GRID.VP.363::guides.3-3-3-3::label-4-3.5-4-5-4::GRID.VP.362.1" class="viewport">
                              <g id="label-4-3.5-4-5-4.1" class="forcedgrob gTableChild gTree grob gDesc">
                                <g id="layout::guide-box.7-9-7-9::GRID.VP.364::guide-box.7-9-7-9::guides.3-3-3-3::GRID.VP.363::guides.3-3-3-3::label-4-3.5-4-5-4::GRID.VP.362::GRID.VP.359.1" font-size="8.8" stroke="rgb(0,0,0)" font-family="Helvetica, Arial, FreeSans, Liberation Sans, Nimbus Sans L, sans-serif" stroke-opacity="1" font-weight="normal" font-style="normal" class="viewport">
                                  <g id="layout::guide-box.7-9-7-9::GRID.VP.364::guide-box.7-9-7-9::guides.3-3-3-3::GRID.VP.363::guides.3-3-3-3::label-4-3.5-4-5-4::GRID.VP.362::GRID.VP.359::GRID.VP.360.1" class="viewport">
                                    <g id="guide.label.titleGrob.1497.1" class="titleGrob gTree grob gDesc">
                                      <g id="GRID.text.1495.1" class="text grob gDesc">
                                        <g id="GRID.text.1495.1.1" transform="translate(486.54, 233.26)" stroke-width="0.1">
                                          <g id="GRID.text.1495.1.1.scale" transform="scale(1, -1)">
                                            <text x="0" y="0" id="GRID.text.1495.1.1.text" text-anchor="start" font-size="8.8" stroke="rgb(0,0,0)" font-family="Helvetica, Arial, FreeSans, Liberation Sans, Nimbus Sans L, sans-serif" fill="rgb(0,0,0)" stroke-opacity="1" fill-opacity="1" font-weight="normal" font-style="normal">
                                              <tspan id="GRID.text.1495.1.1.tspan.1" dy="3.23" x="0">S</tspan>
                                            </text>
                                          </g>
                                        </g>
                                      </g>
                                    </g>
                                  </g>
                                </g>
                              </g>
                            </g>
                          </g>
                        </g>
                      </g>
                    </g>
                  </g>
                </g>
              </g>
            </g>
          </g>
          <g id="layout::subtitle.4-5-4-5.1" class="viewport"/>
          <g id="layout::title.3-5-3-5.1" class="viewport">
            <g id="layout::title.3-5-3-5::GRID.VP.365.1" font-size="13.2" stroke="rgb(102,102,102)" font-family="Helvetica, Arial, FreeSans, Liberation Sans, Nimbus Sans L, sans-serif" stroke-opacity="1" font-weight="normal" font-style="normal" class="viewport">
              <g id="layout::title.3-5-3-5::GRID.VP.365::GRID.VP.366.1" class="viewport">
                <g id="title.3-5-3-5.1" class="forcedgrob gTableChild titleGrob gTree grob gDesc">
                  <g id="GRID.text.1506.1" class="text grob gDesc">
                    <g id="GRID.text.1506.1.1" transform="translate(227.78, 481.66)" stroke-width="0.1">
                      <g id="GRID.text.1506.1.1.scale" transform="scale(1, -1)">
                        <text x="0" y="0" id="GRID.text.1506.1.1.text" text-anchor="middle" font-size="13.2" stroke="rgb(102,102,102)" font-family="Helvetica, Arial, FreeSans, Liberation Sans, Nimbus Sans L, sans-serif" fill="rgb(102,102,102)" stroke-opacity="1" fill-opacity="1" font-weight="normal" font-style="normal">
                          <tspan id="GRID.text.1506.1.1.tspan.1" dy="9.33" x="0">anagrafica totali-computerpersonale</tspan>
                        </text>
                      </g>
                    </g>
                  </g>
                </g>
              </g>
            </g>
          </g>
          <g id="layout::caption.10-5-10-5.1" class="viewport"/>
          <g id="layout::tag.2-2-2-2.1" class="viewport"/>
        </g>
      </g>
    </g>
  </g>
</svg>