<?xml version="1.0" encoding="UTF-8"?>
<svg xmlns="http://www.w3.org/2000/svg" xmlns:xlink="http://www.w3.org/1999/xlink" width="504px" height="504px" viewBox="0 0 504 504" version="1.1">
  <metadata xmlns:gridsvg="http://www.stat.auckland.ac.nz/~paul/R/gridSVG/">
    <gridsvg:generator name="gridSVG" version="1.6-0" time="2019-01-18 19:03:34"/>
    <gridsvg:argument name="name" value="./latest_informaggio_csv/risultati/svg/anagrafica-comunicazione.svg"/>
    <gridsvg:argument name="exportCoords" value="none"/>
    <gridsvg:argument name="exportMappings" value="none"/>
    <gridsvg:argument name="exportJS" value="none"/>
    <gridsvg:argument name="res" value="72"/>
    <gridsvg:argument name="prefix" value=""/>
    <gridsvg:argument name="addClasses" value="TRUE"/>
    <gridsvg:argument name="indent" value="TRUE"/>
    <gridsvg:argument name="htmlWrapper" value="FALSE"/>
    <gridsvg:argument name="usePaths" value="vpPaths"/>
    <gridsvg:argument name="uniqueNames" value="TRUE"/>
    <gridsvg:separator name="id.sep" value="."/>
    <gridsvg:separator name="gPath.sep" value="::"/>
    <gridsvg:separator name="vpPath.sep" value="::"/>
  </metadata>
  <g transform="translate(0, 504) scale(1, -1)">
    <g id="gridSVG" fill="none" stroke="rgb(0,0,0)" stroke-dasharray="none" stroke-width="0.75" font-size="12" font-family="Helvetica, Arial, FreeSans, Liberation Sans, Nimbus Sans L, sans-serif" opacity="1" stroke-linecap="round" stroke-linejoin="round" stroke-miterlimit="10" stroke-opacity="1" fill-opacity="0" font-weight="normal" font-style="normal">
      <g id="layout.1" class="viewport">
        <g id="layout.2" class="forcedgrob gtable gTree grob gDesc">
          <defs>
            <clipPath id="layout::background.1-11-12-1.1.clipPath">
              <rect x="0" y="40.92" width="504" height="422.16" fill="none" stroke="none"/>
            </clipPath>
          </defs>
          <g id="layout::background.1-11-12-1.1" clip-path="url(#layout::background.1-11-12-1.1.clipPath)" class="viewport">
            <g id="background.1-11-12-1.1" class="forcedgrob gTableChild rect grob gDesc">
              <rect id="background.1-11-12-1.1.1" x="0" y="40.92" width="504" height="422.16" transform="" stroke-width="1.07" stroke="rgb(255,255,255)" fill="rgb(255,255,255)" stroke-dasharray="none" stroke-opacity="1" fill-opacity="1"/>
            </g>
          </g>
          <defs>
            <clipPath id="layout::panel.7-5-7-5.1.clipPath">
              <rect x="8.22" y="49.14" width="391" height="391" fill="none" stroke="none"/>
            </clipPath>
          </defs>
          <g id="layout::panel.7-5-7-5.1" clip-path="url(#layout::panel.7-5-7-5.1.clipPath)" class="viewport">
            <g id="panel.7-5-7-5.1" class="forcedgrob gTableChild gTree grob gDesc">
              <g id="grill.gTree.1545.1" class="gTree grob gDesc">
                <g id="panel.background..rect.1541.1" class="rect grob gDesc">
                  <rect id="panel.background..rect.1541.1.1" x="8.22" y="49.14" width="391" height="391" transform="" stroke-width="1.07" stroke="none" fill="rgb(255,255,255)" stroke-dasharray="none" stroke-opacity="0" fill-opacity="1"/>
                </g>
              </g>
              <g id="bar.gTree.1534.1" class="gTree grob gDesc">
                <g id="geom_polygon.polygon.1524.1" class="polygon grob gDesc">
                  <polygon id="geom_polygon.polygon.1524.1.1" points="203.72,244.64 206.68,240.14 209.65,235.63 212.61,231.13 215.58,226.62 218.54,222.11 221.5,217.61 224.47,213.1 227.43,208.6 230.39,204.09 233.36,199.58 236.32,195.08 239.28,190.57 242.25,186.07 245.21,181.56 248.17,177.05 251.14,172.55 254.1,168.04 257.07,163.54 260.03,159.03 262.99,154.52 265.96,150.02 268.92,145.51 271.88,141.01 274.85,136.5 277.81,132 280.77,127.49 283.74,122.98 286.7,118.48 289.66,113.97 294.07,116.98 298.38,120.14 302.57,123.44 306.65,126.88 310.61,130.47 314.44,134.18 318.15,138.02 321.72,141.99 325.15,146.08 328.45,150.28 331.59,154.59 334.59,159 337.44,163.52 340.13,168.13 342.66,172.83 345.03,177.61 347.23,182.47 349.27,187.41 351.14,192.41 352.84,197.47 354.36,202.58 355.71,207.75 356.88,212.96 357.87,218.2 358.68,223.48 359.32,228.78 359.77,234.1 360.03,239.43 360.12,244.76 360.03,250.1 359.75,255.43 359.29,260.75 358.65,266.05 357.83,271.32 356.83,276.57 355.65,281.77 354.3,286.94 352.76,292.05 351.06,297.11 349.18,302.11 347.14,307.04 344.93,311.89 342.55,316.67 340.01,321.37 337.31,325.97 334.46,330.49 331.45,334.9 328.3,339.2 325,343.4 321.56,347.48 317.98,351.44 314.27,355.28 310.43,358.99 306.47,362.56 302.38,366 298.18,369.29 293.88,372.45 289.46,375.45 284.95,378.3 280.34,380.99 275.64,383.53 270.86,385.9 266,388.11 261.07,390.15 256.07,392.02 251.01,393.72 245.9,395.25 240.73,396.6 235.53,397.78 230.28,398.77 225.01,399.59 219.71,400.23 214.39,400.68 209.06,400.95 203.72,401.04 203.72,395.65 203.72,390.26 203.72,384.86 203.72,379.47 203.72,374.08 203.72,368.69 203.72,363.29 203.72,357.9 203.72,352.51 203.72,347.11 203.72,341.72 203.72,336.33 203.72,330.93 203.72,325.54 203.72,320.15 203.72,314.75 203.72,309.36 203.72,303.97 203.72,298.57 203.72,293.18 203.72,287.79 203.72,282.4 203.72,277 203.72,271.61 203.72,266.22 203.72,260.82 203.72,255.43 203.72,250.04 203.72,244.64 203.72,244.64" stroke="none" fill="rgb(231,107,243)" stroke-width="1.07" stroke-dasharray="none" stroke-opacity="0" fill-opacity="1"/>
                </g>
                <g id="geom_polygon.polygon.1526.1" class="polygon grob gDesc">
                  <polygon id="geom_polygon.polygon.1526.1.1" points="203.72,244.64 198.33,244.58 192.94,244.52 187.54,244.45 182.15,244.39 176.76,244.33 171.36,244.27 165.97,244.2 160.58,244.14 155.19,244.08 149.79,244.02 144.4,243.95 139.01,243.89 133.61,243.83 128.22,243.76 122.83,243.7 117.44,243.64 112.04,243.58 106.65,243.51 101.26,243.45 95.87,243.39 90.47,243.33 85.08,243.26 79.69,243.2 74.29,243.14 68.9,243.07 63.51,243.01 58.12,242.95 52.72,242.89 47.33,242.82 47.48,237.51 47.81,232.21 48.33,226.92 49.02,221.65 49.89,216.4 50.94,211.19 52.16,206.02 53.56,200.89 55.14,195.82 56.88,190.8 58.79,185.84 60.88,180.95 63.12,176.13 65.53,171.4 68.1,166.74 70.83,162.18 73.7,157.71 76.73,153.34 79.91,149.08 83.23,144.93 86.68,140.9 90.28,136.98 94,133.19 97.85,129.52 101.82,125.99 105.91,122.6 110.12,119.35 114.43,116.24 118.84,113.28 123.35,110.47 127.96,107.82 132.65,105.32 137.43,102.99 142.28,100.82 147.2,98.81 152.19,96.98 157.23,95.31 162.34,93.82 167.48,92.5 172.67,91.35 177.9,90.39 183.16,89.6 188.44,88.99 193.73,88.56 199.04,88.31 204.36,88.24 209.67,88.36 214.98,88.65 220.27,89.12 225.54,89.77 230.79,90.6 236.01,91.61 241.19,92.8 246.33,94.16 251.42,95.69 256.45,97.4 261.42,99.28 266.33,101.32 271.16,103.53 275.92,105.9 280.59,108.44 285.18,111.13 289.66,113.97 286.7,118.48 283.74,122.98 280.77,127.49 277.81,132 274.85,136.5 271.88,141.01 268.92,145.51 265.96,150.02 262.99,154.52 260.03,159.03 257.07,163.54 254.1,168.04 251.14,172.55 248.17,177.05 245.21,181.56 242.25,186.07 239.28,190.57 236.32,195.08 233.36,199.58 230.39,204.09 227.43,208.6 224.47,213.1 221.5,217.61 218.54,222.11 215.58,226.62 212.61,231.13 209.65,235.63 206.68,240.14 203.72,244.64 203.72,244.64" stroke="none" fill="rgb(0,176,246)" stroke-width="1.07" stroke-dasharray="none" stroke-opacity="0" fill-opacity="1"/>
                </g>
                <g id="geom_polygon.polygon.1528.1" class="polygon grob gDesc">
                  <polygon id="geom_polygon.polygon.1528.1.1" points="203.72,244.64 202.85,249.96 201.97,255.29 201.1,260.61 200.22,265.93 199.35,271.25 198.47,276.57 197.6,281.9 196.72,287.22 195.85,292.54 194.97,297.86 194.1,303.18 193.22,308.5 192.35,313.83 191.48,319.15 190.6,324.47 189.73,329.79 188.85,335.11 187.98,340.43 187.1,345.76 186.23,351.08 185.35,356.4 184.48,361.72 183.6,367.04 182.73,372.37 181.85,377.69 180.98,383.01 180.11,388.33 179.23,393.65 178.36,398.97 173.03,398 167.74,396.85 162.49,395.51 157.29,393.99 152.15,392.3 147.07,390.42 142.06,388.38 137.12,386.16 132.26,383.77 127.49,381.21 122.81,378.49 118.22,375.61 113.74,372.57 109.37,369.38 105.1,366.04 100.96,362.55 96.94,358.92 93.05,355.16 89.29,351.26 85.67,347.23 82.19,343.09 78.85,338.82 75.67,334.44 72.64,329.96 69.76,325.37 67.05,320.68 64.5,315.9 62.11,311.04 59.9,306.1 57.86,301.09 55.99,296 54.3,290.86 52.79,285.66 51.46,280.41 50.32,275.12 49.35,269.79 48.58,264.43 47.98,259.05 47.58,253.65 47.36,248.24 47.33,242.82 52.72,242.89 58.12,242.95 63.51,243.01 68.9,243.07 74.29,243.14 79.69,243.2 85.08,243.26 90.47,243.33 95.87,243.39 101.26,243.45 106.65,243.51 112.04,243.58 117.44,243.64 122.83,243.7 128.22,243.76 133.61,243.83 139.01,243.89 144.4,243.95 149.79,244.02 155.19,244.08 160.58,244.14 165.97,244.2 171.36,244.27 176.76,244.33 182.15,244.39 187.54,244.45 192.94,244.52 198.33,244.58 203.72,244.64 203.72,244.64" stroke="none" fill="rgb(0,191,125)" stroke-width="1.07" stroke-dasharray="none" stroke-opacity="0" fill-opacity="1"/>
                </g>
                <g id="geom_polygon.polygon.1530.1" class="polygon grob gDesc">
                  <polygon id="geom_polygon.polygon.1530.1.1" points="203.72,244.64 203.34,250.02 202.97,255.4 202.59,260.78 202.22,266.16 201.84,271.54 201.46,276.92 201.09,282.3 200.71,287.68 200.33,293.06 199.96,298.44 199.58,303.82 199.21,309.2 198.83,314.58 198.45,319.96 198.08,325.34 197.7,330.72 197.33,336.1 196.95,341.48 196.57,346.86 196.2,352.24 195.82,357.62 195.44,363 195.07,368.38 194.69,373.76 194.32,379.14 193.94,384.52 193.56,389.9 193.19,395.28 192.81,400.66 185.56,399.99 178.36,398.97 179.23,393.65 180.11,388.33 180.98,383.01 181.85,377.69 182.73,372.37 183.6,367.04 184.48,361.72 185.35,356.4 186.23,351.08 187.1,345.76 187.98,340.43 188.85,335.11 189.73,329.79 190.6,324.47 191.48,319.15 192.35,313.83 193.22,308.5 194.1,303.18 194.97,297.86 195.85,292.54 196.72,287.22 197.6,281.9 198.47,276.57 199.35,271.25 200.22,265.93 201.1,260.61 201.97,255.29 202.85,249.96 203.72,244.64 203.72,244.64" stroke="none" fill="rgb(163,165,0)" stroke-width="1.07" stroke-dasharray="none" stroke-opacity="0" fill-opacity="1"/>
                </g>
                <g id="geom_polygon.polygon.1532.1" class="polygon grob gDesc">
                  <polygon id="geom_polygon.polygon.1532.1.1" points="203.72,244.64 203.72,250.04 203.72,255.43 203.72,260.82 203.72,266.22 203.72,271.61 203.72,277 203.72,282.4 203.72,287.79 203.72,293.18 203.72,298.57 203.72,303.97 203.72,309.36 203.72,314.75 203.72,320.15 203.72,325.54 203.72,330.93 203.72,336.33 203.72,341.72 203.72,347.11 203.72,352.51 203.72,357.9 203.72,363.29 203.72,368.69 203.72,374.08 203.72,379.47 203.72,384.86 203.72,390.26 203.72,395.65 203.72,401.04 198.26,400.95 192.81,400.66 193.19,395.28 193.56,389.9 193.94,384.52 194.32,379.14 194.69,373.76 195.07,368.38 195.44,363 195.82,357.62 196.2,352.24 196.57,346.86 196.95,341.48 197.33,336.1 197.7,330.72 198.08,325.34 198.45,319.96 198.83,314.58 199.21,309.2 199.58,303.82 199.96,298.44 200.33,293.06 200.71,287.68 201.09,282.3 201.46,276.92 201.84,271.54 202.22,266.16 202.59,260.78 202.97,255.4 203.34,250.02 203.72,244.64 203.72,244.64" stroke="none" fill="rgb(248,118,109)" stroke-width="1.07" stroke-dasharray="none" stroke-opacity="0" fill-opacity="1"/>
                </g>
              </g>
              <g id="GRID.text.1535.1" class="text grob gDesc">
                <g id="GRID.text.1535.1.1" transform="translate(278.64, 267.07)" stroke-width="0.1">
                  <g id="GRID.text.1535.1.1.scale" transform="scale(1, -1)">
                    <text x="0" y="0" id="GRID.text.1535.1.1.text" text-anchor="middle" stroke="rgb(0,0,0)" font-size="11.04" font-family="Helvetica, Arial, FreeSans, Liberation Sans, Nimbus Sans L, sans-serif" fill="rgb(0,0,0)" stroke-opacity="1" fill-opacity="1" font-weight="normal" font-style="normal">
                      <tspan id="GRID.text.1535.1.1.tspan.1" dy="3.95" x="0">110</tspan>
                    </text>
                  </g>
                </g>
                <g id="GRID.text.1535.1.2" transform="translate(167.01, 175.6)" stroke-width="0.1">
                  <g id="GRID.text.1535.1.2.scale" transform="scale(1, -1)">
                    <text x="0" y="0" id="GRID.text.1535.1.2.text" text-anchor="middle" stroke="rgb(0,0,0)" font-size="11.04" font-family="Helvetica, Arial, FreeSans, Liberation Sans, Nimbus Sans L, sans-serif" fill="rgb(0,0,0)" stroke-opacity="1" fill-opacity="1" font-weight="normal" font-style="normal">
                      <tspan id="GRID.text.1535.1.2.tspan.1" dy="3.95" x="0">92</tspan>
                    </text>
                  </g>
                </g>
                <g id="GRID.text.1535.1.3" transform="translate(143.82, 294.91)" stroke-width="0.1">
                  <g id="GRID.text.1535.1.3.scale" transform="scale(1, -1)">
                    <text x="0" y="0" id="GRID.text.1535.1.3.text" text-anchor="middle" stroke="rgb(0,0,0)" font-size="11.04" font-family="Helvetica, Arial, FreeSans, Liberation Sans, Nimbus Sans L, sans-serif" fill="rgb(0,0,0)" stroke-opacity="1" fill-opacity="1" font-weight="normal" font-style="normal">
                      <tspan id="GRID.text.1535.1.3.tspan.1" dy="3.95" x="0">61</tspan>
                    </text>
                  </g>
                </g>
                <g id="GRID.text.1535.1.4" transform="translate(194.64, 322.31)" stroke-width="0.1">
                  <g id="GRID.text.1535.1.4.scale" transform="scale(1, -1)">
                    <text x="0" y="0" id="GRID.text.1535.1.4.text" text-anchor="middle" stroke="rgb(0,0,0)" font-size="11.04" font-family="Helvetica, Arial, FreeSans, Liberation Sans, Nimbus Sans L, sans-serif" fill="rgb(0,0,0)" stroke-opacity="1" fill-opacity="1" font-weight="normal" font-style="normal">
                      <tspan id="GRID.text.1535.1.4.tspan.1" dy="3.95" x="0">4</tspan>
                    </text>
                  </g>
                </g>
                <g id="GRID.text.1535.1.5" transform="translate(200.99, 322.8)" stroke-width="0.1">
                  <g id="GRID.text.1535.1.5.scale" transform="scale(1, -1)">
                    <text x="0" y="0" id="GRID.text.1535.1.5.text" text-anchor="middle" stroke="rgb(0,0,0)" font-size="11.04" font-family="Helvetica, Arial, FreeSans, Liberation Sans, Nimbus Sans L, sans-serif" fill="rgb(0,0,0)" stroke-opacity="1" fill-opacity="1" font-weight="normal" font-style="normal">
                      <tspan id="GRID.text.1535.1.5.tspan.1" dy="3.95" x="0">3</tspan>
                    </text>
                  </g>
                </g>
              </g>
              <g id="GRID.gTree.1536.1" class="gTree grob gDesc"/>
            </g>
          </g>
          <g id="layout::spacer.8-6-8-6.1" class="viewport"/>
          <g id="layout::spacer.8-4-8-4.1" class="viewport"/>
          <g id="layout::spacer.6-6-6-6.1" class="viewport"/>
          <g id="layout::spacer.6-4-6-4.1" class="viewport"/>
          <g id="layout::axis-t.6-5-6-5.1" class="viewport"/>
          <g id="layout::axis-l.7-4-7-4.1" class="viewport">
            <g id="layout::axis-l.7-4-7-4::GRID.VP.368.1" class="viewport">
              <g id="axis-l.7-4-7-4.1" class="forcedgrob gTableChild absoluteGrob gTree grob gDesc">
                <g id="layout::axis-l.7-4-7-4::GRID.VP.368::axis.1" class="viewport">
                  <g id="axis.1" class="forcedgrob gtable gTree grob gDesc">
                    <g id="layout::axis-l.7-4-7-4::GRID.VP.368::axis::axis.1-1-1-1.1" class="viewport"/>
                    <g id="layout::axis-l.7-4-7-4::GRID.VP.368::axis::axis.1-2-1-2.1" class="viewport"/>
                  </g>
                </g>
              </g>
            </g>
          </g>
          <g id="layout::axis-r.7-6-7-6.1" class="viewport"/>
          <g id="layout::axis-b.8-5-8-5.1" class="viewport">
            <g id="layout::axis-b.8-5-8-5::GRID.VP.367.1" class="viewport">
              <g id="axis-b.8-5-8-5.1" class="forcedgrob gTableChild absoluteGrob gTree grob gDesc">
                <g id="layout::axis-b.8-5-8-5::GRID.VP.367::axis.1" class="viewport">
                  <g id="axis.2" class="forcedgrob gtable gTree grob gDesc">
                    <g id="layout::axis-b.8-5-8-5::GRID.VP.367::axis::axis.1-1-1-1.1" class="viewport"/>
                    <g id="layout::axis-b.8-5-8-5::GRID.VP.367::axis::axis.2-1-2-1.1" class="viewport"/>
                  </g>
                </g>
              </g>
            </g>
          </g>
          <g id="layout::xlab-t.5-5-5-5.1" class="viewport"/>
          <g id="layout::xlab-b.9-5-9-5.1" class="viewport"/>
          <g id="layout::ylab-l.7-3-7-3.1" class="viewport"/>
          <g id="layout::ylab-r.7-7-7-7.1" class="viewport"/>
          <g id="layout::guide-box.7-9-7-9.1" class="viewport">
            <g id="layout::guide-box.7-9-7-9::GRID.VP.385.1" class="viewport">
              <g id="layout::guide-box.7-9-7-9::GRID.VP.385::guide-box.7-9-7-9.1" class="viewport">
                <g id="guide-box.7-9-7-9.1" class="forcedgrob gTableChild gtable gTree grob gDesc">
                  <g id="layout::guide-box.7-9-7-9::GRID.VP.385::guide-box.7-9-7-9::legend.box.background.2-4-4-2.1" class="viewport"/>
                  <g id="layout::guide-box.7-9-7-9::GRID.VP.385::guide-box.7-9-7-9::guides.3-3-3-3.1" class="viewport">
                    <g id="layout::guide-box.7-9-7-9::GRID.VP.385::guide-box.7-9-7-9::guides.3-3-3-3::GRID.VP.384.1" class="viewport">
                      <g id="layout::guide-box.7-9-7-9::GRID.VP.385::guide-box.7-9-7-9::guides.3-3-3-3::GRID.VP.384::guides.3-3-3-3.1" class="viewport">
                        <g id="guides.3-3-3-3.1" class="forcedgrob gTableChild gtable gTree grob gDesc">
                          <g id="layout::guide-box.7-9-7-9::GRID.VP.385::guide-box.7-9-7-9::guides.3-3-3-3::GRID.VP.384::guides.3-3-3-3::background.1-6-9-1.1" class="viewport">
                            <g id="background.1-6-9-1.1" class="forcedgrob gTableChild rect grob gDesc">
                              <rect id="background.1-6-9-1.1.1" x="410.18" y="193.22" width="88.34" height="102.84" transform="" stroke-width="1.07" stroke="none" fill="rgb(255,255,255)" stroke-dasharray="none" stroke-opacity="0" fill-opacity="1"/>
                            </g>
                          </g>
                          <g id="layout::guide-box.7-9-7-9::GRID.VP.385::guide-box.7-9-7-9::guides.3-3-3-3::GRID.VP.384::guides.3-3-3-3::title.2-5-2-2.1" class="viewport"/>
                          <g id="layout::guide-box.7-9-7-9::GRID.VP.385::guide-box.7-9-7-9::guides.3-3-3-3::GRID.VP.384::guides.3-3-3-3::key-3-1-bg.4-2-4-2.1" class="viewport"/>
                          <g id="layout::guide-box.7-9-7-9::GRID.VP.385::guide-box.7-9-7-9::guides.3-3-3-3::GRID.VP.384::guides.3-3-3-3::key-3-1-1.4-2-4-2.1" class="viewport">
                            <g id="key-3-1-1.4-2-4-2.1" class="forcedgrob gTableChild rect grob gDesc">
                              <rect id="key-3-1-1.4-2-4-2.1.1" x="416.37" y="268.53" width="15.86" height="15.86" transform="" stroke="none" fill="rgb(248,118,109)" stroke-dasharray="none" stroke-width="1.07" stroke-linejoin="miter" stroke-opacity="0" fill-opacity="1"/>
                            </g>
                          </g>
                          <g id="layout::guide-box.7-9-7-9::GRID.VP.385::guide-box.7-9-7-9::guides.3-3-3-3::GRID.VP.384::guides.3-3-3-3::key-4-1-bg.5-2-5-2.1" class="viewport"/>
                          <g id="layout::guide-box.7-9-7-9::GRID.VP.385::guide-box.7-9-7-9::guides.3-3-3-3::GRID.VP.384::guides.3-3-3-3::key-4-1-1.5-2-5-2.1" class="viewport">
                            <g id="key-4-1-1.5-2-5-2.1" class="forcedgrob gTableChild rect grob gDesc">
                              <rect id="key-4-1-1.5-2-5-2.1.1" x="416.37" y="251.25" width="15.86" height="15.86" transform="" stroke="none" fill="rgb(163,165,0)" stroke-dasharray="none" stroke-width="1.07" stroke-linejoin="miter" stroke-opacity="0" fill-opacity="1"/>
                            </g>
                          </g>
                          <g id="layout::guide-box.7-9-7-9::GRID.VP.385::guide-box.7-9-7-9::guides.3-3-3-3::GRID.VP.384::guides.3-3-3-3::key-5-1-bg.6-2-6-2.1" class="viewport"/>
                          <g id="layout::guide-box.7-9-7-9::GRID.VP.385::guide-box.7-9-7-9::guides.3-3-3-3::GRID.VP.384::guides.3-3-3-3::key-5-1-1.6-2-6-2.1" class="viewport">
                            <g id="key-5-1-1.6-2-6-2.1" class="forcedgrob gTableChild rect grob gDesc">
                              <rect id="key-5-1-1.6-2-6-2.1.1" x="416.37" y="233.97" width="15.86" height="15.86" transform="" stroke="none" fill="rgb(0,191,125)" stroke-dasharray="none" stroke-width="1.07" stroke-linejoin="miter" stroke-opacity="0" fill-opacity="1"/>
                            </g>
                          </g>
                          <g id="layout::guide-box.7-9-7-9::GRID.VP.385::guide-box.7-9-7-9::guides.3-3-3-3::GRID.VP.384::guides.3-3-3-3::key-6-1-bg.7-2-7-2.1" class="viewport"/>
                          <g id="layout::guide-box.7-9-7-9::GRID.VP.385::guide-box.7-9-7-9::guides.3-3-3-3::GRID.VP.384::guides.3-3-3-3::key-6-1-1.7-2-7-2.1" class="viewport">
                            <g id="key-6-1-1.7-2-7-2.1" class="forcedgrob gTableChild rect grob gDesc">
                              <rect id="key-6-1-1.7-2-7-2.1.1" x="416.37" y="216.69" width="15.86" height="15.86" transform="" stroke="none" fill="rgb(0,176,246)" stroke-dasharray="none" stroke-width="1.07" stroke-linejoin="miter" stroke-opacity="0" fill-opacity="1"/>
                            </g>
                          </g>
                          <g id="layout::guide-box.7-9-7-9::GRID.VP.385::guide-box.7-9-7-9::guides.3-3-3-3::GRID.VP.384::guides.3-3-3-3::key-7-1-bg.8-2-8-2.1" class="viewport"/>
                          <g id="layout::guide-box.7-9-7-9::GRID.VP.385::guide-box.7-9-7-9::guides.3-3-3-3::GRID.VP.384::guides.3-3-3-3::key-7-1-1.8-2-8-2.1" class="viewport">
                            <g id="key-7-1-1.8-2-8-2.1" class="forcedgrob gTableChild rect grob gDesc">
                              <rect id="key-7-1-1.8-2-8-2.1.1" x="416.37" y="199.41" width="15.86" height="15.86" transform="" stroke="none" fill="rgb(231,107,243)" stroke-dasharray="none" stroke-width="1.07" stroke-linejoin="miter" stroke-opacity="0" fill-opacity="1"/>
                            </g>
                          </g>
                          <g id="layout::guide-box.7-9-7-9::GRID.VP.385::guide-box.7-9-7-9::guides.3-3-3-3::GRID.VP.384::guides.3-3-3-3::label-3-3.4-4-4-4.1" class="viewport">
                            <g id="layout::guide-box.7-9-7-9::GRID.VP.385::guide-box.7-9-7-9::guides.3-3-3-3::GRID.VP.384::guides.3-3-3-3::label-3-3.4-4-4-4::GRID.VP.379.1" class="viewport">
                              <g id="label-3-3.4-4-4-4.1" class="forcedgrob gTableChild gTree grob gDesc">
                                <g id="layout::guide-box.7-9-7-9::GRID.VP.385::guide-box.7-9-7-9::guides.3-3-3-3::GRID.VP.384::guides.3-3-3-3::label-3-3.4-4-4-4::GRID.VP.379::GRID.VP.369.1" font-size="8.8" stroke="rgb(0,0,0)" font-family="Helvetica, Arial, FreeSans, Liberation Sans, Nimbus Sans L, sans-serif" stroke-opacity="1" font-weight="normal" font-style="normal" class="viewport">
                                  <g id="layout::guide-box.7-9-7-9::GRID.VP.385::guide-box.7-9-7-9::guides.3-3-3-3::GRID.VP.384::guides.3-3-3-3::label-3-3.4-4-4-4::GRID.VP.379::GRID.VP.369::GRID.VP.370.1" class="viewport">
                                    <g id="guide.label.titleGrob.1559.1" class="titleGrob gTree grob gDesc">
                                      <g id="GRID.text.1557.1" class="text grob gDesc">
                                        <g id="GRID.text.1557.1.1" transform="translate(438.42, 276.46)" stroke-width="0.1">
                                          <g id="GRID.text.1557.1.1.scale" transform="scale(1, -1)">
                                            <text x="0" y="0" id="GRID.text.1557.1.1.text" text-anchor="start" font-size="8.8" stroke="rgb(0,0,0)" font-family="Helvetica, Arial, FreeSans, Liberation Sans, Nimbus Sans L, sans-serif" fill="rgb(0,0,0)" stroke-opacity="1" fill-opacity="1" font-weight="normal" font-style="normal">
                                              <tspan id="GRID.text.1557.1.1.tspan.1" dy="3.23" x="0">nessuno (3)</tspan>
                                            </text>
                                          </g>
                                        </g>
                                      </g>
                                    </g>
                                  </g>
                                </g>
                              </g>
                            </g>
                          </g>
                          <g id="layout::guide-box.7-9-7-9::GRID.VP.385::guide-box.7-9-7-9::guides.3-3-3-3::GRID.VP.384::guides.3-3-3-3::label-4-3.5-4-5-4.1" class="viewport">
                            <g id="layout::guide-box.7-9-7-9::GRID.VP.385::guide-box.7-9-7-9::guides.3-3-3-3::GRID.VP.384::guides.3-3-3-3::label-4-3.5-4-5-4::GRID.VP.380.1" class="viewport">
                              <g id="label-4-3.5-4-5-4.1" class="forcedgrob gTableChild gTree grob gDesc">
                                <g id="layout::guide-box.7-9-7-9::GRID.VP.385::guide-box.7-9-7-9::guides.3-3-3-3::GRID.VP.384::guides.3-3-3-3::label-4-3.5-4-5-4::GRID.VP.380::GRID.VP.371.1" font-size="8.8" stroke="rgb(0,0,0)" font-family="Helvetica, Arial, FreeSans, Liberation Sans, Nimbus Sans L, sans-serif" stroke-opacity="1" font-weight="normal" font-style="normal" class="viewport">
                                  <g id="layout::guide-box.7-9-7-9::GRID.VP.385::guide-box.7-9-7-9::guides.3-3-3-3::GRID.VP.384::guides.3-3-3-3::label-4-3.5-4-5-4::GRID.VP.380::GRID.VP.371::GRID.VP.372.1" class="viewport">
                                    <g id="guide.label.titleGrob.1562.1" class="titleGrob gTree grob gDesc">
                                      <g id="GRID.text.1560.1" class="text grob gDesc">
                                        <g id="GRID.text.1560.1.1" transform="translate(438.42, 259.18)" stroke-width="0.1">
                                          <g id="GRID.text.1560.1.1.scale" transform="scale(1, -1)">
                                            <text x="0" y="0" id="GRID.text.1560.1.1.text" text-anchor="start" font-size="8.8" stroke="rgb(0,0,0)" font-family="Helvetica, Arial, FreeSans, Liberation Sans, Nimbus Sans L, sans-serif" fill="rgb(0,0,0)" stroke-opacity="1" fill-opacity="1" font-weight="normal" font-style="normal">
                                              <tspan id="GRID.text.1560.1.1.tspan.1" dy="3.23" x="0">tutto (4)</tspan>
                                            </text>
                                          </g>
                                        </g>
                                      </g>
                                    </g>
                                  </g>
                                </g>
                              </g>
                            </g>
                          </g>
                          <g id="layout::guide-box.7-9-7-9::GRID.VP.385::guide-box.7-9-7-9::guides.3-3-3-3::GRID.VP.384::guides.3-3-3-3::label-5-3.6-4-6-4.1" class="viewport">
                            <g id="layout::guide-box.7-9-7-9::GRID.VP.385::guide-box.7-9-7-9::guides.3-3-3-3::GRID.VP.384::guides.3-3-3-3::label-5-3.6-4-6-4::GRID.VP.381.1" class="viewport">
                              <g id="label-5-3.6-4-6-4.1" class="forcedgrob gTableChild gTree grob gDesc">
                                <g id="layout::guide-box.7-9-7-9::GRID.VP.385::guide-box.7-9-7-9::guides.3-3-3-3::GRID.VP.384::guides.3-3-3-3::label-5-3.6-4-6-4::GRID.VP.381::GRID.VP.373.1" font-size="8.8" stroke="rgb(0,0,0)" font-family="Helvetica, Arial, FreeSans, Liberation Sans, Nimbus Sans L, sans-serif" stroke-opacity="1" font-weight="normal" font-style="normal" class="viewport">
                                  <g id="layout::guide-box.7-9-7-9::GRID.VP.385::guide-box.7-9-7-9::guides.3-3-3-3::GRID.VP.384::guides.3-3-3-3::label-5-3.6-4-6-4::GRID.VP.381::GRID.VP.373::GRID.VP.374.1" class="viewport">
                                    <g id="guide.label.titleGrob.1565.1" class="titleGrob gTree grob gDesc">
                                      <g id="GRID.text.1563.1" class="text grob gDesc">
                                        <g id="GRID.text.1563.1.1" transform="translate(438.42, 241.9)" stroke-width="0.1">
                                          <g id="GRID.text.1563.1.1.scale" transform="scale(1, -1)">
                                            <text x="0" y="0" id="GRID.text.1563.1.1.text" text-anchor="start" font-size="8.8" stroke="rgb(0,0,0)" font-family="Helvetica, Arial, FreeSans, Liberation Sans, Nimbus Sans L, sans-serif" fill="rgb(0,0,0)" stroke-opacity="1" fill-opacity="1" font-weight="normal" font-style="normal">
                                              <tspan id="GRID.text.1563.1.1.tspan.1" dy="3.23" x="0">base (61)</tspan>
                                            </text>
                                          </g>
                                        </g>
                                      </g>
                                    </g>
                                  </g>
                                </g>
                              </g>
                            </g>
                          </g>
                          <g id="layout::guide-box.7-9-7-9::GRID.VP.385::guide-box.7-9-7-9::guides.3-3-3-3::GRID.VP.384::guides.3-3-3-3::label-6-3.7-4-7-4.1" class="viewport">
                            <g id="layout::guide-box.7-9-7-9::GRID.VP.385::guide-box.7-9-7-9::guides.3-3-3-3::GRID.VP.384::guides.3-3-3-3::label-6-3.7-4-7-4::GRID.VP.382.1" class="viewport">
                              <g id="label-6-3.7-4-7-4.1" class="forcedgrob gTableChild gTree grob gDesc">
                                <g id="layout::guide-box.7-9-7-9::GRID.VP.385::guide-box.7-9-7-9::guides.3-3-3-3::GRID.VP.384::guides.3-3-3-3::label-6-3.7-4-7-4::GRID.VP.382::GRID.VP.375.1" font-size="8.8" stroke="rgb(0,0,0)" font-family="Helvetica, Arial, FreeSans, Liberation Sans, Nimbus Sans L, sans-serif" stroke-opacity="1" font-weight="normal" font-style="normal" class="viewport">
                                  <g id="layout::guide-box.7-9-7-9::GRID.VP.385::guide-box.7-9-7-9::guides.3-3-3-3::GRID.VP.384::guides.3-3-3-3::label-6-3.7-4-7-4::GRID.VP.382::GRID.VP.375::GRID.VP.376.1" class="viewport">
                                    <g id="guide.label.titleGrob.1568.1" class="titleGrob gTree grob gDesc">
                                      <g id="GRID.text.1566.1" class="text grob gDesc">
                                        <g id="GRID.text.1566.1.1" transform="translate(438.42, 224.62)" stroke-width="0.1">
                                          <g id="GRID.text.1566.1.1.scale" transform="scale(1, -1)">
                                            <text x="0" y="0" id="GRID.text.1566.1.1.text" text-anchor="start" font-size="8.8" stroke="rgb(0,0,0)" font-family="Helvetica, Arial, FreeSans, Liberation Sans, Nimbus Sans L, sans-serif" fill="rgb(0,0,0)" stroke-opacity="1" fill-opacity="1" font-weight="normal" font-style="normal">
                                              <tspan id="GRID.text.1566.1.1.tspan.1" dy="3.23" x="0">avanzato (92)</tspan>
                                            </text>
                                          </g>
                                        </g>
                                      </g>
                                    </g>
                                  </g>
                                </g>
                              </g>
                            </g>
                          </g>
                          <g id="layout::guide-box.7-9-7-9::GRID.VP.385::guide-box.7-9-7-9::guides.3-3-3-3::GRID.VP.384::guides.3-3-3-3::label-7-3.8-4-8-4.1" class="viewport">
                            <g id="layout::guide-box.7-9-7-9::GRID.VP.385::guide-box.7-9-7-9::guides.3-3-3-3::GRID.VP.384::guides.3-3-3-3::label-7-3.8-4-8-4::GRID.VP.383.1" class="viewport">
                              <g id="label-7-3.8-4-8-4.1" class="forcedgrob gTableChild gTree grob gDesc">
                                <g id="layout::guide-box.7-9-7-9::GRID.VP.385::guide-box.7-9-7-9::guides.3-3-3-3::GRID.VP.384::guides.3-3-3-3::label-7-3.8-4-8-4::GRID.VP.383::GRID.VP.377.1" font-size="8.8" stroke="rgb(0,0,0)" font-family="Helvetica, Arial, FreeSans, Liberation Sans, Nimbus Sans L, sans-serif" stroke-opacity="1" font-weight="normal" font-style="normal" class="viewport">
                                  <g id="layout::guide-box.7-9-7-9::GRID.VP.385::guide-box.7-9-7-9::guides.3-3-3-3::GRID.VP.384::guides.3-3-3-3::label-7-3.8-4-8-4::GRID.VP.383::GRID.VP.377::GRID.VP.378.1" class="viewport">
                                    <g id="guide.label.titleGrob.1571.1" class="titleGrob gTree grob gDesc">
                                      <g id="GRID.text.1569.1" class="text grob gDesc">
                                        <g id="GRID.text.1569.1.1" transform="translate(438.42, 207.34)" stroke-width="0.1">
                                          <g id="GRID.text.1569.1.1.scale" transform="scale(1, -1)">
                                            <text x="0" y="0" id="GRID.text.1569.1.1.text" text-anchor="start" font-size="8.8" stroke="rgb(0,0,0)" font-family="Helvetica, Arial, FreeSans, Liberation Sans, Nimbus Sans L, sans-serif" fill="rgb(0,0,0)" stroke-opacity="1" fill-opacity="1" font-weight="normal" font-style="normal">
                                              <tspan id="GRID.text.1569.1.1.tspan.1" dy="3.23" x="0">medio (110)</tspan>
                                            </text>
                                          </g>
                                        </g>
                                      </g>
                                    </g>
                                  </g>
                                </g>
                              </g>
                            </g>
                          </g>
                        </g>
                      </g>
                    </g>
                  </g>
                </g>
              </g>
            </g>
          </g>
          <g id="layout::subtitle.4-5-4-5.1" class="viewport"/>
          <g id="layout::title.3-5-3-5.1" class="viewport">
            <g id="layout::title.3-5-3-5::GRID.VP.386.1" font-size="13.2" stroke="rgb(102,102,102)" font-family="Helvetica, Arial, FreeSans, Liberation Sans, Nimbus Sans L, sans-serif" stroke-opacity="1" font-weight="normal" font-style="normal" class="viewport">
              <g id="layout::title.3-5-3-5::GRID.VP.386::GRID.VP.387.1" class="viewport">
                <g id="title.3-5-3-5.1" class="forcedgrob gTableChild titleGrob gTree grob gDesc">
                  <g id="GRID.text.1589.1" class="text grob gDesc">
                    <g id="GRID.text.1589.1.1" transform="translate(203.72, 457.6)" stroke-width="0.1">
                      <g id="GRID.text.1589.1.1.scale" transform="scale(1, -1)">
                        <text x="0" y="0" id="GRID.text.1589.1.1.text" text-anchor="middle" font-size="13.2" stroke="rgb(102,102,102)" font-family="Helvetica, Arial, FreeSans, Liberation Sans, Nimbus Sans L, sans-serif" fill="rgb(102,102,102)" stroke-opacity="1" fill-opacity="1" font-weight="normal" font-style="normal">
                          <tspan id="GRID.text.1589.1.1.tspan.1" dy="9.33" x="0">anagrafica comunicazione</tspan>
                        </text>
                      </g>
                    </g>
                  </g>
                </g>
              </g>
            </g>
          </g>
          <g id="layout::caption.10-5-10-5.1" class="viewport"/>
          <g id="layout::tag.2-2-2-2.1" class="viewport"/>
        </g>
      </g>
    </g>
  </g>
</svg>