<?xml version="1.0" encoding="UTF-8"?>
<svg xmlns="http://www.w3.org/2000/svg" xmlns:xlink="http://www.w3.org/1999/xlink" width="504px" height="504px" viewBox="0 0 504 504" version="1.1">
  <metadata xmlns:gridsvg="http://www.stat.auckland.ac.nz/~paul/R/gridSVG/">
    <gridsvg:generator name="gridSVG" version="1.6-0" time="2019-01-15 00:28:25"/>
    <gridsvg:argument name="name" value="./latest_informaggio_csv/risultati/svg/anagrafica-problemi.svg"/>
    <gridsvg:argument name="exportCoords" value="none"/>
    <gridsvg:argument name="exportMappings" value="none"/>
    <gridsvg:argument name="exportJS" value="none"/>
    <gridsvg:argument name="res" value="72"/>
    <gridsvg:argument name="prefix" value=""/>
    <gridsvg:argument name="addClasses" value="TRUE"/>
    <gridsvg:argument name="indent" value="TRUE"/>
    <gridsvg:argument name="htmlWrapper" value="FALSE"/>
    <gridsvg:argument name="usePaths" value="vpPaths"/>
    <gridsvg:argument name="uniqueNames" value="TRUE"/>
    <gridsvg:separator name="id.sep" value="."/>
    <gridsvg:separator name="gPath.sep" value="::"/>
    <gridsvg:separator name="vpPath.sep" value="::"/>
  </metadata>
  <g transform="translate(0, 504) scale(1, -1)">
    <g id="gridSVG" fill="none" stroke="rgb(0,0,0)" stroke-dasharray="none" stroke-width="0.75" font-size="12" font-family="Helvetica, Arial, FreeSans, Liberation Sans, Nimbus Sans L, sans-serif" opacity="1" stroke-linecap="round" stroke-linejoin="round" stroke-miterlimit="10" stroke-opacity="1" fill-opacity="0" font-weight="normal" font-style="normal">
      <g id="layout.1" class="viewport">
        <g id="layout.2" class="forcedgrob gtable gTree grob gDesc">
          <defs>
            <clipPath id="layout::background.1-11-12-1.1.clipPath">
              <rect x="0" y="28.37" width="504" height="447.27" fill="none" stroke="none"/>
            </clipPath>
          </defs>
          <g id="layout::background.1-11-12-1.1" clip-path="url(#layout::background.1-11-12-1.1.clipPath)" class="viewport">
            <g id="background.1-11-12-1.1" class="forcedgrob gTableChild rect grob gDesc">
              <rect id="background.1-11-12-1.1.1" x="0" y="28.37" width="504" height="447.27" transform="" stroke-width="1.07" stroke="rgb(255,255,255)" fill="rgb(255,255,255)" stroke-dasharray="none" stroke-opacity="1" fill-opacity="1"/>
            </g>
          </g>
          <defs>
            <clipPath id="layout::panel.7-5-7-5.1.clipPath">
              <rect x="8.22" y="36.59" width="416.11" height="416.11" fill="none" stroke="none"/>
            </clipPath>
          </defs>
          <g id="layout::panel.7-5-7-5.1" clip-path="url(#layout::panel.7-5-7-5.1.clipPath)" class="viewport">
            <g id="panel.7-5-7-5.1" class="forcedgrob gTableChild gTree grob gDesc">
              <g id="grill.gTree.3105.1" class="gTree grob gDesc">
                <g id="panel.background..rect.3101.1" class="rect grob gDesc">
                  <rect id="panel.background..rect.3101.1.1" x="8.22" y="36.59" width="416.11" height="416.11" transform="" stroke-width="1.07" stroke="none" fill="rgb(255,255,255)" stroke-dasharray="none" stroke-opacity="0" fill-opacity="1"/>
                </g>
              </g>
              <g id="bar.gTree.3094.1" class="gTree grob gDesc">
                <g id="geom_polygon.polygon.3090.1" class="polygon grob gDesc">
                  <polygon id="geom_polygon.polygon.3090.1.1" points="216.28,244.64 210.54,244.71 204.8,244.78 199.06,244.84 193.32,244.91 187.58,244.98 181.84,245.04 176.1,245.11 170.36,245.18 164.62,245.24 158.88,245.31 153.15,245.38 147.41,245.44 141.67,245.51 135.93,245.58 130.19,245.64 124.45,245.71 118.71,245.78 112.97,245.85 107.23,245.91 101.49,245.98 95.75,246.05 90.02,246.11 84.28,246.18 78.54,246.25 72.8,246.31 67.06,246.38 61.32,246.45 55.58,246.51 49.84,246.58 49.87,240.92 50.09,235.27 50.51,229.63 51.11,224.01 51.91,218.41 52.9,212.84 54.07,207.3 55.44,201.81 56.98,196.37 58.72,190.99 60.63,185.66 62.72,180.41 65,175.23 67.44,170.13 70.06,165.12 72.85,160.19 75.8,155.37 78.91,150.65 82.19,146.03 85.61,141.53 89.19,137.15 92.92,132.9 96.79,128.77 100.79,124.78 104.93,120.92 109.2,117.21 113.59,113.65 118.1,110.23 122.73,106.97 127.46,103.87 132.29,100.94 137.23,98.17 142.25,95.57 147.36,93.14 152.54,90.88 157.81,88.81 163.13,86.91 168.53,85.19 173.97,83.66 179.47,82.32 185,81.16 190.58,80.19 196.18,79.42 201.8,78.83 207.45,78.43 213.1,78.23 218.76,78.22 224.41,78.4 230.05,78.77 235.68,79.33 241.29,80.09 246.86,81.03 252.41,82.17 257.91,83.49 263.36,85 268.76,86.69 274.09,88.56 279.36,90.62 284.56,92.85 289.68,95.26 294.71,97.84 299.66,100.59 304.5,103.5 309.25,106.58 313.88,109.82 318.41,113.22 322.82,116.76 327.1,120.46 331.26,124.29 335.28,128.27 339.16,132.38 342.91,136.62 346.5,140.99 349.95,145.47 353.24,150.07 356.38,154.78 359.35,159.59 362.16,164.5 364.8,169.51 367.26,174.6 369.56,179.77 371.67,185.01 373.61,190.33 375.36,195.71 376.94,201.14 378.32,206.62 379.52,212.15 380.53,217.72 381.35,223.31 381.98,228.94 382.42,234.58 382.66,240.23 382.72,245.88 382.58,251.54 382.25,257.18 381.73,262.82 381.01,268.43 380.11,274.01 379.02,279.56 377.74,285.07 376.27,290.54 374.62,295.95 372.78,301.3 370.77,306.58 368.57,311.79 366.2,316.93 363.66,321.98 360.95,326.95 358.07,331.82 355.02,336.58 351.82,341.24 348.46,345.79 344.95,350.23 341.28,354.54 337.48,358.72 333.53,362.78 329.45,366.69 325.24,370.47 320.9,374.1 316.44,377.58 311.86,380.9 307.18,384.07 302.39,387.08 297.5,389.92 292.52,392.6 287.44,395.11 282.29,397.44 277.06,399.59 271.76,401.57 266.4,403.36 260.97,404.97 255.5,406.4 249.98,407.64 244.42,408.69 238.83,409.55 233.22,410.22 227.58,410.7 221.93,410.99 216.28,411.09 216.28,405.35 216.28,399.61 216.28,393.87 216.28,388.13 216.28,382.39 216.28,376.65 216.28,370.91 216.28,365.17 216.28,359.43 216.28,353.69 216.28,347.95 216.28,342.21 216.28,336.47 216.28,330.74 216.28,325 216.28,319.26 216.28,313.52 216.28,307.78 216.28,302.04 216.28,296.3 216.28,290.56 216.28,284.82 216.28,279.08 216.28,273.34 216.28,267.6 216.28,261.86 216.28,256.12 216.28,250.38 216.28,244.64 216.28,244.64" stroke="none" fill="rgb(0,191,196)" stroke-width="1.07" stroke-dasharray="none" stroke-opacity="0" fill-opacity="1"/>
                </g>
                <g id="geom_polygon.polygon.3092.1" class="polygon grob gDesc">
                  <polygon id="geom_polygon.polygon.3092.1.1" points="216.28,244.64 216.28,250.38 216.28,256.12 216.28,261.86 216.28,267.6 216.28,273.34 216.28,279.08 216.28,284.82 216.28,290.56 216.28,296.3 216.28,302.04 216.28,307.78 216.28,313.52 216.28,319.26 216.28,325 216.28,330.74 216.28,336.47 216.28,342.21 216.28,347.95 216.28,353.69 216.28,359.43 216.28,365.17 216.28,370.91 216.28,376.65 216.28,382.39 216.28,388.13 216.28,393.87 216.28,399.61 216.28,405.35 216.28,411.09 210.64,410.99 205,410.71 199.38,410.23 193.78,409.56 188.2,408.7 182.66,407.66 177.15,406.43 171.69,405.01 166.28,403.4 160.93,401.62 155.65,399.65 150.43,397.51 145.28,395.19 140.22,392.7 135.25,390.04 130.37,387.21 125.59,384.21 120.91,381.06 116.34,377.75 111.89,374.29 107.56,370.67 103.35,366.92 99.27,363.02 95.32,358.99 91.52,354.82 87.86,350.53 84.34,346.12 80.98,341.59 77.77,336.95 74.72,332.2 71.84,327.35 69.12,322.41 66.57,317.38 64.19,312.27 61.98,307.07 59.95,301.81 58.11,296.48 56.44,291.09 54.96,285.64 53.66,280.15 52.55,274.62 51.63,269.06 50.9,263.46 50.36,257.85 50,252.22 49.84,246.58 55.58,246.51 61.32,246.45 67.06,246.38 72.8,246.31 78.54,246.25 84.28,246.18 90.02,246.11 95.75,246.05 101.49,245.98 107.23,245.91 112.97,245.85 118.71,245.78 124.45,245.71 130.19,245.64 135.93,245.58 141.67,245.51 147.41,245.44 153.15,245.38 158.88,245.31 164.62,245.24 170.36,245.18 176.1,245.11 181.84,245.04 187.58,244.98 193.32,244.91 199.06,244.84 204.8,244.78 210.54,244.71 216.28,244.64 216.28,244.64" stroke="none" fill="rgb(248,118,109)" stroke-width="1.07" stroke-dasharray="none" stroke-opacity="0" fill-opacity="1"/>
                </g>
              </g>
              <g id="GRID.text.3095.1" class="text grob gDesc">
                <g id="GRID.text.3095.1.1" transform="translate(274.78, 185.45)" stroke-width="0.1">
                  <g id="GRID.text.3095.1.1.scale" transform="scale(1, -1)">
                    <text x="0" y="0" id="GRID.text.3095.1.1.text" text-anchor="middle" stroke="rgb(0,0,0)" font-size="11.04" font-family="Helvetica, Arial, FreeSans, Liberation Sans, Nimbus Sans L, sans-serif" fill="rgb(0,0,0)" stroke-opacity="1" fill-opacity="1" font-weight="normal" font-style="normal">
                      <tspan id="GRID.text.3095.1.1.tspan.1" dy="3.95" x="0">203</tspan>
                    </text>
                  </g>
                </g>
                <g id="GRID.text.3095.1.2" transform="translate(157.77, 303.83)" stroke-width="0.1">
                  <g id="GRID.text.3095.1.2.scale" transform="scale(1, -1)">
                    <text x="0" y="0" id="GRID.text.3095.1.2.text" text-anchor="middle" stroke="rgb(0,0,0)" font-size="11.04" font-family="Helvetica, Arial, FreeSans, Liberation Sans, Nimbus Sans L, sans-serif" fill="rgb(0,0,0)" stroke-opacity="1" fill-opacity="1" font-weight="normal" font-style="normal">
                      <tspan id="GRID.text.3095.1.2.tspan.1" dy="3.95" x="0">67</tspan>
                    </text>
                  </g>
                </g>
              </g>
              <g id="GRID.gTree.3096.1" class="gTree grob gDesc"/>
            </g>
          </g>
          <g id="layout::spacer.8-6-8-6.1" class="viewport"/>
          <g id="layout::spacer.8-4-8-4.1" class="viewport"/>
          <g id="layout::spacer.6-6-6-6.1" class="viewport"/>
          <g id="layout::spacer.6-4-6-4.1" class="viewport"/>
          <g id="layout::axis-t.6-5-6-5.1" class="viewport"/>
          <g id="layout::axis-l.7-4-7-4.1" class="viewport">
            <g id="layout::axis-l.7-4-7-4::GRID.VP.746.1" class="viewport">
              <g id="axis-l.7-4-7-4.1" class="forcedgrob gTableChild absoluteGrob gTree grob gDesc">
                <g id="layout::axis-l.7-4-7-4::GRID.VP.746::axis.1" class="viewport">
                  <g id="axis.1" class="forcedgrob gtable gTree grob gDesc">
                    <g id="layout::axis-l.7-4-7-4::GRID.VP.746::axis::axis.1-1-1-1.1" class="viewport"/>
                    <g id="layout::axis-l.7-4-7-4::GRID.VP.746::axis::axis.1-2-1-2.1" class="viewport"/>
                  </g>
                </g>
              </g>
            </g>
          </g>
          <g id="layout::axis-r.7-6-7-6.1" class="viewport"/>
          <g id="layout::axis-b.8-5-8-5.1" class="viewport">
            <g id="layout::axis-b.8-5-8-5::GRID.VP.745.1" class="viewport">
              <g id="axis-b.8-5-8-5.1" class="forcedgrob gTableChild absoluteGrob gTree grob gDesc">
                <g id="layout::axis-b.8-5-8-5::GRID.VP.745::axis.1" class="viewport">
                  <g id="axis.2" class="forcedgrob gtable gTree grob gDesc">
                    <g id="layout::axis-b.8-5-8-5::GRID.VP.745::axis::axis.1-1-1-1.1" class="viewport"/>
                    <g id="layout::axis-b.8-5-8-5::GRID.VP.745::axis::axis.2-1-2-1.1" class="viewport"/>
                  </g>
                </g>
              </g>
            </g>
          </g>
          <g id="layout::xlab-t.5-5-5-5.1" class="viewport"/>
          <g id="layout::xlab-b.9-5-9-5.1" class="viewport"/>
          <g id="layout::ylab-l.7-3-7-3.1" class="viewport"/>
          <g id="layout::ylab-r.7-7-7-7.1" class="viewport"/>
          <g id="layout::guide-box.7-9-7-9.1" class="viewport">
            <g id="layout::guide-box.7-9-7-9::GRID.VP.754.1" class="viewport">
              <g id="layout::guide-box.7-9-7-9::GRID.VP.754::guide-box.7-9-7-9.1" class="viewport">
                <g id="guide-box.7-9-7-9.1" class="forcedgrob gTableChild gtable gTree grob gDesc">
                  <g id="layout::guide-box.7-9-7-9::GRID.VP.754::guide-box.7-9-7-9::legend.box.background.2-4-4-2.1" class="viewport"/>
                  <g id="layout::guide-box.7-9-7-9::GRID.VP.754::guide-box.7-9-7-9::guides.3-3-3-3.1" class="viewport">
                    <g id="layout::guide-box.7-9-7-9::GRID.VP.754::guide-box.7-9-7-9::guides.3-3-3-3::GRID.VP.753.1" class="viewport">
                      <g id="layout::guide-box.7-9-7-9::GRID.VP.754::guide-box.7-9-7-9::guides.3-3-3-3::GRID.VP.753::guides.3-3-3-3.1" class="viewport">
                        <g id="guides.3-3-3-3.1" class="forcedgrob gTableChild gtable gTree grob gDesc">
                          <g id="layout::guide-box.7-9-7-9::GRID.VP.754::guide-box.7-9-7-9::guides.3-3-3-3::GRID.VP.753::guides.3-3-3-3::background.1-6-6-1.1" class="viewport">
                            <g id="background.1-6-6-1.1" class="forcedgrob gTableChild rect grob gDesc">
                              <rect id="background.1-6-6-1.1.1" x="435.29" y="219.14" width="63.23" height="51" transform="" stroke-width="1.07" stroke="none" fill="rgb(255,255,255)" stroke-dasharray="none" stroke-opacity="0" fill-opacity="1"/>
                            </g>
                          </g>
                          <g id="layout::guide-box.7-9-7-9::GRID.VP.754::guide-box.7-9-7-9::guides.3-3-3-3::GRID.VP.753::guides.3-3-3-3::title.2-5-2-2.1" class="viewport"/>
                          <g id="layout::guide-box.7-9-7-9::GRID.VP.754::guide-box.7-9-7-9::guides.3-3-3-3::GRID.VP.753::guides.3-3-3-3::key-3-1-bg.4-2-4-2.1" class="viewport"/>
                          <g id="layout::guide-box.7-9-7-9::GRID.VP.754::guide-box.7-9-7-9::guides.3-3-3-3::GRID.VP.753::guides.3-3-3-3::key-3-1-1.4-2-4-2.1" class="viewport">
                            <g id="key-3-1-1.4-2-4-2.1" class="forcedgrob gTableChild rect grob gDesc">
                              <rect id="key-3-1-1.4-2-4-2.1.1" x="441.48" y="242.61" width="15.86" height="15.86" transform="" stroke="none" fill="rgb(248,118,109)" stroke-dasharray="none" stroke-width="1.07" stroke-linejoin="miter" stroke-opacity="0" fill-opacity="1"/>
                            </g>
                          </g>
                          <g id="layout::guide-box.7-9-7-9::GRID.VP.754::guide-box.7-9-7-9::guides.3-3-3-3::GRID.VP.753::guides.3-3-3-3::key-4-1-bg.5-2-5-2.1" class="viewport"/>
                          <g id="layout::guide-box.7-9-7-9::GRID.VP.754::guide-box.7-9-7-9::guides.3-3-3-3::GRID.VP.753::guides.3-3-3-3::key-4-1-1.5-2-5-2.1" class="viewport">
                            <g id="key-4-1-1.5-2-5-2.1" class="forcedgrob gTableChild rect grob gDesc">
                              <rect id="key-4-1-1.5-2-5-2.1.1" x="441.48" y="225.33" width="15.86" height="15.86" transform="" stroke="none" fill="rgb(0,191,196)" stroke-dasharray="none" stroke-width="1.07" stroke-linejoin="miter" stroke-opacity="0" fill-opacity="1"/>
                            </g>
                          </g>
                          <g id="layout::guide-box.7-9-7-9::GRID.VP.754::guide-box.7-9-7-9::guides.3-3-3-3::GRID.VP.753::guides.3-3-3-3::label-3-3.4-4-4-4.1" class="viewport">
                            <g id="layout::guide-box.7-9-7-9::GRID.VP.754::guide-box.7-9-7-9::guides.3-3-3-3::GRID.VP.753::guides.3-3-3-3::label-3-3.4-4-4-4::GRID.VP.751.1" class="viewport">
                              <g id="label-3-3.4-4-4-4.1" class="forcedgrob gTableChild gTree grob gDesc">
                                <g id="layout::guide-box.7-9-7-9::GRID.VP.754::guide-box.7-9-7-9::guides.3-3-3-3::GRID.VP.753::guides.3-3-3-3::label-3-3.4-4-4-4::GRID.VP.751::GRID.VP.747.1" font-size="8.8" stroke="rgb(0,0,0)" font-family="Helvetica, Arial, FreeSans, Liberation Sans, Nimbus Sans L, sans-serif" stroke-opacity="1" font-weight="normal" font-style="normal" class="viewport">
                                  <g id="layout::guide-box.7-9-7-9::GRID.VP.754::guide-box.7-9-7-9::guides.3-3-3-3::GRID.VP.753::guides.3-3-3-3::label-3-3.4-4-4-4::GRID.VP.751::GRID.VP.747::GRID.VP.748.1" class="viewport">
                                    <g id="guide.label.titleGrob.3119.1" class="titleGrob gTree grob gDesc">
                                      <g id="GRID.text.3117.1" class="text grob gDesc">
                                        <g id="GRID.text.3117.1.1" transform="translate(463.53, 250.54)" stroke-width="0.1">
                                          <g id="GRID.text.3117.1.1.scale" transform="scale(1, -1)">
                                            <text x="0" y="0" id="GRID.text.3117.1.1.text" text-anchor="start" font-size="8.8" stroke="rgb(0,0,0)" font-family="Helvetica, Arial, FreeSans, Liberation Sans, Nimbus Sans L, sans-serif" fill="rgb(0,0,0)" stroke-opacity="1" fill-opacity="1" font-weight="normal" font-style="normal">
                                              <tspan id="GRID.text.3117.1.1.tspan.1" dy="3.23" x="0">N (67)</tspan>
                                            </text>
                                          </g>
                                        </g>
                                      </g>
                                    </g>
                                  </g>
                                </g>
                              </g>
                            </g>
                          </g>
                          <g id="layout::guide-box.7-9-7-9::GRID.VP.754::guide-box.7-9-7-9::guides.3-3-3-3::GRID.VP.753::guides.3-3-3-3::label-4-3.5-4-5-4.1" class="viewport">
                            <g id="layout::guide-box.7-9-7-9::GRID.VP.754::guide-box.7-9-7-9::guides.3-3-3-3::GRID.VP.753::guides.3-3-3-3::label-4-3.5-4-5-4::GRID.VP.752.1" class="viewport">
                              <g id="label-4-3.5-4-5-4.1" class="forcedgrob gTableChild gTree grob gDesc">
                                <g id="layout::guide-box.7-9-7-9::GRID.VP.754::guide-box.7-9-7-9::guides.3-3-3-3::GRID.VP.753::guides.3-3-3-3::label-4-3.5-4-5-4::GRID.VP.752::GRID.VP.749.1" font-size="8.8" stroke="rgb(0,0,0)" font-family="Helvetica, Arial, FreeSans, Liberation Sans, Nimbus Sans L, sans-serif" stroke-opacity="1" font-weight="normal" font-style="normal" class="viewport">
                                  <g id="layout::guide-box.7-9-7-9::GRID.VP.754::guide-box.7-9-7-9::guides.3-3-3-3::GRID.VP.753::guides.3-3-3-3::label-4-3.5-4-5-4::GRID.VP.752::GRID.VP.749::GRID.VP.750.1" class="viewport">
                                    <g id="guide.label.titleGrob.3122.1" class="titleGrob gTree grob gDesc">
                                      <g id="GRID.text.3120.1" class="text grob gDesc">
                                        <g id="GRID.text.3120.1.1" transform="translate(463.53, 233.26)" stroke-width="0.1">
                                          <g id="GRID.text.3120.1.1.scale" transform="scale(1, -1)">
                                            <text x="0" y="0" id="GRID.text.3120.1.1.text" text-anchor="start" font-size="8.8" stroke="rgb(0,0,0)" font-family="Helvetica, Arial, FreeSans, Liberation Sans, Nimbus Sans L, sans-serif" fill="rgb(0,0,0)" stroke-opacity="1" fill-opacity="1" font-weight="normal" font-style="normal">
                                              <tspan id="GRID.text.3120.1.1.tspan.1" dy="3.23" x="0">S (203)</tspan>
                                            </text>
                                          </g>
                                        </g>
                                      </g>
                                    </g>
                                  </g>
                                </g>
                              </g>
                            </g>
                          </g>
                        </g>
                      </g>
                    </g>
                  </g>
                </g>
              </g>
            </g>
          </g>
          <g id="layout::subtitle.4-5-4-5.1" class="viewport"/>
          <g id="layout::title.3-5-3-5.1" class="viewport">
            <g id="layout::title.3-5-3-5::GRID.VP.755.1" font-size="13.2" stroke="rgb(102,102,102)" font-family="Helvetica, Arial, FreeSans, Liberation Sans, Nimbus Sans L, sans-serif" stroke-opacity="1" font-weight="normal" font-style="normal" class="viewport">
              <g id="layout::title.3-5-3-5::GRID.VP.755::GRID.VP.756.1" class="viewport">
                <g id="title.3-5-3-5.1" class="forcedgrob gTableChild titleGrob gTree grob gDesc">
                  <g id="GRID.text.3131.1" class="text grob gDesc">
                    <g id="GRID.text.3131.1.1" transform="translate(216.28, 470.15)" stroke-width="0.1">
                      <g id="GRID.text.3131.1.1.scale" transform="scale(1, -1)">
                        <text x="0" y="0" id="GRID.text.3131.1.1.text" text-anchor="middle" font-size="13.2" stroke="rgb(102,102,102)" font-family="Helvetica, Arial, FreeSans, Liberation Sans, Nimbus Sans L, sans-serif" fill="rgb(102,102,102)" stroke-opacity="1" fill-opacity="1" font-weight="normal" font-style="normal">
                          <tspan id="GRID.text.3131.1.1.tspan.1" dy="9.33" x="0">anagrafica problemi</tspan>
                        </text>
                      </g>
                    </g>
                  </g>
                </g>
              </g>
            </g>
          </g>
          <g id="layout::caption.10-5-10-5.1" class="viewport"/>
          <g id="layout::tag.2-2-2-2.1" class="viewport"/>
        </g>
      </g>
    </g>
  </g>
</svg>