<?xml version="1.0" encoding="UTF-8"?>
<svg xmlns="http://www.w3.org/2000/svg" xmlns:xlink="http://www.w3.org/1999/xlink" width="504px" height="504px" viewBox="0 0 504 504" version="1.1">
  <metadata xmlns:gridsvg="http://www.stat.auckland.ac.nz/~paul/R/gridSVG/">
    <gridsvg:generator name="gridSVG" version="1.6-0" time="2019-01-18 23:13:10"/>
    <gridsvg:argument name="name" value="./latest_informaggio_csv/risultati/svg/anagrafica-altrodispositivo.svg"/>
    <gridsvg:argument name="exportCoords" value="none"/>
    <gridsvg:argument name="exportMappings" value="none"/>
    <gridsvg:argument name="exportJS" value="none"/>
    <gridsvg:argument name="res" value="72"/>
    <gridsvg:argument name="prefix" value=""/>
    <gridsvg:argument name="addClasses" value="TRUE"/>
    <gridsvg:argument name="indent" value="TRUE"/>
    <gridsvg:argument name="htmlWrapper" value="FALSE"/>
    <gridsvg:argument name="usePaths" value="vpPaths"/>
    <gridsvg:argument name="uniqueNames" value="TRUE"/>
    <gridsvg:separator name="id.sep" value="."/>
    <gridsvg:separator name="gPath.sep" value="::"/>
    <gridsvg:separator name="vpPath.sep" value="::"/>
  </metadata>
  <g transform="translate(0, 504) scale(1, -1)">
    <g id="gridSVG" fill="none" stroke="rgb(0,0,0)" stroke-dasharray="none" stroke-width="0.75" font-size="12" font-family="Helvetica, Arial, FreeSans, Liberation Sans, Nimbus Sans L, sans-serif" opacity="1" stroke-linecap="round" stroke-linejoin="round" stroke-miterlimit="10" stroke-opacity="1" fill-opacity="0" font-weight="normal" font-style="normal">
      <g id="layout.1" class="viewport">
        <g id="layout.2" class="forcedgrob gtable gTree grob gDesc">
          <defs>
            <clipPath id="layout::background.1-11-12-1.1.clipPath">
              <rect x="0" y="64.97" width="504" height="374.05" fill="none" stroke="none"/>
            </clipPath>
          </defs>
          <g id="layout::background.1-11-12-1.1" clip-path="url(#layout::background.1-11-12-1.1.clipPath)" class="viewport">
            <g id="background.1-11-12-1.1" class="forcedgrob gTableChild rect grob gDesc">
              <rect id="background.1-11-12-1.1.1" x="0" y="64.97" width="504" height="374.05" transform="" stroke-width="1.07" stroke="rgb(255,255,255)" fill="rgb(255,255,255)" stroke-dasharray="none" stroke-opacity="1" fill-opacity="1"/>
            </g>
          </g>
          <defs>
            <clipPath id="layout::panel.7-5-7-5.1.clipPath">
              <rect x="8.22" y="73.19" width="342.9" height="342.9" fill="none" stroke="none"/>
            </clipPath>
          </defs>
          <g id="layout::panel.7-5-7-5.1" clip-path="url(#layout::panel.7-5-7-5.1.clipPath)" class="viewport">
            <g id="panel.7-5-7-5.1" class="forcedgrob gTableChild gTree grob gDesc">
              <g id="grill.gTree.131.1" class="gTree grob gDesc">
                <g id="panel.background..rect.127.1" class="rect grob gDesc">
                  <rect id="panel.background..rect.127.1.1" x="8.22" y="73.19" width="342.9" height="342.9" transform="" stroke-width="1.07" stroke="none" fill="rgb(255,255,255)" stroke-dasharray="none" stroke-opacity="0" fill-opacity="1"/>
                </g>
              </g>
              <g id="bar.gTree.120.1" class="gTree grob gDesc">
                <g id="geom_polygon.polygon.116.1" class="polygon grob gDesc">
                  <polygon id="geom_polygon.polygon.116.1.1" points="179.67,244.64 179.56,249.37 179.45,254.1 179.34,258.83 179.23,263.56 179.12,268.28 179.01,273.01 178.9,277.74 178.79,282.47 178.68,287.2 178.57,291.93 178.46,296.65 178.35,301.38 178.24,306.11 178.13,310.84 178.02,315.57 177.91,320.3 177.8,325.03 177.69,329.75 177.58,334.48 177.47,339.21 177.36,343.94 177.25,348.67 177.14,353.4 177.03,358.12 176.92,362.85 176.81,367.58 176.7,372.31 176.59,377.04 176.48,381.77 171.84,381.58 167.21,381.24 162.6,380.74 158,380.08 153.43,379.27 148.89,378.31 144.39,377.19 139.93,375.92 135.51,374.5 131.14,372.93 126.83,371.22 122.58,369.36 118.39,367.35 114.27,365.21 110.23,362.93 106.27,360.51 102.39,357.96 98.6,355.28 94.91,352.48 91.31,349.55 87.81,346.5 84.41,343.33 81.13,340.05 77.96,336.66 74.9,333.17 71.97,329.58 69.16,325.88 66.47,322.1 63.92,318.22 61.49,314.27 59.21,310.23 57.06,306.12 55.05,301.93 53.18,297.68 51.46,293.37 49.88,289.01 48.46,284.59 47.18,280.13 46.05,275.63 45.08,271.09 44.27,266.52 43.6,261.93 43.1,257.31 42.75,252.69 42.55,248.05 42.51,243.41 42.63,238.77 42.91,234.14 43.35,229.52 43.94,224.91 44.68,220.33 45.58,215.78 46.63,211.26 47.84,206.78 49.2,202.34 50.7,197.95 52.35,193.61 54.15,189.34 56.1,185.12 58.18,180.98 60.4,176.9 62.76,172.91 65.26,168.99 67.88,165.16 70.64,161.43 73.51,157.79 76.51,154.25 79.63,150.81 82.86,147.48 86.2,144.26 89.65,141.15 93.21,138.17 96.86,135.3 100.61,132.56 104.44,129.95 108.37,127.47 112.37,125.13 116.45,122.92 120.61,120.85 124.83,118.92 129.11,117.14 133.45,115.5 137.85,114.01 142.29,112.67 146.78,111.49 151.3,110.45 155.86,109.57 160.44,108.84 165.05,108.27 169.67,107.85 174.3,107.59 178.94,107.49 183.58,107.54 188.22,107.75 192.85,108.12 197.46,108.64 202.05,109.32 206.61,110.16 211.15,111.15 215.65,112.29 220.1,113.58 224.51,115.02 228.87,116.61 233.18,118.35 237.42,120.23 241.59,122.26 245.7,124.42 249.73,126.73 253.68,129.17 257.54,131.74 261.32,134.43 265,137.26 268.58,140.21 272.07,143.28 275.44,146.46 278.71,149.76 281.86,153.16 284.9,156.67 287.81,160.28 290.61,163.99 293.27,167.79 295.81,171.67 298.21,175.65 300.48,179.7 302.6,183.82 304.59,188.01 306.44,192.27 308.13,196.59 309.69,200.96 311.09,205.39 312.34,209.86 313.44,214.37 314.39,218.91 315.19,223.48 315.82,228.08 316.31,232.69 316.63,237.32 316.8,241.96 316.81,246.6 316.67,251.24 316.37,255.87 315.91,260.49 315.29,265.09 314.53,269.67 313.6,274.21 312.52,278.73 311.3,283.2 309.92,287.63 308.39,292.02 306.71,296.34 304.89,300.61 302.92,304.82 300.82,308.95 298.57,313.01 296.19,317 293.68,320.9 291.03,324.71 288.26,328.43 285.36,332.06 282.34,335.58 279.21,339.01 275.96,342.32 272.6,345.52 269.13,348.61 265.57,351.57 261.9,354.42 258.14,357.14 254.29,359.73 250.35,362.19 246.33,364.51 242.24,366.7 238.08,368.74 233.84,370.65 229.55,372.41 225.2,374.02 220.8,375.49 216.35,376.81 211.85,377.97 207.32,378.99 202.76,379.84 198.18,380.55 193.57,381.1 188.94,381.49 184.31,381.72 179.67,381.8 179.67,377.07 179.67,372.34 179.67,367.61 179.67,362.88 179.67,358.15 179.67,353.42 179.67,348.69 179.67,343.97 179.67,339.24 179.67,334.51 179.67,329.78 179.67,325.05 179.67,320.32 179.67,315.59 179.67,310.86 179.67,306.13 179.67,301.4 179.67,296.67 179.67,291.94 179.67,287.21 179.67,282.48 179.67,277.75 179.67,273.02 179.67,268.29 179.67,263.56 179.67,258.83 179.67,254.1 179.67,249.37 179.67,244.64 179.67,244.64" stroke="none" fill="rgb(0,191,196)" stroke-width="1.07" stroke-dasharray="none" stroke-opacity="0" fill-opacity="1"/>
                </g>
                <g id="geom_polygon.polygon.118.1" class="polygon grob gDesc">
                  <polygon id="geom_polygon.polygon.118.1.1" points="179.67,244.64 179.67,249.37 179.67,254.1 179.67,258.83 179.67,263.56 179.67,268.29 179.67,273.02 179.67,277.75 179.67,282.48 179.67,287.21 179.67,291.94 179.67,296.67 179.67,301.4 179.67,306.13 179.67,310.86 179.67,315.59 179.67,320.32 179.67,325.05 179.67,329.78 179.67,334.51 179.67,339.24 179.67,343.97 179.67,348.69 179.67,353.42 179.67,358.15 179.67,362.88 179.67,367.61 179.67,372.34 179.67,377.07 179.67,381.8 176.48,381.77 176.59,377.04 176.7,372.31 176.81,367.58 176.92,362.85 177.03,358.12 177.14,353.4 177.25,348.67 177.36,343.94 177.47,339.21 177.58,334.48 177.69,329.75 177.8,325.03 177.91,320.3 178.02,315.57 178.13,310.84 178.24,306.11 178.35,301.38 178.46,296.65 178.57,291.93 178.68,287.2 178.79,282.47 178.9,277.74 179.01,273.01 179.12,268.28 179.23,263.56 179.34,258.83 179.45,254.1 179.56,249.37 179.67,244.64 179.67,244.64" stroke="none" fill="rgb(248,118,109)" stroke-width="1.07" stroke-dasharray="none" stroke-opacity="0" fill-opacity="1"/>
                </g>
              </g>
              <g id="GRID.text.121.1" class="text grob gDesc">
                <g id="GRID.text.121.1.1" transform="translate(180.47, 176.07)" stroke-width="0.1">
                  <g id="GRID.text.121.1.1.scale" transform="scale(1, -1)">
                    <text x="0" y="0" id="GRID.text.121.1.1.text" text-anchor="middle" stroke="rgb(0,0,0)" font-size="11.04" font-family="Helvetica, Arial, FreeSans, Liberation Sans, Nimbus Sans L, sans-serif" fill="rgb(0,0,0)" stroke-opacity="1" fill-opacity="1" font-weight="normal" font-style="normal">
                      <tspan id="GRID.text.121.1.1.tspan.1" dy="3.95" x="0">269</tspan>
                    </text>
                  </g>
                </g>
                <g id="GRID.text.121.1.2" transform="translate(178.87, 313.22)" stroke-width="0.1">
                  <g id="GRID.text.121.1.2.scale" transform="scale(1, -1)">
                    <text x="0" y="0" id="GRID.text.121.1.2.text" text-anchor="middle" stroke="rgb(0,0,0)" font-size="11.04" font-family="Helvetica, Arial, FreeSans, Liberation Sans, Nimbus Sans L, sans-serif" fill="rgb(0,0,0)" stroke-opacity="1" fill-opacity="1" font-weight="normal" font-style="normal">
                      <tspan id="GRID.text.121.1.2.tspan.1" dy="3.95" x="0">1</tspan>
                    </text>
                  </g>
                </g>
              </g>
              <g id="GRID.gTree.122.1" class="gTree grob gDesc"/>
            </g>
          </g>
          <g id="layout::spacer.8-6-8-6.1" class="viewport"/>
          <g id="layout::spacer.8-4-8-4.1" class="viewport"/>
          <g id="layout::spacer.6-6-6-6.1" class="viewport"/>
          <g id="layout::spacer.6-4-6-4.1" class="viewport"/>
          <g id="layout::axis-t.6-5-6-5.1" class="viewport"/>
          <g id="layout::axis-l.7-4-7-4.1" class="viewport">
            <g id="layout::axis-l.7-4-7-4::GRID.VP.29.1" class="viewport">
              <g id="axis-l.7-4-7-4.1" class="forcedgrob gTableChild absoluteGrob gTree grob gDesc">
                <g id="layout::axis-l.7-4-7-4::GRID.VP.29::axis.1" class="viewport">
                  <g id="axis.1" class="forcedgrob gtable gTree grob gDesc">
                    <g id="layout::axis-l.7-4-7-4::GRID.VP.29::axis::axis.1-1-1-1.1" class="viewport"/>
                    <g id="layout::axis-l.7-4-7-4::GRID.VP.29::axis::axis.1-2-1-2.1" class="viewport"/>
                  </g>
                </g>
              </g>
            </g>
          </g>
          <g id="layout::axis-r.7-6-7-6.1" class="viewport"/>
          <g id="layout::axis-b.8-5-8-5.1" class="viewport">
            <g id="layout::axis-b.8-5-8-5::GRID.VP.28.1" class="viewport">
              <g id="axis-b.8-5-8-5.1" class="forcedgrob gTableChild absoluteGrob gTree grob gDesc">
                <g id="layout::axis-b.8-5-8-5::GRID.VP.28::axis.1" class="viewport">
                  <g id="axis.2" class="forcedgrob gtable gTree grob gDesc">
                    <g id="layout::axis-b.8-5-8-5::GRID.VP.28::axis::axis.1-1-1-1.1" class="viewport"/>
                    <g id="layout::axis-b.8-5-8-5::GRID.VP.28::axis::axis.2-1-2-1.1" class="viewport"/>
                  </g>
                </g>
              </g>
            </g>
          </g>
          <g id="layout::xlab-t.5-5-5-5.1" class="viewport"/>
          <g id="layout::xlab-b.9-5-9-5.1" class="viewport"/>
          <g id="layout::ylab-l.7-3-7-3.1" class="viewport"/>
          <g id="layout::ylab-r.7-7-7-7.1" class="viewport"/>
          <g id="layout::guide-box.7-9-7-9.1" class="viewport">
            <g id="layout::guide-box.7-9-7-9::GRID.VP.37.1" class="viewport">
              <g id="layout::guide-box.7-9-7-9::GRID.VP.37::guide-box.7-9-7-9.1" class="viewport">
                <g id="guide-box.7-9-7-9.1" class="forcedgrob gTableChild gtable gTree grob gDesc">
                  <g id="layout::guide-box.7-9-7-9::GRID.VP.37::guide-box.7-9-7-9::legend.box.background.2-4-4-2.1" class="viewport"/>
                  <g id="layout::guide-box.7-9-7-9::GRID.VP.37::guide-box.7-9-7-9::guides.3-3-3-3.1" class="viewport">
                    <g id="layout::guide-box.7-9-7-9::GRID.VP.37::guide-box.7-9-7-9::guides.3-3-3-3::GRID.VP.36.1" class="viewport">
                      <g id="layout::guide-box.7-9-7-9::GRID.VP.37::guide-box.7-9-7-9::guides.3-3-3-3::GRID.VP.36::guides.3-3-3-3.1" class="viewport">
                        <g id="guides.3-3-3-3.1" class="forcedgrob gTableChild gtable gTree grob gDesc">
                          <g id="layout::guide-box.7-9-7-9::GRID.VP.37::guide-box.7-9-7-9::guides.3-3-3-3::GRID.VP.36::guides.3-3-3-3::background.1-6-6-1.1" class="viewport">
                            <g id="background.1-6-6-1.1" class="forcedgrob gTableChild rect grob gDesc">
                              <rect id="background.1-6-6-1.1.1" x="362.08" y="219.14" width="136.44" height="51" transform="" stroke-width="1.07" stroke="none" fill="rgb(255,255,255)" stroke-dasharray="none" stroke-opacity="0" fill-opacity="1"/>
                            </g>
                          </g>
                          <g id="layout::guide-box.7-9-7-9::GRID.VP.37::guide-box.7-9-7-9::guides.3-3-3-3::GRID.VP.36::guides.3-3-3-3::title.2-5-2-2.1" class="viewport"/>
                          <g id="layout::guide-box.7-9-7-9::GRID.VP.37::guide-box.7-9-7-9::guides.3-3-3-3::GRID.VP.36::guides.3-3-3-3::key-3-1-bg.4-2-4-2.1" class="viewport"/>
                          <g id="layout::guide-box.7-9-7-9::GRID.VP.37::guide-box.7-9-7-9::guides.3-3-3-3::GRID.VP.36::guides.3-3-3-3::key-3-1-1.4-2-4-2.1" class="viewport">
                            <g id="key-3-1-1.4-2-4-2.1" class="forcedgrob gTableChild rect grob gDesc">
                              <rect id="key-3-1-1.4-2-4-2.1.1" x="368.26" y="242.61" width="15.86" height="15.86" transform="" stroke="none" fill="rgb(248,118,109)" stroke-dasharray="none" stroke-width="1.07" stroke-linejoin="miter" stroke-opacity="0" fill-opacity="1"/>
                            </g>
                          </g>
                          <g id="layout::guide-box.7-9-7-9::GRID.VP.37::guide-box.7-9-7-9::guides.3-3-3-3::GRID.VP.36::guides.3-3-3-3::key-4-1-bg.5-2-5-2.1" class="viewport"/>
                          <g id="layout::guide-box.7-9-7-9::GRID.VP.37::guide-box.7-9-7-9::guides.3-3-3-3::GRID.VP.36::guides.3-3-3-3::key-4-1-1.5-2-5-2.1" class="viewport">
                            <g id="key-4-1-1.5-2-5-2.1" class="forcedgrob gTableChild rect grob gDesc">
                              <rect id="key-4-1-1.5-2-5-2.1.1" x="368.26" y="225.33" width="15.86" height="15.86" transform="" stroke="none" fill="rgb(0,191,196)" stroke-dasharray="none" stroke-width="1.07" stroke-linejoin="miter" stroke-opacity="0" fill-opacity="1"/>
                            </g>
                          </g>
                          <g id="layout::guide-box.7-9-7-9::GRID.VP.37::guide-box.7-9-7-9::guides.3-3-3-3::GRID.VP.36::guides.3-3-3-3::label-3-3.4-4-4-4.1" class="viewport">
                            <g id="layout::guide-box.7-9-7-9::GRID.VP.37::guide-box.7-9-7-9::guides.3-3-3-3::GRID.VP.36::guides.3-3-3-3::label-3-3.4-4-4-4::GRID.VP.34.1" class="viewport">
                              <g id="label-3-3.4-4-4-4.1" class="forcedgrob gTableChild gTree grob gDesc">
                                <g id="layout::guide-box.7-9-7-9::GRID.VP.37::guide-box.7-9-7-9::guides.3-3-3-3::GRID.VP.36::guides.3-3-3-3::label-3-3.4-4-4-4::GRID.VP.34::GRID.VP.30.1" font-size="8.8" stroke="rgb(0,0,0)" font-family="Helvetica, Arial, FreeSans, Liberation Sans, Nimbus Sans L, sans-serif" stroke-opacity="1" font-weight="normal" font-style="normal" class="viewport">
                                  <g id="layout::guide-box.7-9-7-9::GRID.VP.37::guide-box.7-9-7-9::guides.3-3-3-3::GRID.VP.36::guides.3-3-3-3::label-3-3.4-4-4-4::GRID.VP.34::GRID.VP.30::GRID.VP.31.1" class="viewport">
                                    <g id="guide.label.titleGrob.145.1" class="titleGrob gTree grob gDesc">
                                      <g id="GRID.text.143.1" class="text grob gDesc">
                                        <g id="GRID.text.143.1.1" transform="translate(390.32, 250.54)" stroke-width="0.1">
                                          <g id="GRID.text.143.1.1.scale" transform="scale(1, -1)">
                                            <text x="0" y="0" id="GRID.text.143.1.1.text" text-anchor="start" font-size="8.8" stroke="rgb(0,0,0)" font-family="Helvetica, Arial, FreeSans, Liberation Sans, Nimbus Sans L, sans-serif" fill="rgb(0,0,0)" stroke-opacity="1" fill-opacity="1" font-weight="normal" font-style="normal">
                                              <tspan id="GRID.text.143.1.1.tspan.1" dy="3.23" x="0">Sia portatile che tablet (1)</tspan>
                                            </text>
                                          </g>
                                        </g>
                                      </g>
                                    </g>
                                  </g>
                                </g>
                              </g>
                            </g>
                          </g>
                          <g id="layout::guide-box.7-9-7-9::GRID.VP.37::guide-box.7-9-7-9::guides.3-3-3-3::GRID.VP.36::guides.3-3-3-3::label-4-3.5-4-5-4.1" class="viewport">
                            <g id="layout::guide-box.7-9-7-9::GRID.VP.37::guide-box.7-9-7-9::guides.3-3-3-3::GRID.VP.36::guides.3-3-3-3::label-4-3.5-4-5-4::GRID.VP.35.1" class="viewport">
                              <g id="label-4-3.5-4-5-4.1" class="forcedgrob gTableChild gTree grob gDesc">
                                <g id="layout::guide-box.7-9-7-9::GRID.VP.37::guide-box.7-9-7-9::guides.3-3-3-3::GRID.VP.36::guides.3-3-3-3::label-4-3.5-4-5-4::GRID.VP.35::GRID.VP.32.1" font-size="8.8" stroke="rgb(0,0,0)" font-family="Helvetica, Arial, FreeSans, Liberation Sans, Nimbus Sans L, sans-serif" stroke-opacity="1" font-weight="normal" font-style="normal" class="viewport">
                                  <g id="layout::guide-box.7-9-7-9::GRID.VP.37::guide-box.7-9-7-9::guides.3-3-3-3::GRID.VP.36::guides.3-3-3-3::label-4-3.5-4-5-4::GRID.VP.35::GRID.VP.32::GRID.VP.33.1" class="viewport">
                                    <g id="guide.label.titleGrob.148.1" class="titleGrob gTree grob gDesc">
                                      <g id="GRID.text.146.1" class="text grob gDesc">
                                        <g id="GRID.text.146.1.1" transform="translate(390.32, 233.26)" stroke-width="0.1">
                                          <g id="GRID.text.146.1.1.scale" transform="scale(1, -1)">
                                            <text x="0" y="0" id="GRID.text.146.1.1.text" text-anchor="start" font-size="8.8" stroke="rgb(0,0,0)" font-family="Helvetica, Arial, FreeSans, Liberation Sans, Nimbus Sans L, sans-serif" fill="rgb(0,0,0)" stroke-opacity="1" fill-opacity="1" font-weight="normal" font-style="normal">
                                              <tspan id="GRID.text.146.1.1.tspan.1" dy="3.23" x="0">NA (269)</tspan>
                                            </text>
                                          </g>
                                        </g>
                                      </g>
                                    </g>
                                  </g>
                                </g>
                              </g>
                            </g>
                          </g>
                        </g>
                      </g>
                    </g>
                  </g>
                </g>
              </g>
            </g>
          </g>
          <g id="layout::subtitle.4-5-4-5.1" class="viewport"/>
          <g id="layout::title.3-5-3-5.1" class="viewport">
            <g id="layout::title.3-5-3-5::GRID.VP.38.1" font-size="13.2" stroke="rgb(102,102,102)" font-family="Helvetica, Arial, FreeSans, Liberation Sans, Nimbus Sans L, sans-serif" stroke-opacity="1" font-weight="normal" font-style="normal" class="viewport">
              <g id="layout::title.3-5-3-5::GRID.VP.38::GRID.VP.39.1" class="viewport">
                <g id="title.3-5-3-5.1" class="forcedgrob gTableChild titleGrob gTree grob gDesc">
                  <g id="GRID.text.157.1" class="text grob gDesc">
                    <g id="GRID.text.157.1.1" transform="translate(179.67, 433.55)" stroke-width="0.1">
                      <g id="GRID.text.157.1.1.scale" transform="scale(1, -1)">
                        <text x="0" y="0" id="GRID.text.157.1.1.text" text-anchor="middle" font-size="13.2" stroke="rgb(102,102,102)" font-family="Helvetica, Arial, FreeSans, Liberation Sans, Nimbus Sans L, sans-serif" fill="rgb(102,102,102)" stroke-opacity="1" fill-opacity="1" font-weight="normal" font-style="normal">
                          <tspan id="GRID.text.157.1.1.tspan.1" dy="9.33" x="0">anagrafica altrodispositivo</tspan>
                        </text>
                      </g>
                    </g>
                  </g>
                </g>
              </g>
            </g>
          </g>
          <g id="layout::caption.10-5-10-5.1" class="viewport"/>
          <g id="layout::tag.2-2-2-2.1" class="viewport"/>
        </g>
      </g>
    </g>
  </g>
</svg>