<?xml version="1.0" encoding="UTF-8"?>
<svg xmlns="http://www.w3.org/2000/svg" xmlns:xlink="http://www.w3.org/1999/xlink" width="504px" height="504px" viewBox="0 0 504 504" version="1.1">
  <metadata xmlns:gridsvg="http://www.stat.auckland.ac.nz/~paul/R/gridSVG/">
    <gridsvg:generator name="gridSVG" version="1.6-0" time="2019-01-18 23:13:34"/>
    <gridsvg:argument name="name" value="./latest_informaggio_csv/risultati/svg/anagrafica-espertouniversita.svg"/>
    <gridsvg:argument name="exportCoords" value="none"/>
    <gridsvg:argument name="exportMappings" value="none"/>
    <gridsvg:argument name="exportJS" value="none"/>
    <gridsvg:argument name="res" value="72"/>
    <gridsvg:argument name="prefix" value=""/>
    <gridsvg:argument name="addClasses" value="TRUE"/>
    <gridsvg:argument name="indent" value="TRUE"/>
    <gridsvg:argument name="htmlWrapper" value="FALSE"/>
    <gridsvg:argument name="usePaths" value="vpPaths"/>
    <gridsvg:argument name="uniqueNames" value="TRUE"/>
    <gridsvg:separator name="id.sep" value="."/>
    <gridsvg:separator name="gPath.sep" value="::"/>
    <gridsvg:separator name="vpPath.sep" value="::"/>
  </metadata>
  <g transform="translate(0, 504) scale(1, -1)">
    <g id="gridSVG" fill="none" stroke="rgb(0,0,0)" stroke-dasharray="none" stroke-width="0.75" font-size="12" font-family="Helvetica, Arial, FreeSans, Liberation Sans, Nimbus Sans L, sans-serif" opacity="1" stroke-linecap="round" stroke-linejoin="round" stroke-miterlimit="10" stroke-opacity="1" fill-opacity="0" font-weight="normal" font-style="normal">
      <g id="layout.1" class="viewport">
        <g id="layout.2" class="forcedgrob gtable gTree grob gDesc">
          <defs>
            <clipPath id="layout::background.1-11-12-1.1.clipPath">
              <rect x="0" y="28.61" width="504" height="446.77" fill="none" stroke="none"/>
            </clipPath>
          </defs>
          <g id="layout::background.1-11-12-1.1" clip-path="url(#layout::background.1-11-12-1.1.clipPath)" class="viewport">
            <g id="background.1-11-12-1.1" class="forcedgrob gTableChild rect grob gDesc">
              <rect id="background.1-11-12-1.1.1" x="0" y="28.61" width="504" height="446.77" transform="" stroke-width="1.07" stroke="rgb(255,255,255)" fill="rgb(255,255,255)" stroke-dasharray="none" stroke-opacity="1" fill-opacity="1"/>
            </g>
          </g>
          <defs>
            <clipPath id="layout::panel.7-5-7-5.1.clipPath">
              <rect x="8.22" y="36.83" width="415.62" height="415.62" fill="none" stroke="none"/>
            </clipPath>
          </defs>
          <g id="layout::panel.7-5-7-5.1" clip-path="url(#layout::panel.7-5-7-5.1.clipPath)" class="viewport">
            <g id="panel.7-5-7-5.1" class="forcedgrob gTableChild gTree grob gDesc">
              <g id="grill.gTree.2209.1" class="gTree grob gDesc">
                <g id="panel.background..rect.2205.1" class="rect grob gDesc">
                  <rect id="panel.background..rect.2205.1.1" x="8.22" y="36.83" width="415.62" height="415.62" transform="" stroke-width="1.07" stroke="none" fill="rgb(255,255,255)" stroke-dasharray="none" stroke-opacity="0" fill-opacity="1"/>
                </g>
              </g>
              <g id="bar.gTree.2198.1" class="gTree grob gDesc">
                <g id="geom_polygon.polygon.2194.1" class="polygon grob gDesc">
                  <polygon id="geom_polygon.polygon.2194.1.1" points="216.03,244.64 211.86,240.71 207.69,236.78 203.52,232.84 199.35,228.91 195.18,224.97 191.01,221.04 186.84,217.11 182.67,213.17 178.5,209.24 174.33,205.3 170.16,201.37 165.99,197.44 161.82,193.5 157.65,189.57 153.48,185.63 149.31,181.7 145.14,177.77 140.97,173.83 136.8,169.9 132.63,165.96 128.46,162.03 124.29,158.1 120.12,154.16 115.95,150.23 111.78,146.29 107.61,142.36 103.44,138.43 99.27,134.49 95.1,130.56 99.06,126.5 103.16,122.58 107.39,118.8 111.74,115.17 116.22,111.69 120.81,108.37 125.51,105.2 130.32,102.19 135.23,99.35 140.23,96.68 145.32,94.18 150.49,91.86 155.74,89.71 161.05,87.75 166.43,85.97 171.87,84.37 177.36,82.95 182.9,81.73 188.47,80.7 194.08,79.85 199.71,79.2 205.36,78.74 211.03,78.47 216.7,78.4 222.36,78.52 228.02,78.83 233.67,79.33 239.3,80.03 244.9,80.92 250.46,82 255.99,83.27 261.47,84.73 266.89,86.37 272.26,88.19 277.56,90.2 282.79,92.39 287.95,94.76 293.01,97.3 297.99,100.01 302.88,102.89 307.66,105.93 312.34,109.13 316.9,112.5 321.35,116.01 325.67,119.68 329.87,123.49 333.94,127.44 337.86,131.53 341.65,135.75 345.29,140.1 348.78,144.57 352.11,149.15 355.29,153.85 358.31,158.65 361.16,163.55 363.84,168.55 366.35,173.63 368.68,178.8 370.84,184.04 372.81,189.35 374.61,194.73 376.22,200.17 377.64,205.66 378.87,211.19 379.92,216.76 380.78,222.36 381.44,228 381.91,233.65 382.19,239.31 382.28,244.98 382.17,250.65 381.87,256.31 381.37,261.95 380.69,267.58 379.81,273.18 378.74,278.75 377.48,284.28 376.04,289.76 374.4,295.19 372.59,300.56 370.59,305.87 368.41,311.1 366.06,316.26 363.53,321.33 360.83,326.32 357.96,331.21 354.93,336 351.73,340.68 348.38,345.25 344.87,349.71 341.21,354.04 337.41,358.24 333.46,362.32 329.38,366.25 325.17,370.05 320.83,373.69 316.37,377.19 311.79,380.54 307.1,383.72 302.31,386.75 297.41,389.61 292.42,392.3 287.34,394.82 282.18,397.16 276.94,399.33 271.63,401.32 266.26,403.12 260.83,404.74 255.34,406.18 249.81,407.42 244.24,408.48 238.64,409.35 233.01,410.02 227.36,410.5 221.7,410.79 216.03,410.89 216.03,405.16 216.03,399.43 216.03,393.69 216.03,387.96 216.03,382.23 216.03,376.49 216.03,370.76 216.03,365.03 216.03,359.3 216.03,353.56 216.03,347.83 216.03,342.1 216.03,336.37 216.03,330.63 216.03,324.9 216.03,319.17 216.03,313.44 216.03,307.7 216.03,301.97 216.03,296.24 216.03,290.5 216.03,284.77 216.03,279.04 216.03,273.31 216.03,267.57 216.03,261.84 216.03,256.11 216.03,250.38 216.03,244.64 216.03,244.64" stroke="none" fill="rgb(0,191,196)" stroke-width="1.07" stroke-dasharray="none" stroke-opacity="0" fill-opacity="1"/>
                </g>
                <g id="geom_polygon.polygon.2196.1" class="polygon grob gDesc">
                  <polygon id="geom_polygon.polygon.2196.1.1" points="216.03,244.64 216.03,250.38 216.03,256.11 216.03,261.84 216.03,267.57 216.03,273.31 216.03,279.04 216.03,284.77 216.03,290.5 216.03,296.24 216.03,301.97 216.03,307.7 216.03,313.44 216.03,319.17 216.03,324.9 216.03,330.63 216.03,336.37 216.03,342.1 216.03,347.83 216.03,353.56 216.03,359.3 216.03,365.03 216.03,370.76 216.03,376.49 216.03,382.23 216.03,387.96 216.03,393.69 216.03,399.43 216.03,405.16 216.03,410.89 210.34,410.79 204.66,410.5 198.99,410.01 193.34,409.34 187.72,408.46 182.13,407.4 176.58,406.14 171.08,404.7 165.63,403.07 160.24,401.25 154.91,399.25 149.66,397.07 144.48,394.71 139.39,392.17 134.39,389.46 129.48,386.59 124.67,383.54 119.97,380.33 115.39,376.97 110.92,373.45 106.57,369.78 102.36,365.96 98.27,362 94.33,357.9 90.52,353.67 86.87,349.31 83.36,344.83 80.01,340.23 76.82,335.52 73.79,330.71 70.93,325.79 68.24,320.78 65.72,315.67 63.38,310.49 61.21,305.23 59.23,299.9 57.43,294.5 55.82,289.04 54.39,283.54 53.16,277.98 52.11,272.39 51.26,266.77 50.6,261.12 50.13,255.45 49.86,249.76 49.78,244.07 49.9,238.39 50.21,232.71 50.72,227.04 51.41,221.39 52.31,215.77 53.39,210.19 54.66,204.65 56.13,199.15 57.78,193.7 59.61,188.32 61.63,183 63.83,177.75 66.21,172.58 68.76,167.5 71.49,162.51 74.38,157.61 77.44,152.81 80.67,148.13 84.05,143.55 87.59,139.09 91.27,134.76 95.1,130.56 99.27,134.49 103.44,138.43 107.61,142.36 111.78,146.29 115.95,150.23 120.12,154.16 124.29,158.1 128.46,162.03 132.63,165.96 136.8,169.9 140.97,173.83 145.14,177.77 149.31,181.7 153.48,185.63 157.65,189.57 161.82,193.5 165.99,197.44 170.16,201.37 174.33,205.3 178.5,209.24 182.67,213.17 186.84,217.11 191.01,221.04 195.18,224.97 199.35,228.91 203.52,232.84 207.69,236.78 211.86,240.71 216.03,244.64 216.03,244.64" stroke="none" fill="rgb(248,118,109)" stroke-width="1.07" stroke-dasharray="none" stroke-opacity="0" fill-opacity="1"/>
                </g>
              </g>
              <g id="GRID.text.2199.1" class="text grob gDesc">
                <g id="GRID.text.2199.1.1" transform="translate(292.35, 211.72)" stroke-width="0.1">
                  <g id="GRID.text.2199.1.1.scale" transform="scale(1, -1)">
                    <text x="0" y="0" id="GRID.text.2199.1.1.text" text-anchor="middle" stroke="rgb(0,0,0)" font-size="11.04" font-family="Helvetica, Arial, FreeSans, Liberation Sans, Nimbus Sans L, sans-serif" fill="rgb(0,0,0)" stroke-opacity="1" fill-opacity="1" font-weight="normal" font-style="normal">
                      <tspan id="GRID.text.2199.1.1.tspan.1" dy="3.95" x="0">170</tspan>
                    </text>
                  </g>
                </g>
                <g id="GRID.text.2199.1.2" transform="translate(139.7, 277.57)" stroke-width="0.1">
                  <g id="GRID.text.2199.1.2.scale" transform="scale(1, -1)">
                    <text x="0" y="0" id="GRID.text.2199.1.2.text" text-anchor="middle" stroke="rgb(0,0,0)" font-size="11.04" font-family="Helvetica, Arial, FreeSans, Liberation Sans, Nimbus Sans L, sans-serif" fill="rgb(0,0,0)" stroke-opacity="1" fill-opacity="1" font-weight="normal" font-style="normal">
                      <tspan id="GRID.text.2199.1.2.tspan.1" dy="3.95" x="0">100</tspan>
                    </text>
                  </g>
                </g>
              </g>
              <g id="GRID.gTree.2200.1" class="gTree grob gDesc"/>
            </g>
          </g>
          <g id="layout::spacer.8-6-8-6.1" class="viewport"/>
          <g id="layout::spacer.8-4-8-4.1" class="viewport"/>
          <g id="layout::spacer.6-6-6-6.1" class="viewport"/>
          <g id="layout::spacer.6-4-6-4.1" class="viewport"/>
          <g id="layout::axis-t.6-5-6-5.1" class="viewport"/>
          <g id="layout::axis-l.7-4-7-4.1" class="viewport">
            <g id="layout::axis-l.7-4-7-4::GRID.VP.518.1" class="viewport">
              <g id="axis-l.7-4-7-4.1" class="forcedgrob gTableChild absoluteGrob gTree grob gDesc">
                <g id="layout::axis-l.7-4-7-4::GRID.VP.518::axis.1" class="viewport">
                  <g id="axis.1" class="forcedgrob gtable gTree grob gDesc">
                    <g id="layout::axis-l.7-4-7-4::GRID.VP.518::axis::axis.1-1-1-1.1" class="viewport"/>
                    <g id="layout::axis-l.7-4-7-4::GRID.VP.518::axis::axis.1-2-1-2.1" class="viewport"/>
                  </g>
                </g>
              </g>
            </g>
          </g>
          <g id="layout::axis-r.7-6-7-6.1" class="viewport"/>
          <g id="layout::axis-b.8-5-8-5.1" class="viewport">
            <g id="layout::axis-b.8-5-8-5::GRID.VP.517.1" class="viewport">
              <g id="axis-b.8-5-8-5.1" class="forcedgrob gTableChild absoluteGrob gTree grob gDesc">
                <g id="layout::axis-b.8-5-8-5::GRID.VP.517::axis.1" class="viewport">
                  <g id="axis.2" class="forcedgrob gtable gTree grob gDesc">
                    <g id="layout::axis-b.8-5-8-5::GRID.VP.517::axis::axis.1-1-1-1.1" class="viewport"/>
                    <g id="layout::axis-b.8-5-8-5::GRID.VP.517::axis::axis.2-1-2-1.1" class="viewport"/>
                  </g>
                </g>
              </g>
            </g>
          </g>
          <g id="layout::xlab-t.5-5-5-5.1" class="viewport"/>
          <g id="layout::xlab-b.9-5-9-5.1" class="viewport"/>
          <g id="layout::ylab-l.7-3-7-3.1" class="viewport"/>
          <g id="layout::ylab-r.7-7-7-7.1" class="viewport"/>
          <g id="layout::guide-box.7-9-7-9.1" class="viewport">
            <g id="layout::guide-box.7-9-7-9::GRID.VP.526.1" class="viewport">
              <g id="layout::guide-box.7-9-7-9::GRID.VP.526::guide-box.7-9-7-9.1" class="viewport">
                <g id="guide-box.7-9-7-9.1" class="forcedgrob gTableChild gtable gTree grob gDesc">
                  <g id="layout::guide-box.7-9-7-9::GRID.VP.526::guide-box.7-9-7-9::legend.box.background.2-4-4-2.1" class="viewport"/>
                  <g id="layout::guide-box.7-9-7-9::GRID.VP.526::guide-box.7-9-7-9::guides.3-3-3-3.1" class="viewport">
                    <g id="layout::guide-box.7-9-7-9::GRID.VP.526::guide-box.7-9-7-9::guides.3-3-3-3::GRID.VP.525.1" class="viewport">
                      <g id="layout::guide-box.7-9-7-9::GRID.VP.526::guide-box.7-9-7-9::guides.3-3-3-3::GRID.VP.525::guides.3-3-3-3.1" class="viewport">
                        <g id="guides.3-3-3-3.1" class="forcedgrob gTableChild gtable gTree grob gDesc">
                          <g id="layout::guide-box.7-9-7-9::GRID.VP.526::guide-box.7-9-7-9::guides.3-3-3-3::GRID.VP.525::guides.3-3-3-3::background.1-6-6-1.1" class="viewport">
                            <g id="background.1-6-6-1.1" class="forcedgrob gTableChild rect grob gDesc">
                              <rect id="background.1-6-6-1.1.1" x="434.8" y="219.14" width="63.72" height="51" transform="" stroke-width="1.07" stroke="none" fill="rgb(255,255,255)" stroke-dasharray="none" stroke-opacity="0" fill-opacity="1"/>
                            </g>
                          </g>
                          <g id="layout::guide-box.7-9-7-9::GRID.VP.526::guide-box.7-9-7-9::guides.3-3-3-3::GRID.VP.525::guides.3-3-3-3::title.2-5-2-2.1" class="viewport"/>
                          <g id="layout::guide-box.7-9-7-9::GRID.VP.526::guide-box.7-9-7-9::guides.3-3-3-3::GRID.VP.525::guides.3-3-3-3::key-3-1-bg.4-2-4-2.1" class="viewport"/>
                          <g id="layout::guide-box.7-9-7-9::GRID.VP.526::guide-box.7-9-7-9::guides.3-3-3-3::GRID.VP.525::guides.3-3-3-3::key-3-1-1.4-2-4-2.1" class="viewport">
                            <g id="key-3-1-1.4-2-4-2.1" class="forcedgrob gTableChild rect grob gDesc">
                              <rect id="key-3-1-1.4-2-4-2.1.1" x="440.98" y="242.61" width="15.86" height="15.86" transform="" stroke="none" fill="rgb(248,118,109)" stroke-dasharray="none" stroke-width="1.07" stroke-linejoin="miter" stroke-opacity="0" fill-opacity="1"/>
                            </g>
                          </g>
                          <g id="layout::guide-box.7-9-7-9::GRID.VP.526::guide-box.7-9-7-9::guides.3-3-3-3::GRID.VP.525::guides.3-3-3-3::key-4-1-bg.5-2-5-2.1" class="viewport"/>
                          <g id="layout::guide-box.7-9-7-9::GRID.VP.526::guide-box.7-9-7-9::guides.3-3-3-3::GRID.VP.525::guides.3-3-3-3::key-4-1-1.5-2-5-2.1" class="viewport">
                            <g id="key-4-1-1.5-2-5-2.1" class="forcedgrob gTableChild rect grob gDesc">
                              <rect id="key-4-1-1.5-2-5-2.1.1" x="440.98" y="225.33" width="15.86" height="15.86" transform="" stroke="none" fill="rgb(0,191,196)" stroke-dasharray="none" stroke-width="1.07" stroke-linejoin="miter" stroke-opacity="0" fill-opacity="1"/>
                            </g>
                          </g>
                          <g id="layout::guide-box.7-9-7-9::GRID.VP.526::guide-box.7-9-7-9::guides.3-3-3-3::GRID.VP.525::guides.3-3-3-3::label-3-3.4-4-4-4.1" class="viewport">
                            <g id="layout::guide-box.7-9-7-9::GRID.VP.526::guide-box.7-9-7-9::guides.3-3-3-3::GRID.VP.525::guides.3-3-3-3::label-3-3.4-4-4-4::GRID.VP.523.1" class="viewport">
                              <g id="label-3-3.4-4-4-4.1" class="forcedgrob gTableChild gTree grob gDesc">
                                <g id="layout::guide-box.7-9-7-9::GRID.VP.526::guide-box.7-9-7-9::guides.3-3-3-3::GRID.VP.525::guides.3-3-3-3::label-3-3.4-4-4-4::GRID.VP.523::GRID.VP.519.1" font-size="8.8" stroke="rgb(0,0,0)" font-family="Helvetica, Arial, FreeSans, Liberation Sans, Nimbus Sans L, sans-serif" stroke-opacity="1" font-weight="normal" font-style="normal" class="viewport">
                                  <g id="layout::guide-box.7-9-7-9::GRID.VP.526::guide-box.7-9-7-9::guides.3-3-3-3::GRID.VP.525::guides.3-3-3-3::label-3-3.4-4-4-4::GRID.VP.523::GRID.VP.519::GRID.VP.520.1" class="viewport">
                                    <g id="guide.label.titleGrob.2223.1" class="titleGrob gTree grob gDesc">
                                      <g id="GRID.text.2221.1" class="text grob gDesc">
                                        <g id="GRID.text.2221.1.1" transform="translate(463.04, 250.54)" stroke-width="0.1">
                                          <g id="GRID.text.2221.1.1.scale" transform="scale(1, -1)">
                                            <text x="0" y="0" id="GRID.text.2221.1.1.text" text-anchor="start" font-size="8.8" stroke="rgb(0,0,0)" font-family="Helvetica, Arial, FreeSans, Liberation Sans, Nimbus Sans L, sans-serif" fill="rgb(0,0,0)" stroke-opacity="1" fill-opacity="1" font-weight="normal" font-style="normal">
                                              <tspan id="GRID.text.2221.1.1.tspan.1" dy="3.23" x="0">N (100)</tspan>
                                            </text>
                                          </g>
                                        </g>
                                      </g>
                                    </g>
                                  </g>
                                </g>
                              </g>
                            </g>
                          </g>
                          <g id="layout::guide-box.7-9-7-9::GRID.VP.526::guide-box.7-9-7-9::guides.3-3-3-3::GRID.VP.525::guides.3-3-3-3::label-4-3.5-4-5-4.1" class="viewport">
                            <g id="layout::guide-box.7-9-7-9::GRID.VP.526::guide-box.7-9-7-9::guides.3-3-3-3::GRID.VP.525::guides.3-3-3-3::label-4-3.5-4-5-4::GRID.VP.524.1" class="viewport">
                              <g id="label-4-3.5-4-5-4.1" class="forcedgrob gTableChild gTree grob gDesc">
                                <g id="layout::guide-box.7-9-7-9::GRID.VP.526::guide-box.7-9-7-9::guides.3-3-3-3::GRID.VP.525::guides.3-3-3-3::label-4-3.5-4-5-4::GRID.VP.524::GRID.VP.521.1" font-size="8.8" stroke="rgb(0,0,0)" font-family="Helvetica, Arial, FreeSans, Liberation Sans, Nimbus Sans L, sans-serif" stroke-opacity="1" font-weight="normal" font-style="normal" class="viewport">
                                  <g id="layout::guide-box.7-9-7-9::GRID.VP.526::guide-box.7-9-7-9::guides.3-3-3-3::GRID.VP.525::guides.3-3-3-3::label-4-3.5-4-5-4::GRID.VP.524::GRID.VP.521::GRID.VP.522.1" class="viewport">
                                    <g id="guide.label.titleGrob.2226.1" class="titleGrob gTree grob gDesc">
                                      <g id="GRID.text.2224.1" class="text grob gDesc">
                                        <g id="GRID.text.2224.1.1" transform="translate(463.04, 233.26)" stroke-width="0.1">
                                          <g id="GRID.text.2224.1.1.scale" transform="scale(1, -1)">
                                            <text x="0" y="0" id="GRID.text.2224.1.1.text" text-anchor="start" font-size="8.8" stroke="rgb(0,0,0)" font-family="Helvetica, Arial, FreeSans, Liberation Sans, Nimbus Sans L, sans-serif" fill="rgb(0,0,0)" stroke-opacity="1" fill-opacity="1" font-weight="normal" font-style="normal">
                                              <tspan id="GRID.text.2224.1.1.tspan.1" dy="3.23" x="0">S (170)</tspan>
                                            </text>
                                          </g>
                                        </g>
                                      </g>
                                    </g>
                                  </g>
                                </g>
                              </g>
                            </g>
                          </g>
                        </g>
                      </g>
                    </g>
                  </g>
                </g>
              </g>
            </g>
          </g>
          <g id="layout::subtitle.4-5-4-5.1" class="viewport"/>
          <g id="layout::title.3-5-3-5.1" class="viewport">
            <g id="layout::title.3-5-3-5::GRID.VP.527.1" font-size="13.2" stroke="rgb(102,102,102)" font-family="Helvetica, Arial, FreeSans, Liberation Sans, Nimbus Sans L, sans-serif" stroke-opacity="1" font-weight="normal" font-style="normal" class="viewport">
              <g id="layout::title.3-5-3-5::GRID.VP.527::GRID.VP.528.1" class="viewport">
                <g id="title.3-5-3-5.1" class="forcedgrob gTableChild titleGrob gTree grob gDesc">
                  <g id="GRID.text.2235.1" class="text grob gDesc">
                    <g id="GRID.text.2235.1.1" transform="translate(216.03, 469.91)" stroke-width="0.1">
                      <g id="GRID.text.2235.1.1.scale" transform="scale(1, -1)">
                        <text x="0" y="0" id="GRID.text.2235.1.1.text" text-anchor="middle" font-size="13.2" stroke="rgb(102,102,102)" font-family="Helvetica, Arial, FreeSans, Liberation Sans, Nimbus Sans L, sans-serif" fill="rgb(102,102,102)" stroke-opacity="1" fill-opacity="1" font-weight="normal" font-style="normal">
                          <tspan id="GRID.text.2235.1.1.tspan.1" dy="9.33" x="0">anagrafica espertouniversita</tspan>
                        </text>
                      </g>
                    </g>
                  </g>
                </g>
              </g>
            </g>
          </g>
          <g id="layout::caption.10-5-10-5.1" class="viewport"/>
          <g id="layout::tag.2-2-2-2.1" class="viewport"/>
        </g>
      </g>
    </g>
  </g>
</svg>