<?xml version="1.0" encoding="UTF-8"?>
<svg xmlns="http://www.w3.org/2000/svg" xmlns:xlink="http://www.w3.org/1999/xlink" width="504px" height="504px" viewBox="0 0 504 504" version="1.1">
  <metadata xmlns:gridsvg="http://www.stat.auckland.ac.nz/~paul/R/gridSVG/">
    <gridsvg:generator name="gridSVG" version="1.6-0" time="2019-01-07 19:38:59"/>
    <gridsvg:argument name="name" value="./latest_informaggio_csv/risultati/svg/anagrafica-totali-ecdl.svg"/>
    <gridsvg:argument name="exportCoords" value="none"/>
    <gridsvg:argument name="exportMappings" value="none"/>
    <gridsvg:argument name="exportJS" value="none"/>
    <gridsvg:argument name="res" value="72"/>
    <gridsvg:argument name="prefix" value=""/>
    <gridsvg:argument name="addClasses" value="TRUE"/>
    <gridsvg:argument name="indent" value="TRUE"/>
    <gridsvg:argument name="htmlWrapper" value="FALSE"/>
    <gridsvg:argument name="usePaths" value="vpPaths"/>
    <gridsvg:argument name="uniqueNames" value="TRUE"/>
    <gridsvg:separator name="id.sep" value="."/>
    <gridsvg:separator name="gPath.sep" value="::"/>
    <gridsvg:separator name="vpPath.sep" value="::"/>
  </metadata>
  <g transform="translate(0, 504) scale(1, -1)">
    <g id="gridSVG" fill="none" stroke="rgb(0,0,0)" stroke-dasharray="none" stroke-width="0.75" font-size="12" font-family="Helvetica, Arial, FreeSans, Liberation Sans, Nimbus Sans L, sans-serif" opacity="1" stroke-linecap="round" stroke-linejoin="round" stroke-miterlimit="10" stroke-opacity="1" fill-opacity="0" font-weight="normal" font-style="normal">
      <g id="layout.1" class="viewport">
        <g id="layout.2" class="forcedgrob gtable gTree grob gDesc">
          <defs>
            <clipPath id="layout::background.1-11-12-1.1.clipPath">
              <rect x="0" y="16.86" width="504" height="470.28" fill="none" stroke="none"/>
            </clipPath>
          </defs>
          <g id="layout::background.1-11-12-1.1" clip-path="url(#layout::background.1-11-12-1.1.clipPath)" class="viewport">
            <g id="background.1-11-12-1.1" class="forcedgrob gTableChild rect grob gDesc">
              <rect id="background.1-11-12-1.1.1" x="0" y="16.86" width="504" height="470.28" transform="" stroke-width="1.07" stroke="rgb(255,255,255)" fill="rgb(255,255,255)" stroke-dasharray="none" stroke-opacity="1" fill-opacity="1"/>
            </g>
          </g>
          <defs>
            <clipPath id="layout::panel.7-5-7-5.1.clipPath">
              <rect x="8.22" y="25.08" width="439.13" height="439.13" fill="none" stroke="none"/>
            </clipPath>
          </defs>
          <g id="layout::panel.7-5-7-5.1" clip-path="url(#layout::panel.7-5-7-5.1.clipPath)" class="viewport">
            <g id="panel.7-5-7-5.1" class="forcedgrob gTableChild gTree grob gDesc">
              <g id="grill.gTree.1966.1" class="gTree grob gDesc">
                <g id="panel.background..rect.1962.1" class="rect grob gDesc">
                  <rect id="panel.background..rect.1962.1.1" x="8.22" y="25.08" width="439.13" height="439.13" transform="" stroke-width="1.07" stroke="none" fill="rgb(255,255,255)" stroke-dasharray="none" stroke-opacity="0" fill-opacity="1"/>
                </g>
              </g>
              <g id="bar.gTree.1955.1" class="gTree grob gDesc">
                <g id="geom_polygon.polygon.1951.1" class="polygon grob gDesc">
                  <polygon id="geom_polygon.polygon.1951.1.1" points="227.78,244.64 221.88,246.01 215.98,247.38 210.08,248.75 204.18,250.12 198.28,251.48 192.38,252.85 186.48,254.22 180.58,255.59 174.68,256.96 168.78,258.32 162.88,259.69 156.98,261.06 151.08,262.43 145.18,263.8 139.28,265.16 133.38,266.53 127.48,267.9 121.58,269.27 115.67,270.64 109.77,272 103.87,273.37 97.97,274.74 92.07,276.11 86.17,277.48 80.27,278.84 74.37,280.21 68.47,281.58 62.57,282.95 56.67,284.32 55.43,278.5 54.38,272.65 53.53,266.77 52.88,260.86 52.43,254.94 52.19,249 52.14,243.06 52.29,237.12 52.65,231.18 53.2,225.27 53.96,219.37 54.91,213.5 56.07,207.67 57.42,201.89 58.96,196.15 60.7,190.46 62.63,184.84 64.74,179.29 67.05,173.81 69.54,168.41 72.21,163.1 75.05,157.89 78.08,152.77 81.27,147.76 84.63,142.86 88.16,138.07 91.84,133.41 95.68,128.87 99.67,124.47 103.81,120.21 108.09,116.08 112.51,112.11 117.06,108.28 121.74,104.62 126.54,101.11 131.45,97.76 136.47,94.59 141.6,91.59 146.83,88.76 152.15,86.11 157.56,83.64 163.04,81.36 168.6,79.26 174.23,77.35 179.92,75.64 185.67,74.12 191.46,72.79 197.3,71.66 203.17,70.73 209.06,69.99 214.98,69.46 220.92,69.13 226.86,69 232.8,69.06 238.74,69.33 244.66,69.81 250.57,70.48 256.45,71.35 262.29,72.42 268.1,73.68 273.86,75.14 279.57,76.8 285.22,78.65 290.8,80.69 296.31,82.91 301.74,85.32 307.09,87.92 312.35,90.69 317.51,93.64 322.57,96.76 327.51,100.05 332.35,103.51 337.06,107.13 341.65,110.9 346.11,114.83 350.44,118.91 354.62,123.13 358.66,127.49 362.55,131.99 366.28,136.61 369.86,141.36 373.27,146.22 376.52,151.2 379.59,156.29 382.49,161.47 385.22,166.75 387.76,172.12 390.13,177.58 392.3,183.11 394.29,188.71 396.09,194.37 397.69,200.1 399.1,205.87 400.31,211.69 401.33,217.54 402.15,223.43 402.76,229.34 403.18,235.27 403.4,241.21 403.41,247.15 403.23,253.09 402.84,259.02 402.26,264.94 401.47,270.83 400.48,276.69 399.3,282.51 397.92,288.3 396.35,294.03 394.58,299.7 392.62,305.31 390.48,310.85 388.14,316.32 385.63,321.7 382.93,327 380.05,332.2 377,337.3 373.78,342.3 370.4,347.18 366.85,351.95 363.14,356.59 359.27,361.11 355.26,365.49 351.1,369.73 346.79,373.83 342.35,377.78 337.78,381.58 333.09,385.23 328.27,388.71 323.34,392.03 318.3,395.17 313.16,398.15 307.91,400.95 302.58,403.57 297.16,406.01 291.66,408.27 286.09,410.33 280.45,412.21 274.75,413.9 269,415.39 263.2,416.69 257.36,417.79 251.48,418.69 245.58,419.39 239.66,419.89 233.72,420.19 227.78,420.29 227.78,414.24 227.78,408.18 227.78,402.12 227.78,396.07 227.78,390.01 227.78,383.95 227.78,377.9 227.78,371.84 227.78,365.78 227.78,359.72 227.78,353.67 227.78,347.61 227.78,341.55 227.78,335.5 227.78,329.44 227.78,323.38 227.78,317.33 227.78,311.27 227.78,305.21 227.78,299.16 227.78,293.1 227.78,287.04 227.78,280.98 227.78,274.93 227.78,268.87 227.78,262.81 227.78,256.76 227.78,250.7 227.78,244.64 227.78,244.64" stroke="none" fill="rgb(0,191,196)" stroke-width="1.07" stroke-dasharray="none" stroke-opacity="0" fill-opacity="1"/>
                </g>
                <g id="geom_polygon.polygon.1953.1" class="polygon grob gDesc">
                  <polygon id="geom_polygon.polygon.1953.1.1" points="227.78,244.64 227.78,250.7 227.78,256.76 227.78,262.81 227.78,268.87 227.78,274.93 227.78,280.98 227.78,287.04 227.78,293.1 227.78,299.16 227.78,305.21 227.78,311.27 227.78,317.33 227.78,323.38 227.78,329.44 227.78,335.5 227.78,341.55 227.78,347.61 227.78,353.67 227.78,359.72 227.78,365.78 227.78,371.84 227.78,377.9 227.78,383.95 227.78,390.01 227.78,396.07 227.78,402.12 227.78,408.18 227.78,414.24 227.78,420.29 221.73,420.19 215.69,419.88 209.67,419.36 203.66,418.63 197.69,417.7 191.75,416.56 185.85,415.22 180,413.67 174.21,411.93 168.49,409.98 162.83,407.84 157.25,405.51 151.75,402.99 146.34,400.27 141.03,397.38 135.83,394.3 130.73,391.05 125.75,387.62 120.89,384.02 116.15,380.26 111.55,376.33 107.08,372.25 102.76,368.02 98.59,363.65 94.57,359.13 90.7,354.47 87,349.69 83.47,344.78 80.11,339.75 76.92,334.61 73.91,329.36 71.09,324.02 68.45,318.57 66,313.04 63.74,307.43 61.67,301.75 59.81,296 58.14,290.18 56.67,284.32 62.57,282.95 68.47,281.58 74.37,280.21 80.27,278.84 86.17,277.48 92.07,276.11 97.97,274.74 103.87,273.37 109.77,272 115.67,270.64 121.58,269.27 127.48,267.9 133.38,266.53 139.28,265.16 145.18,263.8 151.08,262.43 156.98,261.06 162.88,259.69 168.78,258.32 174.68,256.96 180.58,255.59 186.48,254.22 192.38,252.85 198.28,251.48 204.18,250.12 210.08,248.75 215.98,247.38 221.88,246.01 227.78,244.64 227.78,244.64" stroke="none" fill="rgb(248,118,109)" stroke-width="1.07" stroke-dasharray="none" stroke-opacity="0" fill-opacity="1"/>
                </g>
              </g>
              <g id="GRID.text.1956.1" class="text grob gDesc">
                <g id="GRID.text.1956.1.1" transform="translate(282.42, 175.88)" stroke-width="0.1">
                  <g id="GRID.text.1956.1.1.scale" transform="scale(1, -1)">
                    <text x="0" y="0" id="GRID.text.1956.1.1.text" text-anchor="middle" stroke="rgb(0,0,0)" font-size="11.04" font-family="Helvetica, Arial, FreeSans, Liberation Sans, Nimbus Sans L, sans-serif" fill="rgb(0,0,0)" stroke-opacity="1" fill-opacity="1" font-weight="normal" font-style="normal">
                      <tspan id="GRID.text.1956.1.1.tspan.1" dy="3.95" x="0">206</tspan>
                    </text>
                  </g>
                </g>
                <g id="GRID.text.1956.1.2" transform="translate(173.14, 313.4)" stroke-width="0.1">
                  <g id="GRID.text.1956.1.2.scale" transform="scale(1, -1)">
                    <text x="0" y="0" id="GRID.text.1956.1.2.text" text-anchor="middle" stroke="rgb(0,0,0)" font-size="11.04" font-family="Helvetica, Arial, FreeSans, Liberation Sans, Nimbus Sans L, sans-serif" fill="rgb(0,0,0)" stroke-opacity="1" fill-opacity="1" font-weight="normal" font-style="normal">
                      <tspan id="GRID.text.1956.1.2.tspan.1" dy="3.95" x="0">56</tspan>
                    </text>
                  </g>
                </g>
              </g>
              <g id="GRID.gTree.1957.1" class="gTree grob gDesc"/>
            </g>
          </g>
          <g id="layout::spacer.8-6-8-6.1" class="viewport"/>
          <g id="layout::spacer.8-4-8-4.1" class="viewport"/>
          <g id="layout::spacer.6-6-6-6.1" class="viewport"/>
          <g id="layout::spacer.6-4-6-4.1" class="viewport"/>
          <g id="layout::axis-t.6-5-6-5.1" class="viewport"/>
          <g id="layout::axis-l.7-4-7-4.1" class="viewport">
            <g id="layout::axis-l.7-4-7-4::GRID.VP.464.1" class="viewport">
              <g id="axis-l.7-4-7-4.1" class="forcedgrob gTableChild absoluteGrob gTree grob gDesc">
                <g id="layout::axis-l.7-4-7-4::GRID.VP.464::axis.1" class="viewport">
                  <g id="axis.1" class="forcedgrob gtable gTree grob gDesc">
                    <g id="layout::axis-l.7-4-7-4::GRID.VP.464::axis::axis.1-1-1-1.1" class="viewport"/>
                    <g id="layout::axis-l.7-4-7-4::GRID.VP.464::axis::axis.1-2-1-2.1" class="viewport"/>
                  </g>
                </g>
              </g>
            </g>
          </g>
          <g id="layout::axis-r.7-6-7-6.1" class="viewport"/>
          <g id="layout::axis-b.8-5-8-5.1" class="viewport">
            <g id="layout::axis-b.8-5-8-5::GRID.VP.463.1" class="viewport">
              <g id="axis-b.8-5-8-5.1" class="forcedgrob gTableChild absoluteGrob gTree grob gDesc">
                <g id="layout::axis-b.8-5-8-5::GRID.VP.463::axis.1" class="viewport">
                  <g id="axis.2" class="forcedgrob gtable gTree grob gDesc">
                    <g id="layout::axis-b.8-5-8-5::GRID.VP.463::axis::axis.1-1-1-1.1" class="viewport"/>
                    <g id="layout::axis-b.8-5-8-5::GRID.VP.463::axis::axis.2-1-2-1.1" class="viewport"/>
                  </g>
                </g>
              </g>
            </g>
          </g>
          <g id="layout::xlab-t.5-5-5-5.1" class="viewport"/>
          <g id="layout::xlab-b.9-5-9-5.1" class="viewport"/>
          <g id="layout::ylab-l.7-3-7-3.1" class="viewport"/>
          <g id="layout::ylab-r.7-7-7-7.1" class="viewport"/>
          <g id="layout::guide-box.7-9-7-9.1" class="viewport">
            <g id="layout::guide-box.7-9-7-9::GRID.VP.472.1" class="viewport">
              <g id="layout::guide-box.7-9-7-9::GRID.VP.472::guide-box.7-9-7-9.1" class="viewport">
                <g id="guide-box.7-9-7-9.1" class="forcedgrob gTableChild gtable gTree grob gDesc">
                  <g id="layout::guide-box.7-9-7-9::GRID.VP.472::guide-box.7-9-7-9::legend.box.background.2-4-4-2.1" class="viewport"/>
                  <g id="layout::guide-box.7-9-7-9::GRID.VP.472::guide-box.7-9-7-9::guides.3-3-3-3.1" class="viewport">
                    <g id="layout::guide-box.7-9-7-9::GRID.VP.472::guide-box.7-9-7-9::guides.3-3-3-3::GRID.VP.471.1" class="viewport">
                      <g id="layout::guide-box.7-9-7-9::GRID.VP.472::guide-box.7-9-7-9::guides.3-3-3-3::GRID.VP.471::guides.3-3-3-3.1" class="viewport">
                        <g id="guides.3-3-3-3.1" class="forcedgrob gTableChild gtable gTree grob gDesc">
                          <g id="layout::guide-box.7-9-7-9::GRID.VP.472::guide-box.7-9-7-9::guides.3-3-3-3::GRID.VP.471::guides.3-3-3-3::background.1-6-6-1.1" class="viewport">
                            <g id="background.1-6-6-1.1" class="forcedgrob gTableChild rect grob gDesc">
                              <rect id="background.1-6-6-1.1.1" x="458.3" y="219.14" width="40.22" height="51" transform="" stroke-width="1.07" stroke="none" fill="rgb(255,255,255)" stroke-dasharray="none" stroke-opacity="0" fill-opacity="1"/>
                            </g>
                          </g>
                          <g id="layout::guide-box.7-9-7-9::GRID.VP.472::guide-box.7-9-7-9::guides.3-3-3-3::GRID.VP.471::guides.3-3-3-3::title.2-5-2-2.1" class="viewport"/>
                          <g id="layout::guide-box.7-9-7-9::GRID.VP.472::guide-box.7-9-7-9::guides.3-3-3-3::GRID.VP.471::guides.3-3-3-3::key-3-1-bg.4-2-4-2.1" class="viewport"/>
                          <g id="layout::guide-box.7-9-7-9::GRID.VP.472::guide-box.7-9-7-9::guides.3-3-3-3::GRID.VP.471::guides.3-3-3-3::key-3-1-1.4-2-4-2.1" class="viewport">
                            <g id="key-3-1-1.4-2-4-2.1" class="forcedgrob gTableChild rect grob gDesc">
                              <rect id="key-3-1-1.4-2-4-2.1.1" x="464.49" y="242.61" width="15.86" height="15.86" transform="" stroke="none" fill="rgb(248,118,109)" stroke-dasharray="none" stroke-width="1.07" stroke-linejoin="miter" stroke-opacity="0" fill-opacity="1"/>
                            </g>
                          </g>
                          <g id="layout::guide-box.7-9-7-9::GRID.VP.472::guide-box.7-9-7-9::guides.3-3-3-3::GRID.VP.471::guides.3-3-3-3::key-4-1-bg.5-2-5-2.1" class="viewport"/>
                          <g id="layout::guide-box.7-9-7-9::GRID.VP.472::guide-box.7-9-7-9::guides.3-3-3-3::GRID.VP.471::guides.3-3-3-3::key-4-1-1.5-2-5-2.1" class="viewport">
                            <g id="key-4-1-1.5-2-5-2.1" class="forcedgrob gTableChild rect grob gDesc">
                              <rect id="key-4-1-1.5-2-5-2.1.1" x="464.49" y="225.33" width="15.86" height="15.86" transform="" stroke="none" fill="rgb(0,191,196)" stroke-dasharray="none" stroke-width="1.07" stroke-linejoin="miter" stroke-opacity="0" fill-opacity="1"/>
                            </g>
                          </g>
                          <g id="layout::guide-box.7-9-7-9::GRID.VP.472::guide-box.7-9-7-9::guides.3-3-3-3::GRID.VP.471::guides.3-3-3-3::label-3-3.4-4-4-4.1" class="viewport">
                            <g id="layout::guide-box.7-9-7-9::GRID.VP.472::guide-box.7-9-7-9::guides.3-3-3-3::GRID.VP.471::guides.3-3-3-3::label-3-3.4-4-4-4::GRID.VP.469.1" class="viewport">
                              <g id="label-3-3.4-4-4-4.1" class="forcedgrob gTableChild gTree grob gDesc">
                                <g id="layout::guide-box.7-9-7-9::GRID.VP.472::guide-box.7-9-7-9::guides.3-3-3-3::GRID.VP.471::guides.3-3-3-3::label-3-3.4-4-4-4::GRID.VP.469::GRID.VP.465.1" font-size="8.8" stroke="rgb(0,0,0)" font-family="Helvetica, Arial, FreeSans, Liberation Sans, Nimbus Sans L, sans-serif" stroke-opacity="1" font-weight="normal" font-style="normal" class="viewport">
                                  <g id="layout::guide-box.7-9-7-9::GRID.VP.472::guide-box.7-9-7-9::guides.3-3-3-3::GRID.VP.471::guides.3-3-3-3::label-3-3.4-4-4-4::GRID.VP.469::GRID.VP.465::GRID.VP.466.1" class="viewport">
                                    <g id="guide.label.titleGrob.1980.1" class="titleGrob gTree grob gDesc">
                                      <g id="GRID.text.1978.1" class="text grob gDesc">
                                        <g id="GRID.text.1978.1.1" transform="translate(486.54, 250.54)" stroke-width="0.1">
                                          <g id="GRID.text.1978.1.1.scale" transform="scale(1, -1)">
                                            <text x="0" y="0" id="GRID.text.1978.1.1.text" text-anchor="start" font-size="8.8" stroke="rgb(0,0,0)" font-family="Helvetica, Arial, FreeSans, Liberation Sans, Nimbus Sans L, sans-serif" fill="rgb(0,0,0)" stroke-opacity="1" fill-opacity="1" font-weight="normal" font-style="normal">
                                              <tspan id="GRID.text.1978.1.1.tspan.1" dy="3.23" x="0">S</tspan>
                                            </text>
                                          </g>
                                        </g>
                                      </g>
                                    </g>
                                  </g>
                                </g>
                              </g>
                            </g>
                          </g>
                          <g id="layout::guide-box.7-9-7-9::GRID.VP.472::guide-box.7-9-7-9::guides.3-3-3-3::GRID.VP.471::guides.3-3-3-3::label-4-3.5-4-5-4.1" class="viewport">
                            <g id="layout::guide-box.7-9-7-9::GRID.VP.472::guide-box.7-9-7-9::guides.3-3-3-3::GRID.VP.471::guides.3-3-3-3::label-4-3.5-4-5-4::GRID.VP.470.1" class="viewport">
                              <g id="label-4-3.5-4-5-4.1" class="forcedgrob gTableChild gTree grob gDesc">
                                <g id="layout::guide-box.7-9-7-9::GRID.VP.472::guide-box.7-9-7-9::guides.3-3-3-3::GRID.VP.471::guides.3-3-3-3::label-4-3.5-4-5-4::GRID.VP.470::GRID.VP.467.1" font-size="8.8" stroke="rgb(0,0,0)" font-family="Helvetica, Arial, FreeSans, Liberation Sans, Nimbus Sans L, sans-serif" stroke-opacity="1" font-weight="normal" font-style="normal" class="viewport">
                                  <g id="layout::guide-box.7-9-7-9::GRID.VP.472::guide-box.7-9-7-9::guides.3-3-3-3::GRID.VP.471::guides.3-3-3-3::label-4-3.5-4-5-4::GRID.VP.470::GRID.VP.467::GRID.VP.468.1" class="viewport">
                                    <g id="guide.label.titleGrob.1983.1" class="titleGrob gTree grob gDesc">
                                      <g id="GRID.text.1981.1" class="text grob gDesc">
                                        <g id="GRID.text.1981.1.1" transform="translate(486.54, 233.26)" stroke-width="0.1">
                                          <g id="GRID.text.1981.1.1.scale" transform="scale(1, -1)">
                                            <text x="0" y="0" id="GRID.text.1981.1.1.text" text-anchor="start" font-size="8.8" stroke="rgb(0,0,0)" font-family="Helvetica, Arial, FreeSans, Liberation Sans, Nimbus Sans L, sans-serif" fill="rgb(0,0,0)" stroke-opacity="1" fill-opacity="1" font-weight="normal" font-style="normal">
                                              <tspan id="GRID.text.1981.1.1.tspan.1" dy="3.23" x="0">N</tspan>
                                            </text>
                                          </g>
                                        </g>
                                      </g>
                                    </g>
                                  </g>
                                </g>
                              </g>
                            </g>
                          </g>
                        </g>
                      </g>
                    </g>
                  </g>
                </g>
              </g>
            </g>
          </g>
          <g id="layout::subtitle.4-5-4-5.1" class="viewport"/>
          <g id="layout::title.3-5-3-5.1" class="viewport">
            <g id="layout::title.3-5-3-5::GRID.VP.473.1" font-size="13.2" stroke="rgb(102,102,102)" font-family="Helvetica, Arial, FreeSans, Liberation Sans, Nimbus Sans L, sans-serif" stroke-opacity="1" font-weight="normal" font-style="normal" class="viewport">
              <g id="layout::title.3-5-3-5::GRID.VP.473::GRID.VP.474.1" class="viewport">
                <g id="title.3-5-3-5.1" class="forcedgrob gTableChild titleGrob gTree grob gDesc">
                  <g id="GRID.text.1992.1" class="text grob gDesc">
                    <g id="GRID.text.1992.1.1" transform="translate(227.78, 481.66)" stroke-width="0.1">
                      <g id="GRID.text.1992.1.1.scale" transform="scale(1, -1)">
                        <text x="0" y="0" id="GRID.text.1992.1.1.text" text-anchor="middle" font-size="13.2" stroke="rgb(102,102,102)" font-family="Helvetica, Arial, FreeSans, Liberation Sans, Nimbus Sans L, sans-serif" fill="rgb(102,102,102)" stroke-opacity="1" fill-opacity="1" font-weight="normal" font-style="normal">
                          <tspan id="GRID.text.1992.1.1.tspan.1" dy="9.33" x="0">anagrafica totali-ecdl</tspan>
                        </text>
                      </g>
                    </g>
                  </g>
                </g>
              </g>
            </g>
          </g>
          <g id="layout::caption.10-5-10-5.1" class="viewport"/>
          <g id="layout::tag.2-2-2-2.1" class="viewport"/>
        </g>
      </g>
    </g>
  </g>
</svg>