<?xml version="1.0" encoding="UTF-8"?>
<svg xmlns="http://www.w3.org/2000/svg" xmlns:xlink="http://www.w3.org/1999/xlink" width="504px" height="504px" viewBox="0 0 504 504" version="1.1">
  <metadata xmlns:gridsvg="http://www.stat.auckland.ac.nz/~paul/R/gridSVG/">
    <gridsvg:generator name="gridSVG" version="1.6-0" time="2019-01-18 23:13:47"/>
    <gridsvg:argument name="name" value="./latest_informaggio_csv/risultati/svg/anagrafica-sesso.svg"/>
    <gridsvg:argument name="exportCoords" value="none"/>
    <gridsvg:argument name="exportMappings" value="none"/>
    <gridsvg:argument name="exportJS" value="none"/>
    <gridsvg:argument name="res" value="72"/>
    <gridsvg:argument name="prefix" value=""/>
    <gridsvg:argument name="addClasses" value="TRUE"/>
    <gridsvg:argument name="indent" value="TRUE"/>
    <gridsvg:argument name="htmlWrapper" value="FALSE"/>
    <gridsvg:argument name="usePaths" value="vpPaths"/>
    <gridsvg:argument name="uniqueNames" value="TRUE"/>
    <gridsvg:separator name="id.sep" value="."/>
    <gridsvg:separator name="gPath.sep" value="::"/>
    <gridsvg:separator name="vpPath.sep" value="::"/>
  </metadata>
  <g transform="translate(0, 504) scale(1, -1)">
    <g id="gridSVG" fill="none" stroke="rgb(0,0,0)" stroke-dasharray="none" stroke-width="0.75" font-size="12" font-family="Helvetica, Arial, FreeSans, Liberation Sans, Nimbus Sans L, sans-serif" opacity="1" stroke-linecap="round" stroke-linejoin="round" stroke-miterlimit="10" stroke-opacity="1" fill-opacity="0" font-weight="normal" font-style="normal">
      <g id="layout.1" class="viewport">
        <g id="layout.2" class="forcedgrob gtable gTree grob gDesc">
          <defs>
            <clipPath id="layout::background.1-11-12-1.1.clipPath">
              <rect x="0" y="28.12" width="504" height="447.77" fill="none" stroke="none"/>
            </clipPath>
          </defs>
          <g id="layout::background.1-11-12-1.1" clip-path="url(#layout::background.1-11-12-1.1.clipPath)" class="viewport">
            <g id="background.1-11-12-1.1" class="forcedgrob gTableChild rect grob gDesc">
              <rect id="background.1-11-12-1.1.1" x="0" y="28.12" width="504" height="447.77" transform="" stroke-width="1.07" stroke="rgb(255,255,255)" fill="rgb(255,255,255)" stroke-dasharray="none" stroke-opacity="1" fill-opacity="1"/>
            </g>
          </g>
          <defs>
            <clipPath id="layout::panel.7-5-7-5.1.clipPath">
              <rect x="8.22" y="36.33" width="416.62" height="416.62" fill="none" stroke="none"/>
            </clipPath>
          </defs>
          <g id="layout::panel.7-5-7-5.1" clip-path="url(#layout::panel.7-5-7-5.1.clipPath)" class="viewport">
            <g id="panel.7-5-7-5.1" class="forcedgrob gTableChild gTree grob gDesc">
              <g id="grill.gTree.3438.1" class="gTree grob gDesc">
                <g id="panel.background..rect.3434.1" class="rect grob gDesc">
                  <rect id="panel.background..rect.3434.1.1" x="8.22" y="36.33" width="416.62" height="416.62" transform="" stroke-width="1.07" stroke="none" fill="rgb(255,255,255)" stroke-dasharray="none" stroke-opacity="0" fill-opacity="1"/>
                </g>
              </g>
              <g id="bar.gTree.3427.1" class="gTree grob gDesc">
                <g id="geom_polygon.polygon.3421.1" class="polygon grob gDesc">
                  <polygon id="geom_polygon.polygon.3421.1.1" points="216.53,244.64 212.26,248.49 207.99,252.33 203.72,256.18 199.45,260.02 195.18,263.87 190.91,267.71 186.63,271.56 182.36,275.4 178.09,279.25 173.82,283.09 169.55,286.94 165.28,290.78 161.01,294.63 156.74,298.47 152.47,302.32 148.2,306.17 143.93,310.01 139.66,313.86 135.39,317.7 131.12,321.55 126.85,325.39 122.58,329.24 118.31,333.08 114.04,336.93 109.77,340.77 105.5,344.62 101.23,348.46 96.96,352.31 92.68,356.15 88.96,351.87 85.39,347.47 81.96,342.95 78.7,338.31 75.59,333.57 72.65,328.72 69.87,323.78 67.26,318.74 64.83,313.62 62.57,308.42 60.49,303.14 58.59,297.8 56.87,292.39 55.34,286.93 53.99,281.42 52.83,275.87 51.86,270.28 51.09,264.66 50.5,259.02 50.11,253.36 49.91,247.7 49.9,242.03 50.09,236.36 50.47,230.7 51.04,225.06 51.8,219.44 52.75,213.85 53.89,208.29 55.23,202.78 56.74,197.31 58.45,191.9 60.33,186.55 62.4,181.27 64.65,176.07 67.07,170.94 69.66,165.89 72.43,160.94 75.36,156.09 78.45,151.33 81.71,146.69 85.12,142.16 88.68,137.75 92.39,133.46 96.25,129.3 100.24,125.27 104.37,121.39 108.63,117.64 113.02,114.04 117.52,110.6 122.14,107.31 126.87,104.17 131.7,101.2 136.63,98.4 141.65,95.77 146.76,93.3 151.95,91.02 157.21,88.91 162.55,86.98 167.94,85.24 173.4,83.67 178.9,82.3 184.44,81.11 190.03,80.12 195.64,79.31 201.28,78.7 206.93,78.27 212.6,78.04 218.27,78.01 223.94,78.16 229.6,78.51 235.25,79.05 240.87,79.78 246.47,80.71 252.03,81.82 257.55,83.12 263.02,84.61 268.44,86.29 273.8,88.15 279.09,90.19 284.31,92.4 289.45,94.8 294.51,97.37 299.47,100.11 304.34,103.01 309.11,106.08 313.77,109.31 318.32,112.7 322.75,116.24 327.06,119.93 331.24,123.76 335.29,127.74 339.2,131.84 342.96,136.08 346.58,140.45 350.05,144.93 353.37,149.54 356.53,154.25 359.52,159.06 362.35,163.98 365.01,168.99 367.5,174.08 369.81,179.26 371.95,184.52 373.91,189.84 375.68,195.23 377.27,200.67 378.67,206.16 379.89,211.7 380.91,217.28 381.75,222.89 382.39,228.53 382.85,234.18 383.11,239.84 383.17,245.52 383.05,251.19 382.73,256.85 382.22,262.5 381.51,268.12 380.62,273.72 379.53,279.29 378.26,284.82 376.8,290.3 375.15,295.72 373.32,301.09 371.31,306.4 369.12,311.63 366.75,316.78 364.21,321.85 361.5,326.83 358.62,331.72 355.57,336.5 352.37,341.18 349,345.74 345.49,350.19 341.82,354.52 338.01,358.72 334.06,362.79 329.97,366.72 325.75,370.51 321.4,374.15 316.93,377.65 312.35,380.99 307.66,384.17 302.86,387.19 297.95,390.04 292.96,392.73 287.88,395.24 282.71,397.58 277.47,399.75 272.16,401.73 266.78,403.53 261.34,405.15 255.85,406.58 250.32,407.83 244.75,408.88 239.14,409.75 233.51,410.42 227.86,410.9 222.2,411.19 216.53,411.29 216.53,405.54 216.53,399.8 216.53,394.05 216.53,388.3 216.53,382.56 216.53,376.81 216.53,371.06 216.53,365.32 216.53,359.57 216.53,353.83 216.53,348.08 216.53,342.33 216.53,336.59 216.53,330.84 216.53,325.09 216.53,319.35 216.53,313.6 216.53,307.85 216.53,302.11 216.53,296.36 216.53,290.61 216.53,284.87 216.53,279.12 216.53,273.38 216.53,267.63 216.53,261.88 216.53,256.14 216.53,250.39 216.53,244.64 216.53,244.64" stroke="none" fill="rgb(97,156,255)" stroke-width="1.07" stroke-dasharray="none" stroke-opacity="0" fill-opacity="1"/>
                </g>
                <g id="geom_polygon.polygon.3423.1" class="polygon grob gDesc">
                  <polygon id="geom_polygon.polygon.3423.1.1" points="216.53,244.64 216.39,250.39 216.26,256.13 216.13,261.88 215.99,267.62 215.86,273.37 215.73,279.11 215.59,284.86 215.46,290.6 215.32,296.35 215.19,302.09 215.06,307.84 214.92,313.58 214.79,319.33 214.66,325.07 214.52,330.82 214.39,336.56 214.25,342.31 214.12,348.05 213.99,353.8 213.85,359.54 213.72,365.29 213.59,371.03 213.45,376.78 213.32,382.52 213.18,388.27 213.05,394.01 212.92,399.76 212.78,405.5 212.65,411.24 207,411.02 201.36,410.6 195.74,409.99 190.14,409.19 184.57,408.2 179.04,407.02 173.55,405.65 168.11,404.1 162.73,402.37 157.41,400.45 152.16,398.36 146.98,396.08 141.88,393.64 136.87,391.02 131.95,388.23 127.12,385.28 122.4,382.16 117.79,378.89 113.29,375.46 108.91,371.89 104.66,368.16 100.53,364.29 96.54,360.29 92.68,356.15 96.96,352.31 101.23,348.46 105.5,344.62 109.77,340.77 114.04,336.93 118.31,333.08 122.58,329.24 126.85,325.39 131.12,321.55 135.39,317.7 139.66,313.86 143.93,310.01 148.2,306.17 152.47,302.32 156.74,298.47 161.01,294.63 165.28,290.78 169.55,286.94 173.82,283.09 178.09,279.25 182.36,275.4 186.63,271.56 190.91,267.71 195.18,263.87 199.45,260.02 203.72,256.18 207.99,252.33 212.26,248.49 216.53,244.64 216.53,244.64" stroke="none" fill="rgb(0,186,56)" stroke-width="1.07" stroke-dasharray="none" stroke-opacity="0" fill-opacity="1"/>
                </g>
                <g id="geom_polygon.polygon.3425.1" class="polygon grob gDesc">
                  <polygon id="geom_polygon.polygon.3425.1.1" points="216.53,244.64 216.53,250.39 216.53,256.14 216.53,261.88 216.53,267.63 216.53,273.38 216.53,279.12 216.53,284.87 216.53,290.61 216.53,296.36 216.53,302.11 216.53,307.85 216.53,313.6 216.53,319.35 216.53,325.09 216.53,330.84 216.53,336.59 216.53,342.33 216.53,348.08 216.53,353.83 216.53,359.57 216.53,365.32 216.53,371.06 216.53,376.81 216.53,382.56 216.53,388.3 216.53,394.05 216.53,399.8 216.53,405.54 216.53,411.29 212.65,411.24 212.78,405.5 212.92,399.76 213.05,394.01 213.18,388.27 213.32,382.52 213.45,376.78 213.59,371.03 213.72,365.29 213.85,359.54 213.99,353.8 214.12,348.05 214.25,342.31 214.39,336.56 214.52,330.82 214.66,325.07 214.79,319.33 214.92,313.58 215.06,307.84 215.19,302.09 215.32,296.35 215.46,290.6 215.59,284.86 215.73,279.11 215.86,273.37 215.99,267.62 216.13,261.88 216.26,256.13 216.39,250.39 216.53,244.64 216.53,244.64" stroke="none" fill="rgb(248,118,109)" stroke-width="1.07" stroke-dasharray="none" stroke-opacity="0" fill-opacity="1"/>
                </g>
              </g>
              <g id="GRID.text.3428.1" class="text grob gDesc">
                <g id="GRID.text.3428.1.1" transform="translate(250.42, 168.52)" stroke-width="0.1">
                  <g id="GRID.text.3428.1.1.scale" transform="scale(1, -1)">
                    <text x="0" y="0" id="GRID.text.3428.1.1.text" text-anchor="middle" stroke="rgb(0,0,0)" font-size="11.04" font-family="Helvetica, Arial, FreeSans, Liberation Sans, Nimbus Sans L, sans-serif" fill="rgb(0,0,0)" stroke-opacity="1" fill-opacity="1" font-weight="normal" font-style="normal">
                      <tspan id="GRID.text.3428.1.1.tspan.1" dy="3.95" x="0">234</tspan>
                    </text>
                  </g>
                </g>
                <g id="GRID.text.3428.1.2" transform="translate(181.75, 320.36)" stroke-width="0.1">
                  <g id="GRID.text.3428.1.2.scale" transform="scale(1, -1)">
                    <text x="0" y="0" id="GRID.text.3428.1.2.text" text-anchor="middle" stroke="rgb(0,0,0)" font-size="11.04" font-family="Helvetica, Arial, FreeSans, Liberation Sans, Nimbus Sans L, sans-serif" fill="rgb(0,0,0)" stroke-opacity="1" fill-opacity="1" font-weight="normal" font-style="normal">
                      <tspan id="GRID.text.3428.1.2.tspan.1" dy="3.95" x="0">35</tspan>
                    </text>
                  </g>
                </g>
                <g id="GRID.text.3428.1.3" transform="translate(215.56, 327.96)" stroke-width="0.1">
                  <g id="GRID.text.3428.1.3.scale" transform="scale(1, -1)">
                    <text x="0" y="0" id="GRID.text.3428.1.3.text" text-anchor="middle" stroke="rgb(0,0,0)" font-size="11.04" font-family="Helvetica, Arial, FreeSans, Liberation Sans, Nimbus Sans L, sans-serif" fill="rgb(0,0,0)" stroke-opacity="1" fill-opacity="1" font-weight="normal" font-style="normal">
                      <tspan id="GRID.text.3428.1.3.tspan.1" dy="3.95" x="0">1</tspan>
                    </text>
                  </g>
                </g>
              </g>
              <g id="GRID.gTree.3429.1" class="gTree grob gDesc"/>
            </g>
          </g>
          <g id="layout::spacer.8-6-8-6.1" class="viewport"/>
          <g id="layout::spacer.8-4-8-4.1" class="viewport"/>
          <g id="layout::spacer.6-6-6-6.1" class="viewport"/>
          <g id="layout::spacer.6-4-6-4.1" class="viewport"/>
          <g id="layout::axis-t.6-5-6-5.1" class="viewport"/>
          <g id="layout::axis-l.7-4-7-4.1" class="viewport">
            <g id="layout::axis-l.7-4-7-4::GRID.VP.824.1" class="viewport">
              <g id="axis-l.7-4-7-4.1" class="forcedgrob gTableChild absoluteGrob gTree grob gDesc">
                <g id="layout::axis-l.7-4-7-4::GRID.VP.824::axis.1" class="viewport">
                  <g id="axis.1" class="forcedgrob gtable gTree grob gDesc">
                    <g id="layout::axis-l.7-4-7-4::GRID.VP.824::axis::axis.1-1-1-1.1" class="viewport"/>
                    <g id="layout::axis-l.7-4-7-4::GRID.VP.824::axis::axis.1-2-1-2.1" class="viewport"/>
                  </g>
                </g>
              </g>
            </g>
          </g>
          <g id="layout::axis-r.7-6-7-6.1" class="viewport"/>
          <g id="layout::axis-b.8-5-8-5.1" class="viewport">
            <g id="layout::axis-b.8-5-8-5::GRID.VP.823.1" class="viewport">
              <g id="axis-b.8-5-8-5.1" class="forcedgrob gTableChild absoluteGrob gTree grob gDesc">
                <g id="layout::axis-b.8-5-8-5::GRID.VP.823::axis.1" class="viewport">
                  <g id="axis.2" class="forcedgrob gtable gTree grob gDesc">
                    <g id="layout::axis-b.8-5-8-5::GRID.VP.823::axis::axis.1-1-1-1.1" class="viewport"/>
                    <g id="layout::axis-b.8-5-8-5::GRID.VP.823::axis::axis.2-1-2-1.1" class="viewport"/>
                  </g>
                </g>
              </g>
            </g>
          </g>
          <g id="layout::xlab-t.5-5-5-5.1" class="viewport"/>
          <g id="layout::xlab-b.9-5-9-5.1" class="viewport"/>
          <g id="layout::ylab-l.7-3-7-3.1" class="viewport"/>
          <g id="layout::ylab-r.7-7-7-7.1" class="viewport"/>
          <g id="layout::guide-box.7-9-7-9.1" class="viewport">
            <g id="layout::guide-box.7-9-7-9::GRID.VP.835.1" class="viewport">
              <g id="layout::guide-box.7-9-7-9::GRID.VP.835::guide-box.7-9-7-9.1" class="viewport">
                <g id="guide-box.7-9-7-9.1" class="forcedgrob gTableChild gtable gTree grob gDesc">
                  <g id="layout::guide-box.7-9-7-9::GRID.VP.835::guide-box.7-9-7-9::legend.box.background.2-4-4-2.1" class="viewport"/>
                  <g id="layout::guide-box.7-9-7-9::GRID.VP.835::guide-box.7-9-7-9::guides.3-3-3-3.1" class="viewport">
                    <g id="layout::guide-box.7-9-7-9::GRID.VP.835::guide-box.7-9-7-9::guides.3-3-3-3::GRID.VP.834.1" class="viewport">
                      <g id="layout::guide-box.7-9-7-9::GRID.VP.835::guide-box.7-9-7-9::guides.3-3-3-3::GRID.VP.834::guides.3-3-3-3.1" class="viewport">
                        <g id="guides.3-3-3-3.1" class="forcedgrob gTableChild gtable gTree grob gDesc">
                          <g id="layout::guide-box.7-9-7-9::GRID.VP.835::guide-box.7-9-7-9::guides.3-3-3-3::GRID.VP.834::guides.3-3-3-3::background.1-6-7-1.1" class="viewport">
                            <g id="background.1-6-7-1.1" class="forcedgrob gTableChild rect grob gDesc">
                              <rect id="background.1-6-7-1.1.1" x="435.8" y="210.5" width="62.73" height="68.28" transform="" stroke-width="1.07" stroke="none" fill="rgb(255,255,255)" stroke-dasharray="none" stroke-opacity="0" fill-opacity="1"/>
                            </g>
                          </g>
                          <g id="layout::guide-box.7-9-7-9::GRID.VP.835::guide-box.7-9-7-9::guides.3-3-3-3::GRID.VP.834::guides.3-3-3-3::title.2-5-2-2.1" class="viewport"/>
                          <g id="layout::guide-box.7-9-7-9::GRID.VP.835::guide-box.7-9-7-9::guides.3-3-3-3::GRID.VP.834::guides.3-3-3-3::key-3-1-bg.4-2-4-2.1" class="viewport"/>
                          <g id="layout::guide-box.7-9-7-9::GRID.VP.835::guide-box.7-9-7-9::guides.3-3-3-3::GRID.VP.834::guides.3-3-3-3::key-3-1-1.4-2-4-2.1" class="viewport">
                            <g id="key-3-1-1.4-2-4-2.1" class="forcedgrob gTableChild rect grob gDesc">
                              <rect id="key-3-1-1.4-2-4-2.1.1" x="441.98" y="251.25" width="15.86" height="15.86" transform="" stroke="none" fill="rgb(248,118,109)" stroke-dasharray="none" stroke-width="1.07" stroke-linejoin="miter" stroke-opacity="0" fill-opacity="1"/>
                            </g>
                          </g>
                          <g id="layout::guide-box.7-9-7-9::GRID.VP.835::guide-box.7-9-7-9::guides.3-3-3-3::GRID.VP.834::guides.3-3-3-3::key-4-1-bg.5-2-5-2.1" class="viewport"/>
                          <g id="layout::guide-box.7-9-7-9::GRID.VP.835::guide-box.7-9-7-9::guides.3-3-3-3::GRID.VP.834::guides.3-3-3-3::key-4-1-1.5-2-5-2.1" class="viewport">
                            <g id="key-4-1-1.5-2-5-2.1" class="forcedgrob gTableChild rect grob gDesc">
                              <rect id="key-4-1-1.5-2-5-2.1.1" x="441.98" y="233.97" width="15.86" height="15.86" transform="" stroke="none" fill="rgb(0,186,56)" stroke-dasharray="none" stroke-width="1.07" stroke-linejoin="miter" stroke-opacity="0" fill-opacity="1"/>
                            </g>
                          </g>
                          <g id="layout::guide-box.7-9-7-9::GRID.VP.835::guide-box.7-9-7-9::guides.3-3-3-3::GRID.VP.834::guides.3-3-3-3::key-5-1-bg.6-2-6-2.1" class="viewport"/>
                          <g id="layout::guide-box.7-9-7-9::GRID.VP.835::guide-box.7-9-7-9::guides.3-3-3-3::GRID.VP.834::guides.3-3-3-3::key-5-1-1.6-2-6-2.1" class="viewport">
                            <g id="key-5-1-1.6-2-6-2.1" class="forcedgrob gTableChild rect grob gDesc">
                              <rect id="key-5-1-1.6-2-6-2.1.1" x="441.98" y="216.69" width="15.86" height="15.86" transform="" stroke="none" fill="rgb(97,156,255)" stroke-dasharray="none" stroke-width="1.07" stroke-linejoin="miter" stroke-opacity="0" fill-opacity="1"/>
                            </g>
                          </g>
                          <g id="layout::guide-box.7-9-7-9::GRID.VP.835::guide-box.7-9-7-9::guides.3-3-3-3::GRID.VP.834::guides.3-3-3-3::label-3-3.4-4-4-4.1" class="viewport">
                            <g id="layout::guide-box.7-9-7-9::GRID.VP.835::guide-box.7-9-7-9::guides.3-3-3-3::GRID.VP.834::guides.3-3-3-3::label-3-3.4-4-4-4::GRID.VP.831.1" class="viewport">
                              <g id="label-3-3.4-4-4-4.1" class="forcedgrob gTableChild gTree grob gDesc">
                                <g id="layout::guide-box.7-9-7-9::GRID.VP.835::guide-box.7-9-7-9::guides.3-3-3-3::GRID.VP.834::guides.3-3-3-3::label-3-3.4-4-4-4::GRID.VP.831::GRID.VP.825.1" font-size="8.8" stroke="rgb(0,0,0)" font-family="Helvetica, Arial, FreeSans, Liberation Sans, Nimbus Sans L, sans-serif" stroke-opacity="1" font-weight="normal" font-style="normal" class="viewport">
                                  <g id="layout::guide-box.7-9-7-9::GRID.VP.835::guide-box.7-9-7-9::guides.3-3-3-3::GRID.VP.834::guides.3-3-3-3::label-3-3.4-4-4-4::GRID.VP.831::GRID.VP.825::GRID.VP.826.1" class="viewport">
                                    <g id="guide.label.titleGrob.3452.1" class="titleGrob gTree grob gDesc">
                                      <g id="GRID.text.3450.1" class="text grob gDesc">
                                        <g id="GRID.text.3450.1.1" transform="translate(464.03, 259.18)" stroke-width="0.1">
                                          <g id="GRID.text.3450.1.1.scale" transform="scale(1, -1)">
                                            <text x="0" y="0" id="GRID.text.3450.1.1.text" text-anchor="start" font-size="8.8" stroke="rgb(0,0,0)" font-family="Helvetica, Arial, FreeSans, Liberation Sans, Nimbus Sans L, sans-serif" fill="rgb(0,0,0)" stroke-opacity="1" fill-opacity="1" font-weight="normal" font-style="normal">
                                              <tspan id="GRID.text.3450.1.1.tspan.1" dy="3.23" x="0">A (1)</tspan>
                                            </text>
                                          </g>
                                        </g>
                                      </g>
                                    </g>
                                  </g>
                                </g>
                              </g>
                            </g>
                          </g>
                          <g id="layout::guide-box.7-9-7-9::GRID.VP.835::guide-box.7-9-7-9::guides.3-3-3-3::GRID.VP.834::guides.3-3-3-3::label-4-3.5-4-5-4.1" class="viewport">
                            <g id="layout::guide-box.7-9-7-9::GRID.VP.835::guide-box.7-9-7-9::guides.3-3-3-3::GRID.VP.834::guides.3-3-3-3::label-4-3.5-4-5-4::GRID.VP.832.1" class="viewport">
                              <g id="label-4-3.5-4-5-4.1" class="forcedgrob gTableChild gTree grob gDesc">
                                <g id="layout::guide-box.7-9-7-9::GRID.VP.835::guide-box.7-9-7-9::guides.3-3-3-3::GRID.VP.834::guides.3-3-3-3::label-4-3.5-4-5-4::GRID.VP.832::GRID.VP.827.1" font-size="8.8" stroke="rgb(0,0,0)" font-family="Helvetica, Arial, FreeSans, Liberation Sans, Nimbus Sans L, sans-serif" stroke-opacity="1" font-weight="normal" font-style="normal" class="viewport">
                                  <g id="layout::guide-box.7-9-7-9::GRID.VP.835::guide-box.7-9-7-9::guides.3-3-3-3::GRID.VP.834::guides.3-3-3-3::label-4-3.5-4-5-4::GRID.VP.832::GRID.VP.827::GRID.VP.828.1" class="viewport">
                                    <g id="guide.label.titleGrob.3455.1" class="titleGrob gTree grob gDesc">
                                      <g id="GRID.text.3453.1" class="text grob gDesc">
                                        <g id="GRID.text.3453.1.1" transform="translate(464.03, 241.9)" stroke-width="0.1">
                                          <g id="GRID.text.3453.1.1.scale" transform="scale(1, -1)">
                                            <text x="0" y="0" id="GRID.text.3453.1.1.text" text-anchor="start" font-size="8.8" stroke="rgb(0,0,0)" font-family="Helvetica, Arial, FreeSans, Liberation Sans, Nimbus Sans L, sans-serif" fill="rgb(0,0,0)" stroke-opacity="1" fill-opacity="1" font-weight="normal" font-style="normal">
                                              <tspan id="GRID.text.3453.1.1.tspan.1" dy="3.23" x="0">M (35)</tspan>
                                            </text>
                                          </g>
                                        </g>
                                      </g>
                                    </g>
                                  </g>
                                </g>
                              </g>
                            </g>
                          </g>
                          <g id="layout::guide-box.7-9-7-9::GRID.VP.835::guide-box.7-9-7-9::guides.3-3-3-3::GRID.VP.834::guides.3-3-3-3::label-5-3.6-4-6-4.1" class="viewport">
                            <g id="layout::guide-box.7-9-7-9::GRID.VP.835::guide-box.7-9-7-9::guides.3-3-3-3::GRID.VP.834::guides.3-3-3-3::label-5-3.6-4-6-4::GRID.VP.833.1" class="viewport">
                              <g id="label-5-3.6-4-6-4.1" class="forcedgrob gTableChild gTree grob gDesc">
                                <g id="layout::guide-box.7-9-7-9::GRID.VP.835::guide-box.7-9-7-9::guides.3-3-3-3::GRID.VP.834::guides.3-3-3-3::label-5-3.6-4-6-4::GRID.VP.833::GRID.VP.829.1" font-size="8.8" stroke="rgb(0,0,0)" font-family="Helvetica, Arial, FreeSans, Liberation Sans, Nimbus Sans L, sans-serif" stroke-opacity="1" font-weight="normal" font-style="normal" class="viewport">
                                  <g id="layout::guide-box.7-9-7-9::GRID.VP.835::guide-box.7-9-7-9::guides.3-3-3-3::GRID.VP.834::guides.3-3-3-3::label-5-3.6-4-6-4::GRID.VP.833::GRID.VP.829::GRID.VP.830.1" class="viewport">
                                    <g id="guide.label.titleGrob.3458.1" class="titleGrob gTree grob gDesc">
                                      <g id="GRID.text.3456.1" class="text grob gDesc">
                                        <g id="GRID.text.3456.1.1" transform="translate(464.03, 224.62)" stroke-width="0.1">
                                          <g id="GRID.text.3456.1.1.scale" transform="scale(1, -1)">
                                            <text x="0" y="0" id="GRID.text.3456.1.1.text" text-anchor="start" font-size="8.8" stroke="rgb(0,0,0)" font-family="Helvetica, Arial, FreeSans, Liberation Sans, Nimbus Sans L, sans-serif" fill="rgb(0,0,0)" stroke-opacity="1" fill-opacity="1" font-weight="normal" font-style="normal">
                                              <tspan id="GRID.text.3456.1.1.tspan.1" dy="3.23" x="0">F (234)</tspan>
                                            </text>
                                          </g>
                                        </g>
                                      </g>
                                    </g>
                                  </g>
                                </g>
                              </g>
                            </g>
                          </g>
                        </g>
                      </g>
                    </g>
                  </g>
                </g>
              </g>
            </g>
          </g>
          <g id="layout::subtitle.4-5-4-5.1" class="viewport"/>
          <g id="layout::title.3-5-3-5.1" class="viewport">
            <g id="layout::title.3-5-3-5::GRID.VP.836.1" font-size="13.2" stroke="rgb(102,102,102)" font-family="Helvetica, Arial, FreeSans, Liberation Sans, Nimbus Sans L, sans-serif" stroke-opacity="1" font-weight="normal" font-style="normal" class="viewport">
              <g id="layout::title.3-5-3-5::GRID.VP.836::GRID.VP.837.1" class="viewport">
                <g id="title.3-5-3-5.1" class="forcedgrob gTableChild titleGrob gTree grob gDesc">
                  <g id="GRID.text.3470.1" class="text grob gDesc">
                    <g id="GRID.text.3470.1.1" transform="translate(216.53, 470.41)" stroke-width="0.1">
                      <g id="GRID.text.3470.1.1.scale" transform="scale(1, -1)">
                        <text x="0" y="0" id="GRID.text.3470.1.1.text" text-anchor="middle" font-size="13.2" stroke="rgb(102,102,102)" font-family="Helvetica, Arial, FreeSans, Liberation Sans, Nimbus Sans L, sans-serif" fill="rgb(102,102,102)" stroke-opacity="1" fill-opacity="1" font-weight="normal" font-style="normal">
                          <tspan id="GRID.text.3470.1.1.tspan.1" dy="9.33" x="0">anagrafica sesso</tspan>
                        </text>
                      </g>
                    </g>
                  </g>
                </g>
              </g>
            </g>
          </g>
          <g id="layout::caption.10-5-10-5.1" class="viewport"/>
          <g id="layout::tag.2-2-2-2.1" class="viewport"/>
        </g>
      </g>
    </g>
  </g>
</svg>