<?xml version="1.0" encoding="UTF-8"?>
<svg xmlns="http://www.w3.org/2000/svg" xmlns:xlink="http://www.w3.org/1999/xlink" width="504px" height="504px" viewBox="0 0 504 504" version="1.1">
  <metadata xmlns:gridsvg="http://www.stat.auckland.ac.nz/~paul/R/gridSVG/">
    <gridsvg:generator name="gridSVG" version="1.6-0" time="2019-01-07 19:39:02"/>
    <gridsvg:argument name="name" value="./latest_informaggio_csv/risultati/svg/anagrafica-totali-espertoliceo.svg"/>
    <gridsvg:argument name="exportCoords" value="none"/>
    <gridsvg:argument name="exportMappings" value="none"/>
    <gridsvg:argument name="exportJS" value="none"/>
    <gridsvg:argument name="res" value="72"/>
    <gridsvg:argument name="prefix" value=""/>
    <gridsvg:argument name="addClasses" value="TRUE"/>
    <gridsvg:argument name="indent" value="TRUE"/>
    <gridsvg:argument name="htmlWrapper" value="FALSE"/>
    <gridsvg:argument name="usePaths" value="vpPaths"/>
    <gridsvg:argument name="uniqueNames" value="TRUE"/>
    <gridsvg:separator name="id.sep" value="."/>
    <gridsvg:separator name="gPath.sep" value="::"/>
    <gridsvg:separator name="vpPath.sep" value="::"/>
  </metadata>
  <g transform="translate(0, 504) scale(1, -1)">
    <g id="gridSVG" fill="none" stroke="rgb(0,0,0)" stroke-dasharray="none" stroke-width="0.75" font-size="12" font-family="Helvetica, Arial, FreeSans, Liberation Sans, Nimbus Sans L, sans-serif" opacity="1" stroke-linecap="round" stroke-linejoin="round" stroke-miterlimit="10" stroke-opacity="1" fill-opacity="0" font-weight="normal" font-style="normal">
      <g id="layout.1" class="viewport">
        <g id="layout.2" class="forcedgrob gtable gTree grob gDesc">
          <defs>
            <clipPath id="layout::background.1-11-12-1.1.clipPath">
              <rect x="0" y="16.86" width="504" height="470.28" fill="none" stroke="none"/>
            </clipPath>
          </defs>
          <g id="layout::background.1-11-12-1.1" clip-path="url(#layout::background.1-11-12-1.1.clipPath)" class="viewport">
            <g id="background.1-11-12-1.1" class="forcedgrob gTableChild rect grob gDesc">
              <rect id="background.1-11-12-1.1.1" x="0" y="16.86" width="504" height="470.28" transform="" stroke-width="1.07" stroke="rgb(255,255,255)" fill="rgb(255,255,255)" stroke-dasharray="none" stroke-opacity="1" fill-opacity="1"/>
            </g>
          </g>
          <defs>
            <clipPath id="layout::panel.7-5-7-5.1.clipPath">
              <rect x="8.22" y="25.08" width="439.13" height="439.13" fill="none" stroke="none"/>
            </clipPath>
          </defs>
          <g id="layout::panel.7-5-7-5.1" clip-path="url(#layout::panel.7-5-7-5.1.clipPath)" class="viewport">
            <g id="panel.7-5-7-5.1" class="forcedgrob gTableChild gTree grob gDesc">
              <g id="grill.gTree.2117.1" class="gTree grob gDesc">
                <g id="panel.background..rect.2113.1" class="rect grob gDesc">
                  <rect id="panel.background..rect.2113.1.1" x="8.22" y="25.08" width="439.13" height="439.13" transform="" stroke-width="1.07" stroke="none" fill="rgb(255,255,255)" stroke-dasharray="none" stroke-opacity="0" fill-opacity="1"/>
                </g>
              </g>
              <g id="bar.gTree.2106.1" class="gTree grob gDesc">
                <g id="geom_polygon.polygon.2102.1" class="polygon grob gDesc">
                  <polygon id="geom_polygon.polygon.2102.1.1" points="227.78,244.64 222.38,247.37 216.97,250.1 211.56,252.83 206.16,255.56 200.75,258.29 195.34,261.03 189.94,263.76 184.53,266.49 179.12,269.22 173.72,271.95 168.31,274.68 162.9,277.41 157.5,280.14 152.09,282.87 146.68,285.6 141.28,288.33 135.87,291.06 130.46,293.79 125.06,296.52 119.65,299.25 114.24,301.98 108.84,304.71 103.43,307.44 98.02,310.17 92.62,312.9 87.21,315.63 81.8,318.36 76.4,321.09 70.99,323.82 68.4,318.47 65.99,313.03 63.77,307.52 61.74,301.93 59.89,296.28 58.24,290.56 56.78,284.8 55.52,278.99 54.46,273.14 53.59,267.25 52.93,261.34 52.46,255.42 52.2,249.47 52.14,243.53 52.27,237.58 52.61,231.65 53.15,225.72 53.89,219.82 54.83,213.95 55.97,208.12 57.31,202.32 58.84,196.57 60.56,190.88 62.48,185.25 64.58,179.69 66.87,174.2 69.35,168.8 72.01,163.48 74.85,158.25 77.86,153.12 81.04,148.1 84.39,143.19 87.91,138.4 91.59,133.72 95.42,129.17 99.4,124.76 103.53,120.48 107.81,116.35 112.22,112.36 116.76,108.53 121.44,104.85 126.23,101.33 131.14,97.97 136.16,94.78 141.28,91.77 146.51,88.93 151.83,86.26 157.23,83.78 162.72,81.49 168.28,79.38 173.9,77.46 179.59,75.73 185.34,74.2 191.13,72.86 196.97,71.72 202.84,70.77 208.74,70.03 214.66,69.48 220.6,69.14 226.54,69 232.49,69.06 238.43,69.32 244.36,69.78 250.27,70.44 256.15,71.3 262,72.36 267.82,73.62 273.58,75.07 279.3,76.72 284.95,78.56 290.54,80.59 296.06,82.81 301.5,85.21 306.85,87.8 312.12,90.56 317.28,93.51 322.35,96.62 327.3,99.91 332.15,103.36 336.87,106.97 341.47,110.74 345.93,114.67 350.27,118.74 354.46,122.96 358.5,127.32 362.4,131.81 366.14,136.43 369.73,141.18 373.15,146.04 376.4,151.02 379.49,156.1 382.4,161.29 385.13,166.57 387.68,171.94 390.05,177.4 392.23,182.93 394.23,188.53 396.03,194.2 397.64,199.92 399.06,205.7 400.28,211.52 401.3,217.37 402.13,223.26 402.75,229.18 403.17,235.11 403.4,241.05 403.42,247 403.24,252.94 402.86,258.88 402.27,264.79 401.49,270.69 400.51,276.55 399.33,282.38 397.95,288.17 396.38,293.9 394.62,299.58 392.66,305.2 390.52,310.74 388.19,316.21 385.68,321.6 382.98,326.9 380.11,332.11 377.06,337.22 373.84,342.22 370.45,347.1 366.9,351.88 363.19,356.52 359.33,361.04 355.31,365.43 351.15,369.68 346.85,373.78 342.41,377.74 337.84,381.54 333.14,385.19 328.32,388.67 323.39,391.99 318.35,395.15 313.2,398.13 307.96,400.93 302.62,403.55 297.2,406 291.7,408.25 286.12,410.32 280.48,412.2 274.78,413.89 269.02,415.38 263.22,416.68 257.37,417.78 251.5,418.69 245.59,419.39 239.67,419.89 233.73,420.19 227.78,420.29 227.78,414.24 227.78,408.18 227.78,402.12 227.78,396.07 227.78,390.01 227.78,383.95 227.78,377.9 227.78,371.84 227.78,365.78 227.78,359.72 227.78,353.67 227.78,347.61 227.78,341.55 227.78,335.5 227.78,329.44 227.78,323.38 227.78,317.33 227.78,311.27 227.78,305.21 227.78,299.16 227.78,293.1 227.78,287.04 227.78,280.98 227.78,274.93 227.78,268.87 227.78,262.81 227.78,256.76 227.78,250.7 227.78,244.64 227.78,244.64" stroke="none" fill="rgb(0,191,196)" stroke-width="1.07" stroke-dasharray="none" stroke-opacity="0" fill-opacity="1"/>
                </g>
                <g id="geom_polygon.polygon.2104.1" class="polygon grob gDesc">
                  <polygon id="geom_polygon.polygon.2104.1.1" points="227.78,244.64 227.78,250.7 227.78,256.76 227.78,262.81 227.78,268.87 227.78,274.93 227.78,280.98 227.78,287.04 227.78,293.1 227.78,299.16 227.78,305.21 227.78,311.27 227.78,317.33 227.78,323.38 227.78,329.44 227.78,335.5 227.78,341.55 227.78,347.61 227.78,353.67 227.78,359.72 227.78,365.78 227.78,371.84 227.78,377.9 227.78,383.95 227.78,390.01 227.78,396.07 227.78,402.12 227.78,408.18 227.78,414.24 227.78,420.29 221.73,420.19 215.68,419.88 209.65,419.36 203.64,418.63 197.66,417.69 191.71,416.55 185.81,415.2 179.95,413.66 174.15,411.91 168.42,409.96 162.76,407.81 157.17,405.48 151.67,402.95 146.26,400.23 140.95,397.33 135.74,394.24 130.63,390.98 125.65,387.55 120.78,383.94 116.05,380.17 111.44,376.24 106.97,372.15 102.65,367.91 98.48,363.53 94.46,359 90.59,354.34 86.89,349.54 83.36,344.62 80,339.59 76.82,334.44 73.81,329.18 70.99,323.82 76.4,321.09 81.8,318.36 87.21,315.63 92.62,312.9 98.02,310.17 103.43,307.44 108.84,304.71 114.24,301.98 119.65,299.25 125.06,296.52 130.46,293.79 135.87,291.06 141.28,288.33 146.68,285.6 152.09,282.87 157.5,280.14 162.9,277.41 168.31,274.68 173.72,271.95 179.12,269.22 184.53,266.49 189.94,263.76 195.34,261.03 200.75,258.29 206.16,255.56 211.56,252.83 216.97,250.1 222.38,247.37 227.78,244.64 227.78,244.64" stroke="none" fill="rgb(248,118,109)" stroke-width="1.07" stroke-dasharray="none" stroke-opacity="0" fill-opacity="1"/>
                </g>
              </g>
              <g id="GRID.text.2107.1" class="text grob gDesc">
                <g id="GRID.text.2107.1.1" transform="translate(273.81, 169.84)" stroke-width="0.1">
                  <g id="GRID.text.2107.1.1.scale" transform="scale(1, -1)">
                    <text x="0" y="0" id="GRID.text.2107.1.1.text" text-anchor="middle" stroke="rgb(0,0,0)" font-size="11.04" font-family="Helvetica, Arial, FreeSans, Liberation Sans, Nimbus Sans L, sans-serif" fill="rgb(0,0,0)" stroke-opacity="1" fill-opacity="1" font-weight="normal" font-style="normal">
                      <tspan id="GRID.text.2107.1.1.tspan.1" dy="3.95" x="0">216</tspan>
                    </text>
                  </g>
                </g>
                <g id="GRID.text.2107.1.2" transform="translate(181.76, 319.44)" stroke-width="0.1">
                  <g id="GRID.text.2107.1.2.scale" transform="scale(1, -1)">
                    <text x="0" y="0" id="GRID.text.2107.1.2.text" text-anchor="middle" stroke="rgb(0,0,0)" font-size="11.04" font-family="Helvetica, Arial, FreeSans, Liberation Sans, Nimbus Sans L, sans-serif" fill="rgb(0,0,0)" stroke-opacity="1" fill-opacity="1" font-weight="normal" font-style="normal">
                      <tspan id="GRID.text.2107.1.2.tspan.1" dy="3.95" x="0">46</tspan>
                    </text>
                  </g>
                </g>
              </g>
              <g id="GRID.gTree.2108.1" class="gTree grob gDesc"/>
            </g>
          </g>
          <g id="layout::spacer.8-6-8-6.1" class="viewport"/>
          <g id="layout::spacer.8-4-8-4.1" class="viewport"/>
          <g id="layout::spacer.6-6-6-6.1" class="viewport"/>
          <g id="layout::spacer.6-4-6-4.1" class="viewport"/>
          <g id="layout::axis-t.6-5-6-5.1" class="viewport"/>
          <g id="layout::axis-l.7-4-7-4.1" class="viewport">
            <g id="layout::axis-l.7-4-7-4::GRID.VP.497.1" class="viewport">
              <g id="axis-l.7-4-7-4.1" class="forcedgrob gTableChild absoluteGrob gTree grob gDesc">
                <g id="layout::axis-l.7-4-7-4::GRID.VP.497::axis.1" class="viewport">
                  <g id="axis.1" class="forcedgrob gtable gTree grob gDesc">
                    <g id="layout::axis-l.7-4-7-4::GRID.VP.497::axis::axis.1-1-1-1.1" class="viewport"/>
                    <g id="layout::axis-l.7-4-7-4::GRID.VP.497::axis::axis.1-2-1-2.1" class="viewport"/>
                  </g>
                </g>
              </g>
            </g>
          </g>
          <g id="layout::axis-r.7-6-7-6.1" class="viewport"/>
          <g id="layout::axis-b.8-5-8-5.1" class="viewport">
            <g id="layout::axis-b.8-5-8-5::GRID.VP.496.1" class="viewport">
              <g id="axis-b.8-5-8-5.1" class="forcedgrob gTableChild absoluteGrob gTree grob gDesc">
                <g id="layout::axis-b.8-5-8-5::GRID.VP.496::axis.1" class="viewport">
                  <g id="axis.2" class="forcedgrob gtable gTree grob gDesc">
                    <g id="layout::axis-b.8-5-8-5::GRID.VP.496::axis::axis.1-1-1-1.1" class="viewport"/>
                    <g id="layout::axis-b.8-5-8-5::GRID.VP.496::axis::axis.2-1-2-1.1" class="viewport"/>
                  </g>
                </g>
              </g>
            </g>
          </g>
          <g id="layout::xlab-t.5-5-5-5.1" class="viewport"/>
          <g id="layout::xlab-b.9-5-9-5.1" class="viewport"/>
          <g id="layout::ylab-l.7-3-7-3.1" class="viewport"/>
          <g id="layout::ylab-r.7-7-7-7.1" class="viewport"/>
          <g id="layout::guide-box.7-9-7-9.1" class="viewport">
            <g id="layout::guide-box.7-9-7-9::GRID.VP.505.1" class="viewport">
              <g id="layout::guide-box.7-9-7-9::GRID.VP.505::guide-box.7-9-7-9.1" class="viewport">
                <g id="guide-box.7-9-7-9.1" class="forcedgrob gTableChild gtable gTree grob gDesc">
                  <g id="layout::guide-box.7-9-7-9::GRID.VP.505::guide-box.7-9-7-9::legend.box.background.2-4-4-2.1" class="viewport"/>
                  <g id="layout::guide-box.7-9-7-9::GRID.VP.505::guide-box.7-9-7-9::guides.3-3-3-3.1" class="viewport">
                    <g id="layout::guide-box.7-9-7-9::GRID.VP.505::guide-box.7-9-7-9::guides.3-3-3-3::GRID.VP.504.1" class="viewport">
                      <g id="layout::guide-box.7-9-7-9::GRID.VP.505::guide-box.7-9-7-9::guides.3-3-3-3::GRID.VP.504::guides.3-3-3-3.1" class="viewport">
                        <g id="guides.3-3-3-3.1" class="forcedgrob gTableChild gtable gTree grob gDesc">
                          <g id="layout::guide-box.7-9-7-9::GRID.VP.505::guide-box.7-9-7-9::guides.3-3-3-3::GRID.VP.504::guides.3-3-3-3::background.1-6-6-1.1" class="viewport">
                            <g id="background.1-6-6-1.1" class="forcedgrob gTableChild rect grob gDesc">
                              <rect id="background.1-6-6-1.1.1" x="458.3" y="219.14" width="40.22" height="51" transform="" stroke-width="1.07" stroke="none" fill="rgb(255,255,255)" stroke-dasharray="none" stroke-opacity="0" fill-opacity="1"/>
                            </g>
                          </g>
                          <g id="layout::guide-box.7-9-7-9::GRID.VP.505::guide-box.7-9-7-9::guides.3-3-3-3::GRID.VP.504::guides.3-3-3-3::title.2-5-2-2.1" class="viewport"/>
                          <g id="layout::guide-box.7-9-7-9::GRID.VP.505::guide-box.7-9-7-9::guides.3-3-3-3::GRID.VP.504::guides.3-3-3-3::key-3-1-bg.4-2-4-2.1" class="viewport"/>
                          <g id="layout::guide-box.7-9-7-9::GRID.VP.505::guide-box.7-9-7-9::guides.3-3-3-3::GRID.VP.504::guides.3-3-3-3::key-3-1-1.4-2-4-2.1" class="viewport">
                            <g id="key-3-1-1.4-2-4-2.1" class="forcedgrob gTableChild rect grob gDesc">
                              <rect id="key-3-1-1.4-2-4-2.1.1" x="464.49" y="242.61" width="15.86" height="15.86" transform="" stroke="none" fill="rgb(248,118,109)" stroke-dasharray="none" stroke-width="1.07" stroke-linejoin="miter" stroke-opacity="0" fill-opacity="1"/>
                            </g>
                          </g>
                          <g id="layout::guide-box.7-9-7-9::GRID.VP.505::guide-box.7-9-7-9::guides.3-3-3-3::GRID.VP.504::guides.3-3-3-3::key-4-1-bg.5-2-5-2.1" class="viewport"/>
                          <g id="layout::guide-box.7-9-7-9::GRID.VP.505::guide-box.7-9-7-9::guides.3-3-3-3::GRID.VP.504::guides.3-3-3-3::key-4-1-1.5-2-5-2.1" class="viewport">
                            <g id="key-4-1-1.5-2-5-2.1" class="forcedgrob gTableChild rect grob gDesc">
                              <rect id="key-4-1-1.5-2-5-2.1.1" x="464.49" y="225.33" width="15.86" height="15.86" transform="" stroke="none" fill="rgb(0,191,196)" stroke-dasharray="none" stroke-width="1.07" stroke-linejoin="miter" stroke-opacity="0" fill-opacity="1"/>
                            </g>
                          </g>
                          <g id="layout::guide-box.7-9-7-9::GRID.VP.505::guide-box.7-9-7-9::guides.3-3-3-3::GRID.VP.504::guides.3-3-3-3::label-3-3.4-4-4-4.1" class="viewport">
                            <g id="layout::guide-box.7-9-7-9::GRID.VP.505::guide-box.7-9-7-9::guides.3-3-3-3::GRID.VP.504::guides.3-3-3-3::label-3-3.4-4-4-4::GRID.VP.502.1" class="viewport">
                              <g id="label-3-3.4-4-4-4.1" class="forcedgrob gTableChild gTree grob gDesc">
                                <g id="layout::guide-box.7-9-7-9::GRID.VP.505::guide-box.7-9-7-9::guides.3-3-3-3::GRID.VP.504::guides.3-3-3-3::label-3-3.4-4-4-4::GRID.VP.502::GRID.VP.498.1" font-size="8.8" stroke="rgb(0,0,0)" font-family="Helvetica, Arial, FreeSans, Liberation Sans, Nimbus Sans L, sans-serif" stroke-opacity="1" font-weight="normal" font-style="normal" class="viewport">
                                  <g id="layout::guide-box.7-9-7-9::GRID.VP.505::guide-box.7-9-7-9::guides.3-3-3-3::GRID.VP.504::guides.3-3-3-3::label-3-3.4-4-4-4::GRID.VP.502::GRID.VP.498::GRID.VP.499.1" class="viewport">
                                    <g id="guide.label.titleGrob.2131.1" class="titleGrob gTree grob gDesc">
                                      <g id="GRID.text.2129.1" class="text grob gDesc">
                                        <g id="GRID.text.2129.1.1" transform="translate(486.54, 250.54)" stroke-width="0.1">
                                          <g id="GRID.text.2129.1.1.scale" transform="scale(1, -1)">
                                            <text x="0" y="0" id="GRID.text.2129.1.1.text" text-anchor="start" font-size="8.8" stroke="rgb(0,0,0)" font-family="Helvetica, Arial, FreeSans, Liberation Sans, Nimbus Sans L, sans-serif" fill="rgb(0,0,0)" stroke-opacity="1" fill-opacity="1" font-weight="normal" font-style="normal">
                                              <tspan id="GRID.text.2129.1.1.tspan.1" dy="3.23" x="0">N</tspan>
                                            </text>
                                          </g>
                                        </g>
                                      </g>
                                    </g>
                                  </g>
                                </g>
                              </g>
                            </g>
                          </g>
                          <g id="layout::guide-box.7-9-7-9::GRID.VP.505::guide-box.7-9-7-9::guides.3-3-3-3::GRID.VP.504::guides.3-3-3-3::label-4-3.5-4-5-4.1" class="viewport">
                            <g id="layout::guide-box.7-9-7-9::GRID.VP.505::guide-box.7-9-7-9::guides.3-3-3-3::GRID.VP.504::guides.3-3-3-3::label-4-3.5-4-5-4::GRID.VP.503.1" class="viewport">
                              <g id="label-4-3.5-4-5-4.1" class="forcedgrob gTableChild gTree grob gDesc">
                                <g id="layout::guide-box.7-9-7-9::GRID.VP.505::guide-box.7-9-7-9::guides.3-3-3-3::GRID.VP.504::guides.3-3-3-3::label-4-3.5-4-5-4::GRID.VP.503::GRID.VP.500.1" font-size="8.8" stroke="rgb(0,0,0)" font-family="Helvetica, Arial, FreeSans, Liberation Sans, Nimbus Sans L, sans-serif" stroke-opacity="1" font-weight="normal" font-style="normal" class="viewport">
                                  <g id="layout::guide-box.7-9-7-9::GRID.VP.505::guide-box.7-9-7-9::guides.3-3-3-3::GRID.VP.504::guides.3-3-3-3::label-4-3.5-4-5-4::GRID.VP.503::GRID.VP.500::GRID.VP.501.1" class="viewport">
                                    <g id="guide.label.titleGrob.2134.1" class="titleGrob gTree grob gDesc">
                                      <g id="GRID.text.2132.1" class="text grob gDesc">
                                        <g id="GRID.text.2132.1.1" transform="translate(486.54, 233.26)" stroke-width="0.1">
                                          <g id="GRID.text.2132.1.1.scale" transform="scale(1, -1)">
                                            <text x="0" y="0" id="GRID.text.2132.1.1.text" text-anchor="start" font-size="8.8" stroke="rgb(0,0,0)" font-family="Helvetica, Arial, FreeSans, Liberation Sans, Nimbus Sans L, sans-serif" fill="rgb(0,0,0)" stroke-opacity="1" fill-opacity="1" font-weight="normal" font-style="normal">
                                              <tspan id="GRID.text.2132.1.1.tspan.1" dy="3.23" x="0">S</tspan>
                                            </text>
                                          </g>
                                        </g>
                                      </g>
                                    </g>
                                  </g>
                                </g>
                              </g>
                            </g>
                          </g>
                        </g>
                      </g>
                    </g>
                  </g>
                </g>
              </g>
            </g>
          </g>
          <g id="layout::subtitle.4-5-4-5.1" class="viewport"/>
          <g id="layout::title.3-5-3-5.1" class="viewport">
            <g id="layout::title.3-5-3-5::GRID.VP.506.1" font-size="13.2" stroke="rgb(102,102,102)" font-family="Helvetica, Arial, FreeSans, Liberation Sans, Nimbus Sans L, sans-serif" stroke-opacity="1" font-weight="normal" font-style="normal" class="viewport">
              <g id="layout::title.3-5-3-5::GRID.VP.506::GRID.VP.507.1" class="viewport">
                <g id="title.3-5-3-5.1" class="forcedgrob gTableChild titleGrob gTree grob gDesc">
                  <g id="GRID.text.2143.1" class="text grob gDesc">
                    <g id="GRID.text.2143.1.1" transform="translate(227.78, 481.66)" stroke-width="0.1">
                      <g id="GRID.text.2143.1.1.scale" transform="scale(1, -1)">
                        <text x="0" y="0" id="GRID.text.2143.1.1.text" text-anchor="middle" font-size="13.2" stroke="rgb(102,102,102)" font-family="Helvetica, Arial, FreeSans, Liberation Sans, Nimbus Sans L, sans-serif" fill="rgb(102,102,102)" stroke-opacity="1" fill-opacity="1" font-weight="normal" font-style="normal">
                          <tspan id="GRID.text.2143.1.1.tspan.1" dy="9.33" x="0">anagrafica totali-espertoliceo</tspan>
                        </text>
                      </g>
                    </g>
                  </g>
                </g>
              </g>
            </g>
          </g>
          <g id="layout::caption.10-5-10-5.1" class="viewport"/>
          <g id="layout::tag.2-2-2-2.1" class="viewport"/>
        </g>
      </g>
    </g>
  </g>
</svg>