<?xml version="1.0" encoding="UTF-8"?>
<svg xmlns="http://www.w3.org/2000/svg" xmlns:xlink="http://www.w3.org/1999/xlink" width="504px" height="504px" viewBox="0 0 504 504" version="1.1">
  <metadata xmlns:gridsvg="http://www.stat.auckland.ac.nz/~paul/R/gridSVG/">
    <gridsvg:generator name="gridSVG" version="1.6-0" time="2019-01-14 19:37:48"/>
    <gridsvg:argument name="name" value="./latest_informaggio_csv/risultati/svg/anagrafica-competenza.svg"/>
    <gridsvg:argument name="exportCoords" value="none"/>
    <gridsvg:argument name="exportMappings" value="none"/>
    <gridsvg:argument name="exportJS" value="none"/>
    <gridsvg:argument name="res" value="72"/>
    <gridsvg:argument name="prefix" value=""/>
    <gridsvg:argument name="addClasses" value="TRUE"/>
    <gridsvg:argument name="indent" value="TRUE"/>
    <gridsvg:argument name="htmlWrapper" value="FALSE"/>
    <gridsvg:argument name="usePaths" value="vpPaths"/>
    <gridsvg:argument name="uniqueNames" value="TRUE"/>
    <gridsvg:separator name="id.sep" value="."/>
    <gridsvg:separator name="gPath.sep" value="::"/>
    <gridsvg:separator name="vpPath.sep" value="::"/>
  </metadata>
  <g transform="translate(0, 504) scale(1, -1)">
    <g id="gridSVG" fill="none" stroke="rgb(0,0,0)" stroke-dasharray="none" stroke-width="0.75" font-size="12" font-family="Helvetica, Arial, FreeSans, Liberation Sans, Nimbus Sans L, sans-serif" opacity="1" stroke-linecap="round" stroke-linejoin="round" stroke-miterlimit="10" stroke-opacity="1" fill-opacity="0" font-weight="normal" font-style="normal">
      <g id="layout.1" class="viewport">
        <g id="layout.2" class="forcedgrob gtable gTree grob gDesc">
          <defs>
            <clipPath id="layout::background.1-11-12-1.1.clipPath">
              <rect x="0" y="46.62" width="504" height="410.75" fill="none" stroke="none"/>
            </clipPath>
          </defs>
          <g id="layout::background.1-11-12-1.1" clip-path="url(#layout::background.1-11-12-1.1.clipPath)" class="viewport">
            <g id="background.1-11-12-1.1" class="forcedgrob gTableChild rect grob gDesc">
              <rect id="background.1-11-12-1.1.1" x="0" y="46.62" width="504" height="410.75" transform="" stroke-width="1.07" stroke="rgb(255,255,255)" fill="rgb(255,255,255)" stroke-dasharray="none" stroke-opacity="1" fill-opacity="1"/>
            </g>
          </g>
          <defs>
            <clipPath id="layout::panel.7-5-7-5.1.clipPath">
              <rect x="8.22" y="54.84" width="379.6" height="379.6" fill="none" stroke="none"/>
            </clipPath>
          </defs>
          <g id="layout::panel.7-5-7-5.1" clip-path="url(#layout::panel.7-5-7-5.1.clipPath)" class="viewport">
            <g id="panel.7-5-7-5.1" class="forcedgrob gTableChild gTree grob gDesc">
              <g id="grill.gTree.1394.1" class="gTree grob gDesc">
                <g id="panel.background..rect.1390.1" class="rect grob gDesc">
                  <rect id="panel.background..rect.1390.1.1" x="8.22" y="54.84" width="379.6" height="379.6" transform="" stroke-width="1.07" stroke="none" fill="rgb(255,255,255)" stroke-dasharray="none" stroke-opacity="0" fill-opacity="1"/>
                </g>
              </g>
              <g id="bar.gTree.1383.1" class="gTree grob gDesc">
                <g id="geom_polygon.polygon.1373.1" class="polygon grob gDesc">
                  <polygon id="geom_polygon.polygon.1373.1.1" points="198.02,244.64 199.38,239.59 200.75,234.53 202.11,229.48 203.48,224.42 204.85,219.37 206.21,214.31 207.58,209.26 208.94,204.21 210.31,199.15 211.67,194.1 213.04,189.04 214.4,183.99 215.77,178.93 217.13,173.88 218.5,168.82 219.86,163.77 221.23,158.71 222.59,153.66 223.96,148.6 225.32,143.55 226.69,138.49 228.05,133.44 229.42,128.38 230.79,123.33 232.15,118.27 233.52,113.22 234.88,108.17 236.25,103.11 237.61,98.06 242.55,99.48 247.44,101.07 252.27,102.83 257.04,104.74 261.74,106.82 266.37,109.06 270.92,111.45 275.39,113.99 279.77,116.69 284.05,119.53 288.24,122.51 292.32,125.63 296.29,128.89 300.15,132.29 303.9,135.81 307.52,139.46 311.02,143.22 314.39,147.11 317.62,151.1 320.72,155.2 323.68,159.41 326.49,163.71 329.16,168.11 331.67,172.59 334.04,177.15 336.24,181.8 338.29,186.51 340.18,191.29 341.9,196.14 343.46,201.03 344.86,205.98 346.08,210.97 347.13,216.01 348.02,221.07 348.73,226.16 349.27,231.27 349.64,236.4 349.83,241.54 349.85,246.68 349.69,251.82 349.36,256.95 348.86,262.06 348.18,267.16 347.33,272.23 346.31,277.27 345.12,282.27 343.77,287.23 342.24,292.13 340.55,296.99 338.7,301.78 336.68,306.51 334.51,311.17 332.18,315.75 329.69,320.25 327.06,324.67 324.28,328.99 321.35,333.22 318.28,337.34 315.07,341.36 311.73,345.26 308.26,349.06 304.66,352.73 300.94,356.28 297.11,359.7 293.16,362.98 289.1,366.14 284.93,369.15 280.67,372.02 276.31,374.74 271.86,377.32 267.33,379.74 262.71,382.01 258.03,384.12 253.27,386.07 248.45,387.86 243.57,389.49 238.64,390.95 233.67,392.24 228.65,393.36 223.6,394.31 218.52,395.09 213.42,395.7 208.29,396.14 203.16,396.4 198.02,396.48 198.02,391.25 198.02,386.01 198.02,380.78 198.02,375.54 198.02,370.3 198.02,365.07 198.02,359.83 198.02,354.6 198.02,349.36 198.02,344.12 198.02,338.89 198.02,333.65 198.02,328.42 198.02,323.18 198.02,317.95 198.02,312.71 198.02,307.47 198.02,302.24 198.02,297 198.02,291.77 198.02,286.53 198.02,281.29 198.02,276.06 198.02,270.82 198.02,265.59 198.02,260.35 198.02,255.11 198.02,249.88 198.02,244.64 198.02,244.64" stroke="none" fill="rgb(231,107,243)" stroke-width="1.07" stroke-dasharray="none" stroke-opacity="0" fill-opacity="1"/>
                </g>
                <g id="geom_polygon.polygon.1375.1" class="polygon grob gDesc">
                  <polygon id="geom_polygon.polygon.1375.1.1" points="198.02,244.64 193.06,242.98 188.09,241.31 183.13,239.65 178.16,237.98 173.2,236.31 168.24,234.65 163.27,232.98 158.31,231.32 153.34,229.65 148.38,227.99 143.42,226.32 138.45,224.66 133.49,222.99 128.53,221.32 123.56,219.66 118.6,217.99 113.63,216.33 108.67,214.66 103.71,213 98.74,211.33 93.78,209.66 88.81,208 83.85,206.33 78.89,204.67 73.92,203 68.96,201.34 64,199.67 59.03,198 54.07,196.34 55.81,191.43 57.72,186.57 59.8,181.79 62.04,177.08 64.44,172.46 66.99,167.91 69.7,163.46 72.57,159.1 75.58,154.85 78.73,150.7 82.03,146.66 85.46,142.73 89.03,138.93 92.72,135.25 96.54,131.7 100.47,128.28 104.53,125 108.69,121.86 112.96,118.87 117.33,116.02 121.79,113.33 126.34,110.79 130.98,108.4 135.7,106.18 140.49,104.12 145.34,102.23 150.26,100.51 155.24,98.95 160.27,97.57 165.34,96.36 170.45,95.33 175.59,94.47 180.76,93.79 185.95,93.28 191.15,92.96 196.36,92.81 201.58,92.84 206.79,93.06 211.99,93.45 217.17,94.02 222.33,94.76 227.46,95.68 232.56,96.78 237.61,98.06 236.25,103.11 234.88,108.17 233.52,113.22 232.15,118.27 230.79,123.33 229.42,128.38 228.05,133.44 226.69,138.49 225.32,143.55 223.96,148.6 222.59,153.66 221.23,158.71 219.86,163.77 218.5,168.82 217.13,173.88 215.77,178.93 214.4,183.99 213.04,189.04 211.67,194.1 210.31,199.15 208.94,204.21 207.58,209.26 206.21,214.31 204.85,219.37 203.48,224.42 202.11,229.48 200.75,234.53 199.38,239.59 198.02,244.64 198.02,244.64" stroke="none" fill="rgb(0,176,246)" stroke-width="1.07" stroke-dasharray="none" stroke-opacity="0" fill-opacity="1"/>
                </g>
                <g id="geom_polygon.polygon.1377.1" class="polygon grob gDesc">
                  <polygon id="geom_polygon.polygon.1377.1.1" points="198.02,244.64 195.17,249.04 192.32,253.43 189.47,257.82 186.62,262.21 183.77,266.6 180.92,271 178.07,275.39 175.22,279.78 172.37,284.17 169.52,288.57 166.67,292.96 163.82,297.35 160.97,301.74 158.12,306.14 155.27,310.53 152.42,314.92 149.57,319.31 146.72,323.7 143.87,328.1 141.02,332.49 138.17,336.88 135.32,341.27 132.47,345.67 129.62,350.06 126.77,354.45 123.92,358.84 121.07,363.24 118.22,367.63 115.37,372.02 111,369.08 106.74,365.98 102.58,362.74 98.54,359.36 94.62,355.83 90.82,352.18 87.15,348.39 83.62,344.48 80.22,340.45 76.97,336.31 73.86,332.05 70.9,327.69 68.1,323.23 65.45,318.67 62.96,314.03 60.63,309.3 58.47,304.49 56.48,299.61 54.66,294.67 53.01,289.66 51.53,284.61 50.23,279.5 49.11,274.35 48.17,269.16 47.41,263.95 46.83,258.71 46.44,253.45 46.22,248.19 46.19,242.92 46.34,237.65 46.67,232.39 47.19,227.15 47.89,221.92 48.77,216.73 49.83,211.56 51.06,206.44 52.48,201.36 54.07,196.34 59.03,198 64,199.67 68.96,201.34 73.92,203 78.89,204.67 83.85,206.33 88.81,208 93.78,209.66 98.74,211.33 103.71,213 108.67,214.66 113.63,216.33 118.6,217.99 123.56,219.66 128.53,221.32 133.49,222.99 138.45,224.66 143.42,226.32 148.38,227.99 153.34,229.65 158.31,231.32 163.27,232.98 168.24,234.65 173.2,236.31 178.16,237.98 183.13,239.65 188.09,241.31 193.06,242.98 198.02,244.64 198.02,244.64" stroke="none" fill="rgb(0,191,125)" stroke-width="1.07" stroke-dasharray="none" stroke-opacity="0" fill-opacity="1"/>
                </g>
                <g id="geom_polygon.polygon.1379.1" class="polygon grob gDesc">
                  <polygon id="geom_polygon.polygon.1379.1.1" points="198.02,244.64 196.9,249.76 195.78,254.87 194.66,259.99 193.53,265.1 192.41,270.22 191.29,275.33 190.17,280.44 189.05,285.56 187.93,290.67 186.81,295.79 185.68,300.9 184.56,306.02 183.44,311.13 182.32,316.24 181.2,321.36 180.08,326.47 178.96,331.59 177.84,336.7 176.71,341.82 175.59,346.93 174.47,352.05 173.35,357.16 172.23,362.27 171.11,367.39 169.99,372.5 168.86,377.62 167.74,382.73 166.62,387.85 165.5,392.96 160.19,391.69 154.92,390.24 149.71,388.59 144.57,386.76 139.49,384.75 134.49,382.55 129.57,380.18 124.74,377.63 120.01,374.91 115.37,372.02 118.22,367.63 121.07,363.24 123.92,358.84 126.77,354.45 129.62,350.06 132.47,345.67 135.32,341.27 138.17,336.88 141.02,332.49 143.87,328.1 146.72,323.7 149.57,319.31 152.42,314.92 155.27,310.53 158.12,306.14 160.97,301.74 163.82,297.35 166.67,292.96 169.52,288.57 172.37,284.17 175.22,279.78 178.07,275.39 180.92,271 183.77,266.6 186.62,262.21 189.47,257.82 192.32,253.43 195.17,249.04 198.02,244.64 198.02,244.64" stroke="none" fill="rgb(163,165,0)" stroke-width="1.07" stroke-dasharray="none" stroke-opacity="0" fill-opacity="1"/>
                </g>
                <g id="geom_polygon.polygon.1381.1" class="polygon grob gDesc">
                  <polygon id="geom_polygon.polygon.1381.1.1" points="198.02,244.64 198.02,249.88 198.02,255.11 198.02,260.35 198.02,265.59 198.02,270.82 198.02,276.06 198.02,281.29 198.02,286.53 198.02,291.77 198.02,297 198.02,302.24 198.02,307.47 198.02,312.71 198.02,317.95 198.02,323.18 198.02,328.42 198.02,333.65 198.02,338.89 198.02,344.12 198.02,349.36 198.02,354.6 198.02,359.83 198.02,365.07 198.02,370.3 198.02,375.54 198.02,380.78 198.02,386.01 198.02,391.25 198.02,396.48 192.56,396.38 187.1,396.09 181.66,395.6 176.25,394.91 170.86,394.03 165.5,392.96 166.62,387.85 167.74,382.73 168.86,377.62 169.99,372.5 171.11,367.39 172.23,362.27 173.35,357.16 174.47,352.05 175.59,346.93 176.71,341.82 177.84,336.7 178.96,331.59 180.08,326.47 181.2,321.36 182.32,316.24 183.44,311.13 184.56,306.02 185.68,300.9 186.81,295.79 187.93,290.67 189.05,285.56 190.17,280.44 191.29,275.33 192.41,270.22 193.53,265.1 194.66,259.99 195.78,254.87 196.9,249.76 198.02,244.64 198.02,244.64" stroke="none" fill="rgb(248,118,109)" stroke-width="1.07" stroke-dasharray="none" stroke-opacity="0" fill-opacity="1"/>
                </g>
              </g>
              <g id="GRID.text.1384.1" class="text grob gDesc">
                <g id="GRID.text.1384.1.1" transform="translate(273.28, 254.63)" stroke-width="0.1">
                  <g id="GRID.text.1384.1.1.scale" transform="scale(1, -1)">
                    <text x="0" y="0" id="GRID.text.1384.1.1.text" text-anchor="middle" stroke="rgb(0,0,0)" font-size="11.04" font-family="Helvetica, Arial, FreeSans, Liberation Sans, Nimbus Sans L, sans-serif" fill="rgb(0,0,0)" stroke-opacity="1" fill-opacity="1" font-weight="normal" font-style="normal">
                      <tspan id="GRID.text.1384.1.1.tspan.1" dy="3.95" x="0">120</tspan>
                    </text>
                  </g>
                </g>
                <g id="GRID.text.1384.1.2" transform="translate(162.18, 177.71)" stroke-width="0.1">
                  <g id="GRID.text.1384.1.2.scale" transform="scale(1, -1)">
                    <text x="0" y="0" id="GRID.text.1384.1.2.text" text-anchor="middle" stroke="rgb(0,0,0)" font-size="11.04" font-family="Helvetica, Arial, FreeSans, Liberation Sans, Nimbus Sans L, sans-serif" fill="rgb(0,0,0)" stroke-opacity="1" fill-opacity="1" font-weight="normal" font-style="normal">
                      <tspan id="GRID.text.1384.1.2.tspan.1" dy="3.95" x="0">63</tspan>
                    </text>
                  </g>
                </g>
                <g id="GRID.text.1384.1.3" transform="translate(126.34, 269.66)" stroke-width="0.1">
                  <g id="GRID.text.1384.1.3.scale" transform="scale(1, -1)">
                    <text x="0" y="0" id="GRID.text.1384.1.3.text" text-anchor="middle" stroke="rgb(0,0,0)" font-size="11.04" font-family="Helvetica, Arial, FreeSans, Liberation Sans, Nimbus Sans L, sans-serif" fill="rgb(0,0,0)" stroke-opacity="1" fill-opacity="1" font-weight="normal" font-style="normal">
                      <tspan id="GRID.text.1384.1.3.tspan.1" dy="3.95" x="0">55</tspan>
                    </text>
                  </g>
                </g>
                <g id="GRID.text.1384.1.4" transform="translate(168.76, 314.7)" stroke-width="0.1">
                  <g id="GRID.text.1384.1.4.scale" transform="scale(1, -1)">
                    <text x="0" y="0" id="GRID.text.1384.1.4.text" text-anchor="middle" stroke="rgb(0,0,0)" font-size="11.04" font-family="Helvetica, Arial, FreeSans, Liberation Sans, Nimbus Sans L, sans-serif" fill="rgb(0,0,0)" stroke-opacity="1" fill-opacity="1" font-weight="normal" font-style="normal">
                      <tspan id="GRID.text.1384.1.4.tspan.1" dy="3.95" x="0">15</tspan>
                    </text>
                  </g>
                </g>
                <g id="GRID.text.1384.1.5" transform="translate(189.84, 320.12)" stroke-width="0.1">
                  <g id="GRID.text.1384.1.5.scale" transform="scale(1, -1)">
                    <text x="0" y="0" id="GRID.text.1384.1.5.text" text-anchor="middle" stroke="rgb(0,0,0)" font-size="11.04" font-family="Helvetica, Arial, FreeSans, Liberation Sans, Nimbus Sans L, sans-serif" fill="rgb(0,0,0)" stroke-opacity="1" fill-opacity="1" font-weight="normal" font-style="normal">
                      <tspan id="GRID.text.1384.1.5.tspan.1" dy="3.95" x="0">9</tspan>
                    </text>
                  </g>
                </g>
              </g>
              <g id="GRID.gTree.1385.1" class="gTree grob gDesc"/>
            </g>
          </g>
          <g id="layout::spacer.8-6-8-6.1" class="viewport"/>
          <g id="layout::spacer.8-4-8-4.1" class="viewport"/>
          <g id="layout::spacer.6-6-6-6.1" class="viewport"/>
          <g id="layout::spacer.6-4-6-4.1" class="viewport"/>
          <g id="layout::axis-t.6-5-6-5.1" class="viewport"/>
          <g id="layout::axis-l.7-4-7-4.1" class="viewport">
            <g id="layout::axis-l.7-4-7-4::GRID.VP.335.1" class="viewport">
              <g id="axis-l.7-4-7-4.1" class="forcedgrob gTableChild absoluteGrob gTree grob gDesc">
                <g id="layout::axis-l.7-4-7-4::GRID.VP.335::axis.1" class="viewport">
                  <g id="axis.1" class="forcedgrob gtable gTree grob gDesc">
                    <g id="layout::axis-l.7-4-7-4::GRID.VP.335::axis::axis.1-1-1-1.1" class="viewport"/>
                    <g id="layout::axis-l.7-4-7-4::GRID.VP.335::axis::axis.1-2-1-2.1" class="viewport"/>
                  </g>
                </g>
              </g>
            </g>
          </g>
          <g id="layout::axis-r.7-6-7-6.1" class="viewport"/>
          <g id="layout::axis-b.8-5-8-5.1" class="viewport">
            <g id="layout::axis-b.8-5-8-5::GRID.VP.334.1" class="viewport">
              <g id="axis-b.8-5-8-5.1" class="forcedgrob gTableChild absoluteGrob gTree grob gDesc">
                <g id="layout::axis-b.8-5-8-5::GRID.VP.334::axis.1" class="viewport">
                  <g id="axis.2" class="forcedgrob gtable gTree grob gDesc">
                    <g id="layout::axis-b.8-5-8-5::GRID.VP.334::axis::axis.1-1-1-1.1" class="viewport"/>
                    <g id="layout::axis-b.8-5-8-5::GRID.VP.334::axis::axis.2-1-2-1.1" class="viewport"/>
                  </g>
                </g>
              </g>
            </g>
          </g>
          <g id="layout::xlab-t.5-5-5-5.1" class="viewport"/>
          <g id="layout::xlab-b.9-5-9-5.1" class="viewport"/>
          <g id="layout::ylab-l.7-3-7-3.1" class="viewport"/>
          <g id="layout::ylab-r.7-7-7-7.1" class="viewport"/>
          <g id="layout::guide-box.7-9-7-9.1" class="viewport">
            <g id="layout::guide-box.7-9-7-9::GRID.VP.352.1" class="viewport">
              <g id="layout::guide-box.7-9-7-9::GRID.VP.352::guide-box.7-9-7-9.1" class="viewport">
                <g id="guide-box.7-9-7-9.1" class="forcedgrob gTableChild gtable gTree grob gDesc">
                  <g id="layout::guide-box.7-9-7-9::GRID.VP.352::guide-box.7-9-7-9::legend.box.background.2-4-4-2.1" class="viewport"/>
                  <g id="layout::guide-box.7-9-7-9::GRID.VP.352::guide-box.7-9-7-9::guides.3-3-3-3.1" class="viewport">
                    <g id="layout::guide-box.7-9-7-9::GRID.VP.352::guide-box.7-9-7-9::guides.3-3-3-3::GRID.VP.351.1" class="viewport">
                      <g id="layout::guide-box.7-9-7-9::GRID.VP.352::guide-box.7-9-7-9::guides.3-3-3-3::GRID.VP.351::guides.3-3-3-3.1" class="viewport">
                        <g id="guides.3-3-3-3.1" class="forcedgrob gTableChild gtable gTree grob gDesc">
                          <g id="layout::guide-box.7-9-7-9::GRID.VP.352::guide-box.7-9-7-9::guides.3-3-3-3::GRID.VP.351::guides.3-3-3-3::background.1-6-9-1.1" class="viewport">
                            <g id="background.1-6-9-1.1" class="forcedgrob gTableChild rect grob gDesc">
                              <rect id="background.1-6-9-1.1.1" x="398.78" y="193.22" width="99.74" height="102.84" transform="" stroke-width="1.07" stroke="none" fill="rgb(255,255,255)" stroke-dasharray="none" stroke-opacity="0" fill-opacity="1"/>
                            </g>
                          </g>
                          <g id="layout::guide-box.7-9-7-9::GRID.VP.352::guide-box.7-9-7-9::guides.3-3-3-3::GRID.VP.351::guides.3-3-3-3::title.2-5-2-2.1" class="viewport"/>
                          <g id="layout::guide-box.7-9-7-9::GRID.VP.352::guide-box.7-9-7-9::guides.3-3-3-3::GRID.VP.351::guides.3-3-3-3::key-3-1-bg.4-2-4-2.1" class="viewport"/>
                          <g id="layout::guide-box.7-9-7-9::GRID.VP.352::guide-box.7-9-7-9::guides.3-3-3-3::GRID.VP.351::guides.3-3-3-3::key-3-1-1.4-2-4-2.1" class="viewport">
                            <g id="key-3-1-1.4-2-4-2.1" class="forcedgrob gTableChild rect grob gDesc">
                              <rect id="key-3-1-1.4-2-4-2.1.1" x="404.97" y="268.53" width="15.86" height="15.86" transform="" stroke="none" fill="rgb(248,118,109)" stroke-dasharray="none" stroke-width="1.07" stroke-linejoin="miter" stroke-opacity="0" fill-opacity="1"/>
                            </g>
                          </g>
                          <g id="layout::guide-box.7-9-7-9::GRID.VP.352::guide-box.7-9-7-9::guides.3-3-3-3::GRID.VP.351::guides.3-3-3-3::key-4-1-bg.5-2-5-2.1" class="viewport"/>
                          <g id="layout::guide-box.7-9-7-9::GRID.VP.352::guide-box.7-9-7-9::guides.3-3-3-3::GRID.VP.351::guides.3-3-3-3::key-4-1-1.5-2-5-2.1" class="viewport">
                            <g id="key-4-1-1.5-2-5-2.1" class="forcedgrob gTableChild rect grob gDesc">
                              <rect id="key-4-1-1.5-2-5-2.1.1" x="404.97" y="251.25" width="15.86" height="15.86" transform="" stroke="none" fill="rgb(163,165,0)" stroke-dasharray="none" stroke-width="1.07" stroke-linejoin="miter" stroke-opacity="0" fill-opacity="1"/>
                            </g>
                          </g>
                          <g id="layout::guide-box.7-9-7-9::GRID.VP.352::guide-box.7-9-7-9::guides.3-3-3-3::GRID.VP.351::guides.3-3-3-3::key-5-1-bg.6-2-6-2.1" class="viewport"/>
                          <g id="layout::guide-box.7-9-7-9::GRID.VP.352::guide-box.7-9-7-9::guides.3-3-3-3::GRID.VP.351::guides.3-3-3-3::key-5-1-1.6-2-6-2.1" class="viewport">
                            <g id="key-5-1-1.6-2-6-2.1" class="forcedgrob gTableChild rect grob gDesc">
                              <rect id="key-5-1-1.6-2-6-2.1.1" x="404.97" y="233.97" width="15.86" height="15.86" transform="" stroke="none" fill="rgb(0,191,125)" stroke-dasharray="none" stroke-width="1.07" stroke-linejoin="miter" stroke-opacity="0" fill-opacity="1"/>
                            </g>
                          </g>
                          <g id="layout::guide-box.7-9-7-9::GRID.VP.352::guide-box.7-9-7-9::guides.3-3-3-3::GRID.VP.351::guides.3-3-3-3::key-6-1-bg.7-2-7-2.1" class="viewport"/>
                          <g id="layout::guide-box.7-9-7-9::GRID.VP.352::guide-box.7-9-7-9::guides.3-3-3-3::GRID.VP.351::guides.3-3-3-3::key-6-1-1.7-2-7-2.1" class="viewport">
                            <g id="key-6-1-1.7-2-7-2.1" class="forcedgrob gTableChild rect grob gDesc">
                              <rect id="key-6-1-1.7-2-7-2.1.1" x="404.97" y="216.69" width="15.86" height="15.86" transform="" stroke="none" fill="rgb(0,176,246)" stroke-dasharray="none" stroke-width="1.07" stroke-linejoin="miter" stroke-opacity="0" fill-opacity="1"/>
                            </g>
                          </g>
                          <g id="layout::guide-box.7-9-7-9::GRID.VP.352::guide-box.7-9-7-9::guides.3-3-3-3::GRID.VP.351::guides.3-3-3-3::key-7-1-bg.8-2-8-2.1" class="viewport"/>
                          <g id="layout::guide-box.7-9-7-9::GRID.VP.352::guide-box.7-9-7-9::guides.3-3-3-3::GRID.VP.351::guides.3-3-3-3::key-7-1-1.8-2-8-2.1" class="viewport">
                            <g id="key-7-1-1.8-2-8-2.1" class="forcedgrob gTableChild rect grob gDesc">
                              <rect id="key-7-1-1.8-2-8-2.1.1" x="404.97" y="199.41" width="15.86" height="15.86" transform="" stroke="none" fill="rgb(231,107,243)" stroke-dasharray="none" stroke-width="1.07" stroke-linejoin="miter" stroke-opacity="0" fill-opacity="1"/>
                            </g>
                          </g>
                          <g id="layout::guide-box.7-9-7-9::GRID.VP.352::guide-box.7-9-7-9::guides.3-3-3-3::GRID.VP.351::guides.3-3-3-3::label-3-3.4-4-4-4.1" class="viewport">
                            <g id="layout::guide-box.7-9-7-9::GRID.VP.352::guide-box.7-9-7-9::guides.3-3-3-3::GRID.VP.351::guides.3-3-3-3::label-3-3.4-4-4-4::GRID.VP.346.1" class="viewport">
                              <g id="label-3-3.4-4-4-4.1" class="forcedgrob gTableChild gTree grob gDesc">
                                <g id="layout::guide-box.7-9-7-9::GRID.VP.352::guide-box.7-9-7-9::guides.3-3-3-3::GRID.VP.351::guides.3-3-3-3::label-3-3.4-4-4-4::GRID.VP.346::GRID.VP.336.1" font-size="8.8" stroke="rgb(0,0,0)" font-family="Helvetica, Arial, FreeSans, Liberation Sans, Nimbus Sans L, sans-serif" stroke-opacity="1" font-weight="normal" font-style="normal" class="viewport">
                                  <g id="layout::guide-box.7-9-7-9::GRID.VP.352::guide-box.7-9-7-9::guides.3-3-3-3::GRID.VP.351::guides.3-3-3-3::label-3-3.4-4-4-4::GRID.VP.346::GRID.VP.336::GRID.VP.337.1" class="viewport">
                                    <g id="guide.label.titleGrob.1408.1" class="titleGrob gTree grob gDesc">
                                      <g id="GRID.text.1406.1" class="text grob gDesc">
                                        <g id="GRID.text.1406.1.1" transform="translate(427.02, 276.46)" stroke-width="0.1">
                                          <g id="GRID.text.1406.1.1.scale" transform="scale(1, -1)">
                                            <text x="0" y="0" id="GRID.text.1406.1.1.text" text-anchor="start" font-size="8.8" stroke="rgb(0,0,0)" font-family="Helvetica, Arial, FreeSans, Liberation Sans, Nimbus Sans L, sans-serif" fill="rgb(0,0,0)" stroke-opacity="1" fill-opacity="1" font-weight="normal" font-style="normal">
                                              <tspan id="GRID.text.1406.1.1.tspan.1" dy="3.23" x="0">ottima (9)</tspan>
                                            </text>
                                          </g>
                                        </g>
                                      </g>
                                    </g>
                                  </g>
                                </g>
                              </g>
                            </g>
                          </g>
                          <g id="layout::guide-box.7-9-7-9::GRID.VP.352::guide-box.7-9-7-9::guides.3-3-3-3::GRID.VP.351::guides.3-3-3-3::label-4-3.5-4-5-4.1" class="viewport">
                            <g id="layout::guide-box.7-9-7-9::GRID.VP.352::guide-box.7-9-7-9::guides.3-3-3-3::GRID.VP.351::guides.3-3-3-3::label-4-3.5-4-5-4::GRID.VP.347.1" class="viewport">
                              <g id="label-4-3.5-4-5-4.1" class="forcedgrob gTableChild gTree grob gDesc">
                                <g id="layout::guide-box.7-9-7-9::GRID.VP.352::guide-box.7-9-7-9::guides.3-3-3-3::GRID.VP.351::guides.3-3-3-3::label-4-3.5-4-5-4::GRID.VP.347::GRID.VP.338.1" font-size="8.8" stroke="rgb(0,0,0)" font-family="Helvetica, Arial, FreeSans, Liberation Sans, Nimbus Sans L, sans-serif" stroke-opacity="1" font-weight="normal" font-style="normal" class="viewport">
                                  <g id="layout::guide-box.7-9-7-9::GRID.VP.352::guide-box.7-9-7-9::guides.3-3-3-3::GRID.VP.351::guides.3-3-3-3::label-4-3.5-4-5-4::GRID.VP.347::GRID.VP.338::GRID.VP.339.1" class="viewport">
                                    <g id="guide.label.titleGrob.1411.1" class="titleGrob gTree grob gDesc">
                                      <g id="GRID.text.1409.1" class="text grob gDesc">
                                        <g id="GRID.text.1409.1.1" transform="translate(427.02, 259.18)" stroke-width="0.1">
                                          <g id="GRID.text.1409.1.1.scale" transform="scale(1, -1)">
                                            <text x="0" y="0" id="GRID.text.1409.1.1.text" text-anchor="start" font-size="8.8" stroke="rgb(0,0,0)" font-family="Helvetica, Arial, FreeSans, Liberation Sans, Nimbus Sans L, sans-serif" fill="rgb(0,0,0)" stroke-opacity="1" fill-opacity="1" font-weight="normal" font-style="normal">
                                              <tspan id="GRID.text.1409.1.1.tspan.1" dy="3.23" x="0">insufficiente (15)</tspan>
                                            </text>
                                          </g>
                                        </g>
                                      </g>
                                    </g>
                                  </g>
                                </g>
                              </g>
                            </g>
                          </g>
                          <g id="layout::guide-box.7-9-7-9::GRID.VP.352::guide-box.7-9-7-9::guides.3-3-3-3::GRID.VP.351::guides.3-3-3-3::label-5-3.6-4-6-4.1" class="viewport">
                            <g id="layout::guide-box.7-9-7-9::GRID.VP.352::guide-box.7-9-7-9::guides.3-3-3-3::GRID.VP.351::guides.3-3-3-3::label-5-3.6-4-6-4::GRID.VP.348.1" class="viewport">
                              <g id="label-5-3.6-4-6-4.1" class="forcedgrob gTableChild gTree grob gDesc">
                                <g id="layout::guide-box.7-9-7-9::GRID.VP.352::guide-box.7-9-7-9::guides.3-3-3-3::GRID.VP.351::guides.3-3-3-3::label-5-3.6-4-6-4::GRID.VP.348::GRID.VP.340.1" font-size="8.8" stroke="rgb(0,0,0)" font-family="Helvetica, Arial, FreeSans, Liberation Sans, Nimbus Sans L, sans-serif" stroke-opacity="1" font-weight="normal" font-style="normal" class="viewport">
                                  <g id="layout::guide-box.7-9-7-9::GRID.VP.352::guide-box.7-9-7-9::guides.3-3-3-3::GRID.VP.351::guides.3-3-3-3::label-5-3.6-4-6-4::GRID.VP.348::GRID.VP.340::GRID.VP.341.1" class="viewport">
                                    <g id="guide.label.titleGrob.1414.1" class="titleGrob gTree grob gDesc">
                                      <g id="GRID.text.1412.1" class="text grob gDesc">
                                        <g id="GRID.text.1412.1.1" transform="translate(427.02, 241.9)" stroke-width="0.1">
                                          <g id="GRID.text.1412.1.1.scale" transform="scale(1, -1)">
                                            <text x="0" y="0" id="GRID.text.1412.1.1.text" text-anchor="start" font-size="8.8" stroke="rgb(0,0,0)" font-family="Helvetica, Arial, FreeSans, Liberation Sans, Nimbus Sans L, sans-serif" fill="rgb(0,0,0)" stroke-opacity="1" fill-opacity="1" font-weight="normal" font-style="normal">
                                              <tspan id="GRID.text.1412.1.1.tspan.1" dy="3.23" x="0">scarsa (55)</tspan>
                                            </text>
                                          </g>
                                        </g>
                                      </g>
                                    </g>
                                  </g>
                                </g>
                              </g>
                            </g>
                          </g>
                          <g id="layout::guide-box.7-9-7-9::GRID.VP.352::guide-box.7-9-7-9::guides.3-3-3-3::GRID.VP.351::guides.3-3-3-3::label-6-3.7-4-7-4.1" class="viewport">
                            <g id="layout::guide-box.7-9-7-9::GRID.VP.352::guide-box.7-9-7-9::guides.3-3-3-3::GRID.VP.351::guides.3-3-3-3::label-6-3.7-4-7-4::GRID.VP.349.1" class="viewport">
                              <g id="label-6-3.7-4-7-4.1" class="forcedgrob gTableChild gTree grob gDesc">
                                <g id="layout::guide-box.7-9-7-9::GRID.VP.352::guide-box.7-9-7-9::guides.3-3-3-3::GRID.VP.351::guides.3-3-3-3::label-6-3.7-4-7-4::GRID.VP.349::GRID.VP.342.1" font-size="8.8" stroke="rgb(0,0,0)" font-family="Helvetica, Arial, FreeSans, Liberation Sans, Nimbus Sans L, sans-serif" stroke-opacity="1" font-weight="normal" font-style="normal" class="viewport">
                                  <g id="layout::guide-box.7-9-7-9::GRID.VP.352::guide-box.7-9-7-9::guides.3-3-3-3::GRID.VP.351::guides.3-3-3-3::label-6-3.7-4-7-4::GRID.VP.349::GRID.VP.342::GRID.VP.343.1" class="viewport">
                                    <g id="guide.label.titleGrob.1417.1" class="titleGrob gTree grob gDesc">
                                      <g id="GRID.text.1415.1" class="text grob gDesc">
                                        <g id="GRID.text.1415.1.1" transform="translate(427.02, 224.62)" stroke-width="0.1">
                                          <g id="GRID.text.1415.1.1.scale" transform="scale(1, -1)">
                                            <text x="0" y="0" id="GRID.text.1415.1.1.text" text-anchor="start" font-size="8.8" stroke="rgb(0,0,0)" font-family="Helvetica, Arial, FreeSans, Liberation Sans, Nimbus Sans L, sans-serif" fill="rgb(0,0,0)" stroke-opacity="1" fill-opacity="1" font-weight="normal" font-style="normal">
                                              <tspan id="GRID.text.1415.1.1.tspan.1" dy="3.23" x="0">sufficiente (63)</tspan>
                                            </text>
                                          </g>
                                        </g>
                                      </g>
                                    </g>
                                  </g>
                                </g>
                              </g>
                            </g>
                          </g>
                          <g id="layout::guide-box.7-9-7-9::GRID.VP.352::guide-box.7-9-7-9::guides.3-3-3-3::GRID.VP.351::guides.3-3-3-3::label-7-3.8-4-8-4.1" class="viewport">
                            <g id="layout::guide-box.7-9-7-9::GRID.VP.352::guide-box.7-9-7-9::guides.3-3-3-3::GRID.VP.351::guides.3-3-3-3::label-7-3.8-4-8-4::GRID.VP.350.1" class="viewport">
                              <g id="label-7-3.8-4-8-4.1" class="forcedgrob gTableChild gTree grob gDesc">
                                <g id="layout::guide-box.7-9-7-9::GRID.VP.352::guide-box.7-9-7-9::guides.3-3-3-3::GRID.VP.351::guides.3-3-3-3::label-7-3.8-4-8-4::GRID.VP.350::GRID.VP.344.1" font-size="8.8" stroke="rgb(0,0,0)" font-family="Helvetica, Arial, FreeSans, Liberation Sans, Nimbus Sans L, sans-serif" stroke-opacity="1" font-weight="normal" font-style="normal" class="viewport">
                                  <g id="layout::guide-box.7-9-7-9::GRID.VP.352::guide-box.7-9-7-9::guides.3-3-3-3::GRID.VP.351::guides.3-3-3-3::label-7-3.8-4-8-4::GRID.VP.350::GRID.VP.344::GRID.VP.345.1" class="viewport">
                                    <g id="guide.label.titleGrob.1420.1" class="titleGrob gTree grob gDesc">
                                      <g id="GRID.text.1418.1" class="text grob gDesc">
                                        <g id="GRID.text.1418.1.1" transform="translate(427.02, 207.34)" stroke-width="0.1">
                                          <g id="GRID.text.1418.1.1.scale" transform="scale(1, -1)">
                                            <text x="0" y="0" id="GRID.text.1418.1.1.text" text-anchor="start" font-size="8.8" stroke="rgb(0,0,0)" font-family="Helvetica, Arial, FreeSans, Liberation Sans, Nimbus Sans L, sans-serif" fill="rgb(0,0,0)" stroke-opacity="1" fill-opacity="1" font-weight="normal" font-style="normal">
                                              <tspan id="GRID.text.1418.1.1.tspan.1" dy="3.23" x="0">buona (120)</tspan>
                                            </text>
                                          </g>
                                        </g>
                                      </g>
                                    </g>
                                  </g>
                                </g>
                              </g>
                            </g>
                          </g>
                        </g>
                      </g>
                    </g>
                  </g>
                </g>
              </g>
            </g>
          </g>
          <g id="layout::subtitle.4-5-4-5.1" class="viewport"/>
          <g id="layout::title.3-5-3-5.1" class="viewport">
            <g id="layout::title.3-5-3-5::GRID.VP.353.1" font-size="13.2" stroke="rgb(102,102,102)" font-family="Helvetica, Arial, FreeSans, Liberation Sans, Nimbus Sans L, sans-serif" stroke-opacity="1" font-weight="normal" font-style="normal" class="viewport">
              <g id="layout::title.3-5-3-5::GRID.VP.353::GRID.VP.354.1" class="viewport">
                <g id="title.3-5-3-5.1" class="forcedgrob gTableChild titleGrob gTree grob gDesc">
                  <g id="GRID.text.1438.1" class="text grob gDesc">
                    <g id="GRID.text.1438.1.1" transform="translate(198.02, 451.9)" stroke-width="0.1">
                      <g id="GRID.text.1438.1.1.scale" transform="scale(1, -1)">
                        <text x="0" y="0" id="GRID.text.1438.1.1.text" text-anchor="middle" font-size="13.2" stroke="rgb(102,102,102)" font-family="Helvetica, Arial, FreeSans, Liberation Sans, Nimbus Sans L, sans-serif" fill="rgb(102,102,102)" stroke-opacity="1" fill-opacity="1" font-weight="normal" font-style="normal">
                          <tspan id="GRID.text.1438.1.1.tspan.1" dy="9.33" x="0">anagrafica competenza</tspan>
                        </text>
                      </g>
                    </g>
                  </g>
                </g>
              </g>
            </g>
          </g>
          <g id="layout::caption.10-5-10-5.1" class="viewport"/>
          <g id="layout::tag.2-2-2-2.1" class="viewport"/>
        </g>
      </g>
    </g>
  </g>
</svg>