<?xml version="1.0" encoding="UTF-8"?>
<svg xmlns="http://www.w3.org/2000/svg" xmlns:xlink="http://www.w3.org/1999/xlink" width="504px" height="504px" viewBox="0 0 504 504" version="1.1">
  <metadata xmlns:gridsvg="http://www.stat.auckland.ac.nz/~paul/R/gridSVG/">
    <gridsvg:generator name="gridSVG" version="1.6-0" time="2019-01-07 19:38:53"/>
    <gridsvg:argument name="name" value="./latest_informaggio_csv/risultati/svg/anagrafica-totali-corsoit.svg"/>
    <gridsvg:argument name="exportCoords" value="none"/>
    <gridsvg:argument name="exportMappings" value="none"/>
    <gridsvg:argument name="exportJS" value="none"/>
    <gridsvg:argument name="res" value="72"/>
    <gridsvg:argument name="prefix" value=""/>
    <gridsvg:argument name="addClasses" value="TRUE"/>
    <gridsvg:argument name="indent" value="TRUE"/>
    <gridsvg:argument name="htmlWrapper" value="FALSE"/>
    <gridsvg:argument name="usePaths" value="vpPaths"/>
    <gridsvg:argument name="uniqueNames" value="TRUE"/>
    <gridsvg:separator name="id.sep" value="."/>
    <gridsvg:separator name="gPath.sep" value="::"/>
    <gridsvg:separator name="vpPath.sep" value="::"/>
  </metadata>
  <g transform="translate(0, 504) scale(1, -1)">
    <g id="gridSVG" fill="none" stroke="rgb(0,0,0)" stroke-dasharray="none" stroke-width="0.75" font-size="12" font-family="Helvetica, Arial, FreeSans, Liberation Sans, Nimbus Sans L, sans-serif" opacity="1" stroke-linecap="round" stroke-linejoin="round" stroke-miterlimit="10" stroke-opacity="1" fill-opacity="0" font-weight="normal" font-style="normal">
      <g id="layout.1" class="viewport">
        <g id="layout.2" class="forcedgrob gtable gTree grob gDesc">
          <defs>
            <clipPath id="layout::background.1-11-12-1.1.clipPath">
              <rect x="0" y="16.86" width="504" height="470.28" fill="none" stroke="none"/>
            </clipPath>
          </defs>
          <g id="layout::background.1-11-12-1.1" clip-path="url(#layout::background.1-11-12-1.1.clipPath)" class="viewport">
            <g id="background.1-11-12-1.1" class="forcedgrob gTableChild rect grob gDesc">
              <rect id="background.1-11-12-1.1.1" x="0" y="16.86" width="504" height="470.28" transform="" stroke-width="1.07" stroke="rgb(255,255,255)" fill="rgb(255,255,255)" stroke-dasharray="none" stroke-opacity="1" fill-opacity="1"/>
            </g>
          </g>
          <defs>
            <clipPath id="layout::panel.7-5-7-5.1.clipPath">
              <rect x="8.22" y="25.08" width="439.13" height="439.13" fill="none" stroke="none"/>
            </clipPath>
          </defs>
          <g id="layout::panel.7-5-7-5.1" clip-path="url(#layout::panel.7-5-7-5.1.clipPath)" class="viewport">
            <g id="panel.7-5-7-5.1" class="forcedgrob gTableChild gTree grob gDesc">
              <g id="grill.gTree.1631.1" class="gTree grob gDesc">
                <g id="panel.background..rect.1627.1" class="rect grob gDesc">
                  <rect id="panel.background..rect.1627.1.1" x="8.22" y="25.08" width="439.13" height="439.13" transform="" stroke-width="1.07" stroke="none" fill="rgb(255,255,255)" stroke-dasharray="none" stroke-opacity="0" fill-opacity="1"/>
                </g>
              </g>
              <g id="bar.gTree.1620.1" class="gTree grob gDesc">
                <g id="geom_polygon.polygon.1616.1" class="polygon grob gDesc">
                  <polygon id="geom_polygon.polygon.1616.1.1" points="227.78,244.64 225.25,239.14 222.71,233.64 220.18,228.14 217.65,222.64 215.11,217.14 212.58,211.64 210.04,206.13 207.51,200.63 204.98,195.13 202.44,189.63 199.91,184.13 197.37,178.63 194.84,173.13 192.3,167.62 189.77,162.12 187.24,156.62 184.7,151.12 182.17,145.62 179.63,140.12 177.1,134.62 174.57,129.12 172.03,123.61 169.5,118.11 166.96,112.61 164.43,107.11 161.89,101.61 159.36,96.11 156.83,90.61 154.29,85.11 159.76,82.7 165.31,80.48 170.93,78.45 176.62,76.61 182.37,74.96 188.17,73.52 194.01,72.27 199.9,71.22 205.82,70.37 211.76,69.73 217.72,69.28 223.69,69.04 229.67,69 235.64,69.17 241.61,69.54 247.56,70.11 253.49,70.88 259.38,71.86 265.24,73.03 271.06,74.41 276.83,75.98 282.54,77.75 288.18,79.7 293.76,81.86 299.26,84.19 304.68,86.72 310.01,89.43 315.24,92.32 320.37,95.38 325.4,98.62 330.31,102.02 335.1,105.59 339.77,109.33 344.31,113.21 348.72,117.25 352.98,121.44 357.1,125.77 361.07,130.24 364.89,134.84 368.54,139.57 372.04,144.42 375.36,149.39 378.52,154.47 381.5,159.65 384.3,164.93 386.92,170.3 389.36,175.76 391.61,181.29 393.67,186.9 395.54,192.58 397.21,198.32 398.69,204.11 399.97,209.95 401.05,215.83 401.93,221.74 402.61,227.68 403.09,233.64 403.36,239.61 403.43,245.59 403.3,251.56 402.96,257.53 402.42,263.48 401.68,269.41 400.73,275.32 399.59,281.18 398.25,287.01 396.71,292.78 394.97,298.5 393.04,304.16 390.92,309.75 388.61,315.26 386.12,320.69 383.44,326.04 380.58,331.28 377.54,336.43 374.33,341.48 370.95,346.41 367.41,351.22 363.7,355.91 359.83,360.47 355.82,364.89 351.65,369.18 347.34,373.32 342.9,377.32 338.31,381.16 333.61,384.84 328.77,388.36 323.83,391.71 318.77,394.89 313.6,397.9 308.34,400.73 302.98,403.38 297.54,405.85 292.01,408.13 286.41,410.22 280.74,412.12 275.01,413.82 269.23,415.33 263.4,416.64 257.53,417.76 251.62,418.67 245.68,419.38 239.73,419.89 233.76,420.19 227.78,420.29 227.78,414.24 227.78,408.18 227.78,402.12 227.78,396.07 227.78,390.01 227.78,383.95 227.78,377.9 227.78,371.84 227.78,365.78 227.78,359.72 227.78,353.67 227.78,347.61 227.78,341.55 227.78,335.5 227.78,329.44 227.78,323.38 227.78,317.33 227.78,311.27 227.78,305.21 227.78,299.16 227.78,293.1 227.78,287.04 227.78,280.98 227.78,274.93 227.78,268.87 227.78,262.81 227.78,256.76 227.78,250.7 227.78,244.64 227.78,244.64" stroke="none" fill="rgb(0,191,196)" stroke-width="1.07" stroke-dasharray="none" stroke-opacity="0" fill-opacity="1"/>
                </g>
                <g id="geom_polygon.polygon.1618.1" class="polygon grob gDesc">
                  <polygon id="geom_polygon.polygon.1618.1.1" points="227.78,244.64 227.78,250.7 227.78,256.76 227.78,262.81 227.78,268.87 227.78,274.93 227.78,280.98 227.78,287.04 227.78,293.1 227.78,299.16 227.78,305.21 227.78,311.27 227.78,317.33 227.78,323.38 227.78,329.44 227.78,335.5 227.78,341.55 227.78,347.61 227.78,353.67 227.78,359.72 227.78,365.78 227.78,371.84 227.78,377.9 227.78,383.95 227.78,390.01 227.78,396.07 227.78,402.12 227.78,408.18 227.78,414.24 227.78,420.29 221.83,420.19 215.89,419.89 209.96,419.39 204.06,418.68 198.17,417.78 192.33,416.68 186.52,415.38 180.76,413.88 175.06,412.19 169.41,410.31 163.84,408.24 158.33,405.98 152.91,403.54 147.57,400.91 142.32,398.1 137.18,395.12 132.13,391.97 127.2,388.64 122.38,385.15 117.68,381.5 113.11,377.69 108.67,373.73 104.36,369.63 100.2,365.37 96.19,360.98 92.32,356.46 88.61,351.81 85.06,347.03 81.68,342.14 78.46,337.14 75.41,332.03 72.54,326.82 69.84,321.51 67.33,316.12 65,310.64 62.86,305.09 60.91,299.47 59.15,293.79 57.58,288.05 56.21,282.26 55.03,276.43 54.05,270.56 53.28,264.66 52.7,258.74 52.32,252.8 52.15,246.85 52.17,240.9 52.4,234.96 52.83,229.03 53.46,223.11 54.29,217.22 55.31,211.36 56.54,205.54 57.96,199.76 59.58,194.03 61.39,188.37 63.39,182.76 65.58,177.23 67.96,171.78 70.52,166.4 73.26,161.12 76.18,155.94 79.27,150.85 82.53,145.88 85.96,141.02 89.55,136.27 93.3,131.65 97.2,127.16 101.26,122.81 105.45,118.59 109.79,114.52 114.27,110.6 118.87,106.83 123.6,103.22 128.45,99.78 133.42,96.49 138.49,93.38 143.66,90.45 148.93,87.69 154.29,85.11 156.83,90.61 159.36,96.11 161.89,101.61 164.43,107.11 166.96,112.61 169.5,118.11 172.03,123.61 174.57,129.12 177.1,134.62 179.63,140.12 182.17,145.62 184.7,151.12 187.24,156.62 189.77,162.12 192.3,167.62 194.84,173.13 197.37,178.63 199.91,184.13 202.44,189.63 204.98,195.13 207.51,200.63 210.04,206.13 212.58,211.64 215.11,217.14 217.65,222.64 220.18,228.14 222.71,233.64 225.25,239.14 227.78,244.64 227.78,244.64" stroke="none" fill="rgb(248,118,109)" stroke-width="1.07" stroke-dasharray="none" stroke-opacity="0" fill-opacity="1"/>
                </g>
              </g>
              <g id="GRID.text.1621.1" class="text grob gDesc">
                <g id="GRID.text.1621.1.1" transform="translate(313.57, 225.83)" stroke-width="0.1">
                  <g id="GRID.text.1621.1.1.scale" transform="scale(1, -1)">
                    <text x="0" y="0" id="GRID.text.1621.1.1.text" text-anchor="middle" stroke="rgb(0,0,0)" font-size="11.04" font-family="Helvetica, Arial, FreeSans, Liberation Sans, Nimbus Sans L, sans-serif" fill="rgb(0,0,0)" stroke-opacity="1" fill-opacity="1" font-weight="normal" font-style="normal">
                      <tspan id="GRID.text.1621.1.1.tspan.1" dy="3.95" x="0">149</tspan>
                    </text>
                  </g>
                </g>
                <g id="GRID.text.1621.1.2" transform="translate(141.99, 263.45)" stroke-width="0.1">
                  <g id="GRID.text.1621.1.2.scale" transform="scale(1, -1)">
                    <text x="0" y="0" id="GRID.text.1621.1.2.text" text-anchor="middle" stroke="rgb(0,0,0)" font-size="11.04" font-family="Helvetica, Arial, FreeSans, Liberation Sans, Nimbus Sans L, sans-serif" fill="rgb(0,0,0)" stroke-opacity="1" fill-opacity="1" font-weight="normal" font-style="normal">
                      <tspan id="GRID.text.1621.1.2.tspan.1" dy="3.95" x="0">113</tspan>
                    </text>
                  </g>
                </g>
              </g>
              <g id="GRID.gTree.1622.1" class="gTree grob gDesc"/>
            </g>
          </g>
          <g id="layout::spacer.8-6-8-6.1" class="viewport"/>
          <g id="layout::spacer.8-4-8-4.1" class="viewport"/>
          <g id="layout::spacer.6-6-6-6.1" class="viewport"/>
          <g id="layout::spacer.6-4-6-4.1" class="viewport"/>
          <g id="layout::axis-t.6-5-6-5.1" class="viewport"/>
          <g id="layout::axis-l.7-4-7-4.1" class="viewport">
            <g id="layout::axis-l.7-4-7-4::GRID.VP.389.1" class="viewport">
              <g id="axis-l.7-4-7-4.1" class="forcedgrob gTableChild absoluteGrob gTree grob gDesc">
                <g id="layout::axis-l.7-4-7-4::GRID.VP.389::axis.1" class="viewport">
                  <g id="axis.1" class="forcedgrob gtable gTree grob gDesc">
                    <g id="layout::axis-l.7-4-7-4::GRID.VP.389::axis::axis.1-1-1-1.1" class="viewport"/>
                    <g id="layout::axis-l.7-4-7-4::GRID.VP.389::axis::axis.1-2-1-2.1" class="viewport"/>
                  </g>
                </g>
              </g>
            </g>
          </g>
          <g id="layout::axis-r.7-6-7-6.1" class="viewport"/>
          <g id="layout::axis-b.8-5-8-5.1" class="viewport">
            <g id="layout::axis-b.8-5-8-5::GRID.VP.388.1" class="viewport">
              <g id="axis-b.8-5-8-5.1" class="forcedgrob gTableChild absoluteGrob gTree grob gDesc">
                <g id="layout::axis-b.8-5-8-5::GRID.VP.388::axis.1" class="viewport">
                  <g id="axis.2" class="forcedgrob gtable gTree grob gDesc">
                    <g id="layout::axis-b.8-5-8-5::GRID.VP.388::axis::axis.1-1-1-1.1" class="viewport"/>
                    <g id="layout::axis-b.8-5-8-5::GRID.VP.388::axis::axis.2-1-2-1.1" class="viewport"/>
                  </g>
                </g>
              </g>
            </g>
          </g>
          <g id="layout::xlab-t.5-5-5-5.1" class="viewport"/>
          <g id="layout::xlab-b.9-5-9-5.1" class="viewport"/>
          <g id="layout::ylab-l.7-3-7-3.1" class="viewport"/>
          <g id="layout::ylab-r.7-7-7-7.1" class="viewport"/>
          <g id="layout::guide-box.7-9-7-9.1" class="viewport">
            <g id="layout::guide-box.7-9-7-9::GRID.VP.397.1" class="viewport">
              <g id="layout::guide-box.7-9-7-9::GRID.VP.397::guide-box.7-9-7-9.1" class="viewport">
                <g id="guide-box.7-9-7-9.1" class="forcedgrob gTableChild gtable gTree grob gDesc">
                  <g id="layout::guide-box.7-9-7-9::GRID.VP.397::guide-box.7-9-7-9::legend.box.background.2-4-4-2.1" class="viewport"/>
                  <g id="layout::guide-box.7-9-7-9::GRID.VP.397::guide-box.7-9-7-9::guides.3-3-3-3.1" class="viewport">
                    <g id="layout::guide-box.7-9-7-9::GRID.VP.397::guide-box.7-9-7-9::guides.3-3-3-3::GRID.VP.396.1" class="viewport">
                      <g id="layout::guide-box.7-9-7-9::GRID.VP.397::guide-box.7-9-7-9::guides.3-3-3-3::GRID.VP.396::guides.3-3-3-3.1" class="viewport">
                        <g id="guides.3-3-3-3.1" class="forcedgrob gTableChild gtable gTree grob gDesc">
                          <g id="layout::guide-box.7-9-7-9::GRID.VP.397::guide-box.7-9-7-9::guides.3-3-3-3::GRID.VP.396::guides.3-3-3-3::background.1-6-6-1.1" class="viewport">
                            <g id="background.1-6-6-1.1" class="forcedgrob gTableChild rect grob gDesc">
                              <rect id="background.1-6-6-1.1.1" x="458.3" y="219.14" width="40.22" height="51" transform="" stroke-width="1.07" stroke="none" fill="rgb(255,255,255)" stroke-dasharray="none" stroke-opacity="0" fill-opacity="1"/>
                            </g>
                          </g>
                          <g id="layout::guide-box.7-9-7-9::GRID.VP.397::guide-box.7-9-7-9::guides.3-3-3-3::GRID.VP.396::guides.3-3-3-3::title.2-5-2-2.1" class="viewport"/>
                          <g id="layout::guide-box.7-9-7-9::GRID.VP.397::guide-box.7-9-7-9::guides.3-3-3-3::GRID.VP.396::guides.3-3-3-3::key-3-1-bg.4-2-4-2.1" class="viewport"/>
                          <g id="layout::guide-box.7-9-7-9::GRID.VP.397::guide-box.7-9-7-9::guides.3-3-3-3::GRID.VP.396::guides.3-3-3-3::key-3-1-1.4-2-4-2.1" class="viewport">
                            <g id="key-3-1-1.4-2-4-2.1" class="forcedgrob gTableChild rect grob gDesc">
                              <rect id="key-3-1-1.4-2-4-2.1.1" x="464.49" y="242.61" width="15.86" height="15.86" transform="" stroke="none" fill="rgb(248,118,109)" stroke-dasharray="none" stroke-width="1.07" stroke-linejoin="miter" stroke-opacity="0" fill-opacity="1"/>
                            </g>
                          </g>
                          <g id="layout::guide-box.7-9-7-9::GRID.VP.397::guide-box.7-9-7-9::guides.3-3-3-3::GRID.VP.396::guides.3-3-3-3::key-4-1-bg.5-2-5-2.1" class="viewport"/>
                          <g id="layout::guide-box.7-9-7-9::GRID.VP.397::guide-box.7-9-7-9::guides.3-3-3-3::GRID.VP.396::guides.3-3-3-3::key-4-1-1.5-2-5-2.1" class="viewport">
                            <g id="key-4-1-1.5-2-5-2.1" class="forcedgrob gTableChild rect grob gDesc">
                              <rect id="key-4-1-1.5-2-5-2.1.1" x="464.49" y="225.33" width="15.86" height="15.86" transform="" stroke="none" fill="rgb(0,191,196)" stroke-dasharray="none" stroke-width="1.07" stroke-linejoin="miter" stroke-opacity="0" fill-opacity="1"/>
                            </g>
                          </g>
                          <g id="layout::guide-box.7-9-7-9::GRID.VP.397::guide-box.7-9-7-9::guides.3-3-3-3::GRID.VP.396::guides.3-3-3-3::label-3-3.4-4-4-4.1" class="viewport">
                            <g id="layout::guide-box.7-9-7-9::GRID.VP.397::guide-box.7-9-7-9::guides.3-3-3-3::GRID.VP.396::guides.3-3-3-3::label-3-3.4-4-4-4::GRID.VP.394.1" class="viewport">
                              <g id="label-3-3.4-4-4-4.1" class="forcedgrob gTableChild gTree grob gDesc">
                                <g id="layout::guide-box.7-9-7-9::GRID.VP.397::guide-box.7-9-7-9::guides.3-3-3-3::GRID.VP.396::guides.3-3-3-3::label-3-3.4-4-4-4::GRID.VP.394::GRID.VP.390.1" font-size="8.8" stroke="rgb(0,0,0)" font-family="Helvetica, Arial, FreeSans, Liberation Sans, Nimbus Sans L, sans-serif" stroke-opacity="1" font-weight="normal" font-style="normal" class="viewport">
                                  <g id="layout::guide-box.7-9-7-9::GRID.VP.397::guide-box.7-9-7-9::guides.3-3-3-3::GRID.VP.396::guides.3-3-3-3::label-3-3.4-4-4-4::GRID.VP.394::GRID.VP.390::GRID.VP.391.1" class="viewport">
                                    <g id="guide.label.titleGrob.1645.1" class="titleGrob gTree grob gDesc">
                                      <g id="GRID.text.1643.1" class="text grob gDesc">
                                        <g id="GRID.text.1643.1.1" transform="translate(486.54, 250.54)" stroke-width="0.1">
                                          <g id="GRID.text.1643.1.1.scale" transform="scale(1, -1)">
                                            <text x="0" y="0" id="GRID.text.1643.1.1.text" text-anchor="start" font-size="8.8" stroke="rgb(0,0,0)" font-family="Helvetica, Arial, FreeSans, Liberation Sans, Nimbus Sans L, sans-serif" fill="rgb(0,0,0)" stroke-opacity="1" fill-opacity="1" font-weight="normal" font-style="normal">
                                              <tspan id="GRID.text.1643.1.1.tspan.1" dy="3.23" x="0">S</tspan>
                                            </text>
                                          </g>
                                        </g>
                                      </g>
                                    </g>
                                  </g>
                                </g>
                              </g>
                            </g>
                          </g>
                          <g id="layout::guide-box.7-9-7-9::GRID.VP.397::guide-box.7-9-7-9::guides.3-3-3-3::GRID.VP.396::guides.3-3-3-3::label-4-3.5-4-5-4.1" class="viewport">
                            <g id="layout::guide-box.7-9-7-9::GRID.VP.397::guide-box.7-9-7-9::guides.3-3-3-3::GRID.VP.396::guides.3-3-3-3::label-4-3.5-4-5-4::GRID.VP.395.1" class="viewport">
                              <g id="label-4-3.5-4-5-4.1" class="forcedgrob gTableChild gTree grob gDesc">
                                <g id="layout::guide-box.7-9-7-9::GRID.VP.397::guide-box.7-9-7-9::guides.3-3-3-3::GRID.VP.396::guides.3-3-3-3::label-4-3.5-4-5-4::GRID.VP.395::GRID.VP.392.1" font-size="8.8" stroke="rgb(0,0,0)" font-family="Helvetica, Arial, FreeSans, Liberation Sans, Nimbus Sans L, sans-serif" stroke-opacity="1" font-weight="normal" font-style="normal" class="viewport">
                                  <g id="layout::guide-box.7-9-7-9::GRID.VP.397::guide-box.7-9-7-9::guides.3-3-3-3::GRID.VP.396::guides.3-3-3-3::label-4-3.5-4-5-4::GRID.VP.395::GRID.VP.392::GRID.VP.393.1" class="viewport">
                                    <g id="guide.label.titleGrob.1648.1" class="titleGrob gTree grob gDesc">
                                      <g id="GRID.text.1646.1" class="text grob gDesc">
                                        <g id="GRID.text.1646.1.1" transform="translate(486.54, 233.26)" stroke-width="0.1">
                                          <g id="GRID.text.1646.1.1.scale" transform="scale(1, -1)">
                                            <text x="0" y="0" id="GRID.text.1646.1.1.text" text-anchor="start" font-size="8.8" stroke="rgb(0,0,0)" font-family="Helvetica, Arial, FreeSans, Liberation Sans, Nimbus Sans L, sans-serif" fill="rgb(0,0,0)" stroke-opacity="1" fill-opacity="1" font-weight="normal" font-style="normal">
                                              <tspan id="GRID.text.1646.1.1.tspan.1" dy="3.23" x="0">N</tspan>
                                            </text>
                                          </g>
                                        </g>
                                      </g>
                                    </g>
                                  </g>
                                </g>
                              </g>
                            </g>
                          </g>
                        </g>
                      </g>
                    </g>
                  </g>
                </g>
              </g>
            </g>
          </g>
          <g id="layout::subtitle.4-5-4-5.1" class="viewport"/>
          <g id="layout::title.3-5-3-5.1" class="viewport">
            <g id="layout::title.3-5-3-5::GRID.VP.398.1" font-size="13.2" stroke="rgb(102,102,102)" font-family="Helvetica, Arial, FreeSans, Liberation Sans, Nimbus Sans L, sans-serif" stroke-opacity="1" font-weight="normal" font-style="normal" class="viewport">
              <g id="layout::title.3-5-3-5::GRID.VP.398::GRID.VP.399.1" class="viewport">
                <g id="title.3-5-3-5.1" class="forcedgrob gTableChild titleGrob gTree grob gDesc">
                  <g id="GRID.text.1657.1" class="text grob gDesc">
                    <g id="GRID.text.1657.1.1" transform="translate(227.78, 481.66)" stroke-width="0.1">
                      <g id="GRID.text.1657.1.1.scale" transform="scale(1, -1)">
                        <text x="0" y="0" id="GRID.text.1657.1.1.text" text-anchor="middle" font-size="13.2" stroke="rgb(102,102,102)" font-family="Helvetica, Arial, FreeSans, Liberation Sans, Nimbus Sans L, sans-serif" fill="rgb(102,102,102)" stroke-opacity="1" fill-opacity="1" font-weight="normal" font-style="normal">
                          <tspan id="GRID.text.1657.1.1.tspan.1" dy="9.33" x="0">anagrafica totali-corsoit</tspan>
                        </text>
                      </g>
                    </g>
                  </g>
                </g>
              </g>
            </g>
          </g>
          <g id="layout::caption.10-5-10-5.1" class="viewport"/>
          <g id="layout::tag.2-2-2-2.1" class="viewport"/>
        </g>
      </g>
    </g>
  </g>
</svg>