<?xml version="1.0" encoding="UTF-8"?>
<svg xmlns="http://www.w3.org/2000/svg" xmlns:xlink="http://www.w3.org/1999/xlink" width="504px" height="504px" viewBox="0 0 504 504" version="1.1">
  <metadata xmlns:gridsvg="http://www.stat.auckland.ac.nz/~paul/R/gridSVG/">
    <gridsvg:generator name="gridSVG" version="1.6-0" time="2019-01-14 19:38:11"/>
    <gridsvg:argument name="name" value="./latest_informaggio_csv/risultati/svg/anagrafica-sostituzionehardware.svg"/>
    <gridsvg:argument name="exportCoords" value="none"/>
    <gridsvg:argument name="exportMappings" value="none"/>
    <gridsvg:argument name="exportJS" value="none"/>
    <gridsvg:argument name="res" value="72"/>
    <gridsvg:argument name="prefix" value=""/>
    <gridsvg:argument name="addClasses" value="TRUE"/>
    <gridsvg:argument name="indent" value="TRUE"/>
    <gridsvg:argument name="htmlWrapper" value="FALSE"/>
    <gridsvg:argument name="usePaths" value="vpPaths"/>
    <gridsvg:argument name="uniqueNames" value="TRUE"/>
    <gridsvg:separator name="id.sep" value="."/>
    <gridsvg:separator name="gPath.sep" value="::"/>
    <gridsvg:separator name="vpPath.sep" value="::"/>
  </metadata>
  <g transform="translate(0, 504) scale(1, -1)">
    <g id="gridSVG" fill="none" stroke="rgb(0,0,0)" stroke-dasharray="none" stroke-width="0.75" font-size="12" font-family="Helvetica, Arial, FreeSans, Liberation Sans, Nimbus Sans L, sans-serif" opacity="1" stroke-linecap="round" stroke-linejoin="round" stroke-miterlimit="10" stroke-opacity="1" fill-opacity="0" font-weight="normal" font-style="normal">
      <g id="layout.1" class="viewport">
        <g id="layout.2" class="forcedgrob gtable gTree grob gDesc">
          <defs>
            <clipPath id="layout::background.1-11-12-1.1.clipPath">
              <rect x="0" y="28.61" width="504" height="446.77" fill="none" stroke="none"/>
            </clipPath>
          </defs>
          <g id="layout::background.1-11-12-1.1" clip-path="url(#layout::background.1-11-12-1.1.clipPath)" class="viewport">
            <g id="background.1-11-12-1.1" class="forcedgrob gTableChild rect grob gDesc">
              <rect id="background.1-11-12-1.1.1" x="0" y="28.61" width="504" height="446.77" transform="" stroke-width="1.07" stroke="rgb(255,255,255)" fill="rgb(255,255,255)" stroke-dasharray="none" stroke-opacity="1" fill-opacity="1"/>
            </g>
          </g>
          <defs>
            <clipPath id="layout::panel.7-5-7-5.1.clipPath">
              <rect x="8.22" y="36.83" width="415.62" height="415.62" fill="none" stroke="none"/>
            </clipPath>
          </defs>
          <g id="layout::panel.7-5-7-5.1" clip-path="url(#layout::panel.7-5-7-5.1.clipPath)" class="viewport">
            <g id="panel.7-5-7-5.1" class="forcedgrob gTableChild gTree grob gDesc">
              <g id="grill.gTree.3576.1" class="gTree grob gDesc">
                <g id="panel.background..rect.3572.1" class="rect grob gDesc">
                  <rect id="panel.background..rect.3572.1.1" x="8.22" y="36.83" width="415.62" height="415.62" transform="" stroke-width="1.07" stroke="none" fill="rgb(255,255,255)" stroke-dasharray="none" stroke-opacity="0" fill-opacity="1"/>
                </g>
              </g>
              <g id="bar.gTree.3565.1" class="gTree grob gDesc">
                <g id="geom_polygon.polygon.3561.1" class="polygon grob gDesc">
                  <polygon id="geom_polygon.polygon.3561.1.1" points="216.03,244.64 210.39,245.67 204.75,246.69 199.11,247.72 193.47,248.75 187.83,249.77 182.19,250.8 176.55,251.82 170.91,252.85 165.27,253.87 159.63,254.9 153.99,255.92 148.35,256.95 142.71,257.98 137.07,259 131.43,260.03 125.79,261.05 120.15,262.08 114.5,263.1 108.86,264.13 103.22,265.15 97.58,266.18 91.94,267.2 86.3,268.23 80.66,269.26 75.02,270.28 69.38,271.31 63.74,272.33 58.1,273.36 52.46,274.38 51.55,268.81 50.82,263.21 50.29,257.59 49.94,251.95 49.79,246.3 49.83,240.66 50.06,235.01 50.48,229.38 51.1,223.77 51.9,218.18 52.89,212.62 54.08,207.09 55.45,201.62 57,196.19 58.74,190.81 60.66,185.5 62.76,180.26 65.03,175.09 67.48,170 70.1,165 72.89,160.09 75.85,155.27 78.96,150.56 82.24,145.96 85.67,141.47 89.25,137.1 92.97,132.86 96.84,128.74 100.85,124.76 104.98,120.92 109.25,117.22 113.64,113.67 118.15,110.26 122.77,107.02 127.5,103.93 132.33,101 137.26,98.24 142.28,95.65 147.38,93.23 152.56,90.99 157.82,88.92 163.14,87.03 168.52,85.33 173.96,83.81 179.45,82.47 184.98,81.32 190.55,80.36 196.14,79.59 201.76,79.01 207.39,78.62 213.04,78.42 218.69,78.42 224.33,78.6 229.97,78.98 235.58,79.55 241.18,80.31 246.75,81.26 252.28,82.4 257.77,83.72 263.21,85.23 268.6,86.93 273.93,88.8 279.19,90.86 284.37,93.09 289.48,95.5 294.51,98.08 299.44,100.84 304.28,103.75 309.01,106.83 313.64,110.07 318.15,113.46 322.55,117.01 326.82,120.7 330.97,124.53 334.98,128.51 338.86,132.61 342.59,136.85 346.18,141.21 349.62,145.69 352.91,150.29 356.03,154.99 359,159.8 361.79,164.7 364.43,169.7 366.89,174.79 369.17,179.95 371.28,185.19 373.21,190.5 374.96,195.87 376.52,201.29 377.9,206.77 379.1,212.29 380.1,217.85 380.92,223.44 381.54,229.05 381.98,234.68 382.22,240.32 382.27,245.97 382.13,251.62 381.8,257.26 381.27,262.88 380.56,268.48 379.65,274.06 378.56,279.6 377.28,285.1 375.81,290.55 374.16,295.95 372.33,301.29 370.31,306.57 368.12,311.78 365.75,316.9 363.21,321.95 360.5,326.9 357.62,331.76 354.58,336.52 351.38,341.17 348.02,345.72 344.51,350.14 340.86,354.44 337.05,358.62 333.11,362.67 329.04,366.58 324.83,370.34 320.5,373.97 316.04,377.44 311.47,380.76 306.8,383.92 302.01,386.93 297.13,389.77 292.15,392.44 287.09,394.94 281.94,397.26 276.72,399.42 271.43,401.39 266.07,403.18 260.66,404.79 255.19,406.21 249.68,407.45 244.13,408.5 238.55,409.36 232.94,410.03 227.32,410.51 221.68,410.79 216.03,410.89 216.03,405.16 216.03,399.43 216.03,393.69 216.03,387.96 216.03,382.23 216.03,376.49 216.03,370.76 216.03,365.03 216.03,359.3 216.03,353.56 216.03,347.83 216.03,342.1 216.03,336.37 216.03,330.63 216.03,324.9 216.03,319.17 216.03,313.44 216.03,307.7 216.03,301.97 216.03,296.24 216.03,290.5 216.03,284.77 216.03,279.04 216.03,273.31 216.03,267.57 216.03,261.84 216.03,256.11 216.03,250.38 216.03,244.64 216.03,244.64" stroke="none" fill="rgb(0,191,196)" stroke-width="1.07" stroke-dasharray="none" stroke-opacity="0" fill-opacity="1"/>
                </g>
                <g id="geom_polygon.polygon.3563.1" class="polygon grob gDesc">
                  <polygon id="geom_polygon.polygon.3563.1.1" points="216.03,244.64 216.03,250.38 216.03,256.11 216.03,261.84 216.03,267.57 216.03,273.31 216.03,279.04 216.03,284.77 216.03,290.5 216.03,296.24 216.03,301.97 216.03,307.7 216.03,313.44 216.03,319.17 216.03,324.9 216.03,330.63 216.03,336.37 216.03,342.1 216.03,347.83 216.03,353.56 216.03,359.3 216.03,365.03 216.03,370.76 216.03,376.49 216.03,382.23 216.03,387.96 216.03,393.69 216.03,399.43 216.03,405.16 216.03,410.89 210.39,410.79 204.76,410.51 199.14,410.03 193.54,409.36 187.96,408.5 182.42,407.46 176.92,406.22 171.46,404.81 166.05,403.2 160.7,401.41 155.42,399.45 150.2,397.3 145.06,394.98 140,392.49 135.03,389.83 130.16,386.99 125.38,384 120.7,380.85 116.14,377.53 111.69,374.07 107.36,370.46 103.15,366.7 99.08,362.8 95.14,358.76 91.34,354.6 87.68,350.3 84.17,345.89 80.81,341.36 77.61,336.72 74.56,331.97 71.68,327.12 68.97,322.18 66.42,317.14 64.05,312.03 61.85,306.83 59.83,301.57 57.99,296.24 56.33,290.85 54.86,285.4 53.57,279.91 52.46,274.38 58.1,273.36 63.74,272.33 69.38,271.31 75.02,270.28 80.66,269.26 86.3,268.23 91.94,267.2 97.58,266.18 103.22,265.15 108.86,264.13 114.5,263.1 120.15,262.08 125.79,261.05 131.43,260.03 137.07,259 142.71,257.98 148.35,256.95 153.99,255.92 159.63,254.9 165.27,253.87 170.91,252.85 176.55,251.82 182.19,250.8 187.83,249.77 193.47,248.75 199.11,247.72 204.75,246.69 210.39,245.67 216.03,244.64 216.03,244.64" stroke="none" fill="rgb(248,118,109)" stroke-width="1.07" stroke-dasharray="none" stroke-opacity="0" fill-opacity="1"/>
                </g>
              </g>
              <g id="GRID.text.3566.1" class="text grob gDesc">
                <g id="GRID.text.3566.1.1" transform="translate(269.29, 180.82)" stroke-width="0.1">
                  <g id="GRID.text.3566.1.1.scale" transform="scale(1, -1)">
                    <text x="0" y="0" id="GRID.text.3566.1.1.text" text-anchor="middle" stroke="rgb(0,0,0)" font-size="11.04" font-family="Helvetica, Arial, FreeSans, Liberation Sans, Nimbus Sans L, sans-serif" fill="rgb(0,0,0)" stroke-opacity="1" fill-opacity="1" font-weight="normal" font-style="normal">
                      <tspan id="GRID.text.3566.1.1.tspan.1" dy="3.95" x="0">204</tspan>
                    </text>
                  </g>
                </g>
                <g id="GRID.text.3566.1.2" transform="translate(162.77, 308.46)" stroke-width="0.1">
                  <g id="GRID.text.3566.1.2.scale" transform="scale(1, -1)">
                    <text x="0" y="0" id="GRID.text.3566.1.2.text" text-anchor="middle" stroke="rgb(0,0,0)" font-size="11.04" font-family="Helvetica, Arial, FreeSans, Liberation Sans, Nimbus Sans L, sans-serif" fill="rgb(0,0,0)" stroke-opacity="1" fill-opacity="1" font-weight="normal" font-style="normal">
                      <tspan id="GRID.text.3566.1.2.tspan.1" dy="3.95" x="0">58</tspan>
                    </text>
                  </g>
                </g>
              </g>
              <g id="GRID.gTree.3567.1" class="gTree grob gDesc"/>
            </g>
          </g>
          <g id="layout::spacer.8-6-8-6.1" class="viewport"/>
          <g id="layout::spacer.8-4-8-4.1" class="viewport"/>
          <g id="layout::spacer.6-6-6-6.1" class="viewport"/>
          <g id="layout::spacer.6-4-6-4.1" class="viewport"/>
          <g id="layout::axis-t.6-5-6-5.1" class="viewport"/>
          <g id="layout::axis-l.7-4-7-4.1" class="viewport">
            <g id="layout::axis-l.7-4-7-4::GRID.VP.854.1" class="viewport">
              <g id="axis-l.7-4-7-4.1" class="forcedgrob gTableChild absoluteGrob gTree grob gDesc">
                <g id="layout::axis-l.7-4-7-4::GRID.VP.854::axis.1" class="viewport">
                  <g id="axis.1" class="forcedgrob gtable gTree grob gDesc">
                    <g id="layout::axis-l.7-4-7-4::GRID.VP.854::axis::axis.1-1-1-1.1" class="viewport"/>
                    <g id="layout::axis-l.7-4-7-4::GRID.VP.854::axis::axis.1-2-1-2.1" class="viewport"/>
                  </g>
                </g>
              </g>
            </g>
          </g>
          <g id="layout::axis-r.7-6-7-6.1" class="viewport"/>
          <g id="layout::axis-b.8-5-8-5.1" class="viewport">
            <g id="layout::axis-b.8-5-8-5::GRID.VP.853.1" class="viewport">
              <g id="axis-b.8-5-8-5.1" class="forcedgrob gTableChild absoluteGrob gTree grob gDesc">
                <g id="layout::axis-b.8-5-8-5::GRID.VP.853::axis.1" class="viewport">
                  <g id="axis.2" class="forcedgrob gtable gTree grob gDesc">
                    <g id="layout::axis-b.8-5-8-5::GRID.VP.853::axis::axis.1-1-1-1.1" class="viewport"/>
                    <g id="layout::axis-b.8-5-8-5::GRID.VP.853::axis::axis.2-1-2-1.1" class="viewport"/>
                  </g>
                </g>
              </g>
            </g>
          </g>
          <g id="layout::xlab-t.5-5-5-5.1" class="viewport"/>
          <g id="layout::xlab-b.9-5-9-5.1" class="viewport"/>
          <g id="layout::ylab-l.7-3-7-3.1" class="viewport"/>
          <g id="layout::ylab-r.7-7-7-7.1" class="viewport"/>
          <g id="layout::guide-box.7-9-7-9.1" class="viewport">
            <g id="layout::guide-box.7-9-7-9::GRID.VP.862.1" class="viewport">
              <g id="layout::guide-box.7-9-7-9::GRID.VP.862::guide-box.7-9-7-9.1" class="viewport">
                <g id="guide-box.7-9-7-9.1" class="forcedgrob gTableChild gtable gTree grob gDesc">
                  <g id="layout::guide-box.7-9-7-9::GRID.VP.862::guide-box.7-9-7-9::legend.box.background.2-4-4-2.1" class="viewport"/>
                  <g id="layout::guide-box.7-9-7-9::GRID.VP.862::guide-box.7-9-7-9::guides.3-3-3-3.1" class="viewport">
                    <g id="layout::guide-box.7-9-7-9::GRID.VP.862::guide-box.7-9-7-9::guides.3-3-3-3::GRID.VP.861.1" class="viewport">
                      <g id="layout::guide-box.7-9-7-9::GRID.VP.862::guide-box.7-9-7-9::guides.3-3-3-3::GRID.VP.861::guides.3-3-3-3.1" class="viewport">
                        <g id="guides.3-3-3-3.1" class="forcedgrob gTableChild gtable gTree grob gDesc">
                          <g id="layout::guide-box.7-9-7-9::GRID.VP.862::guide-box.7-9-7-9::guides.3-3-3-3::GRID.VP.861::guides.3-3-3-3::background.1-6-6-1.1" class="viewport">
                            <g id="background.1-6-6-1.1" class="forcedgrob gTableChild rect grob gDesc">
                              <rect id="background.1-6-6-1.1.1" x="434.8" y="219.14" width="63.72" height="51" transform="" stroke-width="1.07" stroke="none" fill="rgb(255,255,255)" stroke-dasharray="none" stroke-opacity="0" fill-opacity="1"/>
                            </g>
                          </g>
                          <g id="layout::guide-box.7-9-7-9::GRID.VP.862::guide-box.7-9-7-9::guides.3-3-3-3::GRID.VP.861::guides.3-3-3-3::title.2-5-2-2.1" class="viewport"/>
                          <g id="layout::guide-box.7-9-7-9::GRID.VP.862::guide-box.7-9-7-9::guides.3-3-3-3::GRID.VP.861::guides.3-3-3-3::key-3-1-bg.4-2-4-2.1" class="viewport"/>
                          <g id="layout::guide-box.7-9-7-9::GRID.VP.862::guide-box.7-9-7-9::guides.3-3-3-3::GRID.VP.861::guides.3-3-3-3::key-3-1-1.4-2-4-2.1" class="viewport">
                            <g id="key-3-1-1.4-2-4-2.1" class="forcedgrob gTableChild rect grob gDesc">
                              <rect id="key-3-1-1.4-2-4-2.1.1" x="440.98" y="242.61" width="15.86" height="15.86" transform="" stroke="none" fill="rgb(248,118,109)" stroke-dasharray="none" stroke-width="1.07" stroke-linejoin="miter" stroke-opacity="0" fill-opacity="1"/>
                            </g>
                          </g>
                          <g id="layout::guide-box.7-9-7-9::GRID.VP.862::guide-box.7-9-7-9::guides.3-3-3-3::GRID.VP.861::guides.3-3-3-3::key-4-1-bg.5-2-5-2.1" class="viewport"/>
                          <g id="layout::guide-box.7-9-7-9::GRID.VP.862::guide-box.7-9-7-9::guides.3-3-3-3::GRID.VP.861::guides.3-3-3-3::key-4-1-1.5-2-5-2.1" class="viewport">
                            <g id="key-4-1-1.5-2-5-2.1" class="forcedgrob gTableChild rect grob gDesc">
                              <rect id="key-4-1-1.5-2-5-2.1.1" x="440.98" y="225.33" width="15.86" height="15.86" transform="" stroke="none" fill="rgb(0,191,196)" stroke-dasharray="none" stroke-width="1.07" stroke-linejoin="miter" stroke-opacity="0" fill-opacity="1"/>
                            </g>
                          </g>
                          <g id="layout::guide-box.7-9-7-9::GRID.VP.862::guide-box.7-9-7-9::guides.3-3-3-3::GRID.VP.861::guides.3-3-3-3::label-3-3.4-4-4-4.1" class="viewport">
                            <g id="layout::guide-box.7-9-7-9::GRID.VP.862::guide-box.7-9-7-9::guides.3-3-3-3::GRID.VP.861::guides.3-3-3-3::label-3-3.4-4-4-4::GRID.VP.859.1" class="viewport">
                              <g id="label-3-3.4-4-4-4.1" class="forcedgrob gTableChild gTree grob gDesc">
                                <g id="layout::guide-box.7-9-7-9::GRID.VP.862::guide-box.7-9-7-9::guides.3-3-3-3::GRID.VP.861::guides.3-3-3-3::label-3-3.4-4-4-4::GRID.VP.859::GRID.VP.855.1" font-size="8.8" stroke="rgb(0,0,0)" font-family="Helvetica, Arial, FreeSans, Liberation Sans, Nimbus Sans L, sans-serif" stroke-opacity="1" font-weight="normal" font-style="normal" class="viewport">
                                  <g id="layout::guide-box.7-9-7-9::GRID.VP.862::guide-box.7-9-7-9::guides.3-3-3-3::GRID.VP.861::guides.3-3-3-3::label-3-3.4-4-4-4::GRID.VP.859::GRID.VP.855::GRID.VP.856.1" class="viewport">
                                    <g id="guide.label.titleGrob.3590.1" class="titleGrob gTree grob gDesc">
                                      <g id="GRID.text.3588.1" class="text grob gDesc">
                                        <g id="GRID.text.3588.1.1" transform="translate(463.04, 250.54)" stroke-width="0.1">
                                          <g id="GRID.text.3588.1.1.scale" transform="scale(1, -1)">
                                            <text x="0" y="0" id="GRID.text.3588.1.1.text" text-anchor="start" font-size="8.8" stroke="rgb(0,0,0)" font-family="Helvetica, Arial, FreeSans, Liberation Sans, Nimbus Sans L, sans-serif" fill="rgb(0,0,0)" stroke-opacity="1" fill-opacity="1" font-weight="normal" font-style="normal">
                                              <tspan id="GRID.text.3588.1.1.tspan.1" dy="3.23" x="0">S (58)</tspan>
                                            </text>
                                          </g>
                                        </g>
                                      </g>
                                    </g>
                                  </g>
                                </g>
                              </g>
                            </g>
                          </g>
                          <g id="layout::guide-box.7-9-7-9::GRID.VP.862::guide-box.7-9-7-9::guides.3-3-3-3::GRID.VP.861::guides.3-3-3-3::label-4-3.5-4-5-4.1" class="viewport">
                            <g id="layout::guide-box.7-9-7-9::GRID.VP.862::guide-box.7-9-7-9::guides.3-3-3-3::GRID.VP.861::guides.3-3-3-3::label-4-3.5-4-5-4::GRID.VP.860.1" class="viewport">
                              <g id="label-4-3.5-4-5-4.1" class="forcedgrob gTableChild gTree grob gDesc">
                                <g id="layout::guide-box.7-9-7-9::GRID.VP.862::guide-box.7-9-7-9::guides.3-3-3-3::GRID.VP.861::guides.3-3-3-3::label-4-3.5-4-5-4::GRID.VP.860::GRID.VP.857.1" font-size="8.8" stroke="rgb(0,0,0)" font-family="Helvetica, Arial, FreeSans, Liberation Sans, Nimbus Sans L, sans-serif" stroke-opacity="1" font-weight="normal" font-style="normal" class="viewport">
                                  <g id="layout::guide-box.7-9-7-9::GRID.VP.862::guide-box.7-9-7-9::guides.3-3-3-3::GRID.VP.861::guides.3-3-3-3::label-4-3.5-4-5-4::GRID.VP.860::GRID.VP.857::GRID.VP.858.1" class="viewport">
                                    <g id="guide.label.titleGrob.3593.1" class="titleGrob gTree grob gDesc">
                                      <g id="GRID.text.3591.1" class="text grob gDesc">
                                        <g id="GRID.text.3591.1.1" transform="translate(463.04, 233.26)" stroke-width="0.1">
                                          <g id="GRID.text.3591.1.1.scale" transform="scale(1, -1)">
                                            <text x="0" y="0" id="GRID.text.3591.1.1.text" text-anchor="start" font-size="8.8" stroke="rgb(0,0,0)" font-family="Helvetica, Arial, FreeSans, Liberation Sans, Nimbus Sans L, sans-serif" fill="rgb(0,0,0)" stroke-opacity="1" fill-opacity="1" font-weight="normal" font-style="normal">
                                              <tspan id="GRID.text.3591.1.1.tspan.1" dy="3.23" x="0">N (204)</tspan>
                                            </text>
                                          </g>
                                        </g>
                                      </g>
                                    </g>
                                  </g>
                                </g>
                              </g>
                            </g>
                          </g>
                        </g>
                      </g>
                    </g>
                  </g>
                </g>
              </g>
            </g>
          </g>
          <g id="layout::subtitle.4-5-4-5.1" class="viewport"/>
          <g id="layout::title.3-5-3-5.1" class="viewport">
            <g id="layout::title.3-5-3-5::GRID.VP.863.1" font-size="13.2" stroke="rgb(102,102,102)" font-family="Helvetica, Arial, FreeSans, Liberation Sans, Nimbus Sans L, sans-serif" stroke-opacity="1" font-weight="normal" font-style="normal" class="viewport">
              <g id="layout::title.3-5-3-5::GRID.VP.863::GRID.VP.864.1" class="viewport">
                <g id="title.3-5-3-5.1" class="forcedgrob gTableChild titleGrob gTree grob gDesc">
                  <g id="GRID.text.3602.1" class="text grob gDesc">
                    <g id="GRID.text.3602.1.1" transform="translate(216.03, 469.91)" stroke-width="0.1">
                      <g id="GRID.text.3602.1.1.scale" transform="scale(1, -1)">
                        <text x="0" y="0" id="GRID.text.3602.1.1.text" text-anchor="middle" font-size="13.2" stroke="rgb(102,102,102)" font-family="Helvetica, Arial, FreeSans, Liberation Sans, Nimbus Sans L, sans-serif" fill="rgb(102,102,102)" stroke-opacity="1" fill-opacity="1" font-weight="normal" font-style="normal">
                          <tspan id="GRID.text.3602.1.1.tspan.1" dy="9.33" x="0">anagrafica sostituzionehardware</tspan>
                        </text>
                      </g>
                    </g>
                  </g>
                </g>
              </g>
            </g>
          </g>
          <g id="layout::caption.10-5-10-5.1" class="viewport"/>
          <g id="layout::tag.2-2-2-2.1" class="viewport"/>
        </g>
      </g>
    </g>
  </g>
</svg>