<?xml version="1.0" encoding="UTF-8"?>
<svg xmlns="http://www.w3.org/2000/svg" xmlns:xlink="http://www.w3.org/1999/xlink" width="504px" height="504px" viewBox="0 0 504 504" version="1.1">
  <metadata xmlns:gridsvg="http://www.stat.auckland.ac.nz/~paul/R/gridSVG/">
    <gridsvg:generator name="gridSVG" version="1.6-0" time="2019-01-07 19:39:27"/>
    <gridsvg:argument name="name" value="./latest_informaggio_csv/risultati/svg/anagrafica-totali-sicurezza.svg"/>
    <gridsvg:argument name="exportCoords" value="none"/>
    <gridsvg:argument name="exportMappings" value="none"/>
    <gridsvg:argument name="exportJS" value="none"/>
    <gridsvg:argument name="res" value="72"/>
    <gridsvg:argument name="prefix" value=""/>
    <gridsvg:argument name="addClasses" value="TRUE"/>
    <gridsvg:argument name="indent" value="TRUE"/>
    <gridsvg:argument name="htmlWrapper" value="FALSE"/>
    <gridsvg:argument name="usePaths" value="vpPaths"/>
    <gridsvg:argument name="uniqueNames" value="TRUE"/>
    <gridsvg:separator name="id.sep" value="."/>
    <gridsvg:separator name="gPath.sep" value="::"/>
    <gridsvg:separator name="vpPath.sep" value="::"/>
  </metadata>
  <g transform="translate(0, 504) scale(1, -1)">
    <g id="gridSVG" fill="none" stroke="rgb(0,0,0)" stroke-dasharray="none" stroke-width="0.75" font-size="12" font-family="Helvetica, Arial, FreeSans, Liberation Sans, Nimbus Sans L, sans-serif" opacity="1" stroke-linecap="round" stroke-linejoin="round" stroke-miterlimit="10" stroke-opacity="1" fill-opacity="0" font-weight="normal" font-style="normal">
      <g id="layout.1" class="viewport">
        <g id="layout.2" class="forcedgrob gtable gTree grob gDesc">
          <defs>
            <clipPath id="layout::background.1-11-12-1.1.clipPath">
              <rect x="0" y="31.67" width="504" height="440.66" fill="none" stroke="none"/>
            </clipPath>
          </defs>
          <g id="layout::background.1-11-12-1.1" clip-path="url(#layout::background.1-11-12-1.1.clipPath)" class="viewport">
            <g id="background.1-11-12-1.1" class="forcedgrob gTableChild rect grob gDesc">
              <rect id="background.1-11-12-1.1.1" x="0" y="31.67" width="504" height="440.66" transform="" stroke-width="1.07" stroke="rgb(255,255,255)" fill="rgb(255,255,255)" stroke-dasharray="none" stroke-opacity="1" fill-opacity="1"/>
            </g>
          </g>
          <defs>
            <clipPath id="layout::panel.7-5-7-5.1.clipPath">
              <rect x="8.22" y="39.89" width="409.51" height="409.51" fill="none" stroke="none"/>
            </clipPath>
          </defs>
          <g id="layout::panel.7-5-7-5.1" clip-path="url(#layout::panel.7-5-7-5.1.clipPath)" class="viewport">
            <g id="panel.7-5-7-5.1" class="forcedgrob gTableChild gTree grob gDesc">
              <g id="grill.gTree.3457.1" class="gTree grob gDesc">
                <g id="panel.background..rect.3453.1" class="rect grob gDesc">
                  <rect id="panel.background..rect.3453.1.1" x="8.22" y="39.89" width="409.51" height="409.51" transform="" stroke-width="1.07" stroke="none" fill="rgb(255,255,255)" stroke-dasharray="none" stroke-opacity="0" fill-opacity="1"/>
                </g>
              </g>
              <g id="bar.gTree.3446.1" class="gTree grob gDesc">
                <g id="geom_polygon.polygon.3436.1" class="polygon grob gDesc">
                  <polygon id="geom_polygon.polygon.3436.1.1" points="212.97,244.64 214.37,239.17 215.78,233.7 217.18,228.23 218.58,222.76 219.98,217.29 221.39,211.81 222.79,206.34 224.19,200.87 225.59,195.4 226.99,189.93 228.4,184.46 229.8,178.98 231.2,173.51 232.6,168.04 234,162.57 235.41,157.1 236.81,151.63 238.21,146.15 239.61,140.68 241.01,135.21 242.42,129.74 243.82,124.27 245.22,118.8 246.62,113.32 248.02,107.85 249.43,102.38 250.83,96.91 252.23,91.44 253.63,85.97 259,87.44 264.32,89.1 269.58,90.93 274.78,92.95 279.9,95.14 284.94,97.5 289.91,100.03 294.78,102.73 299.56,105.59 304.23,108.62 308.81,111.8 313.27,115.14 317.61,118.62 321.84,122.25 325.94,126.02 329.9,129.93 333.74,133.98 337.43,138.15 340.98,142.44 344.38,146.85 347.63,151.38 350.72,156.01 353.66,160.74 356.43,165.58 359.03,170.5 361.47,175.51 363.74,180.6 365.83,185.76 367.74,190.99 369.47,196.29 371.03,201.63 372.4,207.03 373.59,212.48 374.59,217.96 375.4,223.47 376.03,229 376.46,234.56 376.71,240.12 376.77,245.69 376.64,251.26 376.32,256.82 375.81,262.37 375.12,267.89 374.23,273.39 373.16,278.86 371.91,284.29 370.47,289.67 368.84,295 367.04,300.27 365.06,305.48 362.9,310.61 360.57,315.67 358.07,320.65 355.41,325.54 352.57,330.34 349.58,335.03 346.43,339.63 343.12,344.11 339.66,348.48 336.06,352.72 332.31,356.85 328.43,360.84 324.41,364.7 320.26,368.42 315.99,371.99 311.6,375.42 307.1,378.7 302.49,381.82 297.77,384.79 292.96,387.59 288.05,390.23 283.06,392.7 277.98,394.99 272.83,397.12 267.61,399.06 262.33,400.83 256.99,402.42 251.6,403.83 246.17,405.05 240.69,406.08 235.19,406.93 229.66,407.59 224.11,408.07 218.54,408.35 212.97,408.45 212.97,402.8 212.97,397.15 212.97,391.5 212.97,385.85 212.97,380.2 212.97,374.56 212.97,368.91 212.97,363.26 212.97,357.61 212.97,351.96 212.97,346.31 212.97,340.67 212.97,335.02 212.97,329.37 212.97,323.72 212.97,318.07 212.97,312.42 212.97,306.78 212.97,301.13 212.97,295.48 212.97,289.83 212.97,284.18 212.97,278.53 212.97,272.89 212.97,267.24 212.97,261.59 212.97,255.94 212.97,250.29 212.97,244.64 212.97,244.64" stroke="none" fill="rgb(231,107,243)" stroke-width="1.07" stroke-dasharray="none" stroke-opacity="0" fill-opacity="1"/>
                </g>
                <g id="geom_polygon.polygon.3438.1" class="polygon grob gDesc">
                  <polygon id="geom_polygon.polygon.3438.1.1" points="212.97,244.64 209.16,248.81 205.35,252.98 201.54,257.15 197.73,261.32 193.92,265.49 190.11,269.66 186.29,273.83 182.48,277.99 178.67,282.16 174.86,286.33 171.05,290.5 167.24,294.67 163.43,298.84 159.62,303.01 155.81,307.18 151.99,311.34 148.18,315.51 144.37,319.68 140.56,323.85 136.75,328.02 132.94,332.19 129.13,336.36 125.32,340.53 121.51,344.7 117.69,348.86 113.88,353.03 110.07,357.2 106.26,361.37 102.45,365.54 98.4,361.71 94.49,357.75 90.71,353.66 87.08,349.44 83.59,345.1 80.25,340.64 77.06,336.08 74.03,331.4 71.17,326.63 68.46,321.76 65.92,316.81 63.55,311.77 61.36,306.65 59.34,301.46 57.5,296.2 55.83,290.89 54.35,285.52 53.05,280.11 51.94,274.65 51.01,269.16 50.28,263.64 49.72,258.1 49.36,252.54 49.19,246.98 49.2,241.41 49.41,235.84 49.8,230.29 50.38,224.75 51.15,219.23 52.11,213.75 53.25,208.3 54.58,202.89 56.09,197.53 57.78,192.23 59.65,186.98 61.7,181.8 63.93,176.7 66.32,171.67 68.89,166.73 71.62,161.87 74.51,157.12 77.57,152.46 80.78,147.91 84.15,143.47 87.66,139.15 91.32,134.96 95.12,130.88 99.05,126.94 103.12,123.14 107.31,119.48 111.63,115.96 116.06,112.59 120.6,109.37 125.26,106.31 130.01,103.4 134.86,100.67 139.8,98.09 144.82,95.69 149.92,93.46 155.1,91.4 160.34,89.53 165.64,87.83 171,86.31 176.41,84.97 181.86,83.82 187.34,82.86 192.85,82.08 198.39,81.49 203.95,81.09 209.51,80.88 215.08,80.85 220.65,81.02 226.2,81.38 231.75,81.92 237.27,82.65 242.76,83.57 248.22,84.68 253.63,85.97 252.23,91.44 250.83,96.91 249.43,102.38 248.02,107.85 246.62,113.32 245.22,118.8 243.82,124.27 242.42,129.74 241.01,135.21 239.61,140.68 238.21,146.15 236.81,151.63 235.41,157.1 234,162.57 232.6,168.04 231.2,173.51 229.8,178.98 228.4,184.46 226.99,189.93 225.59,195.4 224.19,200.87 222.79,206.34 221.39,211.81 219.98,217.29 218.58,222.76 217.18,228.23 215.78,233.7 214.37,239.17 212.97,244.64 212.97,244.64" stroke="none" fill="rgb(0,176,246)" stroke-width="1.07" stroke-dasharray="none" stroke-opacity="0" fill-opacity="1"/>
                </g>
                <g id="geom_polygon.polygon.3440.1" class="polygon grob gDesc">
                  <polygon id="geom_polygon.polygon.3440.1.1" points="212.97,244.64 211.51,250.1 210.04,255.55 208.57,261.01 207.1,266.46 205.64,271.92 204.17,277.37 202.7,282.82 201.23,288.28 199.77,293.73 198.3,299.19 196.83,304.64 195.36,310.1 193.9,315.55 192.43,321.01 190.96,326.46 189.5,331.91 188.03,337.37 186.56,342.82 185.09,348.28 183.63,353.73 182.16,359.19 180.69,364.64 179.22,370.1 177.76,375.55 176.29,381 174.82,386.46 173.35,391.91 171.89,397.37 170.42,402.82 165.05,401.28 159.73,399.55 154.48,397.64 149.29,395.56 144.18,393.3 139.14,390.86 134.2,388.26 129.34,385.49 124.59,382.55 119.93,379.46 115.38,376.2 110.95,372.8 106.64,369.24 102.45,365.54 106.26,361.37 110.07,357.2 113.88,353.03 117.69,348.86 121.51,344.7 125.32,340.53 129.13,336.36 132.94,332.19 136.75,328.02 140.56,323.85 144.37,319.68 148.18,315.51 151.99,311.34 155.81,307.18 159.62,303.01 163.43,298.84 167.24,294.67 171.05,290.5 174.86,286.33 178.67,282.16 182.48,277.99 186.29,273.83 190.11,269.66 193.92,265.49 197.73,261.32 201.54,257.15 205.35,252.98 209.16,248.81 212.97,244.64 212.97,244.64" stroke="none" fill="rgb(0,191,125)" stroke-width="1.07" stroke-dasharray="none" stroke-opacity="0" fill-opacity="1"/>
                </g>
                <g id="geom_polygon.polygon.3442.1" class="polygon grob gDesc">
                  <polygon id="geom_polygon.polygon.3442.1.1" points="212.97,244.64 212.43,250.27 211.89,255.89 211.36,261.51 210.82,267.13 210.28,272.76 209.74,278.38 209.2,284 208.66,289.62 208.12,295.25 207.58,300.87 207.04,306.49 206.51,312.11 205.97,317.74 205.43,323.36 204.89,328.98 204.35,334.6 203.81,340.23 203.27,345.85 202.73,351.47 202.19,357.1 201.65,362.72 201.12,368.34 200.58,373.96 200.04,379.59 199.5,385.21 198.96,390.83 198.42,396.45 197.88,402.08 197.34,407.7 190.54,406.9 183.78,405.82 177.07,404.46 170.42,402.82 171.89,397.37 173.35,391.91 174.82,386.46 176.29,381 177.76,375.55 179.22,370.1 180.69,364.64 182.16,359.19 183.63,353.73 185.09,348.28 186.56,342.82 188.03,337.37 189.5,331.91 190.96,326.46 192.43,321.01 193.9,315.55 195.36,310.1 196.83,304.64 198.3,299.19 199.77,293.73 201.23,288.28 202.7,282.82 204.17,277.37 205.64,271.92 207.1,266.46 208.57,261.01 210.04,255.55 211.51,250.1 212.97,244.64 212.97,244.64" stroke="none" fill="rgb(163,165,0)" stroke-width="1.07" stroke-dasharray="none" stroke-opacity="0" fill-opacity="1"/>
                </g>
                <g id="geom_polygon.polygon.3444.1" class="polygon grob gDesc">
                  <polygon id="geom_polygon.polygon.3444.1.1" points="212.97,244.64 212.97,250.29 212.97,255.94 212.97,261.59 212.97,267.24 212.97,272.89 212.97,278.53 212.97,284.18 212.97,289.83 212.97,295.48 212.97,301.13 212.97,306.78 212.97,312.42 212.97,318.07 212.97,323.72 212.97,329.37 212.97,335.02 212.97,340.67 212.97,346.31 212.97,351.96 212.97,357.61 212.97,363.26 212.97,368.91 212.97,374.56 212.97,380.2 212.97,385.85 212.97,391.5 212.97,397.15 212.97,402.8 212.97,408.45 205.15,408.26 197.34,407.7 197.88,402.08 198.42,396.45 198.96,390.83 199.5,385.21 200.04,379.59 200.58,373.96 201.12,368.34 201.65,362.72 202.19,357.1 202.73,351.47 203.27,345.85 203.81,340.23 204.35,334.6 204.89,328.98 205.43,323.36 205.97,317.74 206.51,312.11 207.04,306.49 207.58,300.87 208.12,295.25 208.66,289.62 209.2,284 209.74,278.38 210.28,272.76 210.82,267.13 211.36,261.51 211.89,255.89 212.43,250.27 212.97,244.64 212.97,244.64" stroke="none" fill="rgb(248,118,109)" stroke-width="1.07" stroke-dasharray="none" stroke-opacity="0" fill-opacity="1"/>
                </g>
              </g>
              <g id="GRID.text.3447.1" class="text grob gDesc">
                <g id="GRID.text.3447.1.1" transform="translate(294.23, 254.89)" stroke-width="0.1">
                  <g id="GRID.text.3447.1.1.scale" transform="scale(1, -1)">
                    <text x="0" y="0" id="GRID.text.3447.1.1.text" text-anchor="middle" stroke="rgb(0,0,0)" font-size="11.04" font-family="Helvetica, Arial, FreeSans, Liberation Sans, Nimbus Sans L, sans-serif" fill="rgb(0,0,0)" stroke-opacity="1" fill-opacity="1" font-weight="normal" font-style="normal">
                      <tspan id="GRID.text.3447.1.1.tspan.1" dy="3.95" x="0">121</tspan>
                    </text>
                  </g>
                </g>
                <g id="GRID.text.3447.1.2" transform="translate(140.93, 205.69)" stroke-width="0.1">
                  <g id="GRID.text.3447.1.2.scale" transform="scale(1, -1)">
                    <text x="0" y="0" id="GRID.text.3447.1.2.text" text-anchor="middle" stroke="rgb(0,0,0)" font-size="11.04" font-family="Helvetica, Arial, FreeSans, Liberation Sans, Nimbus Sans L, sans-serif" fill="rgb(0,0,0)" stroke-opacity="1" fill-opacity="1" font-weight="normal" font-style="normal">
                      <tspan id="GRID.text.3447.1.2.tspan.1" dy="3.95" x="0">111</tspan>
                    </text>
                  </g>
                </g>
                <g id="GRID.text.3447.1.3" transform="translate(173.59, 316.45)" stroke-width="0.1">
                  <g id="GRID.text.3447.1.3.scale" transform="scale(1, -1)">
                    <text x="0" y="0" id="GRID.text.3447.1.3.text" text-anchor="middle" stroke="rgb(0,0,0)" font-size="11.04" font-family="Helvetica, Arial, FreeSans, Liberation Sans, Nimbus Sans L, sans-serif" fill="rgb(0,0,0)" stroke-opacity="1" fill-opacity="1" font-weight="normal" font-style="normal">
                      <tspan id="GRID.text.3447.1.3.tspan.1" dy="3.95" x="0">20</tspan>
                    </text>
                  </g>
                </g>
                <g id="GRID.text.3447.1.4" transform="translate(198.38, 325.23)" stroke-width="0.1">
                  <g id="GRID.text.3447.1.4.scale" transform="scale(1, -1)">
                    <text x="0" y="0" id="GRID.text.3447.1.4.text" text-anchor="middle" stroke="rgb(0,0,0)" font-size="11.04" font-family="Helvetica, Arial, FreeSans, Liberation Sans, Nimbus Sans L, sans-serif" fill="rgb(0,0,0)" stroke-opacity="1" fill-opacity="1" font-weight="normal" font-style="normal">
                      <tspan id="GRID.text.3447.1.4.tspan.1" dy="3.95" x="0">7</tspan>
                    </text>
                  </g>
                </g>
                <g id="GRID.text.3447.1.5" transform="translate(209.06, 326.45)" stroke-width="0.1">
                  <g id="GRID.text.3447.1.5.scale" transform="scale(1, -1)">
                    <text x="0" y="0" id="GRID.text.3447.1.5.text" text-anchor="middle" stroke="rgb(0,0,0)" font-size="11.04" font-family="Helvetica, Arial, FreeSans, Liberation Sans, Nimbus Sans L, sans-serif" fill="rgb(0,0,0)" stroke-opacity="1" fill-opacity="1" font-weight="normal" font-style="normal">
                      <tspan id="GRID.text.3447.1.5.tspan.1" dy="3.95" x="0">4</tspan>
                    </text>
                  </g>
                </g>
              </g>
              <g id="GRID.gTree.3448.1" class="gTree grob gDesc"/>
            </g>
          </g>
          <g id="layout::spacer.8-6-8-6.1" class="viewport"/>
          <g id="layout::spacer.8-4-8-4.1" class="viewport"/>
          <g id="layout::spacer.6-6-6-6.1" class="viewport"/>
          <g id="layout::spacer.6-4-6-4.1" class="viewport"/>
          <g id="layout::axis-t.6-5-6-5.1" class="viewport"/>
          <g id="layout::axis-l.7-4-7-4.1" class="viewport">
            <g id="layout::axis-l.7-4-7-4::GRID.VP.824.1" class="viewport">
              <g id="axis-l.7-4-7-4.1" class="forcedgrob gTableChild absoluteGrob gTree grob gDesc">
                <g id="layout::axis-l.7-4-7-4::GRID.VP.824::axis.1" class="viewport">
                  <g id="axis.1" class="forcedgrob gtable gTree grob gDesc">
                    <g id="layout::axis-l.7-4-7-4::GRID.VP.824::axis::axis.1-1-1-1.1" class="viewport"/>
                    <g id="layout::axis-l.7-4-7-4::GRID.VP.824::axis::axis.1-2-1-2.1" class="viewport"/>
                  </g>
                </g>
              </g>
            </g>
          </g>
          <g id="layout::axis-r.7-6-7-6.1" class="viewport"/>
          <g id="layout::axis-b.8-5-8-5.1" class="viewport">
            <g id="layout::axis-b.8-5-8-5::GRID.VP.823.1" class="viewport">
              <g id="axis-b.8-5-8-5.1" class="forcedgrob gTableChild absoluteGrob gTree grob gDesc">
                <g id="layout::axis-b.8-5-8-5::GRID.VP.823::axis.1" class="viewport">
                  <g id="axis.2" class="forcedgrob gtable gTree grob gDesc">
                    <g id="layout::axis-b.8-5-8-5::GRID.VP.823::axis::axis.1-1-1-1.1" class="viewport"/>
                    <g id="layout::axis-b.8-5-8-5::GRID.VP.823::axis::axis.2-1-2-1.1" class="viewport"/>
                  </g>
                </g>
              </g>
            </g>
          </g>
          <g id="layout::xlab-t.5-5-5-5.1" class="viewport"/>
          <g id="layout::xlab-b.9-5-9-5.1" class="viewport"/>
          <g id="layout::ylab-l.7-3-7-3.1" class="viewport"/>
          <g id="layout::ylab-r.7-7-7-7.1" class="viewport"/>
          <g id="layout::guide-box.7-9-7-9.1" class="viewport">
            <g id="layout::guide-box.7-9-7-9::GRID.VP.841.1" class="viewport">
              <g id="layout::guide-box.7-9-7-9::GRID.VP.841::guide-box.7-9-7-9.1" class="viewport">
                <g id="guide-box.7-9-7-9.1" class="forcedgrob gTableChild gtable gTree grob gDesc">
                  <g id="layout::guide-box.7-9-7-9::GRID.VP.841::guide-box.7-9-7-9::legend.box.background.2-4-4-2.1" class="viewport"/>
                  <g id="layout::guide-box.7-9-7-9::GRID.VP.841::guide-box.7-9-7-9::guides.3-3-3-3.1" class="viewport">
                    <g id="layout::guide-box.7-9-7-9::GRID.VP.841::guide-box.7-9-7-9::guides.3-3-3-3::GRID.VP.840.1" class="viewport">
                      <g id="layout::guide-box.7-9-7-9::GRID.VP.841::guide-box.7-9-7-9::guides.3-3-3-3::GRID.VP.840::guides.3-3-3-3.1" class="viewport">
                        <g id="guides.3-3-3-3.1" class="forcedgrob gTableChild gtable gTree grob gDesc">
                          <g id="layout::guide-box.7-9-7-9::GRID.VP.841::guide-box.7-9-7-9::guides.3-3-3-3::GRID.VP.840::guides.3-3-3-3::background.1-6-9-1.1" class="viewport">
                            <g id="background.1-6-9-1.1" class="forcedgrob gTableChild rect grob gDesc">
                              <rect id="background.1-6-9-1.1.1" x="428.69" y="193.22" width="69.84" height="102.84" transform="" stroke-width="1.07" stroke="none" fill="rgb(255,255,255)" stroke-dasharray="none" stroke-opacity="0" fill-opacity="1"/>
                            </g>
                          </g>
                          <g id="layout::guide-box.7-9-7-9::GRID.VP.841::guide-box.7-9-7-9::guides.3-3-3-3::GRID.VP.840::guides.3-3-3-3::title.2-5-2-2.1" class="viewport"/>
                          <g id="layout::guide-box.7-9-7-9::GRID.VP.841::guide-box.7-9-7-9::guides.3-3-3-3::GRID.VP.840::guides.3-3-3-3::key-3-1-bg.4-2-4-2.1" class="viewport"/>
                          <g id="layout::guide-box.7-9-7-9::GRID.VP.841::guide-box.7-9-7-9::guides.3-3-3-3::GRID.VP.840::guides.3-3-3-3::key-3-1-1.4-2-4-2.1" class="viewport">
                            <g id="key-3-1-1.4-2-4-2.1" class="forcedgrob gTableChild rect grob gDesc">
                              <rect id="key-3-1-1.4-2-4-2.1.1" x="434.87" y="268.53" width="15.86" height="15.86" transform="" stroke="none" fill="rgb(248,118,109)" stroke-dasharray="none" stroke-width="1.07" stroke-linejoin="miter" stroke-opacity="0" fill-opacity="1"/>
                            </g>
                          </g>
                          <g id="layout::guide-box.7-9-7-9::GRID.VP.841::guide-box.7-9-7-9::guides.3-3-3-3::GRID.VP.840::guides.3-3-3-3::key-4-1-bg.5-2-5-2.1" class="viewport"/>
                          <g id="layout::guide-box.7-9-7-9::GRID.VP.841::guide-box.7-9-7-9::guides.3-3-3-3::GRID.VP.840::guides.3-3-3-3::key-4-1-1.5-2-5-2.1" class="viewport">
                            <g id="key-4-1-1.5-2-5-2.1" class="forcedgrob gTableChild rect grob gDesc">
                              <rect id="key-4-1-1.5-2-5-2.1.1" x="434.87" y="251.25" width="15.86" height="15.86" transform="" stroke="none" fill="rgb(163,165,0)" stroke-dasharray="none" stroke-width="1.07" stroke-linejoin="miter" stroke-opacity="0" fill-opacity="1"/>
                            </g>
                          </g>
                          <g id="layout::guide-box.7-9-7-9::GRID.VP.841::guide-box.7-9-7-9::guides.3-3-3-3::GRID.VP.840::guides.3-3-3-3::key-5-1-bg.6-2-6-2.1" class="viewport"/>
                          <g id="layout::guide-box.7-9-7-9::GRID.VP.841::guide-box.7-9-7-9::guides.3-3-3-3::GRID.VP.840::guides.3-3-3-3::key-5-1-1.6-2-6-2.1" class="viewport">
                            <g id="key-5-1-1.6-2-6-2.1" class="forcedgrob gTableChild rect grob gDesc">
                              <rect id="key-5-1-1.6-2-6-2.1.1" x="434.87" y="233.97" width="15.86" height="15.86" transform="" stroke="none" fill="rgb(0,191,125)" stroke-dasharray="none" stroke-width="1.07" stroke-linejoin="miter" stroke-opacity="0" fill-opacity="1"/>
                            </g>
                          </g>
                          <g id="layout::guide-box.7-9-7-9::GRID.VP.841::guide-box.7-9-7-9::guides.3-3-3-3::GRID.VP.840::guides.3-3-3-3::key-6-1-bg.7-2-7-2.1" class="viewport"/>
                          <g id="layout::guide-box.7-9-7-9::GRID.VP.841::guide-box.7-9-7-9::guides.3-3-3-3::GRID.VP.840::guides.3-3-3-3::key-6-1-1.7-2-7-2.1" class="viewport">
                            <g id="key-6-1-1.7-2-7-2.1" class="forcedgrob gTableChild rect grob gDesc">
                              <rect id="key-6-1-1.7-2-7-2.1.1" x="434.87" y="216.69" width="15.86" height="15.86" transform="" stroke="none" fill="rgb(0,176,246)" stroke-dasharray="none" stroke-width="1.07" stroke-linejoin="miter" stroke-opacity="0" fill-opacity="1"/>
                            </g>
                          </g>
                          <g id="layout::guide-box.7-9-7-9::GRID.VP.841::guide-box.7-9-7-9::guides.3-3-3-3::GRID.VP.840::guides.3-3-3-3::key-7-1-bg.8-2-8-2.1" class="viewport"/>
                          <g id="layout::guide-box.7-9-7-9::GRID.VP.841::guide-box.7-9-7-9::guides.3-3-3-3::GRID.VP.840::guides.3-3-3-3::key-7-1-1.8-2-8-2.1" class="viewport">
                            <g id="key-7-1-1.8-2-8-2.1" class="forcedgrob gTableChild rect grob gDesc">
                              <rect id="key-7-1-1.8-2-8-2.1.1" x="434.87" y="199.41" width="15.86" height="15.86" transform="" stroke="none" fill="rgb(231,107,243)" stroke-dasharray="none" stroke-width="1.07" stroke-linejoin="miter" stroke-opacity="0" fill-opacity="1"/>
                            </g>
                          </g>
                          <g id="layout::guide-box.7-9-7-9::GRID.VP.841::guide-box.7-9-7-9::guides.3-3-3-3::GRID.VP.840::guides.3-3-3-3::label-3-3.4-4-4-4.1" class="viewport">
                            <g id="layout::guide-box.7-9-7-9::GRID.VP.841::guide-box.7-9-7-9::guides.3-3-3-3::GRID.VP.840::guides.3-3-3-3::label-3-3.4-4-4-4::GRID.VP.835.1" class="viewport">
                              <g id="label-3-3.4-4-4-4.1" class="forcedgrob gTableChild gTree grob gDesc">
                                <g id="layout::guide-box.7-9-7-9::GRID.VP.841::guide-box.7-9-7-9::guides.3-3-3-3::GRID.VP.840::guides.3-3-3-3::label-3-3.4-4-4-4::GRID.VP.835::GRID.VP.825.1" font-size="8.8" stroke="rgb(0,0,0)" font-family="Helvetica, Arial, FreeSans, Liberation Sans, Nimbus Sans L, sans-serif" stroke-opacity="1" font-weight="normal" font-style="normal" class="viewport">
                                  <g id="layout::guide-box.7-9-7-9::GRID.VP.841::guide-box.7-9-7-9::guides.3-3-3-3::GRID.VP.840::guides.3-3-3-3::label-3-3.4-4-4-4::GRID.VP.835::GRID.VP.825::GRID.VP.826.1" class="viewport">
                                    <g id="guide.label.titleGrob.3471.1" class="titleGrob gTree grob gDesc">
                                      <g id="GRID.text.3469.1" class="text grob gDesc">
                                        <g id="GRID.text.3469.1.1" transform="translate(456.92, 276.46)" stroke-width="0.1">
                                          <g id="GRID.text.3469.1.1.scale" transform="scale(1, -1)">
                                            <text x="0" y="0" id="GRID.text.3469.1.1.text" text-anchor="start" font-size="8.8" stroke="rgb(0,0,0)" font-family="Helvetica, Arial, FreeSans, Liberation Sans, Nimbus Sans L, sans-serif" fill="rgb(0,0,0)" stroke-opacity="1" fill-opacity="1" font-weight="normal" font-style="normal">
                                              <tspan id="GRID.text.3469.1.1.tspan.1" dy="3.23" x="0">tutto</tspan>
                                            </text>
                                          </g>
                                        </g>
                                      </g>
                                    </g>
                                  </g>
                                </g>
                              </g>
                            </g>
                          </g>
                          <g id="layout::guide-box.7-9-7-9::GRID.VP.841::guide-box.7-9-7-9::guides.3-3-3-3::GRID.VP.840::guides.3-3-3-3::label-4-3.5-4-5-4.1" class="viewport">
                            <g id="layout::guide-box.7-9-7-9::GRID.VP.841::guide-box.7-9-7-9::guides.3-3-3-3::GRID.VP.840::guides.3-3-3-3::label-4-3.5-4-5-4::GRID.VP.836.1" class="viewport">
                              <g id="label-4-3.5-4-5-4.1" class="forcedgrob gTableChild gTree grob gDesc">
                                <g id="layout::guide-box.7-9-7-9::GRID.VP.841::guide-box.7-9-7-9::guides.3-3-3-3::GRID.VP.840::guides.3-3-3-3::label-4-3.5-4-5-4::GRID.VP.836::GRID.VP.827.1" font-size="8.8" stroke="rgb(0,0,0)" font-family="Helvetica, Arial, FreeSans, Liberation Sans, Nimbus Sans L, sans-serif" stroke-opacity="1" font-weight="normal" font-style="normal" class="viewport">
                                  <g id="layout::guide-box.7-9-7-9::GRID.VP.841::guide-box.7-9-7-9::guides.3-3-3-3::GRID.VP.840::guides.3-3-3-3::label-4-3.5-4-5-4::GRID.VP.836::GRID.VP.827::GRID.VP.828.1" class="viewport">
                                    <g id="guide.label.titleGrob.3474.1" class="titleGrob gTree grob gDesc">
                                      <g id="GRID.text.3472.1" class="text grob gDesc">
                                        <g id="GRID.text.3472.1.1" transform="translate(456.92, 259.18)" stroke-width="0.1">
                                          <g id="GRID.text.3472.1.1.scale" transform="scale(1, -1)">
                                            <text x="0" y="0" id="GRID.text.3472.1.1.text" text-anchor="start" font-size="8.8" stroke="rgb(0,0,0)" font-family="Helvetica, Arial, FreeSans, Liberation Sans, Nimbus Sans L, sans-serif" fill="rgb(0,0,0)" stroke-opacity="1" fill-opacity="1" font-weight="normal" font-style="normal">
                                              <tspan id="GRID.text.3472.1.1.tspan.1" dy="3.23" x="0">nessuno</tspan>
                                            </text>
                                          </g>
                                        </g>
                                      </g>
                                    </g>
                                  </g>
                                </g>
                              </g>
                            </g>
                          </g>
                          <g id="layout::guide-box.7-9-7-9::GRID.VP.841::guide-box.7-9-7-9::guides.3-3-3-3::GRID.VP.840::guides.3-3-3-3::label-5-3.6-4-6-4.1" class="viewport">
                            <g id="layout::guide-box.7-9-7-9::GRID.VP.841::guide-box.7-9-7-9::guides.3-3-3-3::GRID.VP.840::guides.3-3-3-3::label-5-3.6-4-6-4::GRID.VP.837.1" class="viewport">
                              <g id="label-5-3.6-4-6-4.1" class="forcedgrob gTableChild gTree grob gDesc">
                                <g id="layout::guide-box.7-9-7-9::GRID.VP.841::guide-box.7-9-7-9::guides.3-3-3-3::GRID.VP.840::guides.3-3-3-3::label-5-3.6-4-6-4::GRID.VP.837::GRID.VP.829.1" font-size="8.8" stroke="rgb(0,0,0)" font-family="Helvetica, Arial, FreeSans, Liberation Sans, Nimbus Sans L, sans-serif" stroke-opacity="1" font-weight="normal" font-style="normal" class="viewport">
                                  <g id="layout::guide-box.7-9-7-9::GRID.VP.841::guide-box.7-9-7-9::guides.3-3-3-3::GRID.VP.840::guides.3-3-3-3::label-5-3.6-4-6-4::GRID.VP.837::GRID.VP.829::GRID.VP.830.1" class="viewport">
                                    <g id="guide.label.titleGrob.3477.1" class="titleGrob gTree grob gDesc">
                                      <g id="GRID.text.3475.1" class="text grob gDesc">
                                        <g id="GRID.text.3475.1.1" transform="translate(456.92, 241.9)" stroke-width="0.1">
                                          <g id="GRID.text.3475.1.1.scale" transform="scale(1, -1)">
                                            <text x="0" y="0" id="GRID.text.3475.1.1.text" text-anchor="start" font-size="8.8" stroke="rgb(0,0,0)" font-family="Helvetica, Arial, FreeSans, Liberation Sans, Nimbus Sans L, sans-serif" fill="rgb(0,0,0)" stroke-opacity="1" fill-opacity="1" font-weight="normal" font-style="normal">
                                              <tspan id="GRID.text.3475.1.1.tspan.1" dy="3.23" x="0">avanzato</tspan>
                                            </text>
                                          </g>
                                        </g>
                                      </g>
                                    </g>
                                  </g>
                                </g>
                              </g>
                            </g>
                          </g>
                          <g id="layout::guide-box.7-9-7-9::GRID.VP.841::guide-box.7-9-7-9::guides.3-3-3-3::GRID.VP.840::guides.3-3-3-3::label-6-3.7-4-7-4.1" class="viewport">
                            <g id="layout::guide-box.7-9-7-9::GRID.VP.841::guide-box.7-9-7-9::guides.3-3-3-3::GRID.VP.840::guides.3-3-3-3::label-6-3.7-4-7-4::GRID.VP.838.1" class="viewport">
                              <g id="label-6-3.7-4-7-4.1" class="forcedgrob gTableChild gTree grob gDesc">
                                <g id="layout::guide-box.7-9-7-9::GRID.VP.841::guide-box.7-9-7-9::guides.3-3-3-3::GRID.VP.840::guides.3-3-3-3::label-6-3.7-4-7-4::GRID.VP.838::GRID.VP.831.1" font-size="8.8" stroke="rgb(0,0,0)" font-family="Helvetica, Arial, FreeSans, Liberation Sans, Nimbus Sans L, sans-serif" stroke-opacity="1" font-weight="normal" font-style="normal" class="viewport">
                                  <g id="layout::guide-box.7-9-7-9::GRID.VP.841::guide-box.7-9-7-9::guides.3-3-3-3::GRID.VP.840::guides.3-3-3-3::label-6-3.7-4-7-4::GRID.VP.838::GRID.VP.831::GRID.VP.832.1" class="viewport">
                                    <g id="guide.label.titleGrob.3480.1" class="titleGrob gTree grob gDesc">
                                      <g id="GRID.text.3478.1" class="text grob gDesc">
                                        <g id="GRID.text.3478.1.1" transform="translate(456.92, 224.62)" stroke-width="0.1">
                                          <g id="GRID.text.3478.1.1.scale" transform="scale(1, -1)">
                                            <text x="0" y="0" id="GRID.text.3478.1.1.text" text-anchor="start" font-size="8.8" stroke="rgb(0,0,0)" font-family="Helvetica, Arial, FreeSans, Liberation Sans, Nimbus Sans L, sans-serif" fill="rgb(0,0,0)" stroke-opacity="1" fill-opacity="1" font-weight="normal" font-style="normal">
                                              <tspan id="GRID.text.3478.1.1.tspan.1" dy="3.23" x="0">base</tspan>
                                            </text>
                                          </g>
                                        </g>
                                      </g>
                                    </g>
                                  </g>
                                </g>
                              </g>
                            </g>
                          </g>
                          <g id="layout::guide-box.7-9-7-9::GRID.VP.841::guide-box.7-9-7-9::guides.3-3-3-3::GRID.VP.840::guides.3-3-3-3::label-7-3.8-4-8-4.1" class="viewport">
                            <g id="layout::guide-box.7-9-7-9::GRID.VP.841::guide-box.7-9-7-9::guides.3-3-3-3::GRID.VP.840::guides.3-3-3-3::label-7-3.8-4-8-4::GRID.VP.839.1" class="viewport">
                              <g id="label-7-3.8-4-8-4.1" class="forcedgrob gTableChild gTree grob gDesc">
                                <g id="layout::guide-box.7-9-7-9::GRID.VP.841::guide-box.7-9-7-9::guides.3-3-3-3::GRID.VP.840::guides.3-3-3-3::label-7-3.8-4-8-4::GRID.VP.839::GRID.VP.833.1" font-size="8.8" stroke="rgb(0,0,0)" font-family="Helvetica, Arial, FreeSans, Liberation Sans, Nimbus Sans L, sans-serif" stroke-opacity="1" font-weight="normal" font-style="normal" class="viewport">
                                  <g id="layout::guide-box.7-9-7-9::GRID.VP.841::guide-box.7-9-7-9::guides.3-3-3-3::GRID.VP.840::guides.3-3-3-3::label-7-3.8-4-8-4::GRID.VP.839::GRID.VP.833::GRID.VP.834.1" class="viewport">
                                    <g id="guide.label.titleGrob.3483.1" class="titleGrob gTree grob gDesc">
                                      <g id="GRID.text.3481.1" class="text grob gDesc">
                                        <g id="GRID.text.3481.1.1" transform="translate(456.92, 207.34)" stroke-width="0.1">
                                          <g id="GRID.text.3481.1.1.scale" transform="scale(1, -1)">
                                            <text x="0" y="0" id="GRID.text.3481.1.1.text" text-anchor="start" font-size="8.8" stroke="rgb(0,0,0)" font-family="Helvetica, Arial, FreeSans, Liberation Sans, Nimbus Sans L, sans-serif" fill="rgb(0,0,0)" stroke-opacity="1" fill-opacity="1" font-weight="normal" font-style="normal">
                                              <tspan id="GRID.text.3481.1.1.tspan.1" dy="3.23" x="0">medio</tspan>
                                            </text>
                                          </g>
                                        </g>
                                      </g>
                                    </g>
                                  </g>
                                </g>
                              </g>
                            </g>
                          </g>
                        </g>
                      </g>
                    </g>
                  </g>
                </g>
              </g>
            </g>
          </g>
          <g id="layout::subtitle.4-5-4-5.1" class="viewport"/>
          <g id="layout::title.3-5-3-5.1" class="viewport">
            <g id="layout::title.3-5-3-5::GRID.VP.842.1" font-size="13.2" stroke="rgb(102,102,102)" font-family="Helvetica, Arial, FreeSans, Liberation Sans, Nimbus Sans L, sans-serif" stroke-opacity="1" font-weight="normal" font-style="normal" class="viewport">
              <g id="layout::title.3-5-3-5::GRID.VP.842::GRID.VP.843.1" class="viewport">
                <g id="title.3-5-3-5.1" class="forcedgrob gTableChild titleGrob gTree grob gDesc">
                  <g id="GRID.text.3501.1" class="text grob gDesc">
                    <g id="GRID.text.3501.1.1" transform="translate(212.97, 466.85)" stroke-width="0.1">
                      <g id="GRID.text.3501.1.1.scale" transform="scale(1, -1)">
                        <text x="0" y="0" id="GRID.text.3501.1.1.text" text-anchor="middle" font-size="13.2" stroke="rgb(102,102,102)" font-family="Helvetica, Arial, FreeSans, Liberation Sans, Nimbus Sans L, sans-serif" fill="rgb(102,102,102)" stroke-opacity="1" fill-opacity="1" font-weight="normal" font-style="normal">
                          <tspan id="GRID.text.3501.1.1.tspan.1" dy="9.33" x="0">anagrafica totali-sicurezza</tspan>
                        </text>
                      </g>
                    </g>
                  </g>
                </g>
              </g>
            </g>
          </g>
          <g id="layout::caption.10-5-10-5.1" class="viewport"/>
          <g id="layout::tag.2-2-2-2.1" class="viewport"/>
        </g>
      </g>
    </g>
  </g>
</svg>