<?xml version="1.0" encoding="UTF-8"?>
<svg xmlns="http://www.w3.org/2000/svg" xmlns:xlink="http://www.w3.org/1999/xlink" width="504px" height="504px" viewBox="0 0 504 504" version="1.1">
  <metadata xmlns:gridsvg="http://www.stat.auckland.ac.nz/~paul/R/gridSVG/">
    <gridsvg:generator name="gridSVG" version="1.6-0" time="2019-01-07 19:38:47"/>
    <gridsvg:argument name="name" value="./latest_informaggio_csv/risultati/svg/anagrafica-totali-cdl.svg"/>
    <gridsvg:argument name="exportCoords" value="none"/>
    <gridsvg:argument name="exportMappings" value="none"/>
    <gridsvg:argument name="exportJS" value="none"/>
    <gridsvg:argument name="res" value="72"/>
    <gridsvg:argument name="prefix" value=""/>
    <gridsvg:argument name="addClasses" value="TRUE"/>
    <gridsvg:argument name="indent" value="TRUE"/>
    <gridsvg:argument name="htmlWrapper" value="FALSE"/>
    <gridsvg:argument name="usePaths" value="vpPaths"/>
    <gridsvg:argument name="uniqueNames" value="TRUE"/>
    <gridsvg:separator name="id.sep" value="."/>
    <gridsvg:separator name="gPath.sep" value="::"/>
    <gridsvg:separator name="vpPath.sep" value="::"/>
  </metadata>
  <g transform="translate(0, 504) scale(1, -1)">
    <g id="gridSVG" fill="none" stroke="rgb(0,0,0)" stroke-dasharray="none" stroke-width="0.75" font-size="12" font-family="Helvetica, Arial, FreeSans, Liberation Sans, Nimbus Sans L, sans-serif" opacity="1" stroke-linecap="round" stroke-linejoin="round" stroke-miterlimit="10" stroke-opacity="1" fill-opacity="0" font-weight="normal" font-style="normal">
      <g id="layout.1" class="viewport">
        <g id="layout.2" class="forcedgrob gtable gTree grob gDesc">
          <defs>
            <clipPath id="layout::background.1-11-12-1.1.clipPath">
              <rect x="0" y="19.86" width="504" height="464.28" fill="none" stroke="none"/>
            </clipPath>
          </defs>
          <g id="layout::background.1-11-12-1.1" clip-path="url(#layout::background.1-11-12-1.1.clipPath)" class="viewport">
            <g id="background.1-11-12-1.1" class="forcedgrob gTableChild rect grob gDesc">
              <rect id="background.1-11-12-1.1.1" x="0" y="19.86" width="504" height="464.28" transform="" stroke-width="1.07" stroke="rgb(255,255,255)" fill="rgb(255,255,255)" stroke-dasharray="none" stroke-opacity="1" fill-opacity="1"/>
            </g>
          </g>
          <defs>
            <clipPath id="layout::panel.7-5-7-5.1.clipPath">
              <rect x="8.22" y="28.08" width="433.12" height="433.12" fill="none" stroke="none"/>
            </clipPath>
          </defs>
          <g id="layout::panel.7-5-7-5.1" clip-path="url(#layout::panel.7-5-7-5.1.clipPath)" class="viewport">
            <g id="panel.7-5-7-5.1" class="forcedgrob gTableChild gTree grob gDesc">
              <g id="grill.gTree.1329.1" class="gTree grob gDesc">
                <g id="panel.background..rect.1325.1" class="rect grob gDesc">
                  <rect id="panel.background..rect.1325.1.1" x="8.22" y="28.08" width="433.12" height="433.12" transform="" stroke-width="1.07" stroke="none" fill="rgb(255,255,255)" stroke-dasharray="none" stroke-opacity="0" fill-opacity="1"/>
                </g>
              </g>
              <g id="bar.gTree.1318.1" class="gTree grob gDesc">
                <g id="geom_polygon.polygon.1314.1" class="polygon grob gDesc">
                  <polygon id="geom_polygon.polygon.1314.1.1" points="224.78,244.64 219.03,246.27 213.28,247.9 207.54,249.52 201.79,251.15 196.04,252.78 190.29,254.4 184.54,256.03 178.79,257.66 173.05,259.28 167.3,260.91 161.55,262.54 155.8,264.16 150.05,265.79 144.3,267.42 138.56,269.04 132.81,270.67 127.06,272.3 121.31,273.93 115.56,275.55 109.81,277.18 104.07,278.81 98.32,280.43 92.57,282.06 86.82,283.69 81.07,285.31 75.32,286.94 69.58,288.57 63.83,290.19 58.08,291.82 56.57,286.14 55.26,280.41 54.15,274.63 53.23,268.83 52.51,262.99 51.98,257.14 51.66,251.27 51.53,245.39 51.61,239.51 51.88,233.64 52.35,227.78 53.03,221.94 53.89,216.13 54.96,210.35 56.22,204.61 57.68,198.91 59.32,193.27 61.16,187.68 63.19,182.16 65.4,176.72 67.8,171.35 70.38,166.07 73.13,160.87 76.06,155.78 79.16,150.78 82.43,145.9 85.86,141.12 89.45,136.47 93.2,131.94 97.1,127.54 101.15,123.28 105.33,119.15 109.66,115.17 114.12,111.34 118.71,107.66 123.41,104.14 128.24,100.79 133.18,97.59 138.22,94.57 143.36,91.72 148.59,89.04 153.92,86.55 159.32,84.24 164.8,82.11 170.35,80.17 175.96,78.41 181.63,76.85 187.35,75.49 193.11,74.31 198.9,73.34 204.73,72.56 210.58,71.98 216.45,71.59 222.32,71.41 228.2,71.43 234.08,71.64 239.94,72.06 245.79,72.67 251.61,73.48 257.4,74.49 263.15,75.7 268.86,77.1 274.52,78.69 280.12,80.47 285.66,82.44 291.13,84.6 296.52,86.95 301.83,89.47 307.05,92.17 312.18,95.05 317.2,98.1 322.12,101.32 326.92,104.71 331.61,108.25 336.18,111.96 340.62,115.81 344.92,119.82 349.09,123.96 353.11,128.25 356.98,132.67 360.71,137.22 364.27,141.9 367.68,146.69 370.92,151.59 373.99,156.6 376.89,161.72 379.62,166.92 382.17,172.22 384.53,177.6 386.72,183.06 388.71,188.59 390.52,194.19 392.14,199.84 393.56,205.54 394.79,211.29 395.82,217.08 396.66,222.9 397.3,228.74 397.74,234.6 397.98,240.47 398.02,246.35 397.86,252.23 397.51,258.1 396.95,263.95 396.2,269.78 395.25,275.58 394.1,281.35 392.75,287.07 391.22,292.74 389.49,298.36 387.57,303.92 385.47,309.41 383.18,314.82 380.71,320.16 378.06,325.4 375.23,330.56 372.23,335.61 369.05,340.56 365.72,345.4 362.22,350.12 358.56,354.73 354.75,359.2 350.79,363.55 346.68,367.75 342.43,371.82 338.05,375.74 333.54,379.5 328.9,383.11 324.14,386.57 319.27,389.86 314.29,392.98 309.21,395.93 304.02,398.71 298.75,401.31 293.39,403.73 287.96,405.96 282.45,408.01 276.87,409.88 271.24,411.55 265.55,413.03 259.81,414.31 254.03,415.4 248.22,416.3 242.39,417 236.53,417.49 230.66,417.79 224.78,417.89 224.78,411.92 224.78,405.94 224.78,399.97 224.78,394 224.78,388.02 224.78,382.05 224.78,376.07 224.78,370.1 224.78,364.13 224.78,358.15 224.78,352.18 224.78,346.2 224.78,340.23 224.78,334.25 224.78,328.28 224.78,322.31 224.78,316.33 224.78,310.36 224.78,304.38 224.78,298.41 224.78,292.44 224.78,286.46 224.78,280.49 224.78,274.51 224.78,268.54 224.78,262.57 224.78,256.59 224.78,250.62 224.78,244.64 224.78,244.64" stroke="none" fill="rgb(0,191,196)" stroke-width="1.07" stroke-dasharray="none" stroke-opacity="0" fill-opacity="1"/>
                </g>
                <g id="geom_polygon.polygon.1316.1" class="polygon grob gDesc">
                  <polygon id="geom_polygon.polygon.1316.1.1" points="224.78,244.64 224.78,250.62 224.78,256.59 224.78,262.57 224.78,268.54 224.78,274.51 224.78,280.49 224.78,286.46 224.78,292.44 224.78,298.41 224.78,304.38 224.78,310.36 224.78,316.33 224.78,322.31 224.78,328.28 224.78,334.25 224.78,340.23 224.78,346.2 224.78,352.18 224.78,358.15 224.78,364.13 224.78,370.1 224.78,376.07 224.78,382.05 224.78,388.02 224.78,394 224.78,399.97 224.78,405.94 224.78,411.92 224.78,417.89 218.88,417.79 212.98,417.49 207.1,416.99 201.24,416.29 195.4,415.38 189.6,414.28 183.84,412.99 178.13,411.49 172.47,409.81 166.88,407.93 161.35,405.86 155.89,403.61 150.51,401.17 145.22,398.55 140.02,395.74 134.93,392.77 129.93,389.62 125.05,386.31 120.28,382.83 115.63,379.18 111.11,375.39 106.72,371.44 102.47,367.34 98.36,363.1 94.4,358.73 90.58,354.22 86.93,349.58 83.43,344.82 80.1,339.95 76.94,334.97 73.95,329.88 71.13,324.69 68.49,319.4 66.04,314.04 63.76,308.59 61.68,303.06 59.78,297.47 58.08,291.82 63.83,290.19 69.58,288.57 75.32,286.94 81.07,285.31 86.82,283.69 92.57,282.06 98.32,280.43 104.07,278.81 109.81,277.18 115.56,275.55 121.31,273.93 127.06,272.3 132.81,270.67 138.56,269.04 144.3,267.42 150.05,265.79 155.8,264.16 161.55,262.54 167.3,260.91 173.05,259.28 178.79,257.66 184.54,256.03 190.29,254.4 196.04,252.78 201.79,251.15 207.54,249.52 213.28,247.9 219.03,246.27 224.78,244.64 224.78,244.64" stroke="none" fill="rgb(248,118,109)" stroke-width="1.07" stroke-dasharray="none" stroke-opacity="0" fill-opacity="1"/>
                </g>
              </g>
              <g id="GRID.text.1319.1" class="text grob gDesc">
                <g id="GRID.text.1319.1.1" transform="translate(277.03, 175.55)" stroke-width="0.1">
                  <g id="GRID.text.1319.1.1.scale" transform="scale(1, -1)">
                    <text x="0" y="0" id="GRID.text.1319.1.1.text" text-anchor="middle" stroke="rgb(0,0,0)" font-size="11.04" font-family="Helvetica, Arial, FreeSans, Liberation Sans, Nimbus Sans L, sans-serif" fill="rgb(0,0,0)" stroke-opacity="1" fill-opacity="1" font-weight="normal" font-style="normal">
                      <tspan id="GRID.text.1319.1.1.tspan.1" dy="3.95" x="0">208</tspan>
                    </text>
                  </g>
                </g>
                <g id="GRID.text.1319.1.2" transform="translate(172.53, 313.73)" stroke-width="0.1">
                  <g id="GRID.text.1319.1.2.scale" transform="scale(1, -1)">
                    <text x="0" y="0" id="GRID.text.1319.1.2.text" text-anchor="middle" stroke="rgb(0,0,0)" font-size="11.04" font-family="Helvetica, Arial, FreeSans, Liberation Sans, Nimbus Sans L, sans-serif" fill="rgb(0,0,0)" stroke-opacity="1" fill-opacity="1" font-weight="normal" font-style="normal">
                      <tspan id="GRID.text.1319.1.2.tspan.1" dy="3.95" x="0">54</tspan>
                    </text>
                  </g>
                </g>
              </g>
              <g id="GRID.gTree.1320.1" class="gTree grob gDesc"/>
            </g>
          </g>
          <g id="layout::spacer.8-6-8-6.1" class="viewport"/>
          <g id="layout::spacer.8-4-8-4.1" class="viewport"/>
          <g id="layout::spacer.6-6-6-6.1" class="viewport"/>
          <g id="layout::spacer.6-4-6-4.1" class="viewport"/>
          <g id="layout::axis-t.6-5-6-5.1" class="viewport"/>
          <g id="layout::axis-l.7-4-7-4.1" class="viewport">
            <g id="layout::axis-l.7-4-7-4::GRID.VP.323.1" class="viewport">
              <g id="axis-l.7-4-7-4.1" class="forcedgrob gTableChild absoluteGrob gTree grob gDesc">
                <g id="layout::axis-l.7-4-7-4::GRID.VP.323::axis.1" class="viewport">
                  <g id="axis.1" class="forcedgrob gtable gTree grob gDesc">
                    <g id="layout::axis-l.7-4-7-4::GRID.VP.323::axis::axis.1-1-1-1.1" class="viewport"/>
                    <g id="layout::axis-l.7-4-7-4::GRID.VP.323::axis::axis.1-2-1-2.1" class="viewport"/>
                  </g>
                </g>
              </g>
            </g>
          </g>
          <g id="layout::axis-r.7-6-7-6.1" class="viewport"/>
          <g id="layout::axis-b.8-5-8-5.1" class="viewport">
            <g id="layout::axis-b.8-5-8-5::GRID.VP.322.1" class="viewport">
              <g id="axis-b.8-5-8-5.1" class="forcedgrob gTableChild absoluteGrob gTree grob gDesc">
                <g id="layout::axis-b.8-5-8-5::GRID.VP.322::axis.1" class="viewport">
                  <g id="axis.2" class="forcedgrob gtable gTree grob gDesc">
                    <g id="layout::axis-b.8-5-8-5::GRID.VP.322::axis::axis.1-1-1-1.1" class="viewport"/>
                    <g id="layout::axis-b.8-5-8-5::GRID.VP.322::axis::axis.2-1-2-1.1" class="viewport"/>
                  </g>
                </g>
              </g>
            </g>
          </g>
          <g id="layout::xlab-t.5-5-5-5.1" class="viewport"/>
          <g id="layout::xlab-b.9-5-9-5.1" class="viewport"/>
          <g id="layout::ylab-l.7-3-7-3.1" class="viewport"/>
          <g id="layout::ylab-r.7-7-7-7.1" class="viewport"/>
          <g id="layout::guide-box.7-9-7-9.1" class="viewport">
            <g id="layout::guide-box.7-9-7-9::GRID.VP.331.1" class="viewport">
              <g id="layout::guide-box.7-9-7-9::GRID.VP.331::guide-box.7-9-7-9.1" class="viewport">
                <g id="guide-box.7-9-7-9.1" class="forcedgrob gTableChild gtable gTree grob gDesc">
                  <g id="layout::guide-box.7-9-7-9::GRID.VP.331::guide-box.7-9-7-9::legend.box.background.2-4-4-2.1" class="viewport"/>
                  <g id="layout::guide-box.7-9-7-9::GRID.VP.331::guide-box.7-9-7-9::guides.3-3-3-3.1" class="viewport">
                    <g id="layout::guide-box.7-9-7-9::GRID.VP.331::guide-box.7-9-7-9::guides.3-3-3-3::GRID.VP.330.1" class="viewport">
                      <g id="layout::guide-box.7-9-7-9::GRID.VP.331::guide-box.7-9-7-9::guides.3-3-3-3::GRID.VP.330::guides.3-3-3-3.1" class="viewport">
                        <g id="guides.3-3-3-3.1" class="forcedgrob gTableChild gtable gTree grob gDesc">
                          <g id="layout::guide-box.7-9-7-9::GRID.VP.331::guide-box.7-9-7-9::guides.3-3-3-3::GRID.VP.330::guides.3-3-3-3::background.1-6-6-1.1" class="viewport">
                            <g id="background.1-6-6-1.1" class="forcedgrob gTableChild rect grob gDesc">
                              <rect id="background.1-6-6-1.1.1" x="452.3" y="219.14" width="46.22" height="51" transform="" stroke-width="1.07" stroke="none" fill="rgb(255,255,255)" stroke-dasharray="none" stroke-opacity="0" fill-opacity="1"/>
                            </g>
                          </g>
                          <g id="layout::guide-box.7-9-7-9::GRID.VP.331::guide-box.7-9-7-9::guides.3-3-3-3::GRID.VP.330::guides.3-3-3-3::title.2-5-2-2.1" class="viewport"/>
                          <g id="layout::guide-box.7-9-7-9::GRID.VP.331::guide-box.7-9-7-9::guides.3-3-3-3::GRID.VP.330::guides.3-3-3-3::key-3-1-bg.4-2-4-2.1" class="viewport"/>
                          <g id="layout::guide-box.7-9-7-9::GRID.VP.331::guide-box.7-9-7-9::guides.3-3-3-3::GRID.VP.330::guides.3-3-3-3::key-3-1-1.4-2-4-2.1" class="viewport">
                            <g id="key-3-1-1.4-2-4-2.1" class="forcedgrob gTableChild rect grob gDesc">
                              <rect id="key-3-1-1.4-2-4-2.1.1" x="458.49" y="242.61" width="15.86" height="15.86" transform="" stroke="none" fill="rgb(248,118,109)" stroke-dasharray="none" stroke-width="1.07" stroke-linejoin="miter" stroke-opacity="0" fill-opacity="1"/>
                            </g>
                          </g>
                          <g id="layout::guide-box.7-9-7-9::GRID.VP.331::guide-box.7-9-7-9::guides.3-3-3-3::GRID.VP.330::guides.3-3-3-3::key-4-1-bg.5-2-5-2.1" class="viewport"/>
                          <g id="layout::guide-box.7-9-7-9::GRID.VP.331::guide-box.7-9-7-9::guides.3-3-3-3::GRID.VP.330::guides.3-3-3-3::key-4-1-1.5-2-5-2.1" class="viewport">
                            <g id="key-4-1-1.5-2-5-2.1" class="forcedgrob gTableChild rect grob gDesc">
                              <rect id="key-4-1-1.5-2-5-2.1.1" x="458.49" y="225.33" width="15.86" height="15.86" transform="" stroke="none" fill="rgb(0,191,196)" stroke-dasharray="none" stroke-width="1.07" stroke-linejoin="miter" stroke-opacity="0" fill-opacity="1"/>
                            </g>
                          </g>
                          <g id="layout::guide-box.7-9-7-9::GRID.VP.331::guide-box.7-9-7-9::guides.3-3-3-3::GRID.VP.330::guides.3-3-3-3::label-3-3.4-4-4-4.1" class="viewport">
                            <g id="layout::guide-box.7-9-7-9::GRID.VP.331::guide-box.7-9-7-9::guides.3-3-3-3::GRID.VP.330::guides.3-3-3-3::label-3-3.4-4-4-4::GRID.VP.328.1" class="viewport">
                              <g id="label-3-3.4-4-4-4.1" class="forcedgrob gTableChild gTree grob gDesc">
                                <g id="layout::guide-box.7-9-7-9::GRID.VP.331::guide-box.7-9-7-9::guides.3-3-3-3::GRID.VP.330::guides.3-3-3-3::label-3-3.4-4-4-4::GRID.VP.328::GRID.VP.324.1" font-size="8.8" stroke="rgb(0,0,0)" font-family="Helvetica, Arial, FreeSans, Liberation Sans, Nimbus Sans L, sans-serif" stroke-opacity="1" font-weight="normal" font-style="normal" class="viewport">
                                  <g id="layout::guide-box.7-9-7-9::GRID.VP.331::guide-box.7-9-7-9::guides.3-3-3-3::GRID.VP.330::guides.3-3-3-3::label-3-3.4-4-4-4::GRID.VP.328::GRID.VP.324::GRID.VP.325.1" class="viewport">
                                    <g id="guide.label.titleGrob.1343.1" class="titleGrob gTree grob gDesc">
                                      <g id="GRID.text.1341.1" class="text grob gDesc">
                                        <g id="GRID.text.1341.1.1" transform="translate(480.54, 250.54)" stroke-width="0.1">
                                          <g id="GRID.text.1341.1.1.scale" transform="scale(1, -1)">
                                            <text x="0" y="0" id="GRID.text.1341.1.1.text" text-anchor="start" font-size="8.8" stroke="rgb(0,0,0)" font-family="Helvetica, Arial, FreeSans, Liberation Sans, Nimbus Sans L, sans-serif" fill="rgb(0,0,0)" stroke-opacity="1" fill-opacity="1" font-weight="normal" font-style="normal">
                                              <tspan id="GRID.text.1341.1.1.tspan.1" dy="3.23" x="0">LM</tspan>
                                            </text>
                                          </g>
                                        </g>
                                      </g>
                                    </g>
                                  </g>
                                </g>
                              </g>
                            </g>
                          </g>
                          <g id="layout::guide-box.7-9-7-9::GRID.VP.331::guide-box.7-9-7-9::guides.3-3-3-3::GRID.VP.330::guides.3-3-3-3::label-4-3.5-4-5-4.1" class="viewport">
                            <g id="layout::guide-box.7-9-7-9::GRID.VP.331::guide-box.7-9-7-9::guides.3-3-3-3::GRID.VP.330::guides.3-3-3-3::label-4-3.5-4-5-4::GRID.VP.329.1" class="viewport">
                              <g id="label-4-3.5-4-5-4.1" class="forcedgrob gTableChild gTree grob gDesc">
                                <g id="layout::guide-box.7-9-7-9::GRID.VP.331::guide-box.7-9-7-9::guides.3-3-3-3::GRID.VP.330::guides.3-3-3-3::label-4-3.5-4-5-4::GRID.VP.329::GRID.VP.326.1" font-size="8.8" stroke="rgb(0,0,0)" font-family="Helvetica, Arial, FreeSans, Liberation Sans, Nimbus Sans L, sans-serif" stroke-opacity="1" font-weight="normal" font-style="normal" class="viewport">
                                  <g id="layout::guide-box.7-9-7-9::GRID.VP.331::guide-box.7-9-7-9::guides.3-3-3-3::GRID.VP.330::guides.3-3-3-3::label-4-3.5-4-5-4::GRID.VP.329::GRID.VP.326::GRID.VP.327.1" class="viewport">
                                    <g id="guide.label.titleGrob.1346.1" class="titleGrob gTree grob gDesc">
                                      <g id="GRID.text.1344.1" class="text grob gDesc">
                                        <g id="GRID.text.1344.1.1" transform="translate(480.54, 233.26)" stroke-width="0.1">
                                          <g id="GRID.text.1344.1.1.scale" transform="scale(1, -1)">
                                            <text x="0" y="0" id="GRID.text.1344.1.1.text" text-anchor="start" font-size="8.8" stroke="rgb(0,0,0)" font-family="Helvetica, Arial, FreeSans, Liberation Sans, Nimbus Sans L, sans-serif" fill="rgb(0,0,0)" stroke-opacity="1" fill-opacity="1" font-weight="normal" font-style="normal">
                                              <tspan id="GRID.text.1344.1.1.tspan.1" dy="3.23" x="0">LT</tspan>
                                            </text>
                                          </g>
                                        </g>
                                      </g>
                                    </g>
                                  </g>
                                </g>
                              </g>
                            </g>
                          </g>
                        </g>
                      </g>
                    </g>
                  </g>
                </g>
              </g>
            </g>
          </g>
          <g id="layout::subtitle.4-5-4-5.1" class="viewport"/>
          <g id="layout::title.3-5-3-5.1" class="viewport">
            <g id="layout::title.3-5-3-5::GRID.VP.332.1" font-size="13.2" stroke="rgb(102,102,102)" font-family="Helvetica, Arial, FreeSans, Liberation Sans, Nimbus Sans L, sans-serif" stroke-opacity="1" font-weight="normal" font-style="normal" class="viewport">
              <g id="layout::title.3-5-3-5::GRID.VP.332::GRID.VP.333.1" class="viewport">
                <g id="title.3-5-3-5.1" class="forcedgrob gTableChild titleGrob gTree grob gDesc">
                  <g id="GRID.text.1355.1" class="text grob gDesc">
                    <g id="GRID.text.1355.1.1" transform="translate(224.78, 478.66)" stroke-width="0.1">
                      <g id="GRID.text.1355.1.1.scale" transform="scale(1, -1)">
                        <text x="0" y="0" id="GRID.text.1355.1.1.text" text-anchor="middle" font-size="13.2" stroke="rgb(102,102,102)" font-family="Helvetica, Arial, FreeSans, Liberation Sans, Nimbus Sans L, sans-serif" fill="rgb(102,102,102)" stroke-opacity="1" fill-opacity="1" font-weight="normal" font-style="normal">
                          <tspan id="GRID.text.1355.1.1.tspan.1" dy="9.33" x="0">anagrafica totali-cdl</tspan>
                        </text>
                      </g>
                    </g>
                  </g>
                </g>
              </g>
            </g>
          </g>
          <g id="layout::caption.10-5-10-5.1" class="viewport"/>
          <g id="layout::tag.2-2-2-2.1" class="viewport"/>
        </g>
      </g>
    </g>
  </g>
</svg>