<?xml version="1.0" encoding="UTF-8"?>
<svg xmlns="http://www.w3.org/2000/svg" xmlns:xlink="http://www.w3.org/1999/xlink" width="504px" height="504px" viewBox="0 0 504 504" version="1.1">
  <metadata xmlns:gridsvg="http://www.stat.auckland.ac.nz/~paul/R/gridSVG/">
    <gridsvg:generator name="gridSVG" version="1.6-0" time="2019-01-07 19:39:56"/>
    <gridsvg:argument name="name" value="./latest_informaggio_csv/risultati/svg/risposta-totali-file_rar.svg"/>
    <gridsvg:argument name="exportCoords" value="none"/>
    <gridsvg:argument name="exportMappings" value="none"/>
    <gridsvg:argument name="exportJS" value="none"/>
    <gridsvg:argument name="res" value="72"/>
    <gridsvg:argument name="prefix" value=""/>
    <gridsvg:argument name="addClasses" value="TRUE"/>
    <gridsvg:argument name="indent" value="TRUE"/>
    <gridsvg:argument name="htmlWrapper" value="FALSE"/>
    <gridsvg:argument name="usePaths" value="vpPaths"/>
    <gridsvg:argument name="uniqueNames" value="TRUE"/>
    <gridsvg:separator name="id.sep" value="."/>
    <gridsvg:separator name="gPath.sep" value="::"/>
    <gridsvg:separator name="vpPath.sep" value="::"/>
  </metadata>
  <g transform="translate(0, 504) scale(1, -1)">
    <g id="gridSVG" fill="none" stroke="rgb(0,0,0)" stroke-dasharray="none" stroke-width="0.75" font-size="12" font-family="Helvetica, Arial, FreeSans, Liberation Sans, Nimbus Sans L, sans-serif" opacity="1" stroke-linecap="round" stroke-linejoin="round" stroke-miterlimit="10" stroke-opacity="1" fill-opacity="0" font-weight="normal" font-style="normal">
      <g id="layout.1" class="viewport">
        <g id="layout.2" class="forcedgrob gtable gTree grob gDesc">
          <defs>
            <clipPath id="layout::background.1-11-12-1.1.clipPath">
              <rect x="0" y="52.37" width="504" height="399.26" fill="none" stroke="none"/>
            </clipPath>
          </defs>
          <g id="layout::background.1-11-12-1.1" clip-path="url(#layout::background.1-11-12-1.1.clipPath)" class="viewport">
            <g id="background.1-11-12-1.1" class="forcedgrob gTableChild rect grob gDesc">
              <rect id="background.1-11-12-1.1.1" x="0" y="52.37" width="504" height="399.26" transform="" stroke-width="1.07" stroke="rgb(255,255,255)" fill="rgb(255,255,255)" stroke-dasharray="none" stroke-opacity="1" fill-opacity="1"/>
            </g>
          </g>
          <defs>
            <clipPath id="layout::panel.7-5-7-5.1.clipPath">
              <rect x="8.22" y="60.59" width="368.11" height="368.11" fill="none" stroke="none"/>
            </clipPath>
          </defs>
          <g id="layout::panel.7-5-7-5.1" clip-path="url(#layout::panel.7-5-7-5.1.clipPath)" class="viewport">
            <g id="panel.7-5-7-5.1" class="forcedgrob gTableChild gTree grob gDesc">
              <g id="grill.gTree.4927.1" class="gTree grob gDesc">
                <g id="panel.background..rect.4923.1" class="rect grob gDesc">
                  <rect id="panel.background..rect.4923.1.1" x="8.22" y="60.59" width="368.11" height="368.11" transform="" stroke-width="1.07" stroke="none" fill="rgb(255,255,255)" stroke-dasharray="none" stroke-opacity="0" fill-opacity="1"/>
                </g>
              </g>
              <g id="bar.gTree.4916.1" class="gTree grob gDesc">
                <g id="geom_polygon.polygon.4906.1" class="polygon grob gDesc">
                  <polygon id="geom_polygon.polygon.4906.1.1" points="192.27,244.64 189.1,240.68 185.93,236.71 182.76,232.74 179.6,228.78 176.43,224.81 173.26,220.84 170.09,216.88 166.92,212.91 163.75,208.94 160.58,204.98 157.41,201.01 154.24,197.04 151.07,193.08 147.9,189.11 144.73,185.14 141.56,181.18 138.4,177.21 135.23,173.24 132.06,169.27 128.89,165.31 125.72,161.34 122.55,157.37 119.38,153.41 116.21,149.44 113.04,145.47 109.87,141.51 106.7,137.54 103.53,133.57 100.36,129.61 104.34,126.54 108.41,123.62 112.58,120.83 116.84,118.19 121.19,115.69 125.63,113.35 130.14,111.15 134.72,109.11 139.37,107.23 144.08,105.51 148.85,103.95 153.67,102.55 158.53,101.32 163.43,100.25 168.37,99.35 173.33,98.62 178.31,98.06 183.32,97.67 188.33,97.45 193.34,97.4 198.36,97.53 203.37,97.82 208.36,98.28 213.34,98.91 218.29,99.72 223.21,100.69 228.09,101.82 232.94,103.13 237.74,104.59 242.48,106.22 247.16,108.01 251.79,109.96 256.34,112.07 260.82,114.33 265.22,116.74 269.53,119.3 273.76,122 277.89,124.85 281.92,127.83 285.84,130.96 289.66,134.21 293.37,137.59 296.96,141.1 300.42,144.72 303.76,148.46 306.97,152.32 310.05,156.28 312.99,160.34 315.79,164.5 318.45,168.76 320.96,173.1 323.33,177.52 325.54,182.03 327.59,186.6 329.49,191.24 331.23,195.95 332.81,200.71 334.22,205.52 335.47,210.38 336.56,215.28 337.47,220.21 338.22,225.17 338.8,230.15 339.21,235.15 339.45,240.16 339.51,245.18 339.41,250.19 339.14,255.2 338.69,260.2 338.08,265.18 337.29,270.13 336.34,275.06 335.22,279.95 333.94,284.79 332.49,289.6 330.87,294.35 329.1,299.04 327.17,303.67 325.08,308.23 322.84,312.71 320.44,317.12 317.9,321.45 315.21,325.68 312.38,329.82 309.41,333.86 306.3,337.8 303.06,341.63 299.69,345.35 296.2,348.95 292.59,352.43 288.86,355.78 285.02,359.01 281.07,362.1 277.01,365.06 272.86,367.87 268.62,370.55 264.29,373.07 259.87,375.45 255.37,377.68 250.81,379.75 246.17,381.67 241.47,383.42 236.72,385.02 231.91,386.45 227.06,387.72 222.16,388.82 217.23,389.75 212.28,390.52 207.3,391.12 202.3,391.54 197.29,391.8 192.27,391.89 192.27,386.81 192.27,381.73 192.27,376.65 192.27,371.58 192.27,366.5 192.27,361.42 192.27,356.34 192.27,351.27 192.27,346.19 192.27,341.11 192.27,336.04 192.27,330.96 192.27,325.88 192.27,320.8 192.27,315.73 192.27,310.65 192.27,305.57 192.27,300.49 192.27,295.42 192.27,290.34 192.27,285.26 192.27,280.18 192.27,275.11 192.27,270.03 192.27,264.95 192.27,259.88 192.27,254.8 192.27,249.72 192.27,244.64 192.27,244.64" stroke="none" fill="rgb(231,107,243)" stroke-width="1.07" stroke-dasharray="none" stroke-opacity="0" fill-opacity="1"/>
                </g>
                <g id="geom_polygon.polygon.4908.1" class="polygon grob gDesc">
                  <polygon id="geom_polygon.polygon.4908.1.1" points="192.27,244.64 190.87,249.52 189.47,254.4 188.07,259.28 186.66,264.16 185.26,269.04 183.86,273.92 182.46,278.8 181.05,283.68 179.65,288.56 178.25,293.44 176.85,298.32 175.45,303.2 174.04,308.08 172.64,312.96 171.24,317.84 169.84,322.72 168.43,327.6 167.03,332.48 165.63,337.36 164.23,342.24 162.83,347.12 161.42,352 160.02,356.88 158.62,361.76 157.22,366.64 155.81,371.52 154.41,376.4 153.01,381.28 151.61,386.16 146.79,384.69 142.03,383.05 137.33,381.25 132.7,379.3 128.13,377.18 123.64,374.91 119.23,372.49 114.9,369.92 110.66,367.2 106.52,364.34 102.48,361.34 98.55,358.2 94.72,354.93 91.01,351.54 87.41,348.01 83.94,344.37 80.6,340.61 77.38,336.73 74.3,332.75 71.36,328.67 68.56,324.49 65.9,320.22 63.39,315.85 61.04,311.41 58.83,306.88 56.78,302.29 54.89,297.62 53.16,292.9 51.59,288.11 50.19,283.28 48.95,278.4 47.88,273.48 46.98,268.53 46.25,263.55 45.69,258.55 45.3,253.53 45.08,248.51 45.03,243.47 45.16,238.44 45.46,233.42 45.93,228.41 46.57,223.41 47.38,218.45 48.36,213.51 49.51,208.61 50.82,203.75 52.3,198.94 53.95,194.19 55.75,189.49 57.72,184.85 59.84,180.29 62.11,175.8 64.54,171.39 67.12,167.07 69.84,162.84 72.71,158.7 75.72,154.67 78.86,150.74 82.14,146.92 85.54,143.21 89.07,139.62 92.72,136.15 96.49,132.82 100.36,129.61 103.53,133.57 106.7,137.54 109.87,141.51 113.04,145.47 116.21,149.44 119.38,153.41 122.55,157.37 125.72,161.34 128.89,165.31 132.06,169.27 135.23,173.24 138.4,177.21 141.56,181.18 144.73,185.14 147.9,189.11 151.07,193.08 154.24,197.04 157.41,201.01 160.58,204.98 163.75,208.94 166.92,212.91 170.09,216.88 173.26,220.84 176.43,224.81 179.6,228.78 182.76,232.74 185.93,236.71 189.1,240.68 192.27,244.64 192.27,244.64" stroke="none" fill="rgb(0,176,246)" stroke-width="1.07" stroke-dasharray="none" stroke-opacity="0" fill-opacity="1"/>
                </g>
                <g id="geom_polygon.polygon.4910.1" class="polygon grob gDesc">
                  <polygon id="geom_polygon.polygon.4910.1.1" points="192.27,244.64 191.5,249.66 190.73,254.68 189.96,259.7 189.18,264.72 188.41,269.73 187.64,274.75 186.87,279.77 186.1,284.79 185.33,289.81 184.55,294.83 183.78,299.84 183.01,304.86 182.24,309.88 181.47,314.9 180.69,319.92 179.92,324.94 179.15,329.95 178.38,334.97 177.61,339.99 176.83,345.01 176.06,350.03 175.29,355.05 174.52,360.06 173.75,365.08 172.97,370.1 172.2,375.12 171.43,380.14 170.66,385.16 169.89,390.17 163.74,389.09 157.64,387.76 151.61,386.16 153.01,381.28 154.41,376.4 155.81,371.52 157.22,366.64 158.62,361.76 160.02,356.88 161.42,352 162.83,347.12 164.23,342.24 165.63,337.36 167.03,332.48 168.43,327.6 169.84,322.72 171.24,317.84 172.64,312.96 174.04,308.08 175.45,303.2 176.85,298.32 178.25,293.44 179.65,288.56 181.05,283.68 182.46,278.8 183.86,273.92 185.26,269.04 186.66,264.16 188.07,259.28 189.47,254.4 190.87,249.52 192.27,244.64 192.27,244.64" stroke="none" fill="rgb(0,191,125)" stroke-width="1.07" stroke-dasharray="none" stroke-opacity="0" fill-opacity="1"/>
                </g>
                <g id="geom_polygon.polygon.4912.1" class="polygon grob gDesc">
                  <polygon id="geom_polygon.polygon.4912.1.1" points="192.27,244.64 192.14,249.72 192.01,254.79 191.89,259.87 191.76,264.95 191.63,270.02 191.5,275.1 191.37,280.17 191.24,285.25 191.11,290.32 190.98,295.4 190.85,300.48 190.72,305.55 190.59,310.63 190.46,315.7 190.34,320.78 190.21,325.85 190.08,330.93 189.95,336.01 189.82,341.08 189.69,346.16 189.56,351.23 189.43,356.31 189.3,361.38 189.17,366.46 189.04,371.54 188.92,376.61 188.79,381.69 188.66,386.76 188.53,391.84 182.29,391.55 176.07,390.99 169.89,390.17 170.66,385.16 171.43,380.14 172.2,375.12 172.97,370.1 173.75,365.08 174.52,360.06 175.29,355.05 176.06,350.03 176.83,345.01 177.61,339.99 178.38,334.97 179.15,329.95 179.92,324.94 180.69,319.92 181.47,314.9 182.24,309.88 183.01,304.86 183.78,299.84 184.55,294.83 185.33,289.81 186.1,284.79 186.87,279.77 187.64,274.75 188.41,269.73 189.18,264.72 189.96,259.7 190.73,254.68 191.5,249.66 192.27,244.64 192.27,244.64" stroke="none" fill="rgb(163,165,0)" stroke-width="1.07" stroke-dasharray="none" stroke-opacity="0" fill-opacity="1"/>
                </g>
                <g id="geom_polygon.polygon.4914.1" class="polygon grob gDesc">
                  <polygon id="geom_polygon.polygon.4914.1.1" points="192.27,244.64 192.27,249.72 192.27,254.8 192.27,259.88 192.27,264.95 192.27,270.03 192.27,275.11 192.27,280.18 192.27,285.26 192.27,290.34 192.27,295.42 192.27,300.49 192.27,305.57 192.27,310.65 192.27,315.73 192.27,320.8 192.27,325.88 192.27,330.96 192.27,336.04 192.27,341.11 192.27,346.19 192.27,351.27 192.27,356.34 192.27,361.42 192.27,366.5 192.27,371.58 192.27,376.65 192.27,381.73 192.27,386.81 192.27,391.89 188.53,391.84 188.66,386.76 188.79,381.69 188.92,376.61 189.04,371.54 189.17,366.46 189.3,361.38 189.43,356.31 189.56,351.23 189.69,346.16 189.82,341.08 189.95,336.01 190.08,330.93 190.21,325.85 190.34,320.78 190.46,315.7 190.59,310.63 190.72,305.55 190.85,300.48 190.98,295.4 191.11,290.32 191.24,285.25 191.37,280.17 191.5,275.1 191.63,270.02 191.76,264.95 191.89,259.87 192.01,254.79 192.14,249.72 192.27,244.64 192.27,244.64" stroke="none" fill="rgb(248,118,109)" stroke-width="1.07" stroke-dasharray="none" stroke-opacity="0" fill-opacity="1"/>
                </g>
              </g>
              <g id="GRID.text.4917.1" class="text grob gDesc">
                <g id="GRID.text.4917.1.1" transform="translate(261.75, 220.3)" stroke-width="0.1">
                  <g id="GRID.text.4917.1.1.scale" transform="scale(1, -1)">
                    <text x="0" y="0" id="GRID.text.4917.1.1.text" text-anchor="middle" stroke="rgb(0,0,0)" font-size="11.04" font-family="Helvetica, Arial, FreeSans, Liberation Sans, Nimbus Sans L, sans-serif" fill="rgb(0,0,0)" stroke-opacity="1" fill-opacity="1" font-weight="normal" font-style="normal">
                      <tspan id="GRID.text.4917.1.1.tspan.1" dy="3.95" x="0">150</tspan>
                    </text>
                  </g>
                </g>
                <g id="GRID.text.4917.1.2" transform="translate(120.08, 259.06)" stroke-width="0.1">
                  <g id="GRID.text.4917.1.2.scale" transform="scale(1, -1)">
                    <text x="0" y="0" id="GRID.text.4917.1.2.text" text-anchor="middle" stroke="rgb(0,0,0)" font-size="11.04" font-family="Helvetica, Arial, FreeSans, Liberation Sans, Nimbus Sans L, sans-serif" fill="rgb(0,0,0)" stroke-opacity="1" fill-opacity="1" font-weight="normal" font-style="normal">
                      <tspan id="GRID.text.4917.1.2.tspan.1" dy="3.95" x="0">86</tspan>
                    </text>
                  </g>
                </g>
                <g id="GRID.text.4917.1.3" transform="translate(176.48, 316.55)" stroke-width="0.1">
                  <g id="GRID.text.4917.1.3.scale" transform="scale(1, -1)">
                    <text x="0" y="0" id="GRID.text.4917.1.3.text" text-anchor="middle" stroke="rgb(0,0,0)" font-size="11.04" font-family="Helvetica, Arial, FreeSans, Liberation Sans, Nimbus Sans L, sans-serif" fill="rgb(0,0,0)" stroke-opacity="1" fill-opacity="1" font-weight="normal" font-style="normal">
                      <tspan id="GRID.text.4917.1.3.tspan.1" dy="3.95" x="0">5</tspan>
                    </text>
                  </g>
                </g>
                <g id="GRID.text.4917.1.4" transform="translate(185.73, 317.97)" stroke-width="0.1">
                  <g id="GRID.text.4917.1.4.scale" transform="scale(1, -1)">
                    <text x="0" y="0" id="GRID.text.4917.1.4.text" text-anchor="middle" stroke="rgb(0,0,0)" font-size="11.04" font-family="Helvetica, Arial, FreeSans, Liberation Sans, Nimbus Sans L, sans-serif" fill="rgb(0,0,0)" stroke-opacity="1" fill-opacity="1" font-weight="normal" font-style="normal">
                      <tspan id="GRID.text.4917.1.4.tspan.1" dy="3.95" x="0">5</tspan>
                    </text>
                  </g>
                </g>
                <g id="GRID.text.4917.1.5" transform="translate(191.34, 318.26)" stroke-width="0.1">
                  <g id="GRID.text.4917.1.5.scale" transform="scale(1, -1)">
                    <text x="0" y="0" id="GRID.text.4917.1.5.text" text-anchor="middle" stroke="rgb(0,0,0)" font-size="11.04" font-family="Helvetica, Arial, FreeSans, Liberation Sans, Nimbus Sans L, sans-serif" fill="rgb(0,0,0)" stroke-opacity="1" fill-opacity="1" font-weight="normal" font-style="normal">
                      <tspan id="GRID.text.4917.1.5.tspan.1" dy="3.95" x="0">1</tspan>
                    </text>
                  </g>
                </g>
              </g>
              <g id="GRID.gTree.4918.1" class="gTree grob gDesc"/>
            </g>
          </g>
          <g id="layout::spacer.8-6-8-6.1" class="viewport"/>
          <g id="layout::spacer.8-4-8-4.1" class="viewport"/>
          <g id="layout::spacer.6-6-6-6.1" class="viewport"/>
          <g id="layout::spacer.6-4-6-4.1" class="viewport"/>
          <g id="layout::axis-t.6-5-6-5.1" class="viewport"/>
          <g id="layout::axis-l.7-4-7-4.1" class="viewport">
            <g id="layout::axis-l.7-4-7-4::GRID.VP.1202.1" class="viewport">
              <g id="axis-l.7-4-7-4.1" class="forcedgrob gTableChild absoluteGrob gTree grob gDesc">
                <g id="layout::axis-l.7-4-7-4::GRID.VP.1202::axis.1" class="viewport">
                  <g id="axis.1" class="forcedgrob gtable gTree grob gDesc">
                    <g id="layout::axis-l.7-4-7-4::GRID.VP.1202::axis::axis.1-1-1-1.1" class="viewport"/>
                    <g id="layout::axis-l.7-4-7-4::GRID.VP.1202::axis::axis.1-2-1-2.1" class="viewport"/>
                  </g>
                </g>
              </g>
            </g>
          </g>
          <g id="layout::axis-r.7-6-7-6.1" class="viewport"/>
          <g id="layout::axis-b.8-5-8-5.1" class="viewport">
            <g id="layout::axis-b.8-5-8-5::GRID.VP.1201.1" class="viewport">
              <g id="axis-b.8-5-8-5.1" class="forcedgrob gTableChild absoluteGrob gTree grob gDesc">
                <g id="layout::axis-b.8-5-8-5::GRID.VP.1201::axis.1" class="viewport">
                  <g id="axis.2" class="forcedgrob gtable gTree grob gDesc">
                    <g id="layout::axis-b.8-5-8-5::GRID.VP.1201::axis::axis.1-1-1-1.1" class="viewport"/>
                    <g id="layout::axis-b.8-5-8-5::GRID.VP.1201::axis::axis.2-1-2-1.1" class="viewport"/>
                  </g>
                </g>
              </g>
            </g>
          </g>
          <g id="layout::xlab-t.5-5-5-5.1" class="viewport"/>
          <g id="layout::xlab-b.9-5-9-5.1" class="viewport"/>
          <g id="layout::ylab-l.7-3-7-3.1" class="viewport"/>
          <g id="layout::ylab-r.7-7-7-7.1" class="viewport"/>
          <g id="layout::guide-box.7-9-7-9.1" class="viewport">
            <g id="layout::guide-box.7-9-7-9::GRID.VP.1219.1" class="viewport">
              <g id="layout::guide-box.7-9-7-9::GRID.VP.1219::guide-box.7-9-7-9.1" class="viewport">
                <g id="guide-box.7-9-7-9.1" class="forcedgrob gTableChild gtable gTree grob gDesc">
                  <g id="layout::guide-box.7-9-7-9::GRID.VP.1219::guide-box.7-9-7-9::legend.box.background.2-4-4-2.1" class="viewport"/>
                  <g id="layout::guide-box.7-9-7-9::GRID.VP.1219::guide-box.7-9-7-9::guides.3-3-3-3.1" class="viewport">
                    <g id="layout::guide-box.7-9-7-9::GRID.VP.1219::guide-box.7-9-7-9::guides.3-3-3-3::GRID.VP.1218.1" class="viewport">
                      <g id="layout::guide-box.7-9-7-9::GRID.VP.1219::guide-box.7-9-7-9::guides.3-3-3-3::GRID.VP.1218::guides.3-3-3-3.1" class="viewport">
                        <g id="guides.3-3-3-3.1" class="forcedgrob gTableChild gtable gTree grob gDesc">
                          <g id="layout::guide-box.7-9-7-9::GRID.VP.1219::guide-box.7-9-7-9::guides.3-3-3-3::GRID.VP.1218::guides.3-3-3-3::background.1-6-9-1.1" class="viewport">
                            <g id="background.1-6-9-1.1" class="forcedgrob gTableChild rect grob gDesc">
                              <rect id="background.1-6-9-1.1.1" x="387.29" y="193.22" width="111.24" height="102.84" transform="" stroke-width="1.07" stroke="none" fill="rgb(255,255,255)" stroke-dasharray="none" stroke-opacity="0" fill-opacity="1"/>
                            </g>
                          </g>
                          <g id="layout::guide-box.7-9-7-9::GRID.VP.1219::guide-box.7-9-7-9::guides.3-3-3-3::GRID.VP.1218::guides.3-3-3-3::title.2-5-2-2.1" class="viewport"/>
                          <g id="layout::guide-box.7-9-7-9::GRID.VP.1219::guide-box.7-9-7-9::guides.3-3-3-3::GRID.VP.1218::guides.3-3-3-3::key-3-1-bg.4-2-4-2.1" class="viewport"/>
                          <g id="layout::guide-box.7-9-7-9::GRID.VP.1219::guide-box.7-9-7-9::guides.3-3-3-3::GRID.VP.1218::guides.3-3-3-3::key-3-1-1.4-2-4-2.1" class="viewport">
                            <g id="key-3-1-1.4-2-4-2.1" class="forcedgrob gTableChild rect grob gDesc">
                              <rect id="key-3-1-1.4-2-4-2.1.1" x="393.47" y="268.53" width="15.86" height="15.86" transform="" stroke="none" fill="rgb(248,118,109)" stroke-dasharray="none" stroke-width="1.07" stroke-linejoin="miter" stroke-opacity="0" fill-opacity="1"/>
                            </g>
                          </g>
                          <g id="layout::guide-box.7-9-7-9::GRID.VP.1219::guide-box.7-9-7-9::guides.3-3-3-3::GRID.VP.1218::guides.3-3-3-3::key-4-1-bg.5-2-5-2.1" class="viewport"/>
                          <g id="layout::guide-box.7-9-7-9::GRID.VP.1219::guide-box.7-9-7-9::guides.3-3-3-3::GRID.VP.1218::guides.3-3-3-3::key-4-1-1.5-2-5-2.1" class="viewport">
                            <g id="key-4-1-1.5-2-5-2.1" class="forcedgrob gTableChild rect grob gDesc">
                              <rect id="key-4-1-1.5-2-5-2.1.1" x="393.47" y="251.25" width="15.86" height="15.86" transform="" stroke="none" fill="rgb(163,165,0)" stroke-dasharray="none" stroke-width="1.07" stroke-linejoin="miter" stroke-opacity="0" fill-opacity="1"/>
                            </g>
                          </g>
                          <g id="layout::guide-box.7-9-7-9::GRID.VP.1219::guide-box.7-9-7-9::guides.3-3-3-3::GRID.VP.1218::guides.3-3-3-3::key-5-1-bg.6-2-6-2.1" class="viewport"/>
                          <g id="layout::guide-box.7-9-7-9::GRID.VP.1219::guide-box.7-9-7-9::guides.3-3-3-3::GRID.VP.1218::guides.3-3-3-3::key-5-1-1.6-2-6-2.1" class="viewport">
                            <g id="key-5-1-1.6-2-6-2.1" class="forcedgrob gTableChild rect grob gDesc">
                              <rect id="key-5-1-1.6-2-6-2.1.1" x="393.47" y="233.97" width="15.86" height="15.86" transform="" stroke="none" fill="rgb(0,191,125)" stroke-dasharray="none" stroke-width="1.07" stroke-linejoin="miter" stroke-opacity="0" fill-opacity="1"/>
                            </g>
                          </g>
                          <g id="layout::guide-box.7-9-7-9::GRID.VP.1219::guide-box.7-9-7-9::guides.3-3-3-3::GRID.VP.1218::guides.3-3-3-3::key-6-1-bg.7-2-7-2.1" class="viewport"/>
                          <g id="layout::guide-box.7-9-7-9::GRID.VP.1219::guide-box.7-9-7-9::guides.3-3-3-3::GRID.VP.1218::guides.3-3-3-3::key-6-1-1.7-2-7-2.1" class="viewport">
                            <g id="key-6-1-1.7-2-7-2.1" class="forcedgrob gTableChild rect grob gDesc">
                              <rect id="key-6-1-1.7-2-7-2.1.1" x="393.47" y="216.69" width="15.86" height="15.86" transform="" stroke="none" fill="rgb(0,176,246)" stroke-dasharray="none" stroke-width="1.07" stroke-linejoin="miter" stroke-opacity="0" fill-opacity="1"/>
                            </g>
                          </g>
                          <g id="layout::guide-box.7-9-7-9::GRID.VP.1219::guide-box.7-9-7-9::guides.3-3-3-3::GRID.VP.1218::guides.3-3-3-3::key-7-1-bg.8-2-8-2.1" class="viewport"/>
                          <g id="layout::guide-box.7-9-7-9::GRID.VP.1219::guide-box.7-9-7-9::guides.3-3-3-3::GRID.VP.1218::guides.3-3-3-3::key-7-1-1.8-2-8-2.1" class="viewport">
                            <g id="key-7-1-1.8-2-8-2.1" class="forcedgrob gTableChild rect grob gDesc">
                              <rect id="key-7-1-1.8-2-8-2.1.1" x="393.47" y="199.41" width="15.86" height="15.86" transform="" stroke="none" fill="rgb(231,107,243)" stroke-dasharray="none" stroke-width="1.07" stroke-linejoin="miter" stroke-opacity="0" fill-opacity="1"/>
                            </g>
                          </g>
                          <g id="layout::guide-box.7-9-7-9::GRID.VP.1219::guide-box.7-9-7-9::guides.3-3-3-3::GRID.VP.1218::guides.3-3-3-3::label-3-3.4-4-4-4.1" class="viewport">
                            <g id="layout::guide-box.7-9-7-9::GRID.VP.1219::guide-box.7-9-7-9::guides.3-3-3-3::GRID.VP.1218::guides.3-3-3-3::label-3-3.4-4-4-4::GRID.VP.1213.1" class="viewport">
                              <g id="label-3-3.4-4-4-4.1" class="forcedgrob gTableChild gTree grob gDesc">
                                <g id="layout::guide-box.7-9-7-9::GRID.VP.1219::guide-box.7-9-7-9::guides.3-3-3-3::GRID.VP.1218::guides.3-3-3-3::label-3-3.4-4-4-4::GRID.VP.1213::GRID.VP.1203.1" font-size="8.8" stroke="rgb(0,0,0)" font-family="Helvetica, Arial, FreeSans, Liberation Sans, Nimbus Sans L, sans-serif" stroke-opacity="1" font-weight="normal" font-style="normal" class="viewport">
                                  <g id="layout::guide-box.7-9-7-9::GRID.VP.1219::guide-box.7-9-7-9::guides.3-3-3-3::GRID.VP.1218::guides.3-3-3-3::label-3-3.4-4-4-4::GRID.VP.1213::GRID.VP.1203::GRID.VP.1204.1" class="viewport">
                                    <g id="guide.label.titleGrob.4941.1" class="titleGrob gTree grob gDesc">
                                      <g id="GRID.text.4939.1" class="text grob gDesc">
                                        <g id="GRID.text.4939.1.1" transform="translate(415.52, 276.46)" stroke-width="0.1">
                                          <g id="GRID.text.4939.1.1.scale" transform="scale(1, -1)">
                                            <text x="0" y="0" id="GRID.text.4939.1.1.text" text-anchor="start" font-size="8.8" stroke="rgb(0,0,0)" font-family="Helvetica, Arial, FreeSans, Liberation Sans, Nimbus Sans L, sans-serif" fill="rgb(0,0,0)" stroke-opacity="1" fill-opacity="1" font-weight="normal" font-style="normal">
                                              <tspan id="GRID.text.4939.1.1.tspan.1" dy="3.23" x="0">word</tspan>
                                            </text>
                                          </g>
                                        </g>
                                      </g>
                                    </g>
                                  </g>
                                </g>
                              </g>
                            </g>
                          </g>
                          <g id="layout::guide-box.7-9-7-9::GRID.VP.1219::guide-box.7-9-7-9::guides.3-3-3-3::GRID.VP.1218::guides.3-3-3-3::label-4-3.5-4-5-4.1" class="viewport">
                            <g id="layout::guide-box.7-9-7-9::GRID.VP.1219::guide-box.7-9-7-9::guides.3-3-3-3::GRID.VP.1218::guides.3-3-3-3::label-4-3.5-4-5-4::GRID.VP.1214.1" class="viewport">
                              <g id="label-4-3.5-4-5-4.1" class="forcedgrob gTableChild gTree grob gDesc">
                                <g id="layout::guide-box.7-9-7-9::GRID.VP.1219::guide-box.7-9-7-9::guides.3-3-3-3::GRID.VP.1218::guides.3-3-3-3::label-4-3.5-4-5-4::GRID.VP.1214::GRID.VP.1205.1" font-size="8.8" stroke="rgb(0,0,0)" font-family="Helvetica, Arial, FreeSans, Liberation Sans, Nimbus Sans L, sans-serif" stroke-opacity="1" font-weight="normal" font-style="normal" class="viewport">
                                  <g id="layout::guide-box.7-9-7-9::GRID.VP.1219::guide-box.7-9-7-9::guides.3-3-3-3::GRID.VP.1218::guides.3-3-3-3::label-4-3.5-4-5-4::GRID.VP.1214::GRID.VP.1205::GRID.VP.1206.1" class="viewport">
                                    <g id="guide.label.titleGrob.4944.1" class="titleGrob gTree grob gDesc">
                                      <g id="GRID.text.4942.1" class="text grob gDesc">
                                        <g id="GRID.text.4942.1.1" transform="translate(415.52, 259.18)" stroke-width="0.1">
                                          <g id="GRID.text.4942.1.1.scale" transform="scale(1, -1)">
                                            <text x="0" y="0" id="GRID.text.4942.1.1.text" text-anchor="start" font-size="8.8" stroke="rgb(0,0,0)" font-family="Helvetica, Arial, FreeSans, Liberation Sans, Nimbus Sans L, sans-serif" fill="rgb(0,0,0)" stroke-opacity="1" fill-opacity="1" font-weight="normal" font-style="normal">
                                              <tspan id="GRID.text.4942.1.1.tspan.1" dy="3.23" x="0">immagine</tspan>
                                            </text>
                                          </g>
                                        </g>
                                      </g>
                                    </g>
                                  </g>
                                </g>
                              </g>
                            </g>
                          </g>
                          <g id="layout::guide-box.7-9-7-9::GRID.VP.1219::guide-box.7-9-7-9::guides.3-3-3-3::GRID.VP.1218::guides.3-3-3-3::label-5-3.6-4-6-4.1" class="viewport">
                            <g id="layout::guide-box.7-9-7-9::GRID.VP.1219::guide-box.7-9-7-9::guides.3-3-3-3::GRID.VP.1218::guides.3-3-3-3::label-5-3.6-4-6-4::GRID.VP.1215.1" class="viewport">
                              <g id="label-5-3.6-4-6-4.1" class="forcedgrob gTableChild gTree grob gDesc">
                                <g id="layout::guide-box.7-9-7-9::GRID.VP.1219::guide-box.7-9-7-9::guides.3-3-3-3::GRID.VP.1218::guides.3-3-3-3::label-5-3.6-4-6-4::GRID.VP.1215::GRID.VP.1207.1" font-size="8.8" stroke="rgb(0,0,0)" font-family="Helvetica, Arial, FreeSans, Liberation Sans, Nimbus Sans L, sans-serif" stroke-opacity="1" font-weight="normal" font-style="normal" class="viewport">
                                  <g id="layout::guide-box.7-9-7-9::GRID.VP.1219::guide-box.7-9-7-9::guides.3-3-3-3::GRID.VP.1218::guides.3-3-3-3::label-5-3.6-4-6-4::GRID.VP.1215::GRID.VP.1207::GRID.VP.1208.1" class="viewport">
                                    <g id="guide.label.titleGrob.4947.1" class="titleGrob gTree grob gDesc">
                                      <g id="GRID.text.4945.1" class="text grob gDesc">
                                        <g id="GRID.text.4945.1.1" transform="translate(415.52, 241.9)" stroke-width="0.1">
                                          <g id="GRID.text.4945.1.1.scale" transform="scale(1, -1)">
                                            <text x="0" y="0" id="GRID.text.4945.1.1.text" text-anchor="start" font-size="8.8" stroke="rgb(0,0,0)" font-family="Helvetica, Arial, FreeSans, Liberation Sans, Nimbus Sans L, sans-serif" fill="rgb(0,0,0)" stroke-opacity="1" fill-opacity="1" font-weight="normal" font-style="normal">
                                              <tspan id="GRID.text.4945.1.1.tspan.1" dy="3.23" x="0">installer</tspan>
                                            </text>
                                          </g>
                                        </g>
                                      </g>
                                    </g>
                                  </g>
                                </g>
                              </g>
                            </g>
                          </g>
                          <g id="layout::guide-box.7-9-7-9::GRID.VP.1219::guide-box.7-9-7-9::guides.3-3-3-3::GRID.VP.1218::guides.3-3-3-3::label-6-3.7-4-7-4.1" class="viewport">
                            <g id="layout::guide-box.7-9-7-9::GRID.VP.1219::guide-box.7-9-7-9::guides.3-3-3-3::GRID.VP.1218::guides.3-3-3-3::label-6-3.7-4-7-4::GRID.VP.1216.1" class="viewport">
                              <g id="label-6-3.7-4-7-4.1" class="forcedgrob gTableChild gTree grob gDesc">
                                <g id="layout::guide-box.7-9-7-9::GRID.VP.1219::guide-box.7-9-7-9::guides.3-3-3-3::GRID.VP.1218::guides.3-3-3-3::label-6-3.7-4-7-4::GRID.VP.1216::GRID.VP.1209.1" font-size="8.8" stroke="rgb(0,0,0)" font-family="Helvetica, Arial, FreeSans, Liberation Sans, Nimbus Sans L, sans-serif" stroke-opacity="1" font-weight="normal" font-style="normal" class="viewport">
                                  <g id="layout::guide-box.7-9-7-9::GRID.VP.1219::guide-box.7-9-7-9::guides.3-3-3-3::GRID.VP.1218::guides.3-3-3-3::label-6-3.7-4-7-4::GRID.VP.1216::GRID.VP.1209::GRID.VP.1210.1" class="viewport">
                                    <g id="guide.label.titleGrob.4950.1" class="titleGrob gTree grob gDesc">
                                      <g id="GRID.text.4948.1" class="text grob gDesc">
                                        <g id="GRID.text.4948.1.1" transform="translate(415.52, 224.62)" stroke-width="0.1">
                                          <g id="GRID.text.4948.1.1.scale" transform="scale(1, -1)">
                                            <text x="0" y="0" id="GRID.text.4948.1.1.text" text-anchor="start" font-size="8.8" stroke="rgb(0,0,0)" font-family="Helvetica, Arial, FreeSans, Liberation Sans, Nimbus Sans L, sans-serif" fill="rgb(0,0,0)" stroke-opacity="1" fill-opacity="1" font-weight="normal" font-style="normal">
                                              <tspan id="GRID.text.4948.1.1.tspan.1" dy="3.23" x="0">Non so</tspan>
                                            </text>
                                          </g>
                                        </g>
                                      </g>
                                    </g>
                                  </g>
                                </g>
                              </g>
                            </g>
                          </g>
                          <g id="layout::guide-box.7-9-7-9::GRID.VP.1219::guide-box.7-9-7-9::guides.3-3-3-3::GRID.VP.1218::guides.3-3-3-3::label-7-3.8-4-8-4.1" class="viewport">
                            <g id="layout::guide-box.7-9-7-9::GRID.VP.1219::guide-box.7-9-7-9::guides.3-3-3-3::GRID.VP.1218::guides.3-3-3-3::label-7-3.8-4-8-4::GRID.VP.1217.1" class="viewport">
                              <g id="label-7-3.8-4-8-4.1" class="forcedgrob gTableChild gTree grob gDesc">
                                <g id="layout::guide-box.7-9-7-9::GRID.VP.1219::guide-box.7-9-7-9::guides.3-3-3-3::GRID.VP.1218::guides.3-3-3-3::label-7-3.8-4-8-4::GRID.VP.1217::GRID.VP.1211.1" font-size="8.8" stroke="rgb(0,0,0)" font-family="Helvetica, Arial, FreeSans, Liberation Sans, Nimbus Sans L, sans-serif" stroke-opacity="1" font-weight="normal" font-style="normal" class="viewport">
                                  <g id="layout::guide-box.7-9-7-9::GRID.VP.1219::guide-box.7-9-7-9::guides.3-3-3-3::GRID.VP.1218::guides.3-3-3-3::label-7-3.8-4-8-4::GRID.VP.1217::GRID.VP.1211::GRID.VP.1212.1" class="viewport">
                                    <g id="guide.label.titleGrob.4953.1" class="titleGrob gTree grob gDesc">
                                      <g id="GRID.text.4951.1" class="text grob gDesc">
                                        <g id="GRID.text.4951.1.1" transform="translate(415.52, 207.34)" stroke-width="0.1">
                                          <g id="GRID.text.4951.1.1.scale" transform="scale(1, -1)">
                                            <text x="0" y="0" id="GRID.text.4951.1.1.text" text-anchor="start" font-size="8.8" stroke="rgb(0,0,0)" font-family="Helvetica, Arial, FreeSans, Liberation Sans, Nimbus Sans L, sans-serif" fill="rgb(0,0,0)" stroke-opacity="1" fill-opacity="1" font-weight="normal" font-style="normal">
                                              <tspan id="GRID.text.4951.1.1.tspan.1" dy="3.23" x="0">archivio compresso</tspan>
                                            </text>
                                          </g>
                                        </g>
                                      </g>
                                    </g>
                                  </g>
                                </g>
                              </g>
                            </g>
                          </g>
                        </g>
                      </g>
                    </g>
                  </g>
                </g>
              </g>
            </g>
          </g>
          <g id="layout::subtitle.4-5-4-5.1" class="viewport"/>
          <g id="layout::title.3-5-3-5.1" class="viewport">
            <g id="layout::title.3-5-3-5::GRID.VP.1220.1" font-size="13.2" stroke="rgb(102,102,102)" font-family="Helvetica, Arial, FreeSans, Liberation Sans, Nimbus Sans L, sans-serif" stroke-opacity="1" font-weight="normal" font-style="normal" class="viewport">
              <g id="layout::title.3-5-3-5::GRID.VP.1220::GRID.VP.1221.1" class="viewport">
                <g id="title.3-5-3-5.1" class="forcedgrob gTableChild titleGrob gTree grob gDesc">
                  <g id="GRID.text.4971.1" class="text grob gDesc">
                    <g id="GRID.text.4971.1.1" transform="translate(192.27, 446.15)" stroke-width="0.1">
                      <g id="GRID.text.4971.1.1.scale" transform="scale(1, -1)">
                        <text x="0" y="0" id="GRID.text.4971.1.1.text" text-anchor="middle" font-size="13.2" stroke="rgb(102,102,102)" font-family="Helvetica, Arial, FreeSans, Liberation Sans, Nimbus Sans L, sans-serif" fill="rgb(102,102,102)" stroke-opacity="1" fill-opacity="1" font-weight="normal" font-style="normal">
                          <tspan id="GRID.text.4971.1.1.tspan.1" dy="9.33" x="0">risposta totali-file_rar</tspan>
                        </text>
                      </g>
                    </g>
                  </g>
                </g>
              </g>
            </g>
          </g>
          <g id="layout::caption.10-5-10-5.1" class="viewport"/>
          <g id="layout::tag.2-2-2-2.1" class="viewport"/>
        </g>
      </g>
    </g>
  </g>
</svg>