<?xml version="1.0" encoding="UTF-8"?>
<svg xmlns="http://www.w3.org/2000/svg" xmlns:xlink="http://www.w3.org/1999/xlink" width="504px" height="504px" viewBox="0 0 504 504" version="1.1">
  <metadata xmlns:gridsvg="http://www.stat.auckland.ac.nz/~paul/R/gridSVG/">
    <gridsvg:generator name="gridSVG" version="1.6-0" time="2019-01-07 19:39:54"/>
    <gridsvg:argument name="name" value="./latest_informaggio_csv/risultati/svg/risposta-totali-allinurl.svg"/>
    <gridsvg:argument name="exportCoords" value="none"/>
    <gridsvg:argument name="exportMappings" value="none"/>
    <gridsvg:argument name="exportJS" value="none"/>
    <gridsvg:argument name="res" value="72"/>
    <gridsvg:argument name="prefix" value=""/>
    <gridsvg:argument name="addClasses" value="TRUE"/>
    <gridsvg:argument name="indent" value="TRUE"/>
    <gridsvg:argument name="htmlWrapper" value="FALSE"/>
    <gridsvg:argument name="usePaths" value="vpPaths"/>
    <gridsvg:argument name="uniqueNames" value="TRUE"/>
    <gridsvg:separator name="id.sep" value="."/>
    <gridsvg:separator name="gPath.sep" value="::"/>
    <gridsvg:separator name="vpPath.sep" value="::"/>
  </metadata>
  <g transform="translate(0, 504) scale(1, -1)">
    <g id="gridSVG" fill="none" stroke="rgb(0,0,0)" stroke-dasharray="none" stroke-width="0.75" font-size="12" font-family="Helvetica, Arial, FreeSans, Liberation Sans, Nimbus Sans L, sans-serif" opacity="1" stroke-linecap="round" stroke-linejoin="round" stroke-miterlimit="10" stroke-opacity="1" fill-opacity="0" font-weight="normal" font-style="normal">
      <g id="layout.1" class="viewport">
        <g id="layout.2" class="forcedgrob gtable gTree grob gDesc">
          <defs>
            <clipPath id="layout::background.1-11-12-1.1.clipPath">
              <rect x="0" y="46.75" width="504" height="410.49" fill="none" stroke="none"/>
            </clipPath>
          </defs>
          <g id="layout::background.1-11-12-1.1" clip-path="url(#layout::background.1-11-12-1.1.clipPath)" class="viewport">
            <g id="background.1-11-12-1.1" class="forcedgrob gTableChild rect grob gDesc">
              <rect id="background.1-11-12-1.1.1" x="0" y="46.75" width="504" height="410.49" transform="" stroke-width="1.07" stroke="rgb(255,255,255)" fill="rgb(255,255,255)" stroke-dasharray="none" stroke-opacity="1" fill-opacity="1"/>
            </g>
          </g>
          <defs>
            <clipPath id="layout::panel.7-5-7-5.1.clipPath">
              <rect x="8.22" y="54.97" width="379.34" height="379.34" fill="none" stroke="none"/>
            </clipPath>
          </defs>
          <g id="layout::panel.7-5-7-5.1" clip-path="url(#layout::panel.7-5-7-5.1.clipPath)" class="viewport">
            <g id="panel.7-5-7-5.1" class="forcedgrob gTableChild gTree grob gDesc">
              <g id="grill.gTree.4835.1" class="gTree grob gDesc">
                <g id="panel.background..rect.4831.1" class="rect grob gDesc">
                  <rect id="panel.background..rect.4831.1.1" x="8.22" y="54.97" width="379.34" height="379.34" transform="" stroke-width="1.07" stroke="none" fill="rgb(255,255,255)" stroke-dasharray="none" stroke-opacity="0" fill-opacity="1"/>
                </g>
              </g>
              <g id="bar.gTree.4824.1" class="gTree grob gDesc">
                <g id="geom_polygon.polygon.4814.1" class="polygon grob gDesc">
                  <polygon id="geom_polygon.polygon.4814.1.1" points="197.89,244.64 193.06,242.63 188.23,240.61 183.41,238.59 178.58,236.57 173.75,234.55 168.92,232.54 164.1,230.52 159.27,228.5 154.44,226.48 149.61,224.47 144.79,222.45 139.96,220.43 135.13,218.41 130.3,216.4 125.48,214.38 120.65,212.36 115.82,210.34 110.99,208.32 106.17,206.31 101.34,204.29 96.51,202.27 91.68,200.25 86.85,198.24 82.03,196.22 77.2,194.2 72.37,192.18 67.54,190.16 62.72,188.15 57.89,186.13 59.96,181.41 62.19,176.75 64.57,172.18 67.11,167.69 69.8,163.29 72.64,158.99 75.62,154.78 78.75,150.68 82.01,146.69 85.41,142.8 88.93,139.04 92.58,135.4 96.36,131.88 100.25,128.5 104.25,125.25 108.36,122.13 112.58,119.16 116.89,116.34 121.3,113.66 125.79,111.13 130.37,108.76 135.03,106.54 139.76,104.49 144.55,102.59 149.41,100.86 154.32,99.3 159.29,97.9 164.3,96.67 169.34,95.62 174.42,94.73 179.53,94.02 184.66,93.49 189.81,93.12 194.96,92.94 200.12,92.92 205.27,93.09 210.42,93.43 215.55,93.94 220.66,94.63 225.74,95.49 230.8,96.52 235.81,97.72 240.78,99.1 245.7,100.64 250.57,102.35 255.37,104.22 260.11,106.25 264.78,108.45 269.37,110.8 273.88,113.3 278.29,115.96 282.62,118.77 286.85,121.72 290.98,124.82 294.99,128.05 298.9,131.42 302.69,134.91 306.36,138.54 309.9,142.28 313.31,146.15 316.59,150.13 319.74,154.22 322.74,158.41 325.6,162.7 328.31,167.09 330.87,171.57 333.27,176.13 335.52,180.77 337.62,185.48 339.55,190.26 341.31,195.11 342.91,200.01 344.34,204.97 345.61,209.97 346.7,215.01 347.62,220.08 348.37,225.18 348.95,230.31 349.35,235.45 349.57,240.6 349.62,245.76 349.49,250.91 349.19,256.06 348.72,261.2 348.07,266.31 347.25,271.4 346.25,276.46 345.08,281.49 343.75,286.47 342.24,291.4 340.57,296.28 338.73,301.1 336.73,305.85 334.57,310.53 332.25,315.14 329.78,319.66 327.16,324.1 324.38,328.45 321.46,332.7 318.4,336.85 315.19,340.89 311.86,344.82 308.39,348.63 304.79,352.33 301.07,355.9 297.23,359.34 293.27,362.65 289.21,365.82 285.04,368.86 280.76,371.75 276.4,374.49 271.94,377.08 267.4,379.52 262.77,381.81 258.07,383.93 253.31,385.9 248.47,387.7 243.58,389.33 238.64,390.8 233.65,392.1 228.62,393.23 223.55,394.19 218.45,394.98 213.33,395.59 208.2,396.03 203.04,396.29 197.89,396.38 197.89,391.15 197.89,385.91 197.89,380.68 197.89,375.45 197.89,370.22 197.89,364.99 197.89,359.75 197.89,354.52 197.89,349.29 197.89,344.06 197.89,338.82 197.89,333.59 197.89,328.36 197.89,323.13 197.89,317.89 197.89,312.66 197.89,307.43 197.89,302.2 197.89,296.97 197.89,291.73 197.89,286.5 197.89,281.27 197.89,276.04 197.89,270.8 197.89,265.57 197.89,260.34 197.89,255.11 197.89,249.88 197.89,244.64 197.89,244.64" stroke="none" fill="rgb(231,107,243)" stroke-width="1.07" stroke-dasharray="none" stroke-opacity="0" fill-opacity="1"/>
                </g>
                <g id="geom_polygon.polygon.4816.1" class="polygon grob gDesc">
                  <polygon id="geom_polygon.polygon.4816.1.1" points="197.89,244.64 195.1,249.07 192.31,253.5 189.53,257.93 186.74,262.35 183.95,266.78 181.16,271.21 178.37,275.64 175.59,280.07 172.8,284.49 170.01,288.92 167.22,293.35 164.44,297.78 161.65,302.2 158.86,306.63 156.07,311.06 153.28,315.49 150.5,319.91 147.71,324.34 144.92,328.77 142.13,333.2 139.35,337.63 136.56,342.05 133.77,346.48 130.98,350.91 128.19,355.34 125.41,359.76 122.62,364.19 119.83,368.62 117.04,373.05 112.69,370.2 108.44,367.21 104.29,364.07 100.26,360.8 96.34,357.39 92.53,353.84 88.86,350.17 85.3,346.37 81.89,342.45 78.6,338.42 75.46,334.28 72.46,330.04 69.61,325.69 66.91,321.25 64.36,316.71 61.97,312.1 59.74,307.4 57.67,302.63 55.77,297.8 54.03,292.9 52.46,287.94 51.06,282.93 49.84,277.88 48.79,272.79 47.91,267.67 47.21,262.51 46.69,257.34 46.34,252.15 46.17,246.96 46.18,241.76 46.37,236.57 46.73,231.38 47.28,226.21 48,221.06 48.89,215.94 49.96,210.85 51.21,205.8 52.62,200.8 54.21,195.85 55.97,190.96 57.89,186.13 62.72,188.15 67.54,190.16 72.37,192.18 77.2,194.2 82.03,196.22 86.85,198.24 91.68,200.25 96.51,202.27 101.34,204.29 106.17,206.31 110.99,208.32 115.82,210.34 120.65,212.36 125.48,214.38 130.3,216.4 135.13,218.41 139.96,220.43 144.79,222.45 149.61,224.47 154.44,226.48 159.27,228.5 164.1,230.52 168.92,232.54 173.75,234.55 178.58,236.57 183.41,238.59 188.23,240.61 193.06,242.63 197.89,244.64 197.89,244.64" stroke="none" fill="rgb(0,176,246)" stroke-width="1.07" stroke-dasharray="none" stroke-opacity="0" fill-opacity="1"/>
                </g>
                <g id="geom_polygon.polygon.4818.1" class="polygon grob gDesc">
                  <polygon id="geom_polygon.polygon.4818.1.1" points="197.89,244.64 196.31,249.63 194.73,254.62 193.15,259.61 191.57,264.6 190,269.59 188.42,274.57 186.84,279.56 185.26,284.55 183.68,289.54 182.1,294.53 180.52,299.52 178.94,304.5 177.37,309.49 175.79,314.48 174.21,319.47 172.63,324.46 171.05,329.45 169.47,334.43 167.89,339.42 166.32,344.41 164.74,349.4 163.16,354.39 161.58,359.38 160,364.37 158.42,369.35 156.84,374.34 155.26,379.33 153.69,384.32 152.11,389.31 146.86,387.54 141.68,385.58 136.58,383.44 131.55,381.11 126.62,378.6 121.78,375.91 117.04,373.05 119.83,368.62 122.62,364.19 125.41,359.76 128.19,355.34 130.98,350.91 133.77,346.48 136.56,342.05 139.35,337.63 142.13,333.2 144.92,328.77 147.71,324.34 150.5,319.91 153.28,315.49 156.07,311.06 158.86,306.63 161.65,302.2 164.44,297.78 167.22,293.35 170.01,288.92 172.8,284.49 175.59,280.07 178.37,275.64 181.16,271.21 183.95,266.78 186.74,262.35 189.53,257.93 192.31,253.5 195.1,249.07 197.89,244.64 197.89,244.64" stroke="none" fill="rgb(0,191,125)" stroke-width="1.07" stroke-dasharray="none" stroke-opacity="0" fill-opacity="1"/>
                </g>
                <g id="geom_polygon.polygon.4820.1" class="polygon grob gDesc">
                  <polygon id="geom_polygon.polygon.4820.1.1" points="197.89,244.64 197.36,249.85 196.82,255.05 196.29,260.26 195.75,265.46 195.22,270.67 194.69,275.87 194.15,281.08 193.62,286.28 193.09,291.49 192.55,296.69 192.02,301.9 191.49,307.1 190.95,312.31 190.42,317.51 189.88,322.72 189.35,327.92 188.82,333.13 188.28,338.33 187.75,343.54 187.22,348.74 186.68,353.95 186.15,359.15 185.62,364.36 185.08,369.56 184.55,374.77 184.01,379.97 183.48,385.18 182.95,390.38 182.41,395.59 177.28,394.97 172.18,394.18 167.1,393.22 162.06,392.09 157.06,390.78 152.11,389.31 153.69,384.32 155.26,379.33 156.84,374.34 158.42,369.35 160,364.37 161.58,359.38 163.16,354.39 164.74,349.4 166.32,344.41 167.89,339.42 169.47,334.43 171.05,329.45 172.63,324.46 174.21,319.47 175.79,314.48 177.37,309.49 178.94,304.5 180.52,299.52 182.1,294.53 183.68,289.54 185.26,284.55 186.84,279.56 188.42,274.57 190,269.59 191.57,264.6 193.15,259.61 194.73,254.62 196.31,249.63 197.89,244.64 197.89,244.64" stroke="none" fill="rgb(163,165,0)" stroke-width="1.07" stroke-dasharray="none" stroke-opacity="0" fill-opacity="1"/>
                </g>
                <g id="geom_polygon.polygon.4822.1" class="polygon grob gDesc">
                  <polygon id="geom_polygon.polygon.4822.1.1" points="197.89,244.64 197.89,249.88 197.89,255.11 197.89,260.34 197.89,265.57 197.89,270.8 197.89,276.04 197.89,281.27 197.89,286.5 197.89,291.73 197.89,296.97 197.89,302.2 197.89,307.43 197.89,312.66 197.89,317.89 197.89,323.13 197.89,328.36 197.89,333.59 197.89,338.82 197.89,344.06 197.89,349.29 197.89,354.52 197.89,359.75 197.89,364.99 197.89,370.22 197.89,375.45 197.89,380.68 197.89,385.91 197.89,391.15 197.89,396.38 192.72,396.29 187.56,396.03 182.41,395.59 182.95,390.38 183.48,385.18 184.01,379.97 184.55,374.77 185.08,369.56 185.62,364.36 186.15,359.15 186.68,353.95 187.22,348.74 187.75,343.54 188.28,338.33 188.82,333.13 189.35,327.92 189.88,322.72 190.42,317.51 190.95,312.31 191.49,307.1 192.02,301.9 192.55,296.69 193.09,291.49 193.62,286.28 194.15,281.08 194.69,275.87 195.22,270.67 195.75,265.46 196.29,260.26 196.82,255.05 197.36,249.85 197.89,244.64 197.89,244.64" stroke="none" fill="rgb(248,118,109)" stroke-width="1.07" stroke-dasharray="none" stroke-opacity="0" fill-opacity="1"/>
                </g>
              </g>
              <g id="GRID.text.4825.1" class="text grob gDesc">
                <g id="GRID.text.4825.1.1" transform="translate(261.04, 202.59)" stroke-width="0.1">
                  <g id="GRID.text.4825.1.1.scale" transform="scale(1, -1)">
                    <text x="0" y="0" id="GRID.text.4825.1.1.text" text-anchor="middle" stroke="rgb(0,0,0)" font-size="11.04" font-family="Helvetica, Arial, FreeSans, Liberation Sans, Nimbus Sans L, sans-serif" fill="rgb(0,0,0)" stroke-opacity="1" fill-opacity="1" font-weight="normal" font-style="normal">
                      <tspan id="GRID.text.4825.1.1.tspan.1" dy="3.95" x="0">169</tspan>
                    </text>
                  </g>
                </g>
                <g id="GRID.text.4825.1.2" transform="translate(125.56, 267.53)" stroke-width="0.1">
                  <g id="GRID.text.4825.1.2.scale" transform="scale(1, -1)">
                    <text x="0" y="0" id="GRID.text.4825.1.2.text" text-anchor="middle" stroke="rgb(0,0,0)" font-size="11.04" font-family="Helvetica, Arial, FreeSans, Liberation Sans, Nimbus Sans L, sans-serif" fill="rgb(0,0,0)" stroke-opacity="1" fill-opacity="1" font-weight="normal" font-style="normal">
                      <tspan id="GRID.text.4825.1.2.tspan.1" dy="3.95" x="0">55</tspan>
                    </text>
                  </g>
                </g>
                <g id="GRID.text.4825.1.3" transform="translate(165.97, 313.47)" stroke-width="0.1">
                  <g id="GRID.text.4825.1.3.scale" transform="scale(1, -1)">
                    <text x="0" y="0" id="GRID.text.4825.1.3.text" text-anchor="middle" stroke="rgb(0,0,0)" font-size="11.04" font-family="Helvetica, Arial, FreeSans, Liberation Sans, Nimbus Sans L, sans-serif" fill="rgb(0,0,0)" stroke-opacity="1" fill-opacity="1" font-weight="normal" font-style="normal">
                      <tspan id="GRID.text.4825.1.3.tspan.1" dy="3.95" x="0">10</tspan>
                    </text>
                  </g>
                </g>
                <g id="GRID.text.4825.1.4" transform="translate(182.49, 318.93)" stroke-width="0.1">
                  <g id="GRID.text.4825.1.4.scale" transform="scale(1, -1)">
                    <text x="0" y="0" id="GRID.text.4825.1.4.text" text-anchor="middle" stroke="rgb(0,0,0)" font-size="11.04" font-family="Helvetica, Arial, FreeSans, Liberation Sans, Nimbus Sans L, sans-serif" fill="rgb(0,0,0)" stroke-opacity="1" fill-opacity="1" font-weight="normal" font-style="normal">
                      <tspan id="GRID.text.4825.1.4.tspan.1" dy="3.95" x="0">8</tspan>
                    </text>
                  </g>
                </g>
                <g id="GRID.text.4825.1.5" transform="translate(194.01, 320.41)" stroke-width="0.1">
                  <g id="GRID.text.4825.1.5.scale" transform="scale(1, -1)">
                    <text x="0" y="0" id="GRID.text.4825.1.5.text" text-anchor="middle" stroke="rgb(0,0,0)" font-size="11.04" font-family="Helvetica, Arial, FreeSans, Liberation Sans, Nimbus Sans L, sans-serif" fill="rgb(0,0,0)" stroke-opacity="1" fill-opacity="1" font-weight="normal" font-style="normal">
                      <tspan id="GRID.text.4825.1.5.tspan.1" dy="3.95" x="0">4</tspan>
                    </text>
                  </g>
                </g>
              </g>
              <g id="GRID.gTree.4826.1" class="gTree grob gDesc"/>
            </g>
          </g>
          <g id="layout::spacer.8-6-8-6.1" class="viewport"/>
          <g id="layout::spacer.8-4-8-4.1" class="viewport"/>
          <g id="layout::spacer.6-6-6-6.1" class="viewport"/>
          <g id="layout::spacer.6-4-6-4.1" class="viewport"/>
          <g id="layout::axis-t.6-5-6-5.1" class="viewport"/>
          <g id="layout::axis-l.7-4-7-4.1" class="viewport">
            <g id="layout::axis-l.7-4-7-4::GRID.VP.1181.1" class="viewport">
              <g id="axis-l.7-4-7-4.1" class="forcedgrob gTableChild absoluteGrob gTree grob gDesc">
                <g id="layout::axis-l.7-4-7-4::GRID.VP.1181::axis.1" class="viewport">
                  <g id="axis.1" class="forcedgrob gtable gTree grob gDesc">
                    <g id="layout::axis-l.7-4-7-4::GRID.VP.1181::axis::axis.1-1-1-1.1" class="viewport"/>
                    <g id="layout::axis-l.7-4-7-4::GRID.VP.1181::axis::axis.1-2-1-2.1" class="viewport"/>
                  </g>
                </g>
              </g>
            </g>
          </g>
          <g id="layout::axis-r.7-6-7-6.1" class="viewport"/>
          <g id="layout::axis-b.8-5-8-5.1" class="viewport">
            <g id="layout::axis-b.8-5-8-5::GRID.VP.1180.1" class="viewport">
              <g id="axis-b.8-5-8-5.1" class="forcedgrob gTableChild absoluteGrob gTree grob gDesc">
                <g id="layout::axis-b.8-5-8-5::GRID.VP.1180::axis.1" class="viewport">
                  <g id="axis.2" class="forcedgrob gtable gTree grob gDesc">
                    <g id="layout::axis-b.8-5-8-5::GRID.VP.1180::axis::axis.1-1-1-1.1" class="viewport"/>
                    <g id="layout::axis-b.8-5-8-5::GRID.VP.1180::axis::axis.2-1-2-1.1" class="viewport"/>
                  </g>
                </g>
              </g>
            </g>
          </g>
          <g id="layout::xlab-t.5-5-5-5.1" class="viewport"/>
          <g id="layout::xlab-b.9-5-9-5.1" class="viewport"/>
          <g id="layout::ylab-l.7-3-7-3.1" class="viewport"/>
          <g id="layout::ylab-r.7-7-7-7.1" class="viewport"/>
          <g id="layout::guide-box.7-9-7-9.1" class="viewport">
            <g id="layout::guide-box.7-9-7-9::GRID.VP.1198.1" class="viewport">
              <g id="layout::guide-box.7-9-7-9::GRID.VP.1198::guide-box.7-9-7-9.1" class="viewport">
                <g id="guide-box.7-9-7-9.1" class="forcedgrob gTableChild gtable gTree grob gDesc">
                  <g id="layout::guide-box.7-9-7-9::GRID.VP.1198::guide-box.7-9-7-9::legend.box.background.2-4-4-2.1" class="viewport"/>
                  <g id="layout::guide-box.7-9-7-9::GRID.VP.1198::guide-box.7-9-7-9::guides.3-3-3-3.1" class="viewport">
                    <g id="layout::guide-box.7-9-7-9::GRID.VP.1198::guide-box.7-9-7-9::guides.3-3-3-3::GRID.VP.1197.1" class="viewport">
                      <g id="layout::guide-box.7-9-7-9::GRID.VP.1198::guide-box.7-9-7-9::guides.3-3-3-3::GRID.VP.1197::guides.3-3-3-3.1" class="viewport">
                        <g id="guides.3-3-3-3.1" class="forcedgrob gTableChild gtable gTree grob gDesc">
                          <g id="layout::guide-box.7-9-7-9::GRID.VP.1198::guide-box.7-9-7-9::guides.3-3-3-3::GRID.VP.1197::guides.3-3-3-3::background.1-6-9-1.1" class="viewport">
                            <g id="background.1-6-9-1.1" class="forcedgrob gTableChild rect grob gDesc">
                              <rect id="background.1-6-9-1.1.1" x="398.52" y="193.22" width="100" height="102.84" transform="" stroke-width="1.07" stroke="none" fill="rgb(255,255,255)" stroke-dasharray="none" stroke-opacity="0" fill-opacity="1"/>
                            </g>
                          </g>
                          <g id="layout::guide-box.7-9-7-9::GRID.VP.1198::guide-box.7-9-7-9::guides.3-3-3-3::GRID.VP.1197::guides.3-3-3-3::title.2-5-2-2.1" class="viewport"/>
                          <g id="layout::guide-box.7-9-7-9::GRID.VP.1198::guide-box.7-9-7-9::guides.3-3-3-3::GRID.VP.1197::guides.3-3-3-3::key-3-1-bg.4-2-4-2.1" class="viewport"/>
                          <g id="layout::guide-box.7-9-7-9::GRID.VP.1198::guide-box.7-9-7-9::guides.3-3-3-3::GRID.VP.1197::guides.3-3-3-3::key-3-1-1.4-2-4-2.1" class="viewport">
                            <g id="key-3-1-1.4-2-4-2.1" class="forcedgrob gTableChild rect grob gDesc">
                              <rect id="key-3-1-1.4-2-4-2.1.1" x="404.71" y="268.53" width="15.86" height="15.86" transform="" stroke="none" fill="rgb(248,118,109)" stroke-dasharray="none" stroke-width="1.07" stroke-linejoin="miter" stroke-opacity="0" fill-opacity="1"/>
                            </g>
                          </g>
                          <g id="layout::guide-box.7-9-7-9::GRID.VP.1198::guide-box.7-9-7-9::guides.3-3-3-3::GRID.VP.1197::guides.3-3-3-3::key-4-1-bg.5-2-5-2.1" class="viewport"/>
                          <g id="layout::guide-box.7-9-7-9::GRID.VP.1198::guide-box.7-9-7-9::guides.3-3-3-3::GRID.VP.1197::guides.3-3-3-3::key-4-1-1.5-2-5-2.1" class="viewport">
                            <g id="key-4-1-1.5-2-5-2.1" class="forcedgrob gTableChild rect grob gDesc">
                              <rect id="key-4-1-1.5-2-5-2.1.1" x="404.71" y="251.25" width="15.86" height="15.86" transform="" stroke="none" fill="rgb(163,165,0)" stroke-dasharray="none" stroke-width="1.07" stroke-linejoin="miter" stroke-opacity="0" fill-opacity="1"/>
                            </g>
                          </g>
                          <g id="layout::guide-box.7-9-7-9::GRID.VP.1198::guide-box.7-9-7-9::guides.3-3-3-3::GRID.VP.1197::guides.3-3-3-3::key-5-1-bg.6-2-6-2.1" class="viewport"/>
                          <g id="layout::guide-box.7-9-7-9::GRID.VP.1198::guide-box.7-9-7-9::guides.3-3-3-3::GRID.VP.1197::guides.3-3-3-3::key-5-1-1.6-2-6-2.1" class="viewport">
                            <g id="key-5-1-1.6-2-6-2.1" class="forcedgrob gTableChild rect grob gDesc">
                              <rect id="key-5-1-1.6-2-6-2.1.1" x="404.71" y="233.97" width="15.86" height="15.86" transform="" stroke="none" fill="rgb(0,191,125)" stroke-dasharray="none" stroke-width="1.07" stroke-linejoin="miter" stroke-opacity="0" fill-opacity="1"/>
                            </g>
                          </g>
                          <g id="layout::guide-box.7-9-7-9::GRID.VP.1198::guide-box.7-9-7-9::guides.3-3-3-3::GRID.VP.1197::guides.3-3-3-3::key-6-1-bg.7-2-7-2.1" class="viewport"/>
                          <g id="layout::guide-box.7-9-7-9::GRID.VP.1198::guide-box.7-9-7-9::guides.3-3-3-3::GRID.VP.1197::guides.3-3-3-3::key-6-1-1.7-2-7-2.1" class="viewport">
                            <g id="key-6-1-1.7-2-7-2.1" class="forcedgrob gTableChild rect grob gDesc">
                              <rect id="key-6-1-1.7-2-7-2.1.1" x="404.71" y="216.69" width="15.86" height="15.86" transform="" stroke="none" fill="rgb(0,176,246)" stroke-dasharray="none" stroke-width="1.07" stroke-linejoin="miter" stroke-opacity="0" fill-opacity="1"/>
                            </g>
                          </g>
                          <g id="layout::guide-box.7-9-7-9::GRID.VP.1198::guide-box.7-9-7-9::guides.3-3-3-3::GRID.VP.1197::guides.3-3-3-3::key-7-1-bg.8-2-8-2.1" class="viewport"/>
                          <g id="layout::guide-box.7-9-7-9::GRID.VP.1198::guide-box.7-9-7-9::guides.3-3-3-3::GRID.VP.1197::guides.3-3-3-3::key-7-1-1.8-2-8-2.1" class="viewport">
                            <g id="key-7-1-1.8-2-8-2.1" class="forcedgrob gTableChild rect grob gDesc">
                              <rect id="key-7-1-1.8-2-8-2.1.1" x="404.71" y="199.41" width="15.86" height="15.86" transform="" stroke="none" fill="rgb(231,107,243)" stroke-dasharray="none" stroke-width="1.07" stroke-linejoin="miter" stroke-opacity="0" fill-opacity="1"/>
                            </g>
                          </g>
                          <g id="layout::guide-box.7-9-7-9::GRID.VP.1198::guide-box.7-9-7-9::guides.3-3-3-3::GRID.VP.1197::guides.3-3-3-3::label-3-3.4-4-4-4.1" class="viewport">
                            <g id="layout::guide-box.7-9-7-9::GRID.VP.1198::guide-box.7-9-7-9::guides.3-3-3-3::GRID.VP.1197::guides.3-3-3-3::label-3-3.4-4-4-4::GRID.VP.1192.1" class="viewport">
                              <g id="label-3-3.4-4-4-4.1" class="forcedgrob gTableChild gTree grob gDesc">
                                <g id="layout::guide-box.7-9-7-9::GRID.VP.1198::guide-box.7-9-7-9::guides.3-3-3-3::GRID.VP.1197::guides.3-3-3-3::label-3-3.4-4-4-4::GRID.VP.1192::GRID.VP.1182.1" font-size="8.8" stroke="rgb(0,0,0)" font-family="Helvetica, Arial, FreeSans, Liberation Sans, Nimbus Sans L, sans-serif" stroke-opacity="1" font-weight="normal" font-style="normal" class="viewport">
                                  <g id="layout::guide-box.7-9-7-9::GRID.VP.1198::guide-box.7-9-7-9::guides.3-3-3-3::GRID.VP.1197::guides.3-3-3-3::label-3-3.4-4-4-4::GRID.VP.1192::GRID.VP.1182::GRID.VP.1183.1" class="viewport">
                                    <g id="guide.label.titleGrob.4849.1" class="titleGrob gTree grob gDesc">
                                      <g id="GRID.text.4847.1" class="text grob gDesc">
                                        <g id="GRID.text.4847.1.1" transform="translate(426.76, 276.46)" stroke-width="0.1">
                                          <g id="GRID.text.4847.1.1.scale" transform="scale(1, -1)">
                                            <text x="0" y="0" id="GRID.text.4847.1.1.text" text-anchor="start" font-size="8.8" stroke="rgb(0,0,0)" font-family="Helvetica, Arial, FreeSans, Liberation Sans, Nimbus Sans L, sans-serif" fill="rgb(0,0,0)" stroke-opacity="1" fill-opacity="1" font-weight="normal" font-style="normal">
                                              <tspan id="GRID.text.4847.1.1.tspan.1" dy="3.23" x="0">dark web</tspan>
                                            </text>
                                          </g>
                                        </g>
                                      </g>
                                    </g>
                                  </g>
                                </g>
                              </g>
                            </g>
                          </g>
                          <g id="layout::guide-box.7-9-7-9::GRID.VP.1198::guide-box.7-9-7-9::guides.3-3-3-3::GRID.VP.1197::guides.3-3-3-3::label-4-3.5-4-5-4.1" class="viewport">
                            <g id="layout::guide-box.7-9-7-9::GRID.VP.1198::guide-box.7-9-7-9::guides.3-3-3-3::GRID.VP.1197::guides.3-3-3-3::label-4-3.5-4-5-4::GRID.VP.1193.1" class="viewport">
                              <g id="label-4-3.5-4-5-4.1" class="forcedgrob gTableChild gTree grob gDesc">
                                <g id="layout::guide-box.7-9-7-9::GRID.VP.1198::guide-box.7-9-7-9::guides.3-3-3-3::GRID.VP.1197::guides.3-3-3-3::label-4-3.5-4-5-4::GRID.VP.1193::GRID.VP.1184.1" font-size="8.8" stroke="rgb(0,0,0)" font-family="Helvetica, Arial, FreeSans, Liberation Sans, Nimbus Sans L, sans-serif" stroke-opacity="1" font-weight="normal" font-style="normal" class="viewport">
                                  <g id="layout::guide-box.7-9-7-9::GRID.VP.1198::guide-box.7-9-7-9::guides.3-3-3-3::GRID.VP.1197::guides.3-3-3-3::label-4-3.5-4-5-4::GRID.VP.1193::GRID.VP.1184::GRID.VP.1185.1" class="viewport">
                                    <g id="guide.label.titleGrob.4852.1" class="titleGrob gTree grob gDesc">
                                      <g id="GRID.text.4850.1" class="text grob gDesc">
                                        <g id="GRID.text.4850.1.1" transform="translate(426.76, 259.18)" stroke-width="0.1">
                                          <g id="GRID.text.4850.1.1.scale" transform="scale(1, -1)">
                                            <text x="0" y="0" id="GRID.text.4850.1.1.text" text-anchor="start" font-size="8.8" stroke="rgb(0,0,0)" font-family="Helvetica, Arial, FreeSans, Liberation Sans, Nimbus Sans L, sans-serif" fill="rgb(0,0,0)" stroke-opacity="1" fill-opacity="1" font-weight="normal" font-style="normal">
                                              <tspan id="GRID.text.4850.1.1.tspan.1" dy="3.23" x="0">non esiste</tspan>
                                            </text>
                                          </g>
                                        </g>
                                      </g>
                                    </g>
                                  </g>
                                </g>
                              </g>
                            </g>
                          </g>
                          <g id="layout::guide-box.7-9-7-9::GRID.VP.1198::guide-box.7-9-7-9::guides.3-3-3-3::GRID.VP.1197::guides.3-3-3-3::label-5-3.6-4-6-4.1" class="viewport">
                            <g id="layout::guide-box.7-9-7-9::GRID.VP.1198::guide-box.7-9-7-9::guides.3-3-3-3::GRID.VP.1197::guides.3-3-3-3::label-5-3.6-4-6-4::GRID.VP.1194.1" class="viewport">
                              <g id="label-5-3.6-4-6-4.1" class="forcedgrob gTableChild gTree grob gDesc">
                                <g id="layout::guide-box.7-9-7-9::GRID.VP.1198::guide-box.7-9-7-9::guides.3-3-3-3::GRID.VP.1197::guides.3-3-3-3::label-5-3.6-4-6-4::GRID.VP.1194::GRID.VP.1186.1" font-size="8.8" stroke="rgb(0,0,0)" font-family="Helvetica, Arial, FreeSans, Liberation Sans, Nimbus Sans L, sans-serif" stroke-opacity="1" font-weight="normal" font-style="normal" class="viewport">
                                  <g id="layout::guide-box.7-9-7-9::GRID.VP.1198::guide-box.7-9-7-9::guides.3-3-3-3::GRID.VP.1197::guides.3-3-3-3::label-5-3.6-4-6-4::GRID.VP.1194::GRID.VP.1186::GRID.VP.1187.1" class="viewport">
                                    <g id="guide.label.titleGrob.4855.1" class="titleGrob gTree grob gDesc">
                                      <g id="GRID.text.4853.1" class="text grob gDesc">
                                        <g id="GRID.text.4853.1.1" transform="translate(426.76, 241.9)" stroke-width="0.1">
                                          <g id="GRID.text.4853.1.1.scale" transform="scale(1, -1)">
                                            <text x="0" y="0" id="GRID.text.4853.1.1.text" text-anchor="start" font-size="8.8" stroke="rgb(0,0,0)" font-family="Helvetica, Arial, FreeSans, Liberation Sans, Nimbus Sans L, sans-serif" fill="rgb(0,0,0)" stroke-opacity="1" fill-opacity="1" font-weight="normal" font-style="normal">
                                              <tspan id="GRID.text.4853.1.1.tspan.1" dy="3.23" x="0">carattere jolly</tspan>
                                            </text>
                                          </g>
                                        </g>
                                      </g>
                                    </g>
                                  </g>
                                </g>
                              </g>
                            </g>
                          </g>
                          <g id="layout::guide-box.7-9-7-9::GRID.VP.1198::guide-box.7-9-7-9::guides.3-3-3-3::GRID.VP.1197::guides.3-3-3-3::label-6-3.7-4-7-4.1" class="viewport">
                            <g id="layout::guide-box.7-9-7-9::GRID.VP.1198::guide-box.7-9-7-9::guides.3-3-3-3::GRID.VP.1197::guides.3-3-3-3::label-6-3.7-4-7-4::GRID.VP.1195.1" class="viewport">
                              <g id="label-6-3.7-4-7-4.1" class="forcedgrob gTableChild gTree grob gDesc">
                                <g id="layout::guide-box.7-9-7-9::GRID.VP.1198::guide-box.7-9-7-9::guides.3-3-3-3::GRID.VP.1197::guides.3-3-3-3::label-6-3.7-4-7-4::GRID.VP.1195::GRID.VP.1188.1" font-size="8.8" stroke="rgb(0,0,0)" font-family="Helvetica, Arial, FreeSans, Liberation Sans, Nimbus Sans L, sans-serif" stroke-opacity="1" font-weight="normal" font-style="normal" class="viewport">
                                  <g id="layout::guide-box.7-9-7-9::GRID.VP.1198::guide-box.7-9-7-9::guides.3-3-3-3::GRID.VP.1197::guides.3-3-3-3::label-6-3.7-4-7-4::GRID.VP.1195::GRID.VP.1188::GRID.VP.1189.1" class="viewport">
                                    <g id="guide.label.titleGrob.4858.1" class="titleGrob gTree grob gDesc">
                                      <g id="GRID.text.4856.1" class="text grob gDesc">
                                        <g id="GRID.text.4856.1.1" transform="translate(426.76, 224.62)" stroke-width="0.1">
                                          <g id="GRID.text.4856.1.1.scale" transform="scale(1, -1)">
                                            <text x="0" y="0" id="GRID.text.4856.1.1.text" text-anchor="start" font-size="8.8" stroke="rgb(0,0,0)" font-family="Helvetica, Arial, FreeSans, Liberation Sans, Nimbus Sans L, sans-serif" fill="rgb(0,0,0)" stroke-opacity="1" fill-opacity="1" font-weight="normal" font-style="normal">
                                              <tspan id="GRID.text.4856.1.1.tspan.1" dy="3.23" x="0">restringe risultati</tspan>
                                            </text>
                                          </g>
                                        </g>
                                      </g>
                                    </g>
                                  </g>
                                </g>
                              </g>
                            </g>
                          </g>
                          <g id="layout::guide-box.7-9-7-9::GRID.VP.1198::guide-box.7-9-7-9::guides.3-3-3-3::GRID.VP.1197::guides.3-3-3-3::label-7-3.8-4-8-4.1" class="viewport">
                            <g id="layout::guide-box.7-9-7-9::GRID.VP.1198::guide-box.7-9-7-9::guides.3-3-3-3::GRID.VP.1197::guides.3-3-3-3::label-7-3.8-4-8-4::GRID.VP.1196.1" class="viewport">
                              <g id="label-7-3.8-4-8-4.1" class="forcedgrob gTableChild gTree grob gDesc">
                                <g id="layout::guide-box.7-9-7-9::GRID.VP.1198::guide-box.7-9-7-9::guides.3-3-3-3::GRID.VP.1197::guides.3-3-3-3::label-7-3.8-4-8-4::GRID.VP.1196::GRID.VP.1190.1" font-size="8.8" stroke="rgb(0,0,0)" font-family="Helvetica, Arial, FreeSans, Liberation Sans, Nimbus Sans L, sans-serif" stroke-opacity="1" font-weight="normal" font-style="normal" class="viewport">
                                  <g id="layout::guide-box.7-9-7-9::GRID.VP.1198::guide-box.7-9-7-9::guides.3-3-3-3::GRID.VP.1197::guides.3-3-3-3::label-7-3.8-4-8-4::GRID.VP.1196::GRID.VP.1190::GRID.VP.1191.1" class="viewport">
                                    <g id="guide.label.titleGrob.4861.1" class="titleGrob gTree grob gDesc">
                                      <g id="GRID.text.4859.1" class="text grob gDesc">
                                        <g id="GRID.text.4859.1.1" transform="translate(426.76, 207.34)" stroke-width="0.1">
                                          <g id="GRID.text.4859.1.1.scale" transform="scale(1, -1)">
                                            <text x="0" y="0" id="GRID.text.4859.1.1.text" text-anchor="start" font-size="8.8" stroke="rgb(0,0,0)" font-family="Helvetica, Arial, FreeSans, Liberation Sans, Nimbus Sans L, sans-serif" fill="rgb(0,0,0)" stroke-opacity="1" fill-opacity="1" font-weight="normal" font-style="normal">
                                              <tspan id="GRID.text.4859.1.1.tspan.1" dy="3.23" x="0">Non so</tspan>
                                            </text>
                                          </g>
                                        </g>
                                      </g>
                                    </g>
                                  </g>
                                </g>
                              </g>
                            </g>
                          </g>
                        </g>
                      </g>
                    </g>
                  </g>
                </g>
              </g>
            </g>
          </g>
          <g id="layout::subtitle.4-5-4-5.1" class="viewport"/>
          <g id="layout::title.3-5-3-5.1" class="viewport">
            <g id="layout::title.3-5-3-5::GRID.VP.1199.1" font-size="13.2" stroke="rgb(102,102,102)" font-family="Helvetica, Arial, FreeSans, Liberation Sans, Nimbus Sans L, sans-serif" stroke-opacity="1" font-weight="normal" font-style="normal" class="viewport">
              <g id="layout::title.3-5-3-5::GRID.VP.1199::GRID.VP.1200.1" class="viewport">
                <g id="title.3-5-3-5.1" class="forcedgrob gTableChild titleGrob gTree grob gDesc">
                  <g id="GRID.text.4879.1" class="text grob gDesc">
                    <g id="GRID.text.4879.1.1" transform="translate(197.89, 451.77)" stroke-width="0.1">
                      <g id="GRID.text.4879.1.1.scale" transform="scale(1, -1)">
                        <text x="0" y="0" id="GRID.text.4879.1.1.text" text-anchor="middle" font-size="13.2" stroke="rgb(102,102,102)" font-family="Helvetica, Arial, FreeSans, Liberation Sans, Nimbus Sans L, sans-serif" fill="rgb(102,102,102)" stroke-opacity="1" fill-opacity="1" font-weight="normal" font-style="normal">
                          <tspan id="GRID.text.4879.1.1.tspan.1" dy="9.33" x="0">risposta totali-allinurl</tspan>
                        </text>
                      </g>
                    </g>
                  </g>
                </g>
              </g>
            </g>
          </g>
          <g id="layout::caption.10-5-10-5.1" class="viewport"/>
          <g id="layout::tag.2-2-2-2.1" class="viewport"/>
        </g>
      </g>
    </g>
  </g>
</svg>